<?xml version="1.0" encoding="UTF-8" standalone="no"?>
<!-- Created with Inkscape (http://www.inkscape.org/) -->

<svg
   xmlns:dc="http://purl.org/dc/elements/1.1/"
   xmlns:cc="http://creativecommons.org/ns#"
   xmlns:rdf="http://www.w3.org/1999/02/22-rdf-syntax-ns#"
   xmlns:svg="http://www.w3.org/2000/svg"
   xmlns="http://www.w3.org/2000/svg"
   xmlns:xlink="http://www.w3.org/1999/xlink"
   xmlns:sodipodi="http://sodipodi.sourceforge.net/DTD/sodipodi-0.dtd"
   xmlns:inkscape="http://www.inkscape.org/namespaces/inkscape"
   width="765"
   height="990"
   id="svg2"
   version="1.1"
   inkscape:version="0.48.1 r9760"
   sodipodi:docname="2.svg">
  <script
     xlink:href=""
     id="script3033" />
  <defs
     id="defs4" />
  <sodipodi:namedview
     id="base"
     pagecolor="#ffffff"
     bordercolor="#666666"
     borderopacity="1.0"
     inkscape:pageopacity="0.0"
     inkscape:pageshadow="2"
     inkscape:zoom="2.02"
     inkscape:cx="500.19084"
     inkscape:cy="657.99589"
     inkscape:document-units="in"
     inkscape:current-layer="layer6"
     showgrid="true"
     units="in"
     inkscape:window-width="1037"
     inkscape:window-height="857"
     inkscape:window-x="543"
     inkscape:window-y="28"
     inkscape:window-maximized="0"
     showguides="true">
    <inkscape:grid
       type="xygrid"
       id="grid2985"
       empspacing="5"
       visible="true"
       enabled="true"
       snapvisiblegridlinesonly="true"
       units="in"
       spacingx="0.1in"
       spacingy="0.1in" />
    <sodipodi:guide
       position="0,0"
       orientation="0,765"
       id="guide3042" />
    <sodipodi:guide
       position="765,0"
       orientation="-990,0"
       id="guide3044" />
    <sodipodi:guide
       position="765,990"
       orientation="0,-765"
       id="guide3046" />
    <sodipodi:guide
       position="0,990"
       orientation="990,0"
       id="guide3048" />
    <sodipodi:guide
       position="720,45"
       orientation="0,765"
       id="guide3050" />
    <sodipodi:guide
       position="720,900"
       orientation="-990,0"
       id="guide3052" />
    <sodipodi:guide
       position="63,900"
       orientation="0,-765"
       id="guide3054" />
    <sodipodi:guide
       position="90,927"
       orientation="990,0"
       id="guide3056" />
  </sodipodi:namedview>
  <metadata
     id="metadata7">
    <rdf:RDF>
      <cc:Work
         rdf:about="">
        <dc:format>image/svg+xml</dc:format>
        <dc:type
           rdf:resource="http://purl.org/dc/dcmitype/StillImage" />
        <dc:title></dc:title>
        <cc:license
           rdf:resource="http://creativecommons.org/licenses/by-nc/3.0/" />
      </cc:Work>
      <cc:License
         rdf:about="http://creativecommons.org/licenses/by-nc/3.0/">
        <cc:permits
           rdf:resource="http://creativecommons.org/ns#Reproduction" />
        <cc:permits
           rdf:resource="http://creativecommons.org/ns#Distribution" />
        <cc:requires
           rdf:resource="http://creativecommons.org/ns#Notice" />
        <cc:requires
           rdf:resource="http://creativecommons.org/ns#Attribution" />
        <cc:prohibits
           rdf:resource="http://creativecommons.org/ns#CommercialUse" />
        <cc:permits
           rdf:resource="http://creativecommons.org/ns#DerivativeWorks" />
      </cc:License>
    </rdf:RDF>
  </metadata>
  <g
     inkscape:groupmode="layer"
     id="layer2"
     inkscape:label="Border"
     sodipodi:insensitive="true">
    <rect
       style="fill:none;stroke:#000000;stroke-width:1px;stroke-linecap:butt;stroke-linejoin:miter;stroke-opacity:1"
       id="rect3040"
       width="630"
       height="855"
       x="90"
       y="90" />
  </g>
  <g
     inkscape:label="Layer 1"
     inkscape:groupmode="layer"
     id="layer1"
     transform="translate(0,-62.362)">
    <g
       id="g4008"
       inkscape:export-filename="/home/nholtz/3203/drawings/SDBeamsFrames/Stability/Problems/2-soln.png"
       inkscape:export-xdpi="90"
       inkscape:export-ydpi="90">
      <path
         inkscape:connector-curvature="0"
         id="path5829"
         d="m 309.82191,286.99459 0,101.39499"
         style="fill:none;stroke:#000000;stroke-width:2.01390171;stroke-linecap:butt;stroke-linejoin:miter;stroke-opacity:1" />
      <path
         inkscape:connector-curvature="0"
         id="path5831"
         d="m 308.8393,286.99459 175.64527,0"
         style="fill:none;stroke:#000000;stroke-width:2.41967821;stroke-linecap:butt;stroke-linejoin:miter;stroke-opacity:1" />
      <path
         inkscape:connector-curvature="0"
         id="path5829-8"
         d="m 396,287.362 0,101.39499"
         style="fill:none;stroke:#000000;stroke-width:2.01390171;stroke-linecap:butt;stroke-linejoin:miter;stroke-opacity:1" />
      <path
         inkscape:connector-curvature="0"
         id="path5829-2"
         d="m 483.47267,286.99459 0,101.39499"
         style="fill:none;stroke:#000000;stroke-width:2.01390171;stroke-linecap:butt;stroke-linejoin:miter;stroke-opacity:1" />
      <path
         d="m 483.30977,388.0493 5,7.5 -10,0 z"
         id="path5224-5"
         inkscape:connector-curvature="0"
         style="fill:#000000;stroke:#000000;stroke-width:0" />
      <path
         d="m 475.80977,402.63684 15,0"
         id="path5226-4"
         inkscape:connector-curvature="0"
         style="fill:none;stroke:#000000;stroke-width:1.25" />
      <path
         d="m 490.80977,402.63684 -3.75,3.75 m 0,-3.75 -3.75,3.75 m 0,-3.75 -3.75,3.75 m 0,-3.75 -3.75,3.75 m 0,-3.75 -3.75,3.75"
         id="path5228-7"
         inkscape:connector-curvature="0"
         style="fill:none;stroke:#000000;stroke-width:1.25" />
      <path
         inkscape:connector-curvature="0"
         id="path3342"
         d="m 474.97004,396.02842 16.4794,0"
         style="fill:none;stroke:#000000;stroke-width:1px;stroke-linecap:butt;stroke-linejoin:miter;stroke-opacity:1" />
      <g
         transform="matrix(0.93789014,0,0,0.93789014,489.50605,399.29573)"
         id="use3513-4">
        <circle
           style="fill:#ffffff;stroke:#000000;stroke-width:1"
           sodipodi:ry="2.5"
           sodipodi:rx="2.5"
           sodipodi:cy="0"
           sodipodi:cx="0"
           id="circle3573-4"
           r="2.5"
           cy="0"
           cx="0"
           d="M 2.5,0 C 2.5,1.3807119 1.3807119,2.5 0,2.5 -1.3807119,2.5 -2.5,1.3807119 -2.5,0 c 0,-1.3807119 1.1192881,-2.5 2.5,-2.5 1.3807119,0 2.5,1.1192881 2.5,2.5 z" />
      </g>
      <g
         transform="matrix(0.93789014,0,0,0.93789014,483.64559,399.35565)"
         id="use3513-4-3">
        <circle
           style="fill:#ffffff;stroke:#000000;stroke-width:1"
           sodipodi:ry="2.5"
           sodipodi:rx="2.5"
           sodipodi:cy="0"
           sodipodi:cx="0"
           id="circle3573-4-0"
           r="2.5"
           cy="0"
           cx="0"
           d="M 2.5,0 C 2.5,1.3807119 1.3807119,2.5 0,2.5 -1.3807119,2.5 -2.5,1.3807119 -2.5,0 c 0,-1.3807119 1.1192881,-2.5 2.5,-2.5 1.3807119,0 2.5,1.1192881 2.5,2.5 z" />
      </g>
      <g
         transform="matrix(0.93789014,0,0,0.93789014,477.80899,399.35565)"
         id="use3513-4-7">
        <circle
           style="fill:#ffffff;stroke:#000000;stroke-width:1"
           sodipodi:ry="2.5"
           sodipodi:rx="2.5"
           sodipodi:cy="0"
           sodipodi:cx="0"
           id="circle3573-4-8"
           r="2.5"
           cy="0"
           cx="0"
           d="M 2.5,0 C 2.5,1.3807119 1.3807119,2.5 0,2.5 -1.3807119,2.5 -2.5,1.3807119 -2.5,0 c 0,-1.3807119 1.1192881,-2.5 2.5,-2.5 1.3807119,0 2.5,1.1192881 2.5,2.5 z" />
      </g>
      <path
         d="m 309.70997,388.34584 5,7.5 -10,0 z"
         id="path5224-5-9"
         inkscape:connector-curvature="0"
         style="fill:#000000;stroke:#000000;stroke-width:0" />
      <path
         d="m 302.20997,402.93338 15,0"
         id="path5226-4-27"
         inkscape:connector-curvature="0"
         style="fill:none;stroke:#000000;stroke-width:1.25" />
      <path
         d="m 317.20997,402.93338 -3.75,3.75 m 0,-3.75 -3.75,3.75 m 0,-3.75 -3.75,3.75 m 0,-3.75 -3.75,3.75 m 0,-3.75 -3.75,3.75"
         id="path5228-7-9"
         inkscape:connector-curvature="0"
         style="fill:none;stroke:#000000;stroke-width:1.25" />
      <path
         inkscape:connector-curvature="0"
         id="path3342-5"
         d="m 301.37024,396.32496 16.4794,0"
         style="fill:none;stroke:#000000;stroke-width:1px;stroke-linecap:butt;stroke-linejoin:miter;stroke-opacity:1" />
      <g
         transform="matrix(0.93789014,0,0,0.93789014,315.90625,399.59227)"
         id="use3513-4-4">
        <circle
           style="fill:#ffffff;stroke:#000000;stroke-width:1"
           sodipodi:ry="2.5"
           sodipodi:rx="2.5"
           sodipodi:cy="0"
           sodipodi:cx="0"
           id="circle3573-4-3"
           r="2.5"
           cy="0"
           cx="0"
           d="M 2.5,0 C 2.5,1.3807119 1.3807119,2.5 0,2.5 -1.3807119,2.5 -2.5,1.3807119 -2.5,0 c 0,-1.3807119 1.1192881,-2.5 2.5,-2.5 1.3807119,0 2.5,1.1192881 2.5,2.5 z" />
      </g>
      <g
         transform="matrix(0.93789014,0,0,0.93789014,310.04579,399.65219)"
         id="use3513-4-3-1">
        <circle
           style="fill:#ffffff;stroke:#000000;stroke-width:1"
           sodipodi:ry="2.5"
           sodipodi:rx="2.5"
           sodipodi:cy="0"
           sodipodi:cx="0"
           id="circle3573-4-0-23"
           r="2.5"
           cy="0"
           cx="0"
           d="M 2.5,0 C 2.5,1.3807119 1.3807119,2.5 0,2.5 -1.3807119,2.5 -2.5,1.3807119 -2.5,0 c 0,-1.3807119 1.1192881,-2.5 2.5,-2.5 1.3807119,0 2.5,1.1192881 2.5,2.5 z" />
      </g>
      <g
         transform="matrix(0.93789014,0,0,0.93789014,304.20919,399.65219)"
         id="use3513-4-7-3">
        <circle
           style="fill:#ffffff;stroke:#000000;stroke-width:1"
           sodipodi:ry="2.5"
           sodipodi:rx="2.5"
           sodipodi:cy="0"
           sodipodi:cx="0"
           id="circle3573-4-8-4"
           r="2.5"
           cy="0"
           cx="0"
           d="M 2.5,0 C 2.5,1.3807119 1.3807119,2.5 0,2.5 -1.3807119,2.5 -2.5,1.3807119 -2.5,0 c 0,-1.3807119 1.1192881,-2.5 2.5,-2.5 1.3807119,0 2.5,1.1192881 2.5,2.5 z" />
      </g>
      <path
         d="m 395.95971,389.01883 5,7.5 -10,0 z"
         id="path5224"
         inkscape:connector-curvature="0"
         style="fill:#000000;stroke:#000000;stroke-width:0" />
      <path
         d="m 388.45971,396.51883 15,0"
         id="path5226"
         inkscape:connector-curvature="0"
         style="fill:none;stroke:#000000;stroke-width:1.25" />
      <path
         d="m 403.45971,396.51883 -3.75,3.75 m 0,-3.75 -3.75,3.75 m 0,-3.75 -3.75,3.75 m 0,-3.75 -3.75,3.75 m 0,-3.75 -3.75,3.75"
         id="path5228"
         inkscape:connector-curvature="0"
         style="fill:none;stroke:#000000;stroke-width:1.25" />
    </g>
  </g>
  <g
     inkscape:groupmode="layer"
     id="layer6"
     inkscape:label="solution">
    <text
       xml:space="preserve"
       style="font-size:11px;font-style:normal;font-variant:normal;font-weight:normal;font-stretch:normal;line-height:125%;letter-spacing:0px;word-spacing:0px;fill:#000000;fill-opacity:1;stroke:none;font-family:Verdana;-inkscape-font-specification:Sans"
       x="518.81189"
       y="237.52475"
       id="text3389"
       sodipodi:linespacing="125%"
       inkscape:export-filename="/home/nholtz/3203/drawings/SDBeamsFrames/Stability/Problems/2-soln.png"
       inkscape:export-xdpi="90"
       inkscape:export-ydpi="90"><tspan
         sodipodi:role="line"
         id="tspan3399"
         x="518.81189"
         y="237.52475">stable:</tspan><tspan
         sodipodi:role="line"
         id="tspan3401"
         x="518.81189"
         y="251.27475">3m+r=3x5+4=19</tspan><tspan
         sodipodi:role="line"
         id="tspan3403"
         x="518.81189"
         y="265.02475">3j+c=3x6=18</tspan><tspan
         sodipodi:role="line"
         id="tspan3405"
         x="518.81189"
         y="278.77475">1˚ S.I.</tspan></text>
  </g>
</svg>
