<?xml version="1.0" encoding="UTF-8" standalone="no"?>
<!-- Created with Inkscape (http://www.inkscape.org/) -->

<svg
   xmlns:ns0="http://www.iki.fi/pav/software/textext/"
   xmlns:dc="http://purl.org/dc/elements/1.1/"
   xmlns:cc="http://creativecommons.org/ns#"
   xmlns:rdf="http://www.w3.org/1999/02/22-rdf-syntax-ns#"
   xmlns:svg="http://www.w3.org/2000/svg"
   xmlns="http://www.w3.org/2000/svg"
   xmlns:xlink="http://www.w3.org/1999/xlink"
   xmlns:sodipodi="http://sodipodi.sourceforge.net/DTD/sodipodi-0.dtd"
   xmlns:inkscape="http://www.inkscape.org/namespaces/inkscape"
   width="405"
   height="171"
   id="svg2"
   version="1.1"
   inkscape:version="0.92.4 (unknown)"
   sodipodi:docname="beam1-4.svg">
  <sodipodi:namedview
     id="base"
     pagecolor="#ffffff"
     bordercolor="#666666"
     borderopacity="1.0"
     inkscape:pageopacity="0.0"
     inkscape:pageshadow="2"
     inkscape:zoom="2.02"
     inkscape:cx="183.05887"
     inkscape:cy="98.157438"
     inkscape:document-units="in"
     inkscape:current-layer="layer1"
     showgrid="true"
     units="in"
     inkscape:window-width="1179"
     inkscape:window-height="979"
     inkscape:window-x="332"
     inkscape:window-y="26"
     inkscape:window-maximized="0"
     showguides="true"
     fit-margin-top="0.1"
     fit-margin-left="0.1"
     fit-margin-right="0.1"
     fit-margin-bottom="0.1"
     inkscape:snap-global="false">
    <inkscape:grid
       type="xygrid"
       id="grid2985"
       empspacing="5"
       visible="true"
       enabled="true"
       snapvisiblegridlinesonly="true"
       units="in"
       spacingx="9"
       spacingy="9"
       originx="0"
       originy="0" />
    <sodipodi:guide
       position="-183.79177,-704.625"
       orientation="0,765"
       id="guide3042"
       inkscape:locked="false" />
    <sodipodi:guide
       position="581.20823,-704.625"
       orientation="-990,0"
       id="guide3044"
       inkscape:locked="false" />
    <sodipodi:guide
       position="581.20823,285.375"
       orientation="0,-765"
       id="guide3046"
       inkscape:locked="false" />
    <sodipodi:guide
       position="-183.79177,285.375"
       orientation="990,0"
       id="guide3048"
       inkscape:locked="false" />
    <sodipodi:guide
       position="536.20823,-659.625"
       orientation="0,765"
       id="guide3050"
       inkscape:locked="false" />
    <sodipodi:guide
       position="532.7551,159"
       orientation="-990,0"
       id="guide3052"
       inkscape:locked="false" />
    <sodipodi:guide
       position="-120.79177,195.375"
       orientation="0,-765"
       id="guide3054"
       inkscape:locked="false" />
    <sodipodi:guide
       position="-93.79177,222.375"
       orientation="990,0"
       id="guide3056"
       inkscape:locked="false" />
  </sodipodi:namedview>
  <script
     xlink:href=""
     id="script3033" />
  <defs
     id="defs4">
    <marker
       inkscape:stockid="Arrow1Mstart"
       orient="auto"
       refY="0"
       refX="0"
       id="Arrow1Mstart"
       style="overflow:visible">
      <path
         id="path4298"
         d="M 0,0 5,-5 -12.5,0 5,5 0,0 z"
         style="fill-rule:evenodd;stroke:#000000;stroke-width:1pt;marker-start:none"
         transform="matrix(0.4,0,0,0.4,4,0)"
         inkscape:connector-curvature="0" />
    </marker>
    <marker
       style="overflow:visible"
       id="DimensionTick"
       refX="0"
       refY="0"
       orient="auto"
       inkscape:stockid="DimensionTick">
      <path
         id="path4283"
         transform="translate(-4,-4)"
         style="stroke:#000000;stroke-width:1pt;marker-start:none"
         d="M 0,0 8,8"
         inkscape:connector-curvature="0" />
    </marker>
    <marker
       inkscape:stockid="Arrow1Mend"
       orient="auto"
       refY="0"
       refX="0"
       id="Arrow1Mend"
       style="overflow:visible">
      <path
         id="path4301"
         d="M 0,0 5,-5 -12.5,0 5,5 0,0 z"
         style="fill-rule:evenodd;stroke:#000000;stroke-width:1pt;marker-start:none"
         transform="matrix(-0.4,0,0,-0.4,-4,0)"
         inkscape:connector-curvature="0" />
    </marker>
    <pattern
       patternUnits="userSpaceOnUse"
       width="36"
       height="83.375"
       patternTransform="translate(216,485.362)"
       id="pattern4380">
      <g
         id="g4376"
         transform="translate(-216,-485.362)">
        <polygon
           style="fill:#f0f0f0;stroke:none;visibility:visible"
           points="360,0 0,0 0,-12 360,-12 "
           class="dload"
           id="polygon3581-2"
           transform="matrix(0.1,0,0,6.75,216,566.362)" />
        <path
           style="fill:none;stroke:#000000;stroke-width:1.58746088;marker-end:url(#CLArrowEnd);visibility:visible"
           inkscape:connector-curvature="0"
           class="cload"
           d="m 234,485.362 0,78.625"
           id="path3627-7" />
      </g>
    </pattern>
    <marker
       refY="3"
       refX="7"
       viewBox="0 0 10 6"
       orient="auto"
       markerHeight="6"
       markerWidth="10"
       markerUnits="userSpaceOnUse"
       id="CLArrowEnd">
      <path
         inkscape:connector-curvature="0"
         id="path3451"
         d="M 0,0 10,3 0,6 2,3 z" />
    </marker>
  </defs>
  <metadata
     id="metadata7">
    <rdf:RDF>
      <cc:Work
         rdf:about="">
        <dc:format>image/svg+xml</dc:format>
        <dc:type
           rdf:resource="http://purl.org/dc/dcmitype/StillImage" />
        <dc:title />
        <cc:license
           rdf:resource="http://creativecommons.org/licenses/by-nc/3.0/" />
      </cc:Work>
      <cc:License
         rdf:about="http://creativecommons.org/licenses/by-nc/3.0/">
        <cc:permits
           rdf:resource="http://creativecommons.org/ns#Reproduction" />
        <cc:permits
           rdf:resource="http://creativecommons.org/ns#Distribution" />
        <cc:requires
           rdf:resource="http://creativecommons.org/ns#Notice" />
        <cc:requires
           rdf:resource="http://creativecommons.org/ns#Attribution" />
        <cc:prohibits
           rdf:resource="http://creativecommons.org/ns#CommercialUse" />
        <cc:permits
           rdf:resource="http://creativecommons.org/ns#DerivativeWorks" />
      </cc:License>
    </rdf:RDF>
  </metadata>
  <g
     inkscape:label="Layer 1"
     inkscape:groupmode="layer"
     id="layer1"
     transform="translate(-183.79177,-176.73701)">
    <g
       id="g8516">
      <path
         inkscape:connector-curvature="0"
         id="path6664"
         d="m 228.79177,329.83601 315,0 0,-0.099 -135,-36 z"
         style="fill:#cccccc;stroke:#000000;stroke-width:1;stroke-linecap:square;stroke-linejoin:miter;stroke-miterlimit:4;stroke-opacity:1;stroke-dasharray:none;stroke-dashoffset:0"
         sodipodi:nodetypes="ccccc" />
      <path
         inkscape:connector-curvature="0"
         id="path2994"
         d="m 228.9802,215.461 315,0"
         style="fill:none;stroke:#000000;stroke-width:3;stroke-linecap:square;stroke-linejoin:miter;stroke-miterlimit:4;stroke-opacity:1;stroke-dasharray:none;stroke-dashoffset:0" />
      <path
         inkscape:connector-curvature="0"
         id="path3477"
         d="m 544.04951,246.50113 0,-27"
         style="fill:none;stroke:#000000;stroke-width:1.52999997;stroke-linecap:square;stroke-linejoin:miter;stroke-miterlimit:4;stroke-opacity:1;stroke-dasharray:none;stroke-dashoffset:0;marker-end:url(#Arrow1Mend)" />
      <path
         inkscape:connector-curvature="0"
         id="path4741"
         d="m 408.9802,254.461 0,18"
         style="fill:none;stroke:#4d4d4d;stroke-width:0.75;stroke-linecap:square;stroke-linejoin:miter;stroke-miterlimit:4;stroke-opacity:1;stroke-dasharray:none;stroke-dashoffset:0" />
      <path
         inkscape:connector-curvature="0"
         id="path4743"
         d="m 543.9802,254.461 0,18"
         style="fill:none;stroke:#4d4d4d;stroke-width:0.75;stroke-linecap:square;stroke-linejoin:miter;stroke-miterlimit:4;stroke-opacity:1;stroke-dasharray:none;stroke-dashoffset:0" />
      <path
         inkscape:connector-curvature="0"
         id="path4745"
         d="m 498.9802,254.461 0,18"
         style="fill:none;stroke:#4d4d4d;stroke-width:0.75;stroke-linecap:square;stroke-linejoin:miter;stroke-miterlimit:4;stroke-opacity:1;stroke-dasharray:none;stroke-dashoffset:0" />
      <path
         inkscape:connector-curvature="0"
         id="path4747"
         d="m 228.9802,254.461 0,18"
         style="fill:none;stroke:#4d4d4d;stroke-width:0.75;stroke-linecap:square;stroke-linejoin:miter;stroke-miterlimit:4;stroke-opacity:1;stroke-dasharray:none;stroke-dashoffset:0" />
      <path
         inkscape:connector-curvature="0"
         id="path4749"
         d="m 228.9802,263.461 180,0 90,0 45,0"
         style="fill:none;stroke:#4d4d4d;stroke-width:0.75;stroke-linecap:square;stroke-linejoin:miter;stroke-miterlimit:4;stroke-opacity:1;stroke-dasharray:none;stroke-dashoffset:0;marker-start:url(#DimensionTick);marker-mid:url(#DimensionTick);marker-end:url(#DimensionTick)" />
      <text
         id="text5329"
         y="260.8504"
         x="312.72687"
         style="font-style:normal;font-variant:normal;font-weight:normal;font-stretch:normal;line-height:0%;font-family:Verdana;-inkscape-font-specification:Sans;text-align:start;letter-spacing:0px;word-spacing:0px;writing-mode:lr-tb;text-anchor:start;fill:#000000;fill-opacity:1;stroke:none"
         xml:space="preserve"><tspan
           y="260.8504"
           x="312.72687"
           id="tspan5331"
           sodipodi:role="line"
           style="font-size:11px;line-height:1.25">8m</tspan></text>
      <text
         id="text5333"
         y="260.8504"
         x="447.84726"
         style="font-style:normal;font-variant:normal;font-weight:normal;font-stretch:normal;line-height:0%;font-family:Verdana;-inkscape-font-specification:Sans;text-align:start;letter-spacing:0px;word-spacing:0px;writing-mode:lr-tb;text-anchor:start;fill:#000000;fill-opacity:1;stroke:none"
         xml:space="preserve"><tspan
           y="260.8504"
           x="447.84726"
           id="tspan5335"
           sodipodi:role="line"
           style="font-size:11px;line-height:1.25">4m</tspan></text>
      <text
         id="text5337"
         y="260.75009"
         x="512.25696"
         style="font-style:normal;font-variant:normal;font-weight:normal;font-stretch:normal;line-height:0%;font-family:Verdana;-inkscape-font-specification:Sans;text-align:start;letter-spacing:0px;word-spacing:0px;writing-mode:lr-tb;text-anchor:start;fill:#000000;fill-opacity:1;stroke:none"
         xml:space="preserve"><tspan
           y="260.75009"
           x="512.25696"
           id="tspan5339"
           sodipodi:role="line"
           style="font-size:11px;line-height:1.25">2m</tspan></text>
      <text
         id="text5341"
         y="229.84723"
         x="311.3266"
         style="font-style:normal;font-variant:normal;font-weight:normal;font-stretch:normal;line-height:0%;font-family:Verdana;-inkscape-font-specification:Sans;text-align:start;letter-spacing:0px;word-spacing:0px;writing-mode:lr-tb;text-anchor:start;fill:#000000;fill-opacity:1;stroke:none"
         xml:space="preserve"><tspan
           y="229.84723"
           x="311.3266"
           id="tspan5343"
           sodipodi:role="line"
           style="font-size:11px;line-height:1.25">2EI<tspan
   id="tspan5345"
   style="font-size:65.00091553%;baseline-shift:sub">0</tspan></tspan></text>
      <text
         id="text5347"
         y="228.54733"
         x="465.34988"
         style="font-style:normal;font-variant:normal;font-weight:normal;font-stretch:normal;line-height:0%;font-family:Verdana;-inkscape-font-specification:Sans;text-align:start;letter-spacing:0px;word-spacing:0px;writing-mode:lr-tb;text-anchor:start;fill:#000000;fill-opacity:1;stroke:none"
         xml:space="preserve"><tspan
           y="228.54733"
           x="465.34988"
           id="tspan5349"
           sodipodi:role="line"
           style="font-size:11px;line-height:1.25">EI<tspan
   id="tspan5351"
   style="font-size:65.00091553%;baseline-shift:sub">0</tspan></tspan></text>
      <path
         inkscape:connector-curvature="0"
         id="path6566"
         d="m 408.93279,246.35085 0,-27"
         style="fill:none;stroke:#000000;stroke-width:1.52999997;stroke-linecap:square;stroke-linejoin:miter;stroke-miterlimit:4;stroke-opacity:1;stroke-dasharray:none;stroke-dashoffset:0;marker-end:url(#Arrow1Mend)" />
      <path
         style="fill:none;stroke:#000000;stroke-width:1.52999997;stroke-linecap:square;stroke-linejoin:miter;stroke-miterlimit:4;stroke-opacity:1;stroke-dasharray:none;stroke-dashoffset:0;marker-end:url(#Arrow1Mend)"
         d="m 228.93279,246.35085 0,-27"
         id="path6568"
         inkscape:connector-curvature="0" />
      <path
         inkscape:connector-curvature="0"
         id="path6570"
         d="m 197.53697,215.8162 27,0"
         style="fill:none;stroke:#000000;stroke-width:1.52999997;stroke-linecap:square;stroke-linejoin:miter;stroke-miterlimit:4;stroke-opacity:1;stroke-dasharray:none;stroke-dashoffset:0;marker-end:url(#Arrow1Mend)" />
      <text
         id="text6572"
         y="223.77649"
         x="232.23999"
         style="font-style:italic;font-variant:normal;font-weight:normal;font-stretch:normal;line-height:0%;font-family:Verdana;-inkscape-font-specification:'Sans Italic';text-align:start;letter-spacing:0px;word-spacing:0px;writing-mode:lr-tb;text-anchor:start;fill:#000000;fill-opacity:1;stroke:none"
         xml:space="preserve"><tspan
           y="223.77649"
           x="232.23999"
           id="tspan6574"
           sodipodi:role="line"
           style="font-size:9px;line-height:1.25">a</tspan></text>
      <text
         id="text6576"
         y="225.30124"
         x="399.46768"
         style="font-style:italic;font-variant:normal;font-weight:normal;font-stretch:normal;line-height:0%;font-family:Verdana;-inkscape-font-specification:'Sans Italic';text-align:start;letter-spacing:0px;word-spacing:0px;writing-mode:lr-tb;text-anchor:start;fill:#000000;fill-opacity:1;stroke:none"
         xml:space="preserve"><tspan
           y="225.30124"
           x="399.46768"
           id="tspan6578"
           sodipodi:role="line"
           style="font-size:9px;line-height:1.25">b</tspan></text>
      <text
         id="text6580"
         y="222.80618"
         x="535.74493"
         style="font-style:italic;font-variant:normal;font-weight:normal;font-stretch:normal;line-height:0%;font-family:Verdana;-inkscape-font-specification:'Sans Italic';text-align:start;letter-spacing:0px;word-spacing:0px;writing-mode:lr-tb;text-anchor:start;fill:#000000;fill-opacity:1;stroke:none"
         xml:space="preserve"><tspan
           y="222.80618"
           x="535.74493"
           id="tspan6582"
           sodipodi:role="line"
           style="font-size:9px;line-height:1.25">c</tspan></text>
      <text
         id="text6584"
         y="315.49939"
         x="228.29935"
         style="font-style:italic;font-variant:normal;font-weight:normal;font-stretch:normal;line-height:0%;font-family:Verdana;-inkscape-font-specification:'Sans Italic';text-align:start;letter-spacing:0px;word-spacing:0px;writing-mode:lr-tb;text-anchor:start;fill:#000000;fill-opacity:1;stroke:none"
         xml:space="preserve"><tspan
           y="315.49939"
           x="228.29935"
           id="tspan6586"
           sodipodi:role="line"
           style="font-size:9px;line-height:1.25"> </tspan></text>
      <text
         id="text6588"
         y="243.61807"
         x="232.77461"
         xml:space="preserve"
         style="line-height:0%"><tspan
           y="243.61807"
           x="232.77461"
           id="tspan6590"
           sodipodi:role="line"
           style="line-height:1.25">v<tspan
   id="tspan6656"
   style="font-size:65.00091553%;baseline-shift:sub">a1</tspan>=0.75</tspan></text>
      <text
         id="text6592"
         y="243.18237"
         x="412.47757"
         style="font-style:normal;font-variant:normal;font-weight:normal;font-stretch:normal;line-height:0%;font-family:Verdana;-inkscape-font-specification:Sans;text-align:start;letter-spacing:0px;word-spacing:0px;writing-mode:lr-tb;text-anchor:start;fill:#000000;fill-opacity:1;stroke:none"
         xml:space="preserve"><tspan
           y="243.18237"
           x="412.47757"
           id="tspan6594"
           sodipodi:role="line"
           style="font-size:11px;line-height:1.25">v<tspan
   id="tspan6602"
   style="font-size:65.00091553%;baseline-shift:sub">b1</tspan>=-1.75</tspan></text>
      <text
         id="text6606"
         y="211.42004"
         x="192.08881"
         style="font-style:normal;font-variant:normal;font-weight:normal;font-stretch:normal;line-height:0%;font-family:Verdana;-inkscape-font-specification:Sans;text-align:start;letter-spacing:0px;word-spacing:0px;writing-mode:lr-tb;text-anchor:start;fill:#000000;fill-opacity:1;stroke:none"
         xml:space="preserve"><tspan
           y="211.42004"
           x="192.08881"
           id="tspan6608"
           sodipodi:role="line"
           style="font-size:11px;line-height:1.25">h<tspan
   style="font-size:65.00091553%;baseline-shift:sub"
   id="tspan8075">a1</tspan>=0</tspan></text>
      <text
         id="text6670"
         y="333.28143"
         x="547.65308"
         style="font-style:normal;font-variant:normal;font-weight:normal;font-stretch:normal;line-height:0%;font-family:Verdana;-inkscape-font-specification:Sans;text-align:start;letter-spacing:0px;word-spacing:0px;writing-mode:lr-tb;text-anchor:start;fill:#000000;fill-opacity:1;stroke:none"
         xml:space="preserve"><tspan
           y="333.28143"
           x="547.65308"
           id="tspan6672"
           sodipodi:role="line"
           style="font-size:11px;line-height:1.25">0</tspan></text>
      <path
         sodipodi:nodetypes="czc"
         style="fill:none;stroke:#800000;stroke-width:0.99000001;stroke-linecap:square;stroke-linejoin:miter;stroke-miterlimit:4;stroke-opacity:1;stroke-dasharray:0.99, 2.97;stroke-dashoffset:0"
         d="m 228.9802,215.461 c 35.81157,6.27601 130.45017,5.50468 180.05909,0 49.60893,-5.50468 99.24753,-13.05939 134.75248,-20.72399"
         id="path6705"
         inkscape:connector-curvature="0" />
      <path
         inkscape:connector-curvature="0"
         id="path7251"
         d="m 552.79177,194.73701 18,0"
         style="fill:#cccccc;fill-opacity:1;fill-rule:nonzero;stroke:#4d4d4d;stroke-width:0.75;stroke-linecap:square;stroke-linejoin:miter;stroke-miterlimit:4;stroke-opacity:1;stroke-dasharray:none;stroke-dashoffset:0" />
      <path
         sodipodi:nodetypes="cc"
         inkscape:connector-curvature="0"
         id="path7253"
         d="m 552.79177,215.73701 18,0"
         style="fill:#cccccc;fill-opacity:1;fill-rule:nonzero;stroke:#4d4d4d;stroke-width:0.75;stroke-linecap:square;stroke-linejoin:miter;stroke-miterlimit:4;stroke-opacity:1;stroke-dasharray:none;stroke-dashoffset:0" />
      <path
         sodipodi:nodetypes="cc"
         inkscape:connector-curvature="0"
         id="path7255"
         d="m 561.79177,194.73701 0,21"
         style="fill:#cccccc;fill-opacity:1;fill-rule:nonzero;stroke:#4d4d4d;stroke-width:0.75;stroke-linecap:square;stroke-linejoin:miter;stroke-miterlimit:4;stroke-opacity:1;stroke-dasharray:none;stroke-dashoffset:0;marker-start:url(#DimensionTick);marker-end:url(#DimensionTick)" />
      <text
         xml:space="preserve"
         style="font-style:normal;font-variant:normal;font-weight:normal;font-stretch:normal;line-height:0%;font-family:Verdana;-inkscape-font-specification:Sans;text-align:start;letter-spacing:0px;word-spacing:0px;writing-mode:lr-tb;text-anchor:start;fill:#000000;fill-opacity:1;stroke:none"
         x="548.14819"
         y="239.36078"
         id="text8078"><tspan
           sodipodi:role="line"
           id="tspan8080"
           x="548.14819"
           y="239.36078"
           style="font-size:11px;line-height:1.25">1</tspan></text>
      <g
         id="content"
         transform="matrix(1.1,0,0,-1.1,395.34152,980.04651)"
         xml:space="preserve"
         stroke-miterlimit="10.433"
         font-style="normal"
         font-variant="normal"
         font-weight="normal"
         font-stretch="normal"
         font-size-adjust="none"
         letter-spacing="normal"
         word-spacing="normal"
         ns0:text="\\[\nf_{11}\n\\]\n"
         ns0:preamble="/home/nholtz/work/share/config/inkscape/extensions/amspreamble.tex"
         style="font-style:normal;font-variant:normal;font-weight:normal;font-stretch:normal;letter-spacing:normal;word-spacing:normal;text-anchor:start;fill:none;stroke:#000000;stroke-linecap:butt;stroke-linejoin:miter;stroke-miterlimit:10.43299961;stroke-opacity:1;stroke-dasharray:none;stroke-dashoffset:0">
<path
   style="fill:#000000;stroke-width:0"
   inkscape:connector-curvature="0"
   d="M 157.07,705.5 H 158 c 0.22,0 0.33,0 0.33,0.22 0,0.12 -0.11,0.12 -0.29,0.12 h -0.91 l 0.23,1.24 c 0.04,0.23 0.2,1 0.26,1.14 0.1,0.2 0.28,0.37 0.51,0.37 0.05,0 0.33,0 0.54,-0.2 -0.48,-0.05 -0.59,-0.43 -0.59,-0.59 0,-0.25 0.2,-0.38 0.4,-0.38 0.29,0 0.6,0.24 0.6,0.65 0,0.5 -0.5,0.75 -0.95,0.75 -0.37,0 -1.05,-0.19 -1.38,-1.27 -0.06,-0.23 -0.1,-0.34 -0.36,-1.71 h -0.75 c -0.21,0 -0.33,0 -0.33,-0.21 0,-0.13 0.1,-0.13 0.31,-0.13 h 0.72 l -0.82,-4.3 c -0.2,-1.05 -0.38,-2.04 -0.95,-2.04 -0.04,0 -0.31,0 -0.52,0.19 0.5,0.03 0.6,0.43 0.6,0.59 0,0.25 -0.2,0.38 -0.4,0.38 -0.29,0 -0.6,-0.24 -0.6,-0.65 0,-0.49 0.48,-0.75 0.92,-0.75 0.6,0 1.04,0.64 1.23,1.05 0.35,0.69 0.6,2.01 0.61,2.08 z"
   id="path8178" />
<path
   style="fill:#000000;stroke-width:0"
   inkscape:connector-curvature="0"
   d="m 160.91,704.57 0,0.01 0,0.01 0,0.01 0,0.01 0,0.01 0,0.01 0,0.01 0,0 0,0.01 0,0.01 0,0.01 0,0 0,0.01 0,0.01 0,0 0,0.01 -0.01,0 0,0.01 0,0 0,0.01 0,0.01 -0.01,0.01 0,0.01 0,0 -0.01,0.01 0,0.01 -0.01,0 -0.01,0 0,0.01 -0.01,0 -0.01,0.01 -0.01,0 -0.01,0 -0.01,0 -0.01,0 -0.01,0 0,0 -0.01,0 -0.01,0 0,0 -0.01,0 -0.01,0.01 -0.01,0 0,0 -0.01,0 -0.01,0 -0.01,0 -0.01,0 -0.01,0 -0.01,0 c -0.33,-0.32 -0.75,-0.51 -1.5,-0.51 v -0.26 c 0.21,0 0.64,0 1.1,0.21 v -4.08 c 0,-0.29 -0.02,-0.39 -0.78,-0.39 h -0.28 v -0.26 c 0.33,0.02 1.02,0.02 1.37,0.02 0.36,0 1.05,0 1.38,-0.02 v 0.26 h -0.28 c -0.76,0 -0.78,0.1 -0.78,0.39 z"
   id="path8180" />
<path
   style="fill:#000000;stroke-width:0"
   inkscape:connector-curvature="0"
   d="m 165.15,704.57 0,0.01 0,0.01 0,0.01 0,0.01 0,0.01 0,0.01 0,0.01 -0.01,0 0,0.01 0,0.01 0,0.01 0,0 0,0.01 0,0.01 0,0 0,0.01 0,0 0,0.01 0,0 0,0.01 -0.01,0.01 0,0.01 0,0.01 -0.01,0 0,0.01 -0.01,0.01 0,0 -0.01,0 -0.01,0.01 -0.01,0 -0.01,0.01 -0.01,0 -0.01,0 -0.01,0 0,0 -0.01,0 -0.01,0 0,0 -0.01,0 -0.01,0 -0.01,0 0,0.01 -0.01,0 -0.01,0 -0.01,0 -0.01,0 -0.01,0 -0.01,0 -0.01,0 -0.01,0 c -0.32,-0.32 -0.74,-0.51 -1.5,-0.51 v -0.26 c 0.22,0 0.64,0 1.11,0.21 v -4.08 c 0,-0.29 -0.03,-0.39 -0.78,-0.39 h -0.28 v -0.26 c 0.33,0.02 1.01,0.02 1.37,0.02 0.36,0 1.05,0 1.37,-0.02 v 0.26 h -0.27 c -0.76,0 -0.78,0.1 -0.78,0.39 z"
   id="path8182" />
</g>      <text
         id="text8281"
         y="291.737"
         x="378.2374"
         style="font-style:normal;font-variant:normal;font-weight:normal;font-stretch:normal;line-height:0%;font-family:Verdana;-inkscape-font-specification:Sans;text-align:start;letter-spacing:0px;word-spacing:0px;writing-mode:lr-tb;text-anchor:start;fill:#000000;fill-opacity:1;stroke:none"
         xml:space="preserve"><tspan
           y="291.737"
           x="378.2374"
           id="tspan8283"
           sodipodi:role="line"
           style="font-size:11px;line-height:1.25">+6m</tspan></text>
      <text
         id="text8285"
         y="306.60834"
         x="498.22739"
         style="font-style:normal;font-variant:normal;font-weight:normal;font-stretch:normal;line-height:0%;font-family:Verdana;-inkscape-font-specification:Sans;text-align:start;letter-spacing:0px;word-spacing:0px;writing-mode:lr-tb;text-anchor:start;fill:#000000;fill-opacity:1;stroke:none"
         xml:space="preserve"><tspan
           y="306.60834"
           x="498.22739"
           id="tspan8287"
           sodipodi:role="line"
           style="font-size:11px;line-height:1.25">+2m</tspan></text>
      <path
         sodipodi:nodetypes="cc"
         inkscape:connector-curvature="0"
         id="path8291"
         d="m 498.79177,329.73701 0,-11.9703"
         style="fill:#cccccc;fill-opacity:1;fill-rule:nonzero;stroke:#4d4d4d;stroke-width:0.75;stroke-linecap:square;stroke-linejoin:miter;stroke-miterlimit:4;stroke-opacity:1;stroke-dasharray:0.75, 0.75;stroke-dashoffset:0" />
      <path
         inkscape:connector-curvature="0"
         id="path8295"
         d="m 496.16801,325.00434 c -28.12788,-7.32591 -24.66005,-19.09718 -0.49505,-21.78218"
         style="fill:none;stroke:#4d4d4d;stroke-width:0.75;stroke-linecap:butt;stroke-linejoin:miter;stroke-opacity:1;marker-start:url(#Arrow1Mstart)" />
      <text
         transform="translate(183.79177,95.73701)"
         id="text8493"
         y="212.89108"
         x="19.801979"
         style="font-style:normal;font-variant:normal;font-weight:normal;font-stretch:normal;line-height:0%;font-family:Verdana;-inkscape-font-specification:Sans;text-align:start;letter-spacing:0px;word-spacing:0px;writing-mode:lr-tb;text-anchor:start;fill:#000000;fill-opacity:1;stroke:none"
         xml:space="preserve"><tspan
           y="212.89108"
           x="19.801979"
           id="tspan8495"
           sodipodi:role="line"
           style="font-size:11px;line-height:1.25">m<tspan
   style="font-size:64.99999762%;baseline-shift:sub"
   id="tspan8723">1</tspan></tspan></text>
    </g>
  </g>
</svg>
