<?xml version="1.0" encoding="UTF-8" standalone="no"?>
<!-- Created with Inkscape (http://www.inkscape.org/) -->

<svg
   xmlns:ns0="http://www.iki.fi/pav/software/textext/"
   xmlns:dc="http://purl.org/dc/elements/1.1/"
   xmlns:cc="http://creativecommons.org/ns#"
   xmlns:rdf="http://www.w3.org/1999/02/22-rdf-syntax-ns#"
   xmlns:svg="http://www.w3.org/2000/svg"
   xmlns="http://www.w3.org/2000/svg"
   xmlns:xlink="http://www.w3.org/1999/xlink"
   xmlns:sodipodi="http://sodipodi.sourceforge.net/DTD/sodipodi-0.dtd"
   xmlns:inkscape="http://www.inkscape.org/namespaces/inkscape"
   width="617.87616"
   height="149.28557"
   id="svg2"
   version="1.1"
   inkscape:version="0.92.4 (unknown)"
   sodipodi:docname="beam1-6.svg">
  <sodipodi:namedview
     id="base"
     pagecolor="#ffffff"
     bordercolor="#666666"
     borderopacity="1.0"
     inkscape:pageopacity="0.0"
     inkscape:pageshadow="2"
     inkscape:zoom="2.02"
     inkscape:cx="244.14447"
     inkscape:cy="62.123259"
     inkscape:document-units="in"
     inkscape:current-layer="layer1"
     showgrid="true"
     units="in"
     inkscape:window-width="1179"
     inkscape:window-height="979"
     inkscape:window-x="765"
     inkscape:window-y="42"
     inkscape:window-maximized="0"
     showguides="true"
     fit-margin-top="0.1"
     fit-margin-right="0.1"
     fit-margin-left="0.1"
     fit-margin-bottom="0.1">
    <inkscape:grid
       type="xygrid"
       id="grid2985"
       empspacing="5"
       visible="true"
       enabled="true"
       snapvisiblegridlinesonly="true"
       units="in"
       spacingx="9"
       spacingy="9"
       originx="0"
       originy="0" />
    <sodipodi:guide
       position="-92.042192,-611.93538"
       orientation="0,765"
       id="guide3042"
       inkscape:locked="false" />
    <sodipodi:guide
       position="672.95781,-611.93538"
       orientation="-990,0"
       id="guide3044"
       inkscape:locked="false" />
    <sodipodi:guide
       position="672.95781,378.06462"
       orientation="0,-765"
       id="guide3046"
       inkscape:locked="false" />
    <sodipodi:guide
       position="-92.042192,378.06462"
       orientation="990,0"
       id="guide3048"
       inkscape:locked="false" />
    <sodipodi:guide
       position="627.95781,-566.93538"
       orientation="0,765"
       id="guide3050"
       inkscape:locked="false" />
    <sodipodi:guide
       position="627.95781,288.06462"
       orientation="-990,0"
       id="guide3052"
       inkscape:locked="false" />
    <sodipodi:guide
       position="-29.042192,288.06462"
       orientation="0,-765"
       id="guide3054"
       inkscape:locked="false" />
    <sodipodi:guide
       position="-2.0421915,315.06462"
       orientation="990,0"
       id="guide3056"
       inkscape:locked="false" />
  </sodipodi:namedview>
  <script
     xlink:href=""
     id="script3033" />
  <defs
     id="defs4" />
  <metadata
     id="metadata7">
    <rdf:RDF>
      <cc:Work
         rdf:about="">
        <dc:format>image/svg+xml</dc:format>
        <dc:type
           rdf:resource="http://purl.org/dc/dcmitype/StillImage" />
        <dc:title />
        <cc:license
           rdf:resource="http://creativecommons.org/licenses/by-nc/3.0/" />
      </cc:Work>
      <cc:License
         rdf:about="http://creativecommons.org/licenses/by-nc/3.0/">
        <cc:permits
           rdf:resource="http://creativecommons.org/ns#Reproduction" />
        <cc:permits
           rdf:resource="http://creativecommons.org/ns#Distribution" />
        <cc:requires
           rdf:resource="http://creativecommons.org/ns#Notice" />
        <cc:requires
           rdf:resource="http://creativecommons.org/ns#Attribution" />
        <cc:prohibits
           rdf:resource="http://creativecommons.org/ns#CommercialUse" />
        <cc:permits
           rdf:resource="http://creativecommons.org/ns#DerivativeWorks" />
      </cc:License>
    </rdf:RDF>
  </metadata>
  <g
     inkscape:label="Layer 1"
     inkscape:groupmode="layer"
     id="layer1"
     transform="translate(-92.042192,-291.14105)">
    <g
       transform="translate(-24,0)"
       id="g3736">
      <g
         id="g3276">
        <path
           style="fill:#cccccc;fill-opacity:1;fill-rule:nonzero;stroke:#4d4d4d;stroke-width:0.75;stroke-linecap:square;stroke-linejoin:miter;stroke-miterlimit:4;stroke-opacity:1;stroke-dasharray:0.75, 0.75;stroke-dashoffset:0"
           d="m 207,270 54,0 0,-18 z"
           id="path3226"
           inkscape:connector-curvature="0"
           transform="translate(0,62.362)" />
        <text
           xml:space="preserve"
           style="font-style:normal;font-variant:normal;font-weight:normal;font-stretch:normal;line-height:0%;font-family:Verdana;-inkscape-font-specification:Sans;text-align:start;letter-spacing:0px;word-spacing:0px;writing-mode:lr-tb;text-anchor:start;fill:#000000;fill-opacity:1;stroke:none"
           x="247.17822"
           y="311.76794"
           id="text3248"><tspan
             sodipodi:role="line"
             id="tspan3250"
             x="247.17822"
             y="311.76794"
             style="font-size:9px;line-height:1.25">+6m</tspan></text>
        <text
           xml:space="preserve"
           style="font-style:normal;font-variant:normal;font-weight:normal;font-stretch:normal;line-height:0%;font-family:Verdana;-inkscape-font-specification:Sans;text-align:start;letter-spacing:0px;word-spacing:0px;writing-mode:lr-tb;text-anchor:start;fill:#000000;fill-opacity:1;stroke:none"
           x="232.17822"
           y="341.01547"
           id="text3252"><tspan
             sodipodi:role="line"
             id="tspan3254"
             x="232.17822"
             y="341.01547"
             style="font-size:9px;line-height:1.25">8m</tspan></text>
        <path
           inkscape:connector-curvature="0"
           id="path6602"
           d="m 269,332.362 54,0 0,-18 z"
           style="fill:#cccccc;fill-opacity:1;fill-rule:nonzero;stroke:#4d4d4d;stroke-width:0.75;stroke-linecap:square;stroke-linejoin:miter;stroke-miterlimit:4;stroke-opacity:1;stroke-dasharray:0.75, 0.75;stroke-dashoffset:0" />
        <text
           id="text6604"
           y="311.76794"
           x="309.17822"
           style="font-style:normal;font-variant:normal;font-weight:normal;font-stretch:normal;line-height:0%;font-family:Verdana;-inkscape-font-specification:Sans;text-align:start;letter-spacing:0px;word-spacing:0px;writing-mode:lr-tb;text-anchor:start;fill:#000000;fill-opacity:1;stroke:none"
           xml:space="preserve"><tspan
             y="311.76794"
             x="309.17822"
             id="tspan6606"
             sodipodi:role="line"
             style="font-size:9px;line-height:1.25">+6m</tspan></text>
      </g>
      <g
         ns0:preamble="/home/nholtz/work/share/config/inkscape/extensions/amspreamble.tex"
         ns0:text="\\[\n\\frac{1}{2EI_0}\\int {}\n\\]"
         word-spacing="normal"
         letter-spacing="normal"
         font-size-adjust="none"
         font-stretch="normal"
         font-weight="normal"
         font-variant="normal"
         font-style="normal"
         stroke-miterlimit="10.433"
         xml:space="preserve"
         transform="matrix(1.1,0,0,-1.1,-3.6970047,1088.683)"
         id="content"
         style="font-style:normal;font-variant:normal;font-weight:normal;font-stretch:normal;letter-spacing:normal;word-spacing:normal;text-anchor:start;fill:none;stroke:#000000;stroke-linecap:butt;stroke-linejoin:miter;stroke-miterlimit:10.43299961;stroke-opacity:1;stroke-dasharray:none;stroke-dashoffset:0">
<path
   id="path3355"
   d="m 166.57,711.61 0,0.01 0,0.01 0,0.01 0,0.01 0,0.01 0,0.01 0,0.01 0,0.01 0,0.01 0,0.01 0,0.01 0,0.01 0,0.01 0,0.01 0,0 0,0.01 0,0.01 0,0.01 -0.01,0.01 0,0.01 0,0.01 0,0.01 -0.01,0.01 0,0.01 -0.01,0.01 -0.01,0 0,0.01 -0.01,0 -0.01,0.01 -0.01,0 0,0.01 -0.01,0 0,0 -0.01,0 -0.01,0 0,0 -0.01,0 -0.01,0 0,0.01 -0.01,0 -0.01,0 -0.01,0 -0.01,0 -0.01,0 0,0 -0.01,0 -0.01,0 -0.01,0 -0.01,0 -0.02,0 -0.01,0 -0.01,0 c -0.67,-0.7 -1.63,-0.7 -1.98,-0.7 v -0.34 c 0.22,0 0.86,0 1.43,0.29 v -5.64 c 0,-0.39 -0.04,-0.52 -1.02,-0.52 h -0.35 v -0.34 c 0.39,0.03 1.33,0.03 1.77,0.03 0.43,0 1.38,0 1.76,-0.03 v 0.34 h -0.34 c -0.99,0 -1.02,0.11 -1.02,0.52 z"
   inkscape:connector-curvature="0"
   style="fill:#000000;stroke-width:0" />
<line
   id="line3357"
   y2="699.97998"
   x2="177.92999"
   y1="699.97998"
   x1="154.27"
   style="stroke-width:0.43599999" />
<path
   id="path3359"
   d="m 155.65,690.61 1.15,1.12 c 1.7,1.51 2.36,2.1 2.36,3.18 0,1.25 -0.98,2.12 -2.31,2.12 -1.23,0 -2.04,-1 -2.04,-1.97 0,-0.61 0.55,-0.61 0.58,-0.61 0.18,0 0.57,0.13 0.57,0.57 0,0.29 -0.2,0.57 -0.58,0.57 -0.09,0 -0.11,0 -0.14,-0.01 0.25,0.71 0.83,1.11 1.47,1.11 0.99,0 1.45,-0.88 1.45,-1.78 0,-0.87 -0.54,-1.73 -1.14,-2.4 l -2.09,-2.33 c -0.12,-0.12 -0.12,-0.14 -0.12,-0.4 h 4.04 l 0.31,1.89 h -0.28 c -0.05,-0.33 -0.13,-0.81 -0.24,-0.97 -0.07,-0.09 -0.79,-0.09 -1.03,-0.09 z"
   inkscape:connector-curvature="0"
   style="fill:#000000;stroke-width:0" />
<path
   id="path3361"
   d="m 167.43,692.31 0,0.01 0,0 0.01,0.01 0,0.01 0.01,0.02 0,0.01 0.01,0.01 0,0.01 0.01,0.01 0,0.01 0,0 0,0.01 0,0 0.01,0.01 0,0 0,0 0,0.01 0,0 0,0.01 0,0 0,0 0,0.01 0,0 0,0 0.01,0 c 0,0.01 0,0.12 -0.14,0.12 -0.09,0 -0.12,-0.06 -0.14,-0.13 -0.7,-1.61 -1.11,-2.34 -2.97,-2.34 h -1.59 c -0.15,0 -0.17,0 -0.24,0.01 -0.11,0.01 -0.14,0.03 -0.14,0.11 0,0.04 0,0.06 0.05,0.25 l 0.74,2.98 h 1.08 c 0.93,0 0.93,-0.23 0.93,-0.51 0,-0.07 0,-0.2 -0.08,-0.53 -0.02,-0.05 -0.03,-0.09 -0.03,-0.12 0,-0.05 0.04,-0.12 0.14,-0.12 0.09,0 0.12,0.06 0.16,0.22 l 0.62,2.55 c 0,0.06 -0.05,0.12 -0.13,0.12 -0.1,0 -0.12,-0.07 -0.15,-0.2 -0.23,-0.83 -0.42,-1.08 -1.43,-1.08 h -1.02 l 0.65,2.63 c 0.1,0.38 0.11,0.42 0.59,0.42 h 1.54 c 1.33,0 1.65,-0.31 1.65,-1.21 0,-0.26 0,-0.28 -0.04,-0.57 0,-0.07 -0.01,-0.15 -0.01,-0.2 0,-0.05 0.03,-0.13 0.13,-0.13 0.12,0 0.13,0.06 0.15,0.27 l 0.22,1.89 c 0.03,0.29 -0.02,0.29 -0.29,0.29 h -5.5 c -0.22,0 -0.33,0 -0.33,-0.22 0,-0.12 0.1,-0.12 0.3,-0.12 0.41,0 0.71,0 0.71,-0.19 0,-0.05 0,-0.07 -0.05,-0.27 l -1.44,-5.76 c -0.11,-0.42 -0.13,-0.51 -0.99,-0.51 -0.18,0 -0.31,0 -0.31,-0.2 0,-0.13 0.1,-0.13 0.31,-0.13 h 5.65 c 0.25,0 0.26,0.01 0.34,0.18 z"
   inkscape:connector-curvature="0"
   style="fill:#000000;stroke-width:0" />
<path
   id="path3363"
   d="m 172.48,696.37 0.01,0.04 0.01,0.03 0.01,0.04 0,0.03 0.01,0.03 0.01,0.03 0.01,0.02 0.01,0.03 0.02,0.02 0.01,0.02 0.01,0.02 0.02,0.02 0.02,0.02 0.01,0.02 0.03,0.02 0.02,0.01 0.02,0.01 0.03,0.02 0.03,0.01 0.03,0.01 0.04,0.01 0.02,0 0.02,0.01 0.02,0 0.02,0 0.02,0.01 0.03,0 0.02,0 0.03,0.01 0.02,0 0.03,0 0.03,0 0.02,0.01 0.03,0 0.03,0 0.04,0 0.03,0 0.03,0 0.04,0 0.03,0 0.04,0 0.04,0 0.04,0 c 0.26,0 0.35,0 0.35,0.21 0,0.13 -0.12,0.13 -0.17,0.13 -0.31,0 -1.12,-0.03 -1.43,-0.03 -0.33,0 -1.12,0.03 -1.45,0.03 -0.08,0 -0.22,0 -0.22,-0.22 0,-0.12 0.1,-0.12 0.31,-0.12 0.45,0 0.75,0 0.75,-0.2 0,-0.06 0,-0.08 -0.02,-0.18 l -1.47,-5.87 c -0.1,-0.4 -0.13,-0.51 -1,-0.51 -0.24,0 -0.34,0 -0.34,-0.21 0,-0.12 0.13,-0.12 0.16,-0.12 0.32,0 1.11,0.03 1.43,0.03 0.32,0 1.13,-0.03 1.46,-0.03 0.08,0 0.21,0 0.21,0.2 0,0.13 -0.08,0.13 -0.32,0.13 -0.2,0 -0.25,0 -0.47,0.02 -0.23,0.03 -0.27,0.07 -0.27,0.19 0,0.09 0.02,0.17 0.04,0.25 z"
   inkscape:connector-curvature="0"
   style="fill:#000000;stroke-width:0" />
<path
   id="path3365"
   d="m 177.09,690.67 0,0.08 0,0.08 0,0.07 0,0.08 -0.01,0.07 0,0.07 0,0.07 -0.01,0.06 0,0.07 -0.01,0.06 0,0.06 -0.01,0.07 -0.02,0.11 -0.02,0.12 -0.02,0.11 -0.02,0.11 -0.03,0.1 -0.03,0.1 -0.04,0.1 -0.04,0.1 -0.04,0.09 -0.05,0.1 c -0.35,0.7 -1,0.87 -1.43,0.87 v -0.22 c 0.27,0 0.82,-0.13 0.98,-0.86 0.09,-0.43 0.09,-1.03 0.09,-1.57 0,-0.47 0,-1.19 -0.09,-1.63 -0.17,-0.84 -0.72,-0.95 -0.98,-0.95 h 0 c -0.27,0 -0.82,0.13 -0.99,0.97 -0.09,0.45 -0.09,1.19 -0.09,1.61 0,0.55 0,1.1 0.09,1.54 0.17,0.81 0.79,0.89 0.99,0.89 v 0.22 c -1.01,0 -1.37,-0.74 -1.48,-0.97 -0.29,-0.58 -0.31,-1.36 -0.31,-1.78 0,-0.52 0.03,-1.32 0.41,-1.96 0.37,-0.59 0.95,-0.74 1.38,-0.74 0.38,0 1.06,0.12 1.46,0.91 0.3,0.57 0.32,1.28 0.32,1.79 z"
   inkscape:connector-curvature="0"
   style="fill:#000000;stroke-width:0" />
<path
   id="path3367"
   d="m 182.08,688.4 0.03,0 0.03,0.01 0.03,0 0.03,0.01 0.03,0.01 0.02,0.01 0.03,0.01 0.03,0.01 0.02,0.01 0.02,0.01 0.03,0.01 0.02,0.02 0.02,0.01 0.02,0.02 0.02,0.02 0.01,0.01 0.02,0.02 0.02,0.02 0.01,0.02 0.01,0.02 0.02,0.02 0.01,0.03 0.01,0.02 0.01,0.02 0,0.02 0.01,0.03 0.01,0.02 0,0.02 0.01,0.03 0,0.02 0,0.03 0,0.02 c 0,0.36 -0.27,0.54 -0.52,0.54 -0.26,0 -0.54,-0.17 -0.54,-0.55 0,-0.55 0.55,-1.01 1.21,-1.01 1.66,0 2.28,2.55 3.05,5.71 0.84,3.44 1.55,6.91 2.14,10.41 0.4,2.32 0.8,4.49 1.17,5.9 0.13,0.53 0.5,1.94 0.93,1.94 0.33,0 0.61,-0.21 0.65,-0.25 -0.36,-0.03 -0.54,-0.27 -0.54,-0.54 0,-0.36 0.27,-0.53 0.52,-0.53 0.26,0 0.53,0.16 0.53,0.54 0,0.59 -0.59,1.02 -1.19,1.02 -0.82,0 -1.43,-1.19 -2.03,-3.41 -0.03,-0.12 -1.51,-5.59 -2.71,-12.71 -0.29,-1.66 -0.6,-3.48 -0.96,-5 -0.2,-0.79 -0.7,-2.84 -1.58,-2.84 -0.39,0 -0.65,0.25 -0.66,0.25 z"
   inkscape:connector-curvature="0"
   style="fill:#000000;stroke-width:0" />
</g>    </g>
    <g
       id="g3755"
       transform="translate(159.987,-51.247528)">
      <g
         id="g3286"
         transform="translate(-6,0)">
        <path
           style="fill:#cccccc;fill-opacity:1;fill-rule:nonzero;stroke:#4d4d4d;stroke-width:0.75;stroke-linecap:square;stroke-linejoin:miter;stroke-miterlimit:4;stroke-opacity:1;stroke-dasharray:0.75, 0.75;stroke-dashoffset:0"
           d="m 267,377.362 -54,0 0,-18 z"
           id="path3228"
           inkscape:connector-curvature="0" />
        <text
           xml:space="preserve"
           style="font-style:normal;font-variant:normal;font-weight:normal;font-stretch:normal;line-height:0%;font-family:Verdana;-inkscape-font-specification:Sans;text-align:start;letter-spacing:0px;word-spacing:0px;writing-mode:lr-tb;text-anchor:start;fill:#000000;fill-opacity:1;stroke:none"
           x="214.9901"
           y="358.05508"
           id="text3256"><tspan
             sodipodi:role="line"
             id="tspan3258"
             x="214.9901"
             y="358.05508"
             style="font-size:9px;line-height:1.25">+6m</tspan></text>
        <text
           xml:space="preserve"
           style="font-style:normal;font-variant:normal;font-weight:normal;font-stretch:normal;line-height:0%;font-family:Verdana;-inkscape-font-specification:Sans;text-align:start;letter-spacing:0px;word-spacing:0px;writing-mode:lr-tb;text-anchor:start;fill:#000000;fill-opacity:1;stroke:none"
           x="231.43564"
           y="385.53033"
           id="text3260"><tspan
             sodipodi:role="line"
             id="tspan3262"
             x="231.43564"
             y="385.53033"
             style="font-size:9px;line-height:1.25">6m</tspan></text>
        <path
           inkscape:connector-curvature="0"
           id="path6612"
           d="m 329,377.362 -54,0 0,-18 z"
           style="fill:#cccccc;fill-opacity:1;fill-rule:nonzero;stroke:#4d4d4d;stroke-width:0.75;stroke-linecap:square;stroke-linejoin:miter;stroke-miterlimit:4;stroke-opacity:1;stroke-dasharray:0.75, 0.75;stroke-dashoffset:0" />
        <text
           id="text6614"
           y="358.05508"
           x="276.99011"
           style="font-style:normal;font-variant:normal;font-weight:normal;font-stretch:normal;line-height:0%;font-family:Verdana;-inkscape-font-specification:Sans;text-align:start;letter-spacing:0px;word-spacing:0px;writing-mode:lr-tb;text-anchor:start;fill:#000000;fill-opacity:1;stroke:none"
           xml:space="preserve"><tspan
             y="358.05508"
             x="276.99011"
             id="tspan6616"
             sodipodi:role="line"
             style="font-size:9px;line-height:1.25">+6m</tspan></text>
      </g>
      <g
         style="font-style:normal;font-variant:normal;font-weight:normal;font-stretch:normal;letter-spacing:normal;word-spacing:normal;text-anchor:start;fill:none;stroke:#000000;stroke-linecap:butt;stroke-linejoin:miter;stroke-miterlimit:10.43299961;stroke-opacity:1;stroke-dasharray:none;stroke-dashoffset:0"
         ns0:preamble="/home/nholtz/work/share/config/inkscape/extensions/amspreamble.tex"
         ns0:text="\\[\n{}+\\frac{1}{EI_0}\\int {}\n\\]"
         text-anchor="start"
         word-spacing="normal"
         letter-spacing="normal"
         font-size-adjust="none"
         font-stretch="normal"
         font-weight="normal"
         font-variant="normal"
         font-style="normal"
         fill-opacity="1"
         fill-rule="evenodd"
         fill="none"
         stroke-opacity="1"
         stroke-dashoffset="0"
         stroke-dasharray="none"
         stroke-miterlimit="10.433"
         stroke-linejoin="miter"
         stroke-linecap="butt"
         stroke="black"
         xml:space="preserve"
         transform="matrix(1.1,0,0,-1.1,-17.697005,1138.683)"
         id="g6665">
<path
   id="path6667"
   fill="black"
   stroke-width="0"
   d="M159.95,699.76 H162.99 C163.14,699.76,163.35,699.76,163.35,699.98 C163.35,700.2,163.14,700.2,162.99,700.2 H159.95 V703.25 C159.95,703.4,159.95,703.61,159.73,703.61 C159.51,703.61,159.51,703.4,159.51,703.25 V700.2 H156.46 C156.31,700.2,156.1,700.2,156.1,699.98 C156.1,699.76,156.31,699.76,156.46,699.76 H159.51 V696.71 C159.51,696.56,159.51,696.35,159.73,696.35 C159.95,696.35,159.95,696.56,159.95,696.71 Z " />
<path
   id="path6669"
   fill="black"
   stroke-width="0"
   d="M177.18,711.61 L177.18,711.62 L177.18,711.63 L177.18,711.64 L177.18,711.65 L177.18,711.66 L177.18,711.67 L177.18,711.68 L177.18,711.69 L177.18,711.7 L177.18,711.71 L177.18,711.72 L177.18,711.73 L177.18,711.74 L177.18,711.75 L177.17,711.75 L177.17,711.76 L177.17,711.77 L177.17,711.78 L177.17,711.79 L177.17,711.8 L177.16,711.81 L177.16,711.82 L177.16,711.83 L177.15,711.84 L177.15,711.85 L177.14,711.85 L177.13,711.86 L177.13,711.86 L177.12,711.87 L177.11,711.87 L177.1,711.88 L177.1,711.88 L177.09,711.88 L177.09,711.88 L177.08,711.88 L177.07,711.88 L177.07,711.88 L177.06,711.88 L177.05,711.89 L177.04,711.89 L177.04,711.89 L177.03,711.89 L177.02,711.89 L177.01,711.89 L177,711.89 L176.99,711.89 L176.98,711.89 L176.97,711.89 L176.96,711.89 L176.95,711.89 L176.94,711.89 L176.93,711.89 C176.25,711.19,175.29,711.19,174.95,711.19 V710.85 C175.16,710.85,175.81,710.85,176.37,711.14 V705.5 C176.37,705.11,176.34,704.98,175.36,704.98 H175.01 V704.64 C175.39,704.67,176.34,704.67,176.77,704.67 C177.21,704.67,178.16,704.67,178.54,704.64 V704.98 H178.19 C177.21,704.98,177.18,705.09,177.18,705.5 Z " />
<line
   id="line6671"
   stroke-width="0.436"
   y2="699.98"
   x2="185.81"
   y1="699.98"
   x1="167.6" />
<path
   id="path6673"
   fill="black"
   stroke-width="0"
   d="M175.31,692.31 L175.31,692.32 L175.31,692.32 L175.32,692.33 L175.32,692.34 L175.33,692.36 L175.33,692.37 L175.34,692.38 L175.34,692.39 L175.34,692.4 L175.35,692.41 L175.35,692.41 L175.35,692.42 L175.35,692.42 L175.35,692.43 L175.36,692.43 L175.36,692.43 L175.36,692.44 L175.36,692.44 L175.36,692.45 L175.36,692.45 L175.36,692.45 L175.36,692.46 L175.36,692.46 L175.36,692.46 L175.36,692.46 C175.36,692.47,175.36,692.58,175.23,692.58 C175.13,692.58,175.11,692.52,175.09,692.45 C174.38,690.84,173.98,690.11,172.12,690.11 H170.53 C170.38,690.11,170.35,690.11,170.29,690.12 C170.18,690.13,170.15,690.15,170.15,690.23 C170.15,690.27,170.15,690.29,170.2,690.48 L170.94,693.46 H172.02 C172.95,693.46,172.95,693.23,172.95,692.95 C172.95,692.88,172.95,692.75,172.87,692.42 C172.85,692.37,172.84,692.33,172.84,692.3 C172.84,692.25,172.88,692.18,172.98,692.18 C173.07,692.18,173.1,692.24,173.14,692.4 L173.76,694.95 C173.76,695.01,173.71,695.07,173.63,695.07 C173.53,695.07,173.51,695,173.48,694.87 C173.25,694.04,173.05,693.79,172.05,693.79 H171.03 L171.68,696.42 C171.78,696.8,171.79,696.84,172.27,696.84 H173.81 C175.13,696.84,175.46,696.53,175.46,695.63 C175.46,695.37,175.46,695.35,175.42,695.06 C175.42,694.99,175.41,694.91,175.41,694.86 C175.41,694.81,175.44,694.73,175.54,694.73 C175.66,694.73,175.67,694.79,175.69,695 L175.91,696.89 C175.94,697.18,175.89,697.18,175.61,697.18 H170.12 C169.9,697.18,169.79,697.18,169.79,696.96 C169.79,696.84,169.89,696.84,170.09,696.84 C170.5,696.84,170.8,696.84,170.8,696.65 C170.8,696.6,170.8,696.58,170.75,696.38 L169.31,690.62 C169.2,690.2,169.18,690.11,168.32,690.11 C168.13,690.11,168.01,690.11,168.01,689.91 C168.01,689.78,168.11,689.78,168.32,689.78 H173.97 C174.22,689.78,174.23,689.79,174.31,689.96 Z " />
<path
   id="path6675"
   fill="black"
   stroke-width="0"
   d="M180.36,696.37 L180.37,696.41 L180.38,696.44 L180.38,696.48 L180.39,696.51 L180.4,696.54 L180.41,696.57 L180.42,696.59 L180.43,696.62 L180.45,696.64 L180.46,696.66 L180.47,696.68 L180.49,696.7 L180.51,696.72 L180.52,696.74 L180.54,696.76 L180.57,696.77 L180.59,696.78 L180.62,696.8 L180.65,696.81 L180.68,696.82 L180.72,696.83 L180.74,696.83 L180.76,696.84 L180.78,696.84 L180.8,696.84 L180.82,696.85 L180.85,696.85 L180.87,696.85 L180.89,696.86 L180.92,696.86 L180.95,696.86 L180.97,696.86 L181,696.87 L181.03,696.87 L181.06,696.87 L181.1,696.87 L181.13,696.87 L181.16,696.87 L181.2,696.87 L181.23,696.87 L181.27,696.87 L181.31,696.87 L181.35,696.87 C181.61,696.87,181.7,696.87,181.7,697.08 C181.7,697.21,181.58,697.21,181.53,697.21 C181.22,697.21,180.41,697.18,180.1,697.18 C179.77,697.18,178.98,697.21,178.65,697.21 C178.57,697.21,178.43,697.21,178.43,696.99 C178.43,696.87,178.53,696.87,178.74,696.87 C179.19,696.87,179.49,696.87,179.49,696.67 C179.49,696.61,179.49,696.59,179.46,696.49 L177.99,690.62 C177.9,690.22,177.87,690.11,177,690.11 C176.75,690.11,176.66,690.11,176.66,689.9 C176.66,689.78,176.79,689.78,176.82,689.78 C177.13,689.78,177.93,689.81,178.25,689.81 C178.57,689.81,179.38,689.78,179.71,689.78 C179.79,689.78,179.92,689.78,179.92,689.98 C179.92,690.11,179.84,690.11,179.6,690.11 C179.4,690.11,179.35,690.11,179.13,690.13 C178.9,690.16,178.86,690.2,178.86,690.32 C178.86,690.41,178.88,690.49,178.9,690.57 Z " />
<path
   id="path6677"
   fill="black"
   stroke-width="0"
   d="M184.97,690.67 L184.97,690.75 L184.97,690.83 L184.97,690.9 L184.96,690.98 L184.96,691.05 L184.96,691.12 L184.96,691.19 L184.95,691.25 L184.95,691.32 L184.94,691.38 L184.93,691.44 L184.93,691.51 L184.91,691.62 L184.89,691.74 L184.87,691.85 L184.85,691.96 L184.82,692.06 L184.78,692.16 L184.75,692.26 L184.71,692.36 L184.67,692.45 L184.62,692.55 C184.27,693.25,183.62,693.42,183.19,693.42 V693.2 C183.46,693.2,184.01,693.07,184.16,692.34 C184.26,691.91,184.26,691.31,184.26,690.77 C184.26,690.3,184.26,689.58,184.16,689.14 C184,688.3,183.45,688.19,183.19,688.19 H183.19 C182.92,688.19,182.37,688.32,182.2,689.16 C182.11,689.61,182.11,690.35,182.11,690.77 C182.11,691.32,182.11,691.87,182.2,692.31 C182.37,693.12,182.99,693.2,183.19,693.2 V693.42 C182.18,693.42,181.82,692.68,181.71,692.45 C181.42,691.87,181.4,691.09,181.4,690.67 C181.4,690.15,181.43,689.35,181.81,688.71 C182.18,688.12,182.76,687.97,183.19,687.97 C183.57,687.97,184.25,688.09,184.65,688.88 C184.95,689.45,184.97,690.16,184.97,690.67 Z " />
<path
   id="path6679"
   fill="black"
   stroke-width="0"
   d="M189.96,688.4 L189.99,688.4 L190.02,688.41 L190.05,688.41 L190.08,688.42 L190.11,688.43 L190.13,688.44 L190.16,688.45 L190.19,688.46 L190.21,688.47 L190.23,688.48 L190.26,688.49 L190.28,688.51 L190.3,688.52 L190.32,688.54 L190.34,688.56 L190.35,688.57 L190.37,688.59 L190.38,688.61 L190.4,688.63 L190.41,688.65 L190.42,688.67 L190.44,688.7 L190.45,688.72 L190.45,688.74 L190.46,688.76 L190.47,688.79 L190.48,688.81 L190.48,688.83 L190.48,688.86 L190.49,688.88 L190.49,688.91 L190.49,688.93 C190.49,689.29,190.22,689.47,189.97,689.47 C189.71,689.47,189.43,689.3,189.43,688.92 C189.43,688.37,189.98,687.91,190.64,687.91 C192.3,687.91,192.92,690.46,193.69,693.62 C194.53,697.06,195.24,700.53,195.82,704.03 C196.23,706.35,196.63,708.52,197,709.93 C197.13,710.46,197.5,711.87,197.93,711.87 C198.26,711.87,198.54,711.66,198.58,711.62 C198.22,711.59,198.04,711.35,198.04,711.08 C198.04,710.72,198.31,710.55,198.56,710.55 C198.82,710.55,199.09,710.71,199.09,711.09 C199.09,711.68,198.5,712.11,197.9,712.11 C197.08,712.11,196.47,710.92,195.87,708.7 C195.84,708.58,194.35,703.11,193.16,695.99 C192.87,694.33,192.56,692.51,192.2,690.99 C192,690.2,191.5,688.15,190.62,688.15 C190.23,688.15,189.97,688.4,189.96,688.4 Z " />
</g>    </g>
    <g
       id="g7015"
       transform="matrix(1.1,0,0,-1.1,-66.938,1094.196)"
       xml:space="preserve"
       stroke="black"
       stroke-linecap="butt"
       stroke-linejoin="miter"
       stroke-miterlimit="10.433"
       stroke-dasharray="none"
       stroke-dashoffset="0"
       stroke-opacity="1"
       fill="none"
       fill-rule="evenodd"
       fill-opacity="1"
       font-style="normal"
       font-variant="normal"
       font-weight="normal"
       font-stretch="normal"
       font-size-adjust="none"
       letter-spacing="normal"
       word-spacing="normal"
       text-anchor="start"
       ns0:text="\\[\nf_{11} = {}\n\\]"
       ns0:preamble="/home/nholtz/work/share/config/inkscape/extensions/amspreamble.tex"
       style="font-style:normal;font-variant:normal;font-weight:normal;font-stretch:normal;letter-spacing:normal;word-spacing:normal;text-anchor:start;fill:none;stroke:#000000;stroke-linecap:butt;stroke-linejoin:miter;stroke-miterlimit:10.43299961;stroke-opacity:1;stroke-dasharray:none;stroke-dashoffset:0">
<path
   d="M157.07,705.5 H158 C158.22,705.5,158.33,705.5,158.33,705.72 C158.33,705.84,158.22,705.84,158.04,705.84 H157.13 L157.36,707.08 C157.4,707.31,157.56,708.08,157.62,708.22 C157.72,708.42,157.9,708.59,158.13,708.59 C158.18,708.59,158.46,708.59,158.67,708.39 C158.19,708.34,158.08,707.96,158.08,707.8 C158.08,707.55,158.28,707.42,158.48,707.42 C158.77,707.42,159.08,707.66,159.08,708.07 C159.08,708.57,158.58,708.82,158.13,708.82 C157.76,708.82,157.08,708.63,156.75,707.55 C156.69,707.32,156.65,707.21,156.39,705.84 H155.64 C155.43,705.84,155.31,705.84,155.31,705.63 C155.31,705.5,155.41,705.5,155.62,705.5 H156.34 L155.52,701.2 C155.32,700.15,155.14,699.16,154.57,699.16 C154.53,699.16,154.26,699.16,154.05,699.35 C154.55,699.38,154.65,699.78,154.65,699.94 C154.65,700.19,154.45,700.32,154.25,700.32 C153.96,700.32,153.65,700.08,153.65,699.67 C153.65,699.18,154.13,698.92,154.57,698.92 C155.17,698.92,155.61,699.56,155.8,699.97 C156.15,700.66,156.4,701.98,156.41,702.05 Z "
   stroke-width="0"
   fill="black"
   id="path7017" />
<path
   d="M160.91,704.57 L160.91,704.58 L160.91,704.59 L160.91,704.6 L160.91,704.61 L160.91,704.62 L160.91,704.63 L160.91,704.64 L160.91,704.64 L160.91,704.65 L160.91,704.66 L160.91,704.67 L160.91,704.67 L160.91,704.68 L160.91,704.69 L160.91,704.69 L160.91,704.7 L160.9,704.7 L160.9,704.71 L160.9,704.71 L160.9,704.72 L160.9,704.73 L160.89,704.74 L160.89,704.75 L160.89,704.75 L160.88,704.76 L160.88,704.77 L160.87,704.77 L160.86,704.77 L160.86,704.78 L160.85,704.78 L160.84,704.79 L160.83,704.79 L160.82,704.79 L160.81,704.79 L160.8,704.79 L160.79,704.79 L160.79,704.79 L160.78,704.79 L160.77,704.79 L160.77,704.79 L160.76,704.79 L160.75,704.8 L160.74,704.8 L160.74,704.8 L160.73,704.8 L160.72,704.8 L160.71,704.8 L160.7,704.8 L160.69,704.8 L160.68,704.8 C160.35,704.48,159.93,704.29,159.18,704.29 V704.03 C159.39,704.03,159.82,704.03,160.28,704.24 V700.16 C160.28,699.87,160.26,699.77,159.5,699.77 H159.22 V699.51 C159.55,699.53,160.24,699.53,160.59,699.53 C160.95,699.53,161.64,699.53,161.97,699.51 V699.77 H161.69 C160.93,699.77,160.91,699.87,160.91,700.16 Z "
   stroke-width="0"
   fill="black"
   id="path7019" />
<path
   d="M165.15,704.57 L165.15,704.58 L165.15,704.59 L165.15,704.6 L165.15,704.61 L165.15,704.62 L165.15,704.63 L165.15,704.64 L165.14,704.64 L165.14,704.65 L165.14,704.66 L165.14,704.67 L165.14,704.67 L165.14,704.68 L165.14,704.69 L165.14,704.69 L165.14,704.7 L165.14,704.7 L165.14,704.71 L165.14,704.71 L165.14,704.72 L165.13,704.73 L165.13,704.74 L165.13,704.75 L165.12,704.75 L165.12,704.76 L165.11,704.77 L165.11,704.77 L165.1,704.77 L165.09,704.78 L165.08,704.78 L165.07,704.79 L165.06,704.79 L165.05,704.79 L165.04,704.79 L165.04,704.79 L165.03,704.79 L165.02,704.79 L165.02,704.79 L165.01,704.79 L165,704.79 L164.99,704.79 L164.99,704.8 L164.98,704.8 L164.97,704.8 L164.96,704.8 L164.95,704.8 L164.94,704.8 L164.93,704.8 L164.92,704.8 L164.91,704.8 C164.59,704.48,164.17,704.29,163.41,704.29 V704.03 C163.63,704.03,164.05,704.03,164.52,704.24 V700.16 C164.52,699.87,164.49,699.77,163.74,699.77 H163.46 V699.51 C163.79,699.53,164.47,699.53,164.83,699.53 C165.19,699.53,165.88,699.53,166.2,699.51 V699.77 H165.93 C165.17,699.77,165.15,699.87,165.15,700.16 Z "
   stroke-width="0"
   fill="black"
   id="path7021" />
<path
   d="M177.89,704.71 L177.92,704.71 L177.95,704.71 L177.98,704.71 L178,704.71 L178.02,704.71 L178.03,704.71 L178.05,704.71 L178.06,704.72 L178.08,704.72 L178.09,704.72 L178.11,704.73 L178.12,704.73 L178.14,704.74 L178.15,704.74 L178.16,704.75 L178.17,704.75 L178.19,704.76 L178.2,704.77 L178.21,704.78 L178.22,704.79 L178.23,704.8 L178.23,704.81 L178.23,704.81 L178.24,704.82 L178.24,704.82 L178.24,704.83 L178.25,704.84 L178.25,704.85 L178.25,704.85 L178.25,704.86 L178.25,704.87 L178.26,704.88 L178.26,704.89 L178.26,704.9 L178.26,704.91 L178.26,704.92 L178.26,704.93 C178.26,705.14,178.05,705.14,177.9,705.14 H171.38 C171.23,705.14,171.02,705.14,171.02,704.93 C171.02,704.71,171.23,704.71,171.39,704.71 Z "
   stroke-width="0"
   fill="black"
   id="path7023" />
<path
   d="M177.9,702.6 L177.91,702.6 L177.93,702.6 L177.96,702.6 L177.99,702.6 L178.01,702.6 L178.02,702.6 L178.04,702.6 L178.05,702.6 L178.07,702.6 L178.08,702.61 L178.1,702.61 L178.11,702.61 L178.12,702.62 L178.14,702.62 L178.15,702.63 L178.16,702.63 L178.18,702.64 L178.19,702.65 L178.2,702.66 L178.21,702.67 L178.22,702.68 L178.22,702.68 L178.23,702.69 L178.23,702.69 L178.23,702.7 L178.24,702.71 L178.24,702.71 L178.24,702.72 L178.25,702.73 L178.25,702.73 L178.25,702.74 L178.25,702.75 L178.25,702.76 L178.26,702.77 L178.26,702.78 L178.26,702.78 L178.26,702.79 L178.26,702.8 L178.26,702.81 C178.26,703.03,178.05,703.03,177.89,703.03 H171.39 C171.23,703.03,171.02,703.03,171.02,702.81 C171.02,702.6,171.23,702.6,171.38,702.6 Z "
   stroke-width="0"
   fill="black"
   id="path7025" />
</g>    <g
       id="g7442"
       transform="matrix(1.1,0,0,-1.1,-66.941,1133.94)"
       xml:space="preserve"
       stroke="black"
       stroke-linecap="butt"
       stroke-linejoin="miter"
       stroke-miterlimit="10.433"
       stroke-dasharray="none"
       stroke-dashoffset="0"
       stroke-opacity="1"
       fill="none"
       fill-rule="evenodd"
       fill-opacity="1"
       font-style="normal"
       font-variant="normal"
       font-weight="normal"
       font-stretch="normal"
       font-size-adjust="none"
       letter-spacing="normal"
       word-spacing="normal"
       text-anchor="start"
       ns0:text="\\begin{equation*}\nf_{11} =\n\\frac{1}{EI_0}\\left[\n\\frac{1}{2}\\times\\frac{8~m}{3}\\times6~m\\times 6~m\n+\n\\frac{6~m}{3}\\times6~m\\times 6~m\n\\right]\n\\end{equation*}\n\n"
       ns0:preamble="/home/nholtz/work/share/config/inkscape/extensions/amspreamble.tex"
       style="font-style:normal;font-variant:normal;font-weight:normal;font-stretch:normal;letter-spacing:normal;word-spacing:normal;text-anchor:start;fill:none;stroke:#000000;stroke-linecap:butt;stroke-linejoin:miter;stroke-miterlimit:10.43299961;stroke-opacity:1;stroke-dasharray:none;stroke-dashoffset:0">
<path
   d="M157.07,700.64 H158 C158.22,700.64,158.33,700.64,158.33,700.86 C158.33,700.98,158.22,700.98,158.04,700.98 H157.13 L157.36,702.22 C157.4,702.45,157.56,703.22,157.62,703.35 C157.72,703.56,157.9,703.72,158.13,703.72 C158.18,703.72,158.46,703.72,158.67,703.53 C158.19,703.48,158.08,703.1,158.08,702.94 C158.08,702.69,158.28,702.56,158.48,702.56 C158.77,702.56,159.08,702.8,159.08,703.21 C159.08,703.71,158.58,703.96,158.13,703.96 C157.76,703.96,157.08,703.77,156.75,702.69 C156.69,702.46,156.65,702.35,156.39,700.98 H155.64 C155.43,700.98,155.31,700.98,155.31,700.77 C155.31,700.64,155.41,700.64,155.62,700.64 H156.34 L155.52,696.34 C155.32,695.29,155.14,694.29,154.57,694.29 C154.53,694.29,154.26,694.29,154.05,694.49 C154.55,694.52,154.65,694.92,154.65,695.08 C154.65,695.33,154.45,695.46,154.25,695.46 C153.96,695.46,153.65,695.22,153.65,694.81 C153.65,694.32,154.13,694.06,154.57,694.06 C155.17,694.06,155.61,694.7,155.8,695.11 C156.15,695.8,156.4,697.12,156.41,697.19 Z "
   stroke-width="0"
   fill="black"
   id="path7444" />
<path
   d="M160.91,699.71 L160.91,699.72 L160.91,699.73 L160.91,699.74 L160.91,699.75 L160.91,699.76 L160.91,699.77 L160.91,699.78 L160.91,699.79 L160.91,699.79 L160.91,699.8 L160.91,699.81 L160.91,699.81 L160.91,699.82 L160.91,699.83 L160.91,699.83 L160.91,699.84 L160.9,699.85 L160.9,699.85 L160.9,699.86 L160.9,699.86 L160.9,699.87 L160.89,699.88 L160.89,699.89 L160.89,699.89 L160.88,699.9 L160.88,699.91 L160.87,699.91 L160.86,699.92 L160.86,699.92 L160.85,699.92 L160.84,699.93 L160.83,699.93 L160.82,699.93 L160.81,699.93 L160.8,699.93 L160.79,699.93 L160.79,699.93 L160.78,699.93 L160.77,699.94 L160.77,699.94 L160.76,699.94 L160.75,699.94 L160.74,699.94 L160.74,699.94 L160.73,699.94 L160.72,699.94 L160.71,699.94 L160.7,699.94 L160.69,699.94 L160.68,699.94 C160.35,699.62,159.93,699.43,159.18,699.43 V699.17 C159.39,699.17,159.82,699.17,160.28,699.38 V695.3 C160.28,695.01,160.26,694.91,159.5,694.91 H159.22 V694.65 C159.55,694.68,160.24,694.68,160.59,694.68 C160.95,694.68,161.64,694.68,161.97,694.65 V694.91 H161.69 C160.93,694.91,160.91,695.01,160.91,695.3 Z "
   stroke-width="0"
   fill="black"
   id="path7446" />
<path
   d="M165.15,699.71 L165.15,699.72 L165.15,699.73 L165.15,699.74 L165.15,699.75 L165.15,699.76 L165.15,699.77 L165.15,699.78 L165.14,699.79 L165.14,699.79 L165.14,699.8 L165.14,699.81 L165.14,699.81 L165.14,699.82 L165.14,699.83 L165.14,699.83 L165.14,699.84 L165.14,699.85 L165.14,699.85 L165.14,699.86 L165.14,699.86 L165.13,699.87 L165.13,699.88 L165.13,699.89 L165.12,699.89 L165.12,699.9 L165.11,699.91 L165.11,699.91 L165.1,699.92 L165.09,699.92 L165.08,699.92 L165.07,699.93 L165.06,699.93 L165.05,699.93 L165.04,699.93 L165.04,699.93 L165.03,699.93 L165.02,699.93 L165.02,699.93 L165.01,699.94 L165,699.94 L164.99,699.94 L164.99,699.94 L164.98,699.94 L164.97,699.94 L164.96,699.94 L164.95,699.94 L164.94,699.94 L164.93,699.94 L164.92,699.94 L164.91,699.94 C164.59,699.62,164.17,699.43,163.41,699.43 V699.17 C163.63,699.17,164.05,699.17,164.52,699.38 V695.3 C164.52,695.01,164.49,694.91,163.74,694.91 H163.46 V694.65 C163.79,694.68,164.47,694.68,164.83,694.68 C165.19,694.68,165.88,694.68,166.2,694.65 V694.91 H165.93 C165.17,694.91,165.15,695.01,165.15,695.3 Z "
   stroke-width="0"
   fill="black"
   id="path7448" />
<path
   d="M177.89,699.85 L177.92,699.85 L177.95,699.85 L177.98,699.85 L178,699.85 L178.02,699.85 L178.03,699.85 L178.05,699.86 L178.06,699.86 L178.08,699.86 L178.09,699.86 L178.11,699.87 L178.12,699.87 L178.14,699.88 L178.15,699.88 L178.16,699.89 L178.17,699.89 L178.19,699.9 L178.2,699.91 L178.21,699.92 L178.22,699.93 L178.23,699.94 L178.23,699.95 L178.23,699.95 L178.24,699.96 L178.24,699.97 L178.24,699.97 L178.25,699.98 L178.25,699.99 L178.25,699.99 L178.25,700 L178.25,700.01 L178.26,700.02 L178.26,700.03 L178.26,700.04 L178.26,700.05 L178.26,700.06 L178.26,700.07 C178.26,700.28,178.05,700.28,177.9,700.28 H171.38 C171.23,700.28,171.02,700.28,171.02,700.07 C171.02,699.85,171.23,699.85,171.39,699.85 Z "
   stroke-width="0"
   fill="black"
   id="path7450" />
<path
   d="M177.9,697.74 L177.91,697.74 L177.93,697.74 L177.96,697.74 L177.99,697.74 L178.01,697.74 L178.02,697.74 L178.04,697.74 L178.05,697.74 L178.07,697.74 L178.08,697.75 L178.1,697.75 L178.11,697.75 L178.12,697.76 L178.14,697.76 L178.15,697.77 L178.16,697.77 L178.18,697.78 L178.19,697.79 L178.2,697.8 L178.21,697.81 L178.22,697.82 L178.22,697.82 L178.23,697.83 L178.23,697.83 L178.23,697.84 L178.24,697.85 L178.24,697.85 L178.24,697.86 L178.25,697.87 L178.25,697.87 L178.25,697.88 L178.25,697.89 L178.25,697.9 L178.26,697.91 L178.26,697.92 L178.26,697.92 L178.26,697.93 L178.26,697.94 L178.26,697.95 C178.26,698.17,178.05,698.17,177.89,698.17 H171.39 C171.23,698.17,171.02,698.17,171.02,697.95 C171.02,697.74,171.23,697.74,171.38,697.74 Z "
   stroke-width="0"
   fill="black"
   id="path7452" />
<path
   d="M192.7,710.64 L192.7,710.65 L192.7,710.66 L192.7,710.67 L192.7,710.68 L192.7,710.69 L192.7,710.7 L192.7,710.71 L192.7,710.72 L192.7,710.73 L192.7,710.74 L192.7,710.75 L192.7,710.76 L192.7,710.77 L192.7,710.78 L192.69,710.78 L192.69,710.79 L192.69,710.8 L192.69,710.81 L192.69,710.82 L192.69,710.83 L192.68,710.84 L192.68,710.85 L192.68,710.86 L192.67,710.87 L192.67,710.88 L192.66,710.88 L192.65,710.89 L192.65,710.89 L192.64,710.9 L192.63,710.9 L192.62,710.91 L192.62,710.91 L192.61,710.91 L192.61,710.91 L192.6,710.91 L192.59,710.91 L192.59,710.91 L192.58,710.91 L192.57,710.92 L192.56,710.92 L192.56,710.92 L192.55,710.92 L192.54,710.92 L192.53,710.92 L192.52,710.92 L192.51,710.92 L192.5,710.92 L192.49,710.92 L192.48,710.92 L192.47,710.92 L192.46,710.92 L192.45,710.92 C191.77,710.22,190.82,710.22,190.47,710.22 V709.89 C190.68,709.89,191.33,709.89,191.89,710.17 V704.53 C191.89,704.14,191.86,704.01,190.88,704.01 H190.53 V703.67 C190.91,703.7,191.86,703.7,192.29,703.7 C192.73,703.7,193.68,703.7,194.06,703.67 V704.01 H193.71 C192.73,704.01,192.7,704.12,192.7,704.53 Z "
   stroke-width="0"
   fill="black"
   id="path7454" />
<line
   x1="183.12"
   y1="699.02"
   x2="201.33"
   y2="699.02"
   stroke-width="0.436"
   id="line7456" />
<path
   d="M190.83,691.34 L190.83,691.35 L190.83,691.35 L190.84,691.36 L190.84,691.37 L190.85,691.39 L190.85,691.4 L190.86,691.41 L190.86,691.42 L190.86,691.43 L190.87,691.44 L190.87,691.44 L190.87,691.45 L190.87,691.45 L190.87,691.46 L190.87,691.46 L190.88,691.46 L190.88,691.47 L190.88,691.47 L190.88,691.48 L190.88,691.48 L190.88,691.48 L190.88,691.49 L190.88,691.49 L190.88,691.49 L190.88,691.49 C190.88,691.51,190.88,691.61,190.75,691.61 C190.65,691.61,190.63,691.55,190.61,691.48 C189.9,689.87,189.5,689.14,187.64,689.14 H186.05 C185.9,689.14,185.87,689.14,185.81,689.15 C185.7,689.16,185.67,689.17,185.67,689.26 C185.67,689.29,185.67,689.32,185.72,689.51 L186.46,692.48 H187.54 C188.46,692.48,188.46,692.26,188.46,691.98 C188.46,691.91,188.46,691.78,188.39,691.45 C188.37,691.4,188.36,691.36,188.36,691.33 C188.36,691.28,188.4,691.21,188.5,691.21 C188.59,691.21,188.62,691.27,188.66,691.43 L189.28,693.98 C189.28,694.04,189.23,694.1,189.15,694.1 C189.05,694.1,189.03,694.03,189,693.9 C188.77,693.07,188.57,692.82,187.57,692.82 H186.55 L187.2,695.45 C187.3,695.83,187.31,695.87,187.79,695.87 H189.33 C190.65,695.87,190.98,695.56,190.98,694.66 C190.98,694.4,190.98,694.38,190.94,694.09 C190.94,694.02,190.93,693.94,190.93,693.89 C190.93,693.84,190.96,693.76,191.06,693.76 C191.18,693.76,191.19,693.83,191.21,694.03 L191.43,695.91 C191.46,696.21,191.4,696.21,191.13,696.21 H185.63 C185.42,696.21,185.31,696.21,185.31,695.99 C185.31,695.87,185.41,695.87,185.61,695.87 C186.01,695.87,186.32,695.87,186.32,695.68 C186.32,695.63,186.32,695.61,186.27,695.41 L184.83,689.65 C184.72,689.23,184.7,689.14,183.84,689.14 C183.65,689.14,183.53,689.14,183.53,688.94 C183.53,688.8,183.63,688.8,183.84,688.8 H189.49 C189.74,688.8,189.75,688.82,189.83,688.99 Z "
   stroke-width="0"
   fill="black"
   id="path7458" />
<path
   d="M195.88,695.4 L195.89,695.44 L195.89,695.47 L195.9,695.51 L195.91,695.54 L195.92,695.57 L195.93,695.59 L195.94,695.62 L195.95,695.65 L195.96,695.67 L195.98,695.69 L195.99,695.71 L196.01,695.73 L196.02,695.75 L196.04,695.77 L196.06,695.79 L196.09,695.8 L196.11,695.81 L196.14,695.83 L196.17,695.84 L196.2,695.85 L196.24,695.86 L196.26,695.86 L196.28,695.87 L196.3,695.87 L196.32,695.87 L196.34,695.88 L196.36,695.88 L196.39,695.88 L196.41,695.89 L196.44,695.89 L196.47,695.89 L196.49,695.89 L196.52,695.9 L196.55,695.9 L196.58,695.9 L196.61,695.9 L196.65,695.9 L196.68,695.9 L196.72,695.9 L196.75,695.9 L196.79,695.9 L196.83,695.9 L196.87,695.9 C197.13,695.9,197.22,695.9,197.22,696.11 C197.22,696.24,197.1,696.24,197.05,696.24 C196.74,696.24,195.93,696.21,195.62,696.21 C195.29,696.21,194.49,696.24,194.17,696.24 C194.09,696.24,193.95,696.24,193.95,696.02 C193.95,695.9,194.05,695.9,194.26,695.9 C194.71,695.9,195.01,695.9,195.01,695.7 C195.01,695.64,195.01,695.62,194.98,695.52 L193.51,689.65 C193.42,689.25,193.38,689.14,192.52,689.14 C192.27,689.14,192.18,689.14,192.18,688.92 C192.18,688.8,192.31,688.8,192.34,688.8 C192.65,688.8,193.45,688.84,193.76,688.84 C194.09,688.84,194.9,688.8,195.22,688.8 C195.31,688.8,195.44,688.8,195.44,689.01 C195.44,689.14,195.35,689.14,195.12,689.14 C194.92,689.14,194.86,689.14,194.65,689.16 C194.42,689.19,194.38,689.23,194.38,689.35 C194.38,689.44,194.4,689.52,194.42,689.6 Z "
   stroke-width="0"
   fill="black"
   id="path7460" />
<path
   d="M200.49,689.7 L200.49,689.78 L200.49,689.86 L200.49,689.93 L200.48,690.01 L200.48,690.08 L200.48,690.15 L200.48,690.22 L200.47,690.28 L200.47,690.35 L200.46,690.41 L200.45,690.48 L200.45,690.54 L200.43,690.66 L200.41,690.77 L200.39,690.88 L200.37,690.99 L200.34,691.09 L200.3,691.19 L200.27,691.29 L200.23,691.39 L200.19,691.48 L200.14,691.58 C199.79,692.28,199.14,692.45,198.71,692.45 V692.23 C198.98,692.23,199.53,692.1,199.68,691.37 C199.78,690.94,199.78,690.34,199.78,689.8 C199.78,689.33,199.78,688.61,199.68,688.17 C199.52,687.34,198.97,687.22,198.71,687.22 H198.71 C198.44,687.22,197.89,687.35,197.72,688.19 C197.63,688.64,197.63,689.39,197.63,689.8 C197.63,690.35,197.63,690.9,197.72,691.34 C197.89,692.15,198.51,692.23,198.71,692.23 V692.45 C197.7,692.45,197.34,691.71,197.23,691.48 C196.94,690.9,196.92,690.12,196.92,689.7 C196.92,689.18,196.95,688.38,197.33,687.74 C197.7,687.15,198.28,687,198.71,687 C199.09,687,199.77,687.12,200.17,687.91 C200.46,688.48,200.49,689.19,200.49,689.7 Z "
   stroke-width="0"
   fill="black"
   id="path7462" />
<polygon
   points="207.07,685.98 209.93,685.98 209.93,686.58 207.66,686.58 207.66,711.51 209.93,711.51 209.93,712.11 207.07,712.11 "
   stroke-width="0"
   fill="black"
   id="polygon7464" />
<path
   d="M214.5,710.64 L214.5,710.65 L214.5,710.66 L214.5,710.67 L214.5,710.68 L214.5,710.69 L214.5,710.7 L214.5,710.71 L214.5,710.72 L214.5,710.73 L214.5,710.74 L214.5,710.75 L214.5,710.76 L214.49,710.77 L214.49,710.78 L214.49,710.78 L214.49,710.79 L214.49,710.8 L214.49,710.81 L214.49,710.82 L214.49,710.83 L214.48,710.84 L214.48,710.85 L214.48,710.86 L214.47,710.87 L214.47,710.88 L214.46,710.88 L214.45,710.89 L214.44,710.89 L214.44,710.9 L214.43,710.9 L214.42,710.91 L214.42,710.91 L214.41,710.91 L214.4,710.91 L214.4,710.91 L214.39,710.91 L214.38,710.91 L214.38,710.91 L214.37,710.92 L214.36,710.92 L214.36,710.92 L214.35,710.92 L214.34,710.92 L214.33,710.92 L214.32,710.92 L214.31,710.92 L214.3,710.92 L214.29,710.92 L214.28,710.92 L214.27,710.92 L214.26,710.92 L214.25,710.92 C213.57,710.22,212.61,710.22,212.26,710.22 V709.89 C212.48,709.89,213.12,709.89,213.69,710.17 V704.53 C213.69,704.14,213.66,704.01,212.68,704.01 H212.33 V703.67 C212.71,703.7,213.66,703.7,214.09,703.7 C214.53,703.7,215.48,703.7,215.86,703.67 V704.01 H215.51 C214.53,704.01,214.5,704.12,214.5,704.53 Z "
   stroke-width="0"
   fill="black"
   id="path7466" />
<line
   x1="211.3"
   y1="699.02"
   x2="216.75"
   y2="699.02"
   stroke-width="0.436"
   id="line7468" />
<path
   d="M212.68,689.64 L213.83,690.77 C215.53,692.27,216.18,692.86,216.18,693.94 C216.18,695.19,215.21,696.06,213.88,696.06 C212.65,696.06,211.84,695.05,211.84,694.09 C211.84,693.48,212.38,693.48,212.42,693.48 C212.6,693.48,212.98,693.61,212.98,694.05 C212.98,694.34,212.79,694.62,212.41,694.62 C212.32,694.62,212.3,694.62,212.26,694.61 C212.52,695.32,213.1,695.72,213.74,695.72 C214.73,695.72,215.19,694.84,215.19,693.94 C215.19,693.07,214.65,692.21,214.05,691.54 L211.96,689.21 C211.84,689.09,211.84,689.07,211.84,688.8 H215.88 L216.18,690.7 H215.91 C215.86,690.37,215.78,689.89,215.67,689.73 C215.6,689.64,214.88,689.64,214.64,689.64 Z "
   stroke-width="0"
   fill="black"
   id="path7470" />
<path
   d="M224.61,699.32 L222.43,701.48 C222.3,701.61,222.27,701.63,222.19,701.63 C222.08,701.63,221.97,701.54,221.97,701.42 C221.97,701.34,221.99,701.32,222.11,701.2 L224.29,699.01 L222.11,696.82 C221.99,696.7,221.97,696.68,221.97,696.6 C221.97,696.48,222.08,696.39,222.19,696.39 C222.27,696.39,222.3,696.41,222.43,696.54 L224.6,698.71 L226.85,696.45 C226.87,696.44,226.95,696.39,227.01,696.39 C227.14,696.39,227.23,696.48,227.23,696.6 C227.23,696.62,227.23,696.67,227.2,696.72 C227.19,696.74,225.46,698.46,224.91,699.01 L226.9,701 C226.96,701.07,227.12,701.21,227.18,701.28 C227.19,701.3,227.23,701.34,227.23,701.42 C227.23,701.54,227.14,701.63,227.01,701.63 C226.93,701.63,226.88,701.59,226.76,701.47 Z "
   stroke-width="0"
   fill="black"
   id="path7472" />
<path
   d="M235.84,707.61 L235.91,707.65 L235.98,707.69 L236.05,707.73 L236.12,707.77 L236.19,707.81 L236.25,707.85 L236.32,707.9 L236.38,707.94 L236.44,707.99 L236.49,708.03 L236.55,708.08 L236.6,708.13 L236.65,708.18 L236.7,708.23 L236.75,708.28 L236.79,708.33 L236.83,708.39 L236.87,708.44 L236.91,708.5 L236.95,708.55 L236.98,708.61 L237.01,708.67 L237.04,708.73 L237.06,708.79 L237.08,708.85 L237.1,708.91 L237.12,708.97 L237.13,709.03 L237.14,709.1 L237.15,709.16 L237.16,709.23 L237.16,709.3 C237.16,710.3,236.19,710.92,235.2,710.92 L235.19,710.65 C235.98,710.65,236.68,710.08,236.68,709.3 C236.68,708.68,236.25,708.15,235.6,707.77 L234.25,708.64 C233.75,708.97,233.71,709.34,233.71,709.53 C233.71,710.19,234.41,710.65,235.19,710.65 L235.2,710.92 C234.11,710.92,233.23,710.11,233.23,709.1 C233.23,708.91,233.25,708.41,233.71,707.9 C233.82,707.77,234.23,707.5,234.5,707.32 L234.75,707.15 L236.09,706.3 C236.4,706.1,236.91,705.77,236.91,705.1 C236.91,704.3,236.09,703.73,235.2,703.73 C234.26,703.73,233.48,704.41,233.48,705.31 C233.48,705.94,233.82,706.64,234.75,707.15 H234.75 L234.5,707.32 C233.87,707,232.93,706.39,232.93,705.31 C232.93,704.16,234.04,703.43,235.19,703.43 C236.42,703.43,237.45,704.33,237.45,705.5 C237.45,705.89,237.33,706.38,236.92,706.84 C236.71,707.07,236.54,707.17,235.84,707.61 Z "
   stroke-width="0"
   fill="black"
   id="path7474" />
<path
   d="M242.52,704.31 L242.52,704.29 L242.52,704.28 L242.51,704.26 L242.51,704.25 L242.5,704.21 L242.49,704.18 L242.49,704.14 L242.48,704.1 L242.47,704.07 L242.46,704.04 L242.46,704.02 L242.45,704 L242.45,703.99 L242.45,703.97 L242.44,703.96 L242.44,703.94 L242.44,703.93 L242.44,703.92 L242.43,703.9 L242.43,703.89 L242.43,703.88 L242.43,703.87 L242.43,703.86 L242.43,703.85 L242.43,703.85 L242.43,703.84 C242.43,703.65,242.58,703.55,242.74,703.55 C242.87,703.55,243.07,703.64,243.14,703.85 C243.15,703.88,243.29,704.39,243.35,704.66 L243.59,705.64 C243.66,705.88,243.72,706.12,243.77,706.37 C243.82,706.55,243.91,706.87,243.92,706.91 C244.08,707.25,244.66,708.24,245.69,708.24 C246.18,708.24,246.28,707.84,246.28,707.48 C246.28,707.21,246.2,706.9,246.12,706.58 L245.81,705.31 L245.59,704.48 C245.55,704.27,245.45,703.9,245.45,703.84 C245.45,703.65,245.6,703.55,245.77,703.55 C246.11,703.55,246.17,703.82,246.26,704.17 C246.41,704.78,246.81,706.37,246.91,706.79 C246.94,706.93,247.52,708.24,248.71,708.24 C249.18,708.24,249.3,707.87,249.3,707.48 C249.3,706.86,248.84,705.62,248.62,705.04 C248.52,704.78,248.48,704.66,248.48,704.44 C248.48,703.93,248.86,703.55,249.37,703.55 C250.4,703.55,250.8,705.14,250.8,705.22 C250.8,705.33,250.7,705.33,250.67,705.33 C250.56,705.33,250.56,705.3,250.51,705.14 C250.34,704.56,249.99,703.79,249.39,703.79 C249.21,703.79,249.13,703.9,249.13,704.15 C249.13,704.42,249.23,704.68,249.33,704.92 C249.54,705.49,249.99,706.7,249.99,707.32 C249.99,708.02,249.56,708.48,248.74,708.48 C247.92,708.48,247.37,708,246.97,707.42 C246.96,707.57,246.92,707.94,246.62,708.2 C246.35,708.43,246,708.48,245.72,708.48 C244.74,708.48,244.21,707.78,244.03,707.53 C243.97,708.15,243.51,708.48,243.02,708.48 C242.52,708.48,242.32,708.06,242.22,707.86 C242.02,707.48,241.88,706.84,241.88,706.8 C241.88,706.7,241.99,706.7,242.01,706.7 C242.12,706.7,242.13,706.71,242.2,706.95 C242.38,707.72,242.6,708.24,242.99,708.24 C243.17,708.24,243.33,708.15,243.33,707.74 C243.33,707.51,243.3,707.39,243.15,706.83 Z "
   stroke-width="0"
   fill="black"
   id="path7476" />
<line
   x1="232.48"
   y1="699.02"
   x2="251.14"
   y2="699.02"
   stroke-width="0.436"
   id="line7478" />
<path
   d="M242.24,692.64 L242.32,692.67 L242.4,692.7 L242.48,692.73 L242.56,692.77 L242.64,692.81 L242.71,692.85 L242.78,692.89 L242.85,692.94 L242.92,692.99 L242.99,693.04 L243.05,693.09 L243.11,693.15 L243.17,693.2 L243.23,693.26 L243.29,693.32 L243.34,693.38 L243.39,693.45 L243.43,693.51 L243.48,693.58 L243.52,693.65 L243.56,693.72 L243.59,693.79 L243.62,693.86 L243.65,693.93 L243.68,694.01 L243.7,694.08 L243.72,694.16 L243.74,694.24 L243.75,694.32 L243.76,694.39 L243.76,694.47 L243.76,694.55 C243.76,695.45,242.81,696.06,241.76,696.06 C240.66,696.06,239.83,695.4,239.83,694.58 C239.83,694.22,240.07,694.01,240.39,694.01 C240.73,694.01,240.94,694.25,240.94,694.57 C240.94,695.11,240.43,695.11,240.27,695.11 C240.61,695.64,241.32,695.78,241.72,695.78 C242.16,695.78,242.76,695.54,242.76,694.57 C242.76,694.43,242.74,693.8,242.46,693.32 C242.13,692.8,241.76,692.77,241.49,692.76 C241.4,692.75,241.14,692.72,241.06,692.72 C240.98,692.71,240.9,692.7,240.9,692.59 C240.9,692.47,240.98,692.47,241.16,692.47 H241.64 C242.53,692.47,242.94,691.73,242.94,690.67 C242.94,689.19,242.18,688.87,241.71,688.87 C241.24,688.87,240.42,689.05,240.04,689.7 C240.42,689.64,240.76,689.88,240.76,690.3 C240.76,690.69,240.46,690.91,240.15,690.91 C239.89,690.91,239.54,690.75,239.54,690.28 C239.54,689.28,240.55,688.57,241.74,688.57 C243.07,688.57,244.06,689.56,244.06,690.67 C244.06,691.56,243.37,692.41,242.24,692.64 Z "
   stroke-width="0"
   fill="black"
   id="path7480" />
<path
   d="M259,699.32 L256.82,701.48 C256.69,701.61,256.67,701.63,256.58,701.63 C256.47,701.63,256.36,701.54,256.36,701.42 C256.36,701.34,256.39,701.32,256.51,701.2 L258.68,699.01 L256.51,696.82 C256.39,696.7,256.36,696.68,256.36,696.6 C256.36,696.48,256.47,696.39,256.58,696.39 C256.67,696.39,256.69,696.41,256.82,696.54 L258.99,698.71 L261.24,696.45 C261.26,696.44,261.34,696.39,261.41,696.39 C261.54,696.39,261.62,696.48,261.62,696.6 C261.62,696.62,261.62,696.67,261.59,696.72 C261.58,696.74,259.85,698.46,259.3,699.01 L261.3,701 C261.35,701.07,261.52,701.21,261.57,701.28 C261.58,701.3,261.62,701.34,261.62,701.42 C261.62,701.54,261.54,701.63,261.41,701.63 C261.32,701.63,261.27,701.59,261.16,701.47 Z "
   stroke-width="0"
   fill="black"
   id="path7482" />
<path
   d="M267.11,699.86 V700.12 C267.11,702.88,268.46,703.27,269.02,703.27 C269.28,703.27,269.73,703.2,269.97,702.83 C269.81,702.83,269.38,702.83,269.38,702.34 C269.38,702,269.64,701.84,269.88,701.84 C270.05,701.84,270.38,701.94,270.38,702.36 C270.38,703.02,269.9,703.54,268.99,703.54 C267.6,703.54,266.13,702.14,266.13,699.73 C266.13,696.82,267.39,696.05,268.41,696.05 C269.61,696.05,270.65,697.07,270.65,698.51 C270.65,699.89,269.68,700.94,268.47,700.94 L268.46,700.69 C268.64,700.69,269.14,700.69,269.47,700.01 C269.67,699.61,269.67,699.05,269.67,698.52 C269.67,698,269.67,697.45,269.48,697.06 C269.16,696.41,268.66,696.35,268.41,696.35 H268.41 C267.72,696.35,267.39,697.01,267.33,697.17 C267.13,697.68,267.13,698.55,267.13,698.75 C267.13,699.6,267.48,700.69,268.46,700.69 L268.47,700.94 C267.73,700.94,267.33,700.38,267.11,699.86 Z "
   stroke-width="0"
   fill="black"
   id="path7484" />
<path
   d="M275.72,696.93 L275.72,696.91 L275.72,696.9 L275.71,696.88 L275.71,696.87 L275.7,696.83 L275.69,696.8 L275.69,696.76 L275.68,696.72 L275.67,696.69 L275.66,696.66 L275.66,696.64 L275.65,696.62 L275.65,696.61 L275.65,696.59 L275.64,696.58 L275.64,696.56 L275.64,696.55 L275.63,696.54 L275.63,696.52 L275.63,696.51 L275.63,696.5 L275.63,696.49 L275.63,696.48 L275.62,696.47 L275.62,696.47 L275.62,696.46 C275.62,696.27,275.78,696.17,275.94,696.17 C276.07,696.17,276.27,696.26,276.34,696.47 C276.35,696.49,276.48,697.01,276.55,697.28 L276.79,698.26 C276.86,698.5,276.92,698.74,276.97,698.99 C277.02,699.17,277.11,699.49,277.12,699.53 C277.28,699.87,277.86,700.86,278.89,700.86 C279.38,700.86,279.48,700.46,279.48,700.1 C279.48,699.83,279.4,699.52,279.32,699.2 L279.01,697.93 L278.79,697.1 C278.75,696.89,278.65,696.52,278.65,696.46 C278.65,696.27,278.8,696.17,278.97,696.17 C279.3,696.17,279.37,696.44,279.46,696.79 C279.61,697.4,280.01,698.99,280.11,699.41 C280.14,699.55,280.72,700.86,281.91,700.86 C282.38,700.86,282.49,700.49,282.49,700.1 C282.49,699.48,282.04,698.24,281.82,697.66 C281.72,697.4,281.68,697.28,281.68,697.06 C281.68,696.55,282.06,696.17,282.57,696.17 C283.6,696.17,284,697.76,284,697.84 C284,697.95,283.9,697.95,283.87,697.95 C283.76,697.95,283.76,697.92,283.7,697.76 C283.54,697.18,283.19,696.41,282.59,696.41 C282.41,696.41,282.33,696.52,282.33,696.77 C282.33,697.04,282.43,697.3,282.53,697.54 C282.73,698.11,283.19,699.32,283.19,699.94 C283.19,700.64,282.76,701.1,281.94,701.1 C281.12,701.1,280.57,700.62,280.17,700.04 C280.15,700.19,280.12,700.56,279.82,700.82 C279.54,701.05,279.2,701.1,278.92,701.1 C277.94,701.1,277.41,700.4,277.23,700.15 C277.17,700.77,276.71,701.1,276.22,701.1 C275.72,701.1,275.52,700.68,275.42,700.48 C275.22,700.1,275.08,699.46,275.08,699.42 C275.08,699.32,275.19,699.32,275.21,699.32 C275.32,699.32,275.33,699.33,275.4,699.57 C275.58,700.34,275.8,700.86,276.19,700.86 C276.36,700.86,276.53,700.77,276.53,700.36 C276.53,700.13,276.49,700.01,276.35,699.45 Z "
   stroke-width="0"
   fill="black"
   id="path7486" />
<path
   d="M291,699.32 L288.82,701.48 C288.69,701.61,288.67,701.63,288.58,701.63 C288.48,701.63,288.37,701.54,288.37,701.42 C288.37,701.34,288.39,701.32,288.51,701.2 L290.69,699.01 L288.51,696.82 C288.39,696.7,288.37,696.68,288.37,696.6 C288.37,696.48,288.48,696.39,288.58,696.39 C288.67,696.39,288.69,696.41,288.82,696.54 L290.99,698.71 L293.24,696.45 C293.27,696.44,293.34,696.39,293.41,696.39 C293.54,696.39,293.63,696.48,293.63,696.6 C293.63,696.62,293.63,696.67,293.59,696.72 C293.58,696.74,291.85,698.46,291.31,699.01 L293.3,701 C293.35,701.07,293.52,701.21,293.57,701.28 C293.58,701.3,293.63,701.34,293.63,701.42 C293.63,701.54,293.54,701.63,293.41,701.63 C293.32,701.63,293.28,701.59,293.16,701.47 Z "
   stroke-width="0"
   fill="black"
   id="path7488" />
<path
   d="M299.11,699.86 V700.12 C299.11,702.88,300.46,703.27,301.02,703.27 C301.28,703.27,301.74,703.2,301.98,702.83 C301.81,702.83,301.38,702.83,301.38,702.34 C301.38,702,301.64,701.84,301.88,701.84 C302.05,701.84,302.38,701.94,302.38,702.36 C302.38,703.02,301.9,703.54,301,703.54 C299.6,703.54,298.13,702.14,298.13,699.73 C298.13,696.82,299.39,696.05,300.41,696.05 C301.62,696.05,302.65,697.07,302.65,698.51 C302.65,699.89,301.68,700.94,300.47,700.94 L300.46,700.69 C300.64,700.69,301.14,700.69,301.48,700.01 C301.67,699.61,301.67,699.05,301.67,698.52 C301.67,698,301.67,697.45,301.49,697.06 C301.16,696.41,300.66,696.35,300.41,696.35 H300.41 C299.72,696.35,299.39,697.01,299.33,697.17 C299.13,697.68,299.13,698.55,299.13,698.75 C299.13,699.6,299.48,700.69,300.46,700.69 L300.47,700.94 C299.73,700.94,299.33,700.38,299.11,699.86 Z "
   stroke-width="0"
   fill="black"
   id="path7490" />
<path
   d="M307.72,696.93 L307.72,696.91 L307.72,696.9 L307.71,696.88 L307.71,696.87 L307.7,696.83 L307.7,696.8 L307.69,696.76 L307.68,696.72 L307.67,696.69 L307.66,696.66 L307.66,696.64 L307.66,696.62 L307.65,696.61 L307.65,696.59 L307.65,696.58 L307.64,696.56 L307.64,696.55 L307.64,696.54 L307.63,696.52 L307.63,696.51 L307.63,696.5 L307.63,696.49 L307.63,696.48 L307.63,696.47 L307.63,696.47 L307.63,696.46 C307.63,696.27,307.78,696.17,307.94,696.17 C308.07,696.17,308.27,696.26,308.35,696.47 C308.36,696.49,308.49,697.01,308.55,697.28 L308.79,698.26 C308.86,698.5,308.92,698.74,308.98,698.99 C309.02,699.17,309.11,699.49,309.12,699.53 C309.28,699.87,309.86,700.86,310.89,700.86 C311.38,700.86,311.48,700.46,311.48,700.1 C311.48,699.83,311.4,699.52,311.32,699.2 L311.01,697.93 L310.8,697.1 C310.75,696.89,310.65,696.52,310.65,696.46 C310.65,696.27,310.81,696.17,310.97,696.17 C311.31,696.17,311.37,696.44,311.46,696.79 C311.61,697.4,312.01,698.99,312.11,699.41 C312.14,699.55,312.72,700.86,313.91,700.86 C314.38,700.86,314.5,700.49,314.5,700.1 C314.5,699.48,314.04,698.24,313.82,697.66 C313.72,697.4,313.68,697.28,313.68,697.06 C313.68,696.55,314.06,696.17,314.57,696.17 C315.6,696.17,316,697.76,316,697.84 C316,697.95,315.9,697.95,315.87,697.95 C315.76,697.95,315.76,697.92,315.71,697.76 C315.54,697.18,315.19,696.41,314.6,696.41 C314.41,696.41,314.33,696.52,314.33,696.77 C314.33,697.04,314.43,697.3,314.53,697.54 C314.74,698.11,315.19,699.32,315.19,699.94 C315.19,700.64,314.76,701.1,313.94,701.1 C313.12,701.1,312.57,700.62,312.17,700.04 C312.16,700.19,312.12,700.56,311.82,700.82 C311.55,701.05,311.2,701.1,310.92,701.1 C309.95,701.1,309.41,700.4,309.23,700.15 C309.17,700.77,308.71,701.1,308.23,701.1 C307.72,701.1,307.52,700.68,307.42,700.48 C307.22,700.1,307.08,699.46,307.08,699.42 C307.08,699.32,307.19,699.32,307.21,699.32 C307.32,699.32,307.33,699.33,307.4,699.57 C307.58,700.34,307.8,700.86,308.19,700.86 C308.37,700.86,308.53,700.77,308.53,700.36 C308.53,700.13,308.5,700.01,308.36,699.45 Z "
   stroke-width="0"
   fill="black"
   id="path7492" />
<path
   d="M323.22,698.79 H326.26 C326.41,698.79,326.62,698.79,326.62,699.01 C326.62,699.23,326.41,699.23,326.26,699.23 H323.22 V702.28 C323.22,702.43,323.22,702.64,323.01,702.64 C322.79,702.64,322.79,702.43,322.79,702.28 V699.23 H319.74 C319.59,699.23,319.38,699.23,319.38,699.01 C319.38,698.79,319.59,698.79,319.74,698.79 H322.79 V695.74 C322.79,695.59,322.79,695.38,323.01,695.38 C323.22,695.38,323.22,695.59,323.22,695.74 Z "
   stroke-width="0"
   fill="black"
   id="path7494" />
<path
   d="M332.31,707.24 V707.5 C332.31,710.26,333.66,710.65,334.22,710.65 C334.48,710.65,334.93,710.58,335.17,710.21 C335.01,710.21,334.58,710.21,334.58,709.72 C334.58,709.38,334.84,709.22,335.08,709.22 C335.25,709.22,335.58,709.32,335.58,709.74 C335.58,710.4,335.1,710.92,334.19,710.92 C332.8,710.92,331.33,709.52,331.33,707.11 C331.33,704.2,332.59,703.43,333.61,703.43 C334.82,703.43,335.85,704.45,335.85,705.89 C335.85,707.27,334.88,708.32,333.67,708.32 L333.66,708.07 C333.83,708.07,334.34,708.07,334.67,707.39 C334.87,706.99,334.87,706.43,334.87,705.9 C334.87,705.38,334.87,704.83,334.68,704.44 C334.36,703.79,333.86,703.73,333.61,703.73 H333.61 C332.92,703.73,332.59,704.39,332.53,704.55 C332.33,705.06,332.33,705.93,332.33,706.13 C332.33,706.98,332.68,708.07,333.66,708.07 L333.67,708.32 C332.93,708.32,332.53,707.76,332.31,707.24 Z "
   stroke-width="0"
   fill="black"
   id="path7496" />
<path
   d="M340.92,704.31 L340.92,704.29 L340.92,704.28 L340.91,704.26 L340.91,704.25 L340.9,704.21 L340.89,704.18 L340.89,704.14 L340.88,704.1 L340.87,704.07 L340.86,704.04 L340.86,704.02 L340.85,704 L340.85,703.99 L340.85,703.97 L340.84,703.96 L340.84,703.94 L340.84,703.93 L340.83,703.92 L340.83,703.9 L340.83,703.89 L340.83,703.88 L340.83,703.87 L340.83,703.86 L340.82,703.85 L340.82,703.85 L340.82,703.84 C340.82,703.65,340.98,703.55,341.14,703.55 C341.27,703.55,341.47,703.64,341.54,703.85 C341.55,703.88,341.68,704.39,341.75,704.66 L341.99,705.64 C342.05,705.88,342.12,706.12,342.17,706.37 C342.22,706.55,342.3,706.87,342.32,706.91 C342.48,707.25,343.06,708.24,344.09,708.24 C344.58,708.24,344.68,707.84,344.68,707.48 C344.68,707.21,344.6,706.9,344.52,706.58 L344.21,705.31 L343.99,704.48 C343.95,704.27,343.85,703.9,343.85,703.84 C343.85,703.65,344,703.55,344.17,703.55 C344.51,703.55,344.57,703.82,344.66,704.17 C344.81,704.78,345.21,706.37,345.31,706.79 C345.34,706.93,345.92,708.24,347.11,708.24 C347.58,708.24,347.7,707.87,347.7,707.48 C347.7,706.86,347.24,705.62,347.02,705.04 C346.92,704.78,346.88,704.66,346.88,704.44 C346.88,703.93,347.26,703.55,347.77,703.55 C348.8,703.55,349.2,705.14,349.2,705.22 C349.2,705.33,349.1,705.33,349.07,705.33 C348.96,705.33,348.96,705.3,348.9,705.14 C348.74,704.56,348.39,703.79,347.79,703.79 C347.61,703.79,347.53,703.9,347.53,704.15 C347.53,704.42,347.63,704.68,347.73,704.92 C347.93,705.49,348.39,706.7,348.39,707.32 C348.39,708.02,347.96,708.48,347.14,708.48 C346.32,708.48,345.77,708,345.36,707.42 C345.35,707.57,345.32,707.94,345.02,708.2 C344.74,708.43,344.4,708.48,344.12,708.48 C343.14,708.48,342.61,707.78,342.42,707.53 C342.37,708.15,341.91,708.48,341.42,708.48 C340.92,708.48,340.71,708.06,340.62,707.86 C340.42,707.48,340.28,706.84,340.28,706.8 C340.28,706.7,340.39,706.7,340.41,706.7 C340.52,706.7,340.53,706.71,340.6,706.95 C340.78,707.72,341,708.24,341.39,708.24 C341.57,708.24,341.73,708.15,341.73,707.74 C341.73,707.51,341.7,707.39,341.55,706.83 Z "
   stroke-width="0"
   fill="black"
   id="path7498" />
<line
   x1="330.87"
   y1="699.02"
   x2="349.54"
   y2="699.02"
   stroke-width="0.436"
   id="line7500" />
<path
   d="M340.64,692.64 L340.72,692.67 L340.8,692.7 L340.88,692.73 L340.96,692.77 L341.04,692.81 L341.11,692.85 L341.18,692.89 L341.25,692.94 L341.32,692.99 L341.39,693.04 L341.45,693.09 L341.51,693.15 L341.57,693.2 L341.63,693.26 L341.68,693.32 L341.73,693.38 L341.78,693.45 L341.83,693.51 L341.87,693.58 L341.92,693.65 L341.95,693.72 L341.99,693.79 L342.02,693.86 L342.05,693.93 L342.08,694.01 L342.1,694.08 L342.12,694.16 L342.13,694.24 L342.15,694.32 L342.15,694.39 L342.16,694.47 L342.16,694.55 C342.16,695.45,341.2,696.06,340.16,696.06 C339.06,696.06,338.23,695.4,338.23,694.58 C338.23,694.22,338.47,694.01,338.79,694.01 C339.12,694.01,339.34,694.25,339.34,694.57 C339.34,695.11,338.83,695.11,338.67,695.11 C339,695.64,339.72,695.78,340.11,695.78 C340.56,695.78,341.16,695.54,341.16,694.57 C341.16,694.43,341.14,693.8,340.86,693.32 C340.53,692.8,340.16,692.77,339.89,692.76 C339.8,692.75,339.54,692.72,339.46,692.72 C339.38,692.71,339.3,692.7,339.3,692.59 C339.3,692.47,339.38,692.47,339.56,692.47 H340.04 C340.93,692.47,341.33,691.73,341.33,690.67 C341.33,689.19,340.58,688.87,340.1,688.87 C339.64,688.87,338.82,689.05,338.44,689.7 C338.82,689.64,339.16,689.88,339.16,690.3 C339.16,690.69,338.86,690.91,338.55,690.91 C338.29,690.91,337.94,690.75,337.94,690.28 C337.94,689.28,338.95,688.57,340.14,688.57 C341.46,688.57,342.46,689.56,342.46,690.67 C342.46,691.56,341.77,692.41,340.64,692.64 Z "
   stroke-width="0"
   fill="black"
   id="path7502" />
<path
   d="M357.4,699.32 L355.22,701.48 C355.09,701.61,355.07,701.63,354.98,701.63 C354.87,701.63,354.76,701.54,354.76,701.42 C354.76,701.34,354.78,701.32,354.9,701.2 L357.08,699.01 L354.9,696.82 C354.78,696.7,354.76,696.68,354.76,696.6 C354.76,696.48,354.87,696.39,354.98,696.39 C355.07,696.39,355.09,696.41,355.22,696.54 L357.39,698.71 L359.64,696.45 C359.66,696.44,359.74,696.39,359.8,696.39 C359.93,696.39,360.02,696.48,360.02,696.6 C360.02,696.62,360.02,696.67,359.99,696.72 C359.98,696.74,358.25,698.46,357.7,699.01 L359.7,701 C359.75,701.07,359.91,701.21,359.97,701.28 C359.98,701.3,360.02,701.34,360.02,701.42 C360.02,701.54,359.93,701.63,359.8,701.63 C359.72,701.63,359.67,701.59,359.55,701.47 Z "
   stroke-width="0"
   fill="black"
   id="path7504" />
<path
   d="M365.51,699.86 V700.12 C365.51,702.88,366.86,703.27,367.41,703.27 C367.67,703.27,368.13,703.2,368.37,702.83 C368.21,702.83,367.77,702.83,367.77,702.34 C367.77,702,368.03,701.84,368.27,701.84 C368.45,701.84,368.77,701.94,368.77,702.36 C368.77,703.02,368.3,703.54,367.39,703.54 C366,703.54,364.53,702.14,364.53,699.73 C364.53,696.82,365.79,696.05,366.8,696.05 C368.01,696.05,369.05,697.07,369.05,698.51 C369.05,699.89,368.08,700.94,366.87,700.94 L366.86,700.69 C367.03,700.69,367.53,700.69,367.87,700.01 C368.07,699.61,368.07,699.05,368.07,698.52 C368.07,698,368.07,697.45,367.88,697.06 C367.55,696.41,367.05,696.35,366.8,696.35 H366.8 C366.12,696.35,365.79,697.01,365.73,697.17 C365.53,697.68,365.53,698.55,365.53,698.75 C365.53,699.6,365.88,700.69,366.86,700.69 L366.87,700.94 C366.13,700.94,365.73,700.38,365.51,699.86 Z "
   stroke-width="0"
   fill="black"
   id="path7506" />
<path
   d="M374.12,696.93 L374.12,696.91 L374.11,696.9 L374.11,696.88 L374.11,696.87 L374.1,696.83 L374.09,696.8 L374.08,696.76 L374.07,696.72 L374.07,696.69 L374.06,696.66 L374.06,696.64 L374.05,696.62 L374.05,696.61 L374.04,696.59 L374.04,696.58 L374.04,696.56 L374.04,696.55 L374.03,696.54 L374.03,696.52 L374.03,696.51 L374.03,696.5 L374.02,696.49 L374.02,696.48 L374.02,696.47 L374.02,696.47 L374.02,696.46 C374.02,696.27,374.17,696.17,374.34,696.17 C374.47,696.17,374.67,696.26,374.74,696.47 C374.75,696.49,374.88,697.01,374.95,697.28 L375.19,698.26 C375.25,698.5,375.32,698.74,375.37,698.99 C375.42,699.17,375.5,699.49,375.51,699.53 C375.68,699.87,376.25,700.86,377.29,700.86 C377.78,700.86,377.88,700.46,377.88,700.1 C377.88,699.83,377.8,699.52,377.71,699.2 L377.41,697.93 L377.19,697.1 C377.15,696.89,377.05,696.52,377.05,696.46 C377.05,696.27,377.2,696.17,377.36,696.17 C377.7,696.17,377.77,696.44,377.86,696.79 C378.01,697.4,378.41,698.99,378.51,699.41 C378.54,699.55,379.12,700.86,380.3,700.86 C380.77,700.86,380.89,700.49,380.89,700.1 C380.89,699.48,380.44,698.24,380.22,697.66 C380.12,697.4,380.08,697.28,380.08,697.06 C380.08,696.55,380.46,696.17,380.97,696.17 C381.99,696.17,382.39,697.76,382.39,697.84 C382.39,697.95,382.3,697.95,382.27,697.95 C382.16,697.95,382.16,697.92,382.1,697.76 C381.94,697.18,381.59,696.41,380.99,696.41 C380.81,696.41,380.73,696.52,380.73,696.77 C380.73,697.04,380.83,697.3,380.93,697.54 C381.13,698.11,381.59,699.32,381.59,699.94 C381.59,700.64,381.15,701.1,380.34,701.1 C379.52,701.1,378.97,700.62,378.56,700.04 C378.55,700.19,378.52,700.56,378.21,700.82 C377.94,701.05,377.59,701.1,377.32,701.1 C376.34,701.1,375.81,700.4,375.62,700.15 C375.57,700.77,375.11,701.1,374.62,701.1 C374.12,701.1,373.91,700.68,373.82,700.48 C373.62,700.1,373.48,699.46,373.48,699.42 C373.48,699.32,373.59,699.32,373.61,699.32 C373.72,699.32,373.73,699.33,373.79,699.57 C373.98,700.34,374.2,700.86,374.59,700.86 C374.76,700.86,374.93,700.77,374.93,700.36 C374.93,700.13,374.89,700.01,374.75,699.45 Z "
   stroke-width="0"
   fill="black"
   id="path7508" />
<path
   d="M389.4,699.32 L387.22,701.48 C387.09,701.61,387.07,701.63,386.98,701.63 C386.88,701.63,386.77,701.54,386.77,701.42 C386.77,701.34,386.79,701.32,386.91,701.2 L389.08,699.01 L386.91,696.82 C386.79,696.7,386.77,696.68,386.77,696.6 C386.77,696.48,386.88,696.39,386.98,696.39 C387.07,696.39,387.09,696.41,387.22,696.54 L389.39,698.71 L391.64,696.45 C391.67,696.44,391.74,696.39,391.81,696.39 C391.94,696.39,392.02,696.48,392.02,696.6 C392.02,696.62,392.02,696.67,391.99,696.72 C391.98,696.74,390.25,698.46,389.71,699.01 L391.7,701 C391.75,701.07,391.92,701.21,391.97,701.28 C391.98,701.3,392.02,701.34,392.02,701.42 C392.02,701.54,391.94,701.63,391.81,701.63 C391.72,701.63,391.68,701.59,391.56,701.47 Z "
   stroke-width="0"
   fill="black"
   id="path7510" />
<path
   d="M397.51,699.86 V700.12 C397.51,702.88,398.86,703.27,399.42,703.27 C399.68,703.27,400.14,703.2,400.38,702.83 C400.21,702.83,399.78,702.83,399.78,702.34 C399.78,702,400.04,701.84,400.28,701.84 C400.45,701.84,400.78,701.94,400.78,702.36 C400.78,703.02,400.3,703.54,399.39,703.54 C398,703.54,396.53,702.14,396.53,699.73 C396.53,696.82,397.79,696.05,398.81,696.05 C400.02,696.05,401.05,697.07,401.05,698.51 C401.05,699.89,400.08,700.94,398.87,700.94 L398.86,700.69 C399.04,700.69,399.54,700.69,399.87,700.01 C400.07,699.61,400.07,699.05,400.07,698.52 C400.07,698,400.07,697.45,399.89,697.06 C399.56,696.41,399.06,696.35,398.81,696.35 H398.81 C398.12,696.35,397.79,697.01,397.73,697.17 C397.53,697.68,397.53,698.55,397.53,698.75 C397.53,699.6,397.88,700.69,398.86,700.69 L398.87,700.94 C398.13,700.94,397.73,700.38,397.51,699.86 Z "
   stroke-width="0"
   fill="black"
   id="path7512" />
<path
   d="M406.12,696.93 L406.12,696.91 L406.12,696.9 L406.11,696.88 L406.11,696.87 L406.1,696.83 L406.09,696.8 L406.09,696.76 L406.08,696.72 L406.07,696.69 L406.06,696.66 L406.06,696.64 L406.05,696.62 L406.05,696.61 L406.05,696.59 L406.04,696.58 L406.04,696.56 L406.04,696.55 L406.04,696.54 L406.03,696.52 L406.03,696.51 L406.03,696.5 L406.03,696.49 L406.03,696.48 L406.03,696.47 L406.03,696.47 L406.02,696.46 C406.02,696.27,406.18,696.17,406.34,696.17 C406.47,696.17,406.67,696.26,406.74,696.47 C406.76,696.49,406.89,697.01,406.95,697.28 L407.19,698.26 C407.26,698.5,407.32,698.74,407.38,698.99 C407.42,699.17,407.51,699.49,407.52,699.53 C407.68,699.87,408.26,700.86,409.29,700.86 C409.78,700.86,409.88,700.46,409.88,700.1 C409.88,699.83,409.8,699.52,409.72,699.2 L409.41,697.93 L409.19,697.1 C409.15,696.89,409.05,696.52,409.05,696.46 C409.05,696.27,409.2,696.17,409.37,696.17 C409.71,696.17,409.77,696.44,409.86,696.79 C410.01,697.4,410.41,698.99,410.51,699.41 C410.54,699.55,411.12,700.86,412.31,700.86 C412.78,700.86,412.9,700.49,412.9,700.1 C412.9,699.48,412.44,698.24,412.22,697.66 C412.12,697.4,412.08,697.28,412.08,697.06 C412.08,696.55,412.46,696.17,412.97,696.17 C414,696.17,414.4,697.76,414.4,697.84 C414.4,697.95,414.3,697.95,414.27,697.95 C414.16,697.95,414.16,697.92,414.11,697.76 C413.94,697.18,413.59,696.41,412.99,696.41 C412.81,696.41,412.73,696.52,412.73,696.77 C412.73,697.04,412.83,697.3,412.93,697.54 C413.14,698.11,413.59,699.32,413.59,699.94 C413.59,700.64,413.16,701.1,412.34,701.1 C411.52,701.1,410.97,700.62,410.57,700.04 C410.55,700.19,410.52,700.56,410.22,700.82 C409.95,701.05,409.6,701.1,409.32,701.1 C408.34,701.1,407.81,700.4,407.63,700.15 C407.57,700.77,407.11,701.1,406.62,701.1 C406.12,701.1,405.92,700.68,405.82,700.48 C405.62,700.1,405.48,699.46,405.48,699.42 C405.48,699.32,405.59,699.32,405.61,699.32 C405.72,699.32,405.73,699.33,405.8,699.57 C405.98,700.34,406.2,700.86,406.59,700.86 C406.77,700.86,406.93,700.77,406.93,700.36 C406.93,700.13,406.9,700.01,406.76,699.45 Z "
   stroke-width="0"
   fill="black"
   id="path7514" />
<polygon
   points="417.16,686.58 414.89,686.58 414.89,685.98 417.76,685.98 417.76,712.11 414.89,712.11 414.89,711.51 417.16,711.51 "
   stroke-width="0"
   fill="black"
   id="polygon7516" />
</g>    <g
       ns0:preamble="/home/nholtz/work/share/config/inkscape/extensions/amspreamble.tex"
       ns0:text="\\[\nf_{11} = \\frac{120~m^3}{EI_0}\n\\]\n"
       word-spacing="normal"
       letter-spacing="normal"
       font-size-adjust="none"
       font-stretch="normal"
       font-weight="normal"
       font-variant="normal"
       font-style="normal"
       stroke-miterlimit="10.433"
       xml:space="preserve"
       transform="matrix(1.1,0,0,-1.1,-68.1308,1177.9126)"
       id="g7706"
       style="font-style:normal;font-variant:normal;font-weight:normal;font-stretch:normal;letter-spacing:normal;word-spacing:normal;text-anchor:start;fill:none;stroke:#000000;stroke-linecap:butt;stroke-linejoin:miter;stroke-miterlimit:10.43299961;stroke-opacity:1;stroke-dasharray:none;stroke-dashoffset:0">
<path
   id="path7708"
   d="M 157.07,699.99 H 158 c 0.22,0 0.33,0 0.33,0.21 0,0.12 -0.11,0.12 -0.29,0.12 h -0.91 l 0.23,1.25 c 0.04,0.22 0.2,1 0.26,1.13 0.1,0.21 0.28,0.37 0.51,0.37 0.05,0 0.33,0 0.54,-0.2 -0.48,-0.04 -0.59,-0.42 -0.59,-0.59 0,-0.25 0.2,-0.38 0.4,-0.38 0.29,0 0.6,0.24 0.6,0.66 0,0.5 -0.5,0.75 -0.95,0.75 -0.37,0 -1.05,-0.2 -1.38,-1.28 -0.06,-0.23 -0.1,-0.33 -0.36,-1.71 h -0.75 c -0.21,0 -0.33,0 -0.33,-0.2 0,-0.13 0.1,-0.13 0.31,-0.13 h 0.72 l -0.82,-4.31 c -0.2,-1.05 -0.38,-2.04 -0.95,-2.04 -0.04,0 -0.31,0 -0.52,0.19 0.5,0.04 0.6,0.43 0.6,0.59 0,0.25 -0.2,0.38 -0.4,0.38 -0.29,0 -0.6,-0.24 -0.6,-0.65 0,-0.49 0.48,-0.75 0.92,-0.75 0.6,0 1.04,0.64 1.23,1.06 0.35,0.68 0.6,2 0.61,2.07 z"
   inkscape:connector-curvature="0"
   style="fill:#000000;stroke-width:0" />
<path
   id="path7710"
   d="m 160.91,699.06 0,0.01 0,0.01 0,0.01 0,0 0,0.01 0,0.01 0,0.01 0,0.01 0,0.01 0,0 0,0.01 0,0.01 0,0 0,0.01 0,0.01 0,0 -0.01,0.01 0,0 0,0.01 0,0 0,0.01 -0.01,0.01 0,0.01 0,0.01 -0.01,0 0,0.01 -0.01,0 -0.01,0.01 0,0 -0.01,0.01 -0.01,0 -0.01,0 -0.01,0 -0.01,0.01 -0.01,0 -0.01,0 0,0 -0.01,0 -0.01,0 0,0 -0.01,0 -0.01,0 -0.01,0 0,0 -0.01,0 -0.01,0 -0.01,0 -0.01,0 -0.01,0 -0.01,0 c -0.33,-0.32 -0.75,-0.51 -1.5,-0.51 v -0.26 c 0.21,0 0.64,0 1.1,0.21 v -4.07 c 0,-0.3 -0.02,-0.39 -0.78,-0.39 h -0.28 v -0.27 c 0.33,0.03 1.02,0.03 1.37,0.03 0.36,0 1.05,0 1.38,-0.03 v 0.27 h -0.28 c -0.76,0 -0.78,0.09 -0.78,0.39 z"
   inkscape:connector-curvature="0"
   style="fill:#000000;stroke-width:0" />
<path
   id="path7712"
   d="m 165.15,699.06 0,0.01 0,0.01 0,0.01 0,0 0,0.01 0,0.01 0,0.01 -0.01,0.01 0,0.01 0,0 0,0.01 0,0.01 0,0 0,0.01 0,0.01 0,0 0,0.01 0,0 0,0.01 0,0 -0.01,0.01 0,0.01 0,0.01 -0.01,0.01 0,0 -0.01,0.01 0,0 -0.01,0.01 -0.01,0 -0.01,0.01 -0.01,0 -0.01,0 -0.01,0 -0.01,0.01 0,0 -0.01,0 -0.01,0 0,0 -0.01,0 -0.01,0 -0.01,0 0,0 -0.01,0 -0.01,0 -0.01,0 -0.01,0 -0.01,0 -0.01,0 -0.01,0 -0.01,0 c -0.32,-0.32 -0.74,-0.51 -1.5,-0.51 v -0.26 c 0.22,0 0.64,0 1.11,0.21 v -4.07 c 0,-0.3 -0.03,-0.39 -0.78,-0.39 h -0.28 v -0.27 c 0.33,0.03 1.01,0.03 1.37,0.03 0.36,0 1.05,0 1.37,-0.03 v 0.27 h -0.27 c -0.76,0 -0.78,0.09 -0.78,0.39 z"
   inkscape:connector-curvature="0"
   style="fill:#000000;stroke-width:0" />
<path
   id="path7714"
   d="m 177.89,699.19 0.03,0 0.03,0 0.03,0 0.02,0 0.02,0 0.01,0.01 0.02,0 0.01,0 0.02,0 0.01,0.01 0.02,0 0.01,0 0.02,0.01 0.01,0 0.01,0.01 0.01,0.01 0.02,0 0.01,0.01 0.01,0.01 0.01,0.01 0.01,0.01 0,0.01 0,0 0.01,0.01 0,0.01 0,0 0.01,0.01 0,0.01 0,0.01 0,0 0,0.01 0.01,0.01 0,0.01 0,0.01 0,0.01 0,0.01 0,0.01 c 0,0.22 -0.21,0.22 -0.36,0.22 h -6.52 c -0.15,0 -0.36,0 -0.36,-0.22 0,-0.22 0.21,-0.22 0.37,-0.22 z"
   inkscape:connector-curvature="0"
   style="fill:#000000;stroke-width:0" />
<path
   id="path7716"
   d="m 177.9,697.08 0.01,0 0.02,0 0.03,0 0.03,0 0.02,0 0.01,0 0.02,0 0.01,0.01 0.02,0 0.01,0 0.02,0 0.01,0.01 0.01,0 0.02,0.01 0.01,0 0.01,0.01 0.02,0 0.01,0.01 0.01,0.01 0.01,0.01 0.01,0.01 0,0.01 0.01,0 0,0.01 0,0 0.01,0.01 0,0.01 0,0 0.01,0.01 0,0.01 0,0.01 0,0 0,0.01 0.01,0.01 0,0.01 0,0.01 0,0.01 0,0.01 0,0.01 c 0,0.22 -0.21,0.22 -0.37,0.22 h -6.5 c -0.16,0 -0.37,0 -0.37,-0.22 0,-0.22 0.21,-0.22 0.36,-0.22 z"
   inkscape:connector-curvature="0"
   style="fill:#000000;stroke-width:0" />
<path
   id="path7718"
   d="m 186.32,709.98 0,0.01 0,0.01 0,0.02 0,0.01 0,0.01 0,0.01 0,0.01 0,0.01 0,0.01 0,0.01 0,0 0,0.01 0,0.01 0,0.01 0,0.01 0,0 0,0.01 -0.01,0.01 0,0.01 0,0.01 0,0.01 -0.01,0.01 0,0.01 -0.01,0.01 0,0.01 -0.01,0.01 0,0 -0.01,0.01 -0.01,0 -0.01,0.01 -0.01,0 0,0 -0.01,0 0,0 -0.01,0 -0.01,0.01 0,0 -0.01,0 -0.01,0 0,0 -0.01,0 -0.01,0 -0.01,0 -0.01,0 -0.01,0 -0.01,0 -0.01,0 -0.01,0 -0.01,0 -0.01,0 -0.01,0 -0.01,0 c -0.67,-0.69 -1.63,-0.69 -1.98,-0.69 v -0.34 c 0.22,0 0.86,0 1.42,0.28 v -5.64 c 0,-0.39 -0.03,-0.52 -1.01,-0.52 h -0.35 v -0.34 c 0.39,0.03 1.33,0.03 1.77,0.03 0.43,0 1.38,0 1.76,-0.03 v 0.34 h -0.35 c -0.98,0 -1.01,0.12 -1.01,0.52 z"
   inkscape:connector-curvature="0"
   style="fill:#000000;stroke-width:0" />
<path
   id="path7720"
   d="m 189.96,703.85 1.15,1.12 c 1.7,1.5 2.35,2.09 2.35,3.18 0,1.24 -0.98,2.11 -2.31,2.11 -1.23,0 -2.03,-1 -2.03,-1.97 0,-0.61 0.54,-0.61 0.58,-0.61 0.18,0 0.56,0.13 0.56,0.58 0,0.28 -0.19,0.57 -0.58,0.57 -0.08,0 -0.11,0 -0.14,-0.01 0.25,0.7 0.84,1.1 1.47,1.1 0.99,0 1.46,-0.88 1.46,-1.77 0,-0.87 -0.54,-1.73 -1.14,-2.41 l -2.09,-2.33 c -0.12,-0.12 -0.12,-0.14 -0.12,-0.4 h 4.04 l 0.3,1.9 h -0.27 c -0.05,-0.33 -0.13,-0.81 -0.24,-0.97 -0.07,-0.09 -0.79,-0.09 -1.03,-0.09 z"
   inkscape:connector-curvature="0"
   style="fill:#000000;stroke-width:0" />
<path
   id="path7722"
   d="m 199.04,706.49 0,0.17 -0.01,0.16 0,0.16 -0.01,0.17 -0.01,0.16 -0.01,0.16 -0.02,0.16 -0.02,0.16 -0.02,0.16 -0.03,0.16 -0.04,0.16 -0.04,0.16 -0.05,0.15 -0.05,0.16 -0.06,0.15 -0.03,0.08 -0.04,0.07 c -0.5,1.05 -1.39,1.22 -1.85,1.22 -0.65,0 -1.45,-0.28 -1.89,-1.29 -0.35,-0.75 -0.41,-1.6 -0.41,-2.48 0,-0.81 0.05,-1.79 0.49,-2.62 0.47,-0.88 1.27,-1.1 1.8,-1.1 v 0.24 c -0.42,0 -1.07,0.27 -1.26,1.32 -0.12,0.65 -0.12,1.65 -0.12,2.3 0,0.69 0,1.41 0.08,2 0.21,1.29 1.03,1.39 1.3,1.39 0.36,0 1.08,-0.19 1.28,-1.27 0.11,-0.61 0.11,-1.44 0.11,-2.12 0,-0.82 0,-1.56 -0.12,-2.26 -0.16,-1.03 -0.78,-1.36 -1.27,-1.36 h 0 v -0.24 c 0.59,0 1.41,0.23 1.89,1.26 0.35,0.76 0.41,1.61 0.41,2.46 z"
   inkscape:connector-curvature="0"
   style="fill:#000000;stroke-width:0" />
<path
   id="path7724"
   d="m 204.08,703.65 -0.01,-0.01 0,-0.02 0,-0.01 -0.01,-0.02 0,-0.04 -0.01,-0.03 -0.01,-0.04 -0.01,-0.03 -0.01,-0.04 0,-0.03 -0.01,-0.02 0,-0.01 -0.01,-0.02 0,-0.02 0,-0.01 0,-0.01 -0.01,-0.02 0,-0.01 0,-0.01 0,-0.02 -0.01,-0.01 0,-0.01 0,0 0,-0.01 0,-0.01 0,-0.01 c 0,-0.19 0.15,-0.29 0.31,-0.29 0.14,0 0.33,0.09 0.41,0.31 0.01,0.02 0.14,0.53 0.2,0.8 l 0.24,0.98 c 0.07,0.24 0.13,0.48 0.19,0.73 0.04,0.19 0.13,0.5 0.14,0.55 0.16,0.33 0.74,1.32 1.78,1.32 0.49,0 0.58,-0.4 0.58,-0.76 0,-0.27 -0.07,-0.58 -0.16,-0.9 l -0.3,-1.26 -0.22,-0.83 c -0.05,-0.22 -0.14,-0.59 -0.14,-0.65 0,-0.19 0.15,-0.29 0.31,-0.29 0.34,0 0.41,0.27 0.49,0.62 0.15,0.61 0.56,2.2 0.65,2.63 0.04,0.14 0.61,1.44 1.8,1.44 0.47,0 0.59,-0.37 0.59,-0.76 0,-0.62 -0.46,-1.86 -0.67,-2.44 -0.1,-0.26 -0.15,-0.38 -0.15,-0.6 0,-0.51 0.38,-0.89 0.9,-0.89 1.02,0 1.42,1.59 1.42,1.68 0,0.11 -0.1,0.11 -0.13,0.11 -0.11,0 -0.11,-0.04 -0.16,-0.2 -0.16,-0.58 -0.51,-1.35 -1.11,-1.35 -0.19,0 -0.26,0.11 -0.26,0.36 0,0.27 0.1,0.53 0.19,0.77 0.21,0.57 0.67,1.78 0.67,2.4 0,0.71 -0.44,1.16 -1.26,1.16 -0.81,0 -1.37,-0.48 -1.77,-1.05 -0.01,0.14 -0.04,0.51 -0.35,0.77 -0.27,0.23 -0.62,0.28 -0.89,0.28 -0.98,0 -1.52,-0.69 -1.7,-0.94 -0.06,0.62 -0.51,0.94 -1,0.94 -0.5,0 -0.71,-0.42 -0.81,-0.62 -0.19,-0.38 -0.34,-1.02 -0.34,-1.05 0,-0.11 0.11,-0.11 0.14,-0.11 0.1,0 0.11,0.01 0.18,0.25 0.19,0.77 0.4,1.29 0.79,1.29 0.18,0 0.34,-0.08 0.34,-0.5 0,-0.23 -0.03,-0.35 -0.17,-0.91 z"
   inkscape:connector-curvature="0"
   style="fill:#000000;stroke-width:0" />
<path
   id="path7726"
   d="m 214.71,709.62 0.06,0 0.06,0 0.05,-0.01 0.06,-0.01 0.05,-0.01 0.05,-0.01 0.05,-0.02 0.05,-0.02 0.04,-0.02 0.05,-0.03 0.04,-0.03 0.04,-0.03 0.04,-0.03 0.04,-0.03 0.04,-0.04 0.03,-0.04 0.03,-0.04 0.03,-0.05 0.03,-0.05 0.03,-0.04 0.02,-0.06 0.03,-0.05 0.02,-0.06 0.02,-0.06 0.01,-0.06 0.02,-0.06 0.01,-0.07 0.01,-0.07 0.01,-0.07 0,-0.07 0.01,-0.07 0,-0.08 c 0,-0.99 -0.57,-1.29 -0.99,-1.29 -0.44,0 -1.03,0.16 -1.31,0.58 0.29,0 0.48,0.18 0.48,0.45 0,0.25 -0.18,0.43 -0.43,0.43 -0.22,0 -0.44,-0.13 -0.44,-0.45 0,-0.75 0.81,-1.25 1.72,-1.25 1.06,0 1.8,0.73 1.8,1.53 0,0.66 -0.53,1.26 -1.34,1.44 0.63,0.22 1.1,0.76 1.1,1.4 0,0.63 -0.72,1.09 -1.55,1.09 -0.85,0 -1.49,-0.47 -1.49,-1.07 0,-0.29 0.2,-0.42 0.4,-0.42 0.25,0 0.41,0.17 0.41,0.4 0,0.3 -0.26,0.41 -0.43,0.42 0.33,0.43 0.95,0.46 1.09,0.46 0.21,0 0.81,-0.07 0.81,-0.88 0,-0.56 -0.23,-0.89 -0.34,-1.02 -0.24,-0.25 -0.42,-0.26 -0.91,-0.3 -0.15,0 -0.21,-0.01 -0.21,-0.12 0,-0.11 0.07,-0.11 0.2,-0.11 z"
   inkscape:connector-curvature="0"
   style="fill:#000000;stroke-width:0" />
<line
   id="line7728"
   y2="698.35999"
   x2="217.42999"
   y1="698.35999"
   x1="183.12"
   style="stroke-width:0.43599999" />
<path
   id="path7730"
   d="m 198.88,690.68 0,0.01 0,0.01 0.01,0.01 0,0.01 0.01,0.01 0,0.01 0.01,0.01 0,0.01 0,0.01 0.01,0.01 0,0 0,0.01 0,0 0,0.01 0.01,0 0,0.01 0,0 0,0.01 0,0 0,0 0,0.01 0,0 0,0 0,0 0,0.01 c 0,0.01 0,0.12 -0.13,0.12 -0.09,0 -0.12,-0.07 -0.14,-0.13 -0.71,-1.61 -1.11,-2.35 -2.97,-2.35 h -1.59 c -0.15,0 -0.17,0 -0.24,0.02 -0.11,0.01 -0.14,0.02 -0.14,0.1 0,0.04 0,0.06 0.05,0.26 l 0.74,2.97 h 1.08 c 0.93,0 0.93,-0.23 0.93,-0.5 0,-0.08 0,-0.21 -0.08,-0.54 -0.02,-0.05 -0.03,-0.08 -0.03,-0.12 0,-0.05 0.04,-0.12 0.14,-0.12 0.09,0 0.12,0.06 0.16,0.22 l 0.62,2.55 c 0,0.07 -0.05,0.12 -0.13,0.12 -0.1,0 -0.12,-0.07 -0.15,-0.2 -0.23,-0.82 -0.43,-1.07 -1.43,-1.07 h -1.02 l 0.65,2.62 c 0.1,0.38 0.11,0.43 0.59,0.43 h 1.54 c 1.33,0 1.65,-0.32 1.65,-1.21 0,-0.27 0,-0.29 -0.04,-0.58 0,-0.07 -0.01,-0.14 -0.01,-0.2 0,-0.05 0.03,-0.13 0.13,-0.13 0.12,0 0.13,0.07 0.15,0.27 l 0.22,1.89 c 0.03,0.29 -0.02,0.29 -0.3,0.29 h -5.5 c -0.21,0 -0.32,0 -0.32,-0.22 0,-0.11 0.1,-0.11 0.3,-0.11 0.41,0 0.71,0 0.71,-0.2 0,-0.05 0,-0.07 -0.05,-0.26 L 192.88,689 c -0.11,-0.43 -0.13,-0.52 -0.99,-0.52 -0.19,0 -0.31,0 -0.31,-0.2 0,-0.13 0.1,-0.13 0.31,-0.13 h 5.65 c 0.25,0 0.26,0.01 0.34,0.18 z"
   inkscape:connector-curvature="0"
   style="fill:#000000;stroke-width:0" />
<path
   id="path7732"
   d="m 203.93,694.75 0.01,0.03 0.01,0.04 0,0.03 0.01,0.03 0.01,0.03 0.01,0.03 0.01,0.02 0.01,0.03 0.02,0.02 0.01,0.03 0.01,0.02 0.02,0.02 0.02,0.02 0.01,0.01 0.02,0.02 0.03,0.01 0.02,0.02 0.03,0.01 0.03,0.01 0.03,0.01 0.04,0.01 0.02,0.01 0.02,0 0.02,0 0.02,0.01 0.02,0 0.03,0 0.02,0.01 0.02,0 0.03,0 0.03,0 0.02,0.01 0.03,0 0.03,0 0.03,0 0.04,0 0.03,0 0.03,0 0.04,0.01 0.03,0 0.04,0 0.04,0 0.04,0 c 0.26,0 0.35,0 0.35,0.2 0,0.14 -0.12,0.14 -0.17,0.14 -0.31,0 -1.12,-0.04 -1.43,-0.04 -0.33,0 -1.13,0.04 -1.45,0.04 -0.08,0 -0.22,0 -0.22,-0.22 0,-0.12 0.1,-0.12 0.31,-0.12 0.45,0 0.75,0 0.75,-0.21 0,-0.05 0,-0.08 -0.02,-0.17 L 201.57,689 c -0.1,-0.41 -0.14,-0.52 -1,-0.52 -0.25,0 -0.34,0 -0.34,-0.21 0,-0.12 0.13,-0.12 0.16,-0.12 0.32,0 1.11,0.03 1.43,0.03 0.32,0 1.13,-0.03 1.45,-0.03 0.09,0 0.22,0 0.22,0.2 0,0.13 -0.09,0.13 -0.32,0.13 -0.2,0 -0.26,0 -0.47,0.03 -0.23,0.02 -0.27,0.06 -0.27,0.18 0,0.09 0.02,0.18 0.04,0.25 z"
   inkscape:connector-curvature="0"
   style="fill:#000000;stroke-width:0" />
<path
   id="path7734"
   d="m 208.54,689.05 0,0.08 0,0.07 0,0.08 -0.01,0.07 0,0.07 0,0.07 0,0.07 -0.01,0.07 0,0.06 -0.01,0.07 -0.01,0.06 0,0.06 -0.02,0.12 -0.02,0.11 -0.02,0.11 -0.02,0.11 -0.03,0.1 -0.04,0.1 -0.03,0.1 -0.04,0.1 -0.04,0.1 -0.05,0.09 c -0.35,0.7 -1,0.88 -1.43,0.88 v -0.23 c 0.27,0 0.82,-0.13 0.98,-0.85 0.09,-0.44 0.09,-1.04 0.09,-1.58 0,-0.47 0,-1.18 -0.09,-1.63 -0.17,-0.83 -0.72,-0.94 -0.98,-0.94 h 0 c -0.27,0 -0.82,0.13 -0.99,0.96 -0.09,0.45 -0.09,1.2 -0.09,1.61 0,0.55 0,1.11 0.09,1.54 0.17,0.81 0.79,0.89 0.99,0.89 v 0.23 c -1.01,0 -1.37,-0.75 -1.48,-0.97 -0.29,-0.58 -0.31,-1.37 -0.31,-1.78 0,-0.53 0.03,-1.33 0.41,-1.97 0.36,-0.58 0.95,-0.74 1.38,-0.74 0.38,0 1.06,0.12 1.46,0.91 0.29,0.57 0.32,1.28 0.32,1.8 z"
   inkscape:connector-curvature="0"
   style="fill:#000000;stroke-width:0" />
</g>  </g>
</svg>
