<?xml version="1.0" encoding="UTF-8" standalone="no"?>
<!-- Created with Inkscape (http://www.inkscape.org/) -->

<svg
   xmlns:ns0="http://www.iki.fi/pav/software/textext/"
   xmlns:dc="http://purl.org/dc/elements/1.1/"
   xmlns:cc="http://creativecommons.org/ns#"
   xmlns:rdf="http://www.w3.org/1999/02/22-rdf-syntax-ns#"
   xmlns:svg="http://www.w3.org/2000/svg"
   xmlns="http://www.w3.org/2000/svg"
   xmlns:xlink="http://www.w3.org/1999/xlink"
   xmlns:sodipodi="http://sodipodi.sourceforge.net/DTD/sodipodi-0.dtd"
   xmlns:inkscape="http://www.inkscape.org/namespaces/inkscape"
   width="617.87616"
   height="149.28557"
   id="svg2"
   version="1.1"
   inkscape:version="0.92.4 (unknown)"
   sodipodi:docname="beam1-6.svg">
  <sodipodi:namedview
     id="base"
     pagecolor="#ffffff"
     bordercolor="#666666"
     borderopacity="1.0"
     inkscape:pageopacity="0.0"
     inkscape:pageshadow="2"
     inkscape:zoom="2.02"
     inkscape:cx="244.14447"
     inkscape:cy="62.123259"
     inkscape:document-units="in"
     inkscape:current-layer="layer1"
     showgrid="true"
     units="in"
     inkscape:window-width="1179"
     inkscape:window-height="979"
     inkscape:window-x="765"
     inkscape:window-y="42"
     inkscape:window-maximized="0"
     showguides="true"
     fit-margin-top="0.1"
     fit-margin-right="0.1"
     fit-margin-left="0.1"
     fit-margin-bottom="0.1">
    <inkscape:grid
       originy="0"
       originx="0"
       spacingy="9"
       spacingx="9"
       units="in"
       snapvisiblegridlinesonly="true"
       enabled="true"
       visible="true"
       empspacing="5"
       id="grid2985"
       type="xygrid" />
    <sodipodi:guide
       inkscape:locked="false"
       id="guide3042"
       orientation="0,765"
       position="-92.042192,-611.93538" />
    <sodipodi:guide
       inkscape:locked="false"
       id="guide3044"
       orientation="-990,0"
       position="672.95781,-611.93538" />
    <sodipodi:guide
       inkscape:locked="false"
       id="guide3046"
       orientation="0,-765"
       position="672.95781,378.06462" />
    <sodipodi:guide
       inkscape:locked="false"
       id="guide3048"
       orientation="990,0"
       position="-92.042192,378.06462" />
    <sodipodi:guide
       inkscape:locked="false"
       id="guide3050"
       orientation="0,765"
       position="627.95781,-566.93538" />
    <sodipodi:guide
       inkscape:locked="false"
       id="guide3052"
       orientation="-990,0"
       position="627.95781,288.06462" />
    <sodipodi:guide
       inkscape:locked="false"
       id="guide3054"
       orientation="0,-765"
       position="-29.042192,288.06462" />
    <sodipodi:guide
       inkscape:locked="false"
       id="guide3056"
       orientation="990,0"
       position="-2.0421915,315.06462" />
  </sodipodi:namedview>
  <script
     xlink:href=""
     id="script3033" />
  <defs
     id="defs4" />
  <metadata
     id="metadata7">
    <rdf:RDF>
      <cc:Work
         rdf:about="">
        <dc:format>image/svg+xml</dc:format>
        <dc:type
           rdf:resource="http://purl.org/dc/dcmitype/StillImage" />
        <dc:title />
        <cc:license
           rdf:resource="http://creativecommons.org/licenses/by-nc/3.0/" />
      </cc:Work>
      <cc:License
         rdf:about="http://creativecommons.org/licenses/by-nc/3.0/">
        <cc:permits
           rdf:resource="http://creativecommons.org/ns#Reproduction" />
        <cc:permits
           rdf:resource="http://creativecommons.org/ns#Distribution" />
        <cc:requires
           rdf:resource="http://creativecommons.org/ns#Notice" />
        <cc:requires
           rdf:resource="http://creativecommons.org/ns#Attribution" />
        <cc:prohibits
           rdf:resource="http://creativecommons.org/ns#CommercialUse" />
        <cc:permits
           rdf:resource="http://creativecommons.org/ns#DerivativeWorks" />
      </cc:License>
    </rdf:RDF>
  </metadata>
  <g
     inkscape:label="Layer 1"
     inkscape:groupmode="layer"
     id="layer1"
     transform="translate(-92.042192,-291.14105)">
    <g
       id="g3276"
       transform="translate(-24)">
      <path
         transform="translate(0,62.362)"
         inkscape:connector-curvature="0"
         id="path3226"
         d="m 207,270 h 54 v -18 z"
         style="fill:#cccccc;fill-opacity:1;fill-rule:nonzero;stroke:#4d4d4d;stroke-width:0.75;stroke-linecap:square;stroke-linejoin:miter;stroke-miterlimit:4;stroke-dasharray:0.75, 0.75;stroke-dashoffset:0;stroke-opacity:1" />
      <text
         id="text3248"
         y="311.76794"
         x="247.17822"
         style="font-style:normal;font-variant:normal;font-weight:normal;font-stretch:normal;line-height:0%;font-family:Verdana;-inkscape-font-specification:Sans;text-align:start;letter-spacing:0px;word-spacing:0px;writing-mode:lr-tb;text-anchor:start;fill:#000000;fill-opacity:1;stroke:none"
         xml:space="preserve"><tspan
           style="font-size:9px;line-height:1.25"
           y="311.76794"
           x="247.17822"
           id="tspan3250"
           sodipodi:role="line">+6m</tspan></text>
      <text
         id="text3252"
         y="341.01547"
         x="232.17822"
         style="font-style:normal;font-variant:normal;font-weight:normal;font-stretch:normal;line-height:0%;font-family:Verdana;-inkscape-font-specification:Sans;text-align:start;letter-spacing:0px;word-spacing:0px;writing-mode:lr-tb;text-anchor:start;fill:#000000;fill-opacity:1;stroke:none"
         xml:space="preserve"><tspan
           style="font-size:9px;line-height:1.25"
           y="341.01547"
           x="232.17822"
           id="tspan3254"
           sodipodi:role="line">8m</tspan></text>
      <path
         style="fill:#cccccc;fill-opacity:1;fill-rule:nonzero;stroke:#4d4d4d;stroke-width:0.75;stroke-linecap:square;stroke-linejoin:miter;stroke-miterlimit:4;stroke-dasharray:0.75, 0.75;stroke-dashoffset:0;stroke-opacity:1"
         d="m 269,332.362 h 54 v -18 z"
         id="path6602"
         inkscape:connector-curvature="0" />
      <text
         xml:space="preserve"
         style="font-style:normal;font-variant:normal;font-weight:normal;font-stretch:normal;line-height:0%;font-family:Verdana;-inkscape-font-specification:Sans;text-align:start;letter-spacing:0px;word-spacing:0px;writing-mode:lr-tb;text-anchor:start;fill:#000000;fill-opacity:1;stroke:none"
         x="309.17822"
         y="311.76794"
         id="text6604"><tspan
           style="font-size:9px;line-height:1.25"
           sodipodi:role="line"
           id="tspan6606"
           x="309.17822"
           y="311.76794">+6m</tspan></text>
    </g>
    <g
       transform="translate(153.987,-51.247528)"
       id="g3286">
      <path
         inkscape:connector-curvature="0"
         id="path3228"
         d="m 267,377.362 h -54 v -18 z"
         style="fill:#cccccc;fill-opacity:1;fill-rule:nonzero;stroke:#4d4d4d;stroke-width:0.75;stroke-linecap:square;stroke-linejoin:miter;stroke-miterlimit:4;stroke-dasharray:0.75, 0.75;stroke-dashoffset:0;stroke-opacity:1" />
      <text
         id="text3256"
         y="358.05508"
         x="214.9901"
         style="font-style:normal;font-variant:normal;font-weight:normal;font-stretch:normal;line-height:0%;font-family:Verdana;-inkscape-font-specification:Sans;text-align:start;letter-spacing:0px;word-spacing:0px;writing-mode:lr-tb;text-anchor:start;fill:#000000;fill-opacity:1;stroke:none"
         xml:space="preserve"><tspan
           style="font-size:9px;line-height:1.25"
           y="358.05508"
           x="214.9901"
           id="tspan3258"
           sodipodi:role="line">+6m</tspan></text>
      <text
         id="text3260"
         y="385.53033"
         x="231.43564"
         style="font-style:normal;font-variant:normal;font-weight:normal;font-stretch:normal;line-height:0%;font-family:Verdana;-inkscape-font-specification:Sans;text-align:start;letter-spacing:0px;word-spacing:0px;writing-mode:lr-tb;text-anchor:start;fill:#000000;fill-opacity:1;stroke:none"
         xml:space="preserve"><tspan
           style="font-size:9px;line-height:1.25"
           y="385.53033"
           x="231.43564"
           id="tspan3262"
           sodipodi:role="line">6m</tspan></text>
      <path
         style="fill:#cccccc;fill-opacity:1;fill-rule:nonzero;stroke:#4d4d4d;stroke-width:0.75;stroke-linecap:square;stroke-linejoin:miter;stroke-miterlimit:4;stroke-dasharray:0.75, 0.75;stroke-dashoffset:0;stroke-opacity:1"
         d="m 329,377.362 h -54 v -18 z"
         id="path6612"
         inkscape:connector-curvature="0" />
      <text
         xml:space="preserve"
         style="font-style:normal;font-variant:normal;font-weight:normal;font-stretch:normal;line-height:0%;font-family:Verdana;-inkscape-font-specification:Sans;text-align:start;letter-spacing:0px;word-spacing:0px;writing-mode:lr-tb;text-anchor:start;fill:#000000;fill-opacity:1;stroke:none"
         x="276.99011"
         y="358.05508"
         id="text6614"><tspan
           style="font-size:9px;line-height:1.25"
           sodipodi:role="line"
           id="tspan6616"
           x="276.99011"
           y="358.05508">+6m</tspan></text>
    </g>
    <g
       id="g245"
       style="stroke:#000000;stroke-opacity:1"
       ns0:jacobian_sqrt="1.283334"
       inkscapeversion="0.92.4"
       ns0:alignment="middle center"
       ns0:scale="0.875"
       ns0:preamble="/files/work/share/config/inkscape/extensions/textext/default_packages.tex"
       ns0:text="\\[\nf_{11} = {}\n\\]"
       ns0:pdfconverter="pdf2svg"
       ns0:texconverter="pdflatex"
       ns0:version="0.11.0"
       transform="matrix(1.283334,0.000000,0.000000,1.283334,-274.810267,134.846544)">
      <g
         style="stroke:#000000;stroke-opacity:1"
         id="surface1">
        <g
           id="g232"
           style="stroke:#000000;fill-opacity:1;stroke-opacity:1;fill:rgb(0%,0%,0%)">
          <path
             id="path230"
             transform="translate(292.323,146.72)"
             d="M 3.65625 -3.984375 L 4.515625 -3.984375 C 4.71875 -3.984375 4.8125 -3.984375 4.8125 -4.1875 C 4.8125 -4.296875 4.71875 -4.296875 4.546875 -4.296875 L 3.71875 -4.296875 L 3.921875 -5.4375 C 3.96875 -5.640625 4.109375 -6.34375 4.171875 -6.46875 C 4.25 -6.65625 4.421875 -6.8125 4.640625 -6.8125 C 4.671875 -6.8125 4.9375 -6.8125 5.125 -6.625 C 4.6875 -6.59375 4.578125 -6.234375 4.578125 -6.09375 C 4.578125 -5.859375 4.765625 -5.734375 4.953125 -5.734375 C 5.21875 -5.734375 5.5 -5.96875 5.5 -6.34375 C 5.5 -6.796875 5.046875 -7.03125 4.640625 -7.03125 C 4.296875 -7.03125 3.671875 -6.84375 3.375 -5.859375 C 3.3125 -5.65625 3.28125 -5.546875 3.046875 -4.296875 L 2.359375 -4.296875 C 2.15625 -4.296875 2.046875 -4.296875 2.046875 -4.109375 C 2.046875 -3.984375 2.140625 -3.984375 2.328125 -3.984375 L 2.984375 -3.984375 L 2.25 -0.046875 C 2.0625 0.921875 1.890625 1.828125 1.375 1.828125 C 1.328125 1.828125 1.09375 1.828125 0.890625 1.640625 C 1.359375 1.609375 1.453125 1.25 1.453125 1.109375 C 1.453125 0.875 1.265625 0.75 1.078125 0.75 C 0.8125 0.75 0.53125 0.984375 0.53125 1.359375 C 0.53125 1.796875 0.96875 2.046875 1.375 2.046875 C 1.921875 2.046875 2.328125 1.453125 2.5 1.078125 C 2.828125 0.453125 3.046875 -0.75 3.0625 -0.828125 Z M 3.65625 -3.984375 "
             style="stroke:#000000;stroke-width:0;stroke-opacity:1" />
        </g>
        <g
           id="g238"
           style="stroke:#000000;fill-opacity:1;stroke-opacity:1;fill:rgb(0%,0%,0%)">
          <path
             id="path234"
             transform="translate(297.201,148.214)"
             d="M 2.328125 -4.4375 C 2.328125 -4.625 2.328125 -4.625 2.125 -4.625 C 1.671875 -4.1875 1.046875 -4.1875 0.765625 -4.1875 L 0.765625 -3.9375 C 0.921875 -3.9375 1.390625 -3.9375 1.765625 -4.125 L 1.765625 -0.578125 C 1.765625 -0.34375 1.765625 -0.25 1.078125 -0.25 L 0.8125 -0.25 L 0.8125 0 C 0.9375 0 1.796875 -0.03125 2.046875 -0.03125 C 2.265625 -0.03125 3.140625 0 3.296875 0 L 3.296875 -0.25 L 3.03125 -0.25 C 2.328125 -0.25 2.328125 -0.34375 2.328125 -0.578125 Z M 2.328125 -4.4375 "
             style="stroke:#000000;stroke-width:0;stroke-opacity:1" />
          <path
             id="path236"
             transform="translate(301.172579,148.214)"
             d="M 2.328125 -4.4375 C 2.328125 -4.625 2.328125 -4.625 2.125 -4.625 C 1.671875 -4.1875 1.046875 -4.1875 0.765625 -4.1875 L 0.765625 -3.9375 C 0.921875 -3.9375 1.390625 -3.9375 1.765625 -4.125 L 1.765625 -0.578125 C 1.765625 -0.34375 1.765625 -0.25 1.078125 -0.25 L 0.8125 -0.25 L 0.8125 0 C 0.9375 0 1.796875 -0.03125 2.046875 -0.03125 C 2.265625 -0.03125 3.140625 0 3.296875 0 L 3.296875 -0.25 L 3.03125 -0.25 C 2.328125 -0.25 2.328125 -0.34375 2.328125 -0.578125 Z M 2.328125 -4.4375 "
             style="stroke:#000000;stroke-width:0;stroke-opacity:1" />
        </g>
        <g
           id="g242"
           style="stroke:#000000;fill-opacity:1;stroke-opacity:1;fill:rgb(0%,0%,0%)">
          <path
             id="path240"
             transform="translate(308.409,146.72)"
             d="M 6.84375 -3.265625 C 7 -3.265625 7.1875 -3.265625 7.1875 -3.453125 C 7.1875 -3.65625 7 -3.65625 6.859375 -3.65625 L 0.890625 -3.65625 C 0.75 -3.65625 0.5625 -3.65625 0.5625 -3.453125 C 0.5625 -3.265625 0.75 -3.265625 0.890625 -3.265625 Z M 6.859375 -1.328125 C 7 -1.328125 7.1875 -1.328125 7.1875 -1.53125 C 7.1875 -1.71875 7 -1.71875 6.84375 -1.71875 L 0.890625 -1.71875 C 0.75 -1.71875 0.5625 -1.71875 0.5625 -1.53125 C 0.5625 -1.328125 0.75 -1.328125 0.890625 -1.328125 Z M 6.859375 -1.328125 "
             style="stroke:#000000;stroke-width:0;stroke-opacity:1" />
        </g>
      </g>
    </g>
    <g
       id="g397"
       style="stroke:#000000;stroke-opacity:1"
       ns0:jacobian_sqrt="1.283334"
       inkscapeversion="0.92.4"
       ns0:alignment="middle center"
       ns0:scale="0.875"
       ns0:preamble="/files/work/share/config/inkscape/extensions/textext/default_packages.tex"
       ns0:text="\\[\n\\frac{1}{2EI_0}\\int {}\n\\]"
       ns0:pdfconverter="pdf2svg"
       ns0:texconverter="pdflatex"
       ns0:version="0.11.0"
       transform="matrix(1.283334,0.000000,0.000000,1.283334,-229.244129,130.228358)">
      <g
         style="stroke:#000000;stroke-opacity:1"
         id="g395">
        <g
           id="g371"
           style="stroke:#000000;fill-opacity:1;stroke-opacity:1;fill:rgb(0%,0%,0%)">
          <path
             id="path369"
             transform="translate(296.492,142.581)"
             d="M 2.9375 -6.375 C 2.9375 -6.625 2.9375 -6.640625 2.703125 -6.640625 C 2.078125 -6 1.203125 -6 0.890625 -6 L 0.890625 -5.6875 C 1.09375 -5.6875 1.671875 -5.6875 2.1875 -5.953125 L 2.1875 -0.78125 C 2.1875 -0.421875 2.15625 -0.3125 1.265625 -0.3125 L 0.953125 -0.3125 L 0.953125 0 C 1.296875 -0.03125 2.15625 -0.03125 2.5625 -0.03125 C 2.953125 -0.03125 3.828125 -0.03125 4.171875 0 L 4.171875 -0.3125 L 3.859375 -0.3125 C 2.953125 -0.3125 2.9375 -0.421875 2.9375 -0.78125 Z M 2.9375 -6.375 "
             style="stroke:#000000;stroke-width:0;stroke-opacity:1" />
        </g>
        <path
           id="path373"
           transform="matrix(1,0,0,-1,288.103,146.831)"
           d="M -0.0014375 -0.00103125 L 21.760281 -0.00103125 "
           style="stroke-linejoin:miter;stroke-opacity:1;stroke:#000000;stroke-linecap:butt;stroke-miterlimit:10;stroke-width:0.398;fill:none" />
        <g
           id="g377"
           style="stroke:#000000;fill-opacity:1;stroke-opacity:1;fill:rgb(0%,0%,0%)">
          <path
             id="path375"
             transform="translate(288.103,156.155)"
             d="M 1.265625 -0.765625 L 2.328125 -1.796875 C 3.875 -3.171875 4.46875 -3.703125 4.46875 -4.703125 C 4.46875 -5.84375 3.578125 -6.640625 2.359375 -6.640625 C 1.234375 -6.640625 0.5 -5.71875 0.5 -4.828125 C 0.5 -4.28125 1 -4.28125 1.03125 -4.28125 C 1.203125 -4.28125 1.546875 -4.390625 1.546875 -4.8125 C 1.546875 -5.0625 1.359375 -5.328125 1.015625 -5.328125 C 0.9375 -5.328125 0.921875 -5.328125 0.890625 -5.3125 C 1.109375 -5.96875 1.65625 -6.328125 2.234375 -6.328125 C 3.140625 -6.328125 3.5625 -5.515625 3.5625 -4.703125 C 3.5625 -3.90625 3.078125 -3.125 2.515625 -2.5 L 0.609375 -0.375 C 0.5 -0.265625 0.5 -0.234375 0.5 0 L 4.203125 0 L 4.46875 -1.734375 L 4.234375 -1.734375 C 4.171875 -1.4375 4.109375 -1 4 -0.84375 C 3.9375 -0.765625 3.28125 -0.765625 3.0625 -0.765625 Z M 1.265625 -0.765625 "
             style="stroke:#000000;stroke-width:0;stroke-opacity:1" />
        </g>
        <g
           id="g381"
           style="stroke:#000000;fill-opacity:1;stroke-opacity:1;fill:rgb(0%,0%,0%)">
          <path
             id="path379"
             transform="translate(293.084,156.155)"
             d="M 7.0625 -2.328125 C 7.078125 -2.375 7.109375 -2.4375 7.109375 -2.46875 C 7.109375 -2.46875 7.109375 -2.578125 6.984375 -2.578125 C 6.890625 -2.578125 6.875 -2.515625 6.859375 -2.453125 C 6.203125 -0.984375 5.84375 -0.3125 4.140625 -0.3125 L 2.6875 -0.3125 C 2.546875 -0.3125 2.515625 -0.3125 2.46875 -0.3125 C 2.359375 -0.328125 2.328125 -0.34375 2.328125 -0.421875 C 2.328125 -0.453125 2.328125 -0.46875 2.375 -0.640625 L 3.0625 -3.375 L 4.046875 -3.375 C 4.890625 -3.375 4.890625 -3.15625 4.890625 -2.90625 C 4.890625 -2.84375 4.890625 -2.71875 4.828125 -2.421875 C 4.8125 -2.375 4.796875 -2.34375 4.796875 -2.3125 C 4.796875 -2.265625 4.828125 -2.203125 4.921875 -2.203125 C 5 -2.203125 5.03125 -2.25 5.078125 -2.40625 L 5.640625 -4.734375 C 5.640625 -4.796875 5.59375 -4.84375 5.515625 -4.84375 C 5.4375 -4.84375 5.40625 -4.78125 5.390625 -4.671875 C 5.171875 -3.90625 5 -3.671875 4.078125 -3.671875 L 3.140625 -3.671875 L 3.734375 -6.078125 C 3.828125 -6.4375 3.84375 -6.46875 4.28125 -6.46875 L 5.6875 -6.46875 C 6.890625 -6.46875 7.203125 -6.1875 7.203125 -5.359375 C 7.203125 -5.125 7.203125 -5.109375 7.15625 -4.828125 C 7.15625 -4.78125 7.140625 -4.703125 7.140625 -4.65625 C 7.140625 -4.609375 7.171875 -4.53125 7.265625 -4.53125 C 7.375 -4.53125 7.390625 -4.59375 7.40625 -4.78125 L 7.609375 -6.515625 C 7.640625 -6.78125 7.59375 -6.78125 7.34375 -6.78125 L 2.296875 -6.78125 C 2.109375 -6.78125 2 -6.78125 2 -6.578125 C 2 -6.46875 2.09375 -6.46875 2.28125 -6.46875 C 2.65625 -6.46875 2.9375 -6.46875 2.9375 -6.296875 C 2.9375 -6.25 2.9375 -6.234375 2.875 -6.046875 L 1.5625 -0.78125 C 1.46875 -0.390625 1.453125 -0.3125 0.65625 -0.3125 C 0.484375 -0.3125 0.375 -0.3125 0.375 -0.125 C 0.375 0 0.46875 0 0.65625 0 L 5.828125 0 C 6.0625 0 6.078125 -0.015625 6.140625 -0.171875 Z M 7.0625 -2.328125 "
             style="stroke:#000000;stroke-width:0;stroke-opacity:1" />
        </g>
        <g
           id="g385"
           style="stroke:#000000;fill-opacity:1;stroke-opacity:1;fill:rgb(0%,0%,0%)">
          <path
             id="path383"
             transform="translate(301.016222,156.155)"
             d="M 3.734375 -6.046875 C 3.8125 -6.40625 3.84375 -6.5 4.640625 -6.5 C 4.875 -6.5 4.953125 -6.5 4.953125 -6.6875 C 4.953125 -6.8125 4.84375 -6.8125 4.8125 -6.8125 C 4.515625 -6.8125 3.78125 -6.78125 3.484375 -6.78125 C 3.1875 -6.78125 2.46875 -6.8125 2.15625 -6.8125 C 2.09375 -6.8125 1.96875 -6.8125 1.96875 -6.609375 C 1.96875 -6.5 2.046875 -6.5 2.25 -6.5 C 2.65625 -6.5 2.9375 -6.5 2.9375 -6.3125 C 2.9375 -6.265625 2.9375 -6.234375 2.90625 -6.15625 L 1.5625 -0.78125 C 1.46875 -0.40625 1.453125 -0.3125 0.65625 -0.3125 C 0.421875 -0.3125 0.34375 -0.3125 0.34375 -0.109375 C 0.34375 0 0.453125 0 0.484375 0 C 0.78125 0 1.5 -0.03125 1.796875 -0.03125 C 2.09375 -0.03125 2.828125 0 3.125 0 C 3.203125 0 3.328125 0 3.328125 -0.1875 C 3.328125 -0.3125 3.25 -0.3125 3.03125 -0.3125 C 2.84375 -0.3125 2.796875 -0.3125 2.609375 -0.328125 C 2.390625 -0.34375 2.359375 -0.390625 2.359375 -0.5 C 2.359375 -0.578125 2.375 -0.65625 2.390625 -0.734375 Z M 3.734375 -6.046875 "
             style="stroke:#000000;stroke-width:0;stroke-opacity:1" />
        </g>
        <g
           id="g389"
           style="stroke:#000000;fill-opacity:1;stroke-opacity:1;fill:rgb(0%,0%,0%)">
          <path
             id="path387"
             transform="translate(305.392,157.65)"
             d="M 3.59375 -2.21875 C 3.59375 -2.984375 3.5 -3.546875 3.1875 -4.03125 C 2.96875 -4.34375 2.53125 -4.625 1.984375 -4.625 C 0.359375 -4.625 0.359375 -2.71875 0.359375 -2.21875 C 0.359375 -1.71875 0.359375 0.140625 1.984375 0.140625 C 3.59375 0.140625 3.59375 -1.71875 3.59375 -2.21875 Z M 1.984375 -0.0625 C 1.65625 -0.0625 1.234375 -0.25 1.09375 -0.8125 C 1 -1.21875 1 -1.796875 1 -2.3125 C 1 -2.828125 1 -3.359375 1.09375 -3.734375 C 1.25 -4.28125 1.6875 -4.4375 1.984375 -4.4375 C 2.359375 -4.4375 2.71875 -4.203125 2.84375 -3.796875 C 2.953125 -3.421875 2.96875 -2.921875 2.96875 -2.3125 C 2.96875 -1.796875 2.96875 -1.28125 2.875 -0.84375 C 2.734375 -0.203125 2.265625 -0.0625 1.984375 -0.0625 Z M 1.984375 -0.0625 "
             style="stroke:#000000;stroke-width:0;stroke-opacity:1" />
        </g>
        <g
           id="g393"
           style="stroke:#000000;fill-opacity:1;stroke-opacity:1;fill:rgb(0%,0%,0%)">
          <path
             id="path391"
             transform="translate(312.717,135.761)"
             d="M 1.03125 21.703125 C 1.359375 21.6875 1.53125 21.46875 1.53125 21.21875 C 1.53125 20.890625 1.28125 20.71875 1.046875 20.71875 C 0.8125 20.71875 0.5625 20.875 0.5625 21.21875 C 0.5625 21.734375 1.0625 22.15625 1.671875 22.15625 C 3.1875 22.15625 3.75 19.8125 4.453125 16.921875 C 5.21875 13.78125 5.875 10.59375 6.40625 7.390625 C 6.78125 5.28125 7.140625 3.28125 7.484375 2 C 7.609375 1.5 7.9375 0.21875 8.328125 0.21875 C 8.640625 0.21875 8.890625 0.40625 8.9375 0.453125 C 8.609375 0.46875 8.4375 0.6875 8.4375 0.9375 C 8.4375 1.265625 8.6875 1.421875 8.90625 1.421875 C 9.15625 1.421875 9.40625 1.28125 9.40625 0.921875 C 9.40625 0.390625 8.859375 0 8.3125 0 C 7.5625 0 7 1.09375 6.453125 3.125 C 6.421875 3.234375 5.0625 8.234375 3.96875 14.75 C 3.703125 16.28125 3.421875 17.9375 3.09375 19.328125 C 2.90625 20.0625 2.453125 21.9375 1.640625 21.9375 C 1.28125 21.9375 1.046875 21.703125 1.03125 21.703125 Z M 1.03125 21.703125 "
             style="stroke:#000000;stroke-width:0;stroke-opacity:1" />
        </g>
      </g>
    </g>
    <g
       id="g578"
       style="stroke:#000000;stroke-opacity:1;fill-opacity:1"
       ns0:jacobian_sqrt="1.283334"
       inkscapeversion="0.92.4"
       ns0:alignment="middle center"
       ns0:scale="0.875"
       ns0:preamble="/files/work/share/config/inkscape/extensions/textext/default_packages.tex"
       ns0:text="\\[\n{}+\\frac{1}{EI_0}\\int {}\n\\]"
       ns0:pdfconverter="pdf2svg"
       ns0:texconverter="pdflatex"
       ns0:version="0.11.0"
       transform="matrix(1.283334,0.000000,0.000000,1.283334,-54.932354,128.980859)">
      <g
         style="stroke:#000000;stroke-opacity:1;fill-opacity:1"
         id="g576">
        <g
           id="g552"
           style="stroke:#000000;fill-opacity:1;stroke-opacity:1;fill:rgb(0%,0%,0%)">
          <path
             id="path550"
             transform="translate(285.524,149.321)"
             d="M 4.078125 -2.296875 L 6.859375 -2.296875 C 7 -2.296875 7.1875 -2.296875 7.1875 -2.5 C 7.1875 -2.6875 7 -2.6875 6.859375 -2.6875 L 4.078125 -2.6875 L 4.078125 -5.484375 C 4.078125 -5.625 4.078125 -5.8125 3.875 -5.8125 C 3.671875 -5.8125 3.671875 -5.625 3.671875 -5.484375 L 3.671875 -2.6875 L 0.890625 -2.6875 C 0.75 -2.6875 0.5625 -2.6875 0.5625 -2.5 C 0.5625 -2.296875 0.75 -2.296875 0.890625 -2.296875 L 3.671875 -2.296875 L 3.671875 0.5 C 3.671875 0.640625 3.671875 0.828125 3.875 0.828125 C 4.078125 0.828125 4.078125 0.640625 4.078125 0.5 Z M 4.078125 -2.296875 "
             style="stroke:#000000;stroke-width:0;stroke-opacity:1;fill-opacity:1" />
        </g>
        <g
           id="g556"
           style="stroke:#000000;fill-opacity:1;stroke-opacity:1;fill:rgb(0%,0%,0%)">
          <path
             id="path554"
             transform="translate(302.58,142.581)"
             d="M 2.9375 -6.375 C 2.9375 -6.625 2.9375 -6.640625 2.703125 -6.640625 C 2.078125 -6 1.203125 -6 0.890625 -6 L 0.890625 -5.6875 C 1.09375 -5.6875 1.671875 -5.6875 2.1875 -5.953125 L 2.1875 -0.78125 C 2.1875 -0.421875 2.15625 -0.3125 1.265625 -0.3125 L 0.953125 -0.3125 L 0.953125 0 C 1.296875 -0.03125 2.15625 -0.03125 2.5625 -0.03125 C 2.953125 -0.03125 3.828125 -0.03125 4.171875 0 L 4.171875 -0.3125 L 3.859375 -0.3125 C 2.953125 -0.3125 2.9375 -0.421875 2.9375 -0.78125 Z M 2.9375 -6.375 "
             style="stroke:#000000;stroke-width:0;stroke-opacity:1;fill-opacity:1" />
        </g>
        <path
           id="path558"
           transform="matrix(1,0,0,-1,296.682,146.831)"
           d="M 0.00159375 -0.00103125 L 16.778937 -0.00103125 "
           style="stroke-linejoin:miter;stroke-opacity:1;fill-opacity:1;stroke:#000000;stroke-linecap:butt;stroke-miterlimit:10;stroke-width:0.398;fill:none" />
        <g
           id="g562"
           style="stroke:#000000;fill-opacity:1;stroke-opacity:1;fill:rgb(0%,0%,0%)">
          <path
             id="path560"
             transform="translate(296.682,156.155)"
             d="M 7.0625 -2.328125 C 7.078125 -2.375 7.109375 -2.4375 7.109375 -2.46875 C 7.109375 -2.46875 7.109375 -2.578125 6.984375 -2.578125 C 6.890625 -2.578125 6.875 -2.515625 6.859375 -2.453125 C 6.203125 -0.984375 5.84375 -0.3125 4.140625 -0.3125 L 2.6875 -0.3125 C 2.546875 -0.3125 2.515625 -0.3125 2.46875 -0.3125 C 2.359375 -0.328125 2.328125 -0.34375 2.328125 -0.421875 C 2.328125 -0.453125 2.328125 -0.46875 2.375 -0.640625 L 3.0625 -3.375 L 4.046875 -3.375 C 4.890625 -3.375 4.890625 -3.15625 4.890625 -2.90625 C 4.890625 -2.84375 4.890625 -2.71875 4.828125 -2.421875 C 4.8125 -2.375 4.796875 -2.34375 4.796875 -2.3125 C 4.796875 -2.265625 4.828125 -2.203125 4.921875 -2.203125 C 5 -2.203125 5.03125 -2.25 5.078125 -2.40625 L 5.640625 -4.734375 C 5.640625 -4.796875 5.59375 -4.84375 5.515625 -4.84375 C 5.4375 -4.84375 5.40625 -4.78125 5.390625 -4.671875 C 5.171875 -3.90625 5 -3.671875 4.078125 -3.671875 L 3.140625 -3.671875 L 3.734375 -6.078125 C 3.828125 -6.4375 3.84375 -6.46875 4.28125 -6.46875 L 5.6875 -6.46875 C 6.890625 -6.46875 7.203125 -6.1875 7.203125 -5.359375 C 7.203125 -5.125 7.203125 -5.109375 7.15625 -4.828125 C 7.15625 -4.78125 7.140625 -4.703125 7.140625 -4.65625 C 7.140625 -4.609375 7.171875 -4.53125 7.265625 -4.53125 C 7.375 -4.53125 7.390625 -4.59375 7.40625 -4.78125 L 7.609375 -6.515625 C 7.640625 -6.78125 7.59375 -6.78125 7.34375 -6.78125 L 2.296875 -6.78125 C 2.109375 -6.78125 2 -6.78125 2 -6.578125 C 2 -6.46875 2.09375 -6.46875 2.28125 -6.46875 C 2.65625 -6.46875 2.9375 -6.46875 2.9375 -6.296875 C 2.9375 -6.25 2.9375 -6.234375 2.875 -6.046875 L 1.5625 -0.78125 C 1.46875 -0.390625 1.453125 -0.3125 0.65625 -0.3125 C 0.484375 -0.3125 0.375 -0.3125 0.375 -0.125 C 0.375 0 0.46875 0 0.65625 0 L 5.828125 0 C 6.0625 0 6.078125 -0.015625 6.140625 -0.171875 Z M 7.0625 -2.328125 "
             style="stroke:#000000;stroke-width:0;stroke-opacity:1;fill-opacity:1" />
        </g>
        <g
           id="g566"
           style="stroke:#000000;fill-opacity:1;stroke-opacity:1;fill:rgb(0%,0%,0%)">
          <path
             id="path564"
             transform="translate(304.614222,156.155)"
             d="M 3.734375 -6.046875 C 3.8125 -6.40625 3.84375 -6.5 4.640625 -6.5 C 4.875 -6.5 4.953125 -6.5 4.953125 -6.6875 C 4.953125 -6.8125 4.84375 -6.8125 4.8125 -6.8125 C 4.515625 -6.8125 3.78125 -6.78125 3.484375 -6.78125 C 3.1875 -6.78125 2.46875 -6.8125 2.15625 -6.8125 C 2.09375 -6.8125 1.96875 -6.8125 1.96875 -6.609375 C 1.96875 -6.5 2.046875 -6.5 2.25 -6.5 C 2.65625 -6.5 2.9375 -6.5 2.9375 -6.3125 C 2.9375 -6.265625 2.9375 -6.234375 2.90625 -6.15625 L 1.5625 -0.78125 C 1.46875 -0.40625 1.453125 -0.3125 0.65625 -0.3125 C 0.421875 -0.3125 0.34375 -0.3125 0.34375 -0.109375 C 0.34375 0 0.453125 0 0.484375 0 C 0.78125 0 1.5 -0.03125 1.796875 -0.03125 C 2.09375 -0.03125 2.828125 0 3.125 0 C 3.203125 0 3.328125 0 3.328125 -0.1875 C 3.328125 -0.3125 3.25 -0.3125 3.03125 -0.3125 C 2.84375 -0.3125 2.796875 -0.3125 2.609375 -0.328125 C 2.390625 -0.34375 2.359375 -0.390625 2.359375 -0.5 C 2.359375 -0.578125 2.375 -0.65625 2.390625 -0.734375 Z M 3.734375 -6.046875 "
             style="stroke:#000000;stroke-width:0;stroke-opacity:1;fill-opacity:1" />
        </g>
        <g
           id="g570"
           style="stroke:#000000;fill-opacity:1;stroke-opacity:1;fill:rgb(0%,0%,0%)">
          <path
             id="path568"
             transform="translate(308.99,157.65)"
             d="M 3.59375 -2.21875 C 3.59375 -2.984375 3.5 -3.546875 3.1875 -4.03125 C 2.96875 -4.34375 2.53125 -4.625 1.984375 -4.625 C 0.359375 -4.625 0.359375 -2.71875 0.359375 -2.21875 C 0.359375 -1.71875 0.359375 0.140625 1.984375 0.140625 C 3.59375 0.140625 3.59375 -1.71875 3.59375 -2.21875 Z M 1.984375 -0.0625 C 1.65625 -0.0625 1.234375 -0.25 1.09375 -0.8125 C 1 -1.21875 1 -1.796875 1 -2.3125 C 1 -2.828125 1 -3.359375 1.09375 -3.734375 C 1.25 -4.28125 1.6875 -4.4375 1.984375 -4.4375 C 2.359375 -4.4375 2.71875 -4.203125 2.84375 -3.796875 C 2.953125 -3.421875 2.96875 -2.921875 2.96875 -2.3125 C 2.96875 -1.796875 2.96875 -1.28125 2.875 -0.84375 C 2.734375 -0.203125 2.265625 -0.0625 1.984375 -0.0625 Z M 1.984375 -0.0625 "
             style="stroke:#000000;stroke-width:0;stroke-opacity:1;fill-opacity:1" />
        </g>
        <g
           id="g574"
           style="stroke:#000000;fill-opacity:1;stroke-opacity:1;fill:rgb(0%,0%,0%)">
          <path
             id="path572"
             transform="translate(316.315,135.761)"
             d="M 1.03125 21.703125 C 1.359375 21.6875 1.53125 21.46875 1.53125 21.21875 C 1.53125 20.890625 1.28125 20.71875 1.046875 20.71875 C 0.8125 20.71875 0.5625 20.875 0.5625 21.21875 C 0.5625 21.734375 1.0625 22.15625 1.671875 22.15625 C 3.1875 22.15625 3.75 19.8125 4.453125 16.921875 C 5.21875 13.78125 5.875 10.59375 6.40625 7.390625 C 6.78125 5.28125 7.140625 3.28125 7.484375 2 C 7.609375 1.5 7.9375 0.21875 8.328125 0.21875 C 8.640625 0.21875 8.890625 0.40625 8.9375 0.453125 C 8.609375 0.46875 8.4375 0.6875 8.4375 0.9375 C 8.4375 1.265625 8.6875 1.421875 8.90625 1.421875 C 9.15625 1.421875 9.40625 1.28125 9.40625 0.921875 C 9.40625 0.390625 8.859375 0 8.3125 0 C 7.5625 0 7 1.09375 6.453125 3.125 C 6.421875 3.234375 5.0625 8.234375 3.96875 14.75 C 3.703125 16.28125 3.421875 17.9375 3.09375 19.328125 C 2.90625 20.0625 2.453125 21.9375 1.640625 21.9375 C 1.28125 21.9375 1.046875 21.703125 1.03125 21.703125 Z M 1.03125 21.703125 "
             style="stroke:#000000;stroke-width:0;stroke-opacity:1;fill-opacity:1" />
        </g>
      </g>
    </g>
    <g
       id="g827"
       style="stroke:#000000;stroke-opacity:1"
       ns0:jacobian_sqrt="1.283334"
       inkscapeversion="0.92.4"
       ns0:alignment="middle center"
       ns0:scale="0.875"
       ns0:preamble="/files/work/share/config/inkscape/extensions/textext/default_packages.tex"
       ns0:text="\\begin{equation*}\nf_{11} =\n\\frac{1}{EI_0}\\left[\n\\frac{1}{2}\\times\\frac{8~m}{3}\\times6~m\\times 6~m\n+\n\\frac{6~m}{3}\\times6~m\\times 6~m\n\\right]\n\\end{equation*}\n\n"
       ns0:pdfconverter="pdf2svg"
       ns0:texconverter="pdflatex"
       ns0:version="0.11.0"
       transform="matrix(1.283334,0,0,1.283334,-133.62414,175.4245)">
      <g
         style="stroke:#000000;stroke-opacity:1"
         id="g825">
        <g
           id="g693"
           style="fill:#000000;fill-opacity:1;stroke:#000000;stroke-opacity:1">
          <path
             id="path691"
             transform="translate(182.895,150.207)"
             d="m 3.65625,-3.984375 h 0.859375 c 0.203125,0 0.296875,0 0.296875,-0.203125 0,-0.109375 -0.09375,-0.109375 -0.265625,-0.109375 H 3.71875 L 3.921875,-5.4375 c 0.046875,-0.203125 0.1875,-0.90625 0.25,-1.03125 0.078125,-0.1875 0.25,-0.34375 0.46875,-0.34375 0.03125,0 0.296875,0 0.484375,0.1875 -0.4375,0.03125 -0.546875,0.390625 -0.546875,0.53125 0,0.234375 0.1875,0.359375 0.375,0.359375 C 5.21875,-5.734375 5.5,-5.96875 5.5,-6.34375 c 0,-0.453125 -0.453125,-0.6875 -0.859375,-0.6875 -0.34375,0 -0.96875,0.1875 -1.265625,1.171875 -0.0625,0.203125 -0.09375,0.3125 -0.328125,1.5625 h -0.6875 c -0.203125,0 -0.3125,0 -0.3125,0.1875 0,0.125 0.09375,0.125 0.28125,0.125 h 0.65625 L 2.25,-0.046875 c -0.1875,0.96875 -0.359375,1.875 -0.875,1.875 -0.046875,0 -0.28125,0 -0.484375,-0.1875 C 1.359375,1.609375 1.453125,1.25 1.453125,1.109375 1.453125,0.875 1.265625,0.75 1.078125,0.75 0.8125,0.75 0.53125,0.984375 0.53125,1.359375 c 0,0.4375 0.4375,0.6875 0.84375,0.6875 0.546875,0 0.953125,-0.59375 1.125,-0.96875 0.328125,-0.625 0.546875,-1.828125 0.5625,-1.90625 z m 0,0"
             style="stroke:#000000;stroke-width:0;stroke-opacity:1"
             inkscape:connector-curvature="0" />
        </g>
        <g
           id="g699"
           style="fill:#000000;fill-opacity:1;stroke:#000000;stroke-opacity:1">
          <path
             id="path695"
             transform="translate(187.773,151.701)"
             d="m 2.328125,-4.4375 c 0,-0.1875 0,-0.1875 -0.203125,-0.1875 -0.453125,0.4375 -1.078125,0.4375 -1.359375,0.4375 v 0.25 c 0.15625,0 0.625,0 1,-0.1875 v 3.546875 c 0,0.234375 0,0.328125 -0.6875,0.328125 H 0.8125 V 0 c 0.125,0 0.984375,-0.03125 1.234375,-0.03125 0.21875,0 1.09375,0.03125 1.25,0.03125 V -0.25 H 3.03125 c -0.703125,0 -0.703125,-0.09375 -0.703125,-0.328125 z m 0,0"
             style="stroke:#000000;stroke-width:0;stroke-opacity:1"
             inkscape:connector-curvature="0" />
          <path
             id="path697"
             transform="translate(191.74458,151.701)"
             d="m 2.328125,-4.4375 c 0,-0.1875 0,-0.1875 -0.203125,-0.1875 -0.453125,0.4375 -1.078125,0.4375 -1.359375,0.4375 v 0.25 c 0.15625,0 0.625,0 1,-0.1875 v 3.546875 c 0,0.234375 0,0.328125 -0.6875,0.328125 H 0.8125 V 0 c 0.125,0 0.984375,-0.03125 1.234375,-0.03125 0.21875,0 1.09375,0.03125 1.25,0.03125 V -0.25 H 3.03125 c -0.703125,0 -0.703125,-0.09375 -0.703125,-0.328125 z m 0,0"
             style="stroke:#000000;stroke-width:0;stroke-opacity:1"
             inkscape:connector-curvature="0" />
        </g>
        <g
           id="g703"
           style="fill:#000000;fill-opacity:1;stroke:#000000;stroke-opacity:1">
          <path
             id="path701"
             transform="translate(198.981,150.207)"
             d="m 6.84375,-3.265625 c 0.15625,0 0.34375,0 0.34375,-0.1875 C 7.1875,-3.65625 7,-3.65625 6.859375,-3.65625 h -5.96875 c -0.140625,0 -0.328125,0 -0.328125,0.203125 0,0.1875 0.1875,0.1875 0.328125,0.1875 z m 0.015625,1.9375 c 0.140625,0 0.328125,0 0.328125,-0.203125 0,-0.1875 -0.1875,-0.1875 -0.34375,-0.1875 H 0.890625 c -0.140625,0 -0.328125,0 -0.328125,0.1875 0,0.203125 0.1875,0.203125 0.328125,0.203125 z m 0,0"
             style="stroke:#000000;stroke-width:0;stroke-opacity:1"
             inkscape:connector-curvature="0" />
        </g>
        <g
           id="g707"
           style="fill:#000000;fill-opacity:1;stroke:#000000;stroke-opacity:1">
          <path
             id="path705"
             transform="translate(216.591,143.467)"
             d="m 2.9375,-6.375 c 0,-0.25 0,-0.265625 -0.234375,-0.265625 C 2.078125,-6 1.203125,-6 0.890625,-6 v 0.3125 c 0.203125,0 0.78125,0 1.296875,-0.265625 v 5.171875 c 0,0.359375 -0.03125,0.46875 -0.921875,0.46875 h -0.3125 V 0 c 0.34375,-0.03125 1.203125,-0.03125 1.609375,-0.03125 0.390625,0 1.265625,0 1.609375,0.03125 v -0.3125 h -0.3125 c -0.90625,0 -0.921875,-0.109375 -0.921875,-0.46875 z m 0,0"
             style="stroke:#000000;stroke-width:0;stroke-opacity:1"
             inkscape:connector-curvature="0" />
        </g>
        <path
           id="path709"
           transform="matrix(1,0,0,-1,210.692,147.716)"
           d="M -5.9375e-4,0.00115625 H 16.77675"
           style="fill:none;stroke:#000000;stroke-width:0.398;stroke-linecap:butt;stroke-linejoin:miter;stroke-miterlimit:10;stroke-opacity:1"
           inkscape:connector-curvature="0" />
        <g
           id="g713"
           style="fill:#000000;fill-opacity:1;stroke:#000000;stroke-opacity:1">
          <path
             id="path711"
             transform="translate(210.692,157.041)"
             d="M 7.0625,-2.328125 C 7.078125,-2.375 7.109375,-2.4375 7.109375,-2.46875 c 0,0 0,-0.109375 -0.125,-0.109375 -0.09375,0 -0.109375,0.0625 -0.125,0.125 C 6.203125,-0.984375 5.84375,-0.3125 4.140625,-0.3125 H 2.6875 c -0.140625,0 -0.171875,0 -0.21875,0 -0.109375,-0.015625 -0.140625,-0.03125 -0.140625,-0.109375 0,-0.03125 0,-0.046875 0.046875,-0.21875 L 3.0625,-3.375 h 0.984375 c 0.84375,0 0.84375,0.21875 0.84375,0.46875 0,0.0625 0,0.1875 -0.0625,0.484375 C 4.8125,-2.375 4.796875,-2.34375 4.796875,-2.3125 c 0,0.046875 0.03125,0.109375 0.125,0.109375 C 5,-2.203125 5.03125,-2.25 5.078125,-2.40625 l 0.5625,-2.328125 c 0,-0.0625 -0.046875,-0.109375 -0.125,-0.109375 -0.078125,0 -0.109375,0.0625 -0.125,0.171875 -0.21875,0.765625 -0.390625,1 -1.3125,1 h -0.9375 l 0.59375,-2.40625 C 3.828125,-6.4375 3.84375,-6.46875 4.28125,-6.46875 H 5.6875 c 1.203125,0 1.515625,0.28125 1.515625,1.109375 0,0.234375 0,0.25 -0.046875,0.53125 0,0.046875 -0.015625,0.125 -0.015625,0.171875 0,0.046875 0.03125,0.125 0.125,0.125 0.109375,0 0.125,-0.0625 0.140625,-0.25 L 7.609375,-6.515625 C 7.640625,-6.78125 7.59375,-6.78125 7.34375,-6.78125 H 2.296875 c -0.1875,0 -0.296875,0 -0.296875,0.203125 0,0.109375 0.09375,0.109375 0.28125,0.109375 0.375,0 0.65625,0 0.65625,0.171875 0,0.046875 0,0.0625 -0.0625,0.25 L 1.5625,-0.78125 c -0.09375,0.390625 -0.109375,0.46875 -0.90625,0.46875 -0.171875,0 -0.28125,0 -0.28125,0.1875 C 0.375,0 0.46875,0 0.65625,0 h 5.171875 c 0.234375,0 0.25,-0.015625 0.3125,-0.171875 z m 0,0"
             style="stroke:#000000;stroke-width:0;stroke-opacity:1"
             inkscape:connector-curvature="0" />
        </g>
        <g
           id="g717"
           style="fill:#000000;fill-opacity:1;stroke:#000000;stroke-opacity:1">
          <path
             id="path715"
             transform="translate(218.62422,157.041)"
             d="M 3.734375,-6.046875 C 3.8125,-6.40625 3.84375,-6.5 4.640625,-6.5 c 0.234375,0 0.3125,0 0.3125,-0.1875 0,-0.125 -0.109375,-0.125 -0.140625,-0.125 -0.296875,0 -1.03125,0.03125 -1.328125,0.03125 -0.296875,0 -1.015625,-0.03125 -1.328125,-0.03125 -0.0625,0 -0.1875,0 -0.1875,0.203125 C 1.96875,-6.5 2.046875,-6.5 2.25,-6.5 c 0.40625,0 0.6875,0 0.6875,0.1875 0,0.046875 0,0.078125 -0.03125,0.15625 l -1.34375,5.375 c -0.09375,0.375 -0.109375,0.46875 -0.90625,0.46875 -0.234375,0 -0.3125,0 -0.3125,0.203125 C 0.34375,0 0.453125,0 0.484375,0 0.78125,0 1.5,-0.03125 1.796875,-0.03125 2.09375,-0.03125 2.828125,0 3.125,0 c 0.078125,0 0.203125,0 0.203125,-0.1875 0,-0.125 -0.078125,-0.125 -0.296875,-0.125 -0.1875,0 -0.234375,0 -0.421875,-0.015625 -0.21875,-0.015625 -0.25,-0.0625 -0.25,-0.171875 0,-0.078125 0.015625,-0.15625 0.03125,-0.234375 z m 0,0"
             style="stroke:#000000;stroke-width:0;stroke-opacity:1"
             inkscape:connector-curvature="0" />
        </g>
        <g
           id="g721"
           style="fill:#000000;fill-opacity:1;stroke:#000000;stroke-opacity:1">
          <path
             id="path719"
             transform="translate(223,158.535)"
             d="M 3.59375,-2.21875 C 3.59375,-2.984375 3.5,-3.546875 3.1875,-4.03125 2.96875,-4.34375 2.53125,-4.625 1.984375,-4.625 c -1.625,0 -1.625,1.90625 -1.625,2.40625 0,0.5 0,2.359375 1.625,2.359375 1.609375,0 1.609375,-1.859375 1.609375,-2.359375 z M 1.984375,-0.0625 c -0.328125,0 -0.75,-0.1875 -0.890625,-0.75 C 1,-1.21875 1,-1.796875 1,-2.3125 1,-2.828125 1,-3.359375 1.09375,-3.734375 1.25,-4.28125 1.6875,-4.4375 1.984375,-4.4375 c 0.375,0 0.734375,0.234375 0.859375,0.640625 0.109375,0.375 0.125,0.875 0.125,1.484375 0,0.515625 0,1.03125 -0.09375,1.46875 -0.140625,0.640625 -0.609375,0.78125 -0.890625,0.78125 z m 0,0"
             style="stroke:#000000;stroke-width:0;stroke-opacity:1"
             inkscape:connector-curvature="0" />
        </g>
        <g
           id="g725"
           style="fill:#000000;fill-opacity:1;stroke:#000000;stroke-opacity:1">
          <path
             id="path723"
             transform="translate(230.326,136.159)"
             d="M 2.5,23.515625 H 5.109375 V 22.96875 h -2.0625 V 0.15625 h 2.0625 v -0.5625 H 2.5 Z m 0,0"
             style="stroke:#000000;stroke-width:0;stroke-opacity:1"
             inkscape:connector-curvature="0" />
        </g>
        <g
           id="g729"
           style="fill:#000000;fill-opacity:1;stroke:#000000;stroke-opacity:1">
          <path
             id="path727"
             transform="translate(236.779,143.467)"
             d="m 2.9375,-6.375 c 0,-0.25 0,-0.265625 -0.234375,-0.265625 C 2.078125,-6 1.203125,-6 0.890625,-6 v 0.3125 c 0.203125,0 0.78125,0 1.296875,-0.265625 v 5.171875 c 0,0.359375 -0.03125,0.46875 -0.921875,0.46875 h -0.3125 V 0 c 0.34375,-0.03125 1.203125,-0.03125 1.609375,-0.03125 0.390625,0 1.265625,0 1.609375,0.03125 v -0.3125 h -0.3125 c -0.90625,0 -0.921875,-0.109375 -0.921875,-0.46875 z m 0,0"
             style="stroke:#000000;stroke-width:0;stroke-opacity:1"
             inkscape:connector-curvature="0" />
        </g>
        <path
           id="path731"
           transform="matrix(1,0,0,-1,236.779,147.716)"
           d="M -0.00165625,0.00115625 H 4.982719"
           style="fill:none;stroke:#000000;stroke-width:0.398;stroke-linecap:butt;stroke-linejoin:miter;stroke-miterlimit:10;stroke-opacity:1"
           inkscape:connector-curvature="0" />
        <g
           id="g735"
           style="fill:#000000;fill-opacity:1;stroke:#000000;stroke-opacity:1">
          <path
             id="path733"
             transform="translate(236.779,157.041)"
             d="m 1.265625,-0.765625 1.0625,-1.03125 c 1.546875,-1.375 2.140625,-1.90625 2.140625,-2.90625 0,-1.140625 -0.890625,-1.9375 -2.109375,-1.9375 -1.125,0 -1.859375,0.921875 -1.859375,1.8125 0,0.546875 0.5,0.546875 0.53125,0.546875 0.171875,0 0.515625,-0.109375 0.515625,-0.53125 0,-0.25 -0.1875,-0.515625 -0.53125,-0.515625 -0.078125,0 -0.09375,0 -0.125,0.015625 0.21875,-0.65625 0.765625,-1.015625 1.34375,-1.015625 0.90625,0 1.328125,0.8125 1.328125,1.625 C 3.5625,-3.90625 3.078125,-3.125 2.515625,-2.5 l -1.90625,2.125 C 0.5,-0.265625 0.5,-0.234375 0.5,0 H 4.203125 L 4.46875,-1.734375 H 4.234375 C 4.171875,-1.4375 4.109375,-1 4,-0.84375 3.9375,-0.765625 3.28125,-0.765625 3.0625,-0.765625 Z m 0,0"
             style="stroke:#000000;stroke-width:0;stroke-opacity:1"
             inkscape:connector-curvature="0" />
        </g>
        <g
           id="g739"
           style="fill:#000000;fill-opacity:1;stroke:#000000;stroke-opacity:1">
          <path
             id="path737"
             transform="translate(245.17,150.207)"
             d="M 3.875,-2.765625 1.890625,-4.75 C 1.765625,-4.875 1.75,-4.890625 1.671875,-4.890625 1.5625,-4.890625 1.46875,-4.8125 1.46875,-4.6875 c 0,0.0625 0.015625,0.078125 0.125,0.1875 l 2,2 -2,2.015625 c -0.109375,0.109375 -0.125,0.125 -0.125,0.1875 0,0.125 0.09375,0.203125 0.203125,0.203125 0.078125,0 0.09375,-0.015625 0.21875,-0.140625 L 3.875,-2.21875 l 2.0625,2.0625 c 0.015625,0.015625 0.078125,0.0625 0.140625,0.0625 0.125,0 0.203125,-0.078125 0.203125,-0.203125 0,-0.015625 0,-0.046875 -0.03125,-0.109375 C 6.234375,-0.421875 4.65625,-1.984375 4.15625,-2.5 l 1.828125,-1.8125 c 0.046875,-0.0625 0.203125,-0.1875 0.25,-0.25 0,-0.015625 0.046875,-0.0625 0.046875,-0.125 0,-0.125 -0.078125,-0.203125 -0.203125,-0.203125 C 6,-4.890625 5.96875,-4.859375 5.859375,-4.75 Z m 0,0"
             style="stroke:#000000;stroke-width:0;stroke-opacity:1"
             inkscape:connector-curvature="0" />
        </g>
        <g
           id="g743"
           style="fill:#000000;fill-opacity:1;stroke:#000000;stroke-opacity:1">
          <path
             id="path741"
             transform="translate(256.328,143.467)"
             d="m 1.625,-4.5625 c -0.453125,-0.296875 -0.5,-0.625 -0.5,-0.796875 0,-0.609375 0.65625,-1.03125 1.359375,-1.03125 0.71875,0 1.359375,0.515625 1.359375,1.234375 0,0.578125 -0.390625,1.046875 -0.984375,1.390625 z m 1.453125,0.953125 C 3.796875,-3.984375 4.28125,-4.5 4.28125,-5.15625 c 0,-0.921875 -0.875,-1.484375 -1.78125,-1.484375 -1,0 -1.8125,0.734375 -1.8125,1.671875 0,0.171875 0.015625,0.625 0.4375,1.09375 0.109375,0.109375 0.484375,0.359375 0.734375,0.53125 C 1.28125,-3.046875 0.421875,-2.5 0.421875,-1.5 c 0,1.046875 1.015625,1.71875 2.0625,1.71875 1.125,0 2.078125,-0.828125 2.078125,-1.890625 0,-0.359375 -0.109375,-0.8125 -0.5,-1.234375 C 3.875,-3.109375 3.71875,-3.203125 3.078125,-3.609375 Z m -1,0.421875 1.234375,0.78125 c 0.28125,0.1875 0.75,0.484375 0.75,1.09375 0,0.734375 -0.75,1.25 -1.5625,1.25 -0.859375,0 -1.578125,-0.609375 -1.578125,-1.4375 0,-0.578125 0.3125,-1.21875 1.15625,-1.6875 z m 0,0"
             style="stroke:#000000;stroke-width:0;stroke-opacity:1"
             inkscape:connector-curvature="0" />
        </g>
        <g
           id="g747"
           style="fill:#000000;fill-opacity:1;stroke:#000000;stroke-opacity:1">
          <path
             id="path745"
             transform="translate(264.63,143.467)"
             d="m 0.875,-0.59375 c -0.03125,0.15625 -0.09375,0.390625 -0.09375,0.4375 0,0.171875 0.140625,0.265625 0.296875,0.265625 0.125,0 0.296875,-0.078125 0.375,-0.28125 0,-0.015625 0.125,-0.484375 0.1875,-0.734375 l 0.21875,-0.890625 C 1.90625,-2.03125 1.96875,-2.25 2.03125,-2.46875 c 0.03125,-0.171875 0.109375,-0.46875 0.125,-0.5 0.140625,-0.3125 0.671875,-1.21875 1.625,-1.21875 0.453125,0 0.53125,0.375 0.53125,0.703125 0,0.25 -0.0625,0.53125 -0.140625,0.828125 L 3.890625,-1.5 3.6875,-0.75 c -0.03125,0.203125 -0.125,0.546875 -0.125,0.59375 0,0.171875 0.140625,0.265625 0.28125,0.265625 0.3125,0 0.375,-0.25 0.453125,-0.5625 0.140625,-0.5625 0.515625,-2.015625 0.59375,-2.40625 0.03125,-0.125 0.5625,-1.328125 1.65625,-1.328125 0.421875,0 0.53125,0.34375 0.53125,0.703125 0,0.5625 -0.421875,1.703125 -0.625,2.234375 -0.078125,0.234375 -0.125,0.34375 -0.125,0.546875 0,0.46875 0.34375,0.8125 0.8125,0.8125 0.9375,0 1.3125,-1.453125 1.3125,-1.53125 0,-0.109375 -0.09375,-0.109375 -0.125,-0.109375 -0.09375,0 -0.09375,0.03125 -0.140625,0.1875 -0.15625,0.53125 -0.46875,1.234375 -1.015625,1.234375 -0.171875,0 -0.25,-0.09375 -0.25,-0.328125 0,-0.25 0.09375,-0.484375 0.1875,-0.703125 0.1875,-0.53125 0.609375,-1.625 0.609375,-2.203125 0,-0.640625 -0.40625,-1.0625 -1.15625,-1.0625 -0.734375,0 -1.25,0.4375 -1.625,0.96875 0,-0.125 -0.03125,-0.46875 -0.3125,-0.703125 -0.25,-0.21875 -0.5625,-0.265625 -0.8125,-0.265625 -0.90625,0 -1.390625,0.640625 -1.5625,0.875 -0.046875,-0.578125 -0.46875,-0.875 -0.921875,-0.875 -0.453125,0 -0.640625,0.390625 -0.734375,0.5625 -0.171875,0.359375 -0.296875,0.9375 -0.296875,0.96875 0,0.109375 0.09375,0.109375 0.109375,0.109375 0.109375,0 0.109375,-0.015625 0.171875,-0.234375 0.171875,-0.703125 0.375,-1.1875 0.734375,-1.1875 0.15625,0 0.296875,0.078125 0.296875,0.453125 0,0.21875 -0.03125,0.328125 -0.15625,0.84375 z m 0,0"
             style="stroke:#000000;stroke-width:0;stroke-opacity:1"
             inkscape:connector-curvature="0" />
        </g>
        <path
           id="path749"
           transform="matrix(1,0,0,-1,256.328,147.716)"
           d="M 1.25e-4,0.00115625 H 17.050906"
           style="fill:none;stroke:#000000;stroke-width:0.398;stroke-linecap:butt;stroke-linejoin:miter;stroke-miterlimit:10;stroke-opacity:1"
           inkscape:connector-curvature="0" />
        <g
           id="g753"
           style="fill:#000000;fill-opacity:1;stroke:#000000;stroke-opacity:1">
          <path
             id="path751"
             transform="translate(262.362,157.041)"
             d="m 2.890625,-3.515625 c 0.8125,-0.265625 1.390625,-0.953125 1.390625,-1.75 0,-0.8125 -0.875,-1.375 -1.828125,-1.375 -1,0 -1.765625,0.59375 -1.765625,1.359375 0,0.328125 0.21875,0.515625 0.515625,0.515625 0.296875,0 0.5,-0.21875 0.5,-0.515625 0,-0.484375 -0.46875,-0.484375 -0.609375,-0.484375 0.296875,-0.5 0.953125,-0.625 1.3125,-0.625 0.421875,0 0.96875,0.21875 0.96875,1.109375 0,0.125 -0.03125,0.703125 -0.28125,1.140625 C 2.796875,-3.65625 2.453125,-3.625 2.203125,-3.625 2.125,-3.609375 1.890625,-3.59375 1.8125,-3.59375 c -0.078125,0.015625 -0.140625,0.03125 -0.140625,0.125 0,0.109375 0.0625,0.109375 0.234375,0.109375 h 0.4375 c 0.8125,0 1.1875,0.671875 1.1875,1.65625 0,1.359375 -0.6875,1.640625 -1.125,1.640625 -0.4375,0 -1.1875,-0.171875 -1.53125,-0.75 0.34375,0.046875 0.65625,-0.171875 0.65625,-0.546875 0,-0.359375 -0.265625,-0.5625 -0.546875,-0.5625 -0.25,0 -0.5625,0.140625 -0.5625,0.578125 0,0.90625 0.921875,1.5625 2.015625,1.5625 1.21875,0 2.125,-0.90625 2.125,-1.921875 0,-0.8125 -0.640625,-1.59375 -1.671875,-1.8125 z m 0,0"
             style="stroke:#000000;stroke-width:0;stroke-opacity:1"
             inkscape:connector-curvature="0" />
        </g>
        <g
           id="g757"
           style="fill:#000000;fill-opacity:1;stroke:#000000;stroke-opacity:1">
          <path
             id="path755"
             transform="translate(276.787,150.207)"
             d="M 3.875,-2.765625 1.890625,-4.75 C 1.765625,-4.875 1.75,-4.890625 1.671875,-4.890625 1.5625,-4.890625 1.46875,-4.8125 1.46875,-4.6875 c 0,0.0625 0.015625,0.078125 0.125,0.1875 l 2,2 -2,2.015625 c -0.109375,0.109375 -0.125,0.125 -0.125,0.1875 0,0.125 0.09375,0.203125 0.203125,0.203125 0.078125,0 0.09375,-0.015625 0.21875,-0.140625 L 3.875,-2.21875 l 2.0625,2.0625 c 0.015625,0.015625 0.078125,0.0625 0.140625,0.0625 0.125,0 0.203125,-0.078125 0.203125,-0.203125 0,-0.015625 0,-0.046875 -0.03125,-0.109375 C 6.234375,-0.421875 4.65625,-1.984375 4.15625,-2.5 l 1.828125,-1.8125 c 0.046875,-0.0625 0.203125,-0.1875 0.25,-0.25 0,-0.015625 0.046875,-0.0625 0.046875,-0.125 0,-0.125 -0.078125,-0.203125 -0.203125,-0.203125 C 6,-4.890625 5.96875,-4.859375 5.859375,-4.75 Z m 0,0"
             style="stroke:#000000;stroke-width:0;stroke-opacity:1"
             inkscape:connector-curvature="0" />
        </g>
        <g
           id="g761"
           style="fill:#000000;fill-opacity:1;stroke:#000000;stroke-opacity:1">
          <path
             id="path759"
             transform="translate(286.75,150.207)"
             d="m 1.3125,-3.265625 v -0.25 c 0,-2.515625 1.234375,-2.875 1.75,-2.875 0.234375,0 0.65625,0.0625 0.875,0.40625 -0.15625,0 -0.546875,0 -0.546875,0.4375 0,0.3125 0.234375,0.46875 0.453125,0.46875 0.15625,0 0.46875,-0.09375 0.46875,-0.484375 0,-0.59375 -0.4375,-1.078125 -1.265625,-1.078125 -1.28125,0 -2.625,1.28125 -2.625,3.484375 0,2.671875 1.15625,3.375 2.078125,3.375 1.109375,0 2.0625,-0.9375 2.0625,-2.25 0,-1.265625 -0.890625,-2.21875 -2,-2.21875 -0.671875,0 -1.046875,0.5 -1.25,0.984375 z M 2.5,-0.0625 c -0.625,0 -0.921875,-0.59375 -0.984375,-0.75 -0.1875,-0.46875 -0.1875,-1.265625 -0.1875,-1.4375 0,-0.78125 0.328125,-1.78125 1.21875,-1.78125 0.171875,0 0.625,0 0.9375,0.625 0.171875,0.359375 0.171875,0.875 0.171875,1.359375 0,0.484375 0,0.984375 -0.171875,1.34375 C 3.1875,-0.109375 2.734375,-0.0625 2.5,-0.0625 Z m 0,0"
             style="stroke:#000000;stroke-width:0;stroke-opacity:1"
             inkscape:connector-curvature="0" />
        </g>
        <g
           id="g765"
           style="fill:#000000;fill-opacity:1;stroke:#000000;stroke-opacity:1">
          <path
             id="path763"
             transform="translate(295.052,150.207)"
             d="m 0.875,-0.59375 c -0.03125,0.15625 -0.09375,0.390625 -0.09375,0.4375 0,0.171875 0.140625,0.265625 0.296875,0.265625 0.125,0 0.296875,-0.078125 0.375,-0.28125 0,-0.015625 0.125,-0.484375 0.1875,-0.734375 l 0.21875,-0.890625 C 1.90625,-2.03125 1.96875,-2.25 2.03125,-2.46875 c 0.03125,-0.171875 0.109375,-0.46875 0.125,-0.5 0.140625,-0.3125 0.671875,-1.21875 1.625,-1.21875 0.453125,0 0.53125,0.375 0.53125,0.703125 0,0.25 -0.0625,0.53125 -0.140625,0.828125 L 3.890625,-1.5 3.6875,-0.75 c -0.03125,0.203125 -0.125,0.546875 -0.125,0.59375 0,0.171875 0.140625,0.265625 0.28125,0.265625 0.3125,0 0.375,-0.25 0.453125,-0.5625 0.140625,-0.5625 0.515625,-2.015625 0.59375,-2.40625 0.03125,-0.125 0.5625,-1.328125 1.65625,-1.328125 0.421875,0 0.53125,0.34375 0.53125,0.703125 0,0.5625 -0.421875,1.703125 -0.625,2.234375 -0.078125,0.234375 -0.125,0.34375 -0.125,0.546875 0,0.46875 0.34375,0.8125 0.8125,0.8125 0.9375,0 1.3125,-1.453125 1.3125,-1.53125 0,-0.109375 -0.09375,-0.109375 -0.125,-0.109375 -0.09375,0 -0.09375,0.03125 -0.140625,0.1875 -0.15625,0.53125 -0.46875,1.234375 -1.015625,1.234375 -0.171875,0 -0.25,-0.09375 -0.25,-0.328125 0,-0.25 0.09375,-0.484375 0.1875,-0.703125 0.1875,-0.53125 0.609375,-1.625 0.609375,-2.203125 0,-0.640625 -0.40625,-1.0625 -1.15625,-1.0625 -0.734375,0 -1.25,0.4375 -1.625,0.96875 0,-0.125 -0.03125,-0.46875 -0.3125,-0.703125 -0.25,-0.21875 -0.5625,-0.265625 -0.8125,-0.265625 -0.90625,0 -1.390625,0.640625 -1.5625,0.875 -0.046875,-0.578125 -0.46875,-0.875 -0.921875,-0.875 -0.453125,0 -0.640625,0.390625 -0.734375,0.5625 -0.171875,0.359375 -0.296875,0.9375 -0.296875,0.96875 0,0.109375 0.09375,0.109375 0.109375,0.109375 0.109375,0 0.109375,-0.015625 0.171875,-0.234375 0.171875,-0.703125 0.375,-1.1875 0.734375,-1.1875 0.15625,0 0.296875,0.078125 0.296875,0.453125 0,0.21875 -0.03125,0.328125 -0.15625,0.84375 z m 0,0"
             style="stroke:#000000;stroke-width:0;stroke-opacity:1"
             inkscape:connector-curvature="0" />
        </g>
        <g
           id="g769"
           style="fill:#000000;fill-opacity:1;stroke:#000000;stroke-opacity:1">
          <path
             id="path767"
             transform="translate(306.013,150.207)"
             d="M 3.875,-2.765625 1.890625,-4.75 C 1.765625,-4.875 1.75,-4.890625 1.671875,-4.890625 1.5625,-4.890625 1.46875,-4.8125 1.46875,-4.6875 c 0,0.0625 0.015625,0.078125 0.125,0.1875 l 2,2 -2,2.015625 c -0.109375,0.109375 -0.125,0.125 -0.125,0.1875 0,0.125 0.09375,0.203125 0.203125,0.203125 0.078125,0 0.09375,-0.015625 0.21875,-0.140625 L 3.875,-2.21875 l 2.0625,2.0625 c 0.015625,0.015625 0.078125,0.0625 0.140625,0.0625 0.125,0 0.203125,-0.078125 0.203125,-0.203125 0,-0.015625 0,-0.046875 -0.03125,-0.109375 C 6.234375,-0.421875 4.65625,-1.984375 4.15625,-2.5 l 1.828125,-1.8125 c 0.046875,-0.0625 0.203125,-0.1875 0.25,-0.25 0,-0.015625 0.046875,-0.0625 0.046875,-0.125 0,-0.125 -0.078125,-0.203125 -0.203125,-0.203125 C 6,-4.890625 5.96875,-4.859375 5.859375,-4.75 Z m 0,0"
             style="stroke:#000000;stroke-width:0;stroke-opacity:1"
             inkscape:connector-curvature="0" />
        </g>
        <g
           id="g773"
           style="fill:#000000;fill-opacity:1;stroke:#000000;stroke-opacity:1">
          <path
             id="path771"
             transform="translate(315.976,150.207)"
             d="m 1.3125,-3.265625 v -0.25 c 0,-2.515625 1.234375,-2.875 1.75,-2.875 0.234375,0 0.65625,0.0625 0.875,0.40625 -0.15625,0 -0.546875,0 -0.546875,0.4375 0,0.3125 0.234375,0.46875 0.453125,0.46875 0.15625,0 0.46875,-0.09375 0.46875,-0.484375 0,-0.59375 -0.4375,-1.078125 -1.265625,-1.078125 -1.28125,0 -2.625,1.28125 -2.625,3.484375 0,2.671875 1.15625,3.375 2.078125,3.375 1.109375,0 2.0625,-0.9375 2.0625,-2.25 0,-1.265625 -0.890625,-2.21875 -2,-2.21875 -0.671875,0 -1.046875,0.5 -1.25,0.984375 z M 2.5,-0.0625 c -0.625,0 -0.921875,-0.59375 -0.984375,-0.75 -0.1875,-0.46875 -0.1875,-1.265625 -0.1875,-1.4375 0,-0.78125 0.328125,-1.78125 1.21875,-1.78125 0.171875,0 0.625,0 0.9375,0.625 0.171875,0.359375 0.171875,0.875 0.171875,1.359375 0,0.484375 0,0.984375 -0.171875,1.34375 C 3.1875,-0.109375 2.734375,-0.0625 2.5,-0.0625 Z m 0,0"
             style="stroke:#000000;stroke-width:0;stroke-opacity:1"
             inkscape:connector-curvature="0" />
        </g>
        <g
           id="g777"
           style="fill:#000000;fill-opacity:1;stroke:#000000;stroke-opacity:1">
          <path
             id="path775"
             transform="translate(324.278,150.207)"
             d="m 0.875,-0.59375 c -0.03125,0.15625 -0.09375,0.390625 -0.09375,0.4375 0,0.171875 0.140625,0.265625 0.296875,0.265625 0.125,0 0.296875,-0.078125 0.375,-0.28125 0,-0.015625 0.125,-0.484375 0.1875,-0.734375 l 0.21875,-0.890625 C 1.90625,-2.03125 1.96875,-2.25 2.03125,-2.46875 c 0.03125,-0.171875 0.109375,-0.46875 0.125,-0.5 0.140625,-0.3125 0.671875,-1.21875 1.625,-1.21875 0.453125,0 0.53125,0.375 0.53125,0.703125 0,0.25 -0.0625,0.53125 -0.140625,0.828125 L 3.890625,-1.5 3.6875,-0.75 c -0.03125,0.203125 -0.125,0.546875 -0.125,0.59375 0,0.171875 0.140625,0.265625 0.28125,0.265625 0.3125,0 0.375,-0.25 0.453125,-0.5625 0.140625,-0.5625 0.515625,-2.015625 0.59375,-2.40625 0.03125,-0.125 0.5625,-1.328125 1.65625,-1.328125 0.421875,0 0.53125,0.34375 0.53125,0.703125 0,0.5625 -0.421875,1.703125 -0.625,2.234375 -0.078125,0.234375 -0.125,0.34375 -0.125,0.546875 0,0.46875 0.34375,0.8125 0.8125,0.8125 0.9375,0 1.3125,-1.453125 1.3125,-1.53125 0,-0.109375 -0.09375,-0.109375 -0.125,-0.109375 -0.09375,0 -0.09375,0.03125 -0.140625,0.1875 -0.15625,0.53125 -0.46875,1.234375 -1.015625,1.234375 -0.171875,0 -0.25,-0.09375 -0.25,-0.328125 0,-0.25 0.09375,-0.484375 0.1875,-0.703125 0.1875,-0.53125 0.609375,-1.625 0.609375,-2.203125 0,-0.640625 -0.40625,-1.0625 -1.15625,-1.0625 -0.734375,0 -1.25,0.4375 -1.625,0.96875 0,-0.125 -0.03125,-0.46875 -0.3125,-0.703125 -0.25,-0.21875 -0.5625,-0.265625 -0.8125,-0.265625 -0.90625,0 -1.390625,0.640625 -1.5625,0.875 -0.046875,-0.578125 -0.46875,-0.875 -0.921875,-0.875 -0.453125,0 -0.640625,0.390625 -0.734375,0.5625 -0.171875,0.359375 -0.296875,0.9375 -0.296875,0.96875 0,0.109375 0.09375,0.109375 0.109375,0.109375 0.109375,0 0.109375,-0.015625 0.171875,-0.234375 0.171875,-0.703125 0.375,-1.1875 0.734375,-1.1875 0.15625,0 0.296875,0.078125 0.296875,0.453125 0,0.21875 -0.03125,0.328125 -0.15625,0.84375 z m 0,0"
             style="stroke:#000000;stroke-width:0;stroke-opacity:1"
             inkscape:connector-curvature="0" />
        </g>
        <g
           id="g781"
           style="fill:#000000;fill-opacity:1;stroke:#000000;stroke-opacity:1">
          <path
             id="path779"
             transform="translate(335.239,150.207)"
             d="m 4.078125,-2.296875 h 2.78125 C 7,-2.296875 7.1875,-2.296875 7.1875,-2.5 7.1875,-2.6875 7,-2.6875 6.859375,-2.6875 h -2.78125 v -2.796875 c 0,-0.140625 0,-0.328125 -0.203125,-0.328125 -0.203125,0 -0.203125,0.1875 -0.203125,0.328125 V -2.6875 h -2.78125 c -0.140625,0 -0.328125,0 -0.328125,0.1875 0,0.203125 0.1875,0.203125 0.328125,0.203125 h 2.78125 V 0.5 c 0,0.140625 0,0.328125 0.203125,0.328125 0.203125,0 0.203125,-0.1875 0.203125,-0.328125 z m 0,0"
             style="stroke:#000000;stroke-width:0;stroke-opacity:1"
             inkscape:connector-curvature="0" />
        </g>
        <g
           id="g785"
           style="fill:#000000;fill-opacity:1;stroke:#000000;stroke-opacity:1">
          <path
             id="path783"
             transform="translate(346.397,143.467)"
             d="m 1.3125,-3.265625 v -0.25 c 0,-2.515625 1.234375,-2.875 1.75,-2.875 0.234375,0 0.65625,0.0625 0.875,0.40625 -0.15625,0 -0.546875,0 -0.546875,0.4375 0,0.3125 0.234375,0.46875 0.453125,0.46875 0.15625,0 0.46875,-0.09375 0.46875,-0.484375 0,-0.59375 -0.4375,-1.078125 -1.265625,-1.078125 -1.28125,0 -2.625,1.28125 -2.625,3.484375 0,2.671875 1.15625,3.375 2.078125,3.375 1.109375,0 2.0625,-0.9375 2.0625,-2.25 0,-1.265625 -0.890625,-2.21875 -2,-2.21875 -0.671875,0 -1.046875,0.5 -1.25,0.984375 z M 2.5,-0.0625 c -0.625,0 -0.921875,-0.59375 -0.984375,-0.75 -0.1875,-0.46875 -0.1875,-1.265625 -0.1875,-1.4375 0,-0.78125 0.328125,-1.78125 1.21875,-1.78125 0.171875,0 0.625,0 0.9375,0.625 0.171875,0.359375 0.171875,0.875 0.171875,1.359375 0,0.484375 0,0.984375 -0.171875,1.34375 C 3.1875,-0.109375 2.734375,-0.0625 2.5,-0.0625 Z m 0,0"
             style="stroke:#000000;stroke-width:0;stroke-opacity:1"
             inkscape:connector-curvature="0" />
        </g>
        <g
           id="g789"
           style="fill:#000000;fill-opacity:1;stroke:#000000;stroke-opacity:1">
          <path
             id="path787"
             transform="translate(354.699,143.467)"
             d="m 0.875,-0.59375 c -0.03125,0.15625 -0.09375,0.390625 -0.09375,0.4375 0,0.171875 0.140625,0.265625 0.296875,0.265625 0.125,0 0.296875,-0.078125 0.375,-0.28125 0,-0.015625 0.125,-0.484375 0.1875,-0.734375 l 0.21875,-0.890625 C 1.90625,-2.03125 1.96875,-2.25 2.03125,-2.46875 c 0.03125,-0.171875 0.109375,-0.46875 0.125,-0.5 0.140625,-0.3125 0.671875,-1.21875 1.625,-1.21875 0.453125,0 0.53125,0.375 0.53125,0.703125 0,0.25 -0.0625,0.53125 -0.140625,0.828125 L 3.890625,-1.5 3.6875,-0.75 c -0.03125,0.203125 -0.125,0.546875 -0.125,0.59375 0,0.171875 0.140625,0.265625 0.28125,0.265625 0.3125,0 0.375,-0.25 0.453125,-0.5625 0.140625,-0.5625 0.515625,-2.015625 0.59375,-2.40625 0.03125,-0.125 0.5625,-1.328125 1.65625,-1.328125 0.421875,0 0.53125,0.34375 0.53125,0.703125 0,0.5625 -0.421875,1.703125 -0.625,2.234375 -0.078125,0.234375 -0.125,0.34375 -0.125,0.546875 0,0.46875 0.34375,0.8125 0.8125,0.8125 0.9375,0 1.3125,-1.453125 1.3125,-1.53125 0,-0.109375 -0.09375,-0.109375 -0.125,-0.109375 -0.09375,0 -0.09375,0.03125 -0.140625,0.1875 -0.15625,0.53125 -0.46875,1.234375 -1.015625,1.234375 -0.171875,0 -0.25,-0.09375 -0.25,-0.328125 0,-0.25 0.09375,-0.484375 0.1875,-0.703125 0.1875,-0.53125 0.609375,-1.625 0.609375,-2.203125 0,-0.640625 -0.40625,-1.0625 -1.15625,-1.0625 -0.734375,0 -1.25,0.4375 -1.625,0.96875 0,-0.125 -0.03125,-0.46875 -0.3125,-0.703125 -0.25,-0.21875 -0.5625,-0.265625 -0.8125,-0.265625 -0.90625,0 -1.390625,0.640625 -1.5625,0.875 -0.046875,-0.578125 -0.46875,-0.875 -0.921875,-0.875 -0.453125,0 -0.640625,0.390625 -0.734375,0.5625 -0.171875,0.359375 -0.296875,0.9375 -0.296875,0.96875 0,0.109375 0.09375,0.109375 0.109375,0.109375 0.109375,0 0.109375,-0.015625 0.171875,-0.234375 0.171875,-0.703125 0.375,-1.1875 0.734375,-1.1875 0.15625,0 0.296875,0.078125 0.296875,0.453125 0,0.21875 -0.03125,0.328125 -0.15625,0.84375 z m 0,0"
             style="stroke:#000000;stroke-width:0;stroke-opacity:1"
             inkscape:connector-curvature="0" />
        </g>
        <path
           id="path791"
           transform="matrix(1,0,0,-1,346.397,147.716)"
           d="M 0.0014375,0.00115625 H 17.048313"
           style="fill:none;stroke:#000000;stroke-width:0.398;stroke-linecap:butt;stroke-linejoin:miter;stroke-miterlimit:10;stroke-opacity:1"
           inkscape:connector-curvature="0" />
        <g
           id="g795"
           style="fill:#000000;fill-opacity:1;stroke:#000000;stroke-opacity:1">
          <path
             id="path793"
             transform="translate(352.431,157.041)"
             d="m 2.890625,-3.515625 c 0.8125,-0.265625 1.390625,-0.953125 1.390625,-1.75 0,-0.8125 -0.875,-1.375 -1.828125,-1.375 -1,0 -1.765625,0.59375 -1.765625,1.359375 0,0.328125 0.21875,0.515625 0.515625,0.515625 0.296875,0 0.5,-0.21875 0.5,-0.515625 0,-0.484375 -0.46875,-0.484375 -0.609375,-0.484375 0.296875,-0.5 0.953125,-0.625 1.3125,-0.625 0.421875,0 0.96875,0.21875 0.96875,1.109375 0,0.125 -0.03125,0.703125 -0.28125,1.140625 C 2.796875,-3.65625 2.453125,-3.625 2.203125,-3.625 2.125,-3.609375 1.890625,-3.59375 1.8125,-3.59375 c -0.078125,0.015625 -0.140625,0.03125 -0.140625,0.125 0,0.109375 0.0625,0.109375 0.234375,0.109375 h 0.4375 c 0.8125,0 1.1875,0.671875 1.1875,1.65625 0,1.359375 -0.6875,1.640625 -1.125,1.640625 -0.4375,0 -1.1875,-0.171875 -1.53125,-0.75 0.34375,0.046875 0.65625,-0.171875 0.65625,-0.546875 0,-0.359375 -0.265625,-0.5625 -0.546875,-0.5625 -0.25,0 -0.5625,0.140625 -0.5625,0.578125 0,0.90625 0.921875,1.5625 2.015625,1.5625 1.21875,0 2.125,-0.90625 2.125,-1.921875 0,-0.8125 -0.640625,-1.59375 -1.671875,-1.8125 z m 0,0"
             style="stroke:#000000;stroke-width:0;stroke-opacity:1"
             inkscape:connector-curvature="0" />
        </g>
        <g
           id="g799"
           style="fill:#000000;fill-opacity:1;stroke:#000000;stroke-opacity:1">
          <path
             id="path797"
             transform="translate(366.856,150.207)"
             d="M 3.875,-2.765625 1.890625,-4.75 C 1.765625,-4.875 1.75,-4.890625 1.671875,-4.890625 1.5625,-4.890625 1.46875,-4.8125 1.46875,-4.6875 c 0,0.0625 0.015625,0.078125 0.125,0.1875 l 2,2 -2,2.015625 c -0.109375,0.109375 -0.125,0.125 -0.125,0.1875 0,0.125 0.09375,0.203125 0.203125,0.203125 0.078125,0 0.09375,-0.015625 0.21875,-0.140625 L 3.875,-2.21875 l 2.0625,2.0625 c 0.015625,0.015625 0.078125,0.0625 0.140625,0.0625 0.125,0 0.203125,-0.078125 0.203125,-0.203125 0,-0.015625 0,-0.046875 -0.03125,-0.109375 C 6.234375,-0.421875 4.65625,-1.984375 4.15625,-2.5 l 1.828125,-1.8125 c 0.046875,-0.0625 0.203125,-0.1875 0.25,-0.25 0,-0.015625 0.046875,-0.0625 0.046875,-0.125 0,-0.125 -0.078125,-0.203125 -0.203125,-0.203125 C 6,-4.890625 5.96875,-4.859375 5.859375,-4.75 Z m 0,0"
             style="stroke:#000000;stroke-width:0;stroke-opacity:1"
             inkscape:connector-curvature="0" />
        </g>
        <g
           id="g803"
           style="fill:#000000;fill-opacity:1;stroke:#000000;stroke-opacity:1">
          <path
             id="path801"
             transform="translate(376.819,150.207)"
             d="m 1.3125,-3.265625 v -0.25 c 0,-2.515625 1.234375,-2.875 1.75,-2.875 0.234375,0 0.65625,0.0625 0.875,0.40625 -0.15625,0 -0.546875,0 -0.546875,0.4375 0,0.3125 0.234375,0.46875 0.453125,0.46875 0.15625,0 0.46875,-0.09375 0.46875,-0.484375 0,-0.59375 -0.4375,-1.078125 -1.265625,-1.078125 -1.28125,0 -2.625,1.28125 -2.625,3.484375 0,2.671875 1.15625,3.375 2.078125,3.375 1.109375,0 2.0625,-0.9375 2.0625,-2.25 0,-1.265625 -0.890625,-2.21875 -2,-2.21875 -0.671875,0 -1.046875,0.5 -1.25,0.984375 z M 2.5,-0.0625 c -0.625,0 -0.921875,-0.59375 -0.984375,-0.75 -0.1875,-0.46875 -0.1875,-1.265625 -0.1875,-1.4375 0,-0.78125 0.328125,-1.78125 1.21875,-1.78125 0.171875,0 0.625,0 0.9375,0.625 0.171875,0.359375 0.171875,0.875 0.171875,1.359375 0,0.484375 0,0.984375 -0.171875,1.34375 C 3.1875,-0.109375 2.734375,-0.0625 2.5,-0.0625 Z m 0,0"
             style="stroke:#000000;stroke-width:0;stroke-opacity:1"
             inkscape:connector-curvature="0" />
        </g>
        <g
           id="g807"
           style="fill:#000000;fill-opacity:1;stroke:#000000;stroke-opacity:1">
          <path
             id="path805"
             transform="translate(385.121,150.207)"
             d="m 0.875,-0.59375 c -0.03125,0.15625 -0.09375,0.390625 -0.09375,0.4375 0,0.171875 0.140625,0.265625 0.296875,0.265625 0.125,0 0.296875,-0.078125 0.375,-0.28125 0,-0.015625 0.125,-0.484375 0.1875,-0.734375 l 0.21875,-0.890625 C 1.90625,-2.03125 1.96875,-2.25 2.03125,-2.46875 c 0.03125,-0.171875 0.109375,-0.46875 0.125,-0.5 0.140625,-0.3125 0.671875,-1.21875 1.625,-1.21875 0.453125,0 0.53125,0.375 0.53125,0.703125 0,0.25 -0.0625,0.53125 -0.140625,0.828125 L 3.890625,-1.5 3.6875,-0.75 c -0.03125,0.203125 -0.125,0.546875 -0.125,0.59375 0,0.171875 0.140625,0.265625 0.28125,0.265625 0.3125,0 0.375,-0.25 0.453125,-0.5625 0.140625,-0.5625 0.515625,-2.015625 0.59375,-2.40625 0.03125,-0.125 0.5625,-1.328125 1.65625,-1.328125 0.421875,0 0.53125,0.34375 0.53125,0.703125 0,0.5625 -0.421875,1.703125 -0.625,2.234375 -0.078125,0.234375 -0.125,0.34375 -0.125,0.546875 0,0.46875 0.34375,0.8125 0.8125,0.8125 0.9375,0 1.3125,-1.453125 1.3125,-1.53125 0,-0.109375 -0.09375,-0.109375 -0.125,-0.109375 -0.09375,0 -0.09375,0.03125 -0.140625,0.1875 -0.15625,0.53125 -0.46875,1.234375 -1.015625,1.234375 -0.171875,0 -0.25,-0.09375 -0.25,-0.328125 0,-0.25 0.09375,-0.484375 0.1875,-0.703125 0.1875,-0.53125 0.609375,-1.625 0.609375,-2.203125 0,-0.640625 -0.40625,-1.0625 -1.15625,-1.0625 -0.734375,0 -1.25,0.4375 -1.625,0.96875 0,-0.125 -0.03125,-0.46875 -0.3125,-0.703125 -0.25,-0.21875 -0.5625,-0.265625 -0.8125,-0.265625 -0.90625,0 -1.390625,0.640625 -1.5625,0.875 -0.046875,-0.578125 -0.46875,-0.875 -0.921875,-0.875 -0.453125,0 -0.640625,0.390625 -0.734375,0.5625 -0.171875,0.359375 -0.296875,0.9375 -0.296875,0.96875 0,0.109375 0.09375,0.109375 0.109375,0.109375 0.109375,0 0.109375,-0.015625 0.171875,-0.234375 0.171875,-0.703125 0.375,-1.1875 0.734375,-1.1875 0.15625,0 0.296875,0.078125 0.296875,0.453125 0,0.21875 -0.03125,0.328125 -0.15625,0.84375 z m 0,0"
             style="stroke:#000000;stroke-width:0;stroke-opacity:1"
             inkscape:connector-curvature="0" />
        </g>
        <g
           id="g811"
           style="fill:#000000;fill-opacity:1;stroke:#000000;stroke-opacity:1">
          <path
             id="path809"
             transform="translate(396.082,150.207)"
             d="M 3.875,-2.765625 1.890625,-4.75 C 1.765625,-4.875 1.75,-4.890625 1.671875,-4.890625 1.5625,-4.890625 1.46875,-4.8125 1.46875,-4.6875 c 0,0.0625 0.015625,0.078125 0.125,0.1875 l 2,2 -2,2.015625 c -0.109375,0.109375 -0.125,0.125 -0.125,0.1875 0,0.125 0.09375,0.203125 0.203125,0.203125 0.078125,0 0.09375,-0.015625 0.21875,-0.140625 L 3.875,-2.21875 l 2.0625,2.0625 c 0.015625,0.015625 0.078125,0.0625 0.140625,0.0625 0.125,0 0.203125,-0.078125 0.203125,-0.203125 0,-0.015625 0,-0.046875 -0.03125,-0.109375 C 6.234375,-0.421875 4.65625,-1.984375 4.15625,-2.5 l 1.828125,-1.8125 c 0.046875,-0.0625 0.203125,-0.1875 0.25,-0.25 0,-0.015625 0.046875,-0.0625 0.046875,-0.125 0,-0.125 -0.078125,-0.203125 -0.203125,-0.203125 C 6,-4.890625 5.96875,-4.859375 5.859375,-4.75 Z m 0,0"
             style="stroke:#000000;stroke-width:0;stroke-opacity:1"
             inkscape:connector-curvature="0" />
        </g>
        <g
           id="g815"
           style="fill:#000000;fill-opacity:1;stroke:#000000;stroke-opacity:1">
          <path
             id="path813"
             transform="translate(406.045,150.207)"
             d="m 1.3125,-3.265625 v -0.25 c 0,-2.515625 1.234375,-2.875 1.75,-2.875 0.234375,0 0.65625,0.0625 0.875,0.40625 -0.15625,0 -0.546875,0 -0.546875,0.4375 0,0.3125 0.234375,0.46875 0.453125,0.46875 0.15625,0 0.46875,-0.09375 0.46875,-0.484375 0,-0.59375 -0.4375,-1.078125 -1.265625,-1.078125 -1.28125,0 -2.625,1.28125 -2.625,3.484375 0,2.671875 1.15625,3.375 2.078125,3.375 1.109375,0 2.0625,-0.9375 2.0625,-2.25 0,-1.265625 -0.890625,-2.21875 -2,-2.21875 -0.671875,0 -1.046875,0.5 -1.25,0.984375 z M 2.5,-0.0625 c -0.625,0 -0.921875,-0.59375 -0.984375,-0.75 -0.1875,-0.46875 -0.1875,-1.265625 -0.1875,-1.4375 0,-0.78125 0.328125,-1.78125 1.21875,-1.78125 0.171875,0 0.625,0 0.9375,0.625 0.171875,0.359375 0.171875,0.875 0.171875,1.359375 0,0.484375 0,0.984375 -0.171875,1.34375 C 3.1875,-0.109375 2.734375,-0.0625 2.5,-0.0625 Z m 0,0"
             style="stroke:#000000;stroke-width:0;stroke-opacity:1"
             inkscape:connector-curvature="0" />
        </g>
        <g
           id="g819"
           style="fill:#000000;fill-opacity:1;stroke:#000000;stroke-opacity:1">
          <path
             id="path817"
             transform="translate(414.347,150.207)"
             d="m 0.875,-0.59375 c -0.03125,0.15625 -0.09375,0.390625 -0.09375,0.4375 0,0.171875 0.140625,0.265625 0.296875,0.265625 0.125,0 0.296875,-0.078125 0.375,-0.28125 0,-0.015625 0.125,-0.484375 0.1875,-0.734375 l 0.21875,-0.890625 C 1.90625,-2.03125 1.96875,-2.25 2.03125,-2.46875 c 0.03125,-0.171875 0.109375,-0.46875 0.125,-0.5 0.140625,-0.3125 0.671875,-1.21875 1.625,-1.21875 0.453125,0 0.53125,0.375 0.53125,0.703125 0,0.25 -0.0625,0.53125 -0.140625,0.828125 L 3.890625,-1.5 3.6875,-0.75 c -0.03125,0.203125 -0.125,0.546875 -0.125,0.59375 0,0.171875 0.140625,0.265625 0.28125,0.265625 0.3125,0 0.375,-0.25 0.453125,-0.5625 0.140625,-0.5625 0.515625,-2.015625 0.59375,-2.40625 0.03125,-0.125 0.5625,-1.328125 1.65625,-1.328125 0.421875,0 0.53125,0.34375 0.53125,0.703125 0,0.5625 -0.421875,1.703125 -0.625,2.234375 -0.078125,0.234375 -0.125,0.34375 -0.125,0.546875 0,0.46875 0.34375,0.8125 0.8125,0.8125 0.9375,0 1.3125,-1.453125 1.3125,-1.53125 0,-0.109375 -0.09375,-0.109375 -0.125,-0.109375 -0.09375,0 -0.09375,0.03125 -0.140625,0.1875 -0.15625,0.53125 -0.46875,1.234375 -1.015625,1.234375 -0.171875,0 -0.25,-0.09375 -0.25,-0.328125 0,-0.25 0.09375,-0.484375 0.1875,-0.703125 0.1875,-0.53125 0.609375,-1.625 0.609375,-2.203125 0,-0.640625 -0.40625,-1.0625 -1.15625,-1.0625 -0.734375,0 -1.25,0.4375 -1.625,0.96875 0,-0.125 -0.03125,-0.46875 -0.3125,-0.703125 -0.25,-0.21875 -0.5625,-0.265625 -0.8125,-0.265625 -0.90625,0 -1.390625,0.640625 -1.5625,0.875 -0.046875,-0.578125 -0.46875,-0.875 -0.921875,-0.875 -0.453125,0 -0.640625,0.390625 -0.734375,0.5625 -0.171875,0.359375 -0.296875,0.9375 -0.296875,0.96875 0,0.109375 0.09375,0.109375 0.109375,0.109375 0.109375,0 0.109375,-0.015625 0.171875,-0.234375 0.171875,-0.703125 0.375,-1.1875 0.734375,-1.1875 0.15625,0 0.296875,0.078125 0.296875,0.453125 0,0.21875 -0.03125,0.328125 -0.15625,0.84375 z m 0,0"
             style="stroke:#000000;stroke-width:0;stroke-opacity:1"
             inkscape:connector-curvature="0" />
        </g>
        <g
           id="g823"
           style="fill:#000000;fill-opacity:1;stroke:#000000;stroke-opacity:1">
          <path
             id="path821"
             transform="translate(423.094,136.159)"
             d="M 2.21875,22.96875 H 0.140625 v 0.546875 h 2.625 V -0.40625 h -2.625 v 0.5625 H 2.21875 Z m 0,0"
             style="stroke:#000000;stroke-width:0;stroke-opacity:1"
             inkscape:connector-curvature="0" />
        </g>
      </g>
    </g>
    <g
       id="g1094"
       style="stroke:#000000;stroke-opacity:1"
       ns0:jacobian_sqrt="1.283334"
       inkscapeversion="0.92.4"
       ns0:alignment="middle center"
       ns0:scale="0.875"
       ns0:preamble="/files/work/share/config/inkscape/extensions/textext/default_packages.tex"
       ns0:text="\\[\nf_{11} = \\frac{120~m^3}{EI_0}\n\\]\n"
       ns0:pdfconverter="pdf2svg"
       ns0:texconverter="pdflatex"
       ns0:version="0.11.0"
       transform="matrix(1.283334,0,0,1.283334,-251.82733,219.57716)">
      <g
         style="stroke:#000000;stroke-opacity:1"
         id="g1092">
        <g
           id="g1050"
           style="fill:#000000;fill-opacity:1;stroke:#000000;stroke-opacity:1">
          <path
             id="path1048"
             transform="translate(275.387,150.61)"
             d="m 3.65625,-3.984375 h 0.859375 c 0.203125,0 0.296875,0 0.296875,-0.203125 0,-0.109375 -0.09375,-0.109375 -0.265625,-0.109375 H 3.71875 L 3.921875,-5.4375 c 0.046875,-0.203125 0.1875,-0.90625 0.25,-1.03125 0.078125,-0.1875 0.25,-0.34375 0.46875,-0.34375 0.03125,0 0.296875,0 0.484375,0.1875 -0.4375,0.03125 -0.546875,0.390625 -0.546875,0.53125 0,0.234375 0.1875,0.359375 0.375,0.359375 C 5.21875,-5.734375 5.5,-5.96875 5.5,-6.34375 c 0,-0.453125 -0.453125,-0.6875 -0.859375,-0.6875 -0.34375,0 -0.96875,0.1875 -1.265625,1.171875 -0.0625,0.203125 -0.09375,0.3125 -0.328125,1.5625 h -0.6875 c -0.203125,0 -0.3125,0 -0.3125,0.1875 0,0.125 0.09375,0.125 0.28125,0.125 h 0.65625 L 2.25,-0.046875 c -0.1875,0.96875 -0.359375,1.875 -0.875,1.875 -0.046875,0 -0.28125,0 -0.484375,-0.1875 C 1.359375,1.609375 1.453125,1.25 1.453125,1.109375 1.453125,0.875 1.265625,0.75 1.078125,0.75 0.8125,0.75 0.53125,0.984375 0.53125,1.359375 c 0,0.4375 0.4375,0.6875 0.84375,0.6875 0.546875,0 0.953125,-0.59375 1.125,-0.96875 0.328125,-0.625 0.546875,-1.828125 0.5625,-1.90625 z m 0,0"
             style="stroke:#000000;stroke-width:0;stroke-opacity:1"
             inkscape:connector-curvature="0" />
        </g>
        <g
           id="g1056"
           style="fill:#000000;fill-opacity:1;stroke:#000000;stroke-opacity:1">
          <path
             id="path1052"
             transform="translate(280.264,152.105)"
             d="m 2.328125,-4.4375 c 0,-0.1875 0,-0.1875 -0.203125,-0.1875 -0.453125,0.4375 -1.078125,0.4375 -1.359375,0.4375 v 0.25 c 0.15625,0 0.625,0 1,-0.1875 v 3.546875 c 0,0.234375 0,0.328125 -0.6875,0.328125 H 0.8125 V 0 c 0.125,0 0.984375,-0.03125 1.234375,-0.03125 0.21875,0 1.09375,0.03125 1.25,0.03125 V -0.25 H 3.03125 c -0.703125,0 -0.703125,-0.09375 -0.703125,-0.328125 z m 0,0"
             style="stroke:#000000;stroke-width:0;stroke-opacity:1"
             inkscape:connector-curvature="0" />
          <path
             id="path1054"
             transform="translate(284.23558,152.105)"
             d="m 2.328125,-4.4375 c 0,-0.1875 0,-0.1875 -0.203125,-0.1875 -0.453125,0.4375 -1.078125,0.4375 -1.359375,0.4375 v 0.25 c 0.15625,0 0.625,0 1,-0.1875 v 3.546875 c 0,0.234375 0,0.328125 -0.6875,0.328125 H 0.8125 V 0 c 0.125,0 0.984375,-0.03125 1.234375,-0.03125 0.21875,0 1.09375,0.03125 1.25,0.03125 V -0.25 H 3.03125 c -0.703125,0 -0.703125,-0.09375 -0.703125,-0.328125 z m 0,0"
             style="stroke:#000000;stroke-width:0;stroke-opacity:1"
             inkscape:connector-curvature="0" />
        </g>
        <g
           id="g1060"
           style="fill:#000000;fill-opacity:1;stroke:#000000;stroke-opacity:1">
          <path
             id="path1058"
             transform="translate(291.472,150.61)"
             d="m 6.84375,-3.265625 c 0.15625,0 0.34375,0 0.34375,-0.1875 C 7.1875,-3.65625 7,-3.65625 6.859375,-3.65625 h -5.96875 c -0.140625,0 -0.328125,0 -0.328125,0.203125 0,0.1875 0.1875,0.1875 0.328125,0.1875 z m 0.015625,1.9375 c 0.140625,0 0.328125,0 0.328125,-0.203125 0,-0.1875 -0.1875,-0.1875 -0.34375,-0.1875 H 0.890625 c -0.140625,0 -0.328125,0 -0.328125,0.1875 0,0.203125 0.1875,0.203125 0.328125,0.203125 z m 0,0"
             style="stroke:#000000;stroke-width:0;stroke-opacity:1"
             inkscape:connector-curvature="0" />
        </g>
        <g
           id="g1068"
           style="fill:#000000;fill-opacity:1;stroke:#000000;stroke-opacity:1">
          <path
             id="path1062"
             transform="translate(303.184,143.871)"
             d="m 2.9375,-6.375 c 0,-0.25 0,-0.265625 -0.234375,-0.265625 C 2.078125,-6 1.203125,-6 0.890625,-6 v 0.3125 c 0.203125,0 0.78125,0 1.296875,-0.265625 v 5.171875 c 0,0.359375 -0.03125,0.46875 -0.921875,0.46875 h -0.3125 V 0 c 0.34375,-0.03125 1.203125,-0.03125 1.609375,-0.03125 0.390625,0 1.265625,0 1.609375,0.03125 v -0.3125 h -0.3125 c -0.90625,0 -0.921875,-0.109375 -0.921875,-0.46875 z m 0,0"
             style="stroke:#000000;stroke-width:0;stroke-opacity:1"
             inkscape:connector-curvature="0" />
          <path
             id="path1064"
             transform="translate(308.1653,143.871)"
             d="m 1.265625,-0.765625 1.0625,-1.03125 c 1.546875,-1.375 2.140625,-1.90625 2.140625,-2.90625 0,-1.140625 -0.890625,-1.9375 -2.109375,-1.9375 -1.125,0 -1.859375,0.921875 -1.859375,1.8125 0,0.546875 0.5,0.546875 0.53125,0.546875 0.171875,0 0.515625,-0.109375 0.515625,-0.53125 0,-0.25 -0.1875,-0.515625 -0.53125,-0.515625 -0.078125,0 -0.09375,0 -0.125,0.015625 0.21875,-0.65625 0.765625,-1.015625 1.34375,-1.015625 0.90625,0 1.328125,0.8125 1.328125,1.625 C 3.5625,-3.90625 3.078125,-3.125 2.515625,-2.5 l -1.90625,2.125 C 0.5,-0.265625 0.5,-0.234375 0.5,0 H 4.203125 L 4.46875,-1.734375 H 4.234375 C 4.171875,-1.4375 4.109375,-1 4,-0.84375 3.9375,-0.765625 3.28125,-0.765625 3.0625,-0.765625 Z m 0,0"
             style="stroke:#000000;stroke-width:0;stroke-opacity:1"
             inkscape:connector-curvature="0" />
          <path
             id="path1066"
             transform="translate(313.1466,143.871)"
             d="m 4.578125,-3.1875 c 0,-0.796875 -0.046875,-1.59375 -0.390625,-2.328125 -0.453125,-0.96875 -1.28125,-1.125 -1.6875,-1.125 -0.609375,0 -1.328125,0.265625 -1.75,1.1875 -0.3125,0.6875 -0.359375,1.46875 -0.359375,2.265625 0,0.75 0.03125,1.640625 0.453125,2.40625 0.421875,0.796875 1.15625,1 1.640625,1 0.53125,0 1.296875,-0.203125 1.734375,-1.15625 0.3125,-0.6875 0.359375,-1.46875 0.359375,-2.25 z M 2.484375,0 C 2.09375,0 1.5,-0.25 1.328125,-1.203125 1.21875,-1.796875 1.21875,-2.71875 1.21875,-3.3125 c 0,-0.640625 0,-1.296875 0.078125,-1.828125 0.1875,-1.1875 0.9375,-1.28125 1.1875,-1.28125 0.328125,0 0.984375,0.1875 1.171875,1.171875 0.109375,0.5625 0.109375,1.3125 0.109375,1.9375 0,0.75 0,1.421875 -0.109375,2.0625 C 3.5,-0.296875 2.9375,0 2.484375,0 Z m 0,0"
             style="stroke:#000000;stroke-width:0;stroke-opacity:1"
             inkscape:connector-curvature="0" />
        </g>
        <g
           id="g1072"
           style="fill:#000000;fill-opacity:1;stroke:#000000;stroke-opacity:1">
          <path
             id="path1070"
             transform="translate(321.449,143.871)"
             d="m 0.875,-0.59375 c -0.03125,0.15625 -0.09375,0.390625 -0.09375,0.4375 0,0.171875 0.140625,0.265625 0.296875,0.265625 0.125,0 0.296875,-0.078125 0.375,-0.28125 0,-0.015625 0.125,-0.484375 0.1875,-0.734375 l 0.21875,-0.890625 C 1.90625,-2.03125 1.96875,-2.25 2.03125,-2.46875 c 0.03125,-0.171875 0.109375,-0.46875 0.125,-0.5 0.140625,-0.3125 0.671875,-1.21875 1.625,-1.21875 0.453125,0 0.53125,0.375 0.53125,0.703125 0,0.25 -0.0625,0.53125 -0.140625,0.828125 L 3.890625,-1.5 3.6875,-0.75 c -0.03125,0.203125 -0.125,0.546875 -0.125,0.59375 0,0.171875 0.140625,0.265625 0.28125,0.265625 0.3125,0 0.375,-0.25 0.453125,-0.5625 0.140625,-0.5625 0.515625,-2.015625 0.59375,-2.40625 0.03125,-0.125 0.5625,-1.328125 1.65625,-1.328125 0.421875,0 0.53125,0.34375 0.53125,0.703125 0,0.5625 -0.421875,1.703125 -0.625,2.234375 -0.078125,0.234375 -0.125,0.34375 -0.125,0.546875 0,0.46875 0.34375,0.8125 0.8125,0.8125 0.9375,0 1.3125,-1.453125 1.3125,-1.53125 0,-0.109375 -0.09375,-0.109375 -0.125,-0.109375 -0.09375,0 -0.09375,0.03125 -0.140625,0.1875 -0.15625,0.53125 -0.46875,1.234375 -1.015625,1.234375 -0.171875,0 -0.25,-0.09375 -0.25,-0.328125 0,-0.25 0.09375,-0.484375 0.1875,-0.703125 0.1875,-0.53125 0.609375,-1.625 0.609375,-2.203125 0,-0.640625 -0.40625,-1.0625 -1.15625,-1.0625 -0.734375,0 -1.25,0.4375 -1.625,0.96875 0,-0.125 -0.03125,-0.46875 -0.3125,-0.703125 -0.25,-0.21875 -0.5625,-0.265625 -0.8125,-0.265625 -0.90625,0 -1.390625,0.640625 -1.5625,0.875 -0.046875,-0.578125 -0.46875,-0.875 -0.921875,-0.875 -0.453125,0 -0.640625,0.390625 -0.734375,0.5625 -0.171875,0.359375 -0.296875,0.9375 -0.296875,0.96875 0,0.109375 0.09375,0.109375 0.109375,0.109375 0.109375,0 0.109375,-0.015625 0.171875,-0.234375 0.171875,-0.703125 0.375,-1.1875 0.734375,-1.1875 0.15625,0 0.296875,0.078125 0.296875,0.453125 0,0.21875 -0.03125,0.328125 -0.15625,0.84375 z m 0,0"
             style="stroke:#000000;stroke-width:0;stroke-opacity:1"
             inkscape:connector-curvature="0" />
        </g>
        <g
           id="g1076"
           style="fill:#000000;fill-opacity:1;stroke:#000000;stroke-opacity:1">
          <path
             id="path1074"
             transform="translate(330.196,140.255)"
             d="m 1.90625,-2.328125 c 0.546875,0 0.9375,0.375 0.9375,1.125 0,0.859375 -0.515625,1.125 -0.90625,1.125 -0.28125,0 -0.90625,-0.078125 -1.1875,-0.5 0.328125,0 0.40625,-0.234375 0.40625,-0.390625 0,-0.21875 -0.171875,-0.375 -0.390625,-0.375 -0.1875,0 -0.390625,0.125 -0.390625,0.40625 0,0.65625 0.71875,1.078125 1.5625,1.078125 0.96875,0 1.640625,-0.65625 1.640625,-1.34375 0,-0.546875 -0.4375,-1.09375 -1.203125,-1.25 0.71875,-0.265625 0.984375,-0.78125 0.984375,-1.21875 0,-0.546875 -0.625,-0.953125 -1.40625,-0.953125 -0.765625,0 -1.359375,0.375 -1.359375,0.9375 0,0.234375 0.15625,0.359375 0.359375,0.359375 0.21875,0 0.359375,-0.15625 0.359375,-0.34375 0,-0.203125 -0.140625,-0.359375 -0.359375,-0.375 0.25,-0.296875 0.71875,-0.375 0.984375,-0.375 0.3125,0 0.75,0.15625 0.75,0.75 0,0.296875 -0.09375,0.625 -0.28125,0.828125 -0.21875,0.265625 -0.421875,0.28125 -0.765625,0.3125 -0.171875,0.015625 -0.1875,0.015625 -0.21875,0.015625 -0.015625,0 -0.078125,0.015625 -0.078125,0.09375 0,0.09375 0.0625,0.09375 0.1875,0.09375 z m 0,0"
             style="stroke:#000000;stroke-width:0;stroke-opacity:1"
             inkscape:connector-curvature="0" />
        </g>
        <path
           id="path1078"
           transform="matrix(1,0,0,-1,303.184,148.12)"
           d="M -4.0625e-4,-0.00109375 H 31.480062"
           style="fill:none;stroke:#000000;stroke-width:0.398;stroke-linecap:butt;stroke-linejoin:miter;stroke-miterlimit:10;stroke-opacity:1"
           inkscape:connector-curvature="0" />
        <g
           id="g1082"
           style="fill:#000000;fill-opacity:1;stroke:#000000;stroke-opacity:1">
          <path
             id="path1080"
             transform="translate(310.536,157.444)"
             d="M 7.0625,-2.328125 C 7.078125,-2.375 7.109375,-2.4375 7.109375,-2.46875 c 0,0 0,-0.109375 -0.125,-0.109375 -0.09375,0 -0.109375,0.0625 -0.125,0.125 C 6.203125,-0.984375 5.84375,-0.3125 4.140625,-0.3125 H 2.6875 c -0.140625,0 -0.171875,0 -0.21875,0 -0.109375,-0.015625 -0.140625,-0.03125 -0.140625,-0.109375 0,-0.03125 0,-0.046875 0.046875,-0.21875 L 3.0625,-3.375 h 0.984375 c 0.84375,0 0.84375,0.21875 0.84375,0.46875 0,0.0625 0,0.1875 -0.0625,0.484375 C 4.8125,-2.375 4.796875,-2.34375 4.796875,-2.3125 c 0,0.046875 0.03125,0.109375 0.125,0.109375 C 5,-2.203125 5.03125,-2.25 5.078125,-2.40625 l 0.5625,-2.328125 c 0,-0.0625 -0.046875,-0.109375 -0.125,-0.109375 -0.078125,0 -0.109375,0.0625 -0.125,0.171875 -0.21875,0.765625 -0.390625,1 -1.3125,1 h -0.9375 l 0.59375,-2.40625 C 3.828125,-6.4375 3.84375,-6.46875 4.28125,-6.46875 H 5.6875 c 1.203125,0 1.515625,0.28125 1.515625,1.109375 0,0.234375 0,0.25 -0.046875,0.53125 0,0.046875 -0.015625,0.125 -0.015625,0.171875 0,0.046875 0.03125,0.125 0.125,0.125 0.109375,0 0.125,-0.0625 0.140625,-0.25 L 7.609375,-6.515625 C 7.640625,-6.78125 7.59375,-6.78125 7.34375,-6.78125 H 2.296875 c -0.1875,0 -0.296875,0 -0.296875,0.203125 0,0.109375 0.09375,0.109375 0.28125,0.109375 0.375,0 0.65625,0 0.65625,0.171875 0,0.046875 0,0.0625 -0.0625,0.25 L 1.5625,-0.78125 c -0.09375,0.390625 -0.109375,0.46875 -0.90625,0.46875 -0.171875,0 -0.28125,0 -0.28125,0.1875 C 0.375,0 0.46875,0 0.65625,0 h 5.171875 c 0.234375,0 0.25,-0.015625 0.3125,-0.171875 z m 0,0"
             style="stroke:#000000;stroke-width:0;stroke-opacity:1"
             inkscape:connector-curvature="0" />
        </g>
        <g
           id="g1086"
           style="fill:#000000;fill-opacity:1;stroke:#000000;stroke-opacity:1">
          <path
             id="path1084"
             transform="translate(318.46822,157.444)"
             d="M 3.734375,-6.046875 C 3.8125,-6.40625 3.84375,-6.5 4.640625,-6.5 c 0.234375,0 0.3125,0 0.3125,-0.1875 0,-0.125 -0.109375,-0.125 -0.140625,-0.125 -0.296875,0 -1.03125,0.03125 -1.328125,0.03125 -0.296875,0 -1.015625,-0.03125 -1.328125,-0.03125 -0.0625,0 -0.1875,0 -0.1875,0.203125 C 1.96875,-6.5 2.046875,-6.5 2.25,-6.5 c 0.40625,0 0.6875,0 0.6875,0.1875 0,0.046875 0,0.078125 -0.03125,0.15625 l -1.34375,5.375 c -0.09375,0.375 -0.109375,0.46875 -0.90625,0.46875 -0.234375,0 -0.3125,0 -0.3125,0.203125 C 0.34375,0 0.453125,0 0.484375,0 0.78125,0 1.5,-0.03125 1.796875,-0.03125 2.09375,-0.03125 2.828125,0 3.125,0 c 0.078125,0 0.203125,0 0.203125,-0.1875 0,-0.125 -0.078125,-0.125 -0.296875,-0.125 -0.1875,0 -0.234375,0 -0.421875,-0.015625 -0.21875,-0.015625 -0.25,-0.0625 -0.25,-0.171875 0,-0.078125 0.015625,-0.15625 0.03125,-0.234375 z m 0,0"
             style="stroke:#000000;stroke-width:0;stroke-opacity:1"
             inkscape:connector-curvature="0" />
        </g>
        <g
           id="g1090"
           style="fill:#000000;fill-opacity:1;stroke:#000000;stroke-opacity:1">
          <path
             id="path1088"
             transform="translate(322.844,158.939)"
             d="M 3.59375,-2.21875 C 3.59375,-2.984375 3.5,-3.546875 3.1875,-4.03125 2.96875,-4.34375 2.53125,-4.625 1.984375,-4.625 c -1.625,0 -1.625,1.90625 -1.625,2.40625 0,0.5 0,2.359375 1.625,2.359375 1.609375,0 1.609375,-1.859375 1.609375,-2.359375 z M 1.984375,-0.0625 c -0.328125,0 -0.75,-0.1875 -0.890625,-0.75 C 1,-1.21875 1,-1.796875 1,-2.3125 1,-2.828125 1,-3.359375 1.09375,-3.734375 1.25,-4.28125 1.6875,-4.4375 1.984375,-4.4375 c 0.375,0 0.734375,0.234375 0.859375,0.640625 0.109375,0.375 0.125,0.875 0.125,1.484375 0,0.515625 0,1.03125 -0.09375,1.46875 -0.140625,0.640625 -0.609375,0.78125 -0.890625,0.78125 z m 0,0"
             style="stroke:#000000;stroke-width:0;stroke-opacity:1"
             inkscape:connector-curvature="0" />
        </g>
      </g>
    </g>
  </g>
</svg>
