<?xml version="1.0" encoding="UTF-8" standalone="no"?>
<!-- Created with Inkscape (http://www.inkscape.org/) -->

<svg
   xmlns:dc="http://purl.org/dc/elements/1.1/"
   xmlns:cc="http://creativecommons.org/ns#"
   xmlns:rdf="http://www.w3.org/1999/02/22-rdf-syntax-ns#"
   xmlns:svg="http://www.w3.org/2000/svg"
   xmlns="http://www.w3.org/2000/svg"
   version="1.1"
   width="380.25415"
   height="95.068054"
   id="svg2">
  <defs
     id="defs4" />
  <metadata
     id="metadata7">
    <rdf:RDF>
      <cc:Work
         rdf:about="">
        <dc:format>image/svg+xml</dc:format>
        <dc:type
           rdf:resource="http://purl.org/dc/dcmitype/StillImage" />
        <dc:title></dc:title>
        <cc:license
           rdf:resource="http://creativecommons.org/licenses/by-nc/3.0/" />
      </cc:Work>
      <cc:License
         rdf:about="http://creativecommons.org/licenses/by-nc/3.0/">
        <cc:permits
           rdf:resource="http://creativecommons.org/ns#Reproduction" />
        <cc:permits
           rdf:resource="http://creativecommons.org/ns#Distribution" />
        <cc:requires
           rdf:resource="http://creativecommons.org/ns#Notice" />
        <cc:requires
           rdf:resource="http://creativecommons.org/ns#Attribution" />
        <cc:prohibits
           rdf:resource="http://creativecommons.org/ns#CommercialUse" />
        <cc:permits
           rdf:resource="http://creativecommons.org/ns#DerivativeWorks" />
      </cc:License>
    </rdf:RDF>
  </metadata>
  <g
     transform="translate(-258.32031,-246.1298)"
     id="layer2">
    <rect
       width="630"
       height="855"
       x="90"
       y="90"
       id="rect3040"
       style="fill:none;stroke:#000000;stroke-width:1px;stroke-linecap:butt;stroke-linejoin:miter;stroke-opacity:1" />
  </g>
  <g
     transform="translate(-258.32031,-308.4918)"
     id="layer1">
    <g
       id="g4108">
      <path
         d="m 270,332.362 360,0"
         id="path2998"
         style="fill:none;stroke:#000000;stroke-width:2.53546286;stroke-linecap:butt;stroke-linejoin:miter;stroke-opacity:1" />
      <g
         transform="matrix(1.25,0,0,1.25,360.49344,332.362)"
         id="use3513">
        <circle
           cx="0"
           cy="0"
           r="2.5"
           id="circle3573"
           style="fill:#ffffff;stroke:#000000;stroke-width:1" />
      </g>
      <g
         transform="matrix(1.25,0,0,1.25,270,332.362)"
         id="use90">
        <path
           d="M 0,0 4,6 -4,6 z"
           id="path5224"
           style="fill:#000000;stroke:#000000;stroke-width:0" />
        <path
           d="M -6,6 6,6"
           id="path5226"
           style="fill:none;stroke:#000000;stroke-width:1" />
        <path
           d="M 6,6 3,9 M 3,6 0,9 M 0,6 -3,9 m 0,-3 -3,3 m 0,-3 -3,3"
           id="path5228"
           style="fill:none;stroke:#000000;stroke-width:1" />
      </g>
      <g
         transform="matrix(1.25,0,0,1.25,405.19734,333.66466)"
         id="use3515">
        <circle
           cx="0"
           cy="3"
           r="3"
           id="circle5277"
           style="fill:#000000;stroke:#000000;stroke-width:0" />
        <path
           d="M -6,6 6,6"
           id="path5279"
           style="fill:none;stroke:#000000;stroke-width:1" />
        <path
           d="M 6,6 3,9 M 3,6 0,9 M 0,6 -3,9 m 0,-3 -3,3 m 0,-3 -3,3"
           id="path5281"
           style="fill:none;stroke:#000000;stroke-width:1" />
      </g>
      <g
         transform="matrix(1.25,0,0,1.25,495,332.362)"
         id="use90-2">
        <path
           d="M 0,0 4,6 -4,6 z"
           id="path5224-5"
           style="fill:#000000;stroke:#000000;stroke-width:0" />
        <path
           d="M -6,6 6,6"
           id="path5226-4"
           style="fill:none;stroke:#000000;stroke-width:1" />
        <path
           d="M 6,6 3,9 M 3,6 0,9 M 0,6 -3,9 m 0,-3 -3,3 m 0,-3 -3,3"
           id="path5228-7"
           style="fill:none;stroke:#000000;stroke-width:1" />
      </g>
      <g
         transform="matrix(1.25,0,0,1.25,630.64477,332.612)"
         id="use3515-4">
        <circle
           cx="0"
           cy="3"
           r="3"
           id="circle5277-4"
           style="fill:#000000;stroke:#000000;stroke-width:0" />
        <path
           d="M -6,6 6,6"
           id="path5279-3"
           style="fill:none;stroke:#000000;stroke-width:1" />
        <path
           d="M 6,6 3,9 M 3,6 0,9 M 0,6 -3,9 m 0,-3 -3,3 m 0,-3 -3,3"
           id="path5281-0"
           style="fill:none;stroke:#000000;stroke-width:1" />
      </g>
      <g
         transform="matrix(1.25,0,0,1.25,459.82234,332.362)"
         id="use3513-7">
        <circle
           cx="0"
           cy="0"
           r="2.5"
           id="circle3573-8"
           style="fill:#ffffff;stroke:#000000;stroke-width:1" />
      </g>
      <g
         transform="matrix(1.25,0,0,1.25,567.7039,332.362)"
         id="use3513-6">
        <circle
           cx="0"
           cy="0"
           r="2.5"
           id="circle3573-88"
           style="fill:#ffffff;stroke:#000000;stroke-width:1" />
      </g>
      <text
         x="366.44736"
         y="311.71054"
         transform="translate(0,62.362)"
         id="text3311"
         xml:space="preserve"
         style="font-size:11px;font-style:normal;font-variant:normal;font-weight:normal;font-stretch:normal;line-height:125%;letter-spacing:0px;word-spacing:0px;fill:#000000;fill-opacity:1;stroke:none;font-family:Verdana;-inkscape-font-specification:Verdana"><tspan
           x="366.44736"
           y="311.71054"
           id="tspan3313">r = 2 + 1 + 2 + 1 = 6</tspan><tspan
           x="366.44736"
           y="325.46054"
           id="tspan3315">c = 3</tspan><tspan
           x="366.44736"
           y="339.21054"
           id="tspan3317">r = 3 + c, but unstable</tspan></text>
      <path
         d="m 270,270 90,18 98.55263,-38.13158 108.55263,58.55263 63.81579,-38.81579"
         transform="translate(0,62.362)"
         id="path3319"
         style="fill:none;stroke:#000000;stroke-width:0.99000001;stroke-linecap:butt;stroke-linejoin:miter;stroke-miterlimit:4;stroke-opacity:1;stroke-dasharray:0.99, 1.98;stroke-dashoffset:0" />
      <circle
         cx="0"
         cy="0"
         r="2.5"
         transform="matrix(1.25,0,0,1.25,567,368.99358)"
         id="circle3573-88-3"
         style="fill:#ffffff;stroke:#000000;stroke-width:1;stroke-miterlimit:4;stroke-dasharray:1, 1;stroke-dashoffset:0" />
      <circle
         cx="0"
         cy="0"
         r="2.5"
         transform="matrix(1.25,0,0,1.25,457.56174,312.16367)"
         id="circle3573-88-3-1"
         style="fill:#ffffff;stroke:#000000;stroke-width:1;stroke-miterlimit:4;stroke-dasharray:1, 1;stroke-dashoffset:0" />
      <circle
         cx="0"
         cy="0"
         r="2.5"
         transform="matrix(1.25,0,0,1.25,359.56174,350.16367)"
         id="circle3573-88-3-1-4"
         style="fill:#ffffff;stroke:#000000;stroke-width:1;stroke-miterlimit:4;stroke-dasharray:1, 1;stroke-dashoffset:0" />
    </g>
  </g>
</svg>
