<?xml version="1.0" encoding="UTF-8" standalone="no"?>
<!-- Created with Inkscape (http://www.inkscape.org/) -->

<svg
   xmlns:ns0="http://www.iki.fi/pav/software/textext/"
   xmlns:dc="http://purl.org/dc/elements/1.1/"
   xmlns:cc="http://creativecommons.org/ns#"
   xmlns:rdf="http://www.w3.org/1999/02/22-rdf-syntax-ns#"
   xmlns:svg="http://www.w3.org/2000/svg"
   xmlns="http://www.w3.org/2000/svg"
   xmlns:xlink="http://www.w3.org/1999/xlink"
   xmlns:sodipodi="http://sodipodi.sourceforge.net/DTD/sodipodi-0.dtd"
   xmlns:inkscape="http://www.inkscape.org/namespaces/inkscape"
   width="405"
   height="122.4091"
   id="svg2"
   version="1.1"
   inkscape:version="0.92.4 (unknown)"
   sodipodi:docname="frame1-5.svg">
  <sodipodi:namedview
     id="base"
     pagecolor="#ffffff"
     bordercolor="#666666"
     borderopacity="1.0"
     inkscape:pageopacity="0.0"
     inkscape:pageshadow="2"
     inkscape:zoom="2.02"
     inkscape:cx="143.51056"
     inkscape:cy="16.467144"
     inkscape:document-units="in"
     inkscape:current-layer="layer1"
     showgrid="true"
     units="in"
     inkscape:window-width="1179"
     inkscape:window-height="979"
     inkscape:window-x="737"
     inkscape:window-y="94"
     inkscape:window-maximized="0"
     showguides="true"
     fit-margin-top="0.1"
     fit-margin-right="0.1"
     fit-margin-left="0.1"
     fit-margin-bottom="0.1"
     inkscape:snap-grids="false">
    <inkscape:grid
       spacingy="9"
       spacingx="9"
       units="in"
       snapvisiblegridlinesonly="true"
       enabled="true"
       visible="true"
       empspacing="5"
       id="grid2985"
       type="xygrid"
       originx="0"
       originy="0" />
    <sodipodi:guide
       id="guide3042"
       orientation="0,765"
       position="-200.73008,-759.07832"
       inkscape:locked="false" />
    <sodipodi:guide
       id="guide3044"
       orientation="-990,0"
       position="564.26992,-759.07832"
       inkscape:locked="false" />
    <sodipodi:guide
       id="guide3046"
       orientation="0,-765"
       position="564.26992,230.92168"
       inkscape:locked="false" />
    <sodipodi:guide
       id="guide3048"
       orientation="990,0"
       position="-200.73008,230.92168"
       inkscape:locked="false" />
    <sodipodi:guide
       id="guide3050"
       orientation="0,765"
       position="519.26992,-714.07832"
       inkscape:locked="false" />
    <sodipodi:guide
       id="guide3052"
       orientation="-990,0"
       position="519.26992,140.92168"
       inkscape:locked="false" />
    <sodipodi:guide
       id="guide3054"
       orientation="0,-765"
       position="-137.73008,140.92168"
       inkscape:locked="false" />
    <sodipodi:guide
       id="guide3056"
       orientation="990,0"
       position="-110.73008,167.92168"
       inkscape:locked="false" />
  </sodipodi:namedview>
  <script
     id="script3033"
     xlink:href="" />
  <defs
     id="defs4">
    <marker
       style="overflow:visible"
       id="Arrow1Mend"
       refX="0"
       refY="0"
       orient="auto"
       inkscape:stockid="Arrow1Mend">
      <path
         inkscape:connector-curvature="0"
         transform="matrix(-0.4,0,0,-0.4,-4,0)"
         style="fill-rule:evenodd;stroke:#000000;stroke-width:1pt;marker-start:none"
         d="M 0,0 5,-5 -12.5,0 5,5 0,0 z"
         id="path3952" />
    </marker>
    <marker
       inkscape:stockid="DimensionTick"
       orient="auto"
       refY="0"
       refX="0"
       id="DimensionTick"
       style="overflow:visible">
      <path
         inkscape:connector-curvature="0"
         d="M 0,0 8,8"
         style="stroke:#000000;stroke-width:1pt;marker-start:none"
         transform="translate(-4,-4)"
         id="path3934" />
    </marker>
    <marker
       id="MLArrowEnd"
       markerUnits="userSpaceOnUse"
       markerWidth="10"
       markerHeight="6"
       orient="auto"
       viewBox="0 0 10 6"
       refX="2"
       refY="3">
      <path
         d="M 0,0 10,3 0,6 2,3 z"
         id="path3454"
         inkscape:connector-curvature="0" />
    </marker>
  </defs>
  <metadata
     id="metadata7">
    <rdf:RDF>
      <cc:Work
         rdf:about="">
        <dc:format>image/svg+xml</dc:format>
        <dc:type
           rdf:resource="http://purl.org/dc/dcmitype/StillImage" />
        <dc:title />
        <cc:license
           rdf:resource="http://creativecommons.org/licenses/by-nc/3.0/" />
      </cc:Work>
      <cc:License
         rdf:about="http://creativecommons.org/licenses/by-nc/3.0/">
        <cc:permits
           rdf:resource="http://creativecommons.org/ns#Reproduction" />
        <cc:permits
           rdf:resource="http://creativecommons.org/ns#Distribution" />
        <cc:requires
           rdf:resource="http://creativecommons.org/ns#Notice" />
        <cc:requires
           rdf:resource="http://creativecommons.org/ns#Attribution" />
        <cc:prohibits
           rdf:resource="http://creativecommons.org/ns#CommercialUse" />
        <cc:permits
           rdf:resource="http://creativecommons.org/ns#DerivativeWorks" />
      </cc:License>
    </rdf:RDF>
  </metadata>
  <g
     transform="translate(-200.73008,-170.8746)"
     id="layer1"
     inkscape:groupmode="layer"
     inkscape:label="Layer 1">
    <g
       ns0:preamble="/home/nholtz/work/share/config/inkscape/extensions/amspreamble.tex"
       ns0:text="\\[\n\\int{}\n\\]\n"
       word-spacing="normal"
       letter-spacing="normal"
       font-size-adjust="none"
       font-stretch="normal"
       font-weight="normal"
       font-variant="normal"
       font-style="normal"
       stroke-miterlimit="10.433"
       xml:space="preserve"
       transform="matrix(1.5,0,0,-1.5,35.148514,1248.0396)"
       id="content"
       style="font-style:normal;font-variant:normal;font-weight:normal;font-stretch:normal;letter-spacing:normal;word-spacing:normal;text-anchor:start;fill:none;stroke:#000000;stroke-linecap:butt;stroke-linejoin:miter;stroke-miterlimit:10.43299961;stroke-opacity:1;stroke-dasharray:none;stroke-dashoffset:0">
<path
   id="path3419"
   d="m 154.2,688.4 0.04,0 0.03,0.01 0.03,0 0.03,0.01 0.02,0.01 0.03,0.01 0.03,0.01 0.02,0.01 0.03,0.01 0.02,0.01 0.02,0.01 0.03,0.02 0.02,0.01 0.02,0.02 0.01,0.02 0.02,0.01 0.02,0.02 0.01,0.02 0.02,0.02 0.01,0.02 0.01,0.02 0.01,0.03 0.01,0.02 0.01,0.02 0.01,0.02 0.01,0.03 0,0.02 0.01,0.02 0,0.03 0,0.02 0.01,0.03 0,0.02 c 0,0.36 -0.28,0.54 -0.53,0.54 -0.26,0 -0.53,-0.17 -0.53,-0.55 0,-0.55 0.55,-1.01 1.21,-1.01 1.65,0 2.27,2.55 3.05,5.71 0.84,3.44 1.54,6.91 2.13,10.41 0.41,2.32 0.81,4.49 1.18,5.9 0.13,0.53 0.5,1.94 0.92,1.94 0.34,0 0.61,-0.21 0.66,-0.25 -0.36,-0.03 -0.55,-0.27 -0.55,-0.54 0,-0.36 0.27,-0.53 0.52,-0.53 0.27,0 0.54,0.16 0.54,0.54 0,0.59 -0.59,1.02 -1.19,1.02 -0.83,0 -1.44,-1.19 -2.03,-3.41 -0.04,-0.12 -1.52,-5.59 -2.72,-12.71 -0.28,-1.66 -0.59,-3.48 -0.95,-5 -0.2,-0.79 -0.7,-2.84 -1.58,-2.84 -0.39,0 -0.66,0.25 -0.67,0.25 z"
   inkscape:connector-curvature="0"
   style="fill:#000000;stroke-width:0" />
</g>    <g
       transform="translate(6.9306931,-7.9207921)"
       id="g3723">
      <path
         style="fill:#e6e6e6;fill-opacity:1;fill-rule:nonzero;stroke:#000000;stroke-width:1;stroke-linecap:square;stroke-linejoin:miter;stroke-miterlimit:4;stroke-opacity:1;stroke-dasharray:none;stroke-dashoffset:0"
         d="m 317.19895,205.38797 0.49505,8.41584 26.23763,-8.91089 z"
         id="path3691"
         inkscape:connector-curvature="0" />
      <text
         xml:space="preserve"
         style="font-style:normal;font-variant:normal;font-weight:normal;font-stretch:normal;line-height:0%;font-family:Verdana;-inkscape-font-specification:Sans;text-align:start;letter-spacing:0px;word-spacing:0px;writing-mode:lr-tb;text-anchor:start;fill:#000000;fill-opacity:1;stroke:none"
         x="310.26825"
         y="222.21965"
         id="text3697"><tspan
           sodipodi:role="line"
           id="tspan3699"
           x="310.26825"
           y="222.21965"
           style="font-size:9px;line-height:1.25">-4PL</tspan></text>
    </g>
    <g
       id="g3728">
      <rect
         style="fill:#e6e6e6;stroke:#000000;stroke-width:1;stroke-linecap:square;stroke-linejoin:miter;stroke-miterlimit:4;stroke-opacity:1;stroke-dasharray:none;stroke-dashoffset:0"
         id="rect3689"
         width="27.227722"
         height="8.9108915"
         x="281.06033"
         y="195.48698" />
      <text
         xml:space="preserve"
         style="font-style:normal;font-variant:normal;font-weight:normal;font-stretch:normal;line-height:0%;font-family:Verdana;-inkscape-font-specification:Sans;text-align:start;letter-spacing:0px;word-spacing:0px;writing-mode:lr-tb;text-anchor:start;fill:#000000;fill-opacity:1;stroke:none"
         x="289.97122"
         y="212.81372"
         id="text3693"><tspan
           sodipodi:role="line"
           id="tspan3695"
           x="289.97122"
           y="212.81372"
           style="font-size:9px;line-height:1.25">4L</tspan></text>
      <text
         xml:space="preserve"
         style="font-style:normal;font-variant:normal;font-weight:normal;font-stretch:normal;line-height:0%;font-family:Verdana;-inkscape-font-specification:Sans;text-align:start;letter-spacing:0px;word-spacing:0px;writing-mode:lr-tb;text-anchor:start;fill:#000000;fill-opacity:1;stroke:none"
         x="306.26825"
         y="194.02162"
         id="text3701"><tspan
           sodipodi:role="line"
           id="tspan3703"
           x="306.26825"
           y="194.02162"
           style="font-size:9px;line-height:1.25">3L</tspan></text>
    </g>
    <g
       ns0:preamble="/home/nholtz/work/share/config/inkscape/extensions/amspreamble.tex"
       ns0:text="\\[\n\\Delta_{10} = \\frac{1}{EI_0}\n\\]\n"
       word-spacing="normal"
       letter-spacing="normal"
       font-size-adjust="none"
       font-stretch="normal"
       font-weight="normal"
       font-variant="normal"
       font-style="normal"
       stroke-miterlimit="10.433"
       xml:space="preserve"
       transform="matrix(1.1,0,0,-1.1,40.792079,966.53469)"
       id="g3768"
       style="font-style:normal;font-variant:normal;font-weight:normal;font-stretch:normal;letter-spacing:normal;word-spacing:normal;text-anchor:start;fill:none;stroke:#000000;stroke-linecap:butt;stroke-linejoin:miter;stroke-miterlimit:10.43299961;stroke-opacity:1;stroke-dasharray:none;stroke-dashoffset:0">
<path
   id="path3770"
   d="m 157.88,705.3 0,0.01 -0.01,0.01 -0.01,0.01 0,0.02 -0.01,0.01 0,0.01 -0.01,0.01 -0.01,0.01 0,0.01 -0.01,0 0,0.01 -0.01,0.01 -0.01,0.01 0,0 -0.01,0.01 -0.01,0.01 0,0 -0.01,0.01 -0.01,0 -0.01,0.01 -0.01,0 -0.01,0.01 -0.01,0 -0.01,0 -0.01,0 -0.01,0.01 -0.01,0 -0.02,0 -0.01,0 -0.02,0 -0.01,0 -0.02,0 c -0.19,0 -0.21,-0.05 -0.28,-0.19 l -0.07,-0.9 2.93,-5.88 h -5.87 l 2.94,5.88 0.07,0.9 -3.68,-7.39 c -0.06,-0.09 -0.06,-0.12 -0.06,-0.13 0,-0.08 0.07,-0.08 0.24,-0.08 h 7.56 c 0.17,0 0.24,0 0.24,0.08 0,0.01 0,0.04 -0.06,0.13 z"
   inkscape:connector-curvature="0"
   style="fill:#000000;stroke-width:0" />
<path
   id="path3772"
   d="m 164.66,701.12 0,0.01 0,0.01 0,0.01 0,0.01 0,0.01 0,0.01 0,0.01 0,0 0,0.01 0,0.01 0,0.01 0,0 0,0.01 0,0.01 0,0 0,0.01 -0.01,0 0,0.01 0,0 0,0.01 0,0.01 -0.01,0.01 0,0 0,0.01 -0.01,0.01 0,0 -0.01,0.01 -0.01,0 0,0.01 -0.01,0 -0.01,0 -0.01,0.01 -0.01,0 -0.01,0 -0.01,0 -0.01,0 0,0 -0.01,0 -0.01,0 0,0 -0.01,0 -0.01,0 -0.01,0 0,0 -0.01,0 -0.01,0 -0.01,0 -0.01,0 -0.01,0 -0.01,0 c -0.33,-0.31 -0.75,-0.5 -1.5,-0.5 v -0.27 c 0.21,0 0.64,0 1.1,0.22 v -4.08 c 0,-0.29 -0.02,-0.39 -0.78,-0.39 h -0.28 v -0.26 c 0.33,0.02 1.02,0.02 1.37,0.02 0.36,0 1.05,0 1.38,-0.02 v 0.26 h -0.28 c -0.76,0 -0.78,0.1 -0.78,0.39 z"
   inkscape:connector-curvature="0"
   style="fill:#000000;stroke-width:0" />
<path
   id="path3774"
   d="m 170.29,698.59 0,0.08 0,0.08 0,0.08 -0.01,0.07 0,0.07 0,0.07 0,0.07 -0.01,0.07 0,0.06 -0.01,0.06 -0.01,0.07 0,0.06 -0.02,0.12 -0.02,0.11 -0.02,0.11 -0.03,0.11 -0.02,0.1 -0.04,0.1 -0.03,0.1 -0.04,0.1 -0.04,0.09 -0.05,0.1 c -0.35,0.7 -1,0.87 -1.43,0.87 v -0.22 c 0.27,0 0.82,-0.13 0.98,-0.86 0.09,-0.43 0.09,-1.03 0.09,-1.57 0,-0.47 0,-1.18 -0.09,-1.63 -0.17,-0.83 -0.72,-0.94 -0.98,-0.94 h 0 c -0.27,0 -0.82,0.12 -0.99,0.96 -0.09,0.45 -0.09,1.2 -0.09,1.61 0,0.55 0,1.1 0.09,1.54 0.17,0.81 0.79,0.89 0.99,0.89 v 0.22 c -1.01,0 -1.37,-0.74 -1.49,-0.96 -0.28,-0.59 -0.3,-1.37 -0.3,-1.79 0,-0.52 0.03,-1.32 0.41,-1.96 0.36,-0.59 0.95,-0.74 1.38,-0.74 0.38,0 1.06,0.12 1.46,0.91 0.29,0.57 0.32,1.28 0.32,1.79 z"
   inkscape:connector-curvature="0"
   style="fill:#000000;stroke-width:0" />
<path
   id="path3776"
   d="m 181.64,701.26 0.03,0 0.03,0 0.03,0 0.02,0 0.02,0 0.01,0 0.02,0 0.01,0 0.02,0.01 0.01,0 0.02,0 0.01,0.01 0.02,0 0.01,0.01 0.01,0 0.01,0.01 0.02,0.01 0.01,0.01 0.01,0.01 0.01,0.01 0.01,0.01 0,0 0,0.01 0.01,0.01 0,0 0,0.01 0.01,0.01 0,0 0,0.01 0,0.01 0,0.01 0.01,0.01 0,0.01 0,0 0,0.01 0,0.01 0,0.01 c 0,0.22 -0.21,0.22 -0.36,0.22 h -6.52 c -0.15,0 -0.36,0 -0.36,-0.22 0,-0.21 0.21,-0.21 0.37,-0.21 z"
   inkscape:connector-curvature="0"
   style="fill:#000000;stroke-width:0" />
<path
   id="path3778"
   d="m 181.65,699.14 0.01,0 0.02,0 0.03,0 0.03,0.01 0.02,0 0.01,0 0.02,0 0.01,0 0.02,0 0.01,0.01 0.02,0 0.01,0 0.01,0.01 0.02,0 0.01,0.01 0.01,0 0.02,0.01 0.01,0.01 0.01,0.01 0.01,0 0.01,0.01 0,0.01 0.01,0.01 0,0 0,0.01 0.01,0 0,0.01 0,0.01 0.01,0 0,0.01 0,0.01 0,0.01 0,0.01 0.01,0 0,0.01 0,0.01 0,0.01 0,0.01 0,0.01 c 0,0.22 -0.21,0.22 -0.37,0.22 h -6.5 c -0.16,0 -0.37,0 -0.37,-0.22 0,-0.22 0.21,-0.22 0.36,-0.22 z"
   inkscape:connector-curvature="0"
   style="fill:#000000;stroke-width:0" />
<path
   id="path3780"
   d="m 196.45,712.04 0,0.02 0,0.01 0,0.01 0,0.01 0,0.01 0,0.01 0,0.01 0,0.01 0,0.01 0,0.01 0,0.01 0,0.01 0,0.01 0,0 -0.01,0.01 0,0.01 0,0.01 0,0 0,0.02 0,0.01 -0.01,0.01 0,0.01 0,0.01 -0.01,0.01 0,0 -0.01,0.01 -0.01,0.01 0,0 -0.01,0.01 -0.01,0 -0.01,0 0,0 -0.01,0.01 0,0 -0.01,0 -0.01,0 0,0 -0.01,0 -0.01,0 -0.01,0 0,0 -0.01,0.01 -0.01,0 -0.01,0 -0.01,0 -0.01,0 -0.01,0 -0.01,0 -0.01,0 -0.01,0 -0.01,0 -0.01,0 c -0.68,-0.7 -1.63,-0.7 -1.98,-0.7 v -0.34 c 0.21,0 0.86,0 1.42,0.29 v -5.64 c 0,-0.4 -0.03,-0.53 -1.01,-0.53 h -0.35 v -0.33 c 0.38,0.03 1.33,0.03 1.76,0.03 0.44,0 1.39,0 1.77,-0.03 v 0.33 h -0.35 c -0.98,0 -1.01,0.12 -1.01,0.53 z"
   inkscape:connector-curvature="0"
   style="fill:#000000;stroke-width:0" />
<line
   id="line3782"
   y2="700.41998"
   x2="205.08"
   y1="700.41998"
   x1="186.87"
   style="stroke-width:0.43599999" />
<path
   id="path3784"
   d="m 194.58,692.75 0,0.01 0,0 0.01,0.01 0,0.01 0.01,0.01 0,0.02 0.01,0.01 0,0.01 0,0.01 0.01,0 0,0.01 0,0 0,0.01 0,0 0,0.01 0.01,0 0,0.01 0,0 0,0 0,0.01 0,0 0,0 0,0.01 0,0 0,0 c 0,0.01 0,0.12 -0.13,0.12 -0.1,0 -0.12,-0.06 -0.14,-0.13 -0.71,-1.61 -1.11,-2.34 -2.97,-2.34 h -1.59 c -0.15,0 -0.18,0 -0.24,0.01 -0.11,0.01 -0.14,0.02 -0.14,0.11 0,0.03 0,0.05 0.05,0.25 l 0.74,2.97 h 1.08 c 0.92,0 0.92,-0.23 0.92,-0.5 0,-0.07 0,-0.2 -0.07,-0.53 -0.02,-0.06 -0.03,-0.09 -0.03,-0.12 0,-0.06 0.04,-0.12 0.14,-0.12 0.09,0 0.12,0.05 0.16,0.22 l 0.62,2.55 c 0,0.06 -0.05,0.12 -0.13,0.12 -0.1,0 -0.12,-0.07 -0.15,-0.2 -0.23,-0.83 -0.43,-1.08 -1.43,-1.08 h -1.02 l 0.65,2.62 c 0.1,0.39 0.11,0.43 0.59,0.43 h 1.54 c 1.32,0 1.65,-0.32 1.65,-1.21 0,-0.26 0,-0.28 -0.04,-0.58 0,-0.06 -0.01,-0.14 -0.01,-0.19 0,-0.06 0.03,-0.13 0.13,-0.13 0.12,0 0.13,0.06 0.15,0.27 l 0.22,1.88 c 0.03,0.3 -0.03,0.3 -0.3,0.3 h -5.5 c -0.21,0 -0.32,0 -0.32,-0.22 0,-0.12 0.1,-0.12 0.3,-0.12 0.4,0 0.71,0 0.71,-0.2 0,-0.04 0,-0.06 -0.05,-0.26 l -1.44,-5.76 c -0.11,-0.42 -0.13,-0.51 -0.99,-0.51 -0.19,0 -0.31,0 -0.31,-0.21 0,-0.13 0.1,-0.13 0.31,-0.13 h 5.65 c 0.25,0 0.26,0.01 0.34,0.19 z"
   inkscape:connector-curvature="0"
   style="fill:#000000;stroke-width:0" />
<path
   id="path3786"
   d="m 199.63,696.81 0.01,0.04 0,0.03 0.01,0.03 0.01,0.04 0.01,0.02 0.01,0.03 0.01,0.03 0.01,0.02 0.01,0.03 0.02,0.02 0.01,0.02 0.02,0.02 0.01,0.02 0.02,0.02 0.02,0.01 0.03,0.02 0.02,0.01 0.03,0.01 0.03,0.02 0.03,0.01 0.04,0.01 0.02,0 0.02,0 0.02,0.01 0.02,0 0.02,0.01 0.02,0 0.03,0 0.02,0 0.03,0.01 0.03,0 0.02,0 0.03,0 0.03,0.01 0.03,0 0.03,0 0.04,0 0.03,0 0.04,0 0.03,0 0.04,0 0.04,0 0.04,0 c 0.26,0 0.35,0 0.35,0.21 0,0.13 -0.12,0.13 -0.17,0.13 -0.31,0 -1.12,-0.03 -1.43,-0.03 -0.33,0 -1.13,0.03 -1.45,0.03 -0.08,0 -0.22,0 -0.22,-0.22 0,-0.12 0.1,-0.12 0.31,-0.12 0.45,0 0.75,0 0.75,-0.2 0,-0.06 0,-0.08 -0.03,-0.18 l -1.47,-5.87 c -0.09,-0.4 -0.13,-0.51 -0.99,-0.51 -0.25,0 -0.34,0 -0.34,-0.22 0,-0.12 0.13,-0.12 0.16,-0.12 0.31,0 1.11,0.04 1.42,0.04 0.33,0 1.14,-0.04 1.46,-0.04 0.09,0 0.22,0 0.22,0.21 0,0.13 -0.09,0.13 -0.32,0.13 -0.2,0 -0.26,0 -0.47,0.02 -0.23,0.02 -0.28,0.07 -0.28,0.19 0,0.08 0.03,0.17 0.05,0.25 z"
   inkscape:connector-curvature="0"
   style="fill:#000000;stroke-width:0" />
<path
   id="path3788"
   d="m 204.24,691.11 0,0.08 0,0.08 0,0.07 -0.01,0.08 0,0.07 0,0.07 0,0.07 -0.01,0.06 0,0.07 -0.01,0.06 -0.01,0.06 0,0.06 -0.02,0.12 -0.02,0.12 -0.02,0.11 -0.02,0.1 -0.03,0.11 -0.04,0.1 -0.03,0.1 -0.04,0.1 -0.04,0.09 -0.05,0.1 c -0.35,0.7 -1,0.87 -1.43,0.87 v -0.22 c 0.27,0 0.82,-0.14 0.97,-0.86 0.1,-0.44 0.1,-1.03 0.1,-1.57 0,-0.47 0,-1.19 -0.1,-1.63 -0.16,-0.84 -0.71,-0.95 -0.97,-0.95 h 0 c -0.27,0 -0.82,0.13 -0.99,0.96 -0.09,0.46 -0.09,1.2 -0.09,1.62 0,0.55 0,1.1 0.09,1.54 0.17,0.81 0.79,0.89 0.99,0.89 v 0.22 c -1.01,0 -1.37,-0.75 -1.48,-0.97 -0.29,-0.58 -0.31,-1.36 -0.31,-1.78 0,-0.52 0.03,-1.33 0.41,-1.96 0.37,-0.59 0.95,-0.74 1.38,-0.74 0.38,0 1.06,0.12 1.46,0.91 0.29,0.57 0.32,1.27 0.32,1.79 z"
   inkscape:connector-curvature="0"
   style="fill:#000000;stroke-width:0" />
</g>    <g
       style="font-style:normal;font-variant:normal;font-weight:normal;font-stretch:normal;letter-spacing:normal;word-spacing:normal;text-anchor:start;fill:none;stroke:#000000;stroke-linecap:butt;stroke-linejoin:miter;stroke-miterlimit:10.43299961;stroke-opacity:1;stroke-dasharray:none;stroke-dashoffset:0"
       ns0:preamble="/home/nholtz/work/share/config/inkscape/extensions/amspreamble.tex"
       ns0:text="\\[\n\\begin{split}\n\\Delta_{10} &amp;= \\frac{1}{EI_0} \\times \\frac{4L}{2} \\times 3L \\times -4PL\\\\\n &amp;= -\\frac{24 P L^3}{E I_0}\n\\end{split}\n\\]\n"
       word-spacing="normal"
       letter-spacing="normal"
       font-size-adjust="none"
       font-stretch="normal"
       font-weight="normal"
       font-variant="normal"
       font-style="normal"
       stroke-miterlimit="10.433"
       xml:space="preserve"
       transform="matrix(1.1,0,0,-1.1,40.792079,1008.5347)"
       id="g4057">
<path
   id="path4059"
   d="m 159.7,704.87 -0.01,0.02 0,0.01 -0.01,0.01 0,0.01 -0.01,0.01 -0.01,0.01 0,0.01 -0.01,0.01 0,0.01 -0.01,0.01 -0.01,0.01 0,0.01 -0.01,0 -0.01,0.01 0,0.01 -0.01,0 -0.01,0.01 0,0 -0.01,0.01 -0.01,0 -0.01,0.01 -0.01,0 -0.01,0 -0.01,0.01 -0.01,0 -0.01,0 -0.02,0 -0.01,0.01 -0.01,0 -0.02,0 -0.01,0 -0.02,0 c -0.19,0 -0.21,-0.06 -0.28,-0.2 l -0.07,-0.89 2.93,-5.88 h -5.87 l 2.94,5.88 0.07,0.89 -3.68,-7.38 c -0.06,-0.1 -0.06,-0.12 -0.06,-0.13 0,-0.09 0.07,-0.09 0.24,-0.09 h 7.56 c 0.17,0 0.24,0 0.24,0.09 0,0.01 0,0.03 -0.06,0.13 z"
   inkscape:connector-curvature="0"
   style="fill:#000000;stroke-width:0" />
<path
   id="path4061"
   d="m 166.48,700.7 0,0.01 0,0.01 0,0.01 0,0.01 0,0 0,0.01 0,0.01 0,0.01 0,0.01 0,0 0,0.01 0,0.01 0,0.01 -0.01,0 0,0.01 0,0 0,0.01 0,0 0,0.01 0,0.01 0,0 -0.01,0.01 0,0.01 -0.01,0.01 0,0 -0.01,0.01 0,0.01 -0.01,0 -0.01,0 0,0.01 -0.01,0 -0.01,0 -0.01,0 -0.02,0.01 0,0 -0.01,0 0,0 -0.01,0 -0.01,0 -0.01,0 0,0 -0.01,0 -0.01,0 -0.01,0 -0.01,0 0,0 -0.01,0 -0.01,0 -0.01,0 -0.01,0 c -0.33,-0.32 -0.75,-0.51 -1.51,-0.51 v -0.26 c 0.22,0 0.65,0 1.11,0.21 v -4.07 c 0,-0.3 -0.02,-0.39 -0.78,-0.39 h -0.28 v -0.26 c 0.33,0.02 1.01,0.02 1.37,0.02 0.36,0 1.05,0 1.38,-0.02 v 0.26 h -0.28 c -0.76,0 -0.78,0.09 -0.78,0.39 z"
   inkscape:connector-curvature="0"
   style="fill:#000000;stroke-width:0" />
<path
   id="path4063"
   d="m 172.11,698.17 0,0.08 0,0.08 -0.01,0.07 0,0.07 0,0.08 0,0.07 -0.01,0.06 0,0.07 -0.01,0.07 0,0.06 -0.01,0.06 0,0.06 -0.02,0.12 -0.02,0.12 -0.02,0.11 -0.03,0.1 -0.03,0.11 -0.03,0.1 -0.03,0.1 -0.04,0.09 -0.05,0.1 -0.04,0.1 c -0.35,0.7 -1,0.87 -1.44,0.87 v -0.22 c 0.27,0 0.82,-0.14 0.98,-0.86 0.1,-0.44 0.1,-1.03 0.1,-1.57 0,-0.47 0,-1.19 -0.1,-1.63 -0.16,-0.84 -0.71,-0.95 -0.98,-0.95 h 0 c -0.27,0 -0.82,0.13 -0.98,0.96 -0.09,0.46 -0.09,1.2 -0.09,1.62 0,0.55 0,1.1 0.09,1.54 0.16,0.81 0.78,0.89 0.98,0.89 v 0.22 c -1,0 -1.36,-0.75 -1.48,-0.97 -0.28,-0.58 -0.3,-1.37 -0.3,-1.78 0,-0.52 0.03,-1.33 0.41,-1.96 0.36,-0.59 0.95,-0.74 1.37,-0.74 0.39,0 1.07,0.12 1.47,0.91 0.29,0.57 0.32,1.27 0.32,1.79 z"
   inkscape:connector-curvature="0"
   style="fill:#000000;stroke-width:0" />
<path
   id="path4065"
   d="m 183.46,700.83 0.03,0 0.03,0 0.03,0 0.02,0 0.01,0.01 0.02,0 0.02,0 0.01,0 0.02,0 0.01,0.01 0.02,0 0.01,0 0.01,0.01 0.02,0 0.01,0.01 0.01,0.01 0.01,0.01 0.01,0 0.01,0.01 0.01,0.01 0.01,0.01 0.01,0.01 0,0.01 0,0 0.01,0.01 0,0.01 0,0 0.01,0.01 0,0.01 0,0.01 0,0 0,0.01 0.01,0.01 0,0.01 0,0.01 0,0.01 0,0.01 c 0,0.22 -0.21,0.22 -0.36,0.22 h -6.52 c -0.16,0 -0.36,0 -0.36,-0.22 0,-0.22 0.2,-0.22 0.37,-0.22 z"
   inkscape:connector-curvature="0"
   style="fill:#000000;stroke-width:0" />
<path
   id="path4067"
   d="m 183.47,698.72 0.01,0 0.02,0 0.03,0 0.03,0 0.01,0 0.02,0 0.01,0 0.02,0.01 0.01,0 0.02,0 0.01,0 0.02,0.01 0.01,0 0.02,0.01 0.01,0 0.01,0.01 0.01,0.01 0.01,0 0.02,0.01 0.01,0.01 0,0.01 0.01,0.01 0,0 0.01,0.01 0,0 0,0.01 0.01,0.01 0,0 0,0.01 0.01,0.01 0,0.01 0,0 0,0.01 0,0.01 0.01,0.01 0,0.01 0,0.01 0,0.01 0,0.01 c 0,0.22 -0.21,0.22 -0.37,0.22 h -6.5 c -0.17,0 -0.37,0 -0.37,-0.22 0,-0.22 0.2,-0.22 0.36,-0.22 z"
   inkscape:connector-curvature="0"
   style="fill:#000000;stroke-width:0" />
<path
   id="path4069"
   d="m 198.27,711.62 0,0.01 0,0.01 0,0.02 0,0.01 0,0.01 0,0.01 0,0.01 0,0.01 0,0.01 0,0.01 -0.01,0.01 0,0 0,0.01 0,0.01 0,0.01 0,0.01 0,0 0,0.01 0,0.01 0,0.01 -0.01,0.02 0,0.01 0,0 -0.01,0.01 -0.01,0.01 0,0.01 -0.01,0 -0.01,0.01 -0.01,0 0,0.01 -0.01,0 -0.01,0 0,0 -0.01,0 0,0.01 -0.01,0 -0.01,0 0,0 -0.01,0 -0.01,0 -0.01,0 0,0 -0.01,0 -0.01,0 -0.01,0 -0.01,0 -0.01,0 -0.01,0 -0.01,0 -0.01,0 -0.01,0 -0.01,0 c -0.68,-0.69 -1.64,-0.69 -1.99,-0.69 v -0.34 c 0.22,0 0.86,0 1.43,0.28 v -5.64 c 0,-0.39 -0.03,-0.52 -1.01,-0.52 h -0.35 v -0.34 c 0.38,0.03 1.33,0.03 1.76,0.03 0.44,0 1.39,0 1.77,-0.03 v 0.34 h -0.35 c -0.98,0 -1.01,0.12 -1.01,0.52 z"
   inkscape:connector-curvature="0"
   style="fill:#000000;stroke-width:0" />
<line
   id="line4071"
   y2="700"
   x2="206.89999"
   y1="700"
   x1="188.69"
   style="stroke-width:0.43599999" />
<path
   id="path4073"
   d="m 196.4,692.33 0,0 0,0.01 0,0.01 0.01,0.01 0,0.01 0.01,0.01 0,0.01 0.01,0.01 0,0.01 0,0.01 0.01,0 0,0.01 0,0 0,0.01 0,0 0,0.01 0.01,0 0,0.01 0,0 0,0 0,0.01 0,0 0,0 0,0.01 0,0 c 0,0.01 0,0.12 -0.13,0.12 -0.1,0 -0.12,-0.07 -0.14,-0.13 -0.71,-1.61 -1.11,-2.34 -2.97,-2.34 h -1.59 c -0.16,0 -0.18,0 -0.24,0.01 -0.11,0.01 -0.14,0.02 -0.14,0.11 0,0.03 0,0.05 0.05,0.25 l 0.74,2.97 h 1.08 c 0.92,0 0.92,-0.23 0.92,-0.5 0,-0.08 0,-0.21 -0.07,-0.54 -0.03,-0.05 -0.04,-0.08 -0.04,-0.11 0,-0.06 0.05,-0.12 0.15,-0.12 0.08,0 0.12,0.05 0.16,0.21 l 0.62,2.55 c 0,0.07 -0.05,0.12 -0.13,0.12 -0.1,0 -0.12,-0.06 -0.15,-0.19 -0.23,-0.83 -0.43,-1.08 -1.43,-1.08 h -1.02 l 0.65,2.62 c 0.1,0.38 0.11,0.43 0.59,0.43 h 1.53 c 1.33,0 1.66,-0.32 1.66,-1.21 0,-0.26 0,-0.29 -0.04,-0.58 0,-0.06 -0.02,-0.14 -0.02,-0.2 0,-0.05 0.04,-0.13 0.13,-0.13 0.12,0 0.14,0.07 0.16,0.28 l 0.21,1.88 c 0.04,0.29 -0.02,0.29 -0.29,0.29 h -5.5 c -0.22,0 -0.32,0 -0.32,-0.22 0,-0.11 0.09,-0.11 0.3,-0.11 0.4,0 0.71,0 0.71,-0.2 0,-0.04 0,-0.07 -0.06,-0.26 l -1.43,-5.76 c -0.11,-0.43 -0.13,-0.51 -0.99,-0.51 -0.19,0 -0.31,0 -0.31,-0.21 0,-0.13 0.1,-0.13 0.31,-0.13 h 5.65 c 0.25,0 0.26,0.01 0.33,0.18 z"
   inkscape:connector-curvature="0"
   style="fill:#000000;stroke-width:0" />
<path
   id="path4075"
   d="m 201.45,696.39 0,0.03 0.01,0.04 0.01,0.03 0.01,0.03 0.01,0.03 0.01,0.03 0.01,0.03 0.01,0.02 0.01,0.02 0.02,0.03 0.01,0.02 0.01,0.02 0.02,0.02 0.02,0.01 0.02,0.02 0.02,0.01 0.03,0.02 0.03,0.01 0.03,0.01 0.03,0.01 0.04,0.01 0.02,0.01 0.01,0 0.03,0 0.02,0.01 0.02,0 0.02,0 0.03,0.01 0.02,0 0.03,0 0.02,0.01 0.03,0 0.03,0 0.03,0 0.03,0 0.03,0 0.04,0 0.03,0.01 0.03,0 0.04,0 0.04,0 0.04,0 0.04,0 c 0.26,0 0.34,0 0.34,0.2 0,0.14 -0.12,0.14 -0.16,0.14 -0.32,0 -1.12,-0.04 -1.44,-0.04 -0.32,0 -1.12,0.04 -1.44,0.04 -0.08,0 -0.22,0 -0.22,-0.22 0,-0.12 0.1,-0.12 0.3,-0.12 0.46,0 0.75,0 0.75,-0.21 0,-0.05 0,-0.08 -0.02,-0.17 l -1.47,-5.87 c -0.1,-0.41 -0.13,-0.51 -0.99,-0.51 -0.25,0 -0.35,0 -0.35,-0.22 0,-0.12 0.13,-0.12 0.17,-0.12 0.31,0 1.11,0.03 1.42,0.03 0.33,0 1.13,-0.03 1.46,-0.03 0.09,0 0.22,0 0.22,0.21 0,0.13 -0.09,0.13 -0.33,0.13 -0.19,0 -0.25,0 -0.47,0.02 -0.22,0.02 -0.27,0.06 -0.27,0.18 0,0.09 0.02,0.18 0.05,0.25 z"
   inkscape:connector-curvature="0"
   style="fill:#000000;stroke-width:0" />
<path
   id="path4077"
   d="m 206.06,690.69 0,0.08 0,0.07 -0.01,0.08 0,0.07 0,0.07 0,0.07 -0.01,0.07 0,0.07 -0.01,0.06 0,0.07 -0.01,0.06 0,0.06 -0.02,0.12 -0.02,0.11 -0.02,0.11 -0.03,0.11 -0.03,0.1 -0.03,0.1 -0.03,0.1 -0.04,0.1 -0.05,0.1 -0.04,0.09 c -0.35,0.7 -1,0.88 -1.44,0.88 v -0.23 c 0.27,0 0.82,-0.13 0.98,-0.85 0.1,-0.44 0.1,-1.04 0.1,-1.58 0,-0.47 0,-1.18 -0.1,-1.63 -0.16,-0.83 -0.71,-0.94 -0.98,-0.94 h 0 c -0.27,0 -0.82,0.13 -0.98,0.96 -0.09,0.45 -0.09,1.2 -0.09,1.61 0,0.55 0,1.11 0.09,1.54 0.16,0.82 0.78,0.89 0.98,0.89 v 0.23 c -1,0 -1.37,-0.75 -1.48,-0.97 -0.28,-0.58 -0.3,-1.37 -0.3,-1.78 0,-0.53 0.02,-1.33 0.41,-1.97 0.36,-0.58 0.95,-0.74 1.37,-0.74 0.39,0 1.07,0.12 1.47,0.91 0.29,0.57 0.32,1.28 0.32,1.8 z"
   inkscape:connector-curvature="0"
   style="fill:#000000;stroke-width:0" />
<path
   id="path4079"
   d="m 214.75,700.3 -2.18,2.17 c -0.13,0.13 -0.15,0.15 -0.23,0.15 -0.11,0 -0.22,-0.1 -0.22,-0.22 0,-0.08 0.02,-0.1 0.14,-0.22 l 2.18,-2.19 -2.18,-2.18 c -0.12,-0.12 -0.14,-0.15 -0.14,-0.22 0,-0.12 0.11,-0.22 0.22,-0.22 0.08,0 0.1,0.02 0.23,0.15 l 2.17,2.17 2.26,-2.26 c 0.02,-0.01 0.09,-0.06 0.16,-0.06 0.13,0 0.22,0.1 0.22,0.22 0,0.02 0,0.06 -0.04,0.12 -0.01,0.02 -1.74,1.73 -2.28,2.28 l 1.99,2 c 0.05,0.06 0.22,0.2 0.27,0.27 0.01,0.02 0.06,0.06 0.06,0.14 0,0.12 -0.09,0.22 -0.22,0.22 -0.09,0 -0.13,-0.04 -0.25,-0.16 z"
   inkscape:connector-curvature="0"
   style="fill:#000000;stroke-width:0" />
<path
   id="path4081"
   d="m 225.82,706.45 v -0.95 c 0,-0.39 -0.02,-0.51 -0.83,-0.51 h -0.22 v -0.34 c 0.44,0.03 1.01,0.03 1.47,0.03 0.45,0 1.03,0 1.48,-0.03 v 0.34 h -0.23 c -0.81,0 -0.83,0.12 -0.83,0.51 v 0.95 h 1.09 v 0.34 h -1.09 v 4.95 c 0,0.22 0,0.28 -0.17,0.28 -0.1,0 -0.13,0 -0.22,-0.13 l -3.34,-5.1 h 0.3 l 2.66,4.06 v -4.06 h -2.66 -0.3 v -0.34 z"
   inkscape:connector-curvature="0"
   style="fill:#000000;stroke-width:0" />
<path
   id="path4083"
   d="m 232.15,711.24 0.01,0.04 0.01,0.03 0,0.03 0.01,0.03 0.01,0.03 0.01,0.03 0.01,0.03 0.02,0.03 0.01,0.02 0.01,0.02 0.02,0.02 0.02,0.02 0.02,0.02 0.02,0.02 0.02,0.02 0.03,0.01 0.03,0.02 0.03,0.01 0.03,0.01 0.04,0.01 0.02,0.01 0.03,0 0.02,0.01 0.02,0 0.03,0.01 0.02,0 0.03,0 0.02,0.01 0.03,0 0.03,0 0.03,0 0.03,0.01 0.04,0 0.03,0 0.04,0 0.03,0.01 0.04,0 0.04,0 0.04,0 0.04,0 0.04,0 0.05,0 0.04,0 0.05,0 c 0.33,0 0.42,0 0.42,0.21 0,0.13 -0.12,0.13 -0.18,0.13 -0.36,0 -1.25,-0.03 -1.61,-0.03 -0.33,0 -1.12,0.03 -1.45,0.03 -0.07,0 -0.21,0 -0.21,-0.22 0,-0.12 0.1,-0.12 0.31,-0.12 0.02,0 0.23,0 0.41,-0.02 0.2,-0.02 0.3,-0.03 0.3,-0.18 0,-0.04 -0.01,-0.07 -0.05,-0.2 l -1.45,-5.85 c -0.11,-0.42 -0.14,-0.51 -1,-0.51 -0.18,0 -0.29,0 -0.29,-0.22 0,-0.12 0.1,-0.12 0.29,-0.12 h 5.05 c 0.26,0 0.27,0 0.33,0.19 l 0.86,2.35 c 0.05,0.12 0.05,0.14 0.05,0.15 0,0.05 -0.04,0.12 -0.13,0.12 -0.1,0 -0.11,-0.05 -0.19,-0.23 -0.37,-1 -0.85,-2.24 -2.73,-2.24 h -1.02 c -0.16,0 -0.18,0 -0.25,0.01 -0.1,0.01 -0.14,0.02 -0.14,0.11 0,0.03 0,0.05 0.06,0.25 z"
   inkscape:connector-curvature="0"
   style="fill:#000000;stroke-width:0" />
<line
   id="line4085"
   y2="700"
   x2="235.5"
   y1="700"
   x1="222.62"
   style="stroke-width:0.43599999" />
<path
   id="path4087"
   d="m 227.72,690.63 1.15,1.12 c 1.7,1.5 2.35,2.09 2.35,3.18 0,1.24 -0.98,2.11 -2.31,2.11 -1.23,0 -2.03,-1 -2.03,-1.97 0,-0.61 0.54,-0.61 0.58,-0.61 0.18,0 0.56,0.13 0.56,0.58 0,0.28 -0.19,0.56 -0.57,0.56 -0.09,0 -0.11,0 -0.15,-0.01 0.25,0.71 0.84,1.11 1.47,1.11 0.99,0 1.46,-0.88 1.46,-1.77 0,-0.87 -0.54,-1.73 -1.14,-2.41 L 227,690.19 c -0.12,-0.12 -0.12,-0.14 -0.12,-0.4 h 4.04 l 0.3,1.89 h -0.27 c -0.05,-0.32 -0.13,-0.8 -0.24,-0.96 -0.08,-0.09 -0.79,-0.09 -1.03,-0.09 z"
   inkscape:connector-curvature="0"
   style="fill:#000000;stroke-width:0" />
<path
   id="path4089"
   d="m 243.36,700.3 -2.18,2.17 c -0.13,0.13 -0.16,0.15 -0.24,0.15 -0.11,0 -0.22,-0.1 -0.22,-0.22 0,-0.08 0.02,-0.1 0.14,-0.22 l 2.18,-2.19 -2.18,-2.18 c -0.12,-0.12 -0.14,-0.15 -0.14,-0.22 0,-0.12 0.11,-0.22 0.22,-0.22 0.08,0 0.11,0.02 0.24,0.15 l 2.17,2.17 2.25,-2.26 c 0.02,-0.01 0.1,-0.06 0.16,-0.06 0.13,0 0.22,0.1 0.22,0.22 0,0.02 0,0.06 -0.03,0.12 -0.01,0.02 -1.74,1.73 -2.29,2.28 l 1.99,2 c 0.06,0.06 0.22,0.2 0.28,0.27 0.01,0.02 0.05,0.06 0.05,0.14 0,0.12 -0.09,0.22 -0.22,0.22 -0.08,0 -0.13,-0.04 -0.25,-0.16 z"
   inkscape:connector-curvature="0"
   style="fill:#000000;stroke-width:0" />
<path
   id="path4091"
   d="m 253.19,701.1 0.08,0.03 0.08,0.04 0.08,0.03 0.08,0.04 0.07,0.04 0.08,0.04 0.07,0.04 0.07,0.05 0.07,0.05 0.07,0.05 0.06,0.05 0.06,0.05 0.06,0.06 0.06,0.06 0.05,0.06 0.05,0.06 0.05,0.06 0.05,0.07 0.04,0.07 0.04,0.06 0.04,0.07 0.04,0.07 0.03,0.08 0.03,0.07 0.02,0.07 0.03,0.08 0.02,0.08 0.01,0.07 0.01,0.08 0.01,0.08 0.01,0.08 0,0.08 c 0,0.89 -0.96,1.5 -2,1.5 -1.1,0 -1.93,-0.65 -1.93,-1.48 0,-0.36 0.24,-0.56 0.56,-0.56 0.33,0 0.55,0.24 0.55,0.55 0,0.55 -0.51,0.55 -0.67,0.55 0.33,0.53 1.05,0.67 1.44,0.67 0.45,0 1.05,-0.24 1.05,-1.22 0,-0.13 -0.02,-0.76 -0.31,-1.24 -0.32,-0.52 -0.69,-0.56 -0.97,-0.57 -0.08,-0.01 -0.34,-0.03 -0.42,-0.03 -0.09,-0.01 -0.16,-0.02 -0.16,-0.13 0,-0.12 0.07,-0.12 0.26,-0.12 h 0.48 c 0.89,0 1.29,-0.74 1.29,-1.81 0,-1.48 -0.75,-1.79 -1.23,-1.79 -0.47,0 -1.28,0.18 -1.66,0.82 0.38,-0.05 0.72,0.19 0.72,0.6 0,0.4 -0.3,0.61 -0.61,0.61 -0.26,0 -0.61,-0.15 -0.61,-0.63 0,-0.99 1.01,-1.71 2.2,-1.71 1.32,0 2.32,0.99 2.32,2.1 0,0.9 -0.69,1.75 -1.82,1.97 z"
   inkscape:connector-curvature="0"
   style="fill:#000000;stroke-width:0" />
<path
   id="path4093"
   d="m 259.56,703.86 0.01,0.04 0,0.03 0.01,0.03 0.01,0.03 0.01,0.03 0.01,0.03 0.01,0.03 0.01,0.03 0.02,0.02 0.01,0.02 0.02,0.02 0.01,0.02 0.02,0.02 0.03,0.02 0.02,0.02 0.03,0.01 0.03,0.02 0.03,0.01 0.03,0.01 0.04,0.01 0.02,0.01 0.02,0 0.03,0.01 0.02,0 0.02,0.01 0.03,0 0.02,0 0.03,0.01 0.03,0 0.03,0 0.03,0 0.03,0.01 0.03,0 0.04,0 0.03,0 0.04,0.01 0.04,0 0.04,0 0.04,0 0.04,0 0.04,0 0.05,0 0.04,0 0.05,0 c 0.33,0 0.41,0 0.41,0.21 0,0.13 -0.12,0.13 -0.17,0.13 -0.36,0 -1.25,-0.03 -1.61,-0.03 -0.33,0 -1.12,0.03 -1.45,0.03 -0.08,0 -0.21,0 -0.21,-0.22 0,-0.12 0.1,-0.12 0.31,-0.12 0.02,0 0.23,0 0.41,-0.02 0.2,-0.02 0.3,-0.03 0.3,-0.18 0,-0.04 -0.02,-0.07 -0.05,-0.2 l -1.46,-5.85 c -0.11,-0.42 -0.13,-0.51 -0.99,-0.51 -0.18,0 -0.29,0 -0.29,-0.22 0,-0.12 0.1,-0.12 0.29,-0.12 h 5.04 c 0.27,0 0.28,0 0.34,0.19 l 0.86,2.35 c 0.04,0.12 0.04,0.14 0.04,0.15 0,0.05 -0.03,0.12 -0.12,0.12 -0.1,0 -0.11,-0.05 -0.19,-0.23 -0.37,-1 -0.85,-2.24 -2.73,-2.24 h -1.03 c -0.15,0 -0.17,0 -0.24,0.01 -0.1,0.01 -0.14,0.02 -0.14,0.11 0,0.03 0,0.05 0.06,0.25 z"
   inkscape:connector-curvature="0"
   style="fill:#000000;stroke-width:0" />
<path
   id="path4095"
   d="m 269.57,700.3 -2.18,2.17 c -0.13,0.13 -0.15,0.15 -0.24,0.15 -0.11,0 -0.22,-0.1 -0.22,-0.22 0,-0.08 0.02,-0.1 0.14,-0.22 l 2.18,-2.19 -2.18,-2.18 c -0.12,-0.12 -0.14,-0.15 -0.14,-0.22 0,-0.12 0.11,-0.22 0.22,-0.22 0.09,0 0.11,0.02 0.24,0.15 l 2.17,2.17 2.25,-2.26 c 0.02,-0.01 0.1,-0.06 0.16,-0.06 0.14,0 0.22,0.1 0.22,0.22 0,0.02 0,0.06 -0.03,0.12 -0.01,0.02 -1.74,1.73 -2.29,2.28 l 1.99,2 c 0.06,0.06 0.22,0.2 0.28,0.27 0.01,0.02 0.05,0.06 0.05,0.14 0,0.12 -0.08,0.22 -0.22,0.22 -0.08,0 -0.13,-0.04 -0.25,-0.16 z"
   inkscape:connector-curvature="0"
   style="fill:#000000;stroke-width:0" />
<path
   id="path4097"
   d="m 283.41,699.78 0.04,0 0.03,0 0.04,0 0.02,0 0.01,0 0.02,0 0.02,0 0.01,0 0.02,0.01 0.01,0 0.02,0 0.01,0.01 0.01,0 0.02,0.01 0.01,0 0.01,0.01 0.01,0.01 0.01,0.01 0.01,0.01 0.01,0.01 0.01,0.01 0.01,0 0,0.01 0,0.01 0.01,0 0,0.01 0,0.01 0,0 0.01,0.01 0,0.01 0,0.01 0,0.01 0,0.01 0,0 0.01,0.01 0,0.01 0,0.01 c 0,0.22 -0.2,0.22 -0.39,0.22 h -5.89 c -0.18,0 -0.38,0 -0.38,-0.22 0,-0.21 0.2,-0.21 0.38,-0.21 z"
   inkscape:connector-curvature="0"
   style="fill:#000000;stroke-width:0" />
<path
   id="path4099"
   d="m 287.93,699.07 v -0.95 c 0,-0.39 -0.03,-0.51 -0.83,-0.51 h -0.23 v -0.34 c 0.45,0.03 1.01,0.03 1.47,0.03 0.46,0 1.04,0 1.48,-0.03 v 0.34 h -0.23 c -0.8,0 -0.82,0.12 -0.82,0.51 v 0.95 h 1.08 v 0.34 h -1.08 v 4.95 c 0,0.22 0,0.28 -0.18,0.28 -0.1,0 -0.13,0 -0.22,-0.13 l -3.34,-5.1 h 0.31 l 2.65,4.06 v -4.06 h -2.65 -0.31 v -0.34 z"
   inkscape:connector-curvature="0"
   style="fill:#000000;stroke-width:0" />
<path
   id="path4101"
   d="m 293.48,700.71 0.04,0.29 0.74,2.96 c 0.1,0.38 0.12,0.41 0.59,0.41 h 1.05 c 0.9,0 1.48,-0.29 1.48,-1.04 0,-0.43 -0.22,-1.36 -0.64,-1.76 -0.55,-0.49 -1.2,-0.57 -1.68,-0.57 h -1.54 l -0.04,-0.29 h 1.85 c 1.55,0 3.06,1.13 3.06,2.36 0,0.83 -0.72,1.64 -2.14,1.64 h -3.53 c -0.21,0 -0.33,0 -0.33,-0.21 0,-0.13 0.1,-0.13 0.32,-0.13 0.14,0 0.34,-0.01 0.46,-0.02 0.18,-0.02 0.25,-0.06 0.25,-0.18 0,-0.04 -0.02,-0.07 -0.05,-0.2 l -1.46,-5.85 c -0.11,-0.42 -0.13,-0.51 -0.99,-0.51 -0.18,0 -0.3,0 -0.3,-0.21 0,-0.13 0.13,-0.13 0.16,-0.13 0.3,0 1.08,0.03 1.38,0.03 0.23,0 0.47,-0.01 0.7,-0.01 0.24,0 0.48,-0.02 0.71,-0.02 0.07,0 0.22,0 0.22,0.22 0,0.12 -0.1,0.12 -0.31,0.12 -0.4,0 -0.71,0 -0.71,0.2 0,0.06 0.02,0.11 0.03,0.18 z"
   inkscape:connector-curvature="0"
   style="fill:#000000;stroke-width:0" />
<path
   id="path4103"
   d="m 302.77,703.86 0.01,0.04 0.01,0.03 0.01,0.03 0.01,0.03 0.01,0.03 0.01,0.03 0.01,0.03 0.01,0.03 0.01,0.02 0.02,0.02 0.01,0.02 0.02,0.02 0.02,0.02 0.02,0.02 0.03,0.02 0.02,0.01 0.03,0.02 0.03,0.01 0.04,0.01 0.04,0.01 0.02,0.01 0.02,0 0.02,0.01 0.03,0 0.02,0.01 0.03,0 0.02,0 0.03,0.01 0.03,0 0.03,0 0.03,0 0.03,0.01 0.03,0 0.04,0 0.03,0 0.04,0.01 0.04,0 0.03,0 0.04,0 0.05,0 0.04,0 0.04,0 0.05,0 0.05,0 c 0.32,0 0.41,0 0.41,0.21 0,0.13 -0.12,0.13 -0.17,0.13 -0.36,0 -1.25,-0.03 -1.61,-0.03 -0.33,0 -1.13,0.03 -1.45,0.03 -0.08,0 -0.21,0 -0.21,-0.22 0,-0.12 0.1,-0.12 0.3,-0.12 0.03,0 0.23,0 0.42,-0.02 0.2,-0.02 0.29,-0.03 0.29,-0.18 0,-0.04 -0.01,-0.07 -0.04,-0.2 l -1.46,-5.85 c -0.11,-0.42 -0.13,-0.51 -0.99,-0.51 -0.19,0 -0.29,0 -0.29,-0.22 0,-0.12 0.09,-0.12 0.29,-0.12 h 5.04 c 0.26,0 0.27,0 0.34,0.19 l 0.86,2.35 c 0.04,0.12 0.04,0.14 0.04,0.15 0,0.05 -0.03,0.12 -0.13,0.12 -0.1,0 -0.11,-0.05 -0.18,-0.23 -0.37,-1 -0.85,-2.24 -2.74,-2.24 h -1.02 c -0.15,0 -0.17,0 -0.24,0.01 -0.11,0.01 -0.14,0.02 -0.14,0.11 0,0.03 0,0.05 0.05,0.25 z"
   inkscape:connector-curvature="0"
   style="fill:#000000;stroke-width:0" />
<path
   id="path4105"
   d="m 183.46,671.25 0.03,0 0.03,0 0.03,0 0.02,0 0.01,0.01 0.02,0 0.02,0 0.01,0 0.02,0 0.01,0.01 0.02,0 0.01,0 0.01,0.01 0.02,0 0.01,0.01 0.01,0.01 0.01,0.01 0.01,0 0.01,0.01 0.01,0.01 0.01,0.01 0.01,0.01 0,0.01 0,0 0.01,0.01 0,0.01 0,0 0.01,0.01 0,0.01 0,0.01 0,0 0,0.01 0.01,0.01 0,0.01 0,0.01 0,0.01 0,0.01 c 0,0.22 -0.21,0.22 -0.36,0.22 h -6.52 c -0.16,0 -0.36,0 -0.36,-0.22 0,-0.22 0.2,-0.22 0.37,-0.22 z"
   inkscape:connector-curvature="0"
   style="fill:#000000;stroke-width:0" />
<path
   id="path4107"
   d="m 183.47,669.14 0.01,0 0.02,0 0.03,0 0.03,0 0.01,0 0.02,0 0.01,0 0.02,0.01 0.01,0 0.02,0 0.01,0 0.02,0.01 0.01,0 0.02,0.01 0.01,0 0.01,0.01 0.01,0.01 0.01,0 0.02,0.01 0.01,0.01 0,0.01 0.01,0.01 0,0 0.01,0.01 0,0 0,0.01 0.01,0.01 0,0 0,0.01 0.01,0.01 0,0.01 0,0 0,0.01 0,0.01 0.01,0.01 0,0.01 0,0.01 0,0.01 0,0.01 c 0,0.22 -0.21,0.22 -0.37,0.22 h -6.5 c -0.17,0 -0.37,0 -0.37,-0.22 0,-0.22 0.2,-0.22 0.36,-0.22 z"
   inkscape:connector-curvature="0"
   style="fill:#000000;stroke-width:0" />
<path
   id="path4109"
   d="m 194.67,670.2 0.03,0 0.04,0 0.03,0 0.02,0 0.02,0 0.01,0 0.02,0 0.01,0 0.02,0.01 0.02,0 0.01,0 0.01,0.01 0.02,0 0.01,0.01 0.01,0 0.02,0.01 0.01,0.01 0.01,0.01 0.01,0.01 0.01,0.01 0.01,0.01 0,0 0,0.01 0.01,0.01 0,0 0,0.01 0.01,0.01 0,0 0,0.01 0,0.01 0,0.01 0.01,0.01 0,0.01 0,0 0,0.01 0,0.01 0,0.01 c 0,0.22 -0.2,0.22 -0.38,0.22 h -5.89 c -0.19,0 -0.38,0 -0.38,-0.22 0,-0.21 0.19,-0.21 0.38,-0.21 z"
   inkscape:connector-curvature="0"
   style="fill:#000000;stroke-width:0" />
<path
   id="path4111"
   d="m 198.55,675.91 1.16,1.12 c 1.7,1.5 2.35,2.09 2.35,3.18 0,1.24 -0.98,2.11 -2.31,2.11 -1.23,0 -2.03,-1 -2.03,-1.97 0,-0.61 0.54,-0.61 0.57,-0.61 0.19,0 0.57,0.13 0.57,0.58 0,0.28 -0.2,0.57 -0.58,0.57 -0.08,0 -0.11,0 -0.14,-0.01 0.25,0.7 0.84,1.11 1.47,1.11 0.99,0 1.46,-0.89 1.46,-1.78 0,-0.87 -0.54,-1.73 -1.14,-2.41 l -2.09,-2.33 c -0.12,-0.12 -0.12,-0.14 -0.12,-0.4 h 4.04 l 0.3,1.9 h -0.27 c -0.06,-0.33 -0.13,-0.81 -0.24,-0.97 -0.08,-0.09 -0.8,-0.09 -1.04,-0.09 z"
   inkscape:connector-curvature="0"
   style="fill:#000000;stroke-width:0" />
<path
   id="path4113"
   d="m 205.83,676.87 v -0.95 c 0,-0.39 -0.02,-0.51 -0.83,-0.51 h -0.23 v -0.34 c 0.45,0.03 1.01,0.03 1.47,0.03 0.46,0 1.04,0 1.48,-0.03 v 0.34 h -0.23 c -0.8,0 -0.82,0.12 -0.82,0.51 v 0.95 h 1.09 v 0.34 h -1.09 v 4.95 c 0,0.22 0,0.28 -0.18,0.28 -0.1,0 -0.13,0 -0.22,-0.13 l -3.34,-5.1 h 0.31 l 2.65,4.06 v -4.06 h -2.65 -0.31 v -0.34 z"
   inkscape:connector-curvature="0"
   style="fill:#000000;stroke-width:0" />
<path
   id="path4115"
   d="m 211.38,678.51 0.05,0.29 0.73,2.96 c 0.1,0.38 0.13,0.41 0.59,0.41 h 1.05 c 0.9,0 1.48,-0.29 1.48,-1.04 0,-0.43 -0.22,-1.36 -0.64,-1.76 -0.55,-0.49 -1.2,-0.57 -1.68,-0.57 h -1.53 l -0.05,-0.29 h 1.85 c 1.55,0 3.06,1.14 3.06,2.35 0,0.84 -0.72,1.65 -2.14,1.65 h -3.53 c -0.21,0 -0.33,0 -0.33,-0.21 0,-0.13 0.1,-0.13 0.32,-0.13 0.14,0 0.34,-0.01 0.47,-0.02 0.17,-0.02 0.24,-0.06 0.24,-0.18 0,-0.04 -0.02,-0.07 -0.05,-0.2 l -1.46,-5.85 c -0.11,-0.42 -0.13,-0.51 -0.99,-0.51 -0.18,0 -0.3,0 -0.3,-0.21 0,-0.13 0.13,-0.13 0.16,-0.13 0.31,0 1.08,0.03 1.38,0.03 0.23,0 0.47,-0.01 0.7,-0.01 0.24,0 0.48,-0.02 0.71,-0.02 0.07,0 0.22,0 0.22,0.22 0,0.12 -0.1,0.12 -0.31,0.12 -0.4,0 -0.71,0 -0.71,0.2 0,0.06 0.03,0.11 0.04,0.18 z"
   inkscape:connector-curvature="0"
   style="fill:#000000;stroke-width:0" />
<path
   id="path4117"
   d="m 220.67,681.66 0.01,0.04 0.01,0.03 0.01,0.03 0.01,0.03 0.01,0.03 0.01,0.03 0.01,0.03 0.01,0.03 0.01,0.02 0.02,0.02 0.01,0.02 0.02,0.02 0.02,0.02 0.02,0.02 0.03,0.02 0.02,0.01 0.03,0.02 0.04,0.01 0.03,0.01 0.04,0.01 0.02,0.01 0.02,0 0.02,0.01 0.03,0 0.02,0.01 0.03,0 0.02,0 0.03,0.01 0.03,0 0.03,0 0.03,0 0.03,0.01 0.03,0 0.04,0 0.03,0 0.04,0.01 0.04,0 0.04,0 0.04,0 0.04,0 0.04,0 0.04,0 0.05,0 0.05,0 c 0.32,0 0.41,0 0.41,0.21 0,0.13 -0.12,0.13 -0.17,0.13 -0.36,0 -1.25,-0.03 -1.61,-0.03 -0.33,0 -1.12,0.03 -1.45,0.03 -0.08,0 -0.21,0 -0.21,-0.22 0,-0.12 0.1,-0.12 0.31,-0.12 0.02,0 0.23,0 0.41,-0.02 0.2,-0.02 0.29,-0.03 0.29,-0.18 0,-0.04 -0.01,-0.07 -0.04,-0.2 l -1.46,-5.85 c -0.11,-0.42 -0.13,-0.51 -0.99,-0.51 -0.18,0 -0.29,0 -0.29,-0.22 0,-0.12 0.09,-0.12 0.29,-0.12 h 5.04 c 0.26,0 0.27,0 0.34,0.19 l 0.86,2.35 c 0.04,0.12 0.04,0.14 0.04,0.15 0,0.04 -0.03,0.12 -0.13,0.12 -0.09,0 -0.11,-0.05 -0.18,-0.23 -0.37,-1 -0.85,-2.24 -2.74,-2.24 h -1.02 c -0.15,0 -0.17,0 -0.24,0.01 -0.11,0.01 -0.14,0.02 -0.14,0.11 0,0.03 0,0.05 0.05,0.25 z"
   inkscape:connector-curvature="0"
   style="fill:#000000;stroke-width:0" />
<path
   id="path4119"
   d="m 226.04,681.68 0.06,0 0.05,0 0.06,-0.01 0.05,-0.01 0.06,-0.01 0.05,-0.01 0.05,-0.02 0.04,-0.02 0.05,-0.02 0.05,-0.03 0.04,-0.02 0.04,-0.03 0.04,-0.04 0.04,-0.03 0.03,-0.04 0.04,-0.04 0.03,-0.04 0.03,-0.05 0.03,-0.04 0.03,-0.05 0.02,-0.06 0.02,-0.05 0.02,-0.06 0.02,-0.06 0.02,-0.06 0.01,-0.06 0.02,-0.07 0.01,-0.06 0,-0.08 0.01,-0.07 0,-0.07 0.01,-0.08 c 0,-0.99 -0.57,-1.29 -0.99,-1.29 -0.44,0 -1.04,0.16 -1.32,0.58 0.29,0 0.49,0.18 0.49,0.45 0,0.25 -0.18,0.44 -0.44,0.44 -0.21,0 -0.43,-0.14 -0.43,-0.46 0,-0.75 0.81,-1.25 1.71,-1.25 1.06,0 1.8,0.73 1.8,1.53 0,0.66 -0.52,1.26 -1.33,1.44 0.62,0.22 1.09,0.76 1.09,1.4 0,0.63 -0.71,1.09 -1.54,1.09 -0.85,0 -1.5,-0.47 -1.5,-1.07 0,-0.29 0.2,-0.42 0.41,-0.42 0.25,0 0.41,0.17 0.41,0.4 0,0.3 -0.26,0.41 -0.43,0.42 0.33,0.44 0.94,0.46 1.09,0.46 0.2,0 0.81,-0.07 0.81,-0.88 0,-0.56 -0.23,-0.89 -0.34,-1.02 -0.24,-0.25 -0.43,-0.26 -0.91,-0.29 -0.15,-0.01 -0.22,-0.02 -0.22,-0.12 0,-0.12 0.08,-0.12 0.21,-0.12 z"
   inkscape:connector-curvature="0"
   style="fill:#000000;stroke-width:0" />
<line
   id="line4121"
   y2="670.41998"
   x2="228.75999"
   y1="670.41998"
   x1="197.17"
   style="stroke-width:0.43599999" />
<path
   id="path4123"
   d="m 211.57,662.75 0,0 0,0.01 0.01,0.01 0,0.01 0.01,0.01 0,0.01 0.01,0.01 0,0.01 0,0.01 0.01,0.01 0,0 0,0.01 0,0 0,0.01 0.01,0 0,0.01 0,0 0,0.01 0,0 0,0 0,0.01 0,0 0,0 0,0.01 0,0 c 0,0.01 0,0.12 -0.13,0.12 -0.09,0 -0.12,-0.07 -0.14,-0.13 -0.71,-1.61 -1.11,-2.34 -2.97,-2.34 h -1.59 c -0.15,0 -0.17,0 -0.24,0.01 -0.11,0.01 -0.14,0.02 -0.14,0.11 0,0.03 0,0.05 0.05,0.25 l 0.74,2.97 h 1.08 c 0.93,0 0.93,-0.23 0.93,-0.5 0,-0.08 0,-0.21 -0.08,-0.54 -0.02,-0.05 -0.03,-0.08 -0.03,-0.12 0,-0.05 0.04,-0.12 0.14,-0.12 0.09,0 0.12,0.06 0.16,0.22 l 0.62,2.55 c 0,0.07 -0.05,0.12 -0.13,0.12 -0.1,0 -0.12,-0.07 -0.15,-0.2 -0.23,-0.82 -0.42,-1.07 -1.43,-1.07 h -1.02 l 0.65,2.62 c 0.1,0.38 0.11,0.43 0.59,0.43 h 1.54 c 1.33,0 1.65,-0.32 1.65,-1.21 0,-0.26 0,-0.29 -0.04,-0.58 0,-0.07 -0.01,-0.14 -0.01,-0.2 0,-0.05 0.03,-0.13 0.13,-0.13 0.12,0 0.13,0.07 0.15,0.27 l 0.22,1.89 c 0.03,0.29 -0.02,0.29 -0.3,0.29 h -5.49 c -0.22,0 -0.33,0 -0.33,-0.21 0,-0.12 0.1,-0.12 0.3,-0.12 0.41,0 0.71,0 0.71,-0.2 0,-0.04 0,-0.07 -0.05,-0.26 l -1.44,-5.76 c -0.11,-0.43 -0.13,-0.51 -0.99,-0.51 -0.19,0 -0.31,0 -0.31,-0.21 0,-0.13 0.1,-0.13 0.31,-0.13 h 5.65 c 0.25,0 0.26,0.01 0.34,0.18 z"
   inkscape:connector-curvature="0"
   style="fill:#000000;stroke-width:0" />
<path
   id="path4125"
   d="m 216.62,666.81 0.01,0.03 0.01,0.04 0,0.03 0.01,0.03 0.01,0.03 0.01,0.03 0.01,0.03 0.01,0.02 0.02,0.02 0.01,0.03 0.01,0.02 0.02,0.02 0.02,0.02 0.01,0.01 0.02,0.02 0.03,0.01 0.02,0.02 0.03,0.01 0.03,0.01 0.03,0.01 0.04,0.01 0.02,0.01 0.02,0 0.02,0 0.02,0.01 0.02,0 0.03,0 0.02,0.01 0.02,0 0.03,0 0.03,0.01 0.02,0 0.03,0 0.03,0 0.03,0 0.04,0 0.03,0 0.03,0.01 0.04,0 0.03,0 0.04,0 0.04,0 0.04,0 c 0.26,0 0.35,0 0.35,0.21 0,0.13 -0.12,0.13 -0.17,0.13 -0.31,0 -1.12,-0.04 -1.43,-0.04 -0.33,0 -1.12,0.04 -1.45,0.04 -0.08,0 -0.22,0 -0.22,-0.22 0,-0.12 0.1,-0.12 0.31,-0.12 0.45,0 0.75,0 0.75,-0.21 0,-0.05 0,-0.07 -0.02,-0.17 l -1.47,-5.87 c -0.1,-0.4 -0.14,-0.51 -1,-0.51 -0.25,0 -0.34,0 -0.34,-0.22 0,-0.12 0.13,-0.12 0.16,-0.12 0.32,0 1.11,0.03 1.43,0.03 0.32,0 1.13,-0.03 1.45,-0.03 0.09,0 0.22,0 0.22,0.21 0,0.13 -0.08,0.13 -0.32,0.13 -0.2,0 -0.26,0 -0.47,0.02 -0.23,0.02 -0.27,0.06 -0.27,0.18 0,0.09 0.02,0.18 0.04,0.25 z"
   inkscape:connector-curvature="0"
   style="fill:#000000;stroke-width:0" />
<path
   id="path4127"
   d="m 221.23,661.11 0,0.08 0,0.07 0,0.08 -0.01,0.07 0,0.07 0,0.07 0,0.07 -0.01,0.07 0,0.06 -0.01,0.07 -0.01,0.06 0,0.06 -0.02,0.12 -0.02,0.11 -0.02,0.11 -0.02,0.11 -0.03,0.1 -0.04,0.11 -0.03,0.09 -0.04,0.1 -0.04,0.1 -0.05,0.09 c -0.35,0.7 -1,0.88 -1.43,0.88 v -0.22 c 0.27,0 0.82,-0.14 0.98,-0.86 0.09,-0.44 0.09,-1.04 0.09,-1.58 0,-0.47 0,-1.18 -0.09,-1.63 -0.17,-0.83 -0.72,-0.94 -0.98,-0.94 h 0 c -0.27,0 -0.82,0.13 -0.99,0.96 -0.09,0.45 -0.09,1.2 -0.09,1.61 0,0.55 0,1.11 0.09,1.54 0.17,0.82 0.79,0.9 0.99,0.9 v 0.22 c -1.01,0 -1.37,-0.75 -1.48,-0.97 -0.29,-0.58 -0.31,-1.37 -0.31,-1.78 0,-0.53 0.03,-1.33 0.41,-1.96 0.36,-0.59 0.95,-0.74 1.38,-0.74 0.38,0 1.06,0.12 1.46,0.9 0.3,0.57 0.32,1.28 0.32,1.8 z"
   inkscape:connector-curvature="0"
   style="fill:#000000;stroke-width:0" />
</g>  </g>
</svg>
