<?xml version="1.0" standalone="yes"?>
<!DOCTYPE svg PUBLIC "-//W3C//DTD SVG 1.1//EN" 
  "http://www.w3.org/Graphics/SVG/1.1/DTD/svg11.dtd">
<svg xmlns="http://www.w3.org/2000/svg"
     xmlns:xlink="http://www.w3.org/1999/xlink"
     version="1.1"
     width="8.5in" 
     height="11.0in" 
     viewBox="0 0 612 792">
  <defs>
    <style type="text/css"><![CDATA[
    .elem {
	stroke-width: 2.0;
	stroke: black;
	}
    path.dim {
       stroke-width: 0.5;
       stroke: black;
       }
    path.guides {
       stroke-width: 0.5;
       stroke: grey;
       }
    text.dwglabel {
       font-family: Verdana, Arial;
       font-size: 10px;
       font-weight: bold;
       fill: black;
       text-align: center;
       text-anchor: start;
       }
    text.dim {
       font-family: Verdana, Arial;
       font-size: 8px;
       font-weight: bold;
       fill: black;
       text-align: center;
       text-anchor: middle;
       }
    text.guides {
       font-family: Verdana, Arial;
       font-size: 8px;
       font-weight: normal;
       font-style: italic;
       fill: black;
       text-align: center;
       text-anchor: middle;
       }
    text.vmlabel {
       font-family: Verdana, Arial;
       font-size: 8px;
       font-style: italic;
       fill: black;
       }
    text.notes {
       font-family: Verdana, Arial;
       font-size: 9px;
       font-weight: normal;
       font-style: italic;
       fill: black;
       text-align: center;
       text-anchor: left;
       }
    text.ptlabel {
       font-family: Verdana, Arial;
       font-size: 7px;
       font-style: italic;
       fill: black;
       text-align: center;
       text-anchor: start;
       }
     path.cload {
       fill: none;
       stroke-width: 1;
       stroke: black; 
       marker-end: url(#CLArrowEnd);
     }
      path.mload {
       fill: none;
       stroke-width: 1;
       stroke: black; 
       marker-end: url(#MLArrowEnd);
     }
      path.mloadInkscape {
       fill: none;
       stroke-width: 1;
       stroke: black; 
       marker-end: url(#MLArrowStart);
     }
     polygon.dload {
       fill: rgb(240,240,240);
       opacity: 0.5; /* if < 1, REALLY slows down printing of the pdfs */
       stroke-width: 1;
       stroke: black; 
     }
     path.dload {
       fill: none;
       stroke-width: 1;
       stroke: black; 
       marker-end: url(#DLArrowEnd);
     }
     path.dloadna {
       fill: none;
       stroke-width: 1;
       stroke: black; 
     }
     path.vdiag {
       fill: url(#crosshatch45);
       stroke-width: 1;
       stroke: black; 
     }
     path.mdiag {
       fill: url(#crosshatch45);
       stroke-width: 1;
       stroke: black; 
     }

    ]]></style>
    <g id="PinnedSupport" transform="translate(0,1.0)">
      <path d="M 0 0 l 4 6 l -8 0 z" 
	    stroke="black" stroke-width="0" fill="black" opacity="1.0" />
      <path d="M -6 6 l 12 0" 
	    stroke="black" stroke-width="1" fill="none" />
      <path d="M 6 6 l -3 3 m 0 -3 l -3 3 m 0 -3 l -3 3 m 0 -3 l -3 3 m 0 -3 l -3 3"
	    stroke="black" stroke-width="1" fill="none" />
    </g>
    <g id="RollerSupport" transform="translate(0,1.0)">
      <circle cx="0" cy="3" r="3"
	    stroke="black" stroke-width="0" fill="black" opacity="1.0" />
      <path d="M -6 6 l 12 0" 
	    stroke="black" stroke-width="1" fill="none" />
      <path d="M 6 6 l -3 3 m 0 -3 l -3 3 m 0 -3 l -3 3 m 0 -3 l -3 3 m 0 -3 l -3 3"
	    stroke="black" stroke-width="1" fill="none" />
    </g>
    <g id="LFixedSupport" transform="translate(-0.5,0)">
      <path d="M 0 -6 l 0 12"
	    stroke="black" stroke-width="1" fill="none" />
      <path d="M 0 -6 l -3 3 m 3 0 l -3 3 m 3 0 l -3 3 m 3 0 l -3 3 m 3 0 l -3 3"
	    stroke="black" stroke-width="1" fill="none" />
    </g>
    <g id="RFixedSupport">
      <use xlink:href="#LFixedSupport" transform="scale(-1,1)"/>
    </g>
    <g id="Hinge">
      <circle cx="0" cy="0" r="2.5"
	      stroke="black" stroke-width="1" fill="white"/>
    </g>
    <g id="ShearRelease">
      <rect x="-3" y="-6" width="6" height="12"
	    stroke="none" fill="white"/>
      <circle cx="0" cy="-6" r="2" stroke="black" strokewidth="0.5" fill="white"/>
      <circle cx="0" cy="0" r="2" stroke="black" strokewidth="0.5" fill="white"/>
      <circle cx="0" cy="6" r="2" stroke="black" strokewidth="0.5" fill="white"/>
      <path d="M -3 -9 l 0 18 M 3 -9 l 0 18" stroke="black" stroke-width="1"/>
    </g>
    <marker id="DLArrowStart"
	    markerUnits="userSpaceOnUse"
	    markerWidth="8"
	    markerHeight="4"
	    orient="auto"
	    viewBox="0 0 8 4"
	    refX="0"
	    refY="2">
      <path d="M 0 2 l 8 -2 l 0 4 z"/>
    </marker>
    <marker id="DLArrowEnd"
	    markerUnits="userSpaceOnUse"
	    markerWidth="8"
	    markerHeight="4"
	    orient="auto"
	    viewBox="0 0 8 4"
	    refX="8"
	    refY="2">
      <path d="M 0 0 l 8 2 l -8 2 z"/>
    </marker>
    <marker id="CLArrowStart"
	    markerUnits="userSpaceOnUse"
	    markerWidth="10.0"
	    markerHeight="6"
	    orient="auto"
	    viewBox="0 0 10 6"
	    refX="3.0"
	    refY="3">
      <path d="M 0 3 l 10 -3 l -2 3 l 2 3 z"/>
    </marker>
    <marker id="CLArrowEnd"
	    markerUnits="userSpaceOnUse"
	    markerWidth="10.0"
	    markerHeight="6"
	    orient="auto"
	    viewBox="0 0 10 6"
	    refX="7.0"
	    refY="3">
      <path d="M 0 0 l 10 3 l -10 3 l 2 -3 z"/>
    </marker>
    <marker id="MLArrowStart"
	    markerUnits="userSpaceOnUse"
	    markerWidth="10.0"
	    markerHeight="6"
	    orient="auto"
	    viewBox="0 0 10 6"
	    refX="8"
	    refY="3">
      <path d="M 10 0 l -10 3 l 10 3 l -2 -3 z"/>
    </marker>
    <marker id="MLArrowEnd"
	    markerUnits="userSpaceOnUse"
	    markerWidth="10.0"
	    markerHeight="6"
	    orient="auto"
	    viewBox="0 0 10 6"
	    refX="2"
	    refY="3">
      <path d="M 0 0 l 10 3 l -10 3 l 2 -3 z"/>
    </marker>
    <pattern id="crosshatch45" patternUnits="userSpaceOnUse"
             x="0" y="0" width="10" height="10"
	     viewBox="0 0 10 10">
       <path d="M 0 0 L 10 10" fill="none" stroke="grey" stroke-width="0.2"/>
    </pattern>


  </defs>

<g transform="translate(72.0,122.0)">
  <title>Beam! Length = 3</title>
  <path class="elem" d="M 0 0 l 360.0 0"/>
  <g transform="translate(0.0,0.0)">
    <title>UD Load 28 kN/m</title>
    <polygon points="0,0 0,-12.0 360.0,-12.0 360.0,0" class="dload"/>
    <path class="dload" d="M 0.0 -12.0 L 0.0 -1.0"/>
    <path class="dload" d="M 25.7 -12.0 L 25.7 -1.0"/>
    <path class="dload" d="M 51.4 -12.0 L 51.4 -1.0"/>
    <path class="dload" d="M 77.1 -12.0 L 77.1 -1.0"/>
    <path class="dload" d="M 102.9 -12.0 L 102.9 -1.0"/>
    <path class="dload" d="M 128.6 -12.0 L 128.6 -1.0"/>
    <path class="dload" d="M 154.3 -12.0 L 154.3 -1.0"/>
    <path class="dload" d="M 180.0 -12.0 L 180.0 -1.0"/>
    <path class="dload" d="M 205.7 -12.0 L 205.7 -1.0"/>
    <path class="dload" d="M 231.4 -12.0 L 231.4 -1.0"/>
    <path class="dload" d="M 257.1 -12.0 L 257.1 -1.0"/>
    <path class="dload" d="M 282.9 -12.0 L 282.9 -1.0"/>
    <path class="dload" d="M 308.6 -12.0 L 308.6 -1.0"/>
    <path class="dload" d="M 334.3 -12.0 L 334.3 -1.0"/>
    <path class="dload" d="M 360.0 -12.0 L 360.0 -1.0"/>
    <text style="text-anchor: middle;" dx="0.0" dy="-2.0" y="-12.0" x="180.0" class="dim">28</text>
  </g>
  <g transform="translate(180.0,-1.0)">
    <title>Point Load = 50 kN</title>
    <path class="cload" d="M 0 -26.0 l 0 23.0"/>
    <text y="-26.0" x="0" class="dim" dy="-3.0">50</text>
  </g>
  <use y="0" x="360.0" xlink:href="#RFixedSupport"/>
  <path class="dim" d="M 180.0 10.0 l 0 25.0"/>
  <path class="dim" d="M 0.0 30.0 l 180.0 0"/>
  <path class="dim" d="M 0.0 30.0 m -3.0 3.0 l 6.0 -6.0"/>
  <path class="dim" d="M 180.0 30.0 m -3.0 3.0 l 6.0 -6.0"/>
  <text y="30.0" x="90.0" class="dim" dy="-3.0">1.5</text>
  <path class="dim" d="M 0.0 10.0 l 0 40.0"/>
  <path class="dim" d="M 360.0 10.0 l 0 40.0"/>
  <path class="dim" d="M 0.0 45.0 l 360.0 0"/>
  <path class="dim" d="M 0.0 45.0 m -3.0 3.0 l 6.0 -6.0"/>
  <path class="dim" d="M 360.0 45.0 m -3.0 3.0 l 6.0 -6.0"/>
  <text y="45.0" x="180.0" class="dim" dy="-3.0">3</text>
  <text y="17.0" x="0.0" class="ptlabel" dx="1.0">a</text>
  <text y="17.0" x="180.0" class="ptlabel" dx="1.0">b</text>
  <text y="17.0" x="360.0" class="ptlabel" dx="1.0">c</text>
  <text y="-56.0" x="0" xml:space="preserve" class="notes">Units are m, kN;       Difficulty Level = 3</text>
  <g id="beam-guides" visibility="visible" transform="translate(0.0,0.0)">
    <path class="guides" d="M 0.0 51.0 L 0.0 474.0 M 180.0 51.0 L 180.0 474.0 M 360.0 51.0 L 360.0 474.0"/>
  </g>
  <g id="beam-fb-diagram" visibility="visible" transform="translate(0.0,144.0)">
    <title>Free Body Diagram</title>
    <path class="elem" d="M 0 0 l 360.0 0"/>
    <g transform="translate(0.0,0.0)">
      <title>UD Load 28 kN/m</title>
      <polygon points="0,0 0,-12.0 360.0,-12.0 360.0,0" class="dload"/>
      <path class="dload" d="M 0.0 -12.0 L 0.0 -1.0"/>
      <path class="dload" d="M 25.7 -12.0 L 25.7 -1.0"/>
      <path class="dload" d="M 51.4 -12.0 L 51.4 -1.0"/>
      <path class="dload" d="M 77.1 -12.0 L 77.1 -1.0"/>
      <path class="dload" d="M 102.9 -12.0 L 102.9 -1.0"/>
      <path class="dload" d="M 128.6 -12.0 L 128.6 -1.0"/>
      <path class="dload" d="M 154.3 -12.0 L 154.3 -1.0"/>
      <path class="dload" d="M 180.0 -12.0 L 180.0 -1.0"/>
      <path class="dload" d="M 205.7 -12.0 L 205.7 -1.0"/>
      <path class="dload" d="M 231.4 -12.0 L 231.4 -1.0"/>
      <path class="dload" d="M 257.1 -12.0 L 257.1 -1.0"/>
      <path class="dload" d="M 282.9 -12.0 L 282.9 -1.0"/>
      <path class="dload" d="M 308.6 -12.0 L 308.6 -1.0"/>
      <path class="dload" d="M 334.3 -12.0 L 334.3 -1.0"/>
      <path class="dload" d="M 360.0 -12.0 L 360.0 -1.0"/>
      <text style="text-anchor: middle;" dx="0.0" dy="-2.0" y="-12.0" x="180.0" class="dim">28</text>
    </g>
    <g transform="translate(180.0,-1.0)">
      <title>Point Load = 50 kN</title>
      <path class="cload" d="M 0 -32.0 l 0 29.0"/>
      <text y="-32.0" x="0" class="dim" dy="-3.0">50</text>
    </g>
    <g transform="translate(360.0,1.0)">
      <title>Point Load = -134 kN</title>
      <path class="cload" d="M 0 42.0 l 0 -39.0"/>
      <text y="42.0" x="0" class="dim" dy="8.0">134</text>
    </g>
    <g transform="translate(360.0,0.0)">
      <title>Moment load = -201 kN-m</title>
      <path class="dim" d="M -2.0 -2.0 l 4.0 4.0 M -2.0 2.0 l 4.0 -4.0"/>
      <path class="mloadInkscape" d="M 0.0,-15.0 A 15.0,15.0 0 0,1 0.0,15.0"/>
      <text y="-15.0" x="0.0" class="dim" dy="-4.0">201</text>
    </g>
    <text x="360.0" y="0" class="dwglabel" dx="18.0">FBD [m,kN]</text>
  </g>
  <g id="beam-shear-diagram" visibility="visible" transform="translate(0.0,216.0)">
    <g transform="translate(0.0,0.0)">
      <title>Shear Force Diagram</title>
      <path class="vdiag" d="M 0,0 L 0.0,-0.0 180.0,33.9 180.0,74.1 360.0,108.0 360.0,-0.0 z"/>
      <circle cx="180.0" cy="33.9" r="1.5" stroke="none" fill="red"><title>-42 kN</title></circle>
      <text x="180.0" y="33.9" dx="-1.0" dy="7.0" class="vmlabel" text-anchor="end"><title>-42 kN</title>-42</text>
      <circle cx="180.0" cy="74.1" r="1.5" stroke="none" fill="red"><title>-92 kN</title></circle>
      <text x="180.0" y="74.1" dx="-1.0" dy="7.0" class="vmlabel" text-anchor="end"><title>-92 kN</title>-92</text>
      <circle cx="360.0" cy="108.0" r="1.5" stroke="none" fill="red"><title>-134 kN</title></circle>
      <text x="360.0" y="108.0" dx="1.0" dy="7.0" class="vmlabel" text-anchor="start"><title>-134 kN</title>-134</text>
      <text x="360.0" y="0" class="dwglabel" dx="18.0">V [kN]</text>
    </g>
    <g id="beam-zvguides" visibility="visible" transform="translate(0.0,0.0)">
    </g>
  </g>
  <g id="beam-moment-diagram" visibility="visible" transform="translate(0.0,360.0)">
    <g transform="translate(0.0,0.0)">
      <title>Bending Moment Diagram</title>
      <path class="mdiag" d="M 0,0 L 0.0,0.0 1.8,0.0 3.6,0.0 5.4,0.0 7.2,0.0 9.0,0.0 10.8,0.1 12.6,0.1 14.4,0.1 16.2,0.1 18.0,0.2 19.8,0.2 21.6,0.2 23.4,0.3 25.2,0.3 27.0,0.4 28.8,0.4 30.6,0.5 32.4,0.5 34.2,0.6 36.0,0.7 37.8,0.7 39.6,0.8 41.4,0.9 43.2,1.0 45.0,1.1 46.8,1.1 48.6,1.2 50.4,1.3 52.2,1.4 54.0,1.5 55.8,1.6 57.6,1.7 59.4,1.8 61.2,2.0 63.0,2.1 64.8,2.2 66.6,2.3 68.4,2.4 70.2,2.6 72.0,2.7 73.8,2.8 75.6,3.0 77.4,3.1 79.2,3.3 81.0,3.4 82.8,3.6 84.6,3.7 86.4,3.9 88.2,4.1 90.0,4.2 91.8,4.4 93.6,4.6 95.4,4.8 97.2,4.9 99.0,5.1 100.8,5.3 102.6,5.5 104.4,5.7 106.2,5.9 108.0,6.1 109.8,6.3 111.6,6.5 113.4,6.7 115.2,6.9 117.0,7.2 118.8,7.4 120.6,7.6 122.4,7.8 124.2,8.1 126.0,8.3 127.8,8.5 129.6,8.8 131.4,9.0 133.2,9.3 135.0,9.5 136.8,9.8 138.6,10.0 140.4,10.3 142.2,10.6 144.0,10.8 145.8,11.1 147.6,11.4 149.4,11.7 151.2,11.9 153.0,12.2 154.8,12.5 156.6,12.8 158.4,13.1 160.2,13.4 162.0,13.7 163.8,14.0 165.6,14.3 167.4,14.6 169.2,15.0 171.0,15.3 172.8,15.6 174.6,15.9 176.4,16.3 178.2,16.6 180.0,16.9 181.8,17.7 183.6,18.4 185.4,19.2 187.2,19.9 189.0,20.7 190.8,21.4 192.6,22.2 194.4,23.0 196.2,23.7 198.0,24.5 199.8,25.3 201.6,26.1 203.4,26.9 205.2,27.6 207.0,28.4 208.8,29.2 210.6,30.0 212.4,30.8 214.2,31.6 216.0,32.4 217.8,33.2 219.6,34.1 221.4,34.9 223.2,35.7 225.0,36.5 226.8,37.3 228.6,38.2 230.4,39.0 232.2,39.9 234.0,40.7 235.8,41.5 237.6,42.4 239.4,43.2 241.2,44.1 243.0,45.0 244.8,45.8 246.6,46.7 248.4,47.5 250.2,48.4 252.0,49.3 253.8,50.2 255.6,51.1 257.4,51.9 259.2,52.8 261.0,53.7 262.8,54.6 264.6,55.5 266.4,56.4 268.2,57.3 270.0,58.2 271.8,59.1 273.6,60.1 275.4,61.0 277.2,61.9 279.0,62.8 280.8,63.8 282.6,64.7 284.4,65.6 286.2,66.6 288.0,67.5 289.8,68.5 291.6,69.4 293.4,70.4 295.2,71.3 297.0,72.3 298.8,73.2 300.6,74.2 302.4,75.2 304.2,76.1 306.0,77.1 307.8,78.1 309.6,79.1 311.4,80.1 313.2,81.1 315.0,82.1 316.8,83.1 318.6,84.1 320.4,85.1 322.2,86.1 324.0,87.1 325.8,88.1 327.6,89.1 329.4,90.1 331.2,91.2 333.0,92.2 334.8,93.2 336.6,94.2 338.4,95.3 340.2,96.3 342.0,97.4 343.8,98.4 345.6,99.5 347.4,100.5 349.2,101.6 351.0,102.6 352.8,103.7 354.6,104.8 356.4,105.8 358.2,106.9 360.0,108.0 360.0,-0.0 z"/>
      <circle cx="180.0" cy="16.9" r="1.5" stroke="none" fill="red"><title>-31.5 kN-m</title></circle>
      <text x="180.0" y="16.9" dx="-1.0" dy="7.0" class="vmlabel" text-anchor="end"><title>-31.5 kN-m</title>-31.5</text>
      <circle cx="360.0" cy="108.0" r="1.5" stroke="none" fill="red"><title>-201 kN-m</title></circle>
      <text x="360.0" y="108.0" dx="1.0" dy="7.0" class="vmlabel" text-anchor="start"><title>-201 kN-m</title>-201</text>
      <text x="360.0" y="0" class="dwglabel" dx="18.0">M [kN-m]</text>
    </g>
  </g>
</g>

</svg>
