<?xml version="1.0" standalone="yes"?>
<!DOCTYPE svg PUBLIC "-//W3C//DTD SVG 1.1//EN" 
  "http://www.w3.org/Graphics/SVG/1.1/DTD/svg11.dtd">
<svg xmlns="http://www.w3.org/2000/svg"
     xmlns:xlink="http://www.w3.org/1999/xlink"
     version="1.1"
     width="8.5in" 
     height="11.0in" 
     viewBox="0 0 612 792">
  <defs>
    <style type="text/css"><![CDATA[
    .elem {
	stroke-width: 2.0;
	stroke: black;
	}
    path.dim {
       stroke-width: 0.5;
       stroke: black;
       }
    path.guides {
       stroke-width: 0.5;
       stroke: grey;
       }
    text.dwglabel {
       font-family: Verdana, Arial;
       font-size: 10px;
       font-weight: bold;
       fill: black;
       text-align: center;
       text-anchor: start;
       }
    text.dim {
       font-family: Verdana, Arial;
       font-size: 8px;
       font-weight: bold;
       fill: black;
       text-align: center;
       text-anchor: middle;
       }
    text.guides {
       font-family: Verdana, Arial;
       font-size: 8px;
       font-weight: normal;
       font-style: italic;
       fill: black;
       text-align: center;
       text-anchor: middle;
       }
    text.vmlabel {
       font-family: Verdana, Arial;
       font-size: 8px;
       font-style: italic;
       fill: black;
       }
    text.notes {
       font-family: Verdana, Arial;
       font-size: 9px;
       font-weight: normal;
       font-style: italic;
       fill: black;
       text-align: center;
       text-anchor: left;
       }
    text.ptlabel {
       font-family: Verdana, Arial;
       font-size: 7px;
       font-style: italic;
       fill: black;
       text-align: center;
       text-anchor: start;
       }
     path.cload {
       fill: none;
       stroke-width: 1;
       stroke: black; 
       marker-end: url(#CLArrowEnd);
     }
      path.mload {
       fill: none;
       stroke-width: 1;
       stroke: black; 
       marker-end: url(#MLArrowEnd);
     }
      path.mloadInkscape {
       fill: none;
       stroke-width: 1;
       stroke: black; 
       marker-end: url(#MLArrowStart);
     }
     polygon.dload {
       fill: rgb(240,240,240);
       opacity: 0.5; /* if < 1, REALLY slows down printing of the pdfs */
       stroke-width: 1;
       stroke: black; 
     }
     path.dload {
       fill: none;
       stroke-width: 1;
       stroke: black; 
       marker-end: url(#DLArrowEnd);
     }
     path.dloadna {
       fill: none;
       stroke-width: 1;
       stroke: black; 
     }
     path.vdiag {
       fill: url(#crosshatch45);
       stroke-width: 1;
       stroke: black; 
     }
     path.mdiag {
       fill: url(#crosshatch45);
       stroke-width: 1;
       stroke: black; 
     }

    ]]></style>
    <g id="PinnedSupport" transform="translate(0,1.0)">
      <path d="M 0 0 l 4 6 l -8 0 z" 
	    stroke="black" stroke-width="0" fill="black" opacity="1.0" />
      <path d="M -6 6 l 12 0" 
	    stroke="black" stroke-width="1" fill="none" />
      <path d="M 6 6 l -3 3 m 0 -3 l -3 3 m 0 -3 l -3 3 m 0 -3 l -3 3 m 0 -3 l -3 3"
	    stroke="black" stroke-width="1" fill="none" />
    </g>
    <g id="RollerSupport" transform="translate(0,1.0)">
      <circle cx="0" cy="3" r="3"
	    stroke="black" stroke-width="0" fill="black" opacity="1.0" />
      <path d="M -6 6 l 12 0" 
	    stroke="black" stroke-width="1" fill="none" />
      <path d="M 6 6 l -3 3 m 0 -3 l -3 3 m 0 -3 l -3 3 m 0 -3 l -3 3 m 0 -3 l -3 3"
	    stroke="black" stroke-width="1" fill="none" />
    </g>
    <g id="LFixedSupport" transform="translate(-0.5,0)">
      <path d="M 0 -6 l 0 12"
	    stroke="black" stroke-width="1" fill="none" />
      <path d="M 0 -6 l -3 3 m 3 0 l -3 3 m 3 0 l -3 3 m 3 0 l -3 3 m 3 0 l -3 3"
	    stroke="black" stroke-width="1" fill="none" />
    </g>
    <g id="RFixedSupport">
      <use xlink:href="#LFixedSupport" transform="scale(-1,1)"/>
    </g>
    <g id="Hinge">
      <circle cx="0" cy="0" r="2.5"
	      stroke="black" stroke-width="1" fill="white"/>
    </g>
    <g id="ShearRelease">
      <rect x="-3" y="-6" width="6" height="12"
	    stroke="none" fill="white"/>
      <circle cx="0" cy="-6" r="2" stroke="black" strokewidth="0.5" fill="white"/>
      <circle cx="0" cy="0" r="2" stroke="black" strokewidth="0.5" fill="white"/>
      <circle cx="0" cy="6" r="2" stroke="black" strokewidth="0.5" fill="white"/>
      <path d="M -3 -9 l 0 18 M 3 -9 l 0 18" stroke="black" stroke-width="1"/>
    </g>
    <marker id="DLArrowStart"
	    markerUnits="userSpaceOnUse"
	    markerWidth="8"
	    markerHeight="4"
	    orient="auto"
	    viewBox="0 0 8 4"
	    refX="0"
	    refY="2">
      <path d="M 0 2 l 8 -2 l 0 4 z"/>
    </marker>
    <marker id="DLArrowEnd"
	    markerUnits="userSpaceOnUse"
	    markerWidth="8"
	    markerHeight="4"
	    orient="auto"
	    viewBox="0 0 8 4"
	    refX="8"
	    refY="2">
      <path d="M 0 0 l 8 2 l -8 2 z"/>
    </marker>
    <marker id="CLArrowStart"
	    markerUnits="userSpaceOnUse"
	    markerWidth="10.0"
	    markerHeight="6"
	    orient="auto"
	    viewBox="0 0 10 6"
	    refX="3.0"
	    refY="3">
      <path d="M 0 3 l 10 -3 l -2 3 l 2 3 z"/>
    </marker>
    <marker id="CLArrowEnd"
	    markerUnits="userSpaceOnUse"
	    markerWidth="10.0"
	    markerHeight="6"
	    orient="auto"
	    viewBox="0 0 10 6"
	    refX="7.0"
	    refY="3">
      <path d="M 0 0 l 10 3 l -10 3 l 2 -3 z"/>
    </marker>
    <marker id="MLArrowStart"
	    markerUnits="userSpaceOnUse"
	    markerWidth="10.0"
	    markerHeight="6"
	    orient="auto"
	    viewBox="0 0 10 6"
	    refX="8"
	    refY="3">
      <path d="M 10 0 l -10 3 l 10 3 l -2 -3 z"/>
    </marker>
    <marker id="MLArrowEnd"
	    markerUnits="userSpaceOnUse"
	    markerWidth="10.0"
	    markerHeight="6"
	    orient="auto"
	    viewBox="0 0 10 6"
	    refX="2"
	    refY="3">
      <path d="M 0 0 l 10 3 l -10 3 l 2 -3 z"/>
    </marker>
    <pattern id="crosshatch45" patternUnits="userSpaceOnUse"
             x="0" y="0" width="10" height="10"
	     viewBox="0 0 10 10">
       <path d="M 0 0 L 10 10" fill="none" stroke="grey" stroke-width="0.2"/>
    </pattern>


  </defs>

<g transform="translate(72.0,122.0)">
  <title>Beam! Length = 22.8</title>
  <path class="elem" d="M 0 0 l 360.0 0"/>
  <g transform="translate(0.0,0.0)">
    <title>UD Load 14 kN/m</title>
    <polygon points="0,0 0,-12.0 263.7,-12.0 263.7,0" class="dload"/>
    <path class="dload" d="M 0.0 -12.0 L 0.0 -1.0"/>
    <path class="dload" d="M 24.0 -12.0 L 24.0 -1.0"/>
    <path class="dload" d="M 47.9 -12.0 L 47.9 -1.0"/>
    <path class="dload" d="M 71.9 -12.0 L 71.9 -1.0"/>
    <path class="dload" d="M 95.9 -12.0 L 95.9 -1.0"/>
    <path class="dload" d="M 119.9 -12.0 L 119.9 -1.0"/>
    <path class="dload" d="M 143.8 -12.0 L 143.8 -1.0"/>
    <path class="dload" d="M 167.8 -12.0 L 167.8 -1.0"/>
    <path class="dload" d="M 191.8 -12.0 L 191.8 -1.0"/>
    <path class="dload" d="M 215.7 -12.0 L 215.7 -1.0"/>
    <path class="dload" d="M 239.7 -12.0 L 239.7 -1.0"/>
    <path class="dload" d="M 263.7 -12.0 L 263.7 -1.0"/>
    <text style="text-anchor: middle;" dx="0.0" dy="-2.0" y="-12.0" x="131.8" class="dim">14</text>
  </g>
  <g transform="translate(288.9,0.0)">
    <title>UD Load 29 kN/m</title>
    <polygon points="0,0 0,-24.0 71.1,-24.0 71.1,0" class="dload"/>
    <path class="dload" d="M 0.0 -24.0 L 0.0 -1.0"/>
    <path class="dload" d="M 23.7 -24.0 L 23.7 -1.0"/>
    <path class="dload" d="M 47.4 -24.0 L 47.4 -1.0"/>
    <path class="dload" d="M 71.1 -24.0 L 71.1 -1.0"/>
    <text style="text-anchor: middle;" dx="0.0" dy="-2.0" y="-24.0" x="35.5" class="dim">29</text>
  </g>
  <g transform="translate(288.9,-1.0)">
    <title>Point Load = 50 kN</title>
    <path class="cload" d="M 0 -26.0 l 0 23.0"/>
    <text y="-26.0" x="0" class="dim" dy="-3.0">50</text>
  </g>
  <use y="0" x="0.0" xlink:href="#PinnedSupport"/>
  <use y="0" x="150.0" xlink:href="#RollerSupport"/>
  <use y="0" x="184.7" xlink:href="#Hinge"/>
  <use y="0" x="263.7" xlink:href="#RollerSupport"/>
  <use y="0" x="288.9" xlink:href="#Hinge"/>
  <use y="0" x="360.0" xlink:href="#RollerSupport"/>
  <path class="dim" d="M 184.7 10.0 l 0 25.0"/>
  <path class="dim" d="M 150.0 30.0 l 34.7 0"/>
  <path class="dim" d="M 150.0 30.0 m -3.0 3.0 l 6.0 -6.0"/>
  <path class="dim" d="M 184.7 30.0 m -3.0 3.0 l 6.0 -6.0"/>
  <text y="30.0" x="167.4" class="dim" dy="-3.0">2.2</text>
  <path class="dim" d="M 288.9 10.0 l 0 25.0"/>
  <path class="dim" d="M 263.7 30.0 l 25.3 0"/>
  <path class="dim" d="M 263.7 30.0 m -3.0 3.0 l 6.0 -6.0"/>
  <path class="dim" d="M 288.9 30.0 m -3.0 3.0 l 6.0 -6.0"/>
  <text y="30.0" x="276.3" class="dim" dy="-3.0">1.6</text>
  <path class="dim" d="M 0.0 10.0 l 0 40.0"/>
  <path class="dim" d="M 150.0 10.0 l 0 40.0"/>
  <path class="dim" d="M 0.0 45.0 l 150.0 0"/>
  <path class="dim" d="M 0.0 45.0 m -3.0 3.0 l 6.0 -6.0"/>
  <path class="dim" d="M 150.0 45.0 m -3.0 3.0 l 6.0 -6.0"/>
  <text y="45.0" x="75.0" class="dim" dy="-3.0">9.5</text>
  <path class="dim" d="M 263.7 10.0 l 0 40.0"/>
  <path class="dim" d="M 150.0 45.0 l 113.7 0"/>
  <path class="dim" d="M 263.7 45.0 m -3.0 3.0 l 6.0 -6.0"/>
  <text y="45.0" x="206.8" class="dim" dy="-3.0">7.2</text>
  <path class="dim" d="M 360.0 10.0 l 0 40.0"/>
  <path class="dim" d="M 263.7 45.0 l 96.3 0"/>
  <path class="dim" d="M 360.0 45.0 m -3.0 3.0 l 6.0 -6.0"/>
  <text y="45.0" x="311.8" class="dim" dy="-3.0">6.1</text>
  <text y="17.0" x="0.0" class="ptlabel" dx="1.0">a</text>
  <text y="17.0" x="150.0" class="ptlabel" dx="1.0">b</text>
  <text y="17.0" x="184.7" class="ptlabel" dx="1.0">c</text>
  <text y="17.0" x="263.7" class="ptlabel" dx="1.0">d</text>
  <text y="17.0" x="288.9" class="ptlabel" dx="1.0">e</text>
  <text y="17.0" x="360.0" class="ptlabel" dx="1.0">f</text>
  <text y="-56.0" x="0" xml:space="preserve" class="notes">Units are m, kN;       Difficulty Level = 7</text>
  <g id="beam-guides" visibility="visible" transform="translate(0.0,0.0)">
    <path class="guides" d="M 0.0 51.0 L 0.0 474.0 M 150.0 51.0 L 150.0 474.0 M 184.7 51.0 L 184.7 474.0 M 263.7 51.0 L 263.7 474.0 M 288.9 51.0 L 288.9 474.0 M 360.0 51.0 L 360.0 474.0"/>
  </g>
  <g id="beam-fb-diagram" visibility="visible" transform="translate(0.0,144.0)">
    <title>Free Body Diagram</title>
    <path class="elem" d="M 0 0 l 360.0 0"/>
    <g transform="translate(0.0,0.0)">
      <title>UD Load 14 kN/m</title>
      <polygon points="0,0 0,-12.0 263.7,-12.0 263.7,0" class="dload"/>
      <path class="dload" d="M 0.0 -12.0 L 0.0 -1.0"/>
      <path class="dload" d="M 24.0 -12.0 L 24.0 -1.0"/>
      <path class="dload" d="M 47.9 -12.0 L 47.9 -1.0"/>
      <path class="dload" d="M 71.9 -12.0 L 71.9 -1.0"/>
      <path class="dload" d="M 95.9 -12.0 L 95.9 -1.0"/>
      <path class="dload" d="M 119.9 -12.0 L 119.9 -1.0"/>
      <path class="dload" d="M 143.8 -12.0 L 143.8 -1.0"/>
      <path class="dload" d="M 167.8 -12.0 L 167.8 -1.0"/>
      <path class="dload" d="M 191.8 -12.0 L 191.8 -1.0"/>
      <path class="dload" d="M 215.7 -12.0 L 215.7 -1.0"/>
      <path class="dload" d="M 239.7 -12.0 L 239.7 -1.0"/>
      <path class="dload" d="M 263.7 -12.0 L 263.7 -1.0"/>
      <text style="text-anchor: middle;" dx="0.0" dy="-2.0" y="-12.0" x="131.8" class="dim">14</text>
    </g>
    <g transform="translate(288.9,0.0)">
      <title>UD Load 29 kN/m</title>
      <polygon points="0,0 0,-24.0 71.1,-24.0 71.1,0" class="dload"/>
      <path class="dload" d="M 0.0 -24.0 L 0.0 -1.0"/>
      <path class="dload" d="M 23.7 -24.0 L 23.7 -1.0"/>
      <path class="dload" d="M 47.4 -24.0 L 47.4 -1.0"/>
      <path class="dload" d="M 71.1 -24.0 L 71.1 -1.0"/>
      <text style="text-anchor: middle;" dx="0.0" dy="-2.0" y="-24.0" x="35.5" class="dim">29</text>
    </g>
    <g transform="translate(288.9,-1.0)">
      <title>Point Load = 50 kN</title>
      <path class="cload" d="M 0 -30.3 l 0 27.3"/>
      <text y="-30.3" x="0" class="dim" dy="-3.0">50</text>
    </g>
    <g transform="translate(0.0,1.0)">
      <title>Point Load = -63.3691 kN</title>
      <path class="cload" d="M 0 31.4 l 0 -28.4"/>
      <text y="31.4" x="0" class="dim" dy="8.0">63.37</text>
    </g>
    <g transform="translate(150.0,1.0)">
      <title>Point Load = -98.5509 kN</title>
      <path class="cload" d="M 0 34.4 l 0 -31.4"/>
      <text y="34.4" x="0" class="dim" dy="8.0">98.55</text>
    </g>
    <g transform="translate(263.7,1.0)">
      <title>Point Load = -187.13 kN</title>
      <path class="cload" d="M 0 42.0 l 0 -39.0"/>
      <text y="42.0" x="0" class="dim" dy="8.0">187.1</text>
    </g>
    <g transform="translate(360.0,1.0)">
      <title>Point Load = -65.25 kN</title>
      <path class="cload" d="M 0 31.6 l 0 -28.6"/>
      <text y="31.6" x="0" class="dim" dy="8.0">65.25</text>
    </g>
    <text x="360.0" y="0" class="dwglabel" dx="18.0">FBD [m,kN]</text>
  </g>
  <g id="beam-shear-diagram" visibility="visible" transform="translate(0.0,216.0)">
    <g transform="translate(0.0,66.5)">
      <title>Shear Force Diagram</title>
      <path class="vdiag" d="M 0,0 L -0.0,-0.0 0.0,-36.6 150.0,40.2 150.0,-16.7 184.7,1.1 263.7,41.5 263.7,-66.5 288.9,-66.5 288.9,-37.7 360.0,37.7 360.0,0.0 z"/>
      <circle cx="0.0" cy="-36.6" r="1.5" stroke="none" fill="red"><title>63.37 kN</title></circle>
      <text x="0.0" y="-36.6" dx="1.0" dy="-1.0" class="vmlabel" text-anchor="start"><title>63.37 kN</title>63.37</text>
      <circle cx="150.0" cy="40.2" r="1.5" stroke="none" fill="red"><title>-69.63 kN</title></circle>
      <text x="150.0" y="40.2" dx="1.0" dy="7.0" class="vmlabel" text-anchor="start"><title>-69.63 kN</title>-69.63</text>
      <circle cx="150.0" cy="-16.7" r="1.5" stroke="none" fill="red"><title>28.92 kN</title></circle>
      <text x="150.0" y="-16.7" dx="1.0" dy="-1.0" class="vmlabel" text-anchor="start"><title>28.92 kN</title>28.92</text>
      <circle cx="184.7" cy="1.1" r="1.5" stroke="none" fill="red"><title>-1.88 kN</title></circle>
      <text x="184.7" y="1.1" dx="-1.0" dy="7.0" class="vmlabel" text-anchor="end"><title>-1.88 kN</title>-1.88</text>
      <circle cx="263.7" cy="41.5" r="1.5" stroke="none" fill="red"><title>-71.88 kN</title></circle>
      <text x="263.7" y="41.5" dx="1.0" dy="7.0" class="vmlabel" text-anchor="start"><title>-71.88 kN</title>-71.88</text>
      <circle cx="263.7" cy="-66.5" r="1.5" stroke="none" fill="red"><title>115.3 kN</title></circle>
      <text x="263.7" y="-66.5" dx="1.0" dy="-1.0" class="vmlabel" text-anchor="start"><title>115.3 kN</title>115.3</text>
      <circle cx="288.9" cy="-66.5" r="1.5" stroke="none" fill="red"><title>115.3 kN</title></circle>
      <text x="288.9" y="-66.5" dx="1.0" dy="-1.0" class="vmlabel" text-anchor="start"><title>115.3 kN</title>115.3</text>
      <circle cx="288.9" cy="-37.7" r="1.5" stroke="none" fill="red"><title>65.25 kN</title></circle>
      <text x="288.9" y="-37.7" dx="1.0" dy="-1.0" class="vmlabel" text-anchor="start"><title>65.25 kN</title>65.25</text>
      <circle cx="360.0" cy="37.7" r="1.5" stroke="none" fill="red"><title>-65.25 kN</title></circle>
      <text x="360.0" y="37.7" dx="1.0" dy="7.0" class="vmlabel" text-anchor="start"><title>-65.25 kN</title>-65.25</text>
      <text x="360.0" y="0" class="dwglabel" dx="18.0">V [kN]</text>
    </g>
    <g id="beam-zvguides" visibility="visible" transform="translate(0.0,0.0)">
      <path class="guides" d="M 71.5 68.5 L 71.5 258.0 M 182.6 68.5 L 182.6 258.0 M 324.5 68.5 L 324.5 258.0"/>
      <path class="guides" d="M 0.0 126.0 L 71.5 126.0"/>
      <path class="guides" d="M 0.0 126.0 m -3.0 3.0 l 6.0 -6.0"/>
      <path class="guides" d="M 71.5 126.0 m -3.0 3.0 l 6.0 -6.0"/>
      <text y="126.0" x="35.7" class="guides" dy="-3.0">4.53</text>
      <path class="guides" d="M 150.0 126.0 L 182.6 126.0"/>
      <path class="guides" d="M 150.0 126.0 m -3.0 3.0 l 6.0 -6.0"/>
      <path class="guides" d="M 182.6 126.0 m -3.0 3.0 l 6.0 -6.0"/>
      <text y="126.0" x="166.3" class="guides" dy="-3.0">2.07</text>
      <path class="guides" d="M 288.9 126.0 L 324.5 126.0"/>
      <path class="guides" d="M 288.9 126.0 m -3.0 3.0 l 6.0 -6.0"/>
      <path class="guides" d="M 324.5 126.0 m -3.0 3.0 l 6.0 -6.0"/>
      <text y="126.0" x="306.7" class="guides" dy="-3.0">2.25</text>
    </g>
  </g>
  <g id="beam-moment-diagram" visibility="visible" transform="translate(0.0,360.0)">
    <g transform="translate(0.0,47.2)">
      <title>Bending Moment Diagram</title>
      <path class="mdiag" d="M 0,0 L 0.0,0.0 1.8,-2.4 3.6,-4.7 5.4,-6.9 7.2,-9.1 9.0,-11.2 10.8,-13.2 12.7,-15.2 14.5,-17.2 16.3,-19.1 18.1,-20.9 19.9,-22.6 21.7,-24.3 23.5,-26.0 25.3,-27.5 27.1,-29.0 28.9,-30.5 30.7,-31.9 32.5,-33.2 34.3,-34.5 36.1,-35.7 38.0,-36.9 39.8,-37.9 41.6,-39.0 43.4,-39.9 45.2,-40.9 47.0,-41.7 48.8,-42.5 50.6,-43.2 52.4,-43.9 54.2,-44.5 56.0,-45.0 57.8,-45.5 59.6,-46.0 61.4,-46.3 63.3,-46.6 65.1,-46.9 66.9,-47.1 68.7,-47.2 70.5,-47.2 71.5,-47.2 72.3,-47.2 74.1,-47.2 75.9,-47.1 77.7,-46.9 79.5,-46.6 81.3,-46.4 83.1,-46.0 84.9,-45.6 86.7,-45.1 88.6,-44.5 90.4,-43.9 92.2,-43.3 94.0,-42.6 95.8,-41.8 97.6,-40.9 99.4,-40.0 101.2,-39.1 103.0,-38.0 104.8,-37.0 106.6,-35.8 108.4,-34.6 110.2,-33.3 112.0,-32.0 113.9,-30.6 115.7,-29.2 117.5,-27.7 119.3,-26.1 121.1,-24.5 122.9,-22.8 124.7,-21.0 126.5,-19.2 128.3,-17.4 130.1,-15.4 131.9,-13.4 133.7,-11.4 135.5,-9.3 137.3,-7.1 139.2,-4.9 141.0,-2.6 142.8,-0.2 144.6,2.2 146.4,4.7 148.2,7.2 150.0,9.8 151.8,8.7 153.7,7.7 155.5,6.8 157.3,5.9 159.1,5.1 161.0,4.3 162.8,3.6 164.6,3.0 166.5,2.4 168.3,1.9 170.1,1.4 171.9,1.0 173.8,0.7 175.6,0.4 177.4,0.2 179.3,0.1 181.1,-0.0 182.6,-0.0 182.9,-0.0 184.7,0.0 186.5,0.1 188.3,0.3 190.1,0.5 191.9,0.8 193.7,1.1 195.5,1.5 197.3,2.0 199.1,2.5 200.9,3.0 202.7,3.7 204.5,4.4 206.3,5.1 208.1,5.9 209.9,6.8 211.7,7.8 213.4,8.7 215.2,9.8 217.0,10.9 218.8,12.1 220.6,13.3 222.4,14.6 224.2,16.0 226.0,17.4 227.8,18.8 229.6,20.4 231.4,22.0 233.2,23.6 235.0,25.3 236.8,27.1 238.6,28.9 240.4,30.8 242.2,32.7 243.9,34.8 245.7,36.8 247.5,38.9 249.3,41.1 251.1,43.4 252.9,45.7 254.7,48.0 256.5,50.5 258.3,52.9 260.1,55.5 261.9,58.1 263.7,60.8 288.9,0.0 290.8,-2.4 292.6,-4.7 294.4,-6.9 296.2,-8.9 298.1,-10.8 299.9,-12.6 301.7,-14.2 303.5,-15.8 305.3,-17.2 307.2,-18.4 309.0,-19.6 310.8,-20.6 312.6,-21.5 314.5,-22.3 316.3,-22.9 318.1,-23.4 319.9,-23.8 321.7,-24.0 323.6,-24.2 324.5,-24.2 325.4,-24.2 327.2,-24.0 329.0,-23.8 330.9,-23.4 332.7,-22.9 334.5,-22.3 336.3,-21.5 338.1,-20.6 340.0,-19.6 341.8,-18.4 343.6,-17.2 345.4,-15.8 347.2,-14.2 349.1,-12.6 350.9,-10.8 352.7,-8.9 354.5,-6.9 356.4,-4.7 358.2,-2.4 360.0,0.0 z"/>
      <circle cx="71.5" cy="-47.2" r="1.5" stroke="none" fill="red"><title>143.4 kN-m</title></circle>
      <text x="71.5" y="-47.2" dx="1.0" dy="-1.0" class="vmlabel" text-anchor="start"><title>143.4 kN-m</title>143.4</text>
      <circle cx="150.0" cy="9.8" r="1.5" stroke="none" fill="red"><title>-29.74 kN-m</title></circle>
      <text x="150.0" y="9.8" dx="1.0" dy="7.0" class="vmlabel" text-anchor="start"><title>-29.74 kN-m</title>-29.74</text>
      <circle cx="182.6" cy="-0.0" r="1.5" stroke="none" fill="red"><title>0.1262 kN-m</title></circle>
      <text x="182.6" y="-0.0" dx="1.0" dy="-1.0" class="vmlabel" text-anchor="start"><title>0.1262 kN-m</title>0.1262</text>
      <circle cx="263.7" cy="60.8" r="1.5" stroke="none" fill="red"><title>-184.4 kN-m</title></circle>
      <text x="263.7" y="60.8" dx="1.0" dy="7.0" class="vmlabel" text-anchor="start"><title>-184.4 kN-m</title>-184.4</text>
      <circle cx="324.5" cy="-24.2" r="1.5" stroke="none" fill="red"><title>73.41 kN-m</title></circle>
      <text x="324.5" y="-24.2" dx="1.0" dy="-1.0" class="vmlabel" text-anchor="start"><title>73.41 kN-m</title>73.41</text>
      <text x="360.0" y="0" class="dwglabel" dx="18.0">M [kN-m]</text>
    </g>
  </g>
</g>

</svg>
