<?xml version="1.0" standalone="yes"?>
<!DOCTYPE svg PUBLIC "-//W3C//DTD SVG 1.1//EN" 
  "http://www.w3.org/Graphics/SVG/1.1/DTD/svg11.dtd">
<svg xmlns="http://www.w3.org/2000/svg"
     xmlns:xlink="http://www.w3.org/1999/xlink"
     version="1.1"
     width="8.5in" 
     height="11.0in" 
     viewBox="0 0 612 792">
  <defs>
    <style type="text/css"><![CDATA[
    .elem {
	stroke-width: 2.0;
	stroke: black;
	}
    path.dim {
       stroke-width: 0.5;
       stroke: black;
       }
    path.guides {
       stroke-width: 0.5;
       stroke: grey;
       }
    text.dwglabel {
       font-family: Verdana, Arial;
       font-size: 10px;
       font-weight: bold;
       fill: black;
       text-align: center;
       text-anchor: start;
       }
    text.dim {
       font-family: Verdana, Arial;
       font-size: 8px;
       font-weight: bold;
       fill: black;
       text-align: center;
       text-anchor: middle;
       }
    text.guides {
       font-family: Verdana, Arial;
       font-size: 8px;
       font-weight: normal;
       font-style: italic;
       fill: black;
       text-align: center;
       text-anchor: middle;
       }
    text.vmlabel {
       font-family: Verdana, Arial;
       font-size: 8px;
       font-style: italic;
       fill: black;
       }
    text.notes {
       font-family: Verdana, Arial;
       font-size: 9px;
       font-weight: normal;
       font-style: italic;
       fill: black;
       text-align: center;
       text-anchor: left;
       }
    text.ptlabel {
       font-family: Verdana, Arial;
       font-size: 7px;
       font-style: italic;
       fill: black;
       text-align: center;
       text-anchor: start;
       }
     path.cload {
       fill: none;
       stroke-width: 1;
       stroke: black; 
       marker-end: url(#CLArrowEnd);
     }
      path.mload {
       fill: none;
       stroke-width: 1;
       stroke: black; 
       marker-end: url(#MLArrowEnd);
     }
      path.mloadInkscape {
       fill: none;
       stroke-width: 1;
       stroke: black; 
       marker-end: url(#MLArrowStart);
     }
     polygon.dload {
       fill: rgb(240,240,240);
       opacity: 0.5; /* if < 1, REALLY slows down printing of the pdfs */
       stroke-width: 1;
       stroke: black; 
     }
     path.dload {
       fill: none;
       stroke-width: 1;
       stroke: black; 
       marker-end: url(#DLArrowEnd);
     }
     path.dloadna {
       fill: none;
       stroke-width: 1;
       stroke: black; 
     }
     path.vdiag {
       fill: url(#crosshatch45);
       stroke-width: 1;
       stroke: black; 
     }
     path.mdiag {
       fill: url(#crosshatch45);
       stroke-width: 1;
       stroke: black; 
     }

    ]]></style>
    <g id="PinnedSupport" transform="translate(0,1.0)">
      <path d="M 0 0 l 4 6 l -8 0 z" 
	    stroke="black" stroke-width="0" fill="black" opacity="1.0" />
      <path d="M -6 6 l 12 0" 
	    stroke="black" stroke-width="1" fill="none" />
      <path d="M 6 6 l -3 3 m 0 -3 l -3 3 m 0 -3 l -3 3 m 0 -3 l -3 3 m 0 -3 l -3 3"
	    stroke="black" stroke-width="1" fill="none" />
    </g>
    <g id="RollerSupport" transform="translate(0,1.0)">
      <circle cx="0" cy="3" r="3"
	    stroke="black" stroke-width="0" fill="black" opacity="1.0" />
      <path d="M -6 6 l 12 0" 
	    stroke="black" stroke-width="1" fill="none" />
      <path d="M 6 6 l -3 3 m 0 -3 l -3 3 m 0 -3 l -3 3 m 0 -3 l -3 3 m 0 -3 l -3 3"
	    stroke="black" stroke-width="1" fill="none" />
    </g>
    <g id="LFixedSupport" transform="translate(-0.5,0)">
      <path d="M 0 -6 l 0 12"
	    stroke="black" stroke-width="1" fill="none" />
      <path d="M 0 -6 l -3 3 m 3 0 l -3 3 m 3 0 l -3 3 m 3 0 l -3 3 m 3 0 l -3 3"
	    stroke="black" stroke-width="1" fill="none" />
    </g>
    <g id="RFixedSupport">
      <use xlink:href="#LFixedSupport" transform="scale(-1,1)"/>
    </g>
    <g id="Hinge">
      <circle cx="0" cy="0" r="2.5"
	      stroke="black" stroke-width="1" fill="white"/>
    </g>
    <g id="ShearRelease">
      <rect x="-3" y="-6" width="6" height="12"
	    stroke="none" fill="white"/>
      <circle cx="0" cy="-6" r="2" stroke="black" strokewidth="0.5" fill="white"/>
      <circle cx="0" cy="0" r="2" stroke="black" strokewidth="0.5" fill="white"/>
      <circle cx="0" cy="6" r="2" stroke="black" strokewidth="0.5" fill="white"/>
      <path d="M -3 -9 l 0 18 M 3 -9 l 0 18" stroke="black" stroke-width="1"/>
    </g>
    <marker id="DLArrowStart"
	    markerUnits="userSpaceOnUse"
	    markerWidth="8"
	    markerHeight="4"
	    orient="auto"
	    viewBox="0 0 8 4"
	    refX="0"
	    refY="2">
      <path d="M 0 2 l 8 -2 l 0 4 z"/>
    </marker>
    <marker id="DLArrowEnd"
	    markerUnits="userSpaceOnUse"
	    markerWidth="8"
	    markerHeight="4"
	    orient="auto"
	    viewBox="0 0 8 4"
	    refX="8"
	    refY="2">
      <path d="M 0 0 l 8 2 l -8 2 z"/>
    </marker>
    <marker id="CLArrowStart"
	    markerUnits="userSpaceOnUse"
	    markerWidth="10.0"
	    markerHeight="6"
	    orient="auto"
	    viewBox="0 0 10 6"
	    refX="3.0"
	    refY="3">
      <path d="M 0 3 l 10 -3 l -2 3 l 2 3 z"/>
    </marker>
    <marker id="CLArrowEnd"
	    markerUnits="userSpaceOnUse"
	    markerWidth="10.0"
	    markerHeight="6"
	    orient="auto"
	    viewBox="0 0 10 6"
	    refX="7.0"
	    refY="3">
      <path d="M 0 0 l 10 3 l -10 3 l 2 -3 z"/>
    </marker>
    <marker id="MLArrowStart"
	    markerUnits="userSpaceOnUse"
	    markerWidth="10.0"
	    markerHeight="6"
	    orient="auto"
	    viewBox="0 0 10 6"
	    refX="8"
	    refY="3">
      <path d="M 10 0 l -10 3 l 10 3 l -2 -3 z"/>
    </marker>
    <marker id="MLArrowEnd"
	    markerUnits="userSpaceOnUse"
	    markerWidth="10.0"
	    markerHeight="6"
	    orient="auto"
	    viewBox="0 0 10 6"
	    refX="2"
	    refY="3">
      <path d="M 0 0 l 10 3 l -10 3 l 2 -3 z"/>
    </marker>
    <pattern id="crosshatch45" patternUnits="userSpaceOnUse"
             x="0" y="0" width="10" height="10"
	     viewBox="0 0 10 10">
       <path d="M 0 0 L 10 10" fill="none" stroke="grey" stroke-width="0.2"/>
    </pattern>


  </defs>

<g transform="translate(72.0,122.0)">
  <title>Beam! Length = 6</title>
  <path class="elem" d="M 0 0 l 360.0 0"/>
  <g transform="translate(0.0,0.0)">
    <title>UD Load 20 kN/m</title>
    <polygon points="0,0 0,-12.0 360.0,-12.0 360.0,0" class="dload"/>
    <path class="dload" d="M 0.0 -12.0 L 0.0 -1.0"/>
    <path class="dload" d="M 25.7 -12.0 L 25.7 -1.0"/>
    <path class="dload" d="M 51.4 -12.0 L 51.4 -1.0"/>
    <path class="dload" d="M 77.1 -12.0 L 77.1 -1.0"/>
    <path class="dload" d="M 102.9 -12.0 L 102.9 -1.0"/>
    <path class="dload" d="M 128.6 -12.0 L 128.6 -1.0"/>
    <path class="dload" d="M 154.3 -12.0 L 154.3 -1.0"/>
    <path class="dload" d="M 180.0 -12.0 L 180.0 -1.0"/>
    <path class="dload" d="M 205.7 -12.0 L 205.7 -1.0"/>
    <path class="dload" d="M 231.4 -12.0 L 231.4 -1.0"/>
    <path class="dload" d="M 257.1 -12.0 L 257.1 -1.0"/>
    <path class="dload" d="M 282.9 -12.0 L 282.9 -1.0"/>
    <path class="dload" d="M 308.6 -12.0 L 308.6 -1.0"/>
    <path class="dload" d="M 334.3 -12.0 L 334.3 -1.0"/>
    <path class="dload" d="M 360.0 -12.0 L 360.0 -1.0"/>
    <text style="text-anchor: middle;" dx="0.0" dy="-2.0" y="-12.0" x="180.0" class="dim">20</text>
  </g>
  <g transform="translate(90.0,-1.0)">
    <title>Point Load = 30 kN</title>
    <path class="cload" d="M 0 -26.0 l 0 23.0"/>
    <text y="-26.0" x="0" class="dim" dy="-3.0">30</text>
  </g>
  <g transform="translate(180.0,-1.0)">
    <title>Point Load = 55 kN</title>
    <path class="cload" d="M 0 -42.0 l 0 39.0"/>
    <text y="-42.0" x="0" class="dim" dy="-3.0">55</text>
  </g>
  <use y="0" x="360.0" xlink:href="#RFixedSupport"/>
  <path class="dim" d="M 90.0 10.0 l 0 25.0"/>
  <path class="dim" d="M 0.0 30.0 l 90.0 0"/>
  <path class="dim" d="M 0.0 30.0 m -3.0 3.0 l 6.0 -6.0"/>
  <path class="dim" d="M 90.0 30.0 m -3.0 3.0 l 6.0 -6.0"/>
  <text y="30.0" x="45.0" class="dim" dy="-3.0">1.5</text>
  <path class="dim" d="M 180.0 10.0 l 0 25.0"/>
  <path class="dim" d="M 90.0 30.0 l 90.0 0"/>
  <path class="dim" d="M 90.0 30.0 m -3.0 3.0 l 6.0 -6.0"/>
  <path class="dim" d="M 180.0 30.0 m -3.0 3.0 l 6.0 -6.0"/>
  <text y="30.0" x="135.0" class="dim" dy="-3.0">1.5</text>
  <path class="dim" d="M 0.0 10.0 l 0 40.0"/>
  <path class="dim" d="M 360.0 10.0 l 0 40.0"/>
  <path class="dim" d="M 0.0 45.0 l 360.0 0"/>
  <path class="dim" d="M 0.0 45.0 m -3.0 3.0 l 6.0 -6.0"/>
  <path class="dim" d="M 360.0 45.0 m -3.0 3.0 l 6.0 -6.0"/>
  <text y="45.0" x="180.0" class="dim" dy="-3.0">6</text>
  <text y="17.0" x="0.0" class="ptlabel" dx="1.0">a</text>
  <text y="17.0" x="90.0" class="ptlabel" dx="1.0">b</text>
  <text y="17.0" x="180.0" class="ptlabel" dx="1.0">c</text>
  <text y="17.0" x="360.0" class="ptlabel" dx="1.0">d</text>
  <text y="-56.0" x="0" xml:space="preserve" class="notes">Units are m, kN;       Difficulty Level = 3</text>
  <g id="beam-guides" visibility="visible" transform="translate(0.0,0.0)">
    <path class="guides" d="M 0.0 51.0 L 0.0 474.0 M 90.0 51.0 L 90.0 474.0 M 180.0 51.0 L 180.0 474.0 M 360.0 51.0 L 360.0 474.0"/>
  </g>
  <g id="beam-fb-diagram" visibility="visible" transform="translate(0.0,144.0)">
    <title>Free Body Diagram</title>
    <path class="elem" d="M 0 0 l 360.0 0"/>
    <g transform="translate(0.0,0.0)">
      <title>UD Load 20 kN/m</title>
      <polygon points="0,0 0,-12.0 360.0,-12.0 360.0,0" class="dload"/>
      <path class="dload" d="M 0.0 -12.0 L 0.0 -1.0"/>
      <path class="dload" d="M 25.7 -12.0 L 25.7 -1.0"/>
      <path class="dload" d="M 51.4 -12.0 L 51.4 -1.0"/>
      <path class="dload" d="M 77.1 -12.0 L 77.1 -1.0"/>
      <path class="dload" d="M 102.9 -12.0 L 102.9 -1.0"/>
      <path class="dload" d="M 128.6 -12.0 L 128.6 -1.0"/>
      <path class="dload" d="M 154.3 -12.0 L 154.3 -1.0"/>
      <path class="dload" d="M 180.0 -12.0 L 180.0 -1.0"/>
      <path class="dload" d="M 205.7 -12.0 L 205.7 -1.0"/>
      <path class="dload" d="M 231.4 -12.0 L 231.4 -1.0"/>
      <path class="dload" d="M 257.1 -12.0 L 257.1 -1.0"/>
      <path class="dload" d="M 282.9 -12.0 L 282.9 -1.0"/>
      <path class="dload" d="M 308.6 -12.0 L 308.6 -1.0"/>
      <path class="dload" d="M 334.3 -12.0 L 334.3 -1.0"/>
      <path class="dload" d="M 360.0 -12.0 L 360.0 -1.0"/>
      <text style="text-anchor: middle;" dx="0.0" dy="-2.0" y="-12.0" x="180.0" class="dim">20</text>
    </g>
    <g transform="translate(90.0,-1.0)">
      <title>Point Load = 30 kN</title>
      <path class="cload" d="M 0 -28.3 l 0 25.3"/>
      <text y="-28.3" x="0" class="dim" dy="-3.0">30</text>
    </g>
    <g transform="translate(180.0,-1.0)">
      <title>Point Load = 55 kN</title>
      <path class="cload" d="M 0 -30.3 l 0 27.3"/>
      <text y="-30.3" x="0" class="dim" dy="-3.0">55</text>
    </g>
    <g transform="translate(360.0,1.0)">
      <title>Point Load = -205 kN</title>
      <path class="cload" d="M 0 42.0 l 0 -39.0"/>
      <text y="42.0" x="0" class="dim" dy="8.0">205</text>
    </g>
    <g transform="translate(360.0,0.0)">
      <title>Moment load = -660 kN-m</title>
      <path class="dim" d="M -2.0 -2.0 l 4.0 4.0 M -2.0 2.0 l 4.0 -4.0"/>
      <path class="mloadInkscape" d="M 0.0,-15.0 A 15.0,15.0 0 0,1 0.0,15.0"/>
      <text y="-15.0" x="0.0" class="dim" dy="-4.0">660</text>
    </g>
    <text x="360.0" y="0" class="dwglabel" dx="18.0">FBD [m,kN]</text>
  </g>
  <g id="beam-shear-diagram" visibility="visible" transform="translate(0.0,216.0)">
    <g transform="translate(0.0,0.0)">
      <title>Shear Force Diagram</title>
      <path class="vdiag" d="M 0,0 L 0.0,-0.0 90.0,15.8 90.0,31.6 180.0,47.4 180.0,76.4 360.0,108.0 360.0,-0.0 z"/>
      <circle cx="90.0" cy="15.8" r="1.5" stroke="none" fill="red"><title>-30 kN</title></circle>
      <text x="90.0" y="15.8" dx="-1.0" dy="7.0" class="vmlabel" text-anchor="end"><title>-30 kN</title>-30</text>
      <circle cx="90.0" cy="31.6" r="1.5" stroke="none" fill="red"><title>-60 kN</title></circle>
      <text x="90.0" y="31.6" dx="-1.0" dy="7.0" class="vmlabel" text-anchor="end"><title>-60 kN</title>-60</text>
      <circle cx="180.0" cy="47.4" r="1.5" stroke="none" fill="red"><title>-90 kN</title></circle>
      <text x="180.0" y="47.4" dx="-1.0" dy="7.0" class="vmlabel" text-anchor="end"><title>-90 kN</title>-90</text>
      <circle cx="180.0" cy="76.4" r="1.5" stroke="none" fill="red"><title>-145 kN</title></circle>
      <text x="180.0" y="76.4" dx="-1.0" dy="7.0" class="vmlabel" text-anchor="end"><title>-145 kN</title>-145</text>
      <circle cx="360.0" cy="108.0" r="1.5" stroke="none" fill="red"><title>-205 kN</title></circle>
      <text x="360.0" y="108.0" dx="1.0" dy="7.0" class="vmlabel" text-anchor="start"><title>-205 kN</title>-205</text>
      <text x="360.0" y="0" class="dwglabel" dx="18.0">V [kN]</text>
    </g>
    <g id="beam-zvguides" visibility="visible" transform="translate(0.0,0.0)">
    </g>
  </g>
  <g id="beam-moment-diagram" visibility="visible" transform="translate(0.0,360.0)">
    <g transform="translate(0.0,0.0)">
      <title>Bending Moment Diagram</title>
      <path class="mdiag" d="M 0,0 L 0.0,0.0 1.8,0.0 3.6,0.0 5.4,0.0 7.2,0.0 9.0,0.0 10.8,0.1 12.6,0.1 14.4,0.1 16.2,0.1 18.0,0.1 19.8,0.2 21.6,0.2 23.4,0.2 25.2,0.3 27.0,0.3 28.8,0.4 30.6,0.4 32.4,0.5 34.2,0.5 36.0,0.6 37.8,0.6 39.6,0.7 41.4,0.8 43.2,0.8 45.0,0.9 46.8,1.0 48.6,1.1 50.4,1.2 52.2,1.2 54.0,1.3 55.8,1.4 57.6,1.5 59.4,1.6 61.2,1.7 63.0,1.8 64.8,1.9 66.6,2.0 68.4,2.1 70.2,2.2 72.0,2.4 73.8,2.5 75.6,2.6 77.4,2.7 79.2,2.9 81.0,3.0 82.8,3.1 84.6,3.3 86.4,3.4 88.2,3.5 90.0,3.7 91.8,4.0 93.6,4.3 95.4,4.6 97.2,4.9 99.0,5.2 100.8,5.5 102.6,5.8 104.4,6.1 106.2,6.5 108.0,6.8 109.8,7.1 111.6,7.4 113.4,7.8 115.2,8.1 117.0,8.4 118.8,8.8 120.6,9.1 122.4,9.5 124.2,9.8 126.0,10.2 127.8,10.5 129.6,10.9 131.4,11.2 133.2,11.6 135.0,12.0 136.8,12.3 138.6,12.7 140.4,13.1 142.2,13.5 144.0,13.8 145.8,14.2 147.6,14.6 149.4,15.0 151.2,15.4 153.0,15.8 154.8,16.2 156.6,16.6 158.4,17.0 160.2,17.4 162.0,17.8 163.8,18.2 165.6,18.7 167.4,19.1 169.2,19.5 171.0,19.9 172.8,20.3 174.6,20.8 176.4,21.2 178.2,21.7 180.0,22.1 181.8,22.8 183.6,23.5 185.4,24.2 187.2,25.0 189.0,25.7 190.8,26.4 192.6,27.1 194.4,27.9 196.2,28.6 198.0,29.4 199.8,30.1 201.6,30.8 203.4,31.6 205.2,32.3 207.0,33.1 208.8,33.9 210.6,34.6 212.4,35.4 214.2,36.1 216.0,36.9 217.8,37.7 219.6,38.5 221.4,39.2 223.2,40.0 225.0,40.8 226.8,41.6 228.6,42.4 230.4,43.2 232.2,44.0 234.0,44.8 235.8,45.6 237.6,46.4 239.4,47.2 241.2,48.0 243.0,48.8 244.8,49.6 246.6,50.4 248.4,51.3 250.2,52.1 252.0,52.9 253.8,53.8 255.6,54.6 257.4,55.4 259.2,56.3 261.0,57.1 262.8,58.0 264.6,58.8 266.4,59.7 268.2,60.5 270.0,61.4 271.8,62.2 273.6,63.1 275.4,64.0 277.2,64.8 279.0,65.7 280.8,66.6 282.6,67.4 284.4,68.3 286.2,69.2 288.0,70.1 289.8,71.0 291.6,71.9 293.4,72.8 295.2,73.7 297.0,74.6 298.8,75.5 300.6,76.4 302.4,77.3 304.2,78.2 306.0,79.1 307.8,80.1 309.6,81.0 311.4,81.9 313.2,82.8 315.0,83.8 316.8,84.7 318.6,85.6 320.4,86.6 322.2,87.5 324.0,88.5 325.8,89.4 327.6,90.4 329.4,91.3 331.2,92.3 333.0,93.2 334.8,94.2 336.6,95.2 338.4,96.1 340.2,97.1 342.0,98.1 343.8,99.1 345.6,100.0 347.4,101.0 349.2,102.0 351.0,103.0 352.8,104.0 354.6,105.0 356.4,106.0 358.2,107.0 360.0,108.0 360.0,0.0 z"/>
      <circle cx="90.0" cy="3.7" r="1.5" stroke="none" fill="red"><title>-22.5 kN-m</title></circle>
      <text x="90.0" y="3.7" dx="-1.0" dy="7.0" class="vmlabel" text-anchor="end"><title>-22.5 kN-m</title>-22.5</text>
      <circle cx="180.0" cy="22.1" r="1.5" stroke="none" fill="red"><title>-135 kN-m</title></circle>
      <text x="180.0" y="22.1" dx="-1.0" dy="7.0" class="vmlabel" text-anchor="end"><title>-135 kN-m</title>-135</text>
      <circle cx="360.0" cy="108.0" r="1.5" stroke="none" fill="red"><title>-660 kN-m</title></circle>
      <text x="360.0" y="108.0" dx="1.0" dy="7.0" class="vmlabel" text-anchor="start"><title>-660 kN-m</title>-660</text>
      <text x="360.0" y="0" class="dwglabel" dx="18.0">M [kN-m]</text>
    </g>
  </g>
</g>

</svg>
