<?xml version="1.0" standalone="yes"?>
<!DOCTYPE svg PUBLIC "-//W3C//DTD SVG 1.1//EN" 
  "http://www.w3.org/Graphics/SVG/1.1/DTD/svg11.dtd">
<svg xmlns="http://www.w3.org/2000/svg"
     xmlns:xlink="http://www.w3.org/1999/xlink"
     version="1.1"
     width="8.5in" 
     height="11.0in" 
     viewBox="0 0 612 792">
  <defs>
    <style type="text/css"><![CDATA[
    .elem {
	stroke-width: 2.0;
	stroke: black;
	}
    path.dim {
       stroke-width: 0.5;
       stroke: black;
       }
    path.guides {
       stroke-width: 0.5;
       stroke: grey;
       }
    text.dwglabel {
       font-family: Verdana, Arial;
       font-size: 10px;
       font-weight: bold;
       fill: black;
       text-align: center;
       text-anchor: start;
       }
    text.dim {
       font-family: Verdana, Arial;
       font-size: 8px;
       font-weight: bold;
       fill: black;
       text-align: center;
       text-anchor: middle;
       }
    text.guides {
       font-family: Verdana, Arial;
       font-size: 8px;
       font-weight: normal;
       font-style: italic;
       fill: black;
       text-align: center;
       text-anchor: middle;
       }
    text.vmlabel {
       font-family: Verdana, Arial;
       font-size: 8px;
       font-style: italic;
       fill: black;
       }
    text.notes {
       font-family: Verdana, Arial;
       font-size: 9px;
       font-weight: normal;
       font-style: italic;
       fill: black;
       text-align: center;
       text-anchor: left;
       }
    text.ptlabel {
       font-family: Verdana, Arial;
       font-size: 7px;
       font-style: italic;
       fill: black;
       text-align: center;
       text-anchor: start;
       }
     path.cload {
       fill: none;
       stroke-width: 1;
       stroke: black; 
       marker-end: url(#CLArrowEnd);
     }
      path.mload {
       fill: none;
       stroke-width: 1;
       stroke: black; 
       marker-end: url(#MLArrowEnd);
     }
      path.mloadInkscape {
       fill: none;
       stroke-width: 1;
       stroke: black; 
       marker-end: url(#MLArrowStart);
     }
     polygon.dload {
       fill: rgb(240,240,240);
       opacity: 0.5; /* if < 1, REALLY slows down printing of the pdfs */
       stroke-width: 1;
       stroke: black; 
     }
     path.dload {
       fill: none;
       stroke-width: 1;
       stroke: black; 
       marker-end: url(#DLArrowEnd);
     }
     path.dloadna {
       fill: none;
       stroke-width: 1;
       stroke: black; 
     }
     path.vdiag {
       fill: url(#crosshatch45);
       stroke-width: 1;
       stroke: black; 
     }
     path.mdiag {
       fill: url(#crosshatch45);
       stroke-width: 1;
       stroke: black; 
     }

    ]]></style>
    <g id="PinnedSupport" transform="translate(0,1.0)">
      <path d="M 0 0 l 4 6 l -8 0 z" 
	    stroke="black" stroke-width="0" fill="black" opacity="1.0" />
      <path d="M -6 6 l 12 0" 
	    stroke="black" stroke-width="1" fill="none" />
      <path d="M 6 6 l -3 3 m 0 -3 l -3 3 m 0 -3 l -3 3 m 0 -3 l -3 3 m 0 -3 l -3 3"
	    stroke="black" stroke-width="1" fill="none" />
    </g>
    <g id="RollerSupport" transform="translate(0,1.0)">
      <circle cx="0" cy="3" r="3"
	    stroke="black" stroke-width="0" fill="black" opacity="1.0" />
      <path d="M -6 6 l 12 0" 
	    stroke="black" stroke-width="1" fill="none" />
      <path d="M 6 6 l -3 3 m 0 -3 l -3 3 m 0 -3 l -3 3 m 0 -3 l -3 3 m 0 -3 l -3 3"
	    stroke="black" stroke-width="1" fill="none" />
    </g>
    <g id="LFixedSupport" transform="translate(-0.5,0)">
      <path d="M 0 -6 l 0 12"
	    stroke="black" stroke-width="1" fill="none" />
      <path d="M 0 -6 l -3 3 m 3 0 l -3 3 m 3 0 l -3 3 m 3 0 l -3 3 m 3 0 l -3 3"
	    stroke="black" stroke-width="1" fill="none" />
    </g>
    <g id="RFixedSupport">
      <use xlink:href="#LFixedSupport" transform="scale(-1,1)"/>
    </g>
    <g id="Hinge">
      <circle cx="0" cy="0" r="2.5"
	      stroke="black" stroke-width="1" fill="white"/>
    </g>
    <g id="ShearRelease">
      <rect x="-3" y="-6" width="6" height="12"
	    stroke="none" fill="white"/>
      <circle cx="0" cy="-6" r="2" stroke="black" strokewidth="0.5" fill="white"/>
      <circle cx="0" cy="0" r="2" stroke="black" strokewidth="0.5" fill="white"/>
      <circle cx="0" cy="6" r="2" stroke="black" strokewidth="0.5" fill="white"/>
      <path d="M -3 -9 l 0 18 M 3 -9 l 0 18" stroke="black" stroke-width="1"/>
    </g>
    <marker id="DLArrowStart"
	    markerUnits="userSpaceOnUse"
	    markerWidth="8"
	    markerHeight="4"
	    orient="auto"
	    viewBox="0 0 8 4"
	    refX="0"
	    refY="2">
      <path d="M 0 2 l 8 -2 l 0 4 z"/>
    </marker>
    <marker id="DLArrowEnd"
	    markerUnits="userSpaceOnUse"
	    markerWidth="8"
	    markerHeight="4"
	    orient="auto"
	    viewBox="0 0 8 4"
	    refX="8"
	    refY="2">
      <path d="M 0 0 l 8 2 l -8 2 z"/>
    </marker>
    <marker id="CLArrowStart"
	    markerUnits="userSpaceOnUse"
	    markerWidth="10.0"
	    markerHeight="6"
	    orient="auto"
	    viewBox="0 0 10 6"
	    refX="3.0"
	    refY="3">
      <path d="M 0 3 l 10 -3 l -2 3 l 2 3 z"/>
    </marker>
    <marker id="CLArrowEnd"
	    markerUnits="userSpaceOnUse"
	    markerWidth="10.0"
	    markerHeight="6"
	    orient="auto"
	    viewBox="0 0 10 6"
	    refX="7.0"
	    refY="3">
      <path d="M 0 0 l 10 3 l -10 3 l 2 -3 z"/>
    </marker>
    <marker id="MLArrowStart"
	    markerUnits="userSpaceOnUse"
	    markerWidth="10.0"
	    markerHeight="6"
	    orient="auto"
	    viewBox="0 0 10 6"
	    refX="8"
	    refY="3">
      <path d="M 10 0 l -10 3 l 10 3 l -2 -3 z"/>
    </marker>
    <marker id="MLArrowEnd"
	    markerUnits="userSpaceOnUse"
	    markerWidth="10.0"
	    markerHeight="6"
	    orient="auto"
	    viewBox="0 0 10 6"
	    refX="2"
	    refY="3">
      <path d="M 0 0 l 10 3 l -10 3 l 2 -3 z"/>
    </marker>
    <pattern id="crosshatch45" patternUnits="userSpaceOnUse"
             x="0" y="0" width="10" height="10"
	     viewBox="0 0 10 10">
       <path d="M 0 0 L 10 10" fill="none" stroke="grey" stroke-width="0.2"/>
    </pattern>


  </defs>

<g transform="translate(72.0,122.0)">
  <title>Beam! Length = 19.7</title>
  <path class="elem" d="M 0 0 l 360.0 0"/>
  <g transform="translate(0.0,0.0)">
    <title>UD Load 30 kN/m</title>
    <polygon points="0,0 0,-24.0 219.3,-24.0 219.3,0" class="dload"/>
    <path class="dload" d="M 0.0 -24.0 L 0.0 -1.0"/>
    <path class="dload" d="M 24.4 -24.0 L 24.4 -1.0"/>
    <path class="dload" d="M 48.7 -24.0 L 48.7 -1.0"/>
    <path class="dload" d="M 73.1 -24.0 L 73.1 -1.0"/>
    <path class="dload" d="M 97.5 -24.0 L 97.5 -1.0"/>
    <path class="dload" d="M 121.8 -24.0 L 121.8 -1.0"/>
    <path class="dload" d="M 146.2 -24.0 L 146.2 -1.0"/>
    <path class="dload" d="M 170.6 -24.0 L 170.6 -1.0"/>
    <path class="dload" d="M 194.9 -24.0 L 194.9 -1.0"/>
    <path class="dload" d="M 219.3 -24.0 L 219.3 -1.0"/>
    <text style="text-anchor: middle;" dx="0.0" dy="-2.0" y="-24.0" x="109.6" class="dim">30</text>
  </g>
  <g transform="translate(219.3,0.0)">
    <title>LD Load 24 - 10 kN/m</title>
    <polygon points="0,0 0,-20.4 107.8,-12.0 107.8,0" class="dload"/>
    <path class="dload" d="M 0.0 -20.4 L 0.0 -1.0"/>
    <path class="dload" d="M 27.0 -18.3 L 27.0 -1.0"/>
    <path class="dload" d="M 53.9 -16.2 L 53.9 -1.0"/>
    <path class="dload" d="M 80.9 -14.1 L 80.9 -1.0"/>
    <path class="dload" d="M 107.8 -12.0 L 107.8 -1.0"/>
    <text style="text-anchor: end;" dx="0.0" dy="-2.0" y="-20.4" x="0.0" class="dim">24</text>
    <text style="text-anchor: start;" dx="0.0" dy="-2.0" y="-12.0" x="107.8" class="dim">10</text>
  </g>
  <g transform="translate(360.0,-1.0)">
    <title>Point Load = 80 kN</title>
    <path class="cload" d="M 0 -26.0 l 0 23.0"/>
    <text y="-26.0" x="0" class="dim" dy="-3.0">80</text>
  </g>
  <use y="0" x="32.9" xlink:href="#RollerSupport"/>
  <use y="0" x="106.0" xlink:href="#RollerSupport"/>
  <use y="0" x="127.9" xlink:href="#Hinge"/>
  <use y="0" x="219.3" xlink:href="#Hinge"/>
  <use y="0" x="263.1" xlink:href="#RollerSupport"/>
  <use y="0" x="327.1" xlink:href="#PinnedSupport"/>
  <path class="dim" d="M 127.9 10.0 l 0 25.0"/>
  <path class="dim" d="M 106.0 30.0 l 21.9 0"/>
  <path class="dim" d="M 106.0 30.0 m -3.0 3.0 l 6.0 -6.0"/>
  <path class="dim" d="M 127.9 30.0 m -3.0 3.0 l 6.0 -6.0"/>
  <text y="30.0" x="117.0" class="dim" dy="-3.0">1.2</text>
  <path class="dim" d="M 219.3 10.0 l 0 25.0"/>
  <path class="dim" d="M 127.9 30.0 l 91.4 0"/>
  <path class="dim" d="M 127.9 30.0 m -3.0 3.0 l 6.0 -6.0"/>
  <path class="dim" d="M 219.3 30.0 m -3.0 3.0 l 6.0 -6.0"/>
  <text y="30.0" x="173.6" class="dim" dy="-3.0">5</text>
  <path class="dim" d="M 0.0 10.0 l 0 40.0"/>
  <path class="dim" d="M 32.9 10.0 l 0 40.0"/>
  <path class="dim" d="M 0.0 45.0 l 32.9 0"/>
  <path class="dim" d="M 0.0 45.0 m -3.0 3.0 l 6.0 -6.0"/>
  <path class="dim" d="M 32.9 45.0 m -3.0 3.0 l 6.0 -6.0"/>
  <text y="45.0" x="16.4" class="dim" dy="-3.0">1.8</text>
  <path class="dim" d="M 106.0 10.0 l 0 40.0"/>
  <path class="dim" d="M 32.9 45.0 l 73.1 0"/>
  <path class="dim" d="M 106.0 45.0 m -3.0 3.0 l 6.0 -6.0"/>
  <text y="45.0" x="69.4" class="dim" dy="-3.0">4</text>
  <path class="dim" d="M 263.1 10.0 l 0 40.0"/>
  <path class="dim" d="M 106.0 45.0 l 157.2 0"/>
  <path class="dim" d="M 263.1 45.0 m -3.0 3.0 l 6.0 -6.0"/>
  <text y="45.0" x="184.6" class="dim" dy="-3.0">8.6</text>
  <path class="dim" d="M 327.1 10.0 l 0 40.0"/>
  <path class="dim" d="M 263.1 45.0 l 64.0 0"/>
  <path class="dim" d="M 327.1 45.0 m -3.0 3.0 l 6.0 -6.0"/>
  <text y="45.0" x="295.1" class="dim" dy="-3.0">3.5</text>
  <path class="dim" d="M 360.0 10.0 l 0 40.0"/>
  <path class="dim" d="M 327.1 45.0 l 32.9 0"/>
  <path class="dim" d="M 360.0 45.0 m -3.0 3.0 l 6.0 -6.0"/>
  <text y="45.0" x="343.6" class="dim" dy="-3.0">1.8</text>
  <text y="17.0" x="0.0" class="ptlabel" dx="1.0">a</text>
  <text y="17.0" x="32.9" class="ptlabel" dx="1.0">b</text>
  <text y="17.0" x="106.0" class="ptlabel" dx="1.0">c</text>
  <text y="17.0" x="127.9" class="ptlabel" dx="1.0">d</text>
  <text y="17.0" x="219.3" class="ptlabel" dx="1.0">e</text>
  <text y="17.0" x="263.1" class="ptlabel" dx="1.0">f</text>
  <text y="17.0" x="327.1" class="ptlabel" dx="1.0">g</text>
  <text y="17.0" x="360.0" class="ptlabel" dx="1.0">h</text>
  <text y="-56.0" x="0" xml:space="preserve" class="notes">Units are m, kN;       Difficulty Level = 9</text>
  <g id="beam-guides" visibility="visible" transform="translate(0.0,0.0)">
    <path class="guides" d="M 0.0 51.0 L 0.0 474.0 M 32.9 51.0 L 32.9 474.0 M 106.0 51.0 L 106.0 474.0 M 127.9 51.0 L 127.9 474.0 M 219.3 51.0 L 219.3 474.0 M 263.1 51.0 L 263.1 474.0 M 327.1 51.0 L 327.1 474.0 M 360.0 51.0 L 360.0 474.0"/>
  </g>
  <g id="beam-fb-diagram" visibility="visible" transform="translate(0.0,144.0)">
    <title>Free Body Diagram</title>
    <path class="elem" d="M 0 0 l 360.0 0"/>
    <g transform="translate(0.0,0.0)">
      <title>UD Load 30 kN/m</title>
      <polygon points="0,0 0,-24.0 219.3,-24.0 219.3,0" class="dload"/>
      <path class="dload" d="M 0.0 -24.0 L 0.0 -1.0"/>
      <path class="dload" d="M 24.4 -24.0 L 24.4 -1.0"/>
      <path class="dload" d="M 48.7 -24.0 L 48.7 -1.0"/>
      <path class="dload" d="M 73.1 -24.0 L 73.1 -1.0"/>
      <path class="dload" d="M 97.5 -24.0 L 97.5 -1.0"/>
      <path class="dload" d="M 121.8 -24.0 L 121.8 -1.0"/>
      <path class="dload" d="M 146.2 -24.0 L 146.2 -1.0"/>
      <path class="dload" d="M 170.6 -24.0 L 170.6 -1.0"/>
      <path class="dload" d="M 194.9 -24.0 L 194.9 -1.0"/>
      <path class="dload" d="M 219.3 -24.0 L 219.3 -1.0"/>
      <text style="text-anchor: middle;" dx="0.0" dy="-2.0" y="-24.0" x="109.6" class="dim">30</text>
    </g>
    <g transform="translate(219.3,0.0)">
      <title>LD Load 24 - 10 kN/m</title>
      <polygon points="0,0 0,-20.4 107.8,-12.0 107.8,0" class="dload"/>
      <path class="dload" d="M 0.0 -20.4 L 0.0 -1.0"/>
      <path class="dload" d="M 27.0 -18.3 L 27.0 -1.0"/>
      <path class="dload" d="M 53.9 -16.2 L 53.9 -1.0"/>
      <path class="dload" d="M 80.9 -14.1 L 80.9 -1.0"/>
      <path class="dload" d="M 107.8 -12.0 L 107.8 -1.0"/>
      <text style="text-anchor: end;" dx="0.0" dy="-2.0" y="-20.4" x="0.0" class="dim">24</text>
      <text style="text-anchor: start;" dx="0.0" dy="-2.0" y="-12.0" x="107.8" class="dim">10</text>
    </g>
    <g transform="translate(360.0,-1.0)">
      <title>Point Load = 80 kN</title>
      <path class="cload" d="M 0 -32.9 l 0 29.9"/>
      <text y="-32.9" x="0" class="dim" dy="-3.0">80</text>
    </g>
    <g transform="translate(32.9,1.0)">
      <title>Point Load = -98.25 kN</title>
      <path class="cload" d="M 0 34.4 l 0 -31.4"/>
      <text y="34.4" x="0" class="dim" dy="8.0">98.25</text>
    </g>
    <g transform="translate(106.0,1.0)">
      <title>Point Load = -186.75 kN</title>
      <path class="cload" d="M 0 42.0 l 0 -39.0"/>
      <text y="42.0" x="0" class="dim" dy="8.0">186.8</text>
    </g>
    <g transform="translate(263.1,1.0)">
      <title>Point Load = -181.428 kN</title>
      <path class="cload" d="M 0 41.5 l 0 -38.5"/>
      <text y="41.5" x="0" class="dim" dy="8.0">181.4</text>
    </g>
    <g transform="translate(327.1,1.0)">
      <title>Point Load = -73.8724 kN</title>
      <path class="cload" d="M 0 32.3 l 0 -29.3"/>
      <text y="32.3" x="0" class="dim" dy="8.0">73.87</text>
    </g>
    <text x="360.0" y="0" class="dwglabel" dx="18.0">FBD [m,kN]</text>
  </g>
  <g id="beam-shear-diagram" visibility="visible" transform="translate(0.0,216.0)">
    <g transform="translate(0.0,50.6)">
      <title>Shear Force Diagram</title>
      <path class="vdiag" d="M 0,0 L 0.0,-0.0 32.9,24.6 32.9,-20.2 106.0,34.6 106.0,-50.6 127.9,-34.2 219.3,34.2 221.1,35.3 222.9,36.4 224.8,37.4 226.6,38.5 228.4,39.5 230.3,40.6 232.1,41.6 233.9,42.6 235.7,43.6 237.6,44.6 239.4,45.6 241.2,46.6 243.0,47.5 244.9,48.5 246.7,49.4 248.5,50.3 250.4,51.3 252.2,52.2 254.0,53.1 255.8,53.9 257.7,54.8 259.5,55.7 261.3,56.5 263.1,57.4 263.1,-25.4 264.9,-24.6 266.7,-23.8 268.5,-23.0 270.3,-22.2 272.0,-21.5 273.8,-20.7 275.6,-20.0 277.4,-19.2 279.1,-18.5 280.9,-17.8 282.7,-17.1 284.5,-16.4 286.2,-15.7 288.0,-15.0 289.8,-14.4 291.6,-13.7 293.4,-13.1 295.1,-12.4 296.9,-11.8 298.7,-11.2 300.5,-10.6 302.2,-10.0 304.0,-9.4 305.8,-8.9 307.6,-8.3 309.3,-7.7 311.1,-7.2 312.9,-6.7 314.7,-6.2 316.4,-5.6 318.2,-5.1 320.0,-4.7 321.8,-4.2 323.6,-3.7 325.3,-3.2 327.1,-2.8 327.1,-36.5 360.0,-36.5 360.0,-0.0 z"/>
      <circle cx="32.9" cy="24.6" r="1.5" stroke="none" fill="red"><title>-54 kN</title></circle>
      <text x="32.9" y="24.6" dx="1.0" dy="7.0" class="vmlabel" text-anchor="start"><title>-54 kN</title>-54</text>
      <circle cx="32.9" cy="-20.2" r="1.5" stroke="none" fill="red"><title>44.25 kN</title></circle>
      <text x="32.9" y="-20.2" dx="1.0" dy="-1.0" class="vmlabel" text-anchor="start"><title>44.25 kN</title>44.25</text>
      <circle cx="106.0" cy="34.6" r="1.5" stroke="none" fill="red"><title>-75.75 kN</title></circle>
      <text x="106.0" y="34.6" dx="1.0" dy="7.0" class="vmlabel" text-anchor="start"><title>-75.75 kN</title>-75.75</text>
      <circle cx="106.0" cy="-50.6" r="1.5" stroke="none" fill="red"><title>111 kN</title></circle>
      <text x="106.0" y="-50.6" dx="1.0" dy="-1.0" class="vmlabel" text-anchor="start"><title>111 kN</title>111</text>
      <circle cx="127.9" cy="-34.2" r="1.5" stroke="none" fill="red"><title>75 kN</title></circle>
      <text x="127.9" y="-34.2" dx="1.0" dy="-1.0" class="vmlabel" text-anchor="start"><title>75 kN</title>75</text>
      <circle cx="219.3" cy="34.2" r="1.5" stroke="none" fill="red"><title>-75 kN</title></circle>
      <text x="219.3" y="34.2" dx="-1.0" dy="7.0" class="vmlabel" text-anchor="end"><title>-75 kN</title>-75</text>
      <circle cx="263.1" cy="57.4" r="1.5" stroke="none" fill="red"><title>-125.8 kN</title></circle>
      <text x="263.1" y="57.4" dx="1.0" dy="7.0" class="vmlabel" text-anchor="start"><title>-125.8 kN</title>-125.8</text>
      <circle cx="263.1" cy="-25.4" r="1.5" stroke="none" fill="red"><title>55.66 kN</title></circle>
      <text x="263.1" y="-25.4" dx="1.0" dy="-1.0" class="vmlabel" text-anchor="start"><title>55.66 kN</title>55.66</text>
      <circle cx="327.1" cy="-2.8" r="1.5" stroke="none" fill="red"><title>6.128 kN</title></circle>
      <text x="327.1" y="-2.8" dx="-1.0" dy="-1.0" class="vmlabel" text-anchor="end"><title>6.128 kN</title>6.128</text>
      <circle cx="327.1" cy="-36.5" r="1.5" stroke="none" fill="red"><title>80 kN</title></circle>
      <text x="327.1" y="-36.5" dx="1.0" dy="-1.0" class="vmlabel" text-anchor="start"><title>80 kN</title>80</text>
      <circle cx="360.0" cy="-36.5" r="1.5" stroke="none" fill="red"><title>80 kN</title></circle>
      <text x="360.0" y="-36.5" dx="1.0" dy="-1.0" class="vmlabel" text-anchor="start"><title>80 kN</title>80</text>
      <text x="360.0" y="0" class="dwglabel" dx="18.0">V [kN]</text>
    </g>
    <g id="beam-zvguides" visibility="visible" transform="translate(0.0,0.0)">
      <path class="guides" d="M 59.8 52.6 L 59.8 258.0 M 173.6 52.6 L 173.6 258.0"/>
      <path class="guides" d="M 32.9 126.0 L 59.8 126.0"/>
      <path class="guides" d="M 32.9 126.0 m -3.0 3.0 l 6.0 -6.0"/>
      <path class="guides" d="M 59.8 126.0 m -3.0 3.0 l 6.0 -6.0"/>
      <text y="126.0" x="46.4" class="guides" dy="-3.0">1.47</text>
      <path class="guides" d="M 127.9 126.0 L 173.6 126.0"/>
      <path class="guides" d="M 127.9 126.0 m -3.0 3.0 l 6.0 -6.0"/>
      <path class="guides" d="M 173.6 126.0 m -3.0 3.0 l 6.0 -6.0"/>
      <text y="126.0" x="150.8" class="guides" dy="-3.0">2.5</text>
    </g>
  </g>
  <g id="beam-moment-diagram" visibility="visible" transform="translate(0.0,360.0)">
    <g transform="translate(0.0,30.0)">
      <title>Bending Moment Diagram</title>
      <path class="mdiag" d="M 0,0 L 0.0,0.0 1.8,0.0 3.7,0.2 5.5,0.4 7.3,0.8 9.1,1.2 11.0,1.7 12.8,2.4 14.6,3.1 16.4,3.9 18.3,4.8 20.1,5.8 21.9,6.9 23.8,8.1 25.6,9.4 27.4,10.8 29.2,12.3 31.1,13.9 32.9,15.6 34.7,14.2 36.5,13.0 38.2,11.8 40.0,10.8 41.8,9.8 43.6,8.9 45.4,8.1 47.2,7.4 48.9,6.8 50.7,6.3 52.5,5.9 54.3,5.6 56.1,5.3 57.9,5.2 59.6,5.1 59.8,5.1 61.4,5.1 63.2,5.3 65.0,5.5 66.8,5.8 68.6,6.2 70.3,6.7 72.1,7.3 73.9,7.9 75.7,8.7 77.5,9.6 79.2,10.5 81.0,11.6 82.8,12.7 84.6,13.9 86.4,15.2 88.2,16.6 89.9,18.1 91.7,19.7 93.5,21.4 95.3,23.2 97.1,25.0 98.9,27.0 100.6,29.0 102.4,31.2 104.2,33.4 106.0,35.7 107.8,32.2 109.6,28.8 111.5,25.5 113.3,22.3 115.1,19.2 117.0,16.1 118.8,13.2 120.6,10.4 122.4,7.6 124.3,5.0 126.1,2.4 127.9,0.0 129.7,-2.3 131.5,-4.5 133.3,-6.6 135.1,-8.7 136.9,-10.6 138.7,-12.5 140.5,-14.2 142.3,-15.9 144.0,-17.4 145.8,-18.9 147.6,-20.3 149.4,-21.6 151.2,-22.8 153.0,-23.9 154.8,-24.9 156.6,-25.8 158.4,-26.7 160.2,-27.4 162.0,-28.1 163.8,-28.6 165.5,-29.1 167.3,-29.4 169.1,-29.7 170.9,-29.9 172.7,-30.0 173.6,-30.0 174.5,-30.0 176.3,-29.9 178.1,-29.7 179.9,-29.4 181.7,-29.1 183.5,-28.6 185.2,-28.1 187.0,-27.4 188.8,-26.7 190.6,-25.8 192.4,-24.9 194.2,-23.9 196.0,-22.8 197.8,-21.6 199.6,-20.3 201.4,-18.9 203.2,-17.4 205.0,-15.9 206.7,-14.2 208.5,-12.5 210.3,-10.6 212.1,-8.7 213.9,-6.6 215.7,-4.5 217.5,-2.3 219.3,-0.0 221.1,2.4 222.9,5.0 224.8,7.5 226.6,10.2 228.4,12.9 230.3,15.8 232.1,18.6 233.9,21.6 235.7,24.6 237.6,27.7 239.4,30.9 241.2,34.1 243.0,37.4 244.9,40.8 246.7,44.2 248.5,47.7 250.4,51.3 252.2,54.9 254.0,58.6 255.8,62.4 257.7,66.2 259.5,70.1 261.3,74.0 263.1,78.0 264.9,76.3 266.7,74.6 268.5,73.0 270.3,71.5 272.0,70.0 273.8,68.6 275.6,67.2 277.4,65.8 279.1,64.6 280.9,63.3 282.7,62.1 284.5,61.0 286.2,59.9 288.0,58.8 289.8,57.8 291.6,56.9 293.4,56.0 295.1,55.1 296.9,54.3 298.7,53.5 300.5,52.8 302.2,52.0 304.0,51.4 305.8,50.8 307.6,50.2 309.3,49.6 311.1,49.1 312.9,48.6 314.7,48.2 316.4,47.8 318.2,47.4 320.0,47.1 321.8,46.8 323.6,46.5 325.3,46.3 327.1,46.1 360.0,-0.0 z"/>
      <circle cx="32.9" cy="15.6" r="1.5" stroke="none" fill="red"><title>-48.6 kN-m</title></circle>
      <text x="32.9" y="15.6" dx="1.0" dy="7.0" class="vmlabel" text-anchor="start"><title>-48.6 kN-m</title>-48.6</text>
      <circle cx="59.8" cy="5.1" r="1.5" stroke="none" fill="red"><title>-15.97 kN-m</title></circle>
      <text x="59.8" y="5.1" dx="-1.0" dy="7.0" class="vmlabel" text-anchor="end"><title>-15.97 kN-m</title>-15.97</text>
      <circle cx="106.0" cy="35.7" r="1.5" stroke="none" fill="red"><title>-111.6 kN-m</title></circle>
      <text x="106.0" y="35.7" dx="1.0" dy="7.0" class="vmlabel" text-anchor="start"><title>-111.6 kN-m</title>-111.6</text>
      <circle cx="173.6" cy="-30.0" r="1.5" stroke="none" fill="red"><title>93.75 kN-m</title></circle>
      <text x="173.6" y="-30.0" dx="1.0" dy="-1.0" class="vmlabel" text-anchor="start"><title>93.75 kN-m</title>93.75</text>
      <circle cx="263.1" cy="78.0" r="1.5" stroke="none" fill="red"><title>-243.7 kN-m</title></circle>
      <text x="263.1" y="78.0" dx="1.0" dy="7.0" class="vmlabel" text-anchor="start"><title>-243.7 kN-m</title>-243.7</text>
      <circle cx="327.1" cy="46.1" r="1.5" stroke="none" fill="red"><title>-144 kN-m</title></circle>
      <text x="327.1" y="46.1" dx="1.0" dy="7.0" class="vmlabel" text-anchor="start"><title>-144 kN-m</title>-144</text>
      <text x="360.0" y="0" class="dwglabel" dx="18.0">M [kN-m]</text>
    </g>
  </g>
</g>

</svg>
