<?xml version="1.0" standalone="yes"?>
<!DOCTYPE svg PUBLIC "-//W3C//DTD SVG 1.1//EN" 
  "http://www.w3.org/Graphics/SVG/1.1/DTD/svg11.dtd">
<svg xmlns="http://www.w3.org/2000/svg"
     xmlns:xlink="http://www.w3.org/1999/xlink"
     version="1.1"
     width="8.5in" 
     height="11.0in" 
     viewBox="0 0 612 792">
  <defs>
    <style type="text/css"><![CDATA[
    .elem {
	stroke-width: 2.0;
	stroke: black;
	}
    path.dim {
       stroke-width: 0.5;
       stroke: black;
       }
    path.guides {
       stroke-width: 0.5;
       stroke: grey;
       }
    text.dwglabel {
       font-family: Verdana, Arial;
       font-size: 10px;
       font-weight: bold;
       fill: black;
       text-align: center;
       text-anchor: start;
       }
    text.dim {
       font-family: Verdana, Arial;
       font-size: 8px;
       font-weight: bold;
       fill: black;
       text-align: center;
       text-anchor: middle;
       }
    text.guides {
       font-family: Verdana, Arial;
       font-size: 8px;
       font-weight: normal;
       font-style: italic;
       fill: black;
       text-align: center;
       text-anchor: middle;
       }
    text.vmlabel {
       font-family: Verdana, Arial;
       font-size: 8px;
       font-style: italic;
       fill: black;
       }
    text.notes {
       font-family: Verdana, Arial;
       font-size: 9px;
       font-weight: normal;
       font-style: italic;
       fill: black;
       text-align: center;
       text-anchor: left;
       }
    text.ptlabel {
       font-family: Verdana, Arial;
       font-size: 7px;
       font-style: italic;
       fill: black;
       text-align: center;
       text-anchor: start;
       }
     path.cload {
       fill: none;
       stroke-width: 1;
       stroke: black; 
       marker-end: url(#CLArrowEnd);
     }
      path.mload {
       fill: none;
       stroke-width: 1;
       stroke: black; 
       marker-end: url(#MLArrowEnd);
     }
      path.mloadInkscape {
       fill: none;
       stroke-width: 1;
       stroke: black; 
       marker-end: url(#MLArrowStart);
     }
     polygon.dload {
       fill: rgb(240,240,240);
       opacity: 0.5; /* if < 1, REALLY slows down printing of the pdfs */
       stroke-width: 1;
       stroke: black; 
     }
     path.dload {
       fill: none;
       stroke-width: 1;
       stroke: black; 
       marker-end: url(#DLArrowEnd);
     }
     path.dloadna {
       fill: none;
       stroke-width: 1;
       stroke: black; 
     }
     path.vdiag {
       fill: url(#crosshatch45);
       stroke-width: 1;
       stroke: black; 
     }
     path.mdiag {
       fill: url(#crosshatch45);
       stroke-width: 1;
       stroke: black; 
     }

    ]]></style>
    <g id="PinnedSupport" transform="translate(0,1.0)">
      <path d="M 0 0 l 4 6 l -8 0 z" 
	    stroke="black" stroke-width="0" fill="black" opacity="1.0" />
      <path d="M -6 6 l 12 0" 
	    stroke="black" stroke-width="1" fill="none" />
      <path d="M 6 6 l -3 3 m 0 -3 l -3 3 m 0 -3 l -3 3 m 0 -3 l -3 3 m 0 -3 l -3 3"
	    stroke="black" stroke-width="1" fill="none" />
    </g>
    <g id="RollerSupport" transform="translate(0,1.0)">
      <circle cx="0" cy="3" r="3"
	    stroke="black" stroke-width="0" fill="black" opacity="1.0" />
      <path d="M -6 6 l 12 0" 
	    stroke="black" stroke-width="1" fill="none" />
      <path d="M 6 6 l -3 3 m 0 -3 l -3 3 m 0 -3 l -3 3 m 0 -3 l -3 3 m 0 -3 l -3 3"
	    stroke="black" stroke-width="1" fill="none" />
    </g>
    <g id="LFixedSupport" transform="translate(-0.5,0)">
      <path d="M 0 -6 l 0 12"
	    stroke="black" stroke-width="1" fill="none" />
      <path d="M 0 -6 l -3 3 m 3 0 l -3 3 m 3 0 l -3 3 m 3 0 l -3 3 m 3 0 l -3 3"
	    stroke="black" stroke-width="1" fill="none" />
    </g>
    <g id="RFixedSupport">
      <use xlink:href="#LFixedSupport" transform="scale(-1,1)"/>
    </g>
    <g id="Hinge">
      <circle cx="0" cy="0" r="2.5"
	      stroke="black" stroke-width="1" fill="white"/>
    </g>
    <g id="ShearRelease">
      <rect x="-3" y="-6" width="6" height="12"
	    stroke="none" fill="white"/>
      <circle cx="0" cy="-6" r="2" stroke="black" strokewidth="0.5" fill="white"/>
      <circle cx="0" cy="0" r="2" stroke="black" strokewidth="0.5" fill="white"/>
      <circle cx="0" cy="6" r="2" stroke="black" strokewidth="0.5" fill="white"/>
      <path d="M -3 -9 l 0 18 M 3 -9 l 0 18" stroke="black" stroke-width="1"/>
    </g>
    <marker id="DLArrowStart"
	    markerUnits="userSpaceOnUse"
	    markerWidth="8"
	    markerHeight="4"
	    orient="auto"
	    viewBox="0 0 8 4"
	    refX="0"
	    refY="2">
      <path d="M 0 2 l 8 -2 l 0 4 z"/>
    </marker>
    <marker id="DLArrowEnd"
	    markerUnits="userSpaceOnUse"
	    markerWidth="8"
	    markerHeight="4"
	    orient="auto"
	    viewBox="0 0 8 4"
	    refX="8"
	    refY="2">
      <path d="M 0 0 l 8 2 l -8 2 z"/>
    </marker>
    <marker id="CLArrowStart"
	    markerUnits="userSpaceOnUse"
	    markerWidth="10.0"
	    markerHeight="6"
	    orient="auto"
	    viewBox="0 0 10 6"
	    refX="3.0"
	    refY="3">
      <path d="M 0 3 l 10 -3 l -2 3 l 2 3 z"/>
    </marker>
    <marker id="CLArrowEnd"
	    markerUnits="userSpaceOnUse"
	    markerWidth="10.0"
	    markerHeight="6"
	    orient="auto"
	    viewBox="0 0 10 6"
	    refX="7.0"
	    refY="3">
      <path d="M 0 0 l 10 3 l -10 3 l 2 -3 z"/>
    </marker>
    <marker id="MLArrowStart"
	    markerUnits="userSpaceOnUse"
	    markerWidth="10.0"
	    markerHeight="6"
	    orient="auto"
	    viewBox="0 0 10 6"
	    refX="8"
	    refY="3">
      <path d="M 10 0 l -10 3 l 10 3 l -2 -3 z"/>
    </marker>
    <marker id="MLArrowEnd"
	    markerUnits="userSpaceOnUse"
	    markerWidth="10.0"
	    markerHeight="6"
	    orient="auto"
	    viewBox="0 0 10 6"
	    refX="2"
	    refY="3">
      <path d="M 0 0 l 10 3 l -10 3 l 2 -3 z"/>
    </marker>
    <pattern id="crosshatch45" patternUnits="userSpaceOnUse"
             x="0" y="0" width="10" height="10"
	     viewBox="0 0 10 10">
       <path d="M 0 0 L 10 10" fill="none" stroke="grey" stroke-width="0.2"/>
    </pattern>


  </defs>

<g transform="translate(72.0,122.0)">
  <title>Beam! Length = 15.2</title>
  <path class="elem" d="M 0 0 l 360.0 0"/>
  <g transform="translate(0.0,0.0)">
    <title>UD Load 26 kN/m</title>
    <polygon points="0,0 0,-12.0 307.9,-12.0 307.9,0" class="dload"/>
    <path class="dload" d="M 0.0 -12.0 L 0.0 -1.0"/>
    <path class="dload" d="M 25.7 -12.0 L 25.7 -1.0"/>
    <path class="dload" d="M 51.3 -12.0 L 51.3 -1.0"/>
    <path class="dload" d="M 77.0 -12.0 L 77.0 -1.0"/>
    <path class="dload" d="M 102.6 -12.0 L 102.6 -1.0"/>
    <path class="dload" d="M 128.3 -12.0 L 128.3 -1.0"/>
    <path class="dload" d="M 153.9 -12.0 L 153.9 -1.0"/>
    <path class="dload" d="M 179.6 -12.0 L 179.6 -1.0"/>
    <path class="dload" d="M 205.3 -12.0 L 205.3 -1.0"/>
    <path class="dload" d="M 230.9 -12.0 L 230.9 -1.0"/>
    <path class="dload" d="M 256.6 -12.0 L 256.6 -1.0"/>
    <path class="dload" d="M 282.2 -12.0 L 282.2 -1.0"/>
    <path class="dload" d="M 307.9 -12.0 L 307.9 -1.0"/>
    <text style="text-anchor: middle;" dx="0.0" dy="-2.0" y="-12.0" x="153.9" class="dim">26</text>
  </g>
  <g transform="translate(360.0,-1.0)">
    <title>Point Load = 45 kN</title>
    <path class="cload" d="M 0 -26.0 l 0 23.0"/>
    <text y="-26.0" x="0" class="dim" dy="-3.0">45</text>
  </g>
  <use y="0" x="0.0" xlink:href="#LFixedSupport"/>
  <use y="0" x="142.1" xlink:href="#Hinge"/>
  <use y="0" x="307.9" xlink:href="#RollerSupport"/>
  <path class="dim" d="M 142.1 10.0 l 0 25.0"/>
  <path class="dim" d="M 0.0 30.0 l 142.1 0"/>
  <path class="dim" d="M 0.0 30.0 m -3.0 3.0 l 6.0 -6.0"/>
  <path class="dim" d="M 142.1 30.0 m -3.0 3.0 l 6.0 -6.0"/>
  <text y="30.0" x="71.1" class="dim" dy="-3.0">6</text>
  <path class="dim" d="M 0.0 10.0 l 0 40.0"/>
  <path class="dim" d="M 307.9 10.0 l 0 40.0"/>
  <path class="dim" d="M 0.0 45.0 l 307.9 0"/>
  <path class="dim" d="M 0.0 45.0 m -3.0 3.0 l 6.0 -6.0"/>
  <path class="dim" d="M 307.9 45.0 m -3.0 3.0 l 6.0 -6.0"/>
  <text y="45.0" x="153.9" class="dim" dy="-3.0">13</text>
  <path class="dim" d="M 360.0 10.0 l 0 40.0"/>
  <path class="dim" d="M 307.9 45.0 l 52.1 0"/>
  <path class="dim" d="M 360.0 45.0 m -3.0 3.0 l 6.0 -6.0"/>
  <text y="45.0" x="333.9" class="dim" dy="-3.0">2.2</text>
  <text y="17.0" x="0.0" class="ptlabel" dx="1.0">a</text>
  <text y="17.0" x="142.1" class="ptlabel" dx="1.0">b</text>
  <text y="17.0" x="307.9" class="ptlabel" dx="1.0">c</text>
  <text y="17.0" x="360.0" class="ptlabel" dx="1.0">d</text>
  <text y="-56.0" x="0" xml:space="preserve" class="notes">Units are m, kN;       Difficulty Level = 5</text>
  <g id="beam-guides" visibility="visible" transform="translate(0.0,0.0)">
    <path class="guides" d="M 0.0 51.0 L 0.0 474.0 M 142.1 51.0 L 142.1 474.0 M 307.9 51.0 L 307.9 474.0 M 360.0 51.0 L 360.0 474.0"/>
  </g>
  <g id="beam-fb-diagram" visibility="visible" transform="translate(0.0,144.0)">
    <title>Free Body Diagram</title>
    <path class="elem" d="M 0 0 l 360.0 0"/>
    <g transform="translate(0.0,0.0)">
      <title>UD Load 26 kN/m</title>
      <polygon points="0,0 0,-12.0 307.9,-12.0 307.9,0" class="dload"/>
      <path class="dload" d="M 0.0 -12.0 L 0.0 -1.0"/>
      <path class="dload" d="M 25.7 -12.0 L 25.7 -1.0"/>
      <path class="dload" d="M 51.3 -12.0 L 51.3 -1.0"/>
      <path class="dload" d="M 77.0 -12.0 L 77.0 -1.0"/>
      <path class="dload" d="M 102.6 -12.0 L 102.6 -1.0"/>
      <path class="dload" d="M 128.3 -12.0 L 128.3 -1.0"/>
      <path class="dload" d="M 153.9 -12.0 L 153.9 -1.0"/>
      <path class="dload" d="M 179.6 -12.0 L 179.6 -1.0"/>
      <path class="dload" d="M 205.3 -12.0 L 205.3 -1.0"/>
      <path class="dload" d="M 230.9 -12.0 L 230.9 -1.0"/>
      <path class="dload" d="M 256.6 -12.0 L 256.6 -1.0"/>
      <path class="dload" d="M 282.2 -12.0 L 282.2 -1.0"/>
      <path class="dload" d="M 307.9 -12.0 L 307.9 -1.0"/>
      <text style="text-anchor: middle;" dx="0.0" dy="-2.0" y="-12.0" x="153.9" class="dim">26</text>
    </g>
    <g transform="translate(360.0,-1.0)">
      <title>Point Load = 45 kN</title>
      <path class="cload" d="M 0 -29.1 l 0 26.1"/>
      <text y="-29.1" x="0" class="dim" dy="-3.0">45</text>
    </g>
    <g transform="translate(0.0,1.0)">
      <title>Point Load = -232.857 kN</title>
      <path class="cload" d="M 0 42.0 l 0 -39.0"/>
      <text y="42.0" x="0" class="dim" dy="8.0">232.9</text>
    </g>
    <g transform="translate(307.9,1.0)">
      <title>Point Load = -150.143 kN</title>
      <path class="cload" d="M 0 36.3 l 0 -33.3"/>
      <text y="36.3" x="0" class="dim" dy="8.0">150.1</text>
    </g>
    <g transform="translate(0.0,0.0)">
      <title>Moment load = 929.143 kN-m</title>
      <path class="dim" d="M -2.0 -2.0 l 4.0 4.0 M -2.0 2.0 l 4.0 -4.0"/>
      <path class="mload" d="M -0.0,-15.0 A 15.0,15.0 0 0,0 -0.0,15.0"/>
      <text y="-15.0" x="-0.0" class="dim" dy="-4.0">929.1</text>
    </g>
    <text x="360.0" y="0" class="dwglabel" dx="18.0">FBD [m,kN]</text>
  </g>
  <g id="beam-shear-diagram" visibility="visible" transform="translate(0.0,216.0)">
    <g transform="translate(0.0,74.4)">
      <title>Shear Force Diagram</title>
      <path class="vdiag" d="M 0,0 L -0.0,-0.0 0.0,-74.4 142.1,-24.6 307.9,33.6 307.9,-14.4 360.0,-14.4 360.0,-0.0 z"/>
      <circle cx="0.0" cy="-74.4" r="1.5" stroke="none" fill="red"><title>232.9 kN</title></circle>
      <text x="0.0" y="-74.4" dx="1.0" dy="-1.0" class="vmlabel" text-anchor="start"><title>232.9 kN</title>232.9</text>
      <circle cx="142.1" cy="-24.6" r="1.5" stroke="none" fill="red"><title>76.86 kN</title></circle>
      <text x="142.1" y="-24.6" dx="1.0" dy="-1.0" class="vmlabel" text-anchor="start"><title>76.86 kN</title>76.86</text>
      <circle cx="307.9" cy="33.6" r="1.5" stroke="none" fill="red"><title>-105.1 kN</title></circle>
      <text x="307.9" y="33.6" dx="1.0" dy="7.0" class="vmlabel" text-anchor="start"><title>-105.1 kN</title>-105.1</text>
      <circle cx="307.9" cy="-14.4" r="1.5" stroke="none" fill="red"><title>45 kN</title></circle>
      <text x="307.9" y="-14.4" dx="1.0" dy="-1.0" class="vmlabel" text-anchor="start"><title>45 kN</title>45</text>
      <circle cx="360.0" cy="-14.4" r="1.5" stroke="none" fill="red"><title>45 kN</title></circle>
      <text x="360.0" y="-14.4" dx="1.0" dy="-1.0" class="vmlabel" text-anchor="start"><title>45 kN</title>45</text>
      <text x="360.0" y="0" class="dwglabel" dx="18.0">V [kN]</text>
    </g>
    <g id="beam-zvguides" visibility="visible" transform="translate(0.0,0.0)">
      <path class="guides" d="M 212.1 76.4 L 212.1 258.0"/>
      <path class="guides" d="M 142.1 126.0 L 212.1 126.0"/>
      <path class="guides" d="M 142.1 126.0 m -3.0 3.0 l 6.0 -6.0"/>
      <path class="guides" d="M 212.1 126.0 m -3.0 3.0 l 6.0 -6.0"/>
      <text y="126.0" x="177.1" class="guides" dy="-3.0">2.96</text>
    </g>
  </g>
  <g id="beam-moment-diagram" visibility="visible" transform="translate(0.0,360.0)">
    <g transform="translate(0.0,11.8)">
      <title>Bending Moment Diagram</title>
      <path class="mdiag" d="M 0,0 L -0.0,0.0 0.0,96.2 1.8,94.4 3.6,92.6 5.4,90.8 7.2,89.0 9.0,87.3 10.8,85.5 12.6,83.8 14.4,82.1 16.2,80.4 18.0,78.7 19.8,77.0 21.6,75.4 23.4,73.7 25.2,72.1 27.0,70.5 28.8,68.9 30.6,67.3 32.4,65.8 34.2,64.2 36.0,62.7 37.8,61.2 39.6,59.7 41.4,58.2 43.2,56.7 45.0,55.3 46.8,53.9 48.6,52.4 50.4,51.0 52.2,49.6 54.0,48.3 55.8,46.9 57.6,45.6 59.4,44.2 61.2,42.9 63.0,41.6 64.8,40.4 66.6,39.1 68.4,37.8 70.2,36.6 72.0,35.4 73.8,34.2 75.5,33.0 77.3,31.8 79.1,30.7 80.9,29.5 82.7,28.4 84.5,27.3 86.3,26.2 88.1,25.1 89.9,24.1 91.7,23.0 93.5,22.0 95.3,21.0 97.1,20.0 98.9,19.0 100.7,18.0 102.5,17.1 104.3,16.1 106.1,15.2 107.9,14.3 109.7,13.4 111.5,12.5 113.3,11.7 115.1,10.8 116.9,10.0 118.7,9.2 120.5,8.4 122.3,7.6 124.1,6.8 125.9,6.1 127.7,5.3 129.5,4.6 131.3,3.9 133.1,3.2 134.9,2.5 136.7,1.9 138.5,1.2 140.3,0.6 142.1,0.0 143.9,-0.6 145.7,-1.2 147.5,-1.7 149.3,-2.3 151.1,-2.8 152.9,-3.4 154.7,-3.9 156.5,-4.3 158.3,-4.8 160.1,-5.3 161.9,-5.7 163.7,-6.1 165.5,-6.6 167.3,-7.0 169.1,-7.3 170.9,-7.7 172.7,-8.0 174.5,-8.4 176.3,-8.7 178.1,-9.0 179.9,-9.3 181.8,-9.6 183.6,-9.8 185.4,-10.0 187.2,-10.3 189.0,-10.5 190.8,-10.7 192.6,-10.8 194.4,-11.0 196.2,-11.2 198.0,-11.3 199.8,-11.4 201.6,-11.5 203.4,-11.6 205.2,-11.6 207.0,-11.7 208.8,-11.7 210.6,-11.8 212.1,-11.8 212.4,-11.8 214.2,-11.8 216.0,-11.7 217.8,-11.7 219.6,-11.6 221.4,-11.6 223.2,-11.5 225.0,-11.4 226.8,-11.2 228.6,-11.1 230.4,-11.0 232.2,-10.8 234.0,-10.6 235.8,-10.4 237.6,-10.2 239.4,-10.0 241.2,-9.7 243.0,-9.5 244.8,-9.2 246.6,-8.9 248.4,-8.6 250.2,-8.3 252.0,-7.9 253.8,-7.6 255.6,-7.2 257.4,-6.8 259.2,-6.4 261.0,-6.0 262.8,-5.6 264.6,-5.1 266.4,-4.7 268.2,-4.2 270.1,-3.7 271.9,-3.2 273.7,-2.7 275.5,-2.1 277.3,-1.6 279.1,-1.0 280.9,-0.4 282.7,0.2 284.5,0.8 286.3,1.4 288.1,2.1 289.9,2.7 291.7,3.4 293.5,4.1 295.3,4.8 297.1,5.6 298.9,6.3 300.7,7.1 302.5,7.8 304.3,8.6 306.1,9.4 307.9,10.3 360.0,0.0 z"/>
      <circle cx="0.0" cy="96.2" r="1.5" stroke="none" fill="red"><title>-929.1 kN-m</title></circle>
      <text x="0.0" y="96.2" dx="1.0" dy="7.0" class="vmlabel" text-anchor="start"><title>-929.1 kN-m</title>-929.1</text>
      <circle cx="212.1" cy="-11.8" r="1.5" stroke="none" fill="red"><title>113.6 kN-m</title></circle>
      <text x="212.1" y="-11.8" dx="1.0" dy="-1.0" class="vmlabel" text-anchor="start"><title>113.6 kN-m</title>113.6</text>
      <circle cx="307.9" cy="10.3" r="1.5" stroke="none" fill="red"><title>-99 kN-m</title></circle>
      <text x="307.9" y="10.3" dx="1.0" dy="7.0" class="vmlabel" text-anchor="start"><title>-99 kN-m</title>-99</text>
      <text x="360.0" y="0" class="dwglabel" dx="18.0">M [kN-m]</text>
    </g>
  </g>
</g>

</svg>
