<?xml version="1.0" standalone="yes"?>
<!DOCTYPE svg PUBLIC "-//W3C//DTD SVG 1.1//EN" 
  "http://www.w3.org/Graphics/SVG/1.1/DTD/svg11.dtd">
<svg xmlns="http://www.w3.org/2000/svg"
     xmlns:xlink="http://www.w3.org/1999/xlink"
     version="1.1"
     width="8.5in" 
     height="11.0in" 
     viewBox="0 0 612 792">
  <defs>
    <style type="text/css"><![CDATA[
    .elem {
	stroke-width: 2.0;
	stroke: black;
	}
    path.dim {
       stroke-width: 0.5;
       stroke: black;
       }
    path.guides {
       stroke-width: 0.5;
       stroke: grey;
       }
    text.dwglabel {
       font-family: Verdana, Arial;
       font-size: 10px;
       font-weight: bold;
       fill: black;
       text-align: center;
       text-anchor: start;
       }
    text.dim {
       font-family: Verdana, Arial;
       font-size: 8px;
       font-weight: bold;
       fill: black;
       text-align: center;
       text-anchor: middle;
       }
    text.guides {
       font-family: Verdana, Arial;
       font-size: 8px;
       font-weight: normal;
       font-style: italic;
       fill: black;
       text-align: center;
       text-anchor: middle;
       }
    text.vmlabel {
       font-family: Verdana, Arial;
       font-size: 8px;
       font-style: italic;
       fill: black;
       }
    text.notes {
       font-family: Verdana, Arial;
       font-size: 9px;
       font-weight: normal;
       font-style: italic;
       fill: black;
       text-align: center;
       text-anchor: left;
       }
    text.ptlabel {
       font-family: Verdana, Arial;
       font-size: 7px;
       font-style: italic;
       fill: black;
       text-align: center;
       text-anchor: start;
       }
     path.cload {
       fill: none;
       stroke-width: 1;
       stroke: black; 
       marker-end: url(#CLArrowEnd);
     }
      path.mload {
       fill: none;
       stroke-width: 1;
       stroke: black; 
       marker-end: url(#MLArrowEnd);
     }
      path.mloadInkscape {
       fill: none;
       stroke-width: 1;
       stroke: black; 
       marker-end: url(#MLArrowStart);
     }
     polygon.dload {
       fill: rgb(240,240,240);
       opacity: 0.5; /* if < 1, REALLY slows down printing of the pdfs */
       stroke-width: 1;
       stroke: black; 
     }
     path.dload {
       fill: none;
       stroke-width: 1;
       stroke: black; 
       marker-end: url(#DLArrowEnd);
     }
     path.dloadna {
       fill: none;
       stroke-width: 1;
       stroke: black; 
     }
     path.vdiag {
       fill: url(#crosshatch45);
       stroke-width: 1;
       stroke: black; 
     }
     path.mdiag {
       fill: url(#crosshatch45);
       stroke-width: 1;
       stroke: black; 
     }

    ]]></style>
    <g id="PinnedSupport" transform="translate(0,1.0)">
      <path d="M 0 0 l 4 6 l -8 0 z" 
	    stroke="black" stroke-width="0" fill="black" opacity="1.0" />
      <path d="M -6 6 l 12 0" 
	    stroke="black" stroke-width="1" fill="none" />
      <path d="M 6 6 l -3 3 m 0 -3 l -3 3 m 0 -3 l -3 3 m 0 -3 l -3 3 m 0 -3 l -3 3"
	    stroke="black" stroke-width="1" fill="none" />
    </g>
    <g id="RollerSupport" transform="translate(0,1.0)">
      <circle cx="0" cy="3" r="3"
	    stroke="black" stroke-width="0" fill="black" opacity="1.0" />
      <path d="M -6 6 l 12 0" 
	    stroke="black" stroke-width="1" fill="none" />
      <path d="M 6 6 l -3 3 m 0 -3 l -3 3 m 0 -3 l -3 3 m 0 -3 l -3 3 m 0 -3 l -3 3"
	    stroke="black" stroke-width="1" fill="none" />
    </g>
    <g id="LFixedSupport" transform="translate(-0.5,0)">
      <path d="M 0 -6 l 0 12"
	    stroke="black" stroke-width="1" fill="none" />
      <path d="M 0 -6 l -3 3 m 3 0 l -3 3 m 3 0 l -3 3 m 3 0 l -3 3 m 3 0 l -3 3"
	    stroke="black" stroke-width="1" fill="none" />
    </g>
    <g id="RFixedSupport">
      <use xlink:href="#LFixedSupport" transform="scale(-1,1)"/>
    </g>
    <g id="Hinge">
      <circle cx="0" cy="0" r="2.5"
	      stroke="black" stroke-width="1" fill="white"/>
    </g>
    <g id="ShearRelease">
      <rect x="-3" y="-6" width="6" height="12"
	    stroke="none" fill="white"/>
      <circle cx="0" cy="-6" r="2" stroke="black" strokewidth="0.5" fill="white"/>
      <circle cx="0" cy="0" r="2" stroke="black" strokewidth="0.5" fill="white"/>
      <circle cx="0" cy="6" r="2" stroke="black" strokewidth="0.5" fill="white"/>
      <path d="M -3 -9 l 0 18 M 3 -9 l 0 18" stroke="black" stroke-width="1"/>
    </g>
    <marker id="DLArrowStart"
	    markerUnits="userSpaceOnUse"
	    markerWidth="8"
	    markerHeight="4"
	    orient="auto"
	    viewBox="0 0 8 4"
	    refX="0"
	    refY="2">
      <path d="M 0 2 l 8 -2 l 0 4 z"/>
    </marker>
    <marker id="DLArrowEnd"
	    markerUnits="userSpaceOnUse"
	    markerWidth="8"
	    markerHeight="4"
	    orient="auto"
	    viewBox="0 0 8 4"
	    refX="8"
	    refY="2">
      <path d="M 0 0 l 8 2 l -8 2 z"/>
    </marker>
    <marker id="CLArrowStart"
	    markerUnits="userSpaceOnUse"
	    markerWidth="10.0"
	    markerHeight="6"
	    orient="auto"
	    viewBox="0 0 10 6"
	    refX="3.0"
	    refY="3">
      <path d="M 0 3 l 10 -3 l -2 3 l 2 3 z"/>
    </marker>
    <marker id="CLArrowEnd"
	    markerUnits="userSpaceOnUse"
	    markerWidth="10.0"
	    markerHeight="6"
	    orient="auto"
	    viewBox="0 0 10 6"
	    refX="7.0"
	    refY="3">
      <path d="M 0 0 l 10 3 l -10 3 l 2 -3 z"/>
    </marker>
    <marker id="MLArrowStart"
	    markerUnits="userSpaceOnUse"
	    markerWidth="10.0"
	    markerHeight="6"
	    orient="auto"
	    viewBox="0 0 10 6"
	    refX="8"
	    refY="3">
      <path d="M 10 0 l -10 3 l 10 3 l -2 -3 z"/>
    </marker>
    <marker id="MLArrowEnd"
	    markerUnits="userSpaceOnUse"
	    markerWidth="10.0"
	    markerHeight="6"
	    orient="auto"
	    viewBox="0 0 10 6"
	    refX="2"
	    refY="3">
      <path d="M 0 0 l 10 3 l -10 3 l 2 -3 z"/>
    </marker>
    <pattern id="crosshatch45" patternUnits="userSpaceOnUse"
             x="0" y="0" width="10" height="10"
	     viewBox="0 0 10 10">
       <path d="M 0 0 L 10 10" fill="none" stroke="grey" stroke-width="0.2"/>
    </pattern>


  </defs>

<g transform="translate(72.0,122.0)">
  <title>Beam! Length = 20.8</title>
  <path class="elem" d="M 0 0 l 360.0 0"/>
  <g transform="translate(0.0,0.0)">
    <title>UD Load 11 kN/m</title>
    <polygon points="0,0 0,-12.0 325.4,-12.0 325.4,0" class="dload"/>
    <path class="dload" d="M 0.0 -12.0 L 0.0 -1.0"/>
    <path class="dload" d="M 25.0 -12.0 L 25.0 -1.0"/>
    <path class="dload" d="M 50.1 -12.0 L 50.1 -1.0"/>
    <path class="dload" d="M 75.1 -12.0 L 75.1 -1.0"/>
    <path class="dload" d="M 100.1 -12.0 L 100.1 -1.0"/>
    <path class="dload" d="M 125.1 -12.0 L 125.1 -1.0"/>
    <path class="dload" d="M 150.2 -12.0 L 150.2 -1.0"/>
    <path class="dload" d="M 175.2 -12.0 L 175.2 -1.0"/>
    <path class="dload" d="M 200.2 -12.0 L 200.2 -1.0"/>
    <path class="dload" d="M 225.3 -12.0 L 225.3 -1.0"/>
    <path class="dload" d="M 250.3 -12.0 L 250.3 -1.0"/>
    <path class="dload" d="M 275.3 -12.0 L 275.3 -1.0"/>
    <path class="dload" d="M 300.4 -12.0 L 300.4 -1.0"/>
    <path class="dload" d="M 325.4 -12.0 L 325.4 -1.0"/>
    <text style="text-anchor: middle;" dx="0.0" dy="-2.0" y="-12.0" x="162.7" class="dim">11</text>
  </g>
  <g transform="translate(360.0,-1.0)">
    <title>Point Load = 80 kN</title>
    <path class="cload" d="M 0 -26.0 l 0 23.0"/>
    <text y="-26.0" x="0" class="dim" dy="-3.0">80</text>
  </g>
  <use y="0" x="24.2" xlink:href="#RollerSupport"/>
  <use y="0" x="93.5" xlink:href="#Hinge"/>
  <use y="0" x="124.6" xlink:href="#RollerSupport"/>
  <use y="0" x="228.5" xlink:href="#Hinge"/>
  <use y="0" x="256.2" xlink:href="#RollerSupport"/>
  <use y="0" x="325.4" xlink:href="#PinnedSupport"/>
  <path class="dim" d="M 93.5 10.0 l 0 25.0"/>
  <path class="dim" d="M 24.2 30.0 l 69.2 0"/>
  <path class="dim" d="M 24.2 30.0 m -3.0 3.0 l 6.0 -6.0"/>
  <path class="dim" d="M 93.5 30.0 m -3.0 3.0 l 6.0 -6.0"/>
  <text y="30.0" x="58.8" class="dim" dy="-3.0">4</text>
  <path class="dim" d="M 228.5 10.0 l 0 25.0"/>
  <path class="dim" d="M 124.6 30.0 l 103.8 0"/>
  <path class="dim" d="M 124.6 30.0 m -3.0 3.0 l 6.0 -6.0"/>
  <path class="dim" d="M 228.5 30.0 m -3.0 3.0 l 6.0 -6.0"/>
  <text y="30.0" x="176.5" class="dim" dy="-3.0">6</text>
  <path class="dim" d="M 0.0 10.0 l 0 40.0"/>
  <path class="dim" d="M 24.2 10.0 l 0 40.0"/>
  <path class="dim" d="M 0.0 45.0 l 24.2 0"/>
  <path class="dim" d="M 0.0 45.0 m -3.0 3.0 l 6.0 -6.0"/>
  <path class="dim" d="M 24.2 45.0 m -3.0 3.0 l 6.0 -6.0"/>
  <text y="45.0" x="12.1" class="dim" dy="-3.0">1.4</text>
  <path class="dim" d="M 124.6 10.0 l 0 40.0"/>
  <path class="dim" d="M 24.2 45.0 l 100.4 0"/>
  <path class="dim" d="M 124.6 45.0 m -3.0 3.0 l 6.0 -6.0"/>
  <text y="45.0" x="74.4" class="dim" dy="-3.0">5.8</text>
  <path class="dim" d="M 256.2 10.0 l 0 40.0"/>
  <path class="dim" d="M 124.6 45.0 l 131.5 0"/>
  <path class="dim" d="M 256.2 45.0 m -3.0 3.0 l 6.0 -6.0"/>
  <text y="45.0" x="190.4" class="dim" dy="-3.0">7.6</text>
  <path class="dim" d="M 325.4 10.0 l 0 40.0"/>
  <path class="dim" d="M 256.2 45.0 l 69.2 0"/>
  <path class="dim" d="M 325.4 45.0 m -3.0 3.0 l 6.0 -6.0"/>
  <text y="45.0" x="290.8" class="dim" dy="-3.0">4</text>
  <path class="dim" d="M 360.0 10.0 l 0 40.0"/>
  <path class="dim" d="M 325.4 45.0 l 34.6 0"/>
  <path class="dim" d="M 360.0 45.0 m -3.0 3.0 l 6.0 -6.0"/>
  <text y="45.0" x="342.7" class="dim" dy="-3.0">2</text>
  <text y="17.0" x="0.0" class="ptlabel" dx="1.0">a</text>
  <text y="17.0" x="24.2" class="ptlabel" dx="1.0">b</text>
  <text y="17.0" x="93.5" class="ptlabel" dx="1.0">c</text>
  <text y="17.0" x="124.6" class="ptlabel" dx="1.0">d</text>
  <text y="17.0" x="228.5" class="ptlabel" dx="1.0">e</text>
  <text y="17.0" x="256.2" class="ptlabel" dx="1.0">f</text>
  <text y="17.0" x="325.4" class="ptlabel" dx="1.0">g</text>
  <text y="17.0" x="360.0" class="ptlabel" dx="1.0">h</text>
  <text y="-56.0" x="0" xml:space="preserve" class="notes">Units are m, kN;       Difficulty Level = 7</text>
  <g id="beam-guides" visibility="visible" transform="translate(0.0,0.0)">
    <path class="guides" d="M 0.0 51.0 L 0.0 474.0 M 24.2 51.0 L 24.2 474.0 M 93.5 51.0 L 93.5 474.0 M 124.6 51.0 L 124.6 474.0 M 228.5 51.0 L 228.5 474.0 M 256.2 51.0 L 256.2 474.0 M 325.4 51.0 L 325.4 474.0 M 360.0 51.0 L 360.0 474.0"/>
  </g>
  <g id="beam-fb-diagram" visibility="visible" transform="translate(0.0,144.0)">
    <title>Free Body Diagram</title>
    <path class="elem" d="M 0 0 l 360.0 0"/>
    <g transform="translate(0.0,0.0)">
      <title>UD Load 11 kN/m</title>
      <polygon points="0,0 0,-12.0 325.4,-12.0 325.4,0" class="dload"/>
      <path class="dload" d="M 0.0 -12.0 L 0.0 -1.0"/>
      <path class="dload" d="M 25.0 -12.0 L 25.0 -1.0"/>
      <path class="dload" d="M 50.1 -12.0 L 50.1 -1.0"/>
      <path class="dload" d="M 75.1 -12.0 L 75.1 -1.0"/>
      <path class="dload" d="M 100.1 -12.0 L 100.1 -1.0"/>
      <path class="dload" d="M 125.1 -12.0 L 125.1 -1.0"/>
      <path class="dload" d="M 150.2 -12.0 L 150.2 -1.0"/>
      <path class="dload" d="M 175.2 -12.0 L 175.2 -1.0"/>
      <path class="dload" d="M 200.2 -12.0 L 200.2 -1.0"/>
      <path class="dload" d="M 225.3 -12.0 L 225.3 -1.0"/>
      <path class="dload" d="M 250.3 -12.0 L 250.3 -1.0"/>
      <path class="dload" d="M 275.3 -12.0 L 275.3 -1.0"/>
      <path class="dload" d="M 300.4 -12.0 L 300.4 -1.0"/>
      <path class="dload" d="M 325.4 -12.0 L 325.4 -1.0"/>
      <text style="text-anchor: middle;" dx="0.0" dy="-2.0" y="-12.0" x="162.7" class="dim">11</text>
    </g>
    <g transform="translate(360.0,-1.0)">
      <title>Point Load = 80 kN</title>
      <path class="cload" d="M 0 -35.9 l 0 32.9"/>
      <text y="-35.9" x="0" class="dim" dy="-3.0">80</text>
    </g>
    <g transform="translate(24.2,1.0)">
      <title>Point Load = -40.095 kN</title>
      <path class="cload" d="M 0 31.0 l 0 -28.0"/>
      <text y="31.0" x="0" class="dim" dy="8.0">40.09</text>
    </g>
    <g transform="translate(124.6,1.0)">
      <title>Point Load = -80.8665 kN</title>
      <path class="cload" d="M 0 36.0 l 0 -33.0"/>
      <text y="36.0" x="0" class="dim" dy="8.0">80.87</text>
    </g>
    <g transform="translate(256.2,1.0)">
      <title>Point Load = -37.0539 kN</title>
      <path class="cload" d="M 0 30.6 l 0 -27.6"/>
      <text y="30.6" x="0" class="dim" dy="8.0">37.05</text>
    </g>
    <g transform="translate(325.4,1.0)">
      <title>Point Load = -128.785 kN</title>
      <path class="cload" d="M 0 42.0 l 0 -39.0"/>
      <text y="42.0" x="0" class="dim" dy="8.0">128.8</text>
    </g>
    <text x="360.0" y="0" class="dwglabel" dx="18.0">FBD [m,kN]</text>
  </g>
  <g id="beam-shear-diagram" visibility="visible" transform="translate(0.0,216.0)">
    <g transform="translate(0.0,67.1)">
      <title>Shear Force Diagram</title>
      <path class="vdiag" d="M 0,0 L 0.0,-0.0 24.2,12.9 24.2,-20.7 93.5,16.2 124.6,32.8 124.6,-35.0 228.5,20.3 256.2,35.1 256.2,4.0 325.4,40.9 325.4,-67.1 360.0,-67.1 360.0,0.0 z"/>
      <circle cx="24.2" cy="12.9" r="1.5" stroke="none" fill="red"><title>-15.4 kN</title></circle>
      <text x="24.2" y="12.9" dx="1.0" dy="7.0" class="vmlabel" text-anchor="start"><title>-15.4 kN</title>-15.4</text>
      <circle cx="24.2" cy="-20.7" r="1.5" stroke="none" fill="red"><title>24.69 kN</title></circle>
      <text x="24.2" y="-20.7" dx="1.0" dy="-1.0" class="vmlabel" text-anchor="start"><title>24.69 kN</title>24.69</text>
      <circle cx="93.5" cy="16.2" r="1.5" stroke="none" fill="red"><title>-19.31 kN</title></circle>
      <text x="93.5" y="16.2" dx="-1.0" dy="7.0" class="vmlabel" text-anchor="end"><title>-19.31 kN</title>-19.31</text>
      <circle cx="124.6" cy="32.8" r="1.5" stroke="none" fill="red"><title>-39.1 kN</title></circle>
      <text x="124.6" y="32.8" dx="1.0" dy="7.0" class="vmlabel" text-anchor="start"><title>-39.1 kN</title>-39.1</text>
      <circle cx="124.6" cy="-35.0" r="1.5" stroke="none" fill="red"><title>41.76 kN</title></circle>
      <text x="124.6" y="-35.0" dx="1.0" dy="-1.0" class="vmlabel" text-anchor="start"><title>41.76 kN</title>41.76</text>
      <circle cx="228.5" cy="20.3" r="1.5" stroke="none" fill="red"><title>-24.24 kN</title></circle>
      <text x="228.5" y="20.3" dx="-1.0" dy="7.0" class="vmlabel" text-anchor="end"><title>-24.24 kN</title>-24.24</text>
      <circle cx="256.2" cy="35.1" r="1.5" stroke="none" fill="red"><title>-41.84 kN</title></circle>
      <text x="256.2" y="35.1" dx="1.0" dy="7.0" class="vmlabel" text-anchor="start"><title>-41.84 kN</title>-41.84</text>
      <circle cx="256.2" cy="4.0" r="1.5" stroke="none" fill="red"><title>-4.785 kN</title></circle>
      <text x="256.2" y="4.0" dx="-1.0" dy="7.0" class="vmlabel" text-anchor="end"><title>-4.785 kN</title>-4.785</text>
      <circle cx="325.4" cy="40.9" r="1.5" stroke="none" fill="red"><title>-48.78 kN</title></circle>
      <text x="325.4" y="40.9" dx="1.0" dy="7.0" class="vmlabel" text-anchor="start"><title>-48.78 kN</title>-48.78</text>
      <circle cx="325.4" cy="-67.1" r="1.5" stroke="none" fill="red"><title>80 kN</title></circle>
      <text x="325.4" y="-67.1" dx="1.0" dy="-1.0" class="vmlabel" text-anchor="start"><title>80 kN</title>80</text>
      <circle cx="360.0" cy="-67.1" r="1.5" stroke="none" fill="red"><title>80 kN</title></circle>
      <text x="360.0" y="-67.1" dx="1.0" dy="-1.0" class="vmlabel" text-anchor="start"><title>80 kN</title>80</text>
      <text x="360.0" y="0" class="dwglabel" dx="18.0">V [kN]</text>
    </g>
    <g id="beam-zvguides" visibility="visible" transform="translate(0.0,0.0)">
      <path class="guides" d="M 63.1 69.1 L 63.1 258.0 M 190.3 69.1 L 190.3 258.0"/>
      <path class="guides" d="M 24.2 126.0 L 63.1 126.0"/>
      <path class="guides" d="M 24.2 126.0 m -3.0 3.0 l 6.0 -6.0"/>
      <path class="guides" d="M 63.1 126.0 m -3.0 3.0 l 6.0 -6.0"/>
      <text y="126.0" x="43.7" class="guides" dy="-3.0">2.24</text>
      <path class="guides" d="M 124.6 126.0 L 190.3 126.0"/>
      <path class="guides" d="M 124.6 126.0 m -3.0 3.0 l 6.0 -6.0"/>
      <path class="guides" d="M 190.3 126.0 m -3.0 3.0 l 6.0 -6.0"/>
      <text y="126.0" x="157.5" class="guides" dy="-3.0">3.8</text>
    </g>
  </g>
  <g id="beam-moment-diagram" visibility="visible" transform="translate(0.0,360.0)">
    <g transform="translate(0.0,15.4)">
      <title>Bending Moment Diagram</title>
      <path class="mdiag" d="M 0,0 L 0.0,0.0 1.9,0.0 3.7,0.1 5.6,0.3 7.5,0.6 9.3,0.9 11.2,1.3 13.0,1.8 14.9,2.4 16.8,3.0 18.6,3.7 20.5,4.5 22.4,5.3 24.2,6.2 26.1,4.8 27.9,3.4 29.7,2.0 31.5,0.8 33.3,-0.4 35.2,-1.5 37.0,-2.6 38.8,-3.5 40.6,-4.4 42.4,-5.3 44.3,-6.0 46.1,-6.7 47.9,-7.4 49.7,-7.9 51.6,-8.4 53.4,-8.8 55.2,-9.1 57.0,-9.4 58.8,-9.6 60.7,-9.7 62.5,-9.8 63.1,-9.8 64.3,-9.8 66.1,-9.7 68.0,-9.5 69.8,-9.3 71.6,-9.0 73.4,-8.7 75.2,-8.2 77.1,-7.7 78.9,-7.1 80.7,-6.5 82.5,-5.8 84.4,-5.0 86.2,-4.1 88.0,-3.2 89.8,-2.2 91.6,-1.1 93.5,0.0 95.3,1.2 97.1,2.5 99.0,3.9 100.8,5.3 102.6,6.8 104.5,8.4 106.3,10.0 108.1,11.7 110.0,13.5 111.8,15.4 113.6,17.3 115.5,19.3 117.3,21.4 119.1,23.5 121.0,25.8 122.8,28.0 124.6,30.4 126.4,27.9 128.2,25.5 130.0,23.2 131.8,21.0 133.6,18.8 135.4,16.6 137.1,14.6 138.9,12.6 140.7,10.7 142.5,8.8 144.3,7.0 146.1,5.3 147.9,3.7 149.7,2.1 151.5,0.6 153.3,-0.9 155.1,-2.2 156.8,-3.5 158.6,-4.8 160.4,-6.0 162.2,-7.1 164.0,-8.1 165.8,-9.1 167.6,-10.0 169.4,-10.8 171.2,-11.5 173.0,-12.2 174.7,-12.9 176.5,-13.4 178.3,-13.9 180.1,-14.3 181.9,-14.7 183.7,-15.0 185.5,-15.2 187.3,-15.3 189.1,-15.4 190.3,-15.4 190.9,-15.4 192.7,-15.4 194.4,-15.3 196.2,-15.1 198.0,-14.8 199.8,-14.5 201.6,-14.1 203.4,-13.6 205.2,-13.1 207.0,-12.5 208.8,-11.8 210.6,-11.1 212.3,-10.3 214.1,-9.4 215.9,-8.5 217.7,-7.5 219.5,-6.4 221.3,-5.3 223.1,-4.0 224.9,-2.8 226.7,-1.4 228.5,0.0 230.3,1.5 232.2,3.1 234.0,4.8 235.8,6.6 237.7,8.4 239.5,10.3 241.4,12.2 243.2,14.3 245.1,16.4 246.9,18.6 248.8,20.8 250.6,23.2 252.5,25.6 254.3,28.0 256.2,30.6 258.0,30.9 259.8,31.3 261.6,31.8 263.4,32.3 265.3,32.9 267.1,33.6 268.9,34.3 270.7,35.2 272.6,36.1 274.4,37.0 276.2,38.0 278.0,39.2 279.8,40.3 281.7,41.6 283.5,42.9 285.3,44.3 287.1,45.7 288.9,47.2 290.8,48.8 292.6,50.5 294.4,52.2 296.2,54.0 298.1,55.9 299.9,57.9 301.7,59.9 303.5,62.0 305.3,64.1 307.2,66.4 309.0,68.7 310.8,71.0 312.6,73.5 314.5,76.0 316.3,78.6 318.1,81.2 319.9,84.0 321.7,86.8 323.6,89.6 325.4,92.6 360.0,0.0 z"/>
      <circle cx="24.2" cy="6.2" r="1.5" stroke="none" fill="red"><title>-10.78 kN-m</title></circle>
      <text x="24.2" y="6.2" dx="1.0" dy="7.0" class="vmlabel" text-anchor="start"><title>-10.78 kN-m</title>-10.78</text>
      <circle cx="63.1" cy="-9.8" r="1.5" stroke="none" fill="red"><title>16.94 kN-m</title></circle>
      <text x="63.1" y="-9.8" dx="1.0" dy="-1.0" class="vmlabel" text-anchor="start"><title>16.94 kN-m</title>16.94</text>
      <circle cx="124.6" cy="30.4" r="1.5" stroke="none" fill="red"><title>-52.57 kN-m</title></circle>
      <text x="124.6" y="30.4" dx="1.0" dy="7.0" class="vmlabel" text-anchor="start"><title>-52.57 kN-m</title>-52.57</text>
      <circle cx="190.3" cy="-15.4" r="1.5" stroke="none" fill="red"><title>26.7 kN-m</title></circle>
      <text x="190.3" y="-15.4" dx="1.0" dy="-1.0" class="vmlabel" text-anchor="start"><title>26.7 kN-m</title>26.7</text>
      <circle cx="256.2" cy="30.6" r="1.5" stroke="none" fill="red"><title>-52.86 kN-m</title></circle>
      <text x="256.2" y="30.6" dx="-1.0" dy="7.0" class="vmlabel" text-anchor="end"><title>-52.86 kN-m</title>-52.86</text>
      <circle cx="325.4" cy="92.6" r="1.5" stroke="none" fill="red"><title>-160 kN-m</title></circle>
      <text x="325.4" y="92.6" dx="1.0" dy="7.0" class="vmlabel" text-anchor="start"><title>-160 kN-m</title>-160</text>
      <text x="360.0" y="0" class="dwglabel" dx="18.0">M [kN-m]</text>
    </g>
  </g>
</g>

</svg>
