<?xml version="1.0" standalone="yes"?>
<!DOCTYPE svg PUBLIC "-//W3C//DTD SVG 1.1//EN" 
  "http://www.w3.org/Graphics/SVG/1.1/DTD/svg11.dtd">
<svg xmlns="http://www.w3.org/2000/svg"
     xmlns:xlink="http://www.w3.org/1999/xlink"
     version="1.1"
     width="8.5in" 
     height="11.0in" 
     viewBox="0 0 612 792">
  <defs>
    <style type="text/css"><![CDATA[
    .elem {
	stroke-width: 2.0;
	stroke: black;
	}
    path.dim {
       stroke-width: 0.5;
       stroke: black;
       }
    path.guides {
       stroke-width: 0.5;
       stroke: grey;
       }
    text.dwglabel {
       font-family: Verdana, Arial;
       font-size: 10px;
       font-weight: bold;
       fill: black;
       text-align: center;
       text-anchor: start;
       }
    text.dim {
       font-family: Verdana, Arial;
       font-size: 8px;
       font-weight: bold;
       fill: black;
       text-align: center;
       text-anchor: middle;
       }
    text.guides {
       font-family: Verdana, Arial;
       font-size: 8px;
       font-weight: normal;
       font-style: italic;
       fill: black;
       text-align: center;
       text-anchor: middle;
       }
    text.vmlabel {
       font-family: Verdana, Arial;
       font-size: 8px;
       font-style: italic;
       fill: black;
       }
    text.notes {
       font-family: Verdana, Arial;
       font-size: 9px;
       font-weight: normal;
       font-style: italic;
       fill: black;
       text-align: center;
       text-anchor: left;
       }
    text.ptlabel {
       font-family: Verdana, Arial;
       font-size: 7px;
       font-style: italic;
       fill: black;
       text-align: center;
       text-anchor: start;
       }
     path.cload {
       fill: none;
       stroke-width: 1;
       stroke: black; 
       marker-end: url(#CLArrowEnd);
     }
      path.mload {
       fill: none;
       stroke-width: 1;
       stroke: black; 
       marker-end: url(#MLArrowEnd);
     }
      path.mloadInkscape {
       fill: none;
       stroke-width: 1;
       stroke: black; 
       marker-end: url(#MLArrowStart);
     }
     polygon.dload {
       fill: rgb(240,240,240);
       opacity: 0.5; /* if < 1, REALLY slows down printing of the pdfs */
       stroke-width: 1;
       stroke: black; 
     }
     path.dload {
       fill: none;
       stroke-width: 1;
       stroke: black; 
       marker-end: url(#DLArrowEnd);
     }
     path.dloadna {
       fill: none;
       stroke-width: 1;
       stroke: black; 
     }
     path.vdiag {
       fill: url(#crosshatch45);
       stroke-width: 1;
       stroke: black; 
     }
     path.mdiag {
       fill: url(#crosshatch45);
       stroke-width: 1;
       stroke: black; 
     }

    ]]></style>
    <g id="PinnedSupport" transform="translate(0,1.0)">
      <path d="M 0 0 l 4 6 l -8 0 z" 
	    stroke="black" stroke-width="0" fill="black" opacity="1.0" />
      <path d="M -6 6 l 12 0" 
	    stroke="black" stroke-width="1" fill="none" />
      <path d="M 6 6 l -3 3 m 0 -3 l -3 3 m 0 -3 l -3 3 m 0 -3 l -3 3 m 0 -3 l -3 3"
	    stroke="black" stroke-width="1" fill="none" />
    </g>
    <g id="RollerSupport" transform="translate(0,1.0)">
      <circle cx="0" cy="3" r="3"
	    stroke="black" stroke-width="0" fill="black" opacity="1.0" />
      <path d="M -6 6 l 12 0" 
	    stroke="black" stroke-width="1" fill="none" />
      <path d="M 6 6 l -3 3 m 0 -3 l -3 3 m 0 -3 l -3 3 m 0 -3 l -3 3 m 0 -3 l -3 3"
	    stroke="black" stroke-width="1" fill="none" />
    </g>
    <g id="LFixedSupport" transform="translate(-0.5,0)">
      <path d="M 0 -6 l 0 12"
	    stroke="black" stroke-width="1" fill="none" />
      <path d="M 0 -6 l -3 3 m 3 0 l -3 3 m 3 0 l -3 3 m 3 0 l -3 3 m 3 0 l -3 3"
	    stroke="black" stroke-width="1" fill="none" />
    </g>
    <g id="RFixedSupport">
      <use xlink:href="#LFixedSupport" transform="scale(-1,1)"/>
    </g>
    <g id="Hinge">
      <circle cx="0" cy="0" r="2.5"
	      stroke="black" stroke-width="1" fill="white"/>
    </g>
    <g id="ShearRelease">
      <rect x="-3" y="-6" width="6" height="12"
	    stroke="none" fill="white"/>
      <circle cx="0" cy="-6" r="2" stroke="black" strokewidth="0.5" fill="white"/>
      <circle cx="0" cy="0" r="2" stroke="black" strokewidth="0.5" fill="white"/>
      <circle cx="0" cy="6" r="2" stroke="black" strokewidth="0.5" fill="white"/>
      <path d="M -3 -9 l 0 18 M 3 -9 l 0 18" stroke="black" stroke-width="1"/>
    </g>
    <marker id="DLArrowStart"
	    markerUnits="userSpaceOnUse"
	    markerWidth="8"
	    markerHeight="4"
	    orient="auto"
	    viewBox="0 0 8 4"
	    refX="0"
	    refY="2">
      <path d="M 0 2 l 8 -2 l 0 4 z"/>
    </marker>
    <marker id="DLArrowEnd"
	    markerUnits="userSpaceOnUse"
	    markerWidth="8"
	    markerHeight="4"
	    orient="auto"
	    viewBox="0 0 8 4"
	    refX="8"
	    refY="2">
      <path d="M 0 0 l 8 2 l -8 2 z"/>
    </marker>
    <marker id="CLArrowStart"
	    markerUnits="userSpaceOnUse"
	    markerWidth="10.0"
	    markerHeight="6"
	    orient="auto"
	    viewBox="0 0 10 6"
	    refX="3.0"
	    refY="3">
      <path d="M 0 3 l 10 -3 l -2 3 l 2 3 z"/>
    </marker>
    <marker id="CLArrowEnd"
	    markerUnits="userSpaceOnUse"
	    markerWidth="10.0"
	    markerHeight="6"
	    orient="auto"
	    viewBox="0 0 10 6"
	    refX="7.0"
	    refY="3">
      <path d="M 0 0 l 10 3 l -10 3 l 2 -3 z"/>
    </marker>
    <marker id="MLArrowStart"
	    markerUnits="userSpaceOnUse"
	    markerWidth="10.0"
	    markerHeight="6"
	    orient="auto"
	    viewBox="0 0 10 6"
	    refX="8"
	    refY="3">
      <path d="M 10 0 l -10 3 l 10 3 l -2 -3 z"/>
    </marker>
    <marker id="MLArrowEnd"
	    markerUnits="userSpaceOnUse"
	    markerWidth="10.0"
	    markerHeight="6"
	    orient="auto"
	    viewBox="0 0 10 6"
	    refX="2"
	    refY="3">
      <path d="M 0 0 l 10 3 l -10 3 l 2 -3 z"/>
    </marker>
    <pattern id="crosshatch45" patternUnits="userSpaceOnUse"
             x="0" y="0" width="10" height="10"
	     viewBox="0 0 10 10">
       <path d="M 0 0 L 10 10" fill="none" stroke="grey" stroke-width="0.2"/>
    </pattern>


  </defs>

<g transform="translate(72.0,122.0)">
  <title>Beam! Length = 22.7</title>
  <path class="elem" d="M 0 0 l 360.0 0"/>
  <g transform="translate(0.0,0.0)">
    <title>UD Load 21 kN/m</title>
    <polygon points="0,0 0,-12.0 328.3,-12.0 328.3,0" class="dload"/>
    <path class="dload" d="M 0.0 -12.0 L 0.0 -1.0"/>
    <path class="dload" d="M 25.3 -12.0 L 25.3 -1.0"/>
    <path class="dload" d="M 50.5 -12.0 L 50.5 -1.0"/>
    <path class="dload" d="M 75.8 -12.0 L 75.8 -1.0"/>
    <path class="dload" d="M 101.0 -12.0 L 101.0 -1.0"/>
    <path class="dload" d="M 126.3 -12.0 L 126.3 -1.0"/>
    <path class="dload" d="M 151.5 -12.0 L 151.5 -1.0"/>
    <path class="dload" d="M 176.8 -12.0 L 176.8 -1.0"/>
    <path class="dload" d="M 202.0 -12.0 L 202.0 -1.0"/>
    <path class="dload" d="M 227.3 -12.0 L 227.3 -1.0"/>
    <path class="dload" d="M 252.5 -12.0 L 252.5 -1.0"/>
    <path class="dload" d="M 277.8 -12.0 L 277.8 -1.0"/>
    <path class="dload" d="M 303.0 -12.0 L 303.0 -1.0"/>
    <path class="dload" d="M 328.3 -12.0 L 328.3 -1.0"/>
    <text style="text-anchor: middle;" dx="0.0" dy="-2.0" y="-12.0" x="164.1" class="dim">21</text>
  </g>
  <g transform="translate(360.0,-1.0)">
    <title>Point Load = 90 kN</title>
    <path class="cload" d="M 0 -26.0 l 0 23.0"/>
    <text y="-26.0" x="0" class="dim" dy="-3.0">90</text>
  </g>
  <use y="0" x="0.0" xlink:href="#RollerSupport"/>
  <use y="0" x="190.3" xlink:href="#Hinge"/>
  <use y="0" x="225.2" xlink:href="#RollerSupport"/>
  <use y="0" x="328.3" xlink:href="#PinnedSupport"/>
  <path class="dim" d="M 190.3 10.0 l 0 25.0"/>
  <path class="dim" d="M 0.0 30.0 l 190.3 0"/>
  <path class="dim" d="M 0.0 30.0 m -3.0 3.0 l 6.0 -6.0"/>
  <path class="dim" d="M 190.3 30.0 m -3.0 3.0 l 6.0 -6.0"/>
  <text y="30.0" x="95.2" class="dim" dy="-3.0">12</text>
  <path class="dim" d="M 0.0 10.0 l 0 40.0"/>
  <path class="dim" d="M 225.2 10.0 l 0 40.0"/>
  <path class="dim" d="M 0.0 45.0 l 225.2 0"/>
  <path class="dim" d="M 0.0 45.0 m -3.0 3.0 l 6.0 -6.0"/>
  <path class="dim" d="M 225.2 45.0 m -3.0 3.0 l 6.0 -6.0"/>
  <text y="45.0" x="112.6" class="dim" dy="-3.0">14.2</text>
  <path class="dim" d="M 328.3 10.0 l 0 40.0"/>
  <path class="dim" d="M 225.2 45.0 l 103.1 0"/>
  <path class="dim" d="M 328.3 45.0 m -3.0 3.0 l 6.0 -6.0"/>
  <text y="45.0" x="276.7" class="dim" dy="-3.0">6.5</text>
  <path class="dim" d="M 360.0 10.0 l 0 40.0"/>
  <path class="dim" d="M 328.3 45.0 l 31.7 0"/>
  <path class="dim" d="M 360.0 45.0 m -3.0 3.0 l 6.0 -6.0"/>
  <text y="45.0" x="344.1" class="dim" dy="-3.0">2</text>
  <text y="17.0" x="0.0" class="ptlabel" dx="1.0">a</text>
  <text y="17.0" x="190.3" class="ptlabel" dx="1.0">b</text>
  <text y="17.0" x="225.2" class="ptlabel" dx="1.0">c</text>
  <text y="17.0" x="328.3" class="ptlabel" dx="1.0">d</text>
  <text y="17.0" x="360.0" class="ptlabel" dx="1.0">e</text>
  <text y="-56.0" x="0" xml:space="preserve" class="notes">Units are m, kN;       Difficulty Level = 5</text>
  <g id="beam-guides" visibility="visible" transform="translate(0.0,0.0)">
    <path class="guides" d="M 0.0 51.0 L 0.0 474.0 M 190.3 51.0 L 190.3 474.0 M 225.2 51.0 L 225.2 474.0 M 328.3 51.0 L 328.3 474.0 M 360.0 51.0 L 360.0 474.0"/>
  </g>
  <g id="beam-fb-diagram" visibility="visible" transform="translate(0.0,144.0)">
    <title>Free Body Diagram</title>
    <path class="elem" d="M 0 0 l 360.0 0"/>
    <g transform="translate(0.0,0.0)">
      <title>UD Load 21 kN/m</title>
      <polygon points="0,0 0,-12.0 328.3,-12.0 328.3,0" class="dload"/>
      <path class="dload" d="M 0.0 -12.0 L 0.0 -1.0"/>
      <path class="dload" d="M 25.3 -12.0 L 25.3 -1.0"/>
      <path class="dload" d="M 50.5 -12.0 L 50.5 -1.0"/>
      <path class="dload" d="M 75.8 -12.0 L 75.8 -1.0"/>
      <path class="dload" d="M 101.0 -12.0 L 101.0 -1.0"/>
      <path class="dload" d="M 126.3 -12.0 L 126.3 -1.0"/>
      <path class="dload" d="M 151.5 -12.0 L 151.5 -1.0"/>
      <path class="dload" d="M 176.8 -12.0 L 176.8 -1.0"/>
      <path class="dload" d="M 202.0 -12.0 L 202.0 -1.0"/>
      <path class="dload" d="M 227.3 -12.0 L 227.3 -1.0"/>
      <path class="dload" d="M 252.5 -12.0 L 252.5 -1.0"/>
      <path class="dload" d="M 277.8 -12.0 L 277.8 -1.0"/>
      <path class="dload" d="M 303.0 -12.0 L 303.0 -1.0"/>
      <path class="dload" d="M 328.3 -12.0 L 328.3 -1.0"/>
      <text style="text-anchor: middle;" dx="0.0" dy="-2.0" y="-12.0" x="164.1" class="dim">21</text>
    </g>
    <g transform="translate(360.0,-1.0)">
      <title>Point Load = 90 kN</title>
      <path class="cload" d="M 0 -31.5 l 0 28.5"/>
      <text y="-31.5" x="0" class="dim" dy="-3.0">90</text>
    </g>
    <g transform="translate(0.0,1.0)">
      <title>Point Load = -126 kN</title>
      <path class="cload" d="M 0 33.7 l 0 -30.7"/>
      <text y="33.7" x="0" class="dim" dy="8.0">126</text>
    </g>
    <g transform="translate(225.2,1.0)">
      <title>Point Load = -263.222 kN</title>
      <path class="cload" d="M 0 42.0 l 0 -39.0"/>
      <text y="42.0" x="0" class="dim" dy="8.0">263.2</text>
    </g>
    <g transform="translate(328.3,1.0)">
      <title>Point Load = -135.478 kN</title>
      <path class="cload" d="M 0 34.2 l 0 -31.2"/>
      <text y="34.2" x="0" class="dim" dy="8.0">135.5</text>
    </g>
    <text x="360.0" y="0" class="dwglabel" dx="18.0">FBD [m,kN]</text>
  </g>
  <g id="beam-shear-diagram" visibility="visible" transform="translate(0.0,216.0)">
    <g transform="translate(0.0,45.6)">
      <title>Shear Force Diagram</title>
      <path class="vdiag" d="M 0,0 L -0.0,-0.0 0.0,-45.6 190.3,45.6 225.2,62.4 225.2,-33.0 328.3,16.5 328.3,-32.6 360.0,-32.6 360.0,-0.0 z"/>
      <circle cx="0.0" cy="-45.6" r="1.5" stroke="none" fill="red"><title>126 kN</title></circle>
      <text x="0.0" y="-45.6" dx="1.0" dy="-1.0" class="vmlabel" text-anchor="start"><title>126 kN</title>126</text>
      <circle cx="190.3" cy="45.6" r="1.5" stroke="none" fill="red"><title>-126 kN</title></circle>
      <text x="190.3" y="45.6" dx="-1.0" dy="7.0" class="vmlabel" text-anchor="end"><title>-126 kN</title>-126</text>
      <circle cx="225.2" cy="62.4" r="1.5" stroke="none" fill="red"><title>-172.2 kN</title></circle>
      <text x="225.2" y="62.4" dx="1.0" dy="7.0" class="vmlabel" text-anchor="start"><title>-172.2 kN</title>-172.2</text>
      <circle cx="225.2" cy="-33.0" r="1.5" stroke="none" fill="red"><title>91.02 kN</title></circle>
      <text x="225.2" y="-33.0" dx="1.0" dy="-1.0" class="vmlabel" text-anchor="start"><title>91.02 kN</title>91.02</text>
      <circle cx="328.3" cy="16.5" r="1.5" stroke="none" fill="red"><title>-45.48 kN</title></circle>
      <text x="328.3" y="16.5" dx="1.0" dy="7.0" class="vmlabel" text-anchor="start"><title>-45.48 kN</title>-45.48</text>
      <circle cx="328.3" cy="-32.6" r="1.5" stroke="none" fill="red"><title>90 kN</title></circle>
      <text x="328.3" y="-32.6" dx="1.0" dy="-1.0" class="vmlabel" text-anchor="start"><title>90 kN</title>90</text>
      <circle cx="360.0" cy="-32.6" r="1.5" stroke="none" fill="red"><title>90 kN</title></circle>
      <text x="360.0" y="-32.6" dx="1.0" dy="-1.0" class="vmlabel" text-anchor="start"><title>90 kN</title>90</text>
      <text x="360.0" y="0" class="dwglabel" dx="18.0">V [kN]</text>
    </g>
    <g id="beam-zvguides" visibility="visible" transform="translate(0.0,0.0)">
      <path class="guides" d="M 95.2 47.6 L 95.2 258.0 M 293.9 47.6 L 293.9 258.0"/>
      <path class="guides" d="M 0.0 126.0 L 95.2 126.0"/>
      <path class="guides" d="M 0.0 126.0 m -3.0 3.0 l 6.0 -6.0"/>
      <path class="guides" d="M 95.2 126.0 m -3.0 3.0 l 6.0 -6.0"/>
      <text y="126.0" x="47.6" class="guides" dy="-3.0">6</text>
      <path class="guides" d="M 225.2 126.0 L 293.9 126.0"/>
      <path class="guides" d="M 225.2 126.0 m -3.0 3.0 l 6.0 -6.0"/>
      <path class="guides" d="M 293.9 126.0 m -3.0 3.0 l 6.0 -6.0"/>
      <text y="126.0" x="259.6" class="guides" dy="-3.0">4.33</text>
    </g>
  </g>
  <g id="beam-moment-diagram" visibility="visible" transform="translate(0.0,360.0)">
    <g transform="translate(0.0,57.8)">
      <title>Bending Moment Diagram</title>
      <path class="mdiag" d="M 0,0 L 0.0,0.0 1.8,-2.2 3.6,-4.3 5.4,-6.4 7.2,-8.4 9.0,-10.4 10.8,-12.4 12.6,-14.3 14.4,-16.1 16.2,-18.0 18.0,-19.8 19.7,-21.5 21.5,-23.2 23.3,-24.9 25.1,-26.5 26.9,-28.1 28.7,-29.6 30.5,-31.1 32.3,-32.6 34.1,-34.0 35.9,-35.4 37.7,-36.7 39.5,-38.0 41.3,-39.3 43.1,-40.5 44.9,-41.7 46.7,-42.8 48.5,-43.9 50.3,-45.0 52.1,-46.0 53.9,-46.9 55.7,-47.9 57.5,-48.7 59.2,-49.6 61.0,-50.4 62.8,-51.2 64.6,-51.9 66.4,-52.6 68.2,-53.2 70.0,-53.8 71.8,-54.3 73.6,-54.9 75.4,-55.3 77.2,-55.8 79.0,-56.2 80.8,-56.5 82.6,-56.8 84.4,-57.1 86.2,-57.3 88.0,-57.5 89.8,-57.6 91.6,-57.7 93.4,-57.8 95.2,-57.8 95.2,-57.8 96.9,-57.8 98.7,-57.7 100.5,-57.6 102.3,-57.5 104.1,-57.3 105.9,-57.1 107.7,-56.8 109.5,-56.5 111.3,-56.2 113.1,-55.8 114.9,-55.3 116.7,-54.9 118.5,-54.3 120.3,-53.8 122.1,-53.2 123.9,-52.6 125.7,-51.9 127.5,-51.2 129.3,-50.4 131.1,-49.6 132.9,-48.7 134.7,-47.9 136.4,-46.9 138.2,-46.0 140.0,-45.0 141.8,-43.9 143.6,-42.8 145.4,-41.7 147.2,-40.5 149.0,-39.3 150.8,-38.0 152.6,-36.7 154.4,-35.4 156.2,-34.0 158.0,-32.6 159.8,-31.1 161.6,-29.6 163.4,-28.1 165.2,-26.5 167.0,-24.9 168.8,-23.2 170.6,-21.5 172.4,-19.8 174.2,-18.0 175.9,-16.1 177.7,-14.3 179.5,-12.4 181.3,-10.4 183.1,-8.4 184.9,-6.4 186.7,-4.3 188.5,-2.2 190.3,0.0 192.1,2.3 194.0,4.5 195.8,6.9 197.7,9.3 199.5,11.7 201.3,14.2 203.2,16.7 205.0,19.2 206.8,21.8 208.7,24.5 210.5,27.2 212.3,29.9 214.2,32.7 216.0,35.5 217.9,38.3 219.7,41.2 221.5,44.2 223.4,47.1 225.2,50.2 227.0,48.6 228.8,47.1 230.6,45.6 232.4,44.2 234.2,42.8 236.0,41.4 237.9,40.1 239.7,38.8 241.5,37.6 243.3,36.4 245.1,35.2 246.9,34.1 248.7,33.1 250.5,32.0 252.3,31.1 254.1,30.1 255.9,29.2 257.8,28.4 259.6,27.5 261.4,26.8 263.2,26.0 265.0,25.4 266.8,24.7 268.6,24.1 270.4,23.5 272.2,23.0 274.0,22.5 275.8,22.1 277.6,21.7 279.5,21.3 281.3,21.0 283.1,20.8 284.9,20.5 286.7,20.3 288.5,20.2 290.3,20.1 292.1,20.0 293.9,20.0 293.9,20.0 295.7,20.0 297.5,20.1 299.3,20.2 301.2,20.3 303.0,20.5 304.8,20.8 306.6,21.0 308.4,21.3 310.2,21.7 312.0,22.1 313.8,22.5 315.6,23.0 317.4,23.5 319.2,24.1 321.0,24.7 322.9,25.3 324.7,26.0 326.5,26.8 328.3,27.5 360.0,0.0 z"/>
      <circle cx="95.2" cy="-57.8" r="1.5" stroke="none" fill="red"><title>378 kN-m</title></circle>
      <text x="95.2" y="-57.8" dx="1.0" dy="-1.0" class="vmlabel" text-anchor="start"><title>378 kN-m</title>378</text>
      <circle cx="225.2" cy="50.2" r="1.5" stroke="none" fill="red"><title>-328 kN-m</title></circle>
      <text x="225.2" y="50.2" dx="1.0" dy="7.0" class="vmlabel" text-anchor="start"><title>-328 kN-m</title>-328</text>
      <circle cx="293.9" cy="20.0" r="1.5" stroke="none" fill="red"><title>-130.8 kN-m</title></circle>
      <text x="293.9" y="20.0" dx="-1.0" dy="7.0" class="vmlabel" text-anchor="end"><title>-130.8 kN-m</title>-130.8</text>
      <circle cx="328.3" cy="27.5" r="1.5" stroke="none" fill="red"><title>-180 kN-m</title></circle>
      <text x="328.3" y="27.5" dx="1.0" dy="7.0" class="vmlabel" text-anchor="start"><title>-180 kN-m</title>-180</text>
      <text x="360.0" y="0" class="dwglabel" dx="18.0">M [kN-m]</text>
    </g>
  </g>
</g>

</svg>
