<?xml version="1.0" standalone="yes"?>
<!DOCTYPE svg PUBLIC "-//W3C//DTD SVG 1.1//EN" 
  "http://www.w3.org/Graphics/SVG/1.1/DTD/svg11.dtd">
<svg xmlns="http://www.w3.org/2000/svg"
     xmlns:xlink="http://www.w3.org/1999/xlink"
     version="1.1"
     width="8.5in" 
     height="11.0in" 
     viewBox="0 0 612 792">
  <defs>
    <style type="text/css"><![CDATA[
    .elem {
	stroke-width: 2.0;
	stroke: black;
	}
    path.dim {
       stroke-width: 0.5;
       stroke: black;
       }
    path.guides {
       stroke-width: 0.5;
       stroke: grey;
       }
    text.dwglabel {
       font-family: Verdana, Arial;
       font-size: 10px;
       font-weight: bold;
       fill: black;
       text-align: center;
       text-anchor: start;
       }
    text.dim {
       font-family: Verdana, Arial;
       font-size: 8px;
       font-weight: bold;
       fill: black;
       text-align: center;
       text-anchor: middle;
       }
    text.guides {
       font-family: Verdana, Arial;
       font-size: 8px;
       font-weight: normal;
       font-style: italic;
       fill: black;
       text-align: center;
       text-anchor: middle;
       }
    text.vmlabel {
       font-family: Verdana, Arial;
       font-size: 8px;
       font-style: italic;
       fill: black;
       }
    text.notes {
       font-family: Verdana, Arial;
       font-size: 9px;
       font-weight: normal;
       font-style: italic;
       fill: black;
       text-align: center;
       text-anchor: left;
       }
    text.ptlabel {
       font-family: Verdana, Arial;
       font-size: 7px;
       font-style: italic;
       fill: black;
       text-align: center;
       text-anchor: start;
       }
     path.cload {
       fill: none;
       stroke-width: 1;
       stroke: black; 
       marker-end: url(#CLArrowEnd);
     }
      path.mload {
       fill: none;
       stroke-width: 1;
       stroke: black; 
       marker-end: url(#MLArrowEnd);
     }
      path.mloadInkscape {
       fill: none;
       stroke-width: 1;
       stroke: black; 
       marker-end: url(#MLArrowStart);
     }
     polygon.dload {
       fill: rgb(240,240,240);
       opacity: 0.5; /* if < 1, REALLY slows down printing of the pdfs */
       stroke-width: 1;
       stroke: black; 
     }
     path.dload {
       fill: none;
       stroke-width: 1;
       stroke: black; 
       marker-end: url(#DLArrowEnd);
     }
     path.dloadna {
       fill: none;
       stroke-width: 1;
       stroke: black; 
     }
     path.vdiag {
       fill: url(#crosshatch45);
       stroke-width: 1;
       stroke: black; 
     }
     path.mdiag {
       fill: url(#crosshatch45);
       stroke-width: 1;
       stroke: black; 
     }

    ]]></style>
    <g id="PinnedSupport" transform="translate(0,1.0)">
      <path d="M 0 0 l 4 6 l -8 0 z" 
	    stroke="black" stroke-width="0" fill="black" opacity="1.0" />
      <path d="M -6 6 l 12 0" 
	    stroke="black" stroke-width="1" fill="none" />
      <path d="M 6 6 l -3 3 m 0 -3 l -3 3 m 0 -3 l -3 3 m 0 -3 l -3 3 m 0 -3 l -3 3"
	    stroke="black" stroke-width="1" fill="none" />
    </g>
    <g id="RollerSupport" transform="translate(0,1.0)">
      <circle cx="0" cy="3" r="3"
	    stroke="black" stroke-width="0" fill="black" opacity="1.0" />
      <path d="M -6 6 l 12 0" 
	    stroke="black" stroke-width="1" fill="none" />
      <path d="M 6 6 l -3 3 m 0 -3 l -3 3 m 0 -3 l -3 3 m 0 -3 l -3 3 m 0 -3 l -3 3"
	    stroke="black" stroke-width="1" fill="none" />
    </g>
    <g id="LFixedSupport" transform="translate(-0.5,0)">
      <path d="M 0 -6 l 0 12"
	    stroke="black" stroke-width="1" fill="none" />
      <path d="M 0 -6 l -3 3 m 3 0 l -3 3 m 3 0 l -3 3 m 3 0 l -3 3 m 3 0 l -3 3"
	    stroke="black" stroke-width="1" fill="none" />
    </g>
    <g id="RFixedSupport">
      <use xlink:href="#LFixedSupport" transform="scale(-1,1)"/>
    </g>
    <g id="Hinge">
      <circle cx="0" cy="0" r="2.5"
	      stroke="black" stroke-width="1" fill="white"/>
    </g>
    <g id="ShearRelease">
      <rect x="-3" y="-6" width="6" height="12"
	    stroke="none" fill="white"/>
      <circle cx="0" cy="-6" r="2" stroke="black" strokewidth="0.5" fill="white"/>
      <circle cx="0" cy="0" r="2" stroke="black" strokewidth="0.5" fill="white"/>
      <circle cx="0" cy="6" r="2" stroke="black" strokewidth="0.5" fill="white"/>
      <path d="M -3 -9 l 0 18 M 3 -9 l 0 18" stroke="black" stroke-width="1"/>
    </g>
    <marker id="DLArrowStart"
	    markerUnits="userSpaceOnUse"
	    markerWidth="8"
	    markerHeight="4"
	    orient="auto"
	    viewBox="0 0 8 4"
	    refX="0"
	    refY="2">
      <path d="M 0 2 l 8 -2 l 0 4 z"/>
    </marker>
    <marker id="DLArrowEnd"
	    markerUnits="userSpaceOnUse"
	    markerWidth="8"
	    markerHeight="4"
	    orient="auto"
	    viewBox="0 0 8 4"
	    refX="8"
	    refY="2">
      <path d="M 0 0 l 8 2 l -8 2 z"/>
    </marker>
    <marker id="CLArrowStart"
	    markerUnits="userSpaceOnUse"
	    markerWidth="10.0"
	    markerHeight="6"
	    orient="auto"
	    viewBox="0 0 10 6"
	    refX="3.0"
	    refY="3">
      <path d="M 0 3 l 10 -3 l -2 3 l 2 3 z"/>
    </marker>
    <marker id="CLArrowEnd"
	    markerUnits="userSpaceOnUse"
	    markerWidth="10.0"
	    markerHeight="6"
	    orient="auto"
	    viewBox="0 0 10 6"
	    refX="7.0"
	    refY="3">
      <path d="M 0 0 l 10 3 l -10 3 l 2 -3 z"/>
    </marker>
    <marker id="MLArrowStart"
	    markerUnits="userSpaceOnUse"
	    markerWidth="10.0"
	    markerHeight="6"
	    orient="auto"
	    viewBox="0 0 10 6"
	    refX="8"
	    refY="3">
      <path d="M 10 0 l -10 3 l 10 3 l -2 -3 z"/>
    </marker>
    <marker id="MLArrowEnd"
	    markerUnits="userSpaceOnUse"
	    markerWidth="10.0"
	    markerHeight="6"
	    orient="auto"
	    viewBox="0 0 10 6"
	    refX="2"
	    refY="3">
      <path d="M 0 0 l 10 3 l -10 3 l 2 -3 z"/>
    </marker>
    <pattern id="crosshatch45" patternUnits="userSpaceOnUse"
             x="0" y="0" width="10" height="10"
	     viewBox="0 0 10 10">
       <path d="M 0 0 L 10 10" fill="none" stroke="grey" stroke-width="0.2"/>
    </pattern>


  </defs>

<g transform="translate(72.0,122.0)">
  <title>Beam! Length = 13.2</title>
  <path class="elem" d="M 0 0 l 360.0 0"/>
  <g transform="translate(0.0,0.0)">
    <title>UD Load 11 kN/m</title>
    <polygon points="0,0 0,-12.0 60.0,-12.0 60.0,0" class="dload"/>
    <path class="dload" d="M 0.0 -12.0 L 0.0 -1.0"/>
    <path class="dload" d="M 30.0 -12.0 L 30.0 -1.0"/>
    <path class="dload" d="M 60.0 -12.0 L 60.0 -1.0"/>
    <text style="text-anchor: middle;" dx="0.0" dy="-2.0" y="-12.0" x="30.0" class="dim">11</text>
  </g>
  <g transform="translate(210.0,0.0)">
    <title>Moment load = 80 kN-m</title>
    <path class="dim" d="M -2.0 -2.0 l 4.0 4.0 M -2.0 2.0 l 4.0 -4.0"/>
    <path class="mload" d="M 0.0,15.0 A 15.0,15.0 0 0,0 0.0,-15.0"/>
    <text y="-15.0" x="0.0" class="dim" dy="-4.0">80</text>
  </g>
  <use y="0" x="60.0" xlink:href="#PinnedSupport"/>
  <use y="0" x="360.0" xlink:href="#RollerSupport"/>
  <path class="dim" d="M 210.0 10.0 l 0 25.0"/>
  <path class="dim" d="M 60.0 30.0 l 150.0 0"/>
  <path class="dim" d="M 60.0 30.0 m -3.0 3.0 l 6.0 -6.0"/>
  <path class="dim" d="M 210.0 30.0 m -3.0 3.0 l 6.0 -6.0"/>
  <text y="30.0" x="135.0" class="dim" dy="-3.0">5.5</text>
  <path class="dim" d="M 0.0 10.0 l 0 40.0"/>
  <path class="dim" d="M 60.0 10.0 l 0 40.0"/>
  <path class="dim" d="M 0.0 45.0 l 60.0 0"/>
  <path class="dim" d="M 0.0 45.0 m -3.0 3.0 l 6.0 -6.0"/>
  <path class="dim" d="M 60.0 45.0 m -3.0 3.0 l 6.0 -6.0"/>
  <text y="45.0" x="30.0" class="dim" dy="-3.0">2.2</text>
  <path class="dim" d="M 360.0 10.0 l 0 40.0"/>
  <path class="dim" d="M 60.0 45.0 l 300.0 0"/>
  <path class="dim" d="M 360.0 45.0 m -3.0 3.0 l 6.0 -6.0"/>
  <text y="45.0" x="210.0" class="dim" dy="-3.0">11</text>
  <text y="17.0" x="0.0" class="ptlabel" dx="1.0">a</text>
  <text y="17.0" x="60.0" class="ptlabel" dx="1.0">b</text>
  <text y="17.0" x="210.0" class="ptlabel" dx="1.0">c</text>
  <text y="17.0" x="360.0" class="ptlabel" dx="1.0">d</text>
  <text y="-56.0" x="0" xml:space="preserve" class="notes">Units are m, kN;       Difficulty Level = 3</text>
  <g id="beam-guides" visibility="visible" transform="translate(0.0,0.0)">
    <path class="guides" d="M 0.0 51.0 L 0.0 474.0 M 60.0 51.0 L 60.0 474.0 M 210.0 51.0 L 210.0 474.0 M 360.0 51.0 L 360.0 474.0"/>
  </g>
  <g id="beam-fb-diagram" visibility="visible" transform="translate(0.0,144.0)">
    <title>Free Body Diagram</title>
    <path class="elem" d="M 0 0 l 360.0 0"/>
    <g transform="translate(0.0,0.0)">
      <title>UD Load 11 kN/m</title>
      <polygon points="0,0 0,-12.0 60.0,-12.0 60.0,0" class="dload"/>
      <path class="dload" d="M 0.0 -12.0 L 0.0 -1.0"/>
      <path class="dload" d="M 30.0 -12.0 L 30.0 -1.0"/>
      <path class="dload" d="M 60.0 -12.0 L 60.0 -1.0"/>
      <text style="text-anchor: middle;" dx="0.0" dy="-2.0" y="-12.0" x="30.0" class="dim">11</text>
    </g>
    <g transform="translate(60.0,1.0)">
      <title>Point Load = -33.8927 kN</title>
      <path class="cload" d="M 0 42.0 l 0 -39.0"/>
      <text y="42.0" x="0" class="dim" dy="8.0">33.89</text>
    </g>
    <g transform="translate(360.0,-1.0)">
      <title>Point Load = 9.69273 kN</title>
      <path class="cload" d="M 0 -30.6 l 0 27.6"/>
      <text y="-30.6" x="0" class="dim" dy="-3.0">9.693</text>
    </g>
    <g transform="translate(210.0,0.0)">
      <title>Moment load = 80 kN-m</title>
      <path class="dim" d="M -2.0 -2.0 l 4.0 4.0 M -2.0 2.0 l 4.0 -4.0"/>
      <path class="mload" d="M 0.0,15.0 A 15.0,15.0 0 0,0 0.0,-15.0"/>
      <text y="-15.0" x="0.0" class="dim" dy="-4.0">80</text>
    </g>
    <text x="360.0" y="0" class="dwglabel" dx="18.0">FBD [m,kN]</text>
  </g>
  <g id="beam-shear-diagram" visibility="visible" transform="translate(0.0,216.0)">
    <g transform="translate(0.0,30.9)">
      <title>Shear Force Diagram</title>
      <path class="vdiag" d="M 0,0 L 0.0,-0.0 60.0,77.1 60.0,-30.9 210.0,-30.9 360.0,-30.9 360.0,-0.0 z"/>
      <circle cx="60.0" cy="77.1" r="1.5" stroke="none" fill="red"><title>-24.2 kN</title></circle>
      <text x="60.0" y="77.1" dx="1.0" dy="7.0" class="vmlabel" text-anchor="start"><title>-24.2 kN</title>-24.2</text>
      <circle cx="60.0" cy="-30.9" r="1.5" stroke="none" fill="red"><title>9.693 kN</title></circle>
      <text x="60.0" y="-30.9" dx="1.0" dy="-1.0" class="vmlabel" text-anchor="start"><title>9.693 kN</title>9.693</text>
      <circle cx="210.0" cy="-30.9" r="1.5" stroke="none" fill="red"><title>9.693 kN</title></circle>
      <text x="210.0" y="-30.9" dx="1.0" dy="-1.0" class="vmlabel" text-anchor="start"><title>9.693 kN</title>9.693</text>
      <circle cx="360.0" cy="-30.9" r="1.5" stroke="none" fill="red"><title>9.693 kN</title></circle>
      <text x="360.0" y="-30.9" dx="1.0" dy="-1.0" class="vmlabel" text-anchor="start"><title>9.693 kN</title>9.693</text>
      <text x="360.0" y="0" class="dwglabel" dx="18.0">V [kN]</text>
    </g>
    <g id="beam-zvguides" visibility="visible" transform="translate(0.0,0.0)">
    </g>
  </g>
  <g id="beam-moment-diagram" visibility="visible" transform="translate(0.0,360.0)">
    <g transform="translate(0.0,36.0)">
      <title>Bending Moment Diagram</title>
      <path class="mdiag" d="M 0,0 L 0.0,0.0 1.8,0.0 3.6,0.1 5.5,0.3 7.3,0.5 9.1,0.8 10.9,1.2 12.7,1.6 14.5,2.1 16.4,2.7 18.2,3.3 20.0,4.0 21.8,4.8 23.6,5.6 25.5,6.5 27.3,7.4 29.1,8.4 30.9,9.5 32.7,10.7 34.5,11.9 36.4,13.2 38.2,14.6 40.0,16.0 41.8,17.5 43.6,19.0 45.5,20.6 47.3,22.3 49.1,24.1 50.9,25.9 52.7,27.8 54.5,29.7 56.4,31.7 58.2,33.8 60.0,35.9 210.0,-36.0 210.0,72.0 360.0,0.0 z"/>
      <circle cx="60.0" cy="35.9" r="1.5" stroke="none" fill="red"><title>-26.62 kN-m</title></circle>
      <text x="60.0" y="35.9" dx="1.0" dy="7.0" class="vmlabel" text-anchor="start"><title>-26.62 kN-m</title>-26.62</text>
      <circle cx="210.0" cy="-36.0" r="1.5" stroke="none" fill="red"><title>26.69 kN-m</title></circle>
      <text x="210.0" y="-36.0" dx="1.0" dy="-1.0" class="vmlabel" text-anchor="start"><title>26.69 kN-m</title>26.69</text>
      <circle cx="210.0" cy="72.0" r="1.5" stroke="none" fill="red"><title>-53.31 kN-m</title></circle>
      <text x="210.0" y="72.0" dx="1.0" dy="7.0" class="vmlabel" text-anchor="start"><title>-53.31 kN-m</title>-53.31</text>
      <text x="360.0" y="0" class="dwglabel" dx="18.0">M [kN-m]</text>
    </g>
  </g>
</g>

</svg>
