<?xml version="1.0" encoding="UTF-8" standalone="no"?>
<!DOCTYPE svg PUBLIC "-//W3C//DTD SVG 1.1//EN" "http://www.w3.org/Graphics/SVG/1.1/DTD/svg11.dtd">
<!-- Created with wpg2svg/libwpg 0.2.0 -->
<svg version="1.1" xmlns="http://www.w3.org/2000/svg" xmlns:xlink="http://www.w3.org/1999/xlink" width="640.8" height="244.8" >
<ellipse cx="395.7" cy="105" rx="9.78" ry="9.78" style="stroke-width: 1.0; stroke: #000000; fill: none; "/>
<polygon points="35.34 96.42, 384.24 96.42, 384.24 116.58, 35.34 116.58"
style="stroke-width: 1.0; stroke: #000000; fill: none; "/>
<polygon points="406.86 96.42, 533.34 96.42, 533.34 116.58, 406.86 116.58"
style="stroke-width: 1.0; stroke: #000000; fill: none; "/>
<line x1="533.16"  y1="48.84" x2="533.16"  y2="166.44"
style="stroke-width: 1.0; stroke: #000000; fill: none; "/>
<line x1="533.7"  y1="160.02" x2="552.48"  y2="171.84"
style="stroke-width: 1.0; stroke: #000000; fill: none; "/>
<line x1="534.3"  y1="147.12" x2="553.08"  y2="158.94"
style="stroke-width: 1.0; stroke: #000000; fill: none; "/>
<line x1="534.78"  y1="133.74" x2="553.56"  y2="145.56"
style="stroke-width: 1.0; stroke: #000000; fill: none; "/>
<line x1="534.78"  y1="120.78" x2="553.56"  y2="132.6"
style="stroke-width: 1.0; stroke: #000000; fill: none; "/>
<line x1="535.32"  y1="106.38" x2="554.1"  y2="118.2"
style="stroke-width: 1.0; stroke: #000000; fill: none; "/>
<line x1="534.24"  y1="93.42" x2="553.02"  y2="105.24"
style="stroke-width: 1.0; stroke: #000000; fill: none; "/>
<line x1="534.24"  y1="81.06" x2="553.02"  y2="92.88"
style="stroke-width: 1.0; stroke: #000000; fill: none; "/>
<line x1="534.78"  y1="68.04" x2="553.56"  y2="79.86"
style="stroke-width: 1.0; stroke: #000000; fill: none; "/>
<line x1="534.24"  y1="53.58" x2="553.02"  y2="65.4"
style="stroke-width: 1.0; stroke: #000000; fill: none; "/>
<polygon points="251.76 118.92, 234.06 147.24, 270.66 147.24, 251.76 117.72"
style="stroke-width: 1.0; stroke: #000000; fill: none; "/>
<ellipse cx="243.06" cy="153.84" rx="5.34" ry="5.34" style="stroke-width: 1.0; stroke: #000000; fill: none; "/>
<ellipse cx="261.36" cy="153.3" rx="5.34" ry="5.34" style="stroke-width: 1.0; stroke: #000000; fill: none; "/>
<line x1="232.74"  y1="159.78" x2="273.42"  y2="159.78"
style="stroke-width: 1.0; stroke: #000000; fill: none; "/>
<line x1="236.46"  y1="161.22" x2="225.36"  y2="173.82"
style="stroke-width: 1.0; stroke: #000000; fill: none; "/>
<line x1="247.5"  y1="162" x2="236.4"  y2="174.6"
style="stroke-width: 1.0; stroke: #000000; fill: none; "/>
<line x1="258.6"  y1="160.5" x2="247.5"  y2="173.1"
style="stroke-width: 1.0; stroke: #000000; fill: none; "/>
<line x1="270.42"  y1="160.5" x2="259.32"  y2="173.1"
style="stroke-width: 1.0; stroke: #000000; fill: none; "/>
<polyline points="35.1 95.88, 35.1 47.34, 252.24 47.34, 252.24 96.48"
style="stroke-width: 1.0; stroke: #000000; fill: none; "/>
<line x1="71.82"  y1="48" x2="71.82"  y2="95.22"
style="stroke-width: 1.0; stroke: #000000; fill: none; "/>
<line x1="108.48"  y1="47.34" x2="108.48"  y2="95.22"
style="stroke-width: 1.0; stroke: #000000; fill: none; "/>
<line x1="143.4"  y1="95.88" x2="143.4"  y2="46.68"
style="stroke-width: 1.0; stroke: #000000; fill: none; "/>
<line x1="179.46"  y1="95.22" x2="179.46"  y2="48"
style="stroke-width: 1.0; stroke: #000000; fill: none; "/>
<line x1="215.58"  y1="96.48" x2="215.58"  y2="48"
style="stroke-width: 1.0; stroke: #000000; fill: none; "/>
<polygon points="35.7 84.66, 41.94 84.66, 36.36 95.22"
style="stroke-width: 1.0; stroke: #000000; fill: #000000; "/>
<polygon points="251.52 84.66, 245.28 84.66, 250.86 95.22"
style="stroke-width: 1.0; stroke: #000000; fill: #000000; "/>
<polygon points="66.84 84, 78.06 84, 71.82 95.88, 66.84 84.66"
style="stroke-width: 1.0; stroke: #000000; fill: #000000; "/>
<polygon points="102.24 84, 113.46 84, 107.22 95.88, 102.24 84.66"
style="stroke-width: 1.0; stroke: #000000; fill: #000000; "/>
<polygon points="137.7 83.46, 148.92 83.46, 142.68 95.34, 137.7 84.12"
style="stroke-width: 1.0; stroke: #000000; fill: #000000; "/>
<polygon points="173.82 83.46, 185.04 83.46, 178.8 95.34, 173.82 84.12"
style="stroke-width: 1.0; stroke: #000000; fill: #000000; "/>
<polygon points="209.94 84, 221.16 84, 214.92 95.88, 209.94 84.66"
style="stroke-width: 1.0; stroke: #000000; fill: #000000; "/>
<text x="72.48" y="40.56">
12 kN/m
</text>
<line x1="37.68"  y1="174.42" x2="37.68"  y2="222.96"
style="stroke-width: 1.0; stroke: #000000; fill: #000000; "/>
<line x1="251.76"  y1="181.56" x2="251.76"  y2="222.96"
style="stroke-width: 1.0; stroke: #000000; fill: #000000; "/>
<line x1="396.06"  y1="179.16" x2="396.06"  y2="219.36"
style="stroke-width: 1.0; stroke: #000000; fill: #000000; "/>
<line x1="533.28"  y1="178.02" x2="533.28"  y2="228.84"
style="stroke-width: 1.0; stroke: #000000; fill: #000000; "/>
<line x1="37.68"  y1="199.26" x2="115.74"  y2="199.26"
style="stroke-width: 1.0; stroke: #000000; fill: #000000; "/>
<line x1="171.36"  y1="199.26" x2="301.44"  y2="199.26"
style="stroke-width: 1.0; stroke: #000000; fill: #000000; "/>
<line x1="352.32"  y1="199.26" x2="439.8"  y2="200.46"
style="stroke-width: 1.0; stroke: #000000; fill: #000000; "/>
<line x1="484.74"  y1="200.46" x2="532.02"  y2="200.46"
style="stroke-width: 1.0; stroke: #000000; fill: #000000; "/>
<text x="125.46" y="207.12">
6 m
</text>
<polyline points="55.02 193.56, 37.5 199.26, 55.92 204.96"
style="stroke-width: 1.0; stroke: #000000; fill: #000000; "/>
<polyline points="233.7 193.14, 251.22 198.84, 232.8 204.54"
style="stroke-width: 1.0; stroke: #000000; fill: #000000; "/>
<text x="309.78" y="207.6">
4 m
</text>
<polyline points="269.04 193.38, 251.52 199.08, 269.94 204.78"
style="stroke-width: 1.0; stroke: #000000; fill: #000000; "/>
<polyline points="377.88 193.98, 395.4 199.68, 376.98 205.38"
style="stroke-width: 1.0; stroke: #000000; fill: #000000; "/>
<text x="444.54" y="208.86">
4 m
</text>
<polyline points="413.94 193.98, 396.42 199.68, 414.84 205.38"
style="stroke-width: 1.0; stroke: #000000; fill: #000000; "/>
<polyline points="515.16 194.34, 532.68 200.04, 514.26 205.74"
style="stroke-width: 1.0; stroke: #000000; fill: #000000; "/>
</svg>

