<?xml version="1.0" encoding="UTF-8" standalone="no"?>
<!-- Created with wpg2svg/libwpg 0.2.0 -->

<svg
   xmlns:dc="http://purl.org/dc/elements/1.1/"
   xmlns:cc="http://creativecommons.org/ns#"
   xmlns:rdf="http://www.w3.org/1999/02/22-rdf-syntax-ns#"
   xmlns:svg="http://www.w3.org/2000/svg"
   xmlns="http://www.w3.org/2000/svg"
   xmlns:sodipodi="http://sodipodi.sourceforge.net/DTD/sodipodi-0.dtd"
   xmlns:inkscape="http://www.inkscape.org/namespaces/inkscape"
   version="1.1"
   width="640.8"
   height="244.8"
   id="svg2"
   inkscape:version="0.92.4 (unknown)"
   sodipodi:docname="B15.svg">
  <metadata
     id="metadata76">
    <rdf:RDF>
      <cc:Work
         rdf:about="">
        <dc:format>image/svg+xml</dc:format>
        <dc:type
           rdf:resource="http://purl.org/dc/dcmitype/StillImage" />
      </cc:Work>
    </rdf:RDF>
  </metadata>
  <defs
     id="defs74" />
  <sodipodi:namedview
     pagecolor="#ffffff"
     bordercolor="#666666"
     borderopacity="1"
     objecttolerance="10"
     gridtolerance="10"
     guidetolerance="10"
     inkscape:pageopacity="0"
     inkscape:pageshadow="2"
     inkscape:window-width="1348"
     inkscape:window-height="788"
     id="namedview72"
     showgrid="false"
     inkscape:zoom="1.06"
     inkscape:cx="568.40651"
     inkscape:cy="172.83108"
     inkscape:window-x="285"
     inkscape:window-y="35"
     inkscape:window-maximized="0"
     inkscape:current-layer="svg2" />
  <ellipse
     cx="370.92"
     cy="96.78"
     rx="9.78"
     ry="9.78"
     style="stroke-width: 1.0; stroke: #000000; fill: none; "
     id="ellipse4" />
  <polygon
     points="11.64 87.54, 360.54 87.54, 360.54 107.7, 11.64 107.7"
     style="stroke-width: 1.0; stroke: #000000; fill: none; "
     id="polygon6" />
  <polygon
     points="417.36 86.94, 543.84 86.94, 543.84 107.1, 417.36 107.1"
     style="stroke-width: 1.0; stroke: #000000; fill: none; "
     id="polygon8" />
  <polyline
     points="11.4 87, 11.4 38.46, 228.54 38.46, 228.54 87.6"
     style="stroke-width: 1.0; stroke: #000000; fill: none; "
     id="polyline10" />
  <line
     x1="48.12"
     y1="39.12"
     x2="48.12"
     y2="86.34"
     style="stroke-width: 1.0; stroke: #000000; fill: none; "
     id="line12" />
  <line
     x1="84.78"
     y1="38.46"
     x2="84.78"
     y2="86.34"
     style="stroke-width: 1.0; stroke: #000000; fill: none; "
     id="line14" />
  <line
     x1="119.7"
     y1="87"
     x2="119.7"
     y2="37.8"
     style="stroke-width: 1.0; stroke: #000000; fill: none; "
     id="line16" />
  <line
     x1="155.76"
     y1="86.34"
     x2="155.76"
     y2="39.12"
     style="stroke-width: 1.0; stroke: #000000; fill: none; "
     id="line18" />
  <line
     x1="191.88"
     y1="87.6"
     x2="191.88"
     y2="39.12"
     style="stroke-width: 1.0; stroke: #000000; fill: none; "
     id="line20" />
  <polygon
     points="12 75.78, 18.24 75.78, 12.66 86.34"
     style="stroke-width: 1.0; stroke: #000000; fill: #000000; "
     id="polygon22" />
  <polygon
     points="227.82 75.78, 221.58 75.78, 227.16 86.34"
     style="stroke-width: 1.0; stroke: #000000; fill: #000000; "
     id="polygon24" />
  <polygon
     points="43.14 75.12, 54.36 75.12, 48.12 87, 43.14 75.78"
     style="stroke-width: 1.0; stroke: #000000; fill: #000000; "
     id="polygon26" />
  <polygon
     points="78.54 75.12, 89.76 75.12, 83.52 87, 78.54 75.78"
     style="stroke-width: 1.0; stroke: #000000; fill: #000000; "
     id="polygon28" />
  <polygon
     points="114 74.58, 125.22 74.58, 118.98 86.46, 114 75.24"
     style="stroke-width: 1.0; stroke: #000000; fill: #000000; "
     id="polygon30" />
  <polygon
     points="150.12 74.58, 161.34 74.58, 155.1 86.46, 150.12 75.24"
     style="stroke-width: 1.0; stroke: #000000; fill: #000000; "
     id="polygon32" />
  <polygon
     points="186.24 75.12, 197.46 75.12, 191.22 87, 186.24 75.78"
     style="stroke-width: 1.0; stroke: #000000; fill: #000000; "
     id="polygon34" />
  <text
     x="48.779999"
     y="31.68"
     id="text36"
     style="line-height:0%">12 kN/m</text>
  <line
     x1="226.98"
     y1="109.38"
     x2="226.98"
     y2="157.92"
     style="stroke-width: 1.0; stroke: #000000; fill: #000000; "
     id="line38" />
  <polygon
     points="222.24 120.06, 226.98 107.04, 231.66 118.92, 223.38 118.92"
     style="stroke-width: 1.0; stroke: #000000; fill: #000000; "
     id="polygon40" />
  <line
     x1="371.16"
     y1="82.26"
     x2="371.16"
     y2="33.72"
     style="stroke-width: 1.0; stroke: #000000; fill: #000000; "
     id="line42" />
  <polygon
     points="366.42 71.58, 371.16 84.6, 375.84 72.72, 367.56 72.72"
     style="stroke-width: 1.0; stroke: #000000; fill: #000000; "
     id="polygon44" />
  <line
     x1="417.18"
     y1="111.72"
     x2="417.18"
     y2="160.26"
     style="stroke-width: 1.0; stroke: #000000; fill: #000000; "
     id="line46" />
  <polygon
     points="412.44 122.4, 417.18 109.38, 421.86 121.26, 413.58 121.26"
     style="stroke-width: 1.0; stroke: #000000; fill: #000000; "
     id="polygon48" />
  <line
     x1="542.58"
     y1="82.26"
     x2="542.58"
     y2="33.72"
     style="stroke-width: 1.0; stroke: #000000; fill: #000000; "
     id="line50" />
  <polygon
     points="537.84 71.58, 542.58 84.6, 547.26 72.72, 538.98 72.72"
     style="stroke-width: 1.0; stroke: #000000; fill: #000000; "
     id="polygon52" />
  <path
     d="  M560.28,66.84 C576,69.6 587.76,83.88 587.52,99.96"
     style="stroke-width:1;stroke:#000000;fill:none"
     id="path54" />
  <polyline
     points="560.28 66.84, 561.42 67.08, 562.56 67.32, 563.7 67.68, 564.84 68.04, 565.92 68.4, 567 68.82, 568.08 69.3, 569.16 69.78, 570.18 70.32, 571.2 70.92, 572.16 71.52, 573.12 72.18, 574.02 72.84, 574.92 73.56, 575.82 74.28, 576.66 75.06, 577.5 75.84, 578.34 76.68, 579.12 77.52, 579.84 78.42, 580.56 79.32, 581.22 80.22, 581.88 81.18, 582.54 82.14, 583.14 83.16, 583.68 84.18, 584.22 85.2, 584.7 86.22, 585.12 87.3, 585.54 88.38, 585.96 89.46, 586.26 90.6, 586.56 91.74, 586.8 92.88, 587.04 94.02, 587.22 95.22, 587.34 96.36, 587.46 97.56, 587.52 98.76, 587.52 99.96"
     style="stroke-width:1;stroke:#000000;fill:none"
     id="polyline56" />
  <polyline
     points="587.52 99.96, 587.4 101.16, 587.34 102.3, 587.16 103.44, 586.98 104.64, 586.74 105.72, 586.44 106.86, 586.14 107.94, 585.78 109.08, 585.42 110.1, 585 111.18, 584.52 112.2, 584.04 113.22, 583.5 114.24, 582.9 115.2, 582.36 116.16, 581.7 117.12, 581.04 118.02, 580.32 118.86, 579.6 119.76, 578.88 120.6, 578.1 121.38, 577.26 122.16, 576.48 122.94, 575.58 123.66, 574.74 124.38, 573.84 125.04, 572.88 125.64, 571.92 126.24, 570.96 126.84, 570 127.38, 568.98 127.86, 567.9 128.34, 566.88 128.76, 565.8 129.18, 564.72 129.54, 563.64 129.84, 562.5 130.08, 561.36 130.32, 560.22 130.56, 559.08 130.68"
     style="stroke-width:1;stroke:#000000;fill:none"
     id="polyline58" />
  <path
     style="fill:#000000;stroke:#000000;stroke-width:1"
     d="m 558.39481,65.846358 15.12684,-2.295345 -5.99365,15.292251 c 0,0 -7.69966,-11.204914 -9.13319,-12.996906 z"
     id="polygon60"
     inkscape:connector-curvature="0"
     sodipodi:nodetypes="cccc"
     inkscape:transform-center-x="-4.8487552"
     inkscape:transform-center-y="3.654575" />
  <text
     x="236.82001"
     y="155.82001"
     id="text62"
     style="line-height:0%">126 kN</text>
  <text
     x="378.60001"
     y="38.759998"
     id="text64"
     style="line-height:0%">54</text>
  <text
     x="389.10001"
     y="169.2"
     id="text66"
     style="line-height:0%">54</text>
  <text
     x="515.46002"
     y="40.200001"
     id="text68"
     style="line-height:0%">54</text>
  <text
     x="553.67999"
     y="60.84"
     id="text70"
     style="line-height:0%">216 kN-m</text>
</svg>
