<?xml version="1.0" encoding="UTF-8" standalone="no"?>
<!-- Created with wpg2svg/libwpg 0.2.0 -->

<svg
   xmlns:dc="http://purl.org/dc/elements/1.1/"
   xmlns:cc="http://creativecommons.org/ns#"
   xmlns:rdf="http://www.w3.org/1999/02/22-rdf-syntax-ns#"
   xmlns:svg="http://www.w3.org/2000/svg"
   xmlns="http://www.w3.org/2000/svg"
   xmlns:sodipodi="http://sodipodi.sourceforge.net/DTD/sodipodi-0.dtd"
   xmlns:inkscape="http://www.inkscape.org/namespaces/inkscape"
   version="1.1"
   width="748.8"
   height="568.8"
   id="svg4047"
   inkscape:version="0.48.2 r9819"
   sodipodi:docname="B17.svg">
  <metadata
     id="metadata4135">
    <rdf:RDF>
      <cc:Work
         rdf:about="">
        <dc:format>image/svg+xml</dc:format>
        <dc:type
           rdf:resource="http://purl.org/dc/dcmitype/StillImage" />
        <dc:title></dc:title>
      </cc:Work>
    </rdf:RDF>
  </metadata>
  <defs
     id="defs4133" />
  <sodipodi:namedview
     pagecolor="#ffffff"
     bordercolor="#666666"
     borderopacity="1"
     objecttolerance="10"
     gridtolerance="10"
     guidetolerance="10"
     inkscape:pageopacity="1"
     inkscape:pageshadow="2"
     inkscape:window-width="1400"
     inkscape:window-height="990"
     id="namedview4131"
     showgrid="false"
     inkscape:zoom="3.3192687"
     inkscape:cx="319.84185"
     inkscape:cy="456.68859"
     inkscape:window-x="-4"
     inkscape:window-y="-4"
     inkscape:window-maximized="1"
     inkscape:current-layer="svg4047" />
  <g
     id="g4158"
     inkscape:export-filename="D:\B17.png"
     inkscape:export-xdpi="90"
     inkscape:export-ydpi="90">
    <polyline
       id="polyline4049"
       style="stroke-width:1;stroke:#000000;fill:none"
       points="206.64 446.28, 206.64 78.72, 584.4 80.16, 584.4 230.4" />
    <line
       id="line4051"
       style="stroke-width: 1.0; stroke: #000000; fill: #000000; "
       y2="94.8"
       x2="225.54"
       y1="446.28"
       x1="225.54" />
    <polyline
       id="polyline4053"
       style="stroke-width:1;stroke:#000000;fill:none"
       points="225.96 95.7, 568.8 95.7, 568.8 231.18" />
    <line
       id="line4055"
       style="stroke-width: 1.0; stroke: #000000; fill: #000000; "
       y2="447.36"
       x2="226.5"
       y1="447.36"
       x1="206.58" />
    <line
       id="line4057"
       style="stroke-width: 1.0; stroke: #000000; fill: #000000; "
       y2="230.7"
       x2="583.5"
       y1="230.7"
       x1="569.4" />
    <line
       id="line4059"
       style="stroke-width: 1.0; stroke: #000000; fill: #000000; "
       y2="265.38"
       x2="203.76"
       y1="265.38"
       x1="130.86" />
    <polygon
       id="polygon4061"
       style="stroke-width: 1.0; stroke: #000000; fill: #000000; "
       points="178.98 253.74, 206.64 265.38, 180.42 275.58, 180.42 252.3" />
    <text
       id="text4063"
       y="250.74"
       x="128.64">
40 kN
</text>
    <polyline
       id="polyline4065"
       style="stroke-width:1;stroke:#000000;fill:none"
       points="216.84 75.78, 216.84 37.98, 574.2 37.98, 574.2 77.34" />
    <line
       id="line4067"
       style="stroke-width: 1.0; stroke: #000000; fill: #000000; "
       y2="38.22"
       x2="251.94"
       y1="77.34"
       x1="251.94" />
    <polygon
       id="polygon4069"
       style="stroke-width: 1.0; stroke: #000000; fill: #000000; "
       points="248.88 65.1, 255.78 65.1, 251.94 78.84, 249.66 65.1" />
    <line
       id="line4071"
       style="stroke-width: 1.0; stroke: #000000; fill: #000000; "
       y2="38.22"
       x2="287.76"
       y1="77.34"
       x1="287.76" />
    <polygon
       id="polygon4073"
       style="stroke-width: 1.0; stroke: #000000; fill: #000000; "
       points="284.7 65.1, 291.6 65.1, 287.76 78.84, 285.48 65.1" />
    <line
       id="line4075"
       style="stroke-width: 1.0; stroke: #000000; fill: #000000; "
       y2="38.22"
       x2="324.54"
       y1="77.34"
       x1="324.54" />
    <polygon
       id="polygon4077"
       style="stroke-width: 1.0; stroke: #000000; fill: #000000; "
       points="321.48 65.1, 328.38 65.1, 324.54 78.84, 322.26 65.1" />
    <line
       id="line4079"
       style="stroke-width: 1.0; stroke: #000000; fill: #000000; "
       y2="39"
       x2="359.88"
       y1="78.12"
       x1="359.88" />
    <polygon
       id="polygon4081"
       style="stroke-width: 1.0; stroke: #000000; fill: #000000; "
       points="356.82 65.88, 363.72 65.88, 359.88 79.62, 357.6 65.88" />
    <line
       id="line4083"
       style="stroke-width: 1.0; stroke: #000000; fill: #000000; "
       y2="38.94"
       x2="395.94"
       y1="78.06"
       x1="395.94" />
    <polygon
       id="polygon4085"
       style="stroke-width: 1.0; stroke: #000000; fill: #000000; "
       points="392.88 65.82, 399.78 65.82, 395.94 79.56, 393.66 65.82" />
    <line
       id="line4087"
       style="stroke-width: 1.0; stroke: #000000; fill: #000000; "
       y2="39"
       x2="431.34"
       y1="78.12"
       x1="431.34" />
    <polygon
       id="polygon4089"
       style="stroke-width: 1.0; stroke: #000000; fill: #000000; "
       points="428.28 65.88, 435.18 65.88, 431.34 79.62, 429.06 65.88" />
    <line
       id="line4091"
       style="stroke-width: 1.0; stroke: #000000; fill: #000000; "
       y2="38.94"
       x2="467.4"
       y1="78.06"
       x1="467.4" />
    <polygon
       id="polygon4093"
       style="stroke-width: 1.0; stroke: #000000; fill: #000000; "
       points="464.34 65.82, 471.24 65.82, 467.4 79.56, 465.12 65.82" />
    <line
       id="line4095"
       style="stroke-width: 1.0; stroke: #000000; fill: #000000; "
       y2="39"
       x2="504.24"
       y1="78.12"
       x1="504.24" />
    <polygon
       id="polygon4097"
       style="stroke-width: 1.0; stroke: #000000; fill: #000000; "
       points="501.18 65.88, 508.08 65.88, 504.24 79.62, 501.96 65.88" />
    <line
       id="line4099"
       style="stroke-width: 1.0; stroke: #000000; fill: #000000; "
       y2="38.94"
       x2="539.52"
       y1="78.06"
       x1="539.52" />
    <polygon
       id="polygon4101"
       style="stroke-width: 1.0; stroke: #000000; fill: #000000; "
       points="536.46 65.82, 543.36 65.82, 539.52 79.56, 537.24 65.82" />
    <polygon
       id="polygon4103"
       style="stroke-width: 1.0; stroke: #000000; fill: #000000; "
       points="216.66 65.88, 221.28 65.88, 216.66 78.12" />
    <polygon
       id="polygon4105"
       style="stroke-width: 1.0; stroke: #000000; fill: #000000; "
       points="574.56 66.6, 569.94 66.6, 574.56 78.84" />
    <text
       id="text4107"
       y="29.7"
       x="332.7">
25 kN/m
</text>
    <line
       id="line4109"
       style="stroke-width: 1.0; stroke: #000000; fill: #000000; "
       y2="447.84"
       x2="231.48"
       y1="447.84"
       x1="304.38" />
    <polygon
       id="polygon4111"
       style="stroke-width: 1.0; stroke: #000000; fill: #000000; "
       points="256.26 436.2, 228.6 447.84, 254.82 458.04, 254.82 434.76" />
    <text
       id="text4113"
       y="428.64"
       x="236.58">
40 kN
</text>
    <line
       id="line4115"
       style="stroke-width: 1.0; stroke: #000000; fill: #000000; "
       y2="234.78"
       x2="578.46"
       y1="307.62"
       x1="579.78" />
    <polygon
       id="polygon4117"
       style="stroke-width: 1.0; stroke: #000000; fill: #000000; "
       points="590.52 259.38, 578.4 231.9, 568.68 258.3, 591.9 257.88" />
    <line
       id="line4119"
       style="stroke-width: 1.0; stroke: #000000; fill: #000000; "
       y2="456.6"
       x2="217.92"
       y1="529.44"
       x1="219.24" />
    <polygon
       id="polygon4121"
       style="stroke-width: 1.0; stroke: #000000; fill: #000000; "
       points="229.98 481.2, 217.86 453.72, 208.14 480.12, 231.36 479.7" />
    <text
       id="text4125"
       y="305.64"
       x="593.82">
V
</text>
    <text
       id="text4129"
       y="319.14"
       x="614.16">
r
</text>
    <text
       id="text4123"
       y="512.35736"
       x="231.08453">V</text>
    <text
       id="text4127"
       y="519.34937"
       x="241.84386">l</text>
  </g>
</svg>
