<?xml version="1.0" encoding="UTF-8" standalone="no"?>
<!-- Created with Inkscape (http://www.inkscape.org/) -->

<svg
   xmlns:ns0="http://www.iki.fi/pav/software/textext/"
   xmlns:dc="http://purl.org/dc/elements/1.1/"
   xmlns:cc="http://creativecommons.org/ns#"
   xmlns:rdf="http://www.w3.org/1999/02/22-rdf-syntax-ns#"
   xmlns:svg="http://www.w3.org/2000/svg"
   xmlns="http://www.w3.org/2000/svg"
   xmlns:xlink="http://www.w3.org/1999/xlink"
   xmlns:sodipodi="http://sodipodi.sourceforge.net/DTD/sodipodi-0.dtd"
   xmlns:inkscape="http://www.inkscape.org/namespaces/inkscape"
   width="405"
   height="271.37537"
   id="svg2"
   version="1.1"
   inkscape:version="0.92.4 (unknown)"
   sodipodi:docname="frame1-3.svg">
  <sodipodi:namedview
     id="base"
     pagecolor="#ffffff"
     bordercolor="#666666"
     borderopacity="1.0"
     inkscape:pageopacity="0.0"
     inkscape:pageshadow="2"
     inkscape:zoom="2.02"
     inkscape:cx="162.1902"
     inkscape:cy="115.94765"
     inkscape:document-units="in"
     inkscape:current-layer="layer1"
     showgrid="true"
     units="in"
     inkscape:window-width="1179"
     inkscape:window-height="979"
     inkscape:window-x="104"
     inkscape:window-y="28"
     inkscape:window-maximized="0"
     showguides="true"
     fit-margin-top="0.1"
     fit-margin-right="0.1"
     fit-margin-left="0.1"
     fit-margin-bottom="0.1"
     inkscape:snap-grids="false">
    <inkscape:grid
       spacingy="9"
       spacingx="9"
       units="in"
       snapvisiblegridlinesonly="true"
       enabled="true"
       visible="true"
       empspacing="5"
       id="grid2985"
       type="xygrid"
       originx="0"
       originy="0" />
    <sodipodi:guide
       id="guide3042"
       orientation="0,765"
       position="-182.05044,-632.12256"
       inkscape:locked="false" />
    <sodipodi:guide
       id="guide3044"
       orientation="-990,0"
       position="582.94956,-632.12256"
       inkscape:locked="false" />
    <sodipodi:guide
       id="guide3046"
       orientation="0,-765"
       position="582.94956,357.87744"
       inkscape:locked="false" />
    <sodipodi:guide
       id="guide3048"
       orientation="990,0"
       position="-182.05044,357.87744"
       inkscape:locked="false" />
    <sodipodi:guide
       id="guide3050"
       orientation="0,765"
       position="537.94956,-587.12256"
       inkscape:locked="false" />
    <sodipodi:guide
       id="guide3052"
       orientation="-990,0"
       position="537.94956,267.87744"
       inkscape:locked="false" />
    <sodipodi:guide
       id="guide3054"
       orientation="0,-765"
       position="-119.05044,267.87744"
       inkscape:locked="false" />
    <sodipodi:guide
       id="guide3056"
       orientation="990,0"
       position="-92.05044,294.87744"
       inkscape:locked="false" />
  </sodipodi:namedview>
  <script
     id="script3033"
     xlink:href="" />
  <defs
     id="defs4">
    <marker
       style="overflow:visible"
       id="Arrow1Mend"
       refX="0"
       refY="0"
       orient="auto"
       inkscape:stockid="Arrow1Mend">
      <path
         inkscape:connector-curvature="0"
         transform="matrix(-0.4,0,0,-0.4,-4,0)"
         style="fill-rule:evenodd;stroke:#000000;stroke-width:1pt;marker-start:none"
         d="M 0,0 5,-5 -12.5,0 5,5 0,0 z"
         id="path3952" />
    </marker>
    <marker
       inkscape:stockid="DimensionTick"
       orient="auto"
       refY="0"
       refX="0"
       id="DimensionTick"
       style="overflow:visible">
      <path
         inkscape:connector-curvature="0"
         d="M 0,0 8,8"
         style="stroke:#000000;stroke-width:1pt;marker-start:none"
         transform="translate(-4,-4)"
         id="path3934" />
    </marker>
    <marker
       id="MLArrowEnd"
       markerUnits="userSpaceOnUse"
       markerWidth="10"
       markerHeight="6"
       orient="auto"
       viewBox="0 0 10 6"
       refX="2"
       refY="3">
      <path
         d="M 0,0 10,3 0,6 2,3 z"
         id="path3454"
         inkscape:connector-curvature="0" />
    </marker>
  </defs>
  <metadata
     id="metadata7">
    <rdf:RDF>
      <cc:Work
         rdf:about="">
        <dc:format>image/svg+xml</dc:format>
        <dc:type
           rdf:resource="http://purl.org/dc/dcmitype/StillImage" />
        <dc:title />
        <cc:license
           rdf:resource="http://creativecommons.org/licenses/by-nc/3.0/" />
      </cc:Work>
      <cc:License
         rdf:about="http://creativecommons.org/licenses/by-nc/3.0/">
        <cc:permits
           rdf:resource="http://creativecommons.org/ns#Reproduction" />
        <cc:permits
           rdf:resource="http://creativecommons.org/ns#Distribution" />
        <cc:requires
           rdf:resource="http://creativecommons.org/ns#Notice" />
        <cc:requires
           rdf:resource="http://creativecommons.org/ns#Attribution" />
        <cc:prohibits
           rdf:resource="http://creativecommons.org/ns#CommercialUse" />
        <cc:permits
           rdf:resource="http://creativecommons.org/ns#DerivativeWorks" />
      </cc:License>
    </rdf:RDF>
  </metadata>
  <g
     transform="translate(-182.05044,-148.86409)"
     id="layer1"
     inkscape:groupmode="layer"
     inkscape:label="Layer 1">
    <path
       style="fill:#cccccc;stroke:#000000;stroke-width:1;stroke-linecap:square;stroke-linejoin:miter;stroke-miterlimit:4;stroke-opacity:1;stroke-dasharray:none;stroke-dashoffset:0"
       d="m 252.47525,48.603089 45.0495,179.207921 -45.0495,-0.49505 z"
       id="path5774"
       inkscape:connector-curvature="0"
       transform="translate(182.05044,148.86409)" />
    <path
       sodipodi:nodetypes="ccc"
       transform="translate(0,62.362)"
       inkscape:connector-curvature="0"
       id="path3973"
       d="m 225,315 0,-180 135,0"
       style="fill:none;stroke:#000000;stroke-width:3;stroke-linecap:square;stroke-linejoin:miter;stroke-miterlimit:4;stroke-opacity:1;stroke-dasharray:none;stroke-dashoffset:0" />
    <text
       transform="translate(0,62.362)"
       id="text3112"
       y="149.87312"
       x="282.14261"
       style="font-style:normal;font-variant:normal;font-weight:normal;font-stretch:normal;line-height:0%;font-family:Verdana;-inkscape-font-specification:Sans;text-align:start;letter-spacing:0px;word-spacing:0px;writing-mode:lr-tb;text-anchor:start;fill:#000000;fill-opacity:1;stroke:none"
       xml:space="preserve"><tspan
         y="149.87312"
         x="282.14261"
         id="tspan3114"
         sodipodi:role="line"
         style="font-size:11px;line-height:1.25">2EI<tspan
   id="tspan3122"
   style="font-size:65.00091553%;baseline-shift:sub">0</tspan></tspan></text>
    <text
       transform="translate(0,62.362)"
       id="text3116"
       y="228.28497"
       x="231.0349"
       style="font-style:normal;font-variant:normal;font-weight:normal;font-stretch:normal;line-height:0%;font-family:Verdana;-inkscape-font-specification:Sans;text-align:start;letter-spacing:0px;word-spacing:0px;writing-mode:lr-tb;text-anchor:start;fill:#000000;fill-opacity:1;stroke:none"
       xml:space="preserve"><tspan
         y="228.28497"
         x="231.0349"
         id="tspan3118"
         sodipodi:role="line"
         style="font-size:11px;line-height:1.25">EI<tspan
   id="tspan3120"
   style="font-size:65.00091553%;baseline-shift:sub">0</tspan></tspan></text>
    <path
       inkscape:connector-curvature="0"
       id="path3124"
       d="m 387,377.362 -18,0"
       style="fill:none;stroke:#4d4d4d;stroke-width:0.75;stroke-linecap:square;stroke-linejoin:miter;stroke-miterlimit:4;stroke-opacity:1;stroke-dasharray:none;stroke-dashoffset:0" />
    <path
       inkscape:connector-curvature="0"
       id="path3126"
       d="m 387,197.362 -18,0"
       style="fill:none;stroke:#4d4d4d;stroke-width:0.75;stroke-linecap:square;stroke-linejoin:miter;stroke-miterlimit:4;stroke-opacity:1;stroke-dasharray:none;stroke-dashoffset:0" />
    <path
       inkscape:connector-curvature="0"
       id="path3128"
       d="m 378,197.362 0,180"
       style="fill:none;stroke:#4d4d4d;stroke-width:0.72000003;stroke-linecap:square;stroke-linejoin:miter;stroke-miterlimit:4;stroke-opacity:1;stroke-dasharray:none;stroke-dashoffset:0;marker-start:url(#DimensionTick);marker-end:url(#DimensionTick)" />
    <path
       transform="translate(0,62.362)"
       inkscape:connector-curvature="0"
       id="path3130"
       d="m 225,99 0,18"
       style="fill:none;stroke:#4d4d4d;stroke-width:0.75;stroke-linecap:square;stroke-linejoin:miter;stroke-miterlimit:4;stroke-opacity:1;stroke-dasharray:none;stroke-dashoffset:0" />
    <path
       transform="translate(0,62.362)"
       inkscape:connector-curvature="0"
       id="path3132"
       d="m 360,99 0,18"
       style="fill:none;stroke:#4d4d4d;stroke-width:0.75;stroke-linecap:square;stroke-linejoin:miter;stroke-miterlimit:4;stroke-opacity:1;stroke-dasharray:none;stroke-dashoffset:0" />
    <path
       transform="translate(0,62.362)"
       inkscape:connector-curvature="0"
       id="path3134"
       d="m 225,108 135,0"
       style="fill:none;stroke:#4d4d4d;stroke-width:0.72000003;stroke-linecap:square;stroke-linejoin:miter;stroke-miterlimit:4;stroke-opacity:1;stroke-dasharray:none;stroke-dashoffset:0;marker-start:url(#DimensionTick);marker-end:url(#DimensionTick)" />
    <path
       inkscape:connector-curvature="0"
       id="path4578"
       d="m 191.80044,197.362 27,0"
       style="fill:none;stroke:#000000;stroke-width:1.5;stroke-linecap:square;stroke-linejoin:miter;stroke-miterlimit:4;stroke-opacity:1;stroke-dasharray:none;stroke-dashoffset:0;marker-end:url(#Arrow1Mend)" />
    <text
       transform="translate(0,62.362)"
       id="text4772"
       y="128.86996"
       x="195.3295"
       style="font-style:normal;font-variant:normal;font-weight:normal;font-stretch:normal;line-height:0%;font-family:Verdana;-inkscape-font-specification:Sans;text-align:start;letter-spacing:0px;word-spacing:0px;writing-mode:lr-tb;text-anchor:start;fill:#000000;fill-opacity:1;stroke:none"
       xml:space="preserve"><tspan
         y="128.86996"
         x="195.3295"
         id="tspan4774"
         sodipodi:role="line"
         style="font-size:11px;line-height:1.25">P</tspan></text>
    <text
       transform="translate(0,62.362)"
       id="text4776"
       y="103.66615"
       x="287.74344"
       style="font-style:normal;font-variant:normal;font-weight:normal;font-stretch:normal;line-height:0%;font-family:Verdana;-inkscape-font-specification:Sans;text-align:start;letter-spacing:0px;word-spacing:0px;writing-mode:lr-tb;text-anchor:start;fill:#000000;fill-opacity:1;stroke:none"
       xml:space="preserve"><tspan
         y="103.66615"
         x="287.74344"
         id="tspan4778"
         sodipodi:role="line"
         style="font-size:11px;line-height:1.25">3L</tspan></text>
    <text
       transform="rotate(-90)"
       id="text4780"
       y="372.02896"
       x="-298.32458"
       style="font-style:normal;font-variant:normal;font-weight:normal;font-stretch:normal;line-height:0%;font-family:Verdana;-inkscape-font-specification:Sans;text-align:start;letter-spacing:0px;word-spacing:0px;writing-mode:lr-tb;text-anchor:start;fill:#000000;fill-opacity:1;stroke:none"
       xml:space="preserve"><tspan
         y="372.02896"
         x="-298.32458"
         id="tspan4782"
         sodipodi:role="line"
         style="font-size:11px;line-height:1.25">4L</tspan></text>
    <path
       style="fill:none;stroke:#000000;stroke-width:1.5;stroke-linecap:square;stroke-linejoin:miter;stroke-miterlimit:4;stroke-opacity:1;stroke-dasharray:none;stroke-dashoffset:0;marker-end:url(#Arrow1Mend)"
       d="m 258.17544,376.82881 -27,0"
       id="path4822"
       inkscape:connector-curvature="0" />
    <path
       inkscape:connector-curvature="0"
       id="path4824"
       d="m 224.95011,408.42859 0,-27"
       style="fill:none;stroke:#000000;stroke-width:1.5;stroke-linecap:square;stroke-linejoin:miter;stroke-miterlimit:4;stroke-opacity:1;stroke-dasharray:none;stroke-dashoffset:0;marker-end:url(#Arrow1Mend)" />
    <path
       id="path3645"
       d="m 206.67544,367.92859 a 18.75,18.75 0 0 0 37.5,0"
       class="mload"
       inkscape:connector-curvature="0"
       style="fill:none;stroke:#000000;stroke-width:1.25;marker-end:url(#MLArrowEnd);visibility:visible" />
    <text
       id="text5153"
       y="381.52679"
       x="261.16238"
       style="font-style:normal;font-variant:normal;font-weight:normal;font-stretch:normal;line-height:0%;font-family:Verdana;-inkscape-font-specification:Sans;text-align:start;letter-spacing:0px;word-spacing:0px;writing-mode:lr-tb;text-anchor:start;fill:#000000;fill-opacity:1;stroke:none"
       xml:space="preserve"><tspan
         y="381.52679"
         x="261.16238"
         id="tspan5155"
         sodipodi:role="line"
         style="font-size:11px;line-height:1.25">H<tspan
   id="tspan5169"
   style="font-size:65.00091553%;baseline-shift:sub">a0</tspan>=P</tspan></text>
    <text
       id="text5157"
       y="408.93121"
       x="227.65762"
       style="font-style:normal;font-variant:normal;font-weight:normal;font-stretch:normal;line-height:0%;font-family:Verdana;-inkscape-font-specification:Sans;text-align:start;letter-spacing:0px;word-spacing:0px;writing-mode:lr-tb;text-anchor:start;fill:#000000;fill-opacity:1;stroke:none"
       xml:space="preserve"><tspan
         y="408.93121"
         x="227.65762"
         id="tspan5159"
         sodipodi:role="line"
         style="font-size:11px;line-height:1.25">V<tspan
   id="tspan5171"
   style="font-size:65.00091553%;baseline-shift:sub">a0</tspan>=0</tspan></text>
    <text
       id="text5161"
       y="356.42331"
       x="239.45912"
       style="font-style:normal;font-variant:normal;font-weight:normal;font-stretch:normal;line-height:0%;font-family:Verdana;-inkscape-font-specification:Sans;text-align:start;letter-spacing:0px;word-spacing:0px;writing-mode:lr-tb;text-anchor:start;fill:#000000;fill-opacity:1;stroke:none"
       xml:space="preserve"><tspan
         y="356.42331"
         x="239.45912"
         id="tspan5163"
         sodipodi:role="line"
         style="font-size:11px;line-height:1.25">M<tspan
   id="tspan5167"
   style="font-size:65.00091553%;baseline-shift:sub">a0</tspan>=4PL</tspan></text>
    <text
       id="text5173"
       y="376.72638"
       x="216.35562"
       style="font-style:italic;font-variant:normal;font-weight:normal;font-stretch:normal;line-height:0%;font-family:Verdana;-inkscape-font-specification:'Sans Italic';text-align:start;letter-spacing:0px;word-spacing:0px;writing-mode:lr-tb;text-anchor:start;fill:#000000;fill-opacity:1;stroke:none"
       xml:space="preserve"><tspan
         y="376.72638"
         x="216.35562"
         id="tspan5175"
         sodipodi:role="line"
         style="font-size:9px;line-height:1.25">a</tspan></text>
    <text
       id="text5177"
       y="206.60068"
       x="229.15816"
       style="font-style:italic;font-variant:normal;font-weight:normal;font-stretch:normal;line-height:0%;font-family:Verdana;-inkscape-font-specification:'Sans Italic';text-align:start;letter-spacing:0px;word-spacing:0px;writing-mode:lr-tb;text-anchor:start;fill:#000000;fill-opacity:1;stroke:none"
       xml:space="preserve"><tspan
         y="206.60068"
         x="229.15816"
         id="tspan5179"
         sodipodi:role="line"
         style="font-size:9px;line-height:1.25">b</tspan></text>
    <text
       id="text5181"
       y="205.20047"
       x="351.3757"
       style="font-style:italic;font-variant:normal;font-weight:normal;font-stretch:normal;line-height:0%;font-family:Verdana;-inkscape-font-specification:'Sans Italic';text-align:start;letter-spacing:0px;word-spacing:0px;writing-mode:lr-tb;text-anchor:start;fill:#000000;fill-opacity:1;stroke:none"
       xml:space="preserve"><tspan
         y="205.20047"
         x="351.3757"
         id="tspan5183"
         sodipodi:role="line"
         style="font-size:9px;line-height:1.25">c</tspan></text>
    <text
       id="text5185"
       y="276.23947"
       x="308.05045"
       style="font-style:normal;font-variant:normal;font-weight:normal;font-stretch:normal;line-height:0%;font-family:Verdana;-inkscape-font-specification:Sans;text-align:center;letter-spacing:0px;word-spacing:0px;writing-mode:lr-tb;text-anchor:middle;fill:#000000;fill-opacity:1;stroke:none"
       xml:space="preserve"><tspan
         y="276.23947"
         x="308.05045"
         id="tspan5187"
         sodipodi:role="line"
         style="font-size:11px;line-height:1.25">Primary</tspan><tspan
         id="tspan5189"
         y="289.98947"
         x="308.05045"
         sodipodi:role="line"
         style="font-size:11px;line-height:1.25">Structure</tspan></text>
    <path
       style="fill:none;stroke:#800000;stroke-width:1;stroke-linecap:square;stroke-linejoin:miter;stroke-miterlimit:4;stroke-opacity:1;stroke-dasharray:1, 2;stroke-dashoffset:0"
       d="M 225,315 217,135 360,119"
       id="path5229"
       inkscape:connector-curvature="0"
       transform="translate(0,62.362)"
       sodipodi:nodetypes="ccc" />
    <path
       style="fill:none;stroke:#4d4d4d;stroke-width:0.75;stroke-linecap:square;stroke-linejoin:miter;stroke-miterlimit:4;stroke-opacity:1;stroke-dasharray:none;stroke-dashoffset:0"
       d="m 387,181.3818 -18,0"
       id="path5231"
       inkscape:connector-curvature="0" />
    <path
       sodipodi:nodetypes="cc"
       transform="translate(182.05044,148.86409)"
       inkscape:connector-curvature="0"
       id="path5233"
       d="m 196.0198,47.880316 0,-15.524752"
       style="fill:none;stroke:#4d4d4d;stroke-width:0.75;stroke-linecap:square;stroke-linejoin:miter;stroke-miterlimit:4;stroke-opacity:1;stroke-dasharray:none;stroke-dashoffset:0;marker-start:url(#DimensionTick);marker-end:url(#DimensionTick)" />
    <g
       ns0:preamble="/home/nholtz/work/share/config/inkscape/extensions/amspreamble.tex"
       ns0:text="\\[\n\\Delta_{10}\n\\]\n"
       word-spacing="normal"
       letter-spacing="normal"
       font-size-adjust="none"
       font-stretch="normal"
       font-weight="normal"
       font-variant="normal"
       font-style="normal"
       stroke-miterlimit="10.433"
       xml:space="preserve"
       transform="matrix(1.1,0,0,-1.1,221.88684,963.92876)"
       id="content"
       style="font-style:normal;font-variant:normal;font-weight:normal;font-stretch:normal;letter-spacing:normal;word-spacing:normal;text-anchor:start;fill:none;stroke:#000000;stroke-linecap:butt;stroke-linejoin:miter;stroke-miterlimit:10.43299961;stroke-opacity:1;stroke-dasharray:none;stroke-dashoffset:0">
<path
   id="path5685"
   d="m 157.88,708.75 0,0.01 -0.01,0.01 -0.01,0.02 0,0.01 -0.01,0.01 0,0.01 -0.01,0.01 -0.01,0.01 0,0.01 -0.01,0.01 0,0 -0.01,0.01 -0.01,0.01 0,0.01 -0.01,0 -0.01,0.01 0,0 -0.01,0.01 -0.01,0 -0.01,0.01 -0.01,0 -0.01,0.01 -0.01,0 -0.01,0 -0.01,0.01 -0.01,0 -0.01,0 -0.02,0 -0.01,0 -0.02,0 -0.01,0 -0.02,0 c -0.19,0 -0.21,-0.05 -0.28,-0.19 l -0.07,-0.9 2.93,-5.87 h -5.87 l 2.94,5.87 0.07,0.9 -3.68,-7.38 c -0.06,-0.1 -0.06,-0.12 -0.06,-0.14 0,-0.08 0.07,-0.08 0.24,-0.08 h 7.56 c 0.17,0 0.24,0 0.24,0.08 0,0.02 0,0.04 -0.06,0.14 z"
   inkscape:connector-curvature="0"
   style="fill:#000000;stroke-width:0" />
<path
   id="path5687"
   d="m 164.66,704.57 0,0.01 0,0.01 0,0.01 0,0.01 0,0.01 0,0.01 0,0.01 0,0 0,0.01 0,0.01 0,0.01 0,0 0,0.01 0,0.01 0,0 0,0.01 -0.01,0 0,0.01 0,0 0,0.01 0,0.01 -0.01,0.01 0,0.01 0,0 -0.01,0.01 0,0.01 -0.01,0 -0.01,0 0,0.01 -0.01,0 -0.01,0.01 -0.01,0 -0.01,0 -0.01,0 -0.01,0 -0.01,0 0,0 -0.01,0 -0.01,0 0,0 -0.01,0 -0.01,0.01 -0.01,0 0,0 -0.01,0 -0.01,0 -0.01,0 -0.01,0 -0.01,0 -0.01,0 c -0.33,-0.32 -0.75,-0.51 -1.5,-0.51 v -0.26 c 0.21,0 0.64,0 1.1,0.21 v -4.08 c 0,-0.29 -0.02,-0.39 -0.78,-0.39 h -0.28 v -0.26 c 0.33,0.02 1.02,0.02 1.37,0.02 0.36,0 1.05,0 1.38,-0.02 v 0.26 h -0.28 c -0.76,0 -0.78,0.1 -0.78,0.39 z"
   inkscape:connector-curvature="0"
   style="fill:#000000;stroke-width:0" />
<path
   id="path5689"
   d="m 170.29,702.05 0,0.07 0,0.08 0,0.08 -0.01,0.07 0,0.07 0,0.07 0,0.07 -0.01,0.07 0,0.06 -0.01,0.07 -0.01,0.06 0,0.06 -0.02,0.12 -0.02,0.11 -0.02,0.11 -0.03,0.11 -0.02,0.1 -0.04,0.1 -0.03,0.1 -0.04,0.1 -0.04,0.1 -0.05,0.09 c -0.35,0.7 -1,0.88 -1.43,0.88 v -0.23 c 0.27,0 0.82,-0.13 0.98,-0.85 0.09,-0.44 0.09,-1.04 0.09,-1.58 0,-0.47 0,-1.18 -0.09,-1.63 -0.17,-0.83 -0.72,-0.94 -0.98,-0.94 h 0 c -0.27,0 -0.82,0.12 -0.99,0.96 -0.09,0.45 -0.09,1.2 -0.09,1.61 0,0.55 0,1.11 0.09,1.54 0.17,0.81 0.79,0.89 0.99,0.89 v 0.23 c -1.01,0 -1.37,-0.75 -1.49,-0.97 -0.28,-0.58 -0.3,-1.37 -0.3,-1.78 0,-0.53 0.03,-1.33 0.41,-1.97 0.36,-0.59 0.95,-0.74 1.38,-0.74 0.38,0 1.06,0.12 1.46,0.91 0.29,0.57 0.32,1.28 0.32,1.8 z"
   inkscape:connector-curvature="0"
   style="fill:#000000;stroke-width:0" />
</g>    <path
       style="fill:none;stroke:#000000;stroke-width:1;stroke-linecap:square;stroke-linejoin:miter;stroke-miterlimit:4;stroke-opacity:1;stroke-dasharray:none;stroke-dashoffset:0"
       d="m 435,377.362 0,-180 135,0"
       id="path5772"
       inkscape:connector-curvature="0"
       sodipodi:nodetypes="ccc" />
    <text
       xml:space="preserve"
       style="font-style:normal;font-variant:normal;font-weight:normal;font-stretch:normal;line-height:0%;font-family:Verdana;-inkscape-font-specification:Sans;text-align:start;letter-spacing:0px;word-spacing:0px;writing-mode:lr-tb;text-anchor:start;fill:#000000;fill-opacity:1;stroke:none"
       x="321.78217"
       y="123.35556"
       id="text5776"
       transform="translate(182.05044,148.86409)"><tspan
         sodipodi:role="line"
         id="tspan5778"
         x="321.78217"
         y="123.35556"
         style="font-size:11px;line-height:1.25">M</tspan></text>
    <text
       xml:space="preserve"
       style="font-style:normal;font-variant:normal;font-weight:normal;font-stretch:normal;line-height:0%;font-family:Verdana;-inkscape-font-specification:Sans;text-align:start;letter-spacing:0px;word-spacing:0px;writing-mode:lr-tb;text-anchor:start;fill:#000000;fill-opacity:1;stroke:none"
       x="302.97031"
       y="229.79121"
       id="text5780"
       transform="translate(182.05044,148.86409)"><tspan
         sodipodi:role="line"
         id="tspan5782"
         x="302.97031"
         y="229.79121"
         style="font-size:11px;line-height:1.25">4PL</tspan></text>
    <path
       style="fill:#cccccc;fill-opacity:1;fill-rule:nonzero;stroke:#000000;stroke-width:1;stroke-linecap:square;stroke-linejoin:miter;stroke-miterlimit:4;stroke-opacity:1;stroke-dasharray:none;stroke-dashoffset:0"
       d="m 455.31844,338.55629 c 0,0 -3.54539,5.84918 -3.46534,8.91089 0.08,3.06171 3.96039,8.91089 3.96039,8.91089"
       id="path6003"
       inkscape:connector-curvature="0"
       sodipodi:nodetypes="czc" />
  </g>
</svg>
