<?xml version="1.0" encoding="UTF-8" standalone="no"?>
<!-- Created with Inkscape (http://www.inkscape.org/) -->

<svg
   xmlns:ns0="http://www.iki.fi/pav/software/textext/"
   xmlns:dc="http://purl.org/dc/elements/1.1/"
   xmlns:cc="http://creativecommons.org/ns#"
   xmlns:rdf="http://www.w3.org/1999/02/22-rdf-syntax-ns#"
   xmlns:svg="http://www.w3.org/2000/svg"
   xmlns="http://www.w3.org/2000/svg"
   xmlns:xlink="http://www.w3.org/1999/xlink"
   xmlns:sodipodi="http://sodipodi.sourceforge.net/DTD/sodipodi-0.dtd"
   xmlns:inkscape="http://www.inkscape.org/namespaces/inkscape"
   width="405"
   height="122.4091"
   id="svg2"
   version="1.1"
   inkscape:version="0.92.4 (unknown)"
   sodipodi:docname="frame1-6.svg">
  <sodipodi:namedview
     id="base"
     pagecolor="#ffffff"
     bordercolor="#666666"
     borderopacity="1.0"
     inkscape:pageopacity="0.0"
     inkscape:pageshadow="2"
     inkscape:zoom="2.02"
     inkscape:cx="143.51056"
     inkscape:cy="16.467144"
     inkscape:document-units="in"
     inkscape:current-layer="layer1"
     showgrid="true"
     units="in"
     inkscape:window-width="1179"
     inkscape:window-height="979"
     inkscape:window-x="737"
     inkscape:window-y="94"
     inkscape:window-maximized="0"
     showguides="true"
     fit-margin-top="0.1"
     fit-margin-right="0.1"
     fit-margin-left="0.1"
     fit-margin-bottom="0.1"
     inkscape:snap-grids="true">
    <inkscape:grid
       spacingy="9"
       spacingx="9"
       units="in"
       snapvisiblegridlinesonly="true"
       enabled="true"
       visible="true"
       empspacing="5"
       id="grid2985"
       type="xygrid"
       originx="0"
       originy="0" />
    <sodipodi:guide
       id="guide3042"
       orientation="0,765"
       position="-200.73008,-759.07832"
       inkscape:locked="false" />
    <sodipodi:guide
       id="guide3044"
       orientation="-990,0"
       position="564.26992,-759.07832"
       inkscape:locked="false" />
    <sodipodi:guide
       id="guide3046"
       orientation="0,-765"
       position="564.26992,230.92168"
       inkscape:locked="false" />
    <sodipodi:guide
       id="guide3048"
       orientation="990,0"
       position="-200.73008,230.92168"
       inkscape:locked="false" />
    <sodipodi:guide
       id="guide3050"
       orientation="0,765"
       position="519.26992,-714.07832"
       inkscape:locked="false" />
    <sodipodi:guide
       id="guide3052"
       orientation="-990,0"
       position="519.26992,140.92168"
       inkscape:locked="false" />
    <sodipodi:guide
       id="guide3054"
       orientation="0,-765"
       position="-137.73008,140.92168"
       inkscape:locked="false" />
    <sodipodi:guide
       id="guide3056"
       orientation="990,0"
       position="-117,81"
       inkscape:locked="false" />
  </sodipodi:namedview>
  <script
     id="script3033"
     xlink:href="" />
  <defs
     id="defs4">
    <marker
       style="overflow:visible"
       id="Arrow1Mend"
       refX="0"
       refY="0"
       orient="auto"
       inkscape:stockid="Arrow1Mend">
      <path
         inkscape:connector-curvature="0"
         transform="matrix(-0.4,0,0,-0.4,-4,0)"
         style="fill-rule:evenodd;stroke:#000000;stroke-width:1pt;marker-start:none"
         d="M 0,0 5,-5 -12.5,0 5,5 0,0 z"
         id="path3952" />
    </marker>
    <marker
       inkscape:stockid="DimensionTick"
       orient="auto"
       refY="0"
       refX="0"
       id="DimensionTick"
       style="overflow:visible">
      <path
         inkscape:connector-curvature="0"
         d="M 0,0 8,8"
         style="stroke:#000000;stroke-width:1pt;marker-start:none"
         transform="translate(-4,-4)"
         id="path3934" />
    </marker>
    <marker
       id="MLArrowEnd"
       markerUnits="userSpaceOnUse"
       markerWidth="10"
       markerHeight="6"
       orient="auto"
       viewBox="0 0 10 6"
       refX="2"
       refY="3">
      <path
         d="M 0,0 10,3 0,6 2,3 z"
         id="path3454"
         inkscape:connector-curvature="0" />
    </marker>
  </defs>
  <metadata
     id="metadata7">
    <rdf:RDF>
      <cc:Work
         rdf:about="">
        <dc:format>image/svg+xml</dc:format>
        <dc:type
           rdf:resource="http://purl.org/dc/dcmitype/StillImage" />
        <dc:title />
        <cc:license
           rdf:resource="http://creativecommons.org/licenses/by-nc/3.0/" />
      </cc:Work>
      <cc:License
         rdf:about="http://creativecommons.org/licenses/by-nc/3.0/">
        <cc:permits
           rdf:resource="http://creativecommons.org/ns#Reproduction" />
        <cc:permits
           rdf:resource="http://creativecommons.org/ns#Distribution" />
        <cc:requires
           rdf:resource="http://creativecommons.org/ns#Notice" />
        <cc:requires
           rdf:resource="http://creativecommons.org/ns#Attribution" />
        <cc:prohibits
           rdf:resource="http://creativecommons.org/ns#CommercialUse" />
        <cc:permits
           rdf:resource="http://creativecommons.org/ns#DerivativeWorks" />
      </cc:License>
    </rdf:RDF>
  </metadata>
  <g
     transform="translate(-200.73008,-170.8746)"
     id="layer1"
     inkscape:groupmode="layer"
     inkscape:label="Layer 1">
    <g
       ns0:preamble="/home/nholtz/work/share/config/inkscape/extensions/amspreamble.tex"
       ns0:text="\\[\n\\int{}\n\\]\n"
       word-spacing="normal"
       letter-spacing="normal"
       font-size-adjust="none"
       font-stretch="normal"
       font-weight="normal"
       font-variant="normal"
       font-style="normal"
       stroke-miterlimit="10.433"
       xml:space="preserve"
       transform="matrix(1.5,0,0,-1.5,35.148514,1248.0396)"
       id="content"
       style="font-style:normal;font-variant:normal;font-weight:normal;font-stretch:normal;letter-spacing:normal;word-spacing:normal;text-anchor:start;fill:none;stroke:#000000;stroke-linecap:butt;stroke-linejoin:miter;stroke-miterlimit:10.43299961;stroke-opacity:1;stroke-dasharray:none;stroke-dashoffset:0">
<path
   id="path3419"
   d="m 154.2,688.4 0.04,0 0.03,0.01 0.03,0 0.03,0.01 0.02,0.01 0.03,0.01 0.03,0.01 0.02,0.01 0.03,0.01 0.02,0.01 0.02,0.01 0.03,0.02 0.02,0.01 0.02,0.02 0.01,0.02 0.02,0.01 0.02,0.02 0.01,0.02 0.02,0.02 0.01,0.02 0.01,0.02 0.01,0.03 0.01,0.02 0.01,0.02 0.01,0.02 0.01,0.03 0,0.02 0.01,0.02 0,0.03 0,0.02 0.01,0.03 0,0.02 c 0,0.36 -0.28,0.54 -0.53,0.54 -0.26,0 -0.53,-0.17 -0.53,-0.55 0,-0.55 0.55,-1.01 1.21,-1.01 1.65,0 2.27,2.55 3.05,5.71 0.84,3.44 1.54,6.91 2.13,10.41 0.41,2.32 0.81,4.49 1.18,5.9 0.13,0.53 0.5,1.94 0.92,1.94 0.34,0 0.61,-0.21 0.66,-0.25 -0.36,-0.03 -0.55,-0.27 -0.55,-0.54 0,-0.36 0.27,-0.53 0.52,-0.53 0.27,0 0.54,0.16 0.54,0.54 0,0.59 -0.59,1.02 -1.19,1.02 -0.83,0 -1.44,-1.19 -2.03,-3.41 -0.04,-0.12 -1.52,-5.59 -2.72,-12.71 -0.28,-1.66 -0.59,-3.48 -0.95,-5 -0.2,-0.79 -0.7,-2.84 -1.58,-2.84 -0.39,0 -0.66,0.25 -0.67,0.25 z"
   inkscape:connector-curvature="0"
   style="fill:#000000;stroke-width:0" />
</g>    <g
       id="g3728">
      <rect
         style="fill:#e6e6e6;stroke:#000000;stroke-width:1;stroke-linecap:square;stroke-linejoin:miter;stroke-miterlimit:4;stroke-opacity:1;stroke-dasharray:none;stroke-dashoffset:0"
         id="rect3689"
         width="27.227722"
         height="8.9108915"
         x="281.06033"
         y="195.48698" />
      <text
         xml:space="preserve"
         style="font-style:normal;font-variant:normal;font-weight:normal;font-stretch:normal;line-height:0%;font-family:Verdana;-inkscape-font-specification:Sans;text-align:start;letter-spacing:0px;word-spacing:0px;writing-mode:lr-tb;text-anchor:start;fill:#000000;fill-opacity:1;stroke:none"
         x="289.97122"
         y="212.81372"
         id="text3693"><tspan
           sodipodi:role="line"
           id="tspan3695"
           x="289.97122"
           y="212.81372"
           style="font-size:9px;line-height:1.25">4L</tspan></text>
      <text
         xml:space="preserve"
         style="font-style:normal;font-variant:normal;font-weight:normal;font-stretch:normal;line-height:0%;font-family:Verdana;-inkscape-font-specification:Sans;text-align:start;letter-spacing:0px;word-spacing:0px;writing-mode:lr-tb;text-anchor:start;fill:#000000;fill-opacity:1;stroke:none"
         x="306.26825"
         y="194.02162"
         id="text3701"><tspan
           sodipodi:role="line"
           id="tspan3703"
           x="306.26825"
           y="194.02162"
           style="font-size:9px;line-height:1.25">3L</tspan></text>
    </g>
    <g
       id="g4314"
       transform="matrix(1.1,0,0,-1.1,40.792079,968.51489)"
       xml:space="preserve"
       stroke-miterlimit="10.433"
       font-style="normal"
       font-variant="normal"
       font-weight="normal"
       font-stretch="normal"
       font-size-adjust="none"
       letter-spacing="normal"
       word-spacing="normal"
       ns0:text="\\[\nf_{11} = \\frac{1}{EI_0}\n\\]\n"
       ns0:preamble="/home/nholtz/work/share/config/inkscape/extensions/amspreamble.tex"
       style="font-style:normal;font-variant:normal;font-weight:normal;font-stretch:normal;letter-spacing:normal;word-spacing:normal;text-anchor:start;fill:none;stroke:#000000;stroke-linecap:butt;stroke-linejoin:miter;stroke-miterlimit:10.43299961;stroke-opacity:1;stroke-dasharray:none;stroke-dashoffset:0">
<path
   d="M 157.07,702.05 H 158 c 0.22,0 0.33,0 0.33,0.22 0,0.12 -0.11,0.12 -0.29,0.12 h -0.91 l 0.23,1.24 c 0.04,0.23 0.2,1 0.26,1.13 0.1,0.21 0.28,0.37 0.51,0.37 0.05,0 0.33,0 0.54,-0.19 -0.48,-0.05 -0.59,-0.43 -0.59,-0.59 0,-0.25 0.2,-0.38 0.4,-0.38 0.29,0 0.6,0.24 0.6,0.65 0,0.5 -0.5,0.75 -0.95,0.75 -0.37,0 -1.05,-0.19 -1.38,-1.27 -0.06,-0.23 -0.1,-0.34 -0.36,-1.71 h -0.75 c -0.21,0 -0.33,0 -0.33,-0.21 0,-0.13 0.1,-0.13 0.31,-0.13 h 0.72 l -0.82,-4.3 c -0.2,-1.06 -0.38,-2.05 -0.95,-2.05 -0.04,0 -0.31,0 -0.52,0.2 0.5,0.03 0.6,0.42 0.6,0.59 0,0.25 -0.2,0.38 -0.4,0.38 -0.29,0 -0.6,-0.24 -0.6,-0.65 0,-0.5 0.48,-0.76 0.92,-0.76 0.6,0 1.04,0.65 1.23,1.06 0.35,0.69 0.6,2 0.61,2.08 z"
   id="path4316"
   inkscape:connector-curvature="0"
   style="fill:#000000;stroke-width:0" />
<path
   d="m 160.91,701.12 0,0.01 0,0.01 0,0.01 0,0.01 0,0.01 0,0.01 0,0.01 0,0 0,0.01 0,0.01 0,0.01 0,0 0,0.01 0,0.01 0,0 0,0.01 -0.01,0 0,0.01 0,0 0,0.01 0,0.01 -0.01,0.01 0,0 0,0.01 -0.01,0.01 0,0 -0.01,0.01 -0.01,0 0,0.01 -0.01,0 -0.01,0 -0.01,0.01 -0.01,0 -0.01,0 -0.01,0 -0.01,0 0,0 -0.01,0 -0.01,0 0,0 -0.01,0 -0.01,0 -0.01,0 0,0 -0.01,0 -0.01,0 -0.01,0 -0.01,0 -0.01,0 -0.01,0 c -0.33,-0.31 -0.75,-0.5 -1.5,-0.5 v -0.27 c 0.21,0 0.64,0 1.1,0.22 v -4.08 c 0,-0.29 -0.02,-0.39 -0.78,-0.39 h -0.28 v -0.26 c 0.33,0.02 1.02,0.02 1.37,0.02 0.36,0 1.05,0 1.38,-0.02 v 0.26 h -0.28 c -0.76,0 -0.78,0.1 -0.78,0.39 z"
   id="path4318"
   inkscape:connector-curvature="0"
   style="fill:#000000;stroke-width:0" />
<path
   d="m 165.15,701.12 0,0.01 0,0.01 0,0.01 0,0.01 0,0.01 0,0.01 0,0.01 -0.01,0 0,0.01 0,0.01 0,0.01 0,0 0,0.01 0,0.01 0,0 0,0.01 0,0 0,0.01 0,0 0,0.01 -0.01,0.01 0,0.01 0,0 -0.01,0.01 0,0.01 -0.01,0 0,0.01 -0.01,0 -0.01,0.01 -0.01,0 -0.01,0 -0.01,0.01 -0.01,0 -0.01,0 0,0 -0.01,0 -0.01,0 0,0 -0.01,0 -0.01,0 -0.01,0 0,0 -0.01,0 -0.01,0 -0.01,0 -0.01,0 -0.01,0 -0.01,0 -0.01,0 -0.01,0 c -0.32,-0.31 -0.74,-0.5 -1.5,-0.5 v -0.27 c 0.22,0 0.64,0 1.11,0.22 v -4.08 c 0,-0.29 -0.03,-0.39 -0.78,-0.39 h -0.28 v -0.26 c 0.33,0.02 1.01,0.02 1.37,0.02 0.36,0 1.05,0 1.37,-0.02 v 0.26 h -0.27 c -0.76,0 -0.78,0.1 -0.78,0.39 z"
   id="path4320"
   inkscape:connector-curvature="0"
   style="fill:#000000;stroke-width:0" />
<path
   d="m 177.89,701.26 0.03,0 0.03,0 0.03,0 0.02,0 0.02,0 0.01,0 0.02,0 0.01,0 0.02,0.01 0.01,0 0.02,0 0.01,0.01 0.02,0 0.01,0.01 0.01,0 0.01,0.01 0.02,0.01 0.01,0.01 0.01,0.01 0.01,0.01 0.01,0.01 0,0 0,0.01 0.01,0.01 0,0 0,0.01 0.01,0.01 0,0 0,0.01 0,0.01 0,0.01 0.01,0.01 0,0.01 0,0 0,0.01 0,0.01 0,0.01 c 0,0.22 -0.21,0.22 -0.36,0.22 h -6.52 c -0.15,0 -0.36,0 -0.36,-0.22 0,-0.21 0.21,-0.21 0.37,-0.21 z"
   id="path4322"
   inkscape:connector-curvature="0"
   style="fill:#000000;stroke-width:0" />
<path
   d="m 177.9,699.14 0.01,0 0.02,0 0.03,0 0.03,0.01 0.02,0 0.01,0 0.02,0 0.01,0 0.02,0 0.01,0.01 0.02,0 0.01,0 0.01,0.01 0.02,0 0.01,0.01 0.01,0 0.02,0.01 0.01,0.01 0.01,0.01 0.01,0 0.01,0.01 0,0.01 0.01,0.01 0,0 0,0.01 0.01,0 0,0.01 0,0.01 0.01,0 0,0.01 0,0.01 0,0.01 0,0.01 0.01,0 0,0.01 0,0.01 0,0.01 0,0.01 0,0.01 c 0,0.22 -0.21,0.22 -0.37,0.22 h -6.5 c -0.16,0 -0.37,0 -0.37,-0.22 0,-0.22 0.21,-0.22 0.36,-0.22 z"
   id="path4324"
   inkscape:connector-curvature="0"
   style="fill:#000000;stroke-width:0" />
<path
   d="m 192.7,712.04 0,0.02 0,0.01 0,0.01 0,0.01 0,0.01 0,0.01 0,0.01 0,0.01 0,0.01 0,0.01 0,0.01 0,0.01 0,0.01 0,0 -0.01,0.01 0,0.01 0,0.01 0,0 0,0.02 0,0.01 -0.01,0.01 0,0.01 0,0.01 -0.01,0.01 0,0 -0.01,0.01 -0.01,0.01 0,0 -0.01,0.01 -0.01,0 -0.01,0 0,0 -0.01,0.01 0,0 -0.01,0 -0.01,0 0,0 -0.01,0 -0.01,0 -0.01,0 0,0 -0.01,0.01 -0.01,0 -0.01,0 -0.01,0 -0.01,0 -0.01,0 -0.01,0 -0.01,0 -0.01,0 -0.01,0 -0.01,0 c -0.68,-0.7 -1.63,-0.7 -1.98,-0.7 v -0.34 c 0.21,0 0.86,0 1.42,0.29 v -5.64 c 0,-0.4 -0.03,-0.53 -1.01,-0.53 h -0.35 v -0.33 c 0.38,0.03 1.33,0.03 1.76,0.03 0.44,0 1.39,0 1.77,-0.03 v 0.33 h -0.35 c -0.98,0 -1.01,0.12 -1.01,0.53 z"
   id="path4326"
   inkscape:connector-curvature="0"
   style="fill:#000000;stroke-width:0" />
<line
   x1="183.12"
   y1="700.41998"
   x2="201.33"
   y2="700.41998"
   id="line4328"
   style="stroke-width:0.43599999" />
<path
   d="m 190.83,692.75 0,0.01 0,0 0.01,0.01 0,0.01 0.01,0.01 0,0.02 0.01,0.01 0,0.01 0,0.01 0.01,0 0,0.01 0,0 0,0.01 0,0 0,0.01 0.01,0 0,0.01 0,0 0,0 0,0.01 0,0 0,0 0,0.01 0,0 0,0 c 0,0.01 0,0.12 -0.13,0.12 -0.1,0 -0.12,-0.06 -0.14,-0.13 -0.71,-1.61 -1.11,-2.34 -2.97,-2.34 h -1.59 c -0.15,0 -0.18,0 -0.24,0.01 -0.11,0.01 -0.14,0.02 -0.14,0.11 0,0.03 0,0.05 0.05,0.25 l 0.74,2.97 h 1.08 c 0.92,0 0.92,-0.23 0.92,-0.5 0,-0.07 0,-0.2 -0.07,-0.53 -0.02,-0.06 -0.03,-0.09 -0.03,-0.12 0,-0.06 0.04,-0.12 0.14,-0.12 0.09,0 0.12,0.05 0.16,0.22 l 0.62,2.55 c 0,0.06 -0.05,0.12 -0.13,0.12 -0.1,0 -0.12,-0.07 -0.15,-0.2 -0.23,-0.83 -0.43,-1.08 -1.43,-1.08 h -1.02 l 0.65,2.62 c 0.1,0.39 0.11,0.43 0.59,0.43 h 1.54 c 1.32,0 1.65,-0.32 1.65,-1.21 0,-0.26 0,-0.28 -0.04,-0.58 0,-0.06 -0.01,-0.14 -0.01,-0.19 0,-0.06 0.03,-0.13 0.13,-0.13 0.12,0 0.13,0.06 0.15,0.27 l 0.22,1.88 c 0.03,0.3 -0.03,0.3 -0.3,0.3 h -5.5 c -0.21,0 -0.32,0 -0.32,-0.22 0,-0.12 0.1,-0.12 0.3,-0.12 0.4,0 0.71,0 0.71,-0.2 0,-0.04 0,-0.06 -0.05,-0.26 l -1.44,-5.76 c -0.11,-0.42 -0.13,-0.51 -0.99,-0.51 -0.19,0 -0.31,0 -0.31,-0.21 0,-0.13 0.1,-0.13 0.31,-0.13 h 5.65 c 0.25,0 0.26,0.01 0.34,0.19 z"
   id="path4330"
   inkscape:connector-curvature="0"
   style="fill:#000000;stroke-width:0" />
<path
   d="m 195.88,696.81 0.01,0.04 0,0.03 0.01,0.03 0.01,0.04 0.01,0.02 0.01,0.03 0.01,0.03 0.01,0.02 0.01,0.03 0.02,0.02 0.01,0.02 0.02,0.02 0.01,0.02 0.02,0.02 0.02,0.01 0.03,0.02 0.02,0.01 0.03,0.01 0.03,0.02 0.03,0.01 0.04,0.01 0.02,0 0.02,0 0.02,0.01 0.02,0 0.02,0.01 0.02,0 0.03,0 0.02,0 0.03,0.01 0.03,0 0.02,0 0.03,0 0.03,0.01 0.03,0 0.03,0 0.04,0 0.03,0 0.04,0 0.03,0 0.04,0 0.04,0 0.04,0 c 0.26,0 0.35,0 0.35,0.21 0,0.13 -0.12,0.13 -0.17,0.13 -0.31,0 -1.12,-0.03 -1.43,-0.03 -0.33,0 -1.13,0.03 -1.45,0.03 -0.08,0 -0.22,0 -0.22,-0.22 0,-0.12 0.1,-0.12 0.31,-0.12 0.45,0 0.75,0 0.75,-0.2 0,-0.06 0,-0.08 -0.03,-0.18 l -1.47,-5.87 c -0.09,-0.4 -0.13,-0.51 -0.99,-0.51 -0.25,0 -0.34,0 -0.34,-0.22 0,-0.12 0.13,-0.12 0.16,-0.12 0.31,0 1.11,0.04 1.42,0.04 0.33,0 1.14,-0.04 1.46,-0.04 0.09,0 0.22,0 0.22,0.21 0,0.13 -0.09,0.13 -0.32,0.13 -0.2,0 -0.26,0 -0.47,0.02 -0.23,0.02 -0.27,0.07 -0.27,0.19 0,0.08 0.02,0.17 0.04,0.25 z"
   id="path4332"
   inkscape:connector-curvature="0"
   style="fill:#000000;stroke-width:0" />
<path
   d="m 200.49,691.11 0,0.08 0,0.08 0,0.07 -0.01,0.08 0,0.07 0,0.07 0,0.07 -0.01,0.06 0,0.07 -0.01,0.06 -0.01,0.06 0,0.06 -0.02,0.12 -0.02,0.12 -0.02,0.11 -0.02,0.1 -0.03,0.11 -0.04,0.1 -0.03,0.1 -0.04,0.1 -0.04,0.09 -0.05,0.1 c -0.35,0.7 -1,0.87 -1.43,0.87 v -0.22 c 0.27,0 0.82,-0.14 0.97,-0.86 0.1,-0.44 0.1,-1.03 0.1,-1.57 0,-0.47 0,-1.19 -0.1,-1.63 -0.16,-0.84 -0.71,-0.95 -0.97,-0.95 h 0 c -0.27,0 -0.82,0.13 -0.99,0.96 -0.09,0.46 -0.09,1.2 -0.09,1.62 0,0.55 0,1.1 0.09,1.54 0.17,0.81 0.79,0.89 0.99,0.89 v 0.22 c -1.01,0 -1.37,-0.75 -1.48,-0.97 -0.29,-0.58 -0.31,-1.36 -0.31,-1.78 0,-0.52 0.03,-1.33 0.41,-1.96 0.37,-0.59 0.95,-0.74 1.38,-0.74 0.38,0 1.06,0.12 1.46,0.91 0.29,0.57 0.32,1.27 0.32,1.79 z"
   id="path4334"
   inkscape:connector-curvature="0"
   style="fill:#000000;stroke-width:0" />
</g>    <g
       transform="translate(38,0)"
       id="g4414">
      <rect
         y="195.48698"
         x="281.06033"
         height="8.9108915"
         width="27.227722"
         id="rect4416"
         style="fill:#e6e6e6;stroke:#000000;stroke-width:1;stroke-linecap:square;stroke-linejoin:miter;stroke-miterlimit:4;stroke-opacity:1;stroke-dasharray:none;stroke-dashoffset:0" />
      <text
         id="text4418"
         y="212.81372"
         x="289.97122"
         style="font-style:normal;font-variant:normal;font-weight:normal;font-stretch:normal;line-height:0%;font-family:Verdana;-inkscape-font-specification:Sans;text-align:start;letter-spacing:0px;word-spacing:0px;writing-mode:lr-tb;text-anchor:start;fill:#000000;fill-opacity:1;stroke:none"
         xml:space="preserve"><tspan
           y="212.81372"
           x="289.97122"
           id="tspan4420"
           sodipodi:role="line"
           style="font-size:9px;line-height:1.25">4L</tspan></text>
      <text
         id="text4422"
         y="194.02162"
         x="306.26825"
         style="font-style:normal;font-variant:normal;font-weight:normal;font-stretch:normal;line-height:0%;font-family:Verdana;-inkscape-font-specification:Sans;text-align:start;letter-spacing:0px;word-spacing:0px;writing-mode:lr-tb;text-anchor:start;fill:#000000;fill-opacity:1;stroke:none"
         xml:space="preserve"><tspan
           y="194.02162"
           x="306.26825"
           id="tspan4424"
           sodipodi:role="line"
           style="font-size:9px;line-height:1.25">3L</tspan></text>
    </g>
    <g
       style="font-style:normal;font-variant:normal;font-weight:normal;font-stretch:normal;letter-spacing:normal;word-spacing:normal;text-anchor:start;fill:none;stroke:#000000;stroke-linecap:butt;stroke-linejoin:miter;stroke-miterlimit:10.43299961;stroke-opacity:1;stroke-dasharray:none;stroke-dashoffset:0"
       id="g4426"
       transform="matrix(1.5,0,0,-1.5,173.14851,1248.0396)"
       xml:space="preserve"
       stroke-miterlimit="10.433"
       font-style="normal"
       font-variant="normal"
       font-weight="normal"
       font-stretch="normal"
       font-size-adjust="none"
       letter-spacing="normal"
       word-spacing="normal"
       ns0:text="\\[\n\\int{}\n\\]\n"
       ns0:preamble="/home/nholtz/work/share/config/inkscape/extensions/amspreamble.tex">
<path
   style="fill:#000000;stroke-width:0"
   inkscape:connector-curvature="0"
   d="m 154.2,688.4 0.04,0 0.03,0.01 0.03,0 0.03,0.01 0.02,0.01 0.03,0.01 0.03,0.01 0.02,0.01 0.03,0.01 0.02,0.01 0.02,0.01 0.03,0.02 0.02,0.01 0.02,0.02 0.01,0.02 0.02,0.01 0.02,0.02 0.01,0.02 0.02,0.02 0.01,0.02 0.01,0.02 0.01,0.03 0.01,0.02 0.01,0.02 0.01,0.02 0.01,0.03 0,0.02 0.01,0.02 0,0.03 0,0.02 0.01,0.03 0,0.02 c 0,0.36 -0.28,0.54 -0.53,0.54 -0.26,0 -0.53,-0.17 -0.53,-0.55 0,-0.55 0.55,-1.01 1.21,-1.01 1.65,0 2.27,2.55 3.05,5.71 0.84,3.44 1.54,6.91 2.13,10.41 0.41,2.32 0.81,4.49 1.18,5.9 0.13,0.53 0.5,1.94 0.92,1.94 0.34,0 0.61,-0.21 0.66,-0.25 -0.36,-0.03 -0.55,-0.27 -0.55,-0.54 0,-0.36 0.27,-0.53 0.52,-0.53 0.27,0 0.54,0.16 0.54,0.54 0,0.59 -0.59,1.02 -1.19,1.02 -0.83,0 -1.44,-1.19 -2.03,-3.41 -0.04,-0.12 -1.52,-5.59 -2.72,-12.71 -0.28,-1.66 -0.59,-3.48 -0.95,-5 -0.2,-0.79 -0.7,-2.84 -1.58,-2.84 -0.39,0 -0.66,0.25 -0.67,0.25 z"
   id="path4428" />
</g>    <g
       ns0:preamble="/home/nholtz/work/share/config/inkscape/extensions/amspreamble.tex"
       ns0:text="\\[\n{}+\\frac{1}{2 E I_0}\n\\]\n"
       word-spacing="normal"
       letter-spacing="normal"
       font-size-adjust="none"
       font-stretch="normal"
       font-weight="normal"
       font-variant="normal"
       font-style="normal"
       stroke-miterlimit="10.433"
       xml:space="preserve"
       transform="matrix(1.1,0,0,-1.1,191.78218,969.50498)"
       id="g4514"
       style="font-style:normal;font-variant:normal;font-weight:normal;font-stretch:normal;letter-spacing:normal;word-spacing:normal;text-anchor:start;fill:none;stroke:#000000;stroke-linecap:butt;stroke-linejoin:miter;stroke-miterlimit:10.43299961;stroke-opacity:1;stroke-dasharray:none;stroke-dashoffset:0">
<path
   id="path4516"
   d="m 159.95,700.2 h 3.04 c 0.15,0 0.36,0 0.36,0.22 0,0.22 -0.21,0.22 -0.36,0.22 h -3.04 v 3.04 c 0,0.16 0,0.36 -0.22,0.36 -0.22,0 -0.22,-0.2 -0.22,-0.36 v -3.04 h -3.05 c -0.15,0 -0.36,0 -0.36,-0.22 0,-0.22 0.21,-0.22 0.36,-0.22 h 3.05 v -3.05 c 0,-0.15 0,-0.36 0.22,-0.36 0.22,0 0.22,0.21 0.22,0.36 z"
   inkscape:connector-curvature="0"
   style="fill:#000000;stroke-width:0" />
<path
   id="path4518"
   d="m 179.91,712.04 0,0.02 0,0.01 0,0.01 0,0.01 0,0.01 0,0.01 0,0.01 0,0.01 0,0.01 0,0.01 -0.01,0.01 0,0.01 0,0.01 0,0 0,0.01 0,0.01 0,0.01 0,0 0,0.02 0,0.01 -0.01,0.01 0,0.01 0,0.01 -0.01,0.01 -0.01,0 0,0.01 -0.01,0.01 -0.01,0 -0.01,0.01 0,0 -0.01,0 -0.01,0 0,0.01 -0.01,0 0,0 -0.01,0 -0.01,0 0,0 -0.01,0 -0.01,0 -0.01,0 0,0.01 -0.01,0 -0.01,0 -0.01,0 -0.01,0 -0.01,0 -0.01,0 -0.01,0 -0.01,0 -0.01,0 -0.01,0 c -0.68,-0.7 -1.64,-0.7 -1.99,-0.7 v -0.34 c 0.22,0 0.86,0 1.43,0.29 v -5.64 c 0,-0.4 -0.03,-0.53 -1.01,-0.53 h -0.35 v -0.33 c 0.38,0.03 1.33,0.03 1.76,0.03 0.44,0 1.39,0 1.77,-0.03 v 0.33 h -0.35 c -0.98,0 -1.01,0.12 -1.01,0.53 z"
   inkscape:connector-curvature="0"
   style="fill:#000000;stroke-width:0" />
<line
   id="line4520"
   y2="700.41998"
   x2="191.25999"
   y1="700.41998"
   x1="167.60001"
   style="stroke-width:0.43599999" />
<path
   id="path4522"
   d="m 168.98,691.05 1.16,1.12 c 1.7,1.51 2.35,2.09 2.35,3.18 0,1.24 -0.98,2.12 -2.31,2.12 -1.23,0 -2.04,-1.01 -2.04,-1.98 0,-0.61 0.55,-0.61 0.58,-0.61 0.19,0 0.57,0.14 0.57,0.58 0,0.28 -0.2,0.57 -0.58,0.57 -0.09,0 -0.11,0 -0.14,-0.01 0.25,0.7 0.84,1.11 1.47,1.11 0.99,0 1.46,-0.89 1.46,-1.78 0,-0.87 -0.55,-1.73 -1.15,-2.4 l -2.09,-2.33 c -0.12,-0.12 -0.12,-0.15 -0.12,-0.41 h 4.04 l 0.31,1.9 h -0.27 c -0.06,-0.33 -0.13,-0.81 -0.24,-0.97 -0.08,-0.09 -0.8,-0.09 -1.04,-0.09 z"
   inkscape:connector-curvature="0"
   style="fill:#000000;stroke-width:0" />
<path
   id="path4524"
   d="m 180.76,692.75 0.01,0.01 0,0 0,0.01 0.01,0.01 0,0.01 0.01,0.02 0,0.01 0,0.01 0.01,0.01 0,0 0,0.01 0,0 0.01,0.01 0,0 0,0.01 0,0 0,0.01 0,0 0,0 0.01,0.01 0,0 0,0 0,0.01 0,0 0,0 c 0,0.01 0,0.12 -0.13,0.12 -0.1,0 -0.12,-0.06 -0.15,-0.13 -0.7,-1.61 -1.11,-2.34 -2.97,-2.34 h -1.59 c -0.15,0 -0.17,0 -0.24,0.01 -0.11,0.01 -0.14,0.02 -0.14,0.11 0,0.03 0,0.05 0.06,0.25 l 0.74,2.97 h 1.08 c 0.92,0 0.92,-0.23 0.92,-0.5 0,-0.07 0,-0.2 -0.08,-0.53 -0.02,-0.06 -0.03,-0.09 -0.03,-0.12 0,-0.06 0.05,-0.12 0.14,-0.12 0.09,0 0.12,0.05 0.17,0.22 l 0.62,2.55 c 0,0.06 -0.06,0.12 -0.13,0.12 -0.1,0 -0.12,-0.07 -0.16,-0.2 -0.22,-0.83 -0.42,-1.08 -1.42,-1.08 h -1.03 l 0.66,2.62 c 0.1,0.39 0.11,0.43 0.59,0.43 h 1.53 c 1.33,0 1.66,-0.32 1.66,-1.21 0,-0.26 0,-0.28 -0.05,-0.58 0,-0.06 -0.01,-0.14 -0.01,-0.19 0,-0.06 0.03,-0.13 0.13,-0.13 0.12,0 0.13,0.06 0.15,0.27 l 0.22,1.88 c 0.04,0.3 -0.02,0.3 -0.29,0.3 h -5.5 c -0.22,0 -0.33,0 -0.33,-0.22 0,-0.12 0.1,-0.12 0.31,-0.12 0.4,0 0.71,0 0.71,-0.2 0,-0.04 0,-0.06 -0.06,-0.26 l -1.44,-5.76 c -0.11,-0.42 -0.13,-0.51 -0.99,-0.51 -0.18,0 -0.3,0 -0.3,-0.21 0,-0.13 0.1,-0.13 0.3,-0.13 h 5.65 c 0.25,0 0.26,0.01 0.34,0.19 z"
   inkscape:connector-curvature="0"
   style="fill:#000000;stroke-width:0" />
<path
   id="path4526"
   d="m 185.81,696.81 0.01,0.04 0.01,0.03 0.01,0.03 0.01,0.04 0.01,0.02 0.01,0.03 0.01,0.03 0.01,0.02 0.01,0.03 0.01,0.02 0.02,0.02 0.01,0.02 0.02,0.02 0.02,0.02 0.02,0.01 0.02,0.02 0.03,0.01 0.02,0.01 0.03,0.02 0.04,0.01 0.03,0.01 0.02,0 0.02,0 0.02,0.01 0.02,0 0.03,0.01 0.02,0 0.02,0 0.03,0 0.02,0.01 0.03,0 0.03,0 0.03,0 0.03,0.01 0.03,0 0.03,0 0.03,0 0.04,0 0.03,0 0.04,0 0.03,0 0.04,0 0.04,0 c 0.26,0 0.35,0 0.35,0.21 0,0.13 -0.12,0.13 -0.16,0.13 -0.32,0 -1.12,-0.03 -1.44,-0.03 -0.33,0 -1.12,0.03 -1.45,0.03 -0.07,0 -0.22,0 -0.22,-0.22 0,-0.12 0.1,-0.12 0.31,-0.12 0.46,0 0.75,0 0.75,-0.2 0,-0.06 0,-0.08 -0.02,-0.18 l -1.47,-5.87 c -0.1,-0.4 -0.13,-0.51 -0.99,-0.51 -0.25,0 -0.35,0 -0.35,-0.22 0,-0.12 0.13,-0.12 0.16,-0.12 0.32,0 1.11,0.04 1.43,0.04 0.33,0 1.13,-0.04 1.46,-0.04 0.09,0 0.22,0 0.22,0.21 0,0.13 -0.09,0.13 -0.33,0.13 -0.2,0 -0.25,0 -0.47,0.02 -0.23,0.02 -0.27,0.07 -0.27,0.19 0,0.08 0.02,0.17 0.04,0.25 z"
   inkscape:connector-curvature="0"
   style="fill:#000000;stroke-width:0" />
<path
   id="path4528"
   d="m 190.42,691.11 0,0.08 0,0.08 0,0.07 0,0.08 0,0.07 -0.01,0.07 0,0.07 0,0.06 -0.01,0.07 0,0.06 -0.01,0.06 -0.01,0.06 -0.01,0.12 -0.02,0.12 -0.02,0.11 -0.03,0.1 -0.03,0.11 -0.03,0.1 -0.04,0.1 -0.04,0.1 -0.04,0.09 -0.05,0.1 c -0.35,0.7 -0.99,0.87 -1.43,0.87 v -0.22 c 0.27,0 0.82,-0.14 0.98,-0.86 0.1,-0.44 0.1,-1.03 0.1,-1.57 0,-0.47 0,-1.19 -0.1,-1.63 -0.17,-0.84 -0.72,-0.95 -0.98,-0.95 h 0 c -0.27,0 -0.82,0.13 -0.99,0.96 -0.08,0.46 -0.08,1.2 -0.08,1.62 0,0.55 0,1.1 0.08,1.54 0.17,0.81 0.79,0.89 0.99,0.89 v 0.22 c -1,0 -1.37,-0.75 -1.48,-0.97 -0.29,-0.58 -0.3,-1.36 -0.3,-1.78 0,-0.52 0.02,-1.33 0.4,-1.96 0.37,-0.59 0.96,-0.74 1.38,-0.74 0.38,0 1.07,0.12 1.47,0.91 0.29,0.57 0.31,1.27 0.31,1.79 z"
   inkscape:connector-curvature="0"
   style="fill:#000000;stroke-width:0" />
</g>    <g
       id="g4632">
      <path
         sodipodi:nodetypes="cccc"
         transform="translate(200.73008,170.8746)"
         inkscape:connector-curvature="0"
         id="path4622"
         d="m 225,23.409103 0,9 27,0 z"
         style="fill:#e6e6e6;fill-opacity:1;fill-rule:nonzero;stroke:#000000;stroke-width:1;stroke-linecap:square;stroke-linejoin:miter;stroke-miterlimit:4;stroke-opacity:1;stroke-dasharray:none;stroke-dashoffset:0" />
      <text
         id="text4624"
         y="212.09558"
         x="433.40335"
         style="font-style:normal;font-variant:normal;font-weight:normal;font-stretch:normal;line-height:0%;font-family:Verdana;-inkscape-font-specification:Sans;text-align:start;letter-spacing:0px;word-spacing:0px;writing-mode:lr-tb;text-anchor:start;fill:#000000;fill-opacity:1;stroke:none"
         xml:space="preserve"><tspan
           y="212.09558"
           x="433.40335"
           id="tspan4626"
           sodipodi:role="line"
           style="font-size:9px;line-height:1.25">3L</tspan></text>
      <text
         id="text4628"
         y="192.3134"
         x="421.52216"
         style="font-style:normal;font-variant:normal;font-weight:normal;font-stretch:normal;line-height:0%;font-family:Verdana;-inkscape-font-specification:Sans;text-align:start;letter-spacing:0px;word-spacing:0px;writing-mode:lr-tb;text-anchor:start;fill:#000000;fill-opacity:1;stroke:none"
         xml:space="preserve"><tspan
           y="192.3134"
           x="421.52216"
           id="tspan4630"
           sodipodi:role="line"
           style="font-size:9px;line-height:1.25">3L</tspan></text>
    </g>
    <g
       id="g4639"
       transform="translate(32,0)">
      <path
         style="fill:#e6e6e6;fill-opacity:1;fill-rule:nonzero;stroke:#000000;stroke-width:1;stroke-linecap:square;stroke-linejoin:miter;stroke-miterlimit:4;stroke-opacity:1;stroke-dasharray:none;stroke-dashoffset:0"
         d="m 225,23.409103 0,9 27,0 z"
         id="path4641"
         inkscape:connector-curvature="0"
         transform="translate(200.73008,170.8746)"
         sodipodi:nodetypes="cccc" />
      <text
         xml:space="preserve"
         style="font-style:normal;font-variant:normal;font-weight:normal;font-stretch:normal;line-height:0%;font-family:Verdana;-inkscape-font-specification:Sans;text-align:start;letter-spacing:0px;word-spacing:0px;writing-mode:lr-tb;text-anchor:start;fill:#000000;fill-opacity:1;stroke:none"
         x="433.40335"
         y="212.09558"
         id="text4643"><tspan
           sodipodi:role="line"
           id="tspan4645"
           x="433.40335"
           y="212.09558"
           style="font-size:9px;line-height:1.25">3L</tspan></text>
      <text
         xml:space="preserve"
         style="font-style:normal;font-variant:normal;font-weight:normal;font-stretch:normal;line-height:0%;font-family:Verdana;-inkscape-font-specification:Sans;text-align:start;letter-spacing:0px;word-spacing:0px;writing-mode:lr-tb;text-anchor:start;fill:#000000;fill-opacity:1;stroke:none"
         x="421.52216"
         y="192.3134"
         id="text4647"><tspan
           sodipodi:role="line"
           id="tspan4649"
           x="421.52216"
           y="192.3134"
           style="font-size:9px;line-height:1.25">3L</tspan></text>
    </g>
    <g
       style="font-style:normal;font-variant:normal;font-weight:normal;font-stretch:normal;letter-spacing:normal;word-spacing:normal;text-anchor:start;fill:none;stroke:#000000;stroke-linecap:butt;stroke-linejoin:miter;stroke-miterlimit:10.43299961;stroke-opacity:1;stroke-dasharray:none;stroke-dashoffset:0"
       ns0:preamble="/home/nholtz/work/share/config/inkscape/extensions/amspreamble.tex"
       ns0:text="\\[\n\\begin{split}\nf_{11} &amp;= \\frac{1}{EI_0} \\times 4L \\times 3L \\times 3L + \\frac{1}{2 E I_0} \\times\\frac{3L}{3}\\times 3L \\times 3L\\\\\n &amp;= \\frac{81 L^3}{2 E I_0}\n\\end{split}\n\\]\n"
       text-anchor="start"
       word-spacing="normal"
       letter-spacing="normal"
       font-size-adjust="none"
       font-stretch="normal"
       font-weight="normal"
       font-variant="normal"
       font-style="normal"
       fill-opacity="1"
       fill-rule="evenodd"
       fill="none"
       stroke-opacity="1"
       stroke-dashoffset="0"
       stroke-dasharray="none"
       stroke-miterlimit="10.433"
       stroke-linejoin="miter"
       stroke-linecap="butt"
       stroke="black"
       xml:space="preserve"
       transform="matrix(1.1,0,0,-1.1,40.792079,1008.5347)"
       id="g5003">
<path
   id="path5005"
   fill="black"
   stroke-width="0"
   d="M158.88,701.63 H159.82 C160.04,701.63,160.15,701.63,160.15,701.84 C160.15,701.97,160.04,701.97,159.85,701.97 H158.95 L159.18,703.21 C159.22,703.43,159.38,704.21,159.44,704.34 C159.54,704.55,159.72,704.71,159.95,704.71 C160,704.71,160.28,704.71,160.49,704.51 C160.01,704.47,159.9,704.09,159.9,703.92 C159.9,703.67,160.09,703.54,160.3,703.54 C160.58,703.54,160.9,703.78,160.9,704.2 C160.9,704.7,160.4,704.95,159.95,704.95 C159.58,704.95,158.9,704.75,158.57,703.67 C158.5,703.45,158.47,703.34,158.21,701.97 H157.46 C157.25,701.97,157.13,701.97,157.13,701.76 C157.13,701.63,157.23,701.63,157.44,701.63 H158.16 L157.34,697.33 C157.14,696.27,156.96,695.28,156.39,695.28 C156.35,695.28,156.08,695.28,155.87,695.47 C156.37,695.51,156.47,695.9,156.47,696.06 C156.47,696.31,156.27,696.44,156.07,696.44 C155.78,696.44,155.47,696.21,155.47,695.79 C155.47,695.3,155.95,695.04,156.39,695.04 C156.99,695.04,157.43,695.68,157.62,696.1 C157.97,696.78,158.22,698.1,158.23,698.18 Z " />
<path
   id="path5007"
   fill="black"
   stroke-width="0"
   d="M162.73,700.7 L162.73,700.71 L162.73,700.72 L162.73,700.73 L162.73,700.74 L162.73,700.74 L162.73,700.75 L162.73,700.76 L162.73,700.77 L162.73,700.78 L162.73,700.78 L162.73,700.79 L162.73,700.8 L162.73,700.81 L162.72,700.81 L162.72,700.82 L162.72,700.82 L162.72,700.83 L162.72,700.83 L162.72,700.84 L162.72,700.85 L162.72,700.85 L162.71,700.86 L162.71,700.87 L162.7,700.88 L162.7,700.88 L162.69,700.89 L162.69,700.9 L162.68,700.9 L162.67,700.9 L162.67,700.91 L162.66,700.91 L162.65,700.91 L162.64,700.91 L162.62,700.92 L162.62,700.92 L162.61,700.92 L162.61,700.92 L162.6,700.92 L162.59,700.92 L162.58,700.92 L162.58,700.92 L162.57,700.92 L162.56,700.92 L162.55,700.92 L162.54,700.92 L162.54,700.92 L162.53,700.92 L162.52,700.92 L162.51,700.92 L162.5,700.92 C162.17,700.6,161.75,700.41,160.99,700.41 V700.15 C161.21,700.15,161.64,700.15,162.1,700.36 V696.29 C162.1,695.99,162.08,695.9,161.32,695.9 H161.04 V695.64 C161.37,695.66,162.05,695.66,162.41,695.66 C162.77,695.66,163.46,695.66,163.79,695.64 V695.9 H163.51 C162.75,695.9,162.73,695.99,162.73,696.29 Z " />
<path
   id="path5009"
   fill="black"
   stroke-width="0"
   d="M166.96,700.7 L166.96,700.71 L166.96,700.72 L166.96,700.73 L166.96,700.74 L166.96,700.74 L166.96,700.75 L166.96,700.76 L166.96,700.77 L166.96,700.78 L166.96,700.78 L166.96,700.79 L166.96,700.8 L166.96,700.81 L166.96,700.81 L166.96,700.82 L166.96,700.82 L166.96,700.83 L166.96,700.83 L166.95,700.84 L166.95,700.85 L166.95,700.85 L166.95,700.86 L166.94,700.87 L166.94,700.88 L166.93,700.88 L166.93,700.89 L166.92,700.9 L166.92,700.9 L166.91,700.9 L166.9,700.91 L166.89,700.91 L166.88,700.91 L166.87,700.91 L166.86,700.92 L166.85,700.92 L166.85,700.92 L166.84,700.92 L166.83,700.92 L166.83,700.92 L166.82,700.92 L166.81,700.92 L166.8,700.92 L166.8,700.92 L166.79,700.92 L166.78,700.92 L166.77,700.92 L166.76,700.92 L166.75,700.92 L166.74,700.92 L166.73,700.92 C166.41,700.6,165.99,700.41,165.23,700.41 V700.15 C165.44,700.15,165.87,700.15,166.34,700.36 V696.29 C166.34,695.99,166.31,695.9,165.55,695.9 H165.28 V695.64 C165.6,695.66,166.29,695.66,166.65,695.66 C167,695.66,167.7,695.66,168.02,695.64 V695.9 H167.74 C166.99,695.9,166.96,695.99,166.96,696.29 Z " />
<path
   id="path5011"
   fill="black"
   stroke-width="0"
   d="M179.71,700.83 L179.74,700.83 L179.77,700.83 L179.8,700.83 L179.82,700.83 L179.83,700.84 L179.85,700.84 L179.87,700.84 L179.88,700.84 L179.9,700.84 L179.91,700.85 L179.93,700.85 L179.94,700.85 L179.95,700.86 L179.97,700.86 L179.98,700.87 L179.99,700.88 L180,700.89 L180.01,700.89 L180.02,700.9 L180.03,700.91 L180.04,700.92 L180.05,700.93 L180.05,700.94 L180.05,700.94 L180.06,700.95 L180.06,700.96 L180.06,700.96 L180.07,700.97 L180.07,700.98 L180.07,700.99 L180.07,700.99 L180.07,701 L180.08,701.01 L180.08,701.02 L180.08,701.03 L180.08,701.04 L180.08,701.05 C180.08,701.27,179.87,701.27,179.72,701.27 H173.2 C173.04,701.27,172.84,701.27,172.84,701.05 C172.84,700.83,173.04,700.83,173.21,700.83 Z " />
<path
   id="path5013"
   fill="black"
   stroke-width="0"
   d="M179.72,698.72 L179.73,698.72 L179.75,698.72 L179.78,698.72 L179.81,698.72 L179.82,698.72 L179.84,698.72 L179.85,698.72 L179.87,698.73 L179.88,698.73 L179.9,698.73 L179.91,698.73 L179.93,698.74 L179.94,698.74 L179.96,698.75 L179.97,698.75 L179.98,698.76 L179.99,698.77 L180,698.77 L180.02,698.78 L180.03,698.79 L180.03,698.8 L180.04,698.81 L180.04,698.81 L180.05,698.82 L180.05,698.82 L180.05,698.83 L180.06,698.84 L180.06,698.84 L180.06,698.85 L180.07,698.86 L180.07,698.87 L180.07,698.87 L180.07,698.88 L180.07,698.89 L180.08,698.9 L180.08,698.91 L180.08,698.92 L180.08,698.93 L180.08,698.94 C180.08,699.16,179.87,699.16,179.71,699.16 H173.21 C173.04,699.16,172.84,699.16,172.84,698.94 C172.84,698.72,173.04,698.72,173.2,698.72 Z " />
<path
   id="path5015"
   fill="black"
   stroke-width="0"
   d="M194.52,711.62 L194.52,711.63 L194.52,711.64 L194.52,711.66 L194.52,711.67 L194.52,711.68 L194.52,711.69 L194.52,711.7 L194.52,711.71 L194.52,711.72 L194.52,711.73 L194.51,711.74 L194.51,711.74 L194.51,711.75 L194.51,711.76 L194.51,711.77 L194.51,711.78 L194.51,711.78 L194.51,711.79 L194.51,711.8 L194.51,711.81 L194.5,711.83 L194.5,711.84 L194.5,711.84 L194.49,711.85 L194.48,711.86 L194.48,711.87 L194.47,711.87 L194.46,711.88 L194.45,711.88 L194.45,711.89 L194.44,711.89 L194.43,711.89 L194.43,711.89 L194.42,711.89 L194.42,711.9 L194.41,711.9 L194.4,711.9 L194.4,711.9 L194.39,711.9 L194.38,711.9 L194.37,711.9 L194.37,711.9 L194.36,711.9 L194.35,711.9 L194.34,711.9 L194.33,711.9 L194.32,711.9 L194.31,711.9 L194.3,711.9 L194.29,711.9 L194.28,711.9 L194.27,711.9 C193.59,711.21,192.63,711.21,192.28,711.21 V710.87 C192.5,710.87,193.14,710.87,193.71,711.15 V705.51 C193.71,705.12,193.68,704.99,192.7,704.99 H192.35 V704.65 C192.73,704.68,193.68,704.68,194.11,704.68 C194.55,704.68,195.5,704.68,195.88,704.65 V704.99 H195.53 C194.55,704.99,194.52,705.11,194.52,705.51 Z " />
<line
   id="line5017"
   stroke-width="0.436"
   y2="700"
   x2="203.15"
   y1="700"
   x1="184.94" />
<path
   id="path5019"
   fill="black"
   stroke-width="0"
   d="M192.65,692.33 L192.65,692.33 L192.65,692.34 L192.65,692.35 L192.66,692.36 L192.66,692.37 L192.67,692.38 L192.67,692.39 L192.68,692.4 L192.68,692.41 L192.68,692.42 L192.69,692.42 L192.69,692.43 L192.69,692.43 L192.69,692.44 L192.69,692.44 L192.69,692.45 L192.7,692.45 L192.7,692.46 L192.7,692.46 L192.7,692.46 L192.7,692.47 L192.7,692.47 L192.7,692.47 L192.7,692.48 L192.7,692.48 C192.7,692.49,192.7,692.6,192.57,692.6 C192.47,692.6,192.45,692.53,192.43,692.47 C191.72,690.86,191.32,690.13,189.46,690.13 H187.87 C187.71,690.13,187.69,690.13,187.63,690.14 C187.52,690.15,187.49,690.16,187.49,690.25 C187.49,690.28,187.49,690.3,187.54,690.5 L188.28,693.47 H189.36 C190.28,693.47,190.28,693.24,190.28,692.97 C190.28,692.89,190.28,692.76,190.21,692.43 C190.18,692.38,190.17,692.35,190.17,692.32 C190.17,692.26,190.22,692.2,190.32,692.2 C190.4,692.2,190.44,692.25,190.48,692.41 L191.1,694.96 C191.1,695.03,191.05,695.08,190.97,695.08 C190.87,695.08,190.85,695.02,190.82,694.89 C190.59,694.06,190.39,693.81,189.39,693.81 H188.37 L189.02,696.43 C189.12,696.81,189.13,696.86,189.61,696.86 H191.14 C192.47,696.86,192.8,696.54,192.8,695.65 C192.8,695.39,192.8,695.36,192.76,695.07 C192.76,695.01,192.74,694.93,192.74,694.87 C192.74,694.82,192.78,694.74,192.88,694.74 C192.99,694.74,193.01,694.81,193.03,695.02 L193.24,696.9 C193.28,697.19,193.22,697.19,192.95,697.19 H187.45 C187.23,697.19,187.13,697.19,187.13,696.97 C187.13,696.86,187.22,696.86,187.43,696.86 C187.83,696.86,188.14,696.86,188.14,696.66 C188.14,696.62,188.14,696.59,188.08,696.4 L186.65,690.64 C186.54,690.21,186.52,690.13,185.66,690.13 C185.47,690.13,185.35,690.13,185.35,689.92 C185.35,689.79,185.45,689.79,185.66,689.79 H191.31 C191.56,689.79,191.57,689.8,191.64,689.97 Z " />
<path
   id="path5021"
   fill="black"
   stroke-width="0"
   d="M197.7,696.39 L197.7,696.42 L197.71,696.46 L197.72,696.49 L197.73,696.52 L197.74,696.55 L197.75,696.58 L197.76,696.61 L197.77,696.63 L197.78,696.65 L197.8,696.68 L197.81,696.7 L197.82,696.72 L197.84,696.74 L197.86,696.75 L197.88,696.77 L197.9,696.78 L197.93,696.8 L197.96,696.81 L197.99,696.82 L198.02,696.83 L198.06,696.84 L198.08,696.85 L198.09,696.85 L198.12,696.85 L198.14,696.86 L198.16,696.86 L198.18,696.86 L198.21,696.87 L198.23,696.87 L198.26,696.87 L198.28,696.88 L198.31,696.88 L198.34,696.88 L198.37,696.88 L198.4,696.88 L198.43,696.88 L198.47,696.88 L198.5,696.89 L198.53,696.89 L198.57,696.89 L198.61,696.89 L198.65,696.89 L198.69,696.89 C198.95,696.89,199.03,696.89,199.03,697.09 C199.03,697.23,198.91,697.23,198.87,697.23 C198.55,697.23,197.75,697.19,197.43,697.19 C197.11,697.19,196.31,697.23,195.99,697.23 C195.91,697.23,195.77,697.23,195.77,697.01 C195.77,696.89,195.87,696.89,196.07,696.89 C196.53,696.89,196.82,696.89,196.82,696.68 C196.82,696.63,196.82,696.6,196.8,696.51 L195.33,690.64 C195.23,690.23,195.2,690.13,194.34,690.13 C194.09,690.13,193.99,690.13,193.99,689.91 C193.99,689.79,194.12,689.79,194.16,689.79 C194.47,689.79,195.27,689.82,195.58,689.82 C195.91,689.82,196.71,689.79,197.04,689.79 C197.13,689.79,197.26,689.79,197.26,690 C197.26,690.13,197.17,690.13,196.93,690.13 C196.74,690.13,196.68,690.13,196.46,690.15 C196.24,690.17,196.19,690.21,196.19,690.33 C196.19,690.42,196.21,690.51,196.24,690.58 Z " />
<path
   id="path5023"
   fill="black"
   stroke-width="0"
   d="M202.31,690.69 L202.31,690.77 L202.31,690.84 L202.3,690.92 L202.3,690.99 L202.3,691.06 L202.3,691.13 L202.29,691.2 L202.29,691.27 L202.28,691.33 L202.28,691.4 L202.27,691.46 L202.27,691.52 L202.25,691.64 L202.23,691.75 L202.21,691.86 L202.18,691.97 L202.15,692.07 L202.12,692.17 L202.09,692.27 L202.05,692.37 L202,692.47 L201.96,692.56 C201.61,693.26,200.96,693.44,200.52,693.44 V693.21 C200.79,693.21,201.34,693.08,201.5,692.36 C201.6,691.92,201.6,691.32,201.6,690.78 C201.6,690.31,201.6,689.6,201.5,689.15 C201.34,688.32,200.79,688.21,200.52,688.21 H200.52 C200.25,688.21,199.7,688.34,199.54,689.17 C199.45,689.62,199.45,690.37,199.45,690.78 C199.45,691.33,199.45,691.89,199.54,692.32 C199.7,693.14,200.32,693.21,200.52,693.21 V693.44 C199.52,693.44,199.15,692.69,199.04,692.47 C198.76,691.89,198.74,691.1,198.74,690.69 C198.74,690.16,198.76,689.36,199.15,688.72 C199.51,688.14,200.1,687.98,200.52,687.98 C200.91,687.98,201.59,688.1,201.99,688.89 C202.28,689.46,202.31,690.17,202.31,690.69 Z " />
<path
   id="path5025"
   fill="black"
   stroke-width="0"
   d="M211,700.3 L208.82,702.47 C208.69,702.6,208.67,702.62,208.59,702.62 C208.48,702.62,208.37,702.52,208.37,702.4 C208.37,702.32,208.39,702.3,208.51,702.18 L210.69,699.99 L208.51,697.81 C208.39,697.69,208.37,697.66,208.37,697.59 C208.37,697.47,208.48,697.37,208.59,697.37 C208.67,697.37,208.69,697.39,208.82,697.52 L210.99,699.69 L213.25,697.43 C213.27,697.42,213.34,697.37,213.41,697.37 C213.54,697.37,213.63,697.47,213.63,697.59 C213.63,697.61,213.63,697.65,213.59,697.71 C213.58,697.73,211.85,699.44,211.31,699.99 L213.3,701.99 C213.35,702.05,213.52,702.19,213.57,702.26 C213.58,702.28,213.63,702.32,213.63,702.4 C213.63,702.52,213.54,702.62,213.41,702.62 C213.32,702.62,213.28,702.58,213.16,702.46 Z " />
<path
   id="path5027"
   fill="black"
   stroke-width="0"
   d="M220.88,699.07 V698.12 C220.88,697.73,220.85,697.61,220.05,697.61 H219.82 V697.27 C220.27,697.3,220.83,697.3,221.29,697.3 C221.75,697.3,222.32,697.3,222.77,697.27 V697.61 H222.54 C221.74,697.61,221.72,697.73,221.72,698.12 V699.07 H222.8 V699.41 H221.72 V704.36 C221.72,704.58,221.72,704.64,221.54,704.64 C221.44,704.64,221.41,704.64,221.32,704.51 L217.98,699.41 H218.29 L220.94,703.47 V699.41 H218.29 H217.98 V699.07 Z " />
<path
   id="path5029"
   fill="black"
   stroke-width="0"
   d="M227.2,703.86 L227.21,703.9 L227.22,703.93 L227.23,703.96 L227.24,703.99 L227.25,704.02 L227.26,704.05 L227.27,704.08 L227.28,704.11 L227.29,704.13 L227.31,704.15 L227.32,704.17 L227.34,704.19 L227.36,704.21 L227.38,704.23 L227.41,704.25 L227.43,704.26 L227.46,704.28 L227.49,704.29 L227.53,704.3 L227.57,704.31 L227.59,704.32 L227.61,704.32 L227.63,704.33 L227.65,704.33 L227.68,704.34 L227.7,704.34 L227.73,704.34 L227.76,704.35 L227.79,704.35 L227.82,704.35 L227.85,704.35 L227.88,704.36 L227.91,704.36 L227.94,704.36 L227.98,704.36 L228.02,704.37 L228.05,704.37 L228.09,704.37 L228.13,704.37 L228.18,704.37 L228.22,704.37 L228.26,704.37 L228.31,704.37 L228.36,704.37 C228.68,704.37,228.77,704.37,228.77,704.58 C228.77,704.71,228.65,704.71,228.6,704.71 C228.24,704.71,227.34,704.68,226.99,704.68 C226.66,704.68,225.86,704.71,225.54,704.71 C225.46,704.71,225.33,704.71,225.33,704.49 C225.33,704.37,225.43,704.37,225.63,704.37 C225.66,704.37,225.86,704.37,226.05,704.35 C226.24,704.33,226.34,704.32,226.34,704.17 C226.34,704.13,226.33,704.1,226.3,703.97 L224.84,698.12 C224.73,697.7,224.71,697.61,223.85,697.61 C223.66,697.61,223.55,697.61,223.55,697.39 C223.55,697.27,223.65,697.27,223.85,697.27 H228.89 C229.15,697.27,229.16,697.27,229.23,697.46 L230.09,699.81 C230.13,699.93,230.13,699.95,230.13,699.96 C230.13,700.01,230.1,700.08,230,700.08 C229.9,700.08,229.89,700.03,229.82,699.85 C229.45,698.85,228.97,697.61,227.08,697.61 H226.06 C225.91,697.61,225.88,697.61,225.82,697.62 C225.71,697.63,225.68,697.64,225.68,697.73 C225.68,697.76,225.68,697.78,225.73,697.98 Z " />
<path
   id="path5031"
   fill="black"
   stroke-width="0"
   d="M237.21,700.3 L235.04,702.47 C234.91,702.6,234.88,702.62,234.8,702.62 C234.69,702.62,234.58,702.52,234.58,702.4 C234.58,702.32,234.6,702.3,234.72,702.18 L236.9,699.99 L234.72,697.81 C234.6,697.69,234.58,697.66,234.58,697.59 C234.58,697.47,234.69,697.37,234.8,697.37 C234.88,697.37,234.91,697.39,235.04,697.52 L237.2,699.69 L239.46,697.43 C239.48,697.42,239.56,697.37,239.62,697.37 C239.75,697.37,239.84,697.47,239.84,697.59 C239.84,697.61,239.84,697.65,239.81,697.71 C239.79,697.73,238.06,699.44,237.52,699.99 L239.51,701.99 C239.57,702.05,239.73,702.19,239.78,702.26 C239.79,702.28,239.84,702.32,239.84,702.4 C239.84,702.52,239.75,702.62,239.62,702.62 C239.53,702.62,239.49,702.58,239.37,702.46 Z " />
<path
   id="path5033"
   fill="black"
   stroke-width="0"
   d="M247.05,701.1 L247.13,701.13 L247.21,701.17 L247.29,701.2 L247.37,701.24 L247.44,701.28 L247.52,701.32 L247.59,701.36 L247.66,701.41 L247.73,701.46 L247.8,701.51 L247.86,701.56 L247.92,701.61 L247.98,701.67 L248.04,701.73 L248.09,701.79 L248.14,701.85 L248.19,701.91 L248.24,701.98 L248.28,702.05 L248.32,702.11 L248.36,702.18 L248.4,702.25 L248.43,702.33 L248.46,702.4 L248.48,702.47 L248.51,702.55 L248.53,702.63 L248.54,702.7 L248.55,702.78 L248.56,702.86 L248.57,702.94 L248.57,703.02 C248.57,703.91,247.61,704.52,246.57,704.52 C245.47,704.52,244.64,703.87,244.64,703.04 C244.64,702.68,244.88,702.48,245.2,702.48 C245.53,702.48,245.75,702.72,245.75,703.03 C245.75,703.58,245.24,703.58,245.07,703.58 C245.41,704.11,246.13,704.25,246.52,704.25 C246.97,704.25,247.57,704.01,247.57,703.03 C247.57,702.9,247.55,702.27,247.26,701.79 C246.94,701.27,246.57,701.23,246.29,701.22 C246.21,701.21,245.95,701.19,245.87,701.19 C245.78,701.18,245.71,701.17,245.71,701.06 C245.71,700.94,245.78,700.94,245.97,700.94 H246.45 C247.34,700.94,247.74,700.2,247.74,699.13 C247.74,697.65,246.99,697.34,246.51,697.34 C246.04,697.34,245.23,697.52,244.85,698.16 C245.23,698.11,245.57,698.35,245.57,698.76 C245.57,699.16,245.27,699.37,244.96,699.37 C244.69,699.37,244.35,699.22,244.35,698.74 C244.35,697.75,245.36,697.03,246.54,697.03 C247.87,697.03,248.86,698.02,248.86,699.13 C248.86,700.03,248.18,700.88,247.05,701.1 Z " />
<path
   id="path5035"
   fill="black"
   stroke-width="0"
   d="M253.41,703.86 L253.42,703.9 L253.43,703.93 L253.44,703.96 L253.45,703.99 L253.46,704.02 L253.47,704.05 L253.48,704.08 L253.49,704.11 L253.51,704.13 L253.52,704.15 L253.54,704.17 L253.55,704.19 L253.57,704.21 L253.59,704.23 L253.62,704.25 L253.65,704.26 L253.67,704.28 L253.71,704.29 L253.74,704.3 L253.78,704.31 L253.8,704.32 L253.82,704.32 L253.84,704.33 L253.87,704.33 L253.89,704.34 L253.92,704.34 L253.94,704.34 L253.97,704.35 L254,704.35 L254.03,704.35 L254.06,704.35 L254.09,704.36 L254.12,704.36 L254.16,704.36 L254.19,704.36 L254.23,704.37 L254.27,704.37 L254.31,704.37 L254.35,704.37 L254.39,704.37 L254.43,704.37 L254.48,704.37 L254.52,704.37 L254.57,704.37 C254.9,704.37,254.98,704.37,254.98,704.58 C254.98,704.71,254.86,704.71,254.81,704.71 C254.45,704.71,253.56,704.68,253.2,704.68 C252.87,704.68,252.08,704.71,251.75,704.71 C251.67,704.71,251.54,704.71,251.54,704.49 C251.54,704.37,251.64,704.37,251.85,704.37 C251.87,704.37,252.08,704.37,252.26,704.35 C252.46,704.33,252.55,704.32,252.55,704.17 C252.55,704.13,252.54,704.1,252.51,703.97 L251.05,698.12 C250.94,697.7,250.92,697.61,250.06,697.61 C249.88,697.61,249.77,697.61,249.77,697.39 C249.77,697.27,249.87,697.27,250.06,697.27 H255.1 C255.36,697.27,255.38,697.27,255.44,697.46 L256.3,699.81 C256.34,699.93,256.34,699.95,256.34,699.96 C256.34,700.01,256.31,700.08,256.21,700.08 C256.12,700.08,256.11,700.03,256.03,699.85 C255.66,698.85,255.18,697.61,253.29,697.61 H252.27 C252.12,697.61,252.1,697.61,252.03,697.62 C251.92,697.63,251.89,697.64,251.89,697.73 C251.89,697.76,251.89,697.78,251.95,697.98 Z " />
<path
   id="path5037"
   fill="black"
   stroke-width="0"
   d="M263.43,700.3 L261.25,702.47 C261.12,702.6,261.1,702.62,261.01,702.62 C260.9,702.62,260.79,702.52,260.79,702.4 C260.79,702.32,260.81,702.3,260.93,702.18 L263.11,699.99 L260.93,697.81 C260.81,697.69,260.79,697.66,260.79,697.59 C260.79,697.47,260.9,697.37,261.01,697.37 C261.1,697.37,261.12,697.39,261.25,697.52 L263.42,699.69 L265.67,697.43 C265.69,697.42,265.77,697.37,265.83,697.37 C265.96,697.37,266.05,697.47,266.05,697.59 C266.05,697.61,266.05,697.65,266.02,697.71 C266.01,697.73,264.28,699.44,263.73,699.99 L265.72,701.99 C265.78,702.05,265.94,702.19,266,702.26 C266.01,702.28,266.05,702.32,266.05,702.4 C266.05,702.52,265.96,702.62,265.83,702.62 C265.75,702.62,265.7,702.58,265.58,702.46 Z " />
<path
   id="path5039"
   fill="black"
   stroke-width="0"
   d="M273.26,701.1 L273.34,701.13 L273.42,701.17 L273.5,701.2 L273.58,701.24 L273.66,701.28 L273.73,701.32 L273.8,701.36 L273.87,701.41 L273.94,701.46 L274.01,701.51 L274.07,701.56 L274.13,701.61 L274.19,701.67 L274.25,701.73 L274.3,701.79 L274.35,701.85 L274.4,701.91 L274.45,701.98 L274.49,702.05 L274.54,702.11 L274.57,702.18 L274.61,702.25 L274.64,702.33 L274.67,702.4 L274.7,702.47 L274.72,702.55 L274.74,702.63 L274.75,702.7 L274.77,702.78 L274.77,702.86 L274.78,702.94 L274.78,703.02 C274.78,703.91,273.82,704.52,272.78,704.52 C271.68,704.52,270.85,703.87,270.85,703.04 C270.85,702.68,271.09,702.48,271.41,702.48 C271.74,702.48,271.96,702.72,271.96,703.03 C271.96,703.58,271.45,703.58,271.29,703.58 C271.62,704.11,272.34,704.25,272.73,704.25 C273.18,704.25,273.78,704.01,273.78,703.03 C273.78,702.9,273.76,702.27,273.48,701.79 C273.15,701.27,272.78,701.23,272.51,701.22 C272.42,701.21,272.16,701.19,272.08,701.19 C271.99,701.18,271.92,701.17,271.92,701.06 C271.92,700.94,271.99,700.94,272.18,700.94 H272.66 C273.55,700.94,273.95,700.2,273.95,699.13 C273.95,697.65,273.2,697.34,272.72,697.34 C272.26,697.34,271.44,697.52,271.06,698.16 C271.44,698.11,271.78,698.35,271.78,698.76 C271.78,699.16,271.48,699.37,271.17,699.37 C270.91,699.37,270.56,699.22,270.56,698.74 C270.56,697.75,271.57,697.03,272.76,697.03 C274.08,697.03,275.08,698.02,275.08,699.13 C275.08,700.03,274.39,700.88,273.26,701.1 Z " />
<path
   id="path5041"
   fill="black"
   stroke-width="0"
   d="M279.63,703.86 L279.64,703.9 L279.64,703.93 L279.65,703.96 L279.66,703.99 L279.67,704.02 L279.68,704.05 L279.69,704.08 L279.7,704.11 L279.72,704.13 L279.73,704.15 L279.75,704.17 L279.77,704.19 L279.78,704.21 L279.81,704.23 L279.83,704.25 L279.86,704.26 L279.89,704.28 L279.92,704.29 L279.95,704.3 L279.99,704.31 L280.01,704.32 L280.03,704.32 L280.06,704.33 L280.08,704.33 L280.1,704.34 L280.13,704.34 L280.16,704.34 L280.18,704.35 L280.21,704.35 L280.24,704.35 L280.27,704.35 L280.3,704.36 L280.34,704.36 L280.37,704.36 L280.41,704.36 L280.44,704.37 L280.48,704.37 L280.52,704.37 L280.56,704.37 L280.6,704.37 L280.64,704.37 L280.69,704.37 L280.73,704.37 L280.78,704.37 C281.11,704.37,281.2,704.37,281.2,704.58 C281.2,704.71,281.08,704.71,281.02,704.71 C280.66,704.71,279.77,704.68,279.41,704.68 C279.08,704.68,278.29,704.71,277.96,704.71 C277.89,704.71,277.75,704.71,277.75,704.49 C277.75,704.37,277.85,704.37,278.06,704.37 C278.08,704.37,278.29,704.37,278.47,704.35 C278.67,704.33,278.77,704.32,278.77,704.17 C278.77,704.13,278.76,704.1,278.72,703.97 L277.26,698.12 C277.16,697.7,277.13,697.61,276.27,697.61 C276.09,697.61,275.98,697.61,275.98,697.39 C275.98,697.27,276.08,697.27,276.27,697.27 H281.32 C281.58,697.27,281.59,697.27,281.65,697.46 L282.51,699.81 C282.56,699.93,282.56,699.95,282.56,699.96 C282.56,700.01,282.52,700.08,282.43,700.08 C282.33,700.08,282.32,700.03,282.24,699.85 C281.87,698.85,281.39,697.61,279.51,697.61 H278.48 C278.33,697.61,278.31,697.61,278.24,697.62 C278.14,697.63,278.1,697.64,278.1,697.73 C278.1,697.76,278.1,697.78,278.16,697.98 Z " />
<path
   id="path5043"
   fill="black"
   stroke-width="0"
   d="M289.86,699.78 H292.89 C293.05,699.78,293.25,699.78,293.25,699.99 C293.25,700.21,293.05,700.21,292.89,700.21 H289.86 V703.26 C289.86,703.41,289.86,703.62,289.64,703.62 C289.42,703.62,289.42,703.41,289.42,703.26 V700.21 H286.37 C286.22,700.21,286.01,700.21,286.01,699.99 C286.01,699.78,286.22,699.78,286.37,699.78 H289.42 V696.73 C289.42,696.58,289.42,696.37,289.64,696.37 C289.86,696.37,289.86,696.58,289.86,696.73 Z " />
<path
   id="path5045"
   fill="black"
   stroke-width="0"
   d="M309.81,711.62 L309.81,711.63 L309.81,711.64 L309.81,711.66 L309.81,711.67 L309.81,711.68 L309.81,711.69 L309.81,711.7 L309.81,711.71 L309.81,711.72 L309.81,711.73 L309.81,711.74 L309.81,711.74 L309.81,711.75 L309.81,711.76 L309.81,711.77 L309.81,711.78 L309.81,711.78 L309.81,711.79 L309.81,711.8 L309.8,711.81 L309.8,711.83 L309.8,711.84 L309.79,711.84 L309.79,711.85 L309.78,711.86 L309.78,711.87 L309.77,711.87 L309.76,711.88 L309.75,711.88 L309.74,711.89 L309.74,711.89 L309.73,711.89 L309.73,711.89 L309.72,711.89 L309.71,711.9 L309.71,711.9 L309.7,711.9 L309.69,711.9 L309.69,711.9 L309.68,711.9 L309.67,711.9 L309.66,711.9 L309.65,711.9 L309.65,711.9 L309.64,711.9 L309.63,711.9 L309.62,711.9 L309.61,711.9 L309.6,711.9 L309.59,711.9 L309.57,711.9 L309.56,711.9 C308.89,711.21,307.93,711.21,307.58,711.21 V710.87 C307.8,710.87,308.44,710.87,309.01,711.15 V705.51 C309.01,705.12,308.98,704.99,307.99,704.99 H307.65 V704.65 C308.03,704.68,308.98,704.68,309.41,704.68 C309.85,704.68,310.79,704.68,311.17,704.65 V704.99 H310.83 C309.85,704.99,309.81,705.11,309.81,705.51 Z " />
<line
   id="line5047"
   stroke-width="0.436"
   y2="700"
   x2="321.17"
   y1="700"
   x1="297.51" />
<path
   id="path5049"
   fill="black"
   stroke-width="0"
   d="M298.89,690.63 L300.05,691.75 C301.74,693.25,302.4,693.84,302.4,694.93 C302.4,696.17,301.42,697.04,300.09,697.04 C298.86,697.04,298.05,696.04,298.05,695.07 C298.05,694.46,298.6,694.46,298.63,694.46 C298.82,694.46,299.2,694.59,299.2,695.04 C299.2,695.32,299,695.6,298.62,695.6 C298.53,695.6,298.51,695.6,298.48,695.59 C298.73,696.3,299.32,696.7,299.95,696.7 C300.94,696.7,301.41,695.82,301.41,694.93 C301.41,694.06,300.86,693.2,300.26,692.52 L298.17,690.19 C298.05,690.07,298.05,690.05,298.05,689.79 H302.09 L302.4,691.68 H302.12 C302.07,691.36,301.99,690.88,301.89,690.72 C301.81,690.63,301.09,690.63,300.85,690.63 Z " />
<path
   id="path5051"
   fill="black"
   stroke-width="0"
   d="M310.67,692.33 L310.67,692.33 L310.68,692.34 L310.68,692.35 L310.68,692.36 L310.69,692.37 L310.69,692.38 L310.7,692.39 L310.7,692.4 L310.71,692.41 L310.71,692.42 L310.71,692.42 L310.71,692.43 L310.71,692.43 L310.72,692.44 L310.72,692.44 L310.72,692.45 L310.72,692.45 L310.72,692.46 L310.72,692.46 L310.72,692.46 L310.72,692.47 L310.73,692.47 L310.73,692.47 L310.73,692.48 L310.73,692.48 C310.73,692.49,310.73,692.6,310.6,692.6 C310.5,692.6,310.48,692.53,310.45,692.47 C309.75,690.86,309.34,690.13,307.48,690.13 H305.89 C305.74,690.13,305.72,690.13,305.65,690.14 C305.54,690.15,305.51,690.16,305.51,690.25 C305.51,690.28,305.51,690.3,305.56,690.5 L306.3,693.47 H307.38 C308.31,693.47,308.31,693.24,308.31,692.97 C308.31,692.89,308.31,692.76,308.23,692.43 C308.21,692.38,308.2,692.35,308.2,692.32 C308.2,692.26,308.24,692.2,308.34,692.2 C308.43,692.2,308.46,692.25,308.5,692.41 L309.12,694.96 C309.12,695.03,309.07,695.08,308.99,695.08 C308.9,695.08,308.87,695.02,308.84,694.89 C308.61,694.06,308.42,693.81,307.42,693.81 H306.39 L307.05,696.43 C307.14,696.81,307.15,696.86,307.63,696.86 H309.17 C310.5,696.86,310.82,696.54,310.82,695.65 C310.82,695.39,310.82,695.36,310.78,695.07 C310.78,695.01,310.77,694.93,310.77,694.87 C310.77,694.82,310.8,694.74,310.9,694.74 C311.02,694.74,311.03,694.81,311.05,695.02 L311.27,696.9 C311.3,697.19,311.25,697.19,310.98,697.19 H305.48 C305.26,697.19,305.15,697.19,305.15,696.97 C305.15,696.86,305.25,696.86,305.46,696.86 C305.86,696.86,306.16,696.86,306.16,696.66 C306.16,696.62,306.16,696.59,306.11,696.4 L304.67,690.64 C304.56,690.21,304.54,690.13,303.68,690.13 C303.5,690.13,303.38,690.13,303.38,689.92 C303.38,689.79,303.47,689.79,303.68,689.79 H309.33 C309.58,689.79,309.59,689.8,309.67,689.97 Z " />
<path
   id="path5053"
   fill="black"
   stroke-width="0"
   d="M315.72,696.39 L315.73,696.42 L315.74,696.46 L315.75,696.49 L315.76,696.52 L315.76,696.55 L315.77,696.58 L315.78,696.61 L315.8,696.63 L315.81,696.65 L315.82,696.68 L315.83,696.7 L315.85,696.72 L315.87,696.74 L315.89,696.75 L315.91,696.77 L315.93,696.78 L315.95,696.8 L315.98,696.81 L316.01,696.82 L316.05,696.83 L316.08,696.84 L316.1,696.85 L316.12,696.85 L316.14,696.85 L316.16,696.86 L316.18,696.86 L316.21,696.86 L316.23,696.87 L316.26,696.87 L316.28,696.87 L316.31,696.88 L316.34,696.88 L316.37,696.88 L316.39,696.88 L316.43,696.88 L316.46,696.88 L316.49,696.88 L316.52,696.89 L316.56,696.89 L316.6,696.89 L316.63,696.89 L316.67,696.89 L316.71,696.89 C316.97,696.89,317.06,696.89,317.06,697.09 C317.06,697.23,316.94,697.23,316.9,697.23 C316.58,697.23,315.77,697.19,315.46,697.19 C315.13,697.19,314.34,697.23,314.01,697.23 C313.93,697.23,313.79,697.23,313.79,697.01 C313.79,696.89,313.89,696.89,314.1,696.89 C314.55,696.89,314.85,696.89,314.85,696.68 C314.85,696.63,314.85,696.6,314.83,696.51 L313.36,690.64 C313.26,690.23,313.23,690.13,312.37,690.13 C312.12,690.13,312.02,690.13,312.02,689.91 C312.02,689.79,312.15,689.79,312.18,689.79 C312.5,689.79,313.29,689.82,313.61,689.82 C313.93,689.82,314.74,689.79,315.07,689.79 C315.15,689.79,315.29,689.79,315.29,690 C315.29,690.13,315.2,690.13,314.96,690.13 C314.76,690.13,314.71,690.13,314.49,690.15 C314.26,690.17,314.22,690.21,314.22,690.33 C314.22,690.42,314.24,690.51,314.26,690.58 Z " />
<path
   id="path5055"
   fill="black"
   stroke-width="0"
   d="M320.33,690.69 L320.33,690.77 L320.33,690.84 L320.33,690.92 L320.33,690.99 L320.32,691.06 L320.32,691.13 L320.32,691.2 L320.31,691.27 L320.31,691.33 L320.3,691.4 L320.3,691.46 L320.29,691.52 L320.27,691.64 L320.25,691.75 L320.23,691.86 L320.21,691.97 L320.18,692.07 L320.15,692.17 L320.11,692.27 L320.07,692.37 L320.03,692.47 L319.98,692.56 C319.63,693.26,318.99,693.44,318.55,693.44 V693.21 C318.82,693.21,319.37,693.08,319.53,692.36 C319.62,691.92,319.62,691.32,319.62,690.78 C319.62,690.31,319.62,689.6,319.53,689.15 C319.36,688.32,318.81,688.21,318.55,688.21 H318.55 C318.28,688.21,317.73,688.34,317.56,689.17 C317.47,689.62,317.47,690.37,317.47,690.78 C317.47,691.33,317.47,691.89,317.56,692.32 C317.73,693.14,318.35,693.21,318.55,693.21 V693.44 C317.55,693.44,317.18,692.69,317.07,692.47 C316.78,691.89,316.77,691.1,316.77,690.69 C316.77,690.16,316.79,689.36,317.17,688.72 C317.54,688.14,318.13,687.98,318.55,687.98 C318.93,687.98,319.61,688.1,320.01,688.89 C320.31,689.46,320.33,690.17,320.33,690.69 Z " />
<path
   id="path5057"
   fill="black"
   stroke-width="0"
   d="M329.03,700.3 L326.85,702.47 C326.72,702.6,326.7,702.62,326.61,702.62 C326.5,702.62,326.39,702.52,326.39,702.4 C326.39,702.32,326.41,702.3,326.53,702.18 L328.71,699.99 L326.53,697.81 C326.41,697.69,326.39,697.66,326.39,697.59 C326.39,697.47,326.5,697.37,326.61,697.37 C326.7,697.37,326.72,697.39,326.85,697.52 L329.02,699.69 L331.27,697.43 C331.29,697.42,331.37,697.37,331.43,697.37 C331.56,697.37,331.65,697.47,331.65,697.59 C331.65,697.61,331.65,697.65,331.62,697.71 C331.61,697.73,329.88,699.44,329.33,699.99 L331.32,701.99 C331.38,702.05,331.54,702.19,331.6,702.26 C331.61,702.28,331.65,702.32,331.65,702.4 C331.65,702.52,331.56,702.62,331.43,702.62 C331.35,702.62,331.3,702.58,331.18,702.46 Z " />
<path
   id="path5059"
   fill="black"
   stroke-width="0"
   d="M340.05,708.48 L340.14,708.51 L340.22,708.55 L340.3,708.58 L340.38,708.62 L340.45,708.66 L340.53,708.7 L340.6,708.74 L340.67,708.79 L340.74,708.84 L340.8,708.89 L340.87,708.94 L340.93,708.99 L340.99,709.05 L341.04,709.11 L341.1,709.17 L341.15,709.23 L341.2,709.29 L341.25,709.36 L341.29,709.43 L341.33,709.49 L341.37,709.56 L341.4,709.63 L341.44,709.71 L341.47,709.78 L341.49,709.85 L341.51,709.93 L341.53,710.01 L341.55,710.08 L341.56,710.16 L341.57,710.24 L341.58,710.32 L341.58,710.4 C341.58,711.29,340.62,711.9,339.58,711.9 C338.48,711.9,337.65,711.25,337.65,710.42 C337.65,710.06,337.89,709.86,338.2,709.86 C338.54,709.86,338.76,710.1,338.76,710.41 C338.76,710.96,338.25,710.96,338.08,710.96 C338.42,711.49,339.14,711.63,339.53,711.63 C339.98,711.63,340.58,711.39,340.58,710.41 C340.58,710.28,340.55,709.65,340.27,709.17 C339.95,708.65,339.58,708.61,339.3,708.6 C339.21,708.59,338.95,708.57,338.88,708.57 C338.79,708.56,338.71,708.55,338.71,708.44 C338.71,708.32,338.79,708.32,338.98,708.32 H339.45 C340.35,708.32,340.75,707.58,340.75,706.51 C340.75,705.03,340,704.72,339.52,704.72 C339.05,704.72,338.23,704.9,337.85,705.54 C338.23,705.49,338.57,705.73,338.57,706.14 C338.57,706.54,338.28,706.75,337.96,706.75 C337.7,706.75,337.35,706.6,337.35,706.12 C337.35,705.13,338.37,704.41,339.55,704.41 C340.88,704.41,341.87,705.4,341.87,706.51 C341.87,707.41,341.19,708.26,340.05,708.48 Z " />
<path
   id="path5061"
   fill="black"
   stroke-width="0"
   d="M346.42,711.24 L346.43,711.28 L346.44,711.31 L346.45,711.34 L346.46,711.37 L346.47,711.4 L346.48,711.43 L346.49,711.46 L346.5,711.49 L346.51,711.51 L346.53,711.53 L346.54,711.55 L346.56,711.57 L346.58,711.59 L346.6,711.61 L346.63,711.63 L346.65,711.64 L346.68,711.66 L346.71,711.67 L346.75,711.68 L346.79,711.69 L346.81,711.7 L346.83,711.7 L346.85,711.71 L346.88,711.71 L346.9,711.72 L346.93,711.72 L346.95,711.72 L346.98,711.73 L347.01,711.73 L347.04,711.73 L347.07,711.73 L347.1,711.74 L347.13,711.74 L347.17,711.74 L347.2,711.74 L347.24,711.75 L347.28,711.75 L347.31,711.75 L347.35,711.75 L347.4,711.75 L347.44,711.75 L347.48,711.75 L347.53,711.75 L347.58,711.75 C347.9,711.75,347.99,711.75,347.99,711.96 C347.99,712.09,347.87,712.09,347.82,712.09 C347.46,712.09,346.57,712.06,346.21,712.06 C345.88,712.06,345.08,712.09,344.76,712.09 C344.68,712.09,344.55,712.09,344.55,711.87 C344.55,711.75,344.65,711.75,344.86,711.75 C344.88,711.75,345.08,711.75,345.27,711.73 C345.46,711.71,345.56,711.7,345.56,711.55 C345.56,711.51,345.55,711.48,345.52,711.35 L344.06,705.5 C343.95,705.08,343.93,704.99,343.07,704.99 C342.89,704.99,342.78,704.99,342.78,704.77 C342.78,704.65,342.87,704.65,343.07,704.65 H348.11 C348.37,704.65,348.38,704.65,348.45,704.84 L349.31,707.19 C349.35,707.31,349.35,707.33,349.35,707.34 C349.35,707.39,349.32,707.46,349.22,707.46 C349.12,707.46,349.11,707.41,349.04,707.23 C348.67,706.23,348.19,704.99,346.3,704.99 H345.28 C345.13,704.99,345.11,704.99,345.04,705 C344.93,705.01,344.9,705.02,344.9,705.11 C344.9,705.14,344.9,705.16,344.95,705.36 Z " />
<line
   id="line5063"
   stroke-width="0.436"
   y2="700"
   x2="349.77"
   y1="700"
   x1="336.9" />
<path
   id="path5065"
   fill="black"
   stroke-width="0"
   d="M343.77,693.62 L343.85,693.65 L343.93,693.68 L344.01,693.72 L344.09,693.75 L344.16,693.79 L344.24,693.83 L344.31,693.88 L344.38,693.92 L344.45,693.97 L344.52,694.02 L344.58,694.08 L344.64,694.13 L344.7,694.19 L344.76,694.25 L344.81,694.31 L344.86,694.37 L344.91,694.43 L344.96,694.5 L345,694.56 L345.04,694.63 L345.08,694.7 L345.12,694.77 L345.15,694.84 L345.18,694.92 L345.2,694.99 L345.23,695.07 L345.25,695.14 L345.26,695.22 L345.27,695.3 L345.28,695.38 L345.29,695.46 L345.29,695.54 C345.29,696.43,344.33,697.04,343.29,697.04 C342.19,697.04,341.36,696.39,341.36,695.56 C341.36,695.2,341.6,694.99,341.92,694.99 C342.25,694.99,342.47,695.23,342.47,695.55 C342.47,696.09,341.96,696.09,341.8,696.09 C342.13,696.63,342.85,696.77,343.24,696.77 C343.69,696.77,344.29,696.53,344.29,695.55 C344.29,695.42,344.27,694.79,343.98,694.31 C343.66,693.78,343.29,693.75,343.01,693.74 C342.93,693.73,342.67,693.71,342.59,693.71 C342.5,693.7,342.43,693.69,342.43,693.58 C342.43,693.46,342.5,693.46,342.69,693.46 H343.17 C344.06,693.46,344.46,692.72,344.46,691.65 C344.46,690.17,343.71,689.85,343.23,689.85 C342.76,689.85,341.95,690.04,341.57,690.68 C341.95,690.63,342.29,690.87,342.29,691.28 C342.29,691.67,341.99,691.89,341.67,691.89 C341.41,691.89,341.07,691.74,341.07,691.26 C341.07,690.27,342.08,689.55,343.27,689.55 C344.59,689.55,345.58,690.54,345.58,691.65 C345.58,692.54,344.9,693.39,343.77,693.62 Z " />
<path
   id="path5067"
   fill="black"
   stroke-width="0"
   d="M357.63,700.3 L355.45,702.47 C355.32,702.6,355.3,702.62,355.21,702.62 C355.1,702.62,355,702.52,355,702.4 C355,702.32,355.02,702.3,355.14,702.18 L357.32,699.99 L355.14,697.81 C355.02,697.69,355,697.66,355,697.59 C355,697.47,355.1,697.37,355.21,697.37 C355.3,697.37,355.32,697.39,355.45,697.52 L357.62,699.69 L359.87,697.43 C359.89,697.42,359.97,697.37,360.04,697.37 C360.17,697.37,360.26,697.47,360.26,697.59 C360.26,697.61,360.26,697.65,360.22,697.71 C360.21,697.73,358.48,699.44,357.94,699.99 L359.93,701.99 C359.98,702.05,360.15,702.19,360.2,702.26 C360.21,702.28,360.26,702.32,360.26,702.4 C360.26,702.52,360.17,702.62,360.04,702.62 C359.95,702.62,359.91,702.58,359.79,702.46 Z " />
<path
   id="path5069"
   fill="black"
   stroke-width="0"
   d="M367.46,701.1 L367.54,701.13 L367.63,701.17 L367.71,701.2 L367.78,701.24 L367.86,701.28 L367.93,701.32 L368.01,701.36 L368.08,701.41 L368.15,701.46 L368.21,701.51 L368.28,701.56 L368.34,701.61 L368.4,701.67 L368.45,701.73 L368.51,701.79 L368.56,701.85 L368.61,701.91 L368.65,701.98 L368.7,702.05 L368.74,702.11 L368.78,702.18 L368.81,702.25 L368.84,702.33 L368.87,702.4 L368.9,702.47 L368.92,702.55 L368.94,702.63 L368.96,702.7 L368.97,702.78 L368.98,702.86 L368.98,702.94 L368.99,703.02 C368.99,703.91,368.03,704.52,366.98,704.52 C365.88,704.52,365.05,703.87,365.05,703.04 C365.05,702.68,365.3,702.48,365.61,702.48 C365.95,702.48,366.17,702.72,366.17,703.03 C366.17,703.58,365.65,703.58,365.49,703.58 C365.83,704.11,366.55,704.25,366.94,704.25 C367.39,704.25,367.98,704.01,367.98,703.03 C367.98,702.9,367.96,702.27,367.68,701.79 C367.35,701.27,366.98,701.23,366.71,701.22 C366.62,701.21,366.36,701.19,366.29,701.19 C366.2,701.18,366.12,701.17,366.12,701.06 C366.12,700.94,366.2,700.94,366.38,700.94 H366.86 C367.76,700.94,368.16,700.2,368.16,699.13 C368.16,697.65,367.41,697.34,366.93,697.34 C366.46,697.34,365.64,697.52,365.26,698.16 C365.64,698.11,365.98,698.35,365.98,698.76 C365.98,699.16,365.69,699.37,365.37,699.37 C365.11,699.37,364.76,699.22,364.76,698.74 C364.76,697.75,365.77,697.03,366.96,697.03 C368.29,697.03,369.28,698.02,369.28,699.13 C369.28,700.03,368.59,700.88,367.46,701.1 Z " />
<path
   id="path5071"
   fill="black"
   stroke-width="0"
   d="M373.83,703.86 L373.84,703.9 L373.85,703.93 L373.86,703.96 L373.87,703.99 L373.88,704.02 L373.89,704.05 L373.9,704.08 L373.91,704.11 L373.92,704.13 L373.94,704.15 L373.95,704.17 L373.97,704.19 L373.99,704.21 L374.01,704.23 L374.03,704.25 L374.06,704.26 L374.09,704.28 L374.12,704.29 L374.16,704.3 L374.2,704.31 L374.22,704.32 L374.24,704.32 L374.26,704.33 L374.28,704.33 L374.31,704.34 L374.33,704.34 L374.36,704.34 L374.39,704.35 L374.41,704.35 L374.44,704.35 L374.47,704.35 L374.51,704.36 L374.54,704.36 L374.57,704.36 L374.61,704.36 L374.64,704.37 L374.68,704.37 L374.72,704.37 L374.76,704.37 L374.8,704.37 L374.85,704.37 L374.89,704.37 L374.94,704.37 L374.98,704.37 C375.31,704.37,375.4,704.37,375.4,704.58 C375.4,704.71,375.28,704.71,375.22,704.71 C374.86,704.71,373.97,704.68,373.61,704.68 C373.29,704.68,372.49,704.71,372.16,704.71 C372.09,704.71,371.96,704.71,371.96,704.49 C371.96,704.37,372.05,704.37,372.26,704.37 C372.28,704.37,372.49,704.37,372.68,704.35 C372.87,704.33,372.97,704.32,372.97,704.17 C372.97,704.13,372.96,704.1,372.93,703.97 L371.47,698.12 C371.36,697.7,371.34,697.61,370.48,697.61 C370.29,697.61,370.18,697.61,370.18,697.39 C370.18,697.27,370.28,697.27,370.48,697.27 H375.52 C375.78,697.27,375.79,697.27,375.86,697.46 L376.72,699.81 C376.76,699.93,376.76,699.95,376.76,699.96 C376.76,700.01,376.73,700.08,376.63,700.08 C376.53,700.08,376.52,700.03,376.44,699.85 C376.07,698.85,375.59,697.61,373.71,697.61 H372.69 C372.54,697.61,372.51,697.61,372.45,697.62 C372.34,697.63,372.31,697.64,372.31,697.73 C372.31,697.76,372.31,697.78,372.36,697.98 Z " />
<path
   id="path5073"
   fill="black"
   stroke-width="0"
   d="M383.84,700.3 L381.67,702.47 C381.53,702.6,381.51,702.62,381.42,702.62 C381.32,702.62,381.21,702.52,381.21,702.4 C381.21,702.32,381.23,702.3,381.35,702.18 L383.53,699.99 L381.35,697.81 C381.23,697.69,381.21,697.66,381.21,697.59 C381.21,697.47,381.32,697.37,381.42,697.37 C381.51,697.37,381.53,697.39,381.67,697.52 L383.83,699.69 L386.09,697.43 C386.11,697.42,386.18,697.37,386.25,697.37 C386.38,697.37,386.47,697.47,386.47,697.59 C386.47,697.61,386.47,697.65,386.43,697.71 C386.42,697.73,384.69,699.44,384.15,699.99 L386.14,701.99 C386.2,702.05,386.36,702.19,386.41,702.26 C386.42,702.28,386.47,702.32,386.47,702.4 C386.47,702.52,386.38,702.62,386.25,702.62 C386.16,702.62,386.12,702.58,386,702.46 Z " />
<path
   id="path5075"
   fill="black"
   stroke-width="0"
   d="M393.67,701.1 L393.76,701.13 L393.84,701.17 L393.92,701.2 L394,701.24 L394.07,701.28 L394.15,701.32 L394.22,701.36 L394.29,701.41 L394.36,701.46 L394.42,701.51 L394.49,701.56 L394.55,701.61 L394.61,701.67 L394.66,701.73 L394.72,701.79 L394.77,701.85 L394.82,701.91 L394.87,701.98 L394.91,702.05 L394.95,702.11 L394.99,702.18 L395.02,702.25 L395.06,702.33 L395.09,702.4 L395.11,702.47 L395.13,702.55 L395.15,702.63 L395.17,702.7 L395.18,702.78 L395.19,702.86 L395.2,702.94 L395.2,703.02 C395.2,703.91,394.24,704.52,393.2,704.52 C392.1,704.52,391.27,703.87,391.27,703.04 C391.27,702.68,391.51,702.48,391.82,702.48 C392.16,702.48,392.38,702.72,392.38,703.03 C392.38,703.58,391.87,703.58,391.7,703.58 C392.04,704.11,392.76,704.25,393.15,704.25 C393.6,704.25,394.2,704.01,394.2,703.03 C394.2,702.9,394.17,702.27,393.89,701.79 C393.57,701.27,393.2,701.23,392.92,701.22 C392.83,701.21,392.57,701.19,392.5,701.19 C392.41,701.18,392.33,701.17,392.33,701.06 C392.33,700.94,392.41,700.94,392.6,700.94 H393.08 C393.97,700.94,394.37,700.2,394.37,699.13 C394.37,697.65,393.62,697.34,393.14,697.34 C392.67,697.34,391.86,697.52,391.47,698.16 C391.86,698.11,392.19,698.35,392.19,698.76 C392.19,699.16,391.9,699.37,391.58,699.37 C391.32,699.37,390.97,699.22,390.97,698.74 C390.97,697.75,391.99,697.03,393.17,697.03 C394.5,697.03,395.49,698.02,395.49,699.13 C395.49,700.03,394.81,700.88,393.67,701.1 Z " />
<path
   id="path5077"
   fill="black"
   stroke-width="0"
   d="M400.04,703.86 L400.05,703.9 L400.06,703.93 L400.07,703.96 L400.08,703.99 L400.09,704.02 L400.1,704.05 L400.11,704.08 L400.12,704.11 L400.13,704.13 L400.15,704.15 L400.16,704.17 L400.18,704.19 L400.2,704.21 L400.22,704.23 L400.25,704.25 L400.27,704.26 L400.3,704.28 L400.33,704.29 L400.37,704.3 L400.41,704.31 L400.43,704.32 L400.45,704.32 L400.47,704.33 L400.49,704.33 L400.52,704.34 L400.54,704.34 L400.57,704.34 L400.6,704.35 L400.63,704.35 L400.66,704.35 L400.69,704.35 L400.72,704.36 L400.75,704.36 L400.78,704.36 L400.82,704.36 L400.86,704.37 L400.89,704.37 L400.93,704.37 L400.97,704.37 L401.02,704.37 L401.06,704.37 L401.1,704.37 L401.15,704.37 L401.2,704.37 C401.52,704.37,401.61,704.37,401.61,704.58 C401.61,704.71,401.49,704.71,401.44,704.71 C401.08,704.71,400.18,704.68,399.83,704.68 C399.5,704.68,398.7,704.71,398.38,704.71 C398.3,704.71,398.17,704.71,398.17,704.49 C398.17,704.37,398.27,704.37,398.47,704.37 C398.5,704.37,398.7,704.37,398.89,704.35 C399.08,704.33,399.18,704.32,399.18,704.17 C399.18,704.13,399.17,704.1,399.14,703.97 L397.68,698.12 C397.57,697.7,397.55,697.61,396.69,697.61 C396.5,697.61,396.39,697.61,396.39,697.39 C396.39,697.27,396.49,697.27,396.69,697.27 H401.73 C401.99,697.27,402,697.27,402.07,697.46 L402.93,699.81 C402.97,699.93,402.97,699.95,402.97,699.96 C402.97,700.01,402.94,700.08,402.84,700.08 C402.74,700.08,402.73,700.03,402.66,699.85 C402.29,698.85,401.81,697.61,399.92,697.61 H398.9 C398.75,697.61,398.73,697.61,398.66,697.62 C398.55,697.63,398.52,697.64,398.52,697.73 C398.52,697.76,398.52,697.78,398.57,697.98 Z " />
<path
   id="path5079"
   fill="black"
   stroke-width="0"
   d="M179.71,671.25 L179.74,671.25 L179.77,671.25 L179.8,671.25 L179.82,671.25 L179.83,671.26 L179.85,671.26 L179.87,671.26 L179.88,671.26 L179.9,671.26 L179.91,671.27 L179.93,671.27 L179.94,671.27 L179.95,671.28 L179.97,671.28 L179.98,671.29 L179.99,671.3 L180,671.31 L180.01,671.31 L180.02,671.32 L180.03,671.33 L180.04,671.34 L180.05,671.35 L180.05,671.36 L180.05,671.36 L180.06,671.37 L180.06,671.38 L180.06,671.38 L180.07,671.39 L180.07,671.4 L180.07,671.41 L180.07,671.41 L180.07,671.42 L180.08,671.43 L180.08,671.44 L180.08,671.45 L180.08,671.46 L180.08,671.47 C180.08,671.69,179.87,671.69,179.72,671.69 H173.2 C173.04,671.69,172.84,671.69,172.84,671.47 C172.84,671.25,173.04,671.25,173.21,671.25 Z " />
<path
   id="path5081"
   fill="black"
   stroke-width="0"
   d="M179.72,669.14 L179.73,669.14 L179.75,669.14 L179.78,669.14 L179.81,669.14 L179.82,669.14 L179.84,669.14 L179.85,669.14 L179.87,669.15 L179.88,669.15 L179.9,669.15 L179.91,669.15 L179.93,669.16 L179.94,669.16 L179.96,669.17 L179.97,669.17 L179.98,669.18 L179.99,669.19 L180,669.19 L180.02,669.2 L180.03,669.21 L180.03,669.22 L180.04,669.23 L180.04,669.23 L180.05,669.24 L180.05,669.24 L180.05,669.25 L180.06,669.26 L180.06,669.26 L180.06,669.27 L180.07,669.28 L180.07,669.29 L180.07,669.29 L180.07,669.3 L180.07,669.31 L180.08,669.32 L180.08,669.33 L180.08,669.34 L180.08,669.35 L180.08,669.36 C180.08,669.58,179.87,669.58,179.71,669.58 H173.21 C173.04,669.58,172.84,669.58,172.84,669.36 C172.84,669.14,173.04,669.14,173.2,669.14 Z " />
<path
   id="path5083"
   fill="black"
   stroke-width="0"
   d="M188.6,679.01 L188.67,679.05 L188.75,679.09 L188.82,679.13 L188.88,679.17 L188.95,679.21 L189.01,679.26 L189.08,679.3 L189.14,679.35 L189.2,679.39 L189.25,679.44 L189.31,679.49 L189.36,679.54 L189.41,679.58 L189.46,679.64 L189.51,679.69 L189.55,679.74 L189.6,679.79 L189.64,679.85 L189.67,679.9 L189.71,679.96 L189.74,680.01 L189.77,680.07 L189.8,680.13 L189.82,680.19 L189.85,680.25 L189.86,680.31 L189.88,680.38 L189.89,680.44 L189.91,680.5 L189.91,680.57 L189.92,680.63 L189.92,680.7 C189.92,681.7,188.95,682.32,187.96,682.32 L187.95,682.05 C188.74,682.05,189.44,681.48,189.44,680.7 C189.44,680.08,189.01,679.56,188.36,679.18 L187.01,680.05 C186.51,680.38,186.47,680.74,186.47,680.93 C186.47,681.59,187.18,682.05,187.95,682.05 L187.96,682.32 C186.87,682.32,185.99,681.52,185.99,680.51 C185.99,680.31,186.01,679.82,186.47,679.31 C186.59,679.18,186.99,678.91,187.26,678.72 L187.51,678.56 L188.85,677.71 C189.16,677.5,189.67,677.17,189.67,676.51 C189.67,675.7,188.85,675.14,187.96,675.14 C187.02,675.14,186.24,675.81,186.24,676.72 C186.24,677.35,186.59,678.04,187.51,678.56 H187.51 L187.26,678.72 C186.63,678.4,185.69,677.79,185.69,676.72 C185.69,675.56,186.8,674.83,187.95,674.83 C189.18,674.83,190.21,675.74,190.21,676.9 C190.21,677.29,190.09,677.78,189.68,678.24 C189.47,678.47,189.3,678.58,188.6,679.01 Z " />
<path
   id="path5085"
   fill="black"
   stroke-width="0"
   d="M193.89,682.04 L193.89,682.05 L193.89,682.06 L193.89,682.08 L193.89,682.09 L193.89,682.1 L193.89,682.11 L193.89,682.12 L193.89,682.13 L193.89,682.14 L193.89,682.15 L193.89,682.16 L193.89,682.16 L193.89,682.17 L193.89,682.18 L193.89,682.19 L193.89,682.2 L193.89,682.2 L193.89,682.21 L193.89,682.22 L193.88,682.23 L193.88,682.25 L193.88,682.26 L193.87,682.26 L193.87,682.27 L193.86,682.28 L193.86,682.29 L193.85,682.29 L193.84,682.3 L193.83,682.3 L193.82,682.31 L193.82,682.31 L193.81,682.31 L193.81,682.31 L193.8,682.31 L193.79,682.32 L193.79,682.32 L193.78,682.32 L193.77,682.32 L193.77,682.32 L193.76,682.32 L193.75,682.32 L193.74,682.32 L193.73,682.32 L193.72,682.32 L193.72,682.32 L193.71,682.32 L193.7,682.32 L193.69,682.32 L193.68,682.32 L193.66,682.32 L193.65,682.32 L193.64,682.32 C192.97,681.63,192.01,681.63,191.66,681.63 V681.29 C191.88,681.29,192.52,681.29,193.09,681.57 V675.93 C193.09,675.54,193.05,675.41,192.07,675.41 H191.73 V675.07 C192.11,675.1,193.05,675.1,193.49,675.1 C193.93,675.1,194.87,675.1,195.25,675.07 V675.41 H194.9 C193.93,675.41,193.89,675.53,193.89,675.93 Z " />
<path
   id="path5087"
   fill="black"
   stroke-width="0"
   d="M200.22,681.66 L200.23,681.7 L200.24,681.73 L200.24,681.76 L200.25,681.79 L200.26,681.82 L200.27,681.85 L200.28,681.88 L200.3,681.91 L200.31,681.93 L200.32,681.95 L200.34,681.97 L200.36,681.99 L200.38,682.01 L200.4,682.03 L200.42,682.05 L200.45,682.06 L200.48,682.08 L200.51,682.09 L200.54,682.1 L200.58,682.11 L200.6,682.12 L200.63,682.12 L200.65,682.13 L200.67,682.13 L200.7,682.14 L200.72,682.14 L200.75,682.14 L200.77,682.15 L200.8,682.15 L200.83,682.15 L200.86,682.15 L200.89,682.16 L200.93,682.16 L200.96,682.16 L201,682.16 L201.03,682.17 L201.07,682.17 L201.11,682.17 L201.15,682.17 L201.19,682.17 L201.23,682.17 L201.28,682.17 L201.32,682.17 L201.37,682.17 C201.7,682.17,201.79,682.17,201.79,682.38 C201.79,682.51,201.67,682.51,201.61,682.51 C201.25,682.51,200.36,682.48,200,682.48 C199.67,682.48,198.88,682.51,198.55,682.51 C198.48,682.51,198.35,682.51,198.35,682.29 C198.35,682.17,198.44,682.17,198.65,682.17 C198.67,682.17,198.88,682.17,199.06,682.15 C199.26,682.13,199.36,682.12,199.36,681.97 C199.36,681.93,199.35,681.9,199.32,681.77 L197.86,675.92 C197.75,675.5,197.73,675.41,196.87,675.41 C196.68,675.41,196.57,675.41,196.57,675.19 C196.57,675.07,196.67,675.07,196.87,675.07 H201.91 C202.17,675.07,202.18,675.07,202.24,675.26 L203.1,677.61 C203.15,677.73,203.15,677.75,203.15,677.76 C203.15,677.8,203.12,677.88,203.02,677.88 C202.92,677.88,202.91,677.83,202.83,677.65 C202.46,676.65,201.98,675.41,200.1,675.41 H199.07 C198.92,675.41,198.9,675.41,198.84,675.42 C198.73,675.43,198.69,675.44,198.69,675.53 C198.69,675.56,198.69,675.58,198.75,675.78 Z " />
<path
   id="path5089"
   fill="black"
   stroke-width="0"
   d="M205.58,681.68 L205.64,681.68 L205.7,681.68 L205.75,681.67 L205.81,681.66 L205.86,681.65 L205.91,681.64 L205.96,681.62 L206.01,681.6 L206.06,681.58 L206.1,681.55 L206.14,681.53 L206.18,681.5 L206.22,681.46 L206.26,681.43 L206.3,681.39 L206.33,681.35 L206.36,681.31 L206.4,681.26 L206.42,681.22 L206.45,681.17 L206.48,681.11 L206.5,681.06 L206.52,681 L206.54,680.94 L206.55,680.88 L206.57,680.82 L206.58,680.75 L206.59,680.69 L206.6,680.61 L206.61,680.54 L206.61,680.47 L206.61,680.39 C206.61,679.4,206.04,679.1,205.62,679.1 C205.19,679.1,204.59,679.26,204.31,679.68 C204.6,679.68,204.8,679.86,204.8,680.13 C204.8,680.38,204.61,680.57,204.36,680.57 C204.14,680.57,203.92,680.43,203.92,680.11 C203.92,679.36,204.73,678.86,205.64,678.86 C206.7,678.86,207.44,679.59,207.44,680.39 C207.44,681.05,206.91,681.65,206.1,681.83 C206.73,682.05,207.2,682.59,207.2,683.23 C207.2,683.86,206.48,684.32,205.65,684.32 C204.8,684.32,204.16,683.85,204.16,683.25 C204.16,682.96,204.36,682.83,204.57,682.83 C204.81,682.83,204.97,683,204.97,683.23 C204.97,683.53,204.72,683.64,204.54,683.65 C204.88,684.09,205.49,684.11,205.63,684.11 C205.84,684.11,206.44,684.04,206.44,683.23 C206.44,682.67,206.21,682.34,206.1,682.21 C205.86,681.96,205.68,681.95,205.19,681.92 C205.04,681.91,204.98,681.9,204.98,681.8 C204.98,681.68,205.05,681.68,205.19,681.68 Z " />
<line
   id="line5091"
   stroke-width="0.436"
   y2="670.42"
   x2="208.6"
   y1="670.42"
   x1="184.94" />
<path
   id="path5093"
   fill="black"
   stroke-width="0"
   d="M186.32,661.05 L187.47,662.17 C189.17,663.67,189.83,664.26,189.83,665.35 C189.83,666.59,188.85,667.46,187.52,667.46 C186.29,667.46,185.48,666.46,185.48,665.49 C185.48,664.88,186.03,664.88,186.06,664.88 C186.24,664.88,186.62,665.01,186.62,665.46 C186.62,665.74,186.43,666.02,186.05,666.02 C185.96,666.02,185.94,666.02,185.91,666.01 C186.16,666.72,186.74,667.12,187.38,667.12 C188.37,667.12,188.84,666.24,188.84,665.35 C188.84,664.48,188.29,663.62,187.69,662.94 L185.6,660.61 C185.48,660.49,185.48,660.47,185.48,660.21 H189.52 L189.83,662.1 H189.55 C189.5,661.78,189.42,661.3,189.31,661.14 C189.24,661.05,188.52,661.05,188.28,661.05 Z " />
<path
   id="path5095"
   fill="black"
   stroke-width="0"
   d="M198.1,662.75 L198.1,662.75 L198.11,662.76 L198.11,662.77 L198.11,662.78 L198.12,662.79 L198.12,662.8 L198.13,662.81 L198.13,662.82 L198.14,662.83 L198.14,662.84 L198.14,662.84 L198.14,662.85 L198.14,662.85 L198.15,662.86 L198.15,662.86 L198.15,662.87 L198.15,662.87 L198.15,662.88 L198.15,662.88 L198.15,662.88 L198.15,662.89 L198.16,662.89 L198.16,662.89 L198.16,662.9 L198.16,662.9 C198.16,662.91,198.16,663.02,198.02,663.02 C197.93,663.02,197.9,662.95,197.88,662.89 C197.18,661.28,196.77,660.55,194.91,660.55 H193.32 C193.17,660.55,193.15,660.55,193.08,660.56 C192.97,660.57,192.94,660.58,192.94,660.67 C192.94,660.7,192.94,660.72,192.99,660.92 L193.74,663.89 H194.81 C195.74,663.89,195.74,663.66,195.74,663.39 C195.74,663.31,195.74,663.18,195.66,662.85 C195.64,662.8,195.63,662.77,195.63,662.73 C195.63,662.68,195.67,662.61,195.77,662.61 C195.86,662.61,195.89,662.67,195.93,662.83 L196.55,665.38 C196.55,665.45,196.5,665.5,196.42,665.5 C196.33,665.5,196.3,665.43,196.27,665.3 C196.04,664.48,195.85,664.23,194.85,664.23 H193.82 L194.48,666.85 C194.57,667.23,194.58,667.28,195.06,667.28 H196.6 C197.93,667.28,198.25,666.96,198.25,666.07 C198.25,665.81,198.25,665.78,198.21,665.49 C198.21,665.42,198.2,665.35,198.2,665.29 C198.2,665.24,198.23,665.16,198.33,665.16 C198.45,665.16,198.46,665.23,198.48,665.43 L198.7,667.32 C198.73,667.61,198.68,667.61,198.41,667.61 H192.91 C192.69,667.61,192.58,667.61,192.58,667.4 C192.58,667.28,192.68,667.28,192.89,667.28 C193.29,667.28,193.59,667.28,193.59,667.08 C193.59,667.04,193.59,667.01,193.54,666.82 L192.1,661.06 C191.99,660.63,191.97,660.55,191.11,660.55 C190.93,660.55,190.81,660.55,190.81,660.34 C190.81,660.21,190.9,660.21,191.11,660.21 H196.76 C197.01,660.21,197.02,660.22,197.1,660.39 Z " />
<path
   id="path5097"
   fill="black"
   stroke-width="0"
   d="M203.15,666.81 L203.16,666.84 L203.17,666.88 L203.18,666.91 L203.19,666.94 L203.19,666.97 L203.2,667 L203.21,667.03 L203.23,667.05 L203.24,667.07 L203.25,667.1 L203.26,667.12 L203.28,667.14 L203.3,667.16 L203.32,667.17 L203.34,667.19 L203.36,667.2 L203.38,667.22 L203.41,667.23 L203.44,667.24 L203.48,667.25 L203.51,667.26 L203.53,667.27 L203.55,667.27 L203.57,667.27 L203.59,667.28 L203.61,667.28 L203.64,667.28 L203.66,667.29 L203.69,667.29 L203.71,667.29 L203.74,667.3 L203.77,667.3 L203.8,667.3 L203.82,667.3 L203.86,667.3 L203.89,667.3 L203.92,667.3 L203.95,667.31 L203.99,667.31 L204.03,667.31 L204.06,667.31 L204.1,667.31 L204.14,667.31 C204.4,667.31,204.49,667.31,204.49,667.52 C204.49,667.65,204.37,667.65,204.33,667.65 C204.01,667.65,203.21,667.61,202.89,667.61 C202.56,667.61,201.77,667.65,201.44,667.65 C201.36,667.65,201.22,667.65,201.22,667.43 C201.22,667.31,201.32,667.31,201.53,667.31 C201.99,667.31,202.28,667.31,202.28,667.1 C202.28,667.05,202.28,667.03,202.26,666.93 L200.79,661.06 C200.69,660.66,200.66,660.55,199.8,660.55 C199.55,660.55,199.45,660.55,199.45,660.33 C199.45,660.21,199.58,660.21,199.61,660.21 C199.93,660.21,200.72,660.24,201.04,660.24 C201.36,660.24,202.17,660.21,202.5,660.21 C202.58,660.21,202.71,660.21,202.71,660.42 C202.71,660.55,202.63,660.55,202.39,660.55 C202.19,660.55,202.14,660.55,201.92,660.57 C201.69,660.59,201.65,660.63,201.65,660.75 C201.65,660.84,201.67,660.93,201.69,661 Z " />
<path
   id="path5099"
   fill="black"
   stroke-width="0"
   d="M207.76,661.11 L207.76,661.19 L207.76,661.26 L207.76,661.34 L207.76,661.41 L207.75,661.48 L207.75,661.55 L207.75,661.62 L207.74,661.69 L207.74,661.75 L207.73,661.82 L207.73,661.88 L207.72,661.94 L207.7,662.06 L207.68,662.17 L207.66,662.28 L207.64,662.39 L207.61,662.49 L207.58,662.6 L207.54,662.69 L207.5,662.79 L207.46,662.89 L207.41,662.98 C207.06,663.68,206.42,663.86,205.98,663.86 V663.64 C206.25,663.64,206.8,663.5,206.96,662.78 C207.05,662.34,207.05,661.74,207.05,661.2 C207.05,660.73,207.05,660.02,206.96,659.57 C206.79,658.74,206.24,658.63,205.98,658.63 H205.98 C205.71,658.63,205.16,658.76,204.99,659.59 C204.9,660.04,204.9,660.79,204.9,661.2 C204.9,661.75,204.9,662.31,204.99,662.74 C205.16,663.56,205.78,663.64,205.98,663.64 V663.86 C204.98,663.86,204.61,663.11,204.5,662.89 C204.21,662.31,204.2,661.52,204.2,661.11 C204.2,660.58,204.22,659.78,204.6,659.15 C204.97,658.56,205.56,658.41,205.98,658.41 C206.36,658.41,207.04,658.53,207.44,659.31 C207.74,659.88,207.76,660.59,207.76,661.11 Z " />
</g>  </g>
</svg>
