<?xml version="1.0" encoding="UTF-8" standalone="no"?>
<!-- Created with Inkscape (http://www.inkscape.org/) -->

<svg
   xmlns:ns0="http://www.iki.fi/pav/software/textext/"
   xmlns:dc="http://purl.org/dc/elements/1.1/"
   xmlns:cc="http://creativecommons.org/ns#"
   xmlns:rdf="http://www.w3.org/1999/02/22-rdf-syntax-ns#"
   xmlns:svg="http://www.w3.org/2000/svg"
   xmlns="http://www.w3.org/2000/svg"
   xmlns:xlink="http://www.w3.org/1999/xlink"
   xmlns:sodipodi="http://sodipodi.sourceforge.net/DTD/sodipodi-0.dtd"
   xmlns:inkscape="http://www.inkscape.org/namespaces/inkscape"
   width="270"
   height="271.37537"
   id="svg2"
   version="1.1"
   inkscape:version="0.92.4 (unknown)"
   sodipodi:docname="frame1-7.svg">
  <sodipodi:namedview
     id="base"
     pagecolor="#ffffff"
     bordercolor="#666666"
     borderopacity="1.0"
     inkscape:pageopacity="0.0"
     inkscape:pageshadow="2"
     inkscape:zoom="1.4283557"
     inkscape:cx="203.20065"
     inkscape:cy="89.257456"
     inkscape:document-units="in"
     inkscape:current-layer="layer1"
     showgrid="true"
     units="in"
     inkscape:window-width="1179"
     inkscape:window-height="979"
     inkscape:window-x="544"
     inkscape:window-y="74"
     inkscape:window-maximized="0"
     showguides="true"
     fit-margin-top="0.1"
     fit-margin-right="0.1"
     fit-margin-left="0.1"
     fit-margin-bottom="0.1">
    <inkscape:grid
       spacingy="9"
       spacingx="9"
       units="in"
       snapvisiblegridlinesonly="true"
       enabled="true"
       visible="true"
       empspacing="5"
       id="grid2985"
       type="xygrid"
       originx="0"
       originy="0" />
    <sodipodi:guide
       id="guide3042"
       orientation="0,765"
       position="-182.05044,-632.12256"
       inkscape:locked="false" />
    <sodipodi:guide
       id="guide3044"
       orientation="-990,0"
       position="582.94956,-632.12256"
       inkscape:locked="false" />
    <sodipodi:guide
       id="guide3046"
       orientation="0,-765"
       position="582.94956,357.87744"
       inkscape:locked="false" />
    <sodipodi:guide
       id="guide3048"
       orientation="990,0"
       position="-182.05044,357.87744"
       inkscape:locked="false" />
    <sodipodi:guide
       id="guide3050"
       orientation="0,765"
       position="537.94956,-587.12256"
       inkscape:locked="false" />
    <sodipodi:guide
       id="guide3052"
       orientation="-990,0"
       position="537.94956,267.87744"
       inkscape:locked="false" />
    <sodipodi:guide
       id="guide3054"
       orientation="0,-765"
       position="-119.05044,267.87744"
       inkscape:locked="false" />
    <sodipodi:guide
       id="guide3056"
       orientation="990,0"
       position="-92.05044,294.87744"
       inkscape:locked="false" />
  </sodipodi:namedview>
  <script
     id="script3033"
     xlink:href="" />
  <defs
     id="defs4">
    <marker
       style="overflow:visible"
       id="Arrow1Mend"
       refX="0"
       refY="0"
       orient="auto"
       inkscape:stockid="Arrow1Mend">
      <path
         inkscape:connector-curvature="0"
         transform="matrix(-0.4,0,0,-0.4,-4,0)"
         style="fill-rule:evenodd;stroke:#000000;stroke-width:1pt;marker-start:none"
         d="M 0,0 5,-5 -12.5,0 5,5 0,0 z"
         id="path3952" />
    </marker>
    <marker
       inkscape:stockid="DimensionTick"
       orient="auto"
       refY="0"
       refX="0"
       id="DimensionTick"
       style="overflow:visible">
      <path
         inkscape:connector-curvature="0"
         d="M 0,0 8,8"
         style="stroke:#000000;stroke-width:1pt;marker-start:none"
         transform="translate(-4,-4)"
         id="path3934" />
    </marker>
    <marker
       id="MLArrowEnd"
       markerUnits="userSpaceOnUse"
       markerWidth="10"
       markerHeight="6"
       orient="auto"
       viewBox="0 0 10 6"
       refX="2"
       refY="3">
      <path
         d="M 0,0 10,3 0,6 2,3 z"
         id="path3454"
         inkscape:connector-curvature="0" />
    </marker>
  </defs>
  <metadata
     id="metadata7">
    <rdf:RDF>
      <cc:Work
         rdf:about="">
        <dc:format>image/svg+xml</dc:format>
        <dc:type
           rdf:resource="http://purl.org/dc/dcmitype/StillImage" />
        <dc:title />
        <cc:license
           rdf:resource="http://creativecommons.org/licenses/by-nc/3.0/" />
      </cc:Work>
      <cc:License
         rdf:about="http://creativecommons.org/licenses/by-nc/3.0/">
        <cc:permits
           rdf:resource="http://creativecommons.org/ns#Reproduction" />
        <cc:permits
           rdf:resource="http://creativecommons.org/ns#Distribution" />
        <cc:requires
           rdf:resource="http://creativecommons.org/ns#Notice" />
        <cc:requires
           rdf:resource="http://creativecommons.org/ns#Attribution" />
        <cc:prohibits
           rdf:resource="http://creativecommons.org/ns#CommercialUse" />
        <cc:permits
           rdf:resource="http://creativecommons.org/ns#DerivativeWorks" />
      </cc:License>
    </rdf:RDF>
  </metadata>
  <g
     transform="translate(-182.05044,-148.86409)"
     id="layer1"
     inkscape:groupmode="layer"
     inkscape:label="Layer 1">
    <path
       sodipodi:nodetypes="ccc"
       transform="translate(0,62.362)"
       inkscape:connector-curvature="0"
       id="path3973"
       d="m 225,315 0,-180 135,0"
       style="fill:none;stroke:#000000;stroke-width:3;stroke-linecap:square;stroke-linejoin:miter;stroke-miterlimit:4;stroke-opacity:1;stroke-dasharray:none;stroke-dashoffset:0" />
    <text
       transform="translate(0,62.362)"
       id="text3112"
       y="149.87312"
       x="282.14261"
       style="font-style:normal;font-variant:normal;font-weight:normal;font-stretch:normal;line-height:0%;font-family:Verdana;-inkscape-font-specification:Sans;text-align:start;letter-spacing:0px;word-spacing:0px;writing-mode:lr-tb;text-anchor:start;fill:#000000;fill-opacity:1;stroke:none"
       xml:space="preserve"><tspan
         y="149.87312"
         x="282.14261"
         id="tspan3114"
         sodipodi:role="line"
         style="font-size:11px;line-height:1.25">2EI<tspan
   id="tspan3122"
   style="font-size:65.00091553%;baseline-shift:sub">0</tspan></tspan></text>
    <text
       transform="translate(0,62.362)"
       id="text3116"
       y="228.28497"
       x="231.0349"
       style="font-style:normal;font-variant:normal;font-weight:normal;font-stretch:normal;line-height:0%;font-family:Verdana;-inkscape-font-specification:Sans;text-align:start;letter-spacing:0px;word-spacing:0px;writing-mode:lr-tb;text-anchor:start;fill:#000000;fill-opacity:1;stroke:none"
       xml:space="preserve"><tspan
         y="228.28497"
         x="231.0349"
         id="tspan3118"
         sodipodi:role="line"
         style="font-size:11px;line-height:1.25">EI<tspan
   id="tspan3120"
   style="font-size:65.00091553%;baseline-shift:sub">0</tspan></tspan></text>
    <path
       inkscape:connector-curvature="0"
       id="path3124"
       d="m 387,377.362 -18,0"
       style="fill:none;stroke:#4d4d4d;stroke-width:0.75;stroke-linecap:square;stroke-linejoin:miter;stroke-miterlimit:4;stroke-opacity:1;stroke-dasharray:none;stroke-dashoffset:0" />
    <path
       inkscape:connector-curvature="0"
       id="path3126"
       d="m 387,197.362 -18,0"
       style="fill:none;stroke:#4d4d4d;stroke-width:0.75;stroke-linecap:square;stroke-linejoin:miter;stroke-miterlimit:4;stroke-opacity:1;stroke-dasharray:none;stroke-dashoffset:0" />
    <path
       inkscape:connector-curvature="0"
       id="path3128"
       d="m 378,197.362 0,180"
       style="fill:none;stroke:#4d4d4d;stroke-width:0.72000003;stroke-linecap:square;stroke-linejoin:miter;stroke-miterlimit:4;stroke-opacity:1;stroke-dasharray:none;stroke-dashoffset:0;marker-start:url(#DimensionTick);marker-end:url(#DimensionTick)" />
    <path
       transform="translate(0,62.362)"
       inkscape:connector-curvature="0"
       id="path3130"
       d="m 225,99 0,18"
       style="fill:none;stroke:#4d4d4d;stroke-width:0.75;stroke-linecap:square;stroke-linejoin:miter;stroke-miterlimit:4;stroke-opacity:1;stroke-dasharray:none;stroke-dashoffset:0" />
    <path
       transform="translate(0,62.362)"
       inkscape:connector-curvature="0"
       id="path3132"
       d="m 360,99 0,18"
       style="fill:none;stroke:#4d4d4d;stroke-width:0.75;stroke-linecap:square;stroke-linejoin:miter;stroke-miterlimit:4;stroke-opacity:1;stroke-dasharray:none;stroke-dashoffset:0" />
    <path
       transform="translate(0,62.362)"
       inkscape:connector-curvature="0"
       id="path3134"
       d="m 225,108 135,0"
       style="fill:none;stroke:#4d4d4d;stroke-width:0.72000003;stroke-linecap:square;stroke-linejoin:miter;stroke-miterlimit:4;stroke-opacity:1;stroke-dasharray:none;stroke-dashoffset:0;marker-start:url(#DimensionTick);marker-end:url(#DimensionTick)" />
    <path
       inkscape:connector-curvature="0"
       id="path4578"
       d="m 191.80044,197.362 27,0"
       style="fill:none;stroke:#000000;stroke-width:1.5;stroke-linecap:square;stroke-linejoin:miter;stroke-miterlimit:4;stroke-opacity:1;stroke-dasharray:none;stroke-dashoffset:0;marker-end:url(#Arrow1Mend)" />
    <text
       transform="translate(0,62.362)"
       id="text4772"
       y="128.86996"
       x="195.3295"
       style="font-style:normal;font-variant:normal;font-weight:normal;font-stretch:normal;line-height:0%;font-family:Verdana;-inkscape-font-specification:Sans;text-align:start;letter-spacing:0px;word-spacing:0px;writing-mode:lr-tb;text-anchor:start;fill:#000000;fill-opacity:1;stroke:none"
       xml:space="preserve"><tspan
         y="128.86996"
         x="195.3295"
         id="tspan4774"
         sodipodi:role="line"
         style="font-size:11px;line-height:1.25">P</tspan></text>
    <text
       transform="translate(0,62.362)"
       id="text4776"
       y="103.66615"
       x="287.74344"
       style="font-style:normal;font-variant:normal;font-weight:normal;font-stretch:normal;line-height:0%;font-family:Verdana;-inkscape-font-specification:Sans;text-align:start;letter-spacing:0px;word-spacing:0px;writing-mode:lr-tb;text-anchor:start;fill:#000000;fill-opacity:1;stroke:none"
       xml:space="preserve"><tspan
         y="103.66615"
         x="287.74344"
         id="tspan4778"
         sodipodi:role="line"
         style="font-size:11px;line-height:1.25">3L</tspan></text>
    <text
       transform="rotate(-90)"
       id="text4780"
       y="372.02896"
       x="-298.32458"
       style="font-style:normal;font-variant:normal;font-weight:normal;font-stretch:normal;line-height:0%;font-family:Verdana;-inkscape-font-specification:Sans;text-align:start;letter-spacing:0px;word-spacing:0px;writing-mode:lr-tb;text-anchor:start;fill:#000000;fill-opacity:1;stroke:none"
       xml:space="preserve"><tspan
         y="372.02896"
         x="-298.32458"
         id="tspan4782"
         sodipodi:role="line"
         style="font-size:11px;line-height:1.25">4L</tspan></text>
    <path
       style="fill:none;stroke:#000000;stroke-width:1.5;stroke-linecap:square;stroke-linejoin:miter;stroke-miterlimit:4;stroke-opacity:1;stroke-dasharray:none;stroke-dashoffset:0;marker-end:url(#Arrow1Mend)"
       d="m 258.17544,376.82881 -27,0"
       id="path4822"
       inkscape:connector-curvature="0" />
    <path
       inkscape:connector-curvature="0"
       id="path4824"
       d="m 224.95011,380.30359 0,27"
       style="fill:none;stroke:#000000;stroke-width:1.5;stroke-linecap:square;stroke-linejoin:miter;stroke-miterlimit:4;stroke-opacity:1;stroke-dasharray:none;stroke-dashoffset:0;marker-end:url(#Arrow1Mend)" />
    <path
       style="fill:none;stroke:#000000;stroke-width:1.5;stroke-linecap:square;stroke-linejoin:miter;stroke-miterlimit:4;stroke-opacity:1;stroke-dasharray:none;stroke-dashoffset:0;marker-end:url(#Arrow1Mend)"
       d="m 360.05044,228.32826 0,-27"
       id="path4826"
       inkscape:connector-curvature="0" />
    <path
       id="path3645"
       d="m 206.67544,367.92859 a 18.75,18.75 0 0 0 37.5,0"
       class="mload"
       inkscape:connector-curvature="0"
       style="fill:none;stroke:#000000;stroke-width:1.25;marker-end:url(#MLArrowEnd);visibility:visible" />
    <text
       id="text5173"
       y="376.72638"
       x="216.35562"
       style="font-style:italic;font-variant:normal;font-weight:normal;font-stretch:normal;line-height:0%;font-family:Verdana;-inkscape-font-specification:'Sans Italic';text-align:start;letter-spacing:0px;word-spacing:0px;writing-mode:lr-tb;text-anchor:start;fill:#000000;fill-opacity:1;stroke:none"
       xml:space="preserve"><tspan
         y="376.72638"
         x="216.35562"
         id="tspan5175"
         sodipodi:role="line"
         style="font-size:9px;line-height:1.25">a</tspan></text>
    <text
       id="text5177"
       y="206.60068"
       x="229.15816"
       style="font-style:italic;font-variant:normal;font-weight:normal;font-stretch:normal;line-height:0%;font-family:Verdana;-inkscape-font-specification:'Sans Italic';text-align:start;letter-spacing:0px;word-spacing:0px;writing-mode:lr-tb;text-anchor:start;fill:#000000;fill-opacity:1;stroke:none"
       xml:space="preserve"><tspan
         y="206.60068"
         x="229.15816"
         id="tspan5179"
         sodipodi:role="line"
         style="font-size:9px;line-height:1.25">b</tspan></text>
    <text
       id="text5181"
       y="205.20047"
       x="351.3757"
       style="font-style:italic;font-variant:normal;font-weight:normal;font-stretch:normal;line-height:0%;font-family:Verdana;-inkscape-font-specification:'Sans Italic';text-align:start;letter-spacing:0px;word-spacing:0px;writing-mode:lr-tb;text-anchor:start;fill:#000000;fill-opacity:1;stroke:none"
       xml:space="preserve"><tspan
         y="205.20047"
         x="351.3757"
         id="tspan5183"
         sodipodi:role="line"
         style="font-size:9px;line-height:1.25">c</tspan></text>
    <text
       id="text5185"
       y="276.23947"
       x="308.05045"
       style="font-style:normal;font-variant:normal;font-weight:normal;font-stretch:normal;line-height:0%;font-family:Verdana;-inkscape-font-specification:Sans;text-align:center;letter-spacing:0px;word-spacing:0px;writing-mode:lr-tb;text-anchor:middle;fill:#000000;fill-opacity:1;stroke:none"
       xml:space="preserve"><tspan
         id="tspan5189"
         y="276.23947"
         x="308.05045"
         sodipodi:role="line"
         style="font-size:11px;line-height:1.25">Summary</tspan></text>
    <g
       ns0:preamble="/home/nholtz/work/share/config/inkscape/extensions/amspreamble.tex"
       ns0:text="\\[\n\\frac{16}{27}P\n\\]\n"
       word-spacing="normal"
       letter-spacing="normal"
       font-size-adjust="none"
       font-stretch="normal"
       font-weight="normal"
       font-variant="normal"
       font-style="normal"
       stroke-miterlimit="10.433"
       xml:space="preserve"
       transform="matrix(1.1,0,0,-1.1,163.0531,998.11097)"
       id="content"
       style="font-style:normal;font-variant:normal;font-weight:normal;font-stretch:normal;letter-spacing:normal;word-spacing:normal;text-anchor:start;fill:none;stroke:#000000;stroke-linecap:butt;stroke-linejoin:miter;stroke-miterlimit:10.43299961;stroke-opacity:1;stroke-dasharray:none;stroke-dashoffset:0">
<path
   id="path5499"
   d="m 157.47,712.04 0,0.02 0,0.01 0,0.01 0,0.01 0,0.01 0,0.01 0,0.01 0,0.01 0,0.01 0,0.01 0,0.01 0,0.01 0,0.01 0,0 -0.01,0.01 0,0.01 0,0.01 0,0 0,0.02 0,0.01 -0.01,0.01 0,0.01 0,0.01 -0.01,0.01 0,0 -0.01,0.01 -0.01,0.01 0,0 -0.01,0.01 -0.01,0 -0.01,0 0,0 -0.01,0.01 0,0 -0.01,0 -0.01,0 0,0 -0.01,0 -0.01,0 -0.01,0 0,0 -0.01,0.01 -0.01,0 -0.01,0 -0.01,0 -0.01,0 -0.01,0 -0.01,0 -0.01,0 -0.01,0 -0.01,0 -0.01,0 c -0.68,-0.7 -1.63,-0.7 -1.98,-0.7 v -0.34 c 0.21,0 0.86,0 1.42,0.29 v -5.64 c 0,-0.4 -0.03,-0.53 -1.01,-0.53 h -0.35 v -0.33 c 0.38,0.03 1.33,0.03 1.77,0.03 0.43,0 1.38,0 1.76,-0.03 v 0.33 h -0.35 c -0.98,0 -1.01,0.12 -1.01,0.53 z"
   inkscape:connector-curvature="0"
   style="fill:#000000;stroke-width:0" />
<path
   id="path5501"
   d="m 161.16,708.65 v 0.26 c 0,2.75 1.35,3.15 1.9,3.15 0.27,0 0.72,-0.07 0.96,-0.44 -0.16,0 -0.6,0 -0.6,-0.49 0,-0.34 0.26,-0.5 0.5,-0.5 0.18,0 0.51,0.1 0.51,0.52 0,0.65 -0.48,1.18 -1.39,1.18 -1.39,0 -2.86,-1.41 -2.86,-3.81 0,-2.91 1.26,-3.68 2.28,-3.68 1.2,0 2.24,1.02 2.24,2.46 0,1.38 -0.97,2.42 -2.18,2.42 l -0.01,-0.25 c 0.17,0 0.67,0 1.01,-0.67 0.2,-0.4 0.2,-0.96 0.2,-1.49 0,-0.52 0,-1.07 -0.19,-1.46 -0.32,-0.65 -0.82,-0.71 -1.07,-0.71 h 0 c -0.69,0 -1.02,0.65 -1.08,0.82 -0.2,0.51 -0.2,1.38 -0.2,1.58 0,0.85 0.35,1.93 1.33,1.93 l 0.01,0.25 c -0.74,0 -1.14,-0.55 -1.36,-1.07 z"
   inkscape:connector-curvature="0"
   style="fill:#000000;stroke-width:0" />
<line
   id="line5503"
   y2="700.41998"
   x2="165.17999"
   y1="700.41998"
   x1="154.27"
   style="stroke-width:0.43599999" />
<path
   id="path5505"
   d="m 155.65,691.05 1.15,1.12 c 1.7,1.51 2.36,2.09 2.36,3.18 0,1.24 -0.98,2.12 -2.31,2.12 -1.23,0 -2.04,-1.01 -2.04,-1.98 0,-0.61 0.55,-0.61 0.58,-0.61 0.18,0 0.57,0.14 0.57,0.58 0,0.28 -0.2,0.57 -0.58,0.57 -0.09,0 -0.11,0 -0.14,-0.01 0.25,0.7 0.83,1.11 1.47,1.11 0.99,0 1.45,-0.89 1.45,-1.78 0,-0.87 -0.54,-1.73 -1.14,-2.4 l -2.09,-2.33 c -0.12,-0.12 -0.12,-0.15 -0.12,-0.41 h 4.04 l 0.31,1.9 h -0.28 c -0.05,-0.33 -0.13,-0.81 -0.24,-0.97 -0.07,-0.09 -0.79,-0.09 -1.03,-0.09 z"
   inkscape:connector-curvature="0"
   style="fill:#000000;stroke-width:0" />
<path
   id="path5507"
   d="m 164.9,696.84 0.01,0.02 0.01,0.01 0.01,0.01 0.01,0.01 0,0.01 0.01,0.01 0.01,0.01 0,0.01 0.01,0.01 0,0 0,0.01 0.01,0.01 0,0.01 0,0.01 0.01,0.01 0,0.01 0,0.01 0,0.01 0.01,0.01 0,0.01 0,0.01 0,0.01 0,0.01 0,0.02 0,0.01 0,0.02 0,0.01 0,0.02 0,0.02 0,0.01 0,0.02 0,0.01 0,0.01 h -2.64 c -1.33,0 -1.35,0.15 -1.4,0.35 h -0.27 l -0.36,-2.24 h 0.27 c 0.04,0.18 0.13,0.86 0.28,0.99 0.07,0.07 0.92,0.07 1.06,0.07 h 2.26 c -0.12,-0.18 -0.98,-1.36 -1.22,-1.72 -0.98,-1.47 -1.34,-2.99 -1.34,-4.1 0,-0.11 0,-0.6 0.5,-0.6 0.5,0 0.5,0.49 0.5,0.6 v 0.56 c 0,0.6 0.03,1.2 0.12,1.78 0.04,0.25 0.2,1.19 0.67,1.87 z"
   inkscape:connector-curvature="0"
   style="fill:#000000;stroke-width:0" />
<path
   id="path5509"
   d="m 169.67,701.14 0.04,0.28 0.74,2.96 c 0.1,0.38 0.12,0.41 0.59,0.41 h 1.05 c 0.9,0 1.48,-0.29 1.48,-1.04 0,-0.42 -0.22,-1.36 -0.64,-1.75 -0.55,-0.49 -1.2,-0.58 -1.68,-0.58 h -1.54 l -0.04,-0.28 h 1.85 c 1.55,0 3.06,1.13 3.06,2.35 0,0.84 -0.72,1.64 -2.14,1.64 h -3.53 c -0.21,0 -0.33,0 -0.33,-0.2 0,-0.14 0.1,-0.14 0.32,-0.14 0.14,0 0.34,-0.01 0.47,-0.02 0.17,-0.02 0.23,-0.05 0.23,-0.17 0,-0.04 -0.01,-0.08 -0.04,-0.21 l -1.46,-5.85 c -0.11,-0.42 -0.13,-0.51 -0.99,-0.51 -0.18,0 -0.3,0 -0.3,-0.2 0,-0.13 0.13,-0.13 0.16,-0.13 0.3,0 1.08,0.03 1.38,0.03 0.23,0 0.47,-0.01 0.7,-0.01 0.24,0 0.48,-0.02 0.71,-0.02 0.07,0 0.22,0 0.22,0.21 0,0.12 -0.1,0.12 -0.31,0.12 -0.4,0 -0.71,0 -0.71,0.2 0,0.06 0.02,0.12 0.03,0.18 z"
   inkscape:connector-curvature="0"
   style="fill:#000000;stroke-width:0" />
</g>    <g
       style="font-style:normal;font-variant:normal;font-weight:normal;font-stretch:normal;letter-spacing:normal;word-spacing:normal;text-anchor:start;fill:none;stroke:#000000;stroke-linecap:butt;stroke-linejoin:miter;stroke-miterlimit:10.43299961;stroke-opacity:1;stroke-dasharray:none;stroke-dashoffset:0"
       id="g5570"
       transform="matrix(1.1,0,0,-1.1,63.0531,1174.111)"
       xml:space="preserve"
       stroke-miterlimit="10.433"
       font-style="normal"
       font-variant="normal"
       font-weight="normal"
       font-stretch="normal"
       font-size-adjust="none"
       letter-spacing="normal"
       word-spacing="normal"
       ns0:text="\\[\n\\frac{16}{27}P\n\\]\n"
       ns0:preamble="/home/nholtz/work/share/config/inkscape/extensions/amspreamble.tex">
<path
   style="fill:#000000;stroke-width:0"
   inkscape:connector-curvature="0"
   d="m 157.47,712.04 0,0.02 0,0.01 0,0.01 0,0.01 0,0.01 0,0.01 0,0.01 0,0.01 0,0.01 0,0.01 0,0.01 0,0.01 0,0.01 0,0 -0.01,0.01 0,0.01 0,0.01 0,0 0,0.02 0,0.01 -0.01,0.01 0,0.01 0,0.01 -0.01,0.01 0,0 -0.01,0.01 -0.01,0.01 0,0 -0.01,0.01 -0.01,0 -0.01,0 0,0 -0.01,0.01 0,0 -0.01,0 -0.01,0 0,0 -0.01,0 -0.01,0 -0.01,0 0,0 -0.01,0.01 -0.01,0 -0.01,0 -0.01,0 -0.01,0 -0.01,0 -0.01,0 -0.01,0 -0.01,0 -0.01,0 -0.01,0 c -0.68,-0.7 -1.63,-0.7 -1.98,-0.7 v -0.34 c 0.21,0 0.86,0 1.42,0.29 v -5.64 c 0,-0.4 -0.03,-0.53 -1.01,-0.53 h -0.35 v -0.33 c 0.38,0.03 1.33,0.03 1.77,0.03 0.43,0 1.38,0 1.76,-0.03 v 0.33 h -0.35 c -0.98,0 -1.01,0.12 -1.01,0.53 z"
   id="path5572" />
<path
   style="fill:#000000;stroke-width:0"
   inkscape:connector-curvature="0"
   d="m 161.16,708.65 v 0.26 c 0,2.75 1.35,3.15 1.9,3.15 0.27,0 0.72,-0.07 0.96,-0.44 -0.16,0 -0.6,0 -0.6,-0.49 0,-0.34 0.26,-0.5 0.5,-0.5 0.18,0 0.51,0.1 0.51,0.52 0,0.65 -0.48,1.18 -1.39,1.18 -1.39,0 -2.86,-1.41 -2.86,-3.81 0,-2.91 1.26,-3.68 2.28,-3.68 1.2,0 2.24,1.02 2.24,2.46 0,1.38 -0.97,2.42 -2.18,2.42 l -0.01,-0.25 c 0.17,0 0.67,0 1.01,-0.67 0.2,-0.4 0.2,-0.96 0.2,-1.49 0,-0.52 0,-1.07 -0.19,-1.46 -0.32,-0.65 -0.82,-0.71 -1.07,-0.71 h 0 c -0.69,0 -1.02,0.65 -1.08,0.82 -0.2,0.51 -0.2,1.38 -0.2,1.58 0,0.85 0.35,1.93 1.33,1.93 l 0.01,0.25 c -0.74,0 -1.14,-0.55 -1.36,-1.07 z"
   id="path5574" />
<line
   style="stroke-width:0.43599999"
   x1="154.27"
   y1="700.41998"
   x2="165.17999"
   y2="700.41998"
   id="line5576" />
<path
   style="fill:#000000;stroke-width:0"
   inkscape:connector-curvature="0"
   d="m 155.65,691.05 1.15,1.12 c 1.7,1.51 2.36,2.09 2.36,3.18 0,1.24 -0.98,2.12 -2.31,2.12 -1.23,0 -2.04,-1.01 -2.04,-1.98 0,-0.61 0.55,-0.61 0.58,-0.61 0.18,0 0.57,0.14 0.57,0.58 0,0.28 -0.2,0.57 -0.58,0.57 -0.09,0 -0.11,0 -0.14,-0.01 0.25,0.7 0.83,1.11 1.47,1.11 0.99,0 1.45,-0.89 1.45,-1.78 0,-0.87 -0.54,-1.73 -1.14,-2.4 l -2.09,-2.33 c -0.12,-0.12 -0.12,-0.15 -0.12,-0.41 h 4.04 l 0.31,1.9 h -0.28 c -0.05,-0.33 -0.13,-0.81 -0.24,-0.97 -0.07,-0.09 -0.79,-0.09 -1.03,-0.09 z"
   id="path5578" />
<path
   style="fill:#000000;stroke-width:0"
   inkscape:connector-curvature="0"
   d="m 164.9,696.84 0.01,0.02 0.01,0.01 0.01,0.01 0.01,0.01 0,0.01 0.01,0.01 0.01,0.01 0,0.01 0.01,0.01 0,0 0,0.01 0.01,0.01 0,0.01 0,0.01 0.01,0.01 0,0.01 0,0.01 0,0.01 0.01,0.01 0,0.01 0,0.01 0,0.01 0,0.01 0,0.02 0,0.01 0,0.02 0,0.01 0,0.02 0,0.02 0,0.01 0,0.02 0,0.01 0,0.01 h -2.64 c -1.33,0 -1.35,0.15 -1.4,0.35 h -0.27 l -0.36,-2.24 h 0.27 c 0.04,0.18 0.13,0.86 0.28,0.99 0.07,0.07 0.92,0.07 1.06,0.07 h 2.26 c -0.12,-0.18 -0.98,-1.36 -1.22,-1.72 -0.98,-1.47 -1.34,-2.99 -1.34,-4.1 0,-0.11 0,-0.6 0.5,-0.6 0.5,0 0.5,0.49 0.5,0.6 v 0.56 c 0,0.6 0.03,1.2 0.12,1.78 0.04,0.25 0.2,1.19 0.67,1.87 z"
   id="path5580" />
<path
   style="fill:#000000;stroke-width:0"
   inkscape:connector-curvature="0"
   d="m 169.67,701.14 0.04,0.28 0.74,2.96 c 0.1,0.38 0.12,0.41 0.59,0.41 h 1.05 c 0.9,0 1.48,-0.29 1.48,-1.04 0,-0.42 -0.22,-1.36 -0.64,-1.75 -0.55,-0.49 -1.2,-0.58 -1.68,-0.58 h -1.54 l -0.04,-0.28 h 1.85 c 1.55,0 3.06,1.13 3.06,2.35 0,0.84 -0.72,1.64 -2.14,1.64 h -3.53 c -0.21,0 -0.33,0 -0.33,-0.2 0,-0.14 0.1,-0.14 0.32,-0.14 0.14,0 0.34,-0.01 0.47,-0.02 0.17,-0.02 0.23,-0.05 0.23,-0.17 0,-0.04 -0.01,-0.08 -0.04,-0.21 l -1.46,-5.85 c -0.11,-0.42 -0.13,-0.51 -0.99,-0.51 -0.18,0 -0.3,0 -0.3,-0.2 0,-0.13 0.13,-0.13 0.16,-0.13 0.3,0 1.08,0.03 1.38,0.03 0.23,0 0.47,-0.01 0.7,-0.01 0.24,0 0.48,-0.02 0.71,-0.02 0.07,0 0.22,0 0.22,0.21 0,0.12 -0.1,0.12 -0.31,0.12 -0.4,0 -0.71,0 -0.71,0.2 0,0.06 0.02,0.12 0.03,0.18 z"
   id="path5582" />
</g>    <g
       id="g5666"
       transform="matrix(1.1,0,0,-1.1,79.28744,1121.9495)"
       xml:space="preserve"
       stroke-miterlimit="10.433"
       font-style="normal"
       font-variant="normal"
       font-weight="normal"
       font-stretch="normal"
       font-size-adjust="none"
       letter-spacing="normal"
       word-spacing="normal"
       ns0:text="\\[\n\\frac{20}{9}PL\n\\]\n"
       ns0:preamble="/home/nholtz/work/share/config/inkscape/extensions/amspreamble.tex"
       style="font-style:normal;font-variant:normal;font-weight:normal;font-stretch:normal;letter-spacing:normal;word-spacing:normal;text-anchor:start;fill:none;stroke:#000000;stroke-linecap:butt;stroke-linejoin:miter;stroke-miterlimit:10.43299961;stroke-opacity:1;stroke-dasharray:none;stroke-dashoffset:0">
<path
   style="fill:#000000;stroke-width:0"
   inkscape:connector-curvature="0"
   d="m 155.65,705.91 1.15,1.13 c 1.7,1.5 2.36,2.09 2.36,3.18 0,1.24 -0.98,2.11 -2.31,2.11 -1.23,0 -2.04,-1 -2.04,-1.97 0,-0.61 0.55,-0.61 0.58,-0.61 0.18,0 0.57,0.13 0.57,0.57 0,0.29 -0.2,0.57 -0.58,0.57 -0.09,0 -0.11,0 -0.14,-0.01 0.25,0.71 0.83,1.11 1.47,1.11 0.99,0 1.45,-0.88 1.45,-1.77 0,-0.88 -0.54,-1.74 -1.14,-2.41 l -2.09,-2.33 c -0.12,-0.12 -0.12,-0.14 -0.12,-0.4 h 4.04 l 0.31,1.89 h -0.28 c -0.05,-0.33 -0.13,-0.81 -0.24,-0.97 -0.07,-0.09 -0.79,-0.09 -1.03,-0.09 z"
   id="path5668" />
<path
   style="fill:#000000;stroke-width:0"
   inkscape:connector-curvature="0"
   d="m 164.73,708.56 0,0.16 0,0.17 -0.01,0.16 0,0.16 -0.01,0.16 -0.02,0.17 -0.01,0.16 -0.02,0.16 -0.03,0.16 -0.03,0.16 -0.04,0.16 -0.04,0.15 -0.04,0.16 -0.06,0.15 -0.06,0.16 -0.03,0.07 -0.04,0.08 c -0.5,1.04 -1.39,1.22 -1.85,1.22 -0.65,0 -1.45,-0.29 -1.89,-1.3 -0.35,-0.75 -0.4,-1.6 -0.4,-2.47 0,-0.82 0.04,-1.8 0.49,-2.62 0.46,-0.89 1.26,-1.1 1.79,-1.1 v 0.24 c -0.42,0 -1.06,0.27 -1.26,1.31 -0.12,0.66 -0.12,1.66 -0.12,2.3 0,0.7 0,1.42 0.09,2 0.2,1.3 1.02,1.4 1.29,1.4 0.36,0 1.08,-0.2 1.29,-1.28 0.11,-0.61 0.11,-1.43 0.11,-2.12 0,-0.82 0,-1.56 -0.12,-2.25 -0.17,-1.04 -0.79,-1.36 -1.28,-1.36 h 0 v -0.24 c 0.59,0 1.42,0.23 1.9,1.26 0.35,0.75 0.4,1.6 0.4,2.46 z"
   id="path5670" />
<line
   style="stroke-width:0.43599999"
   x1="154.27"
   y1="700.41998"
   x2="165.17999"
   y2="700.41998"
   id="line5672" />
<path
   style="fill:#000000;stroke-width:0"
   inkscape:connector-curvature="0"
   d="m 160.99,693.68 v -0.35 c 0,-2.55 -1.13,-3.05 -1.76,-3.05 -0.19,0 -0.78,0.02 -1.07,0.39 0.48,0 0.57,0.32 0.57,0.5 0,0.34 -0.27,0.5 -0.51,0.5 -0.17,0 -0.5,-0.1 -0.5,-0.52 0,-0.73 0.59,-1.18 1.52,-1.18 1.4,0 2.73,1.48 2.73,3.82 0,2.93 -1.25,3.68 -2.22,3.68 -0.6,0 -1.13,-0.2 -1.6,-0.69 -0.45,-0.49 -0.7,-0.95 -0.7,-1.76 0,-1.37 0.96,-2.43 2.18,-2.43 l 0.01,0.25 c -0.17,0 -0.68,0 -1.01,0.68 -0.2,0.41 -0.2,0.95 -0.2,1.48 0,0.59 0,1.1 0.23,1.51 0.29,0.54 0.71,0.68 1.09,0.68 0.5,0 0.86,-0.37 1.04,-0.86 0.14,-0.35 0.18,-1.03 0.18,-1.53 0,-0.91 -0.37,-1.96 -1.33,-1.96 h 0 l -0.01,-0.25 c 0.66,0 1.11,0.45 1.36,1.09 z"
   id="path5674" />
<path
   style="fill:#000000;stroke-width:0"
   inkscape:connector-curvature="0"
   d="m 169.67,701.14 0.04,0.28 0.74,2.96 c 0.1,0.38 0.12,0.41 0.59,0.41 h 1.05 c 0.9,0 1.48,-0.29 1.48,-1.04 0,-0.42 -0.22,-1.36 -0.64,-1.75 -0.55,-0.49 -1.2,-0.58 -1.68,-0.58 h -1.54 l -0.04,-0.28 h 1.85 c 1.55,0 3.06,1.13 3.06,2.35 0,0.84 -0.72,1.64 -2.14,1.64 h -3.53 c -0.21,0 -0.33,0 -0.33,-0.2 0,-0.14 0.1,-0.14 0.32,-0.14 0.14,0 0.34,-0.01 0.47,-0.02 0.17,-0.02 0.23,-0.05 0.23,-0.17 0,-0.04 -0.01,-0.08 -0.04,-0.21 l -1.46,-5.85 c -0.11,-0.42 -0.13,-0.51 -0.99,-0.51 -0.18,0 -0.3,0 -0.3,-0.2 0,-0.13 0.13,-0.13 0.16,-0.13 0.3,0 1.08,0.03 1.38,0.03 0.23,0 0.47,-0.01 0.7,-0.01 0.24,0 0.48,-0.02 0.71,-0.02 0.07,0 0.22,0 0.22,0.21 0,0.12 -0.1,0.12 -0.31,0.12 -0.4,0 -0.71,0 -0.71,0.2 0,0.06 0.02,0.12 0.03,0.18 z"
   id="path5676" />
<path
   style="fill:#000000;stroke-width:0"
   inkscape:connector-curvature="0"
   d="m 178.96,704.28 0.01,0.04 0.01,0.03 0.01,0.04 0.01,0.03 0.01,0.03 0.01,0.03 0.01,0.02 0.01,0.03 0.01,0.02 0.02,0.03 0.01,0.02 0.02,0.02 0.02,0.02 0.02,0.01 0.03,0.02 0.02,0.02 0.03,0.01 0.03,0.01 0.04,0.02 0.04,0.01 0.02,0 0.02,0.01 0.02,0 0.03,0.01 0.02,0 0.03,0 0.02,0.01 0.03,0 0.03,0 0.03,0.01 0.03,0 0.03,0 0.03,0 0.04,0.01 0.03,0 0.04,0 0.04,0 0.03,0 0.04,0 0.05,0 0.04,0 0.04,0 0.05,0 0.05,0 c 0.32,0 0.41,0 0.41,0.21 0,0.13 -0.12,0.13 -0.17,0.13 -0.36,0 -1.26,-0.03 -1.61,-0.03 -0.33,0 -1.13,0.03 -1.45,0.03 -0.08,0 -0.21,0 -0.21,-0.22 0,-0.12 0.1,-0.12 0.31,-0.12 0.02,0 0.22,0 0.41,-0.02 0.2,-0.02 0.29,-0.03 0.29,-0.17 0,-0.04 -0.01,-0.08 -0.04,-0.21 l -1.46,-5.85 c -0.11,-0.42 -0.13,-0.51 -0.99,-0.51 -0.18,0 -0.29,0 -0.29,-0.21 0,-0.12 0.09,-0.12 0.29,-0.12 h 5.04 c 0.26,0 0.27,0 0.34,0.18 l 0.86,2.35 c 0.04,0.12 0.04,0.15 0.04,0.16 0,0.04 -0.03,0.12 -0.13,0.12 -0.1,0 -0.11,-0.06 -0.18,-0.23 -0.37,-1 -0.85,-2.25 -2.74,-2.25 h -1.02 c -0.15,0 -0.17,0 -0.24,0.01 -0.11,0.01 -0.14,0.03 -0.14,0.11 0,0.04 0,0.06 0.05,0.25 z"
   id="path5678" />
</g>    <g
       style="font-style:normal;font-variant:normal;font-weight:normal;font-stretch:normal;letter-spacing:normal;word-spacing:normal;text-anchor:start;fill:none;stroke:#000000;stroke-linecap:butt;stroke-linejoin:miter;stroke-miterlimit:10.43299961;stroke-opacity:1;stroke-dasharray:none;stroke-dashoffset:0"
       ns0:preamble="/home/nholtz/work/share/config/inkscape/extensions/amspreamble.tex"
       ns0:text="\\[\nP\n\\]\n"
       word-spacing="normal"
       letter-spacing="normal"
       font-size-adjust="none"
       font-stretch="normal"
       font-weight="normal"
       font-variant="normal"
       font-style="normal"
       stroke-miterlimit="10.433"
       xml:space="preserve"
       transform="matrix(1.1,0,0,-1.1,92.752146,1152.111)"
       id="g5842">
<path
   id="path5844"
   d="m 156.37,704.59 0.04,0.28 0.74,2.96 c 0.1,0.39 0.12,0.42 0.59,0.42 h 1.05 c 0.9,0 1.48,-0.3 1.48,-1.05 0,-0.42 -0.22,-1.36 -0.64,-1.75 -0.55,-0.49 -1.2,-0.58 -1.68,-0.58 h -1.54 l -0.04,-0.28 h 1.85 c 1.55,0 3.06,1.13 3.06,2.35 0,0.84 -0.72,1.65 -2.14,1.65 h -3.53 c -0.21,0 -0.33,0 -0.33,-0.21 0,-0.13 0.1,-0.13 0.32,-0.13 0.14,0 0.33,-0.01 0.47,-0.02 0.17,-0.03 0.23,-0.06 0.23,-0.18 0,-0.04 -0.01,-0.08 -0.04,-0.21 L 154.8,702 c -0.11,-0.43 -0.13,-0.51 -0.99,-0.51 -0.18,0 -0.3,0 -0.3,-0.21 0,-0.13 0.13,-0.13 0.16,-0.13 0.31,0 1.08,0.03 1.38,0.03 0.23,0 0.47,-0.01 0.7,-0.01 0.24,0 0.48,-0.02 0.71,-0.02 0.07,0 0.22,0 0.22,0.22 0,0.12 -0.1,0.12 -0.31,0.12 -0.4,0 -0.71,0 -0.71,0.19 0,0.07 0.02,0.12 0.04,0.19 z"
   inkscape:connector-curvature="0"
   style="fill:#000000;stroke-width:0" />
</g>  </g>
</svg>
