<?xml version="1.0" encoding="UTF-8" standalone="no"?>
<!DOCTYPE svg PUBLIC "-//W3C//DTD SVG 1.1//EN" "http://www.w3.org/Graphics/SVG/1.1/DTD/svg11.dtd">
<!-- Created with wpg2svg/libwpg 0.2.0 -->
<svg version="1.1" xmlns="http://www.w3.org/2000/svg" xmlns:xlink="http://www.w3.org/1999/xlink" width="640.8" height="244.8" >
<ellipse cx="395.7" cy="105" rx="9.78" ry="9.78" style="stroke-width: 1.0; stroke: #000000; fill: none; "/>
<polygon points="35.34 96.42, 384.24 96.42, 384.24 116.58, 35.34 116.58"
style="stroke-width: 1.0; stroke: #000000; fill: none; "/>
<polyline points="35.1 95.88, 35.1 47.34, 252.24 47.34, 252.24 96.48"
style="stroke-width: 1.0; stroke: #000000; fill: none; "/>
<line x1="71.82"  y1="48" x2="71.82"  y2="95.22"
style="stroke-width: 1.0; stroke: #000000; fill: none; "/>
<line x1="108.48"  y1="47.34" x2="108.48"  y2="95.22"
style="stroke-width: 1.0; stroke: #000000; fill: none; "/>
<line x1="143.4"  y1="95.88" x2="143.4"  y2="46.68"
style="stroke-width: 1.0; stroke: #000000; fill: none; "/>
<line x1="179.46"  y1="95.22" x2="179.46"  y2="48"
style="stroke-width: 1.0; stroke: #000000; fill: none; "/>
<line x1="215.58"  y1="96.48" x2="215.58"  y2="48"
style="stroke-width: 1.0; stroke: #000000; fill: none; "/>
<polygon points="35.7 84.66, 41.94 84.66, 36.36 95.22"
style="stroke-width: 1.0; stroke: #000000; fill: #000000; "/>
<polygon points="251.52 84.66, 245.28 84.66, 250.86 95.22"
style="stroke-width: 1.0; stroke: #000000; fill: #000000; "/>
<polygon points="66.84 84, 78.06 84, 71.82 95.88, 66.84 84.66"
style="stroke-width: 1.0; stroke: #000000; fill: #000000; "/>
<polygon points="102.24 84, 113.46 84, 107.22 95.88, 102.24 84.66"
style="stroke-width: 1.0; stroke: #000000; fill: #000000; "/>
<polygon points="137.7 83.46, 148.92 83.46, 142.68 95.34, 137.7 84.12"
style="stroke-width: 1.0; stroke: #000000; fill: #000000; "/>
<polygon points="173.82 83.46, 185.04 83.46, 178.8 95.34, 173.82 84.12"
style="stroke-width: 1.0; stroke: #000000; fill: #000000; "/>
<polygon points="209.94 84, 221.16 84, 214.92 95.88, 209.94 84.66"
style="stroke-width: 1.0; stroke: #000000; fill: #000000; "/>
<text x="72.48" y="40.56">
12 kN/m
</text>
<line x1="251.76"  y1="116.58" x2="251.76"  y2="186.24"
style="stroke-width: 1.0; stroke: #000000; fill: #000000; "/>
<line x1="407.82"  y1="104.7" x2="485.88"  y2="104.7"
style="stroke-width: 1.0; stroke: #000000; fill: #000000; "/>
<polygon points="244.26 134.88, 251.76 116.04, 259.62 134.88, 245.16 134.88"
style="stroke-width: 1.0; stroke: #000000; fill: #000000; "/>
<line x1="396.48"  y1="117.06" x2="396.48"  y2="186.72"
style="stroke-width: 1.0; stroke: #000000; fill: #000000; "/>
<polygon points="388.98 135.36, 396.48 116.52, 404.34 135.36, 389.88 135.36"
style="stroke-width: 1.0; stroke: #000000; fill: #000000; "/>
<polygon points="425.64 110.46, 406.38 104.22, 424.62 95.16, 425.58 109.56"
style="stroke-width: 1.0; stroke: #000000; fill: #000000; "/>
<text x="263.82" y="164.88">
V
</text>
<text x="409.32" y="161.76">
V
</text>
<text x="444.78" y="91.5">
H
</text>
<text x="281.46" y="173.88">
r
</text>
<text x="423.78" y="169.62">
p
</text>
<text x="465.12" y="97.02">
p
</text>
</svg>

