<?xml version="1.0" encoding="UTF-8" standalone="no"?>
<!-- Created with wpg2svg/libwpg 0.2.0 -->

<svg
   xmlns:dc="http://purl.org/dc/elements/1.1/"
   xmlns:cc="http://creativecommons.org/ns#"
   xmlns:rdf="http://www.w3.org/1999/02/22-rdf-syntax-ns#"
   xmlns:svg="http://www.w3.org/2000/svg"
   xmlns="http://www.w3.org/2000/svg"
   xmlns:sodipodi="http://sodipodi.sourceforge.net/DTD/sodipodi-0.dtd"
   xmlns:inkscape="http://www.inkscape.org/namespaces/inkscape"
   version="1.1"
   width="748.8"
   height="568.8"
   id="svg3239"
   inkscape:version="0.48.1 r9760"
   sodipodi:docname="B16.svg">
  <metadata
     id="metadata3387">
    <rdf:RDF>
      <cc:Work
         rdf:about="">
        <dc:format>image/svg+xml</dc:format>
        <dc:type
           rdf:resource="http://purl.org/dc/dcmitype/StillImage" />
      </cc:Work>
    </rdf:RDF>
  </metadata>
  <defs
     id="defs3385" />
  <sodipodi:namedview
     pagecolor="#ffffff"
     bordercolor="#666666"
     borderopacity="1"
     objecttolerance="10"
     gridtolerance="10"
     guidetolerance="10"
     inkscape:pageopacity="0"
     inkscape:pageshadow="2"
     inkscape:window-width="1106"
     inkscape:window-height="838"
     id="namedview3383"
     showgrid="false"
     inkscape:zoom="0.98101268"
     inkscape:cx="488.15244"
     inkscape:cy="514.24761"
     inkscape:window-x="146"
     inkscape:window-y="43"
     inkscape:window-maximized="0"
     inkscape:current-layer="svg3239" />
  <line
     x1="215.4"
     y1="494.4"
     x2="215.4"
     y2="558.6"
     style="stroke-width: 1.0; stroke: #000000; fill: #000000; "
     id="line3241" />
  <line
     x1="575.64"
     y1="491.46"
     x2="575.64"
     y2="549.84"
     style="stroke-width: 1.0; stroke: #000000; fill: #000000; "
     id="line3243" />
  <line
     x1="104.52"
     y1="87.48"
     x2="50.64"
     y2="87.48"
     style="stroke-width: 1.0; stroke: #000000; fill: #000000; "
     id="line3245" />
  <line
     x1="103.02"
     y1="266.94"
     x2="49.14"
     y2="266.94"
     style="stroke-width: 1.0; stroke: #000000; fill: #000000; "
     id="line3247" />
  <line
     x1="103.02"
     y1="447.72"
     x2="49.14"
     y2="447.72"
     style="stroke-width: 1.0; stroke: #000000; fill: #000000; "
     id="line3249" />
  <line
     x1="660.24"
     y1="87.6"
     x2="606.36"
     y2="87.6"
     style="stroke-width: 1.0; stroke: #000000; fill: #000000; "
     id="line3251" />
  <line
     x1="660.42"
     y1="230.4"
     x2="606.54"
     y2="230.4"
     style="stroke-width: 1.0; stroke: #000000; fill: #000000; "
     id="line3253" />
  <line
     x1="65.16"
     y1="87.48"
     x2="65.16"
     y2="154.5"
     style="stroke-width: 1.0; stroke: #000000; fill: #000000; "
     id="line3255" />
  <line
     x1="65.16"
     y1="201.24"
     x2="65.16"
     y2="341.28"
     style="stroke-width: 1.0; stroke: #000000; fill: #000000; "
     id="line3257" />
  <line
     x1="215.4"
     y1="523.56"
     x2="362.64"
     y2="523.56"
     style="stroke-width: 1.0; stroke: #000000; fill: #000000; "
     id="line3259" />
  <line
     x1="442.86"
     y1="522.06"
     x2="575.64"
     y2="522.06"
     style="stroke-width: 1.0; stroke: #000000; fill: #000000; "
     id="line3261" />
  <line
     x1="631.08"
     y1="86.04"
     x2="631.08"
     y2="134.16"
     style="stroke-width: 1.0; stroke: #000000; fill: #000000; "
     id="line3263" />
  <line
     x1="632.46"
     y1="176.46"
     x2="632.46"
     y2="228.96"
     style="stroke-width: 1.0; stroke: #000000; fill: #000000; "
     id="line3265" />
  <line
     x1="65.16"
     y1="387.9"
     x2="65.16"
     y2="447.72"
     style="stroke-width: 1.0; stroke: #000000; fill: #000000; "
     id="line3267" />
  <text
     x="36.72"
     y="189.42"
     id="text3269">
2.5 m
</text>
  <text
     x="38.64"
     y="374.52"
     id="text3271">
2.5 m
</text>
  <text
     x="379.56"
     y="531.42"
     id="text3273">
5 m
</text>
  <text
     x="612.72"
     y="171.96"
     id="text3275">
2 m
</text>
  <polyline
     points="59.04 104.52, 64.92 87.66, 71.34 104.94"
     style="stroke-width: 1.0; stroke: #000000; fill: #000000; "
     id="polyline3277" />
  <polyline
     points="59.52 284.22, 65.4 267.36, 71.82 284.64"
     style="stroke-width: 1.0; stroke: #000000; fill: #000000; "
     id="polyline3279" />
  <polyline
     points="59.82 249.78, 65.7 266.64, 72.12 249.36"
     style="stroke-width: 1.0; stroke: #000000; fill: #000000; "
     id="polyline3281" />
  <polyline
     points="58.92 430.14, 64.8 447, 71.22 429.72"
     style="stroke-width: 1.0; stroke: #000000; fill: #000000; "
     id="polyline3283" />
  <polyline
     points="232.8 517.26, 216.24 523.68, 233.7 529.44"
     style="stroke-width: 1.0; stroke: #000000; fill: #000000; "
     id="polyline3285" />
  <polyline
     points="558.48 515.94, 575.04 522.36, 557.58 528.12"
     style="stroke-width: 1.0; stroke: #000000; fill: #000000; "
     id="polyline3287" />
  <polyline
     points="638.22 214.02, 632.22 230.58, 626.1 213.36"
     style="stroke-width: 1.0; stroke: #000000; fill: #000000; "
     id="polyline3289" />
  <polyline
     points="636.66 104.88, 630.66 88.32, 624.54 105.54"
     style="stroke-width: 1.0; stroke: #000000; fill: #000000; "
     id="polyline3291" />
  <polyline
     points="206.64 446.28, 206.64 78.72, 584.4 80.16, 584.4 230.4"
     style="stroke-width:1;stroke:#000000;fill:none"
     id="polyline3293" />
  <line
     x1="225.54"
     y1="446.28"
     x2="225.54"
     y2="94.8"
     style="stroke-width: 1.0; stroke: #000000; fill: #000000; "
     id="line3295" />
  <polyline
     points="225.96 95.7, 568.8 95.7, 568.8 231.18"
     style="stroke-width:1;stroke:#000000;fill:none"
     id="polyline3297" />
  <line
     x1="206.58"
     y1="447.36"
     x2="226.5"
     y2="447.36"
     style="stroke-width: 1.0; stroke: #000000; fill: #000000; "
     id="line3299" />
  <polygon
     points="215.82 449.16, 199.44 476.76, 233.34 476.76, 215.52 448.86"
     style="stroke-width: 1.0; stroke: #000000; fill: none; "
     id="polygon3301" />
  <line
     x1="201.66"
     y1="478.08"
     x2="194.46"
     y2="487.62"
     style="stroke-width: 1.0; stroke: #000000; fill: none; "
     id="line3303" />
  <line
     x1="209.28"
     y1="478.14"
     x2="202.08"
     y2="487.68"
     style="stroke-width: 1.0; stroke: #000000; fill: none; "
     id="line3305" />
  <line
     x1="216.84"
     y1="478.14"
     x2="209.64"
     y2="487.68"
     style="stroke-width: 1.0; stroke: #000000; fill: none; "
     id="line3307" />
  <line
     x1="224.76"
     y1="478.14"
     x2="217.56"
     y2="487.68"
     style="stroke-width: 1.0; stroke: #000000; fill: none; "
     id="line3309" />
  <line
     x1="232.5"
     y1="478.14"
     x2="225.3"
     y2="487.68"
     style="stroke-width: 1.0; stroke: #000000; fill: none; "
     id="line3311" />
  <polygon
     points="577.2 231.18, 562.92 255.12, 592.38 255.12, 576.9 230.94"
     style="stroke-width: 1.0; stroke: #000000; fill: none; "
     id="polygon3313" />
  <line
     x1="569.4"
     y1="230.7"
     x2="583.5"
     y2="230.7"
     style="stroke-width: 1.0; stroke: #000000; fill: none; "
     id="line3315" />
  <ellipse
     cx="585.24"
     cy="260.82"
     rx="4.74"
     ry="4.74"
     style="stroke-width: 1.0; stroke: #000000; fill: none; "
     id="ellipse3317" />
  <ellipse
     cx="570.24"
     cy="260.82"
     rx="4.74"
     ry="4.74"
     style="stroke-width: 1.0; stroke: #000000; fill: none; "
     id="ellipse3319" />
  <line
     x1="558"
     y1="266.4"
     x2="597.06"
     y2="266.4"
     style="stroke-width: 1.0; stroke: #000000; fill: none; "
     id="line3321" />
  <line
     x1="558"
     y1="267.3"
     x2="549.12"
     y2="279.06"
     style="stroke-width: 1.0; stroke: #000000; fill: none; "
     id="line3323" />
  <line
     x1="566.88"
     y1="267.36"
     x2="558"
     y2="279.12"
     style="stroke-width: 1.0; stroke: #000000; fill: none; "
     id="line3325" />
  <line
     x1="576.3"
     y1="267.84"
     x2="567.42"
     y2="279.6"
     style="stroke-width: 1.0; stroke: #000000; fill: none; "
     id="line3327" />
  <line
     x1="586.14"
     y1="268.32"
     x2="577.26"
     y2="280.08"
     style="stroke-width: 1.0; stroke: #000000; fill: none; "
     id="line3329" />
  <line
     x1="595.08"
     y1="267.78"
     x2="586.2"
     y2="279.54"
     style="stroke-width: 1.0; stroke: #000000; fill: none; "
     id="line3331" />
  <line
     x1="130.86"
     y1="265.38"
     x2="203.76"
     y2="265.38"
     style="stroke-width: 1.0; stroke: #000000; fill: none; "
     id="line3333" />
  <polygon
     points="178.98 253.74, 206.64 265.38, 180.42 275.58, 180.42 252.3"
     style="stroke-width: 1.0; stroke: #000000; fill: #000000; "
     id="polygon3335" />
  <text
     x="128.64"
     y="250.74"
     id="text3337">
40 kN
</text>
  <polyline
     points="216.84 75.78, 216.84 37.98, 574.2 37.98, 574.2 77.34"
     style="stroke-width:1;stroke:#000000;fill:none"
     id="polyline3339" />
  <line
     x1="251.94"
     y1="77.34"
     x2="251.94"
     y2="38.22"
     style="stroke-width: 1.0; stroke: #000000; fill: #000000; "
     id="line3341" />
  <polygon
     points="248.88 65.1, 255.78 65.1, 251.94 78.84, 249.66 65.1"
     style="stroke-width: 1.0; stroke: #000000; fill: #000000; "
     id="polygon3343" />
  <line
     x1="287.76"
     y1="77.34"
     x2="287.76"
     y2="38.22"
     style="stroke-width: 1.0; stroke: #000000; fill: #000000; "
     id="line3345" />
  <polygon
     points="284.7 65.1, 291.6 65.1, 287.76 78.84, 285.48 65.1"
     style="stroke-width: 1.0; stroke: #000000; fill: #000000; "
     id="polygon3347" />
  <line
     x1="324.54"
     y1="77.34"
     x2="324.54"
     y2="38.22"
     style="stroke-width:1;stroke:#000000;fill:none"
     id="line3349" />
  <polygon
     points="321.48 65.1, 328.38 65.1, 324.54 78.84, 322.26 65.1"
     style="stroke-width: 1.0; stroke: #000000; fill: #000000; "
     id="polygon3351" />
  <line
     x1="359.88"
     y1="78.12"
     x2="359.88"
     y2="39"
     style="stroke-width: 1.0; stroke: #000000; fill: #000000; "
     id="line3353" />
  <polygon
     points="356.82 65.88, 363.72 65.88, 359.88 79.62, 357.6 65.88"
     style="stroke-width: 1.0; stroke: #000000; fill: #000000; "
     id="polygon3355" />
  <line
     x1="395.94"
     y1="78.06"
     x2="395.94"
     y2="38.94"
     style="stroke-width: 1.0; stroke: #000000; fill: #000000; "
     id="line3357" />
  <polygon
     points="392.88 65.82, 399.78 65.82, 395.94 79.56, 393.66 65.82"
     style="stroke-width: 1.0; stroke: #000000; fill: #000000; "
     id="polygon3359" />
  <line
     x1="431.34"
     y1="78.12"
     x2="431.34"
     y2="39"
     style="stroke-width: 1.0; stroke: #000000; fill: #000000; "
     id="line3361" />
  <polygon
     points="428.28 65.88, 435.18 65.88, 431.34 79.62, 429.06 65.88"
     style="stroke-width: 1.0; stroke: #000000; fill: #000000; "
     id="polygon3363" />
  <line
     x1="467.4"
     y1="78.06"
     x2="467.4"
     y2="38.94"
     style="stroke-width: 1.0; stroke: #000000; fill: #000000; "
     id="line3365" />
  <polygon
     points="464.34 65.82, 471.24 65.82, 467.4 79.56, 465.12 65.82"
     style="stroke-width: 1.0; stroke: #000000; fill: #000000; "
     id="polygon3367" />
  <line
     x1="504.24"
     y1="78.12"
     x2="504.24"
     y2="39"
     style="stroke-width: 1.0; stroke: #000000; fill: #000000; "
     id="line3369" />
  <polygon
     points="501.18 65.88, 508.08 65.88, 504.24 79.62, 501.96 65.88"
     style="stroke-width: 1.0; stroke: #000000; fill: #000000; "
     id="polygon3371" />
  <line
     x1="539.52"
     y1="78.06"
     x2="539.52"
     y2="38.94"
     style="stroke-width: 1.0; stroke: #000000; fill: #000000; "
     id="line3373" />
  <polygon
     points="536.46 65.82, 543.36 65.82, 539.52 79.56, 537.24 65.82"
     style="stroke-width: 1.0; stroke: #000000; fill: #000000; "
     id="polygon3375" />
  <polygon
     points="216.66 65.88, 221.28 65.88, 216.66 78.12"
     style="stroke-width: 1.0; stroke: #000000; fill: #000000; "
     id="polygon3377" />
  <polygon
     points="574.56 66.6, 569.94 66.6, 574.56 78.84"
     style="stroke-width: 1.0; stroke: #000000; fill: #000000; "
     id="polygon3379" />
  <text
     x="332.7"
     y="29.7"
     id="text3381">
25 kN/m
</text>
</svg>
