<?xml version="1.0" encoding="UTF-8" standalone="no"?>
<!-- Created with wpg2svg/libwpg 0.2.0 -->

<svg
   xmlns:dc="http://purl.org/dc/elements/1.1/"
   xmlns:cc="http://creativecommons.org/ns#"
   xmlns:rdf="http://www.w3.org/1999/02/22-rdf-syntax-ns#"
   xmlns:svg="http://www.w3.org/2000/svg"
   xmlns="http://www.w3.org/2000/svg"
   xmlns:sodipodi="http://sodipodi.sourceforge.net/DTD/sodipodi-0.dtd"
   xmlns:inkscape="http://www.inkscape.org/namespaces/inkscape"
   version="1.1"
   width="748.8"
   height="568.8"
   id="svg4617"
   inkscape:version="0.48.2 r9819"
   sodipodi:docname="B22.svg">
  <metadata
     id="metadata4759">
    <rdf:RDF>
      <cc:Work
         rdf:about="">
        <dc:format>image/svg+xml</dc:format>
        <dc:type
           rdf:resource="http://purl.org/dc/dcmitype/StillImage" />
        <dc:title></dc:title>
      </cc:Work>
    </rdf:RDF>
  </metadata>
  <defs
     id="defs4757" />
  <sodipodi:namedview
     pagecolor="#ffffff"
     bordercolor="#666666"
     borderopacity="1"
     objecttolerance="10"
     gridtolerance="10"
     guidetolerance="10"
     inkscape:pageopacity="1"
     inkscape:pageshadow="2"
     inkscape:window-width="1400"
     inkscape:window-height="990"
     id="namedview4755"
     showgrid="false"
     inkscape:zoom="1.1735387"
     inkscape:cx="209.40231"
     inkscape:cy="299.62067"
     inkscape:window-x="-4"
     inkscape:window-y="-4"
     inkscape:window-maximized="1"
     inkscape:current-layer="svg4617" />
  <g
     id="g4964"
     inkscape:export-filename="D:\B22.png"
     inkscape:export-xdpi="90"
     inkscape:export-ydpi="90">
    <line
       id="line4619"
       style="stroke-width: 1.0; stroke: #000000; fill: #000000; "
       y2="210"
       x2="30.18"
       y1="210"
       x1="72.42" />
    <line
       id="line4621"
       style="stroke-width: 1.0; stroke: #000000; fill: #000000; "
       y2="497.4"
       x2="30.06"
       y1="497.4"
       x1="72.3" />
    <line
       id="line4623"
       style="stroke-width: 1.0; stroke: #000000; fill: #000000; "
       y2="329.64"
       x2="44.76"
       y1="210"
       x1="44.76" />
    <polyline
       id="polyline4625"
       style="stroke-width: 1.0; stroke: #000000; fill: #000000; "
       points="38.16 235.86, 44.94 210.06, 52.38 235.14" />
    <text
       id="text4627"
       y="367.92"
       x="27.9">
4 m
</text>
    <line
       id="line4629"
       style="stroke-width: 1.0; stroke: #000000; fill: #000000; "
       y2="497.34"
       x2="44.76"
       y1="376.32"
       x1="44.76" />
    <polyline
       id="polyline4631"
       style="stroke-width: 1.0; stroke: #000000; fill: #000000; "
       points="37.92 471.36, 44.7 497.16, 52.14 472.08" />
    <line
       id="line4633"
       style="stroke-width:1;stroke:#000000;fill:none"
       y2="555.66"
       x2="145.38"
       y1="522.12"
       x1="145.38" />
    <line
       id="line4635"
       style="stroke-width:1;stroke:#000000;fill:none"
       y2="557.16"
       x2="288.3"
       y1="516.3"
       x1="288.3" />
    <line
       id="line4637"
       style="stroke-width:1;stroke:#000000;fill:none"
       y2="555.66"
       x2="575.64"
       y1="508.98"
       x1="575.64" />
    <line
       id="line4639"
       style="stroke-width:1;stroke:#000000;fill:none"
       y2="538.2"
       x2="190.62"
       y1="538.2"
       x1="145.38" />
    <line
       id="line4641"
       style="stroke-width:1;stroke:#000000;fill:none"
       y2="538.2"
       x2="388.98"
       y1="538.2"
       x1="253.32" />
    <line
       id="line4643"
       style="stroke-width:1;stroke:#000000;fill:none"
       y2="538.2"
       x2="574.2"
       y1="538.2"
       x1="466.26" />
    <polyline
       id="polyline4645"
       style="stroke-width:1;stroke:#000000;fill:none"
       points="171.06 530.52, 145.62 538.56, 171.12 544.56" />
    <polyline
       id="polyline4647"
       style="stroke-width:1;stroke:#000000;fill:none"
       points="313.98 530.22, 288.54 538.26, 314.04 544.26" />
    <text
       style="fill:none"
       id="text4649"
       y="548.94"
       x="201.84">
2 m
</text>
    <polyline
       id="polyline4651"
       style="stroke-width:1;stroke:#000000;fill:none"
       points="262.44 530.22, 287.88 538.26, 262.38 544.26" />
    <polyline
       id="polyline4653"
       style="stroke-width:1;stroke:#000000;fill:none"
       points="549.24 529.44, 574.68 537.48, 549.18 543.48" />
    <text
       style="fill:none"
       id="text4655"
       y="548.7"
       x="402.96">
4 m
</text>
    <polyline
       id="polyline4657"
       style="stroke-width:1;stroke:#000000;fill:none"
       points="133.74 497.34, 133.74 199.86, 282.42 199.86, 282.42 220.2, 157.08 220.2, 157.08 494.46" />
    <ellipse
       id="ellipse4659"
       style="stroke-width:1;stroke:#000000;fill:none"
       ry="11.76"
       rx="11.76"
       cy="209.04"
       cx="295.02" />
    <line
       id="line4661"
       style="stroke-width:1.5;stroke:#000000;fill:none"
       y2="497.34"
       x2="184.74"
       y1="497.34"
       x1="111.84" />
    <line
       id="line4663"
       style="stroke-width:1;stroke:#000000;fill:none"
       y2="495.84"
       x2="157.14"
       y1="495"
       x1="157.14" />
    <line
       id="line4665"
       style="stroke-width:1.5;stroke:#000000;fill:none"
       y2="516.84"
       x2="98.52"
       y1="498.24"
       x1="112.8" />
    <line
       id="line4667"
       style="stroke-width:1.5;stroke:#000000;fill:none"
       y2="517.44"
       x2="112.86"
       y1="498.84"
       x1="127.14" />
    <line
       id="line4669"
       style="stroke-width:1.5;stroke:#000000;fill:none"
       y2="517.44"
       x2="127.44"
       y1="498.84"
       x1="141.72" />
    <line
       id="line4671"
       style="stroke-width:1.5;stroke:#000000;fill:none"
       y2="517.44"
       x2="141.66"
       y1="498.84"
       x1="155.94" />
    <line
       id="line4673"
       style="stroke-width:1.5;stroke:#000000;fill:none"
       y2="517.44"
       x2="155.82"
       y1="498.84"
       x1="170.1" />
    <line
       id="line4675"
       style="stroke-width:1.5;stroke:#000000;fill:none"
       y2="517.44"
       x2="169.8"
       y1="498.84"
       x1="184.08" />
    <polygon
       id="polygon4677"
       style="stroke-width:1;stroke:#000000;fill:none"
       points="559.14 277.2, 545.76 300.9, 574.32 300.9, 559.44 276.9" />
    <ellipse
       id="ellipse4679"
       style="stroke-width:1;stroke:#000000;fill:none"
       ry="4.98"
       rx="4.98"
       cy="306.84"
       cx="569.34" />
    <ellipse
       id="ellipse4681"
       style="stroke-width:1;stroke:#000000;fill:none"
       ry="4.98"
       rx="4.98"
       cy="307.14"
       cx="550.2" />
    <line
       id="line4683"
       style="stroke-width:1.5;stroke:#000000;fill:none"
       y2="313.38"
       x2="578.64"
       y1="313.38"
       x1="541.2" />
    <line
       id="line4685"
       style="stroke-width:1.5;stroke:#000000;fill:none"
       y2="324.66"
       x2="533.58"
       y1="314.94"
       x1="542.1" />
    <line
       id="line4687"
       style="stroke-width:1.5;stroke:#000000;fill:none"
       y2="324.66"
       x2="542.76"
       y1="314.94"
       x1="551.28" />
    <line
       id="line4689"
       style="stroke-width:1.5;stroke:#000000;fill:none"
       y2="324.66"
       x2="552.18"
       y1="314.94"
       x1="560.7" />
    <line
       id="line4691"
       style="stroke-width:1.5;stroke:#000000;fill:none"
       y2="324.66"
       x2="561.6"
       y1="314.94"
       x1="570.12" />
    <line
       id="line4693"
       style="stroke-width:1.5;stroke:#000000;fill:none"
       y2="324.96"
       x2="570.78"
       y1="315.24"
       x1="579.3" />
    <polyline
       id="polyline4695"
       style="stroke-width: 1.0; stroke: #000000; fill: none; "
       points="145.38 198.18, 145.38 130.74, 572.82 130.74, 572.82 196.38" />
    <line
       id="line4697"
       style="stroke-width: 1.0; stroke: #000000; fill: none; "
       y2="198.18"
       x2="180.9"
       y1="130.74"
       x1="180.9" />
    <polygon
       id="polygon4699"
       style="stroke-width: 1.0; stroke: #000000; fill: #000000; "
       points="145.38 184.56, 153.54 184.56, 145.38 199.08" />
    <polygon
       id="polygon4701"
       style="stroke-width: 1.0; stroke: #000000; fill: #000000; "
       points="573.36 184.56, 565.2 184.56, 573.36 199.08" />
    <polygon
       id="polygon4703"
       style="stroke-width: 1.0; stroke: #000000; fill: #000000; "
       points="174.54 184.56, 187.26 184.56, 180.9 198.18, 176.34 185.4" />
    <line
       id="line4705"
       style="stroke-width: 1.0; stroke: #000000; fill: #000000; "
       y2="198.18"
       x2="215.58"
       y1="130.74"
       x1="215.58" />
    <polygon
       id="polygon4707"
       style="stroke-width: 1.0; stroke: #000000; fill: #000000; "
       points="209.22 184.56, 221.94 184.56, 215.58 198.18, 211.02 185.4" />
    <line
       id="line4709"
       style="stroke-width: 1.0; stroke: #000000; fill: #000000; "
       y2="197.28"
       x2="252.06"
       y1="129.84"
       x1="252.06" />
    <polygon
       id="polygon4711"
       style="stroke-width: 1.0; stroke: #000000; fill: #000000; "
       points="245.7 183.66, 258.42 183.66, 252.06 197.28, 247.5 184.5" />
    <line
       id="line4713"
       style="stroke-width: 1.0; stroke: #000000; fill: #000000; "
       y2="197.28"
       x2="288.48"
       y1="129.84"
       x1="288.48" />
    <polygon
       id="polygon4715"
       style="stroke-width: 1.0; stroke: #000000; fill: #000000; "
       points="282.12 183.66, 294.84 183.66, 288.48 197.28, 283.92 184.5" />
    <line
       id="line4717"
       style="stroke-width: 1.0; stroke: #000000; fill: #000000; "
       y2="198.18"
       x2="324.06"
       y1="130.74"
       x1="324.06" />
    <polygon
       id="polygon4719"
       style="stroke-width: 1.0; stroke: #000000; fill: #000000; "
       points="317.7 184.56, 330.42 184.56, 324.06 198.18, 319.5 185.4" />
    <line
       id="line4721"
       style="stroke-width: 1.0; stroke: #000000; fill: #000000; "
       y2="198.18"
       x2="359.58"
       y1="130.74"
       x1="359.58" />
    <polygon
       id="polygon4723"
       style="stroke-width: 1.0; stroke: #000000; fill: #000000; "
       points="353.22 184.56, 365.94 184.56, 359.58 198.18, 355.02 185.4" />
    <line
       id="line4725"
       style="stroke-width: 1.0; stroke: #000000; fill: #000000; "
       y2="198.18"
       x2="395.1"
       y1="130.74"
       x1="395.1" />
    <polygon
       id="polygon4727"
       style="stroke-width: 1.0; stroke: #000000; fill: #000000; "
       points="388.74 184.56, 401.46 184.56, 395.1 198.18, 390.54 185.4" />
    <line
       id="line4729"
       style="stroke-width: 1.0; stroke: #000000; fill: #000000; "
       y2="198.18"
       x2="431.58"
       y1="130.74"
       x1="431.58" />
    <polygon
       id="polygon4731"
       style="stroke-width: 1.0; stroke: #000000; fill: #000000; "
       points="425.22 184.56, 437.94 184.56, 431.58 198.18, 427.02 185.4" />
    <line
       id="line4733"
       style="stroke-width: 1.0; stroke: #000000; fill: #000000; "
       y2="199.14"
       x2="468.96"
       y1="131.7"
       x1="468.96" />
    <polygon
       id="polygon4735"
       style="stroke-width: 1.0; stroke: #000000; fill: #000000; "
       points="462.6 185.52, 475.32 185.52, 468.96 199.14, 464.4 186.36" />
    <line
       id="line4737"
       style="stroke-width: 1.0; stroke: #000000; fill: #000000; "
       y2="199.14"
       x2="503.64"
       y1="131.7"
       x1="503.64" />
    <polygon
       id="polygon4739"
       style="stroke-width: 1.0; stroke: #000000; fill: #000000; "
       points="497.28 185.52, 510 185.52, 503.64 199.14, 499.08 186.36" />
    <line
       id="line4741"
       style="stroke-width: 1.0; stroke: #000000; fill: #000000; "
       y2="198.18"
       x2="540.06"
       y1="130.74"
       x1="540.06" />
    <polygon
       id="polygon4743"
       style="stroke-width: 1.0; stroke: #000000; fill: #000000; "
       points="533.7 184.56, 546.42 184.56, 540.06 198.18, 535.5 185.4" />
    <text
       id="text4745"
       y="114.12"
       x="301.44">
2 kN/m
</text>
    <polyline
       id="polyline4747"
       style="stroke-width:1;stroke:#000000;fill:none"
       points="307.32 197.88, 569.88 197.88, 569.88 278.04" />
    <polyline
       id="polyline4749"
       style="stroke-width:1;stroke:#000000;fill:none"
       points="308.76 218.22, 547.98 218.22, 547.98 278.04" />
    <line
       id="line4751"
       style="stroke-width:1;stroke:#000000;fill:none"
       y2="217.56"
       x2="308.94"
       y1="196.92"
       x1="308.94" />
    <line
       id="line4753"
       style="stroke-width:1;stroke:#000000;fill:none"
       y2="276.54"
       x2="570.78"
       y1="276.54"
       x1="547.68" />
    <text
       sodipodi:linespacing="125%"
       id="text4956"
       y="537.27142"
       x="201.95329"
       style="font-size:16px;font-style:normal;font-weight:normal;line-height:125%;letter-spacing:0px;word-spacing:0px;fill:#000000;fill-opacity:1;stroke:none;font-family:Sans"
       xml:space="preserve"><tspan
         y="537.27142"
         x="201.95329"
         id="tspan4958"
         sodipodi:role="line">2 m</tspan></text>
    <text
       sodipodi:linespacing="125%"
       id="text4960"
       y="535.5672"
       x="409.87143"
       style="font-size:16px;font-style:normal;font-weight:normal;line-height:125%;letter-spacing:0px;word-spacing:0px;fill:#000000;fill-opacity:1;stroke:none;font-family:Sans"
       xml:space="preserve"><tspan
         y="535.5672"
         x="409.87143"
         id="tspan4962"
         sodipodi:role="line">4 m</tspan></text>
  </g>
</svg>
