<?xml version="1.0" encoding="UTF-8" standalone="no"?>
<!-- Created with wpg2svg/libwpg 0.2.0 -->

<svg
   xmlns:dc="http://purl.org/dc/elements/1.1/"
   xmlns:cc="http://creativecommons.org/ns#"
   xmlns:rdf="http://www.w3.org/1999/02/22-rdf-syntax-ns#"
   xmlns:svg="http://www.w3.org/2000/svg"
   xmlns="http://www.w3.org/2000/svg"
   xmlns:sodipodi="http://sodipodi.sourceforge.net/DTD/sodipodi-0.dtd"
   xmlns:inkscape="http://www.inkscape.org/namespaces/inkscape"
   version="1.1"
   width="748.8"
   height="568.8"
   id="svg4805"
   inkscape:version="0.48.2 r9819"
   sodipodi:docname="B23.svg">
  <metadata
     id="metadata4917">
    <rdf:RDF>
      <cc:Work
         rdf:about="">
        <dc:format>image/svg+xml</dc:format>
        <dc:type
           rdf:resource="http://purl.org/dc/dcmitype/StillImage" />
        <dc:title></dc:title>
      </cc:Work>
    </rdf:RDF>
  </metadata>
  <defs
     id="defs4915" />
  <sodipodi:namedview
     pagecolor="#ffffff"
     bordercolor="#666666"
     borderopacity="1"
     objecttolerance="10"
     gridtolerance="10"
     guidetolerance="10"
     inkscape:pageopacity="1"
     inkscape:pageshadow="2"
     inkscape:window-width="1400"
     inkscape:window-height="990"
     id="namedview4913"
     showgrid="false"
     inkscape:zoom="1.1735387"
     inkscape:cx="358.26552"
     inkscape:cy="266.79528"
     inkscape:window-x="-4"
     inkscape:window-y="-4"
     inkscape:window-maximized="1"
     inkscape:current-layer="svg4805" />
  <g
     id="g5056"
     inkscape:export-filename="D:\B23.png"
     inkscape:export-xdpi="90"
     inkscape:export-ydpi="90">
    <polyline
       id="polyline4807"
       style="stroke-width:1;stroke:#000000;fill:none"
       points="133.74 497.34, 133.74 199.86, 282.42 199.86, 282.42 220.2, 157.08 220.2, 157.08 494.46" />
    <ellipse
       id="ellipse4809"
       style="stroke-width: 1.0; stroke: #000000; fill: none; "
       ry="11.76"
       rx="11.76"
       cy="209.04"
       cx="295.02" />
    <line
       id="line4811"
       style="stroke-width: 1.0; stroke: #000000; fill: none; "
       y2="198.18"
       x2="180.9"
       y1="130.74"
       x1="180.9" />
    <polygon
       id="polygon4813"
       style="stroke-width: 1.0; stroke: #000000; fill: #000000; "
       points="145.38 184.56, 153.54 184.56, 145.38 199.08" />
    <polygon
       id="polygon4815"
       style="stroke-width: 1.0; stroke: #000000; fill: #000000; "
       points="699.72 184.56, 691.56 184.56, 699.72 199.08" />
    <polygon
       id="polygon4817"
       style="stroke-width: 1.0; stroke: #000000; fill: #000000; "
       points="174.54 184.56, 187.26 184.56, 180.9 198.18, 176.34 185.4" />
    <line
       id="line4819"
       style="stroke-width: 1.0; stroke: #000000; fill: #000000; "
       y2="198.18"
       x2="215.58"
       y1="130.74"
       x1="215.58" />
    <polygon
       id="polygon4821"
       style="stroke-width: 1.0; stroke: #000000; fill: #000000; "
       points="209.22 184.56, 221.94 184.56, 215.58 198.18, 211.02 185.4" />
    <line
       id="line4823"
       style="stroke-width: 1.0; stroke: #000000; fill: #000000; "
       y2="197.28"
       x2="252.06"
       y1="129.84"
       x1="252.06" />
    <polygon
       id="polygon4825"
       style="stroke-width: 1.0; stroke: #000000; fill: #000000; "
       points="245.7 183.66, 258.42 183.66, 252.06 197.28, 247.5 184.5" />
    <line
       id="line4827"
       style="stroke-width: 1.0; stroke: #000000; fill: #000000; "
       y2="197.28"
       x2="288.48"
       y1="129.84"
       x1="288.48" />
    <polygon
       id="polygon4829"
       style="stroke-width: 1.0; stroke: #000000; fill: #000000; "
       points="282.12 183.66, 294.84 183.66, 288.48 197.28, 283.92 184.5" />
    <line
       id="line4831"
       style="stroke-width: 1.0; stroke: #000000; fill: #000000; "
       y2="198.18"
       x2="450.42"
       y1="130.74"
       x1="450.42" />
    <polygon
       id="polygon4833"
       style="stroke-width: 1.0; stroke: #000000; fill: #000000; "
       points="444.06 184.56, 456.78 184.56, 450.42 198.18, 445.86 185.4" />
    <line
       id="line4835"
       style="stroke-width: 1.0; stroke: #000000; fill: #000000; "
       y2="198.18"
       x2="485.94"
       y1="130.74"
       x1="485.94" />
    <polygon
       id="polygon4837"
       style="stroke-width: 1.0; stroke: #000000; fill: #000000; "
       points="479.58 184.56, 492.3 184.56, 485.94 198.18, 481.38 185.4" />
    <line
       id="line4839"
       style="stroke-width: 1.0; stroke: #000000; fill: #000000; "
       y2="198.18"
       x2="521.46"
       y1="130.74"
       x1="521.46" />
    <polygon
       id="polygon4841"
       style="stroke-width: 1.0; stroke: #000000; fill: #000000; "
       points="515.1 184.56, 527.82 184.56, 521.46 198.18, 516.9 185.4" />
    <line
       id="line4843"
       style="stroke-width: 1.0; stroke: #000000; fill: #000000; "
       y2="198.18"
       x2="557.94"
       y1="130.74"
       x1="557.94" />
    <polygon
       id="polygon4845"
       style="stroke-width: 1.0; stroke: #000000; fill: #000000; "
       points="551.58 184.56, 564.3 184.56, 557.94 198.18, 553.38 185.4" />
    <line
       id="line4847"
       style="stroke-width: 1.0; stroke: #000000; fill: #000000; "
       y2="199.14"
       x2="595.32"
       y1="131.7"
       x1="595.32" />
    <polygon
       id="polygon4849"
       style="stroke-width: 1.0; stroke: #000000; fill: #000000; "
       points="588.96 185.52, 601.68 185.52, 595.32 199.14, 590.76 186.36" />
    <line
       id="line4851"
       style="stroke-width: 1.0; stroke: #000000; fill: #000000; "
       y2="199.14"
       x2="630"
       y1="131.7"
       x1="630" />
    <polygon
       id="polygon4853"
       style="stroke-width: 1.0; stroke: #000000; fill: #000000; "
       points="623.64 185.52, 636.36 185.52, 630 199.14, 625.44 186.36" />
    <line
       id="line4855"
       style="stroke-width: 1.0; stroke: #000000; fill: #000000; "
       y2="198.18"
       x2="666.42"
       y1="130.74"
       x1="666.42" />
    <polygon
       id="polygon4857"
       style="stroke-width: 1.0; stroke: #000000; fill: #000000; "
       points="660.06 184.56, 672.78 184.56, 666.42 198.18, 661.86 185.4" />
    <text
       id="text4859"
       y="120.54"
       x="513.6">
2 kN/m
</text>
    <polyline
       id="polyline4861"
       style="stroke-width:1;stroke:#000000;fill:none"
       points="433.68 197.88, 696.24 197.88, 696.24 278.04" />
    <polyline
       id="polyline4863"
       style="stroke-width:1;stroke:#000000;fill:none"
       points="435.12 218.22, 674.34 218.22, 674.34 278.04" />
    <line
       id="line4865"
       style="stroke-width: 1.0; stroke: #000000; fill: #000000; "
       y2="217.56"
       x2="435.3"
       y1="196.92"
       x1="435.3" />
    <polyline
       id="polyline4867"
       style="stroke-width:1;stroke:#000000;fill:none"
       points="450.84 131.64, 700.38 131.64, 700.38 198.06" />
    <line
       id="line4869"
       style="stroke-width: 1.0; stroke: #000000; fill: #000000; "
       y2="277.5"
       x2="696.36"
       y1="277.5"
       x1="675.3" />
    <line
       id="line4871"
       style="stroke-width: 1.0; stroke: #000000; fill: #000000; "
       y2="339.06"
       x2="684.24"
       y1="284.76"
       x1="684.24" />
    <polygon
       id="polygon4873"
       style="stroke-width: 1.0; stroke: #000000; fill: #000000; "
       points="684.24 283.98, 674.46 307.44, 694.68 307.44, 684.24 285.54" />
    <line
       id="line4875"
       style="stroke-width: 1.0; stroke: #000000; fill: #000000; "
       y2="275.88"
       x2="435.48"
       y1="221.58"
       x1="435.48" />
    <polygon
       id="polygon4877"
       style="stroke-width: 1.0; stroke: #000000; fill: #000000; "
       points="435.48 220.8, 425.7 244.26, 445.92 244.26, 435.48 222.36" />
    <text
       id="text4879"
       y="349.08"
       x="617.52">
4 kN
</text>
    <text
       id="text4881"
       y="120"
       x="164.52">
2 kN/m
</text>
    <line
       id="line4883"
       style="stroke-width: 1.0; stroke: #000000; fill: #000000; "
       y2="221.7"
       x2="295.38"
       y1="276"
       x1="295.38" />
    <polygon
       id="polygon4885"
       style="stroke-width: 1.0; stroke: #000000; fill: #000000; "
       points="295.38 276.78, 285.6 253.32, 305.82 253.32, 295.38 275.22" />
    <polygon
       id="polygon4887"
       style="stroke-width: 1.0; stroke: #000000; fill: #000000; "
       points="146.7 500.22, 136.92 523.68, 157.14 523.68, 146.7 501.78" />
    <line
       id="line4889"
       style="stroke-width: 1.0; stroke: #000000; fill: #000000; "
       y2="567.36"
       x2="145.38"
       y1="517.8"
       x1="145.38" />
    <text
       id="text4891"
       y="528.48"
       x="114.36">
8 
</text>
    <text
       style="fill:none"
       id="text4893"
       y="277.62"
       x="262.86">
4
</text>
    <text
       id="text4895"
       y="286.32"
       x="442.26">
4
</text>
    <line
       id="line4897"
       style="stroke-width:1;stroke:#000000;fill:none"
       y2="497.34"
       x2="155.64"
       y1="497.34"
       x1="132.3" />
    <path
       id="path4899"
       style="stroke-width:1;stroke:#000000;fill:none"
       d="  M104.52,535.32 C112.08,550.2 125.7,558.54 142.44,558.66" />
    <polyline
       id="polyline4901"
       style="stroke-width:1;stroke:#000000;fill:none"
       points="104.52 535.32, 105.06 536.4, 105.72 537.48, 106.32 538.56, 106.98 539.58, 107.64 540.6, 108.3 541.56, 109.02 542.52, 109.74 543.42, 110.52 544.38, 111.3 545.22, 112.08 546.06, 112.86 546.9, 113.7 547.68, 114.54 548.46, 115.44 549.24, 116.28 549.9, 117.18 550.62, 118.14 551.28, 119.04 551.94, 120 552.54, 121.02 553.08, 121.98 553.68, 123 554.16, 124.02 554.7, 125.04 555.12, 126.12 555.6, 127.2 556.02, 128.28 556.38, 129.36 556.74, 130.5 557.04, 131.64 557.34, 132.78 557.64, 133.92 557.82, 135.12 558.06, 136.32 558.24, 137.52 558.36, 138.72 558.48, 139.92 558.6, 141.18 558.66, 142.44 558.66" />
    <polyline
       id="polyline4903"
       style="stroke-width:1;stroke:#000000;fill:none"
       points="142.44 558.66, 143.76 558.66, 145.02 558.66, 146.34 558.6, 147.6 558.54, 148.86 558.42, 150.06 558.24, 151.32 558.06, 152.52 557.88, 153.78 557.64, 154.92 557.34, 156.12 557.04, 157.32 556.68, 158.46 556.32, 159.6 555.96, 160.74 555.54, 161.82 555.06, 162.9 554.58, 163.98 554.04, 165.06 553.5, 166.14 552.96, 167.16 552.3, 168.18 551.7, 169.14 551.04, 170.16 550.32, 171.12 549.6, 172.08 548.88, 172.98 548.1, 173.88 547.26, 174.78 546.42, 175.68 545.58, 176.52 544.68, 177.36 543.72, 178.14 542.76, 178.98 541.8, 179.76 540.78, 180.48 539.76, 181.2 538.68, 181.92 537.6, 182.64 536.46, 183.3 535.32" />
    <polygon
       id="polygon4905"
       style="stroke-width:1;stroke:#000000;fill:#000000"
       points="168.24 543.24, 184.26 533.52, 179.58 551.76, 168.48 542.82" />
    <text
       id="text4907"
       y="541.5"
       x="201.6">
12 kN.m
</text>
    <line
       id="line4909"
       style="stroke-width: 1.0; stroke: #000000; fill: #000000; "
       y2="131.22"
       x2="288.78"
       y1="131.22"
       x1="145.5" />
    <line
       id="line4911"
       style="stroke-width: 1.0; stroke: #000000; fill: #000000; "
       y2="186.12"
       x2="145.26"
       y1="131.4"
       x1="145.26" />
    <text
       id="text4895-1"
       y="279.96442"
       x="274.66925">4</text>
  </g>
</svg>
