<?xml version="1.0" encoding="UTF-8"?>
<!DOCTYPE svg PUBLIC "-//W3C//DTD SVG 1.1//EN" "http://www.w3.org/Graphics/SVG/1.1/DTD/svg11.dtd"><svg version="1.1" viewBox="0 0 20066 26416" preserveAspectRatio="xMidYMid" fill-rule="evenodd" xmlns="http://www.w3.org/2000/svg" xmlns:xlink="http://www.w3.org/1999/xlink"><g visibility="visible" id="Default" class="Master_Slide"><g style="stroke:none;fill:none"><rect x="0" y="0" width="20066" height="26416"/></g></g><g visibility="visible" id="page1" class="Slide"><g class="Drawing"><g><g style="stroke:rgb(0,0,0);stroke-width:3;stroke-linejoin:round;fill:none"><path style="fill:none" d="M 8139,1257 L 17422,1257 17422,1868 8210,1868"/></g></g></g><g class="Drawing"><g><g style="stroke:rgb(0,0,0);stroke-width:3;stroke-linejoin:round;fill:none"><path style="fill:none" d="M 8003,8331 L 17286,8331 17286,8942 8074,8942"/></g></g></g><g class="Drawing"><g><g style="stroke:rgb(0,0,0);stroke-width:3;stroke-linejoin:round;fill:none"><path style="fill:none" d="M 368,15615 L 9651,15615 9651,16226 439,16226"/></g></g></g><g class="Drawing"><g><g style="stroke:rgb(0,0,0);stroke-width:3;stroke-linejoin:round;fill:none"><path style="fill:none" d="M 447,21690 L 9730,21690 9730,22301 518,22301"/></g></g></g><g class="Drawing"><g><g style="stroke:rgb(0,0,0);stroke-width:3;stroke-linejoin:round;fill:none"><path style="fill:none" d="M 9626,16264 L 9013,17359 10369,17359 9641,16264 9626,16264"/></g></g></g><g class="Drawing"><g><g style="stroke:rgb(0,0,0);stroke-width:3;stroke-linejoin:round;fill:none"><path style="fill:none" d="M 9044,17439 L 8708,17861"/></g></g></g><g class="Drawing"><g><g style="stroke:rgb(0,0,0);stroke-width:3;stroke-linejoin:round;fill:none"><path style="fill:none" d="M 9449,17441 L 9112,17863"/></g></g></g><g class="Drawing"><g><g style="stroke:rgb(0,0,0);stroke-width:3;stroke-linejoin:round;fill:none"><path style="fill:none" d="M 9851,17441 L 9514,17863"/></g></g></g><g class="Drawing"><g><g style="stroke:rgb(0,0,0);stroke-width:3;stroke-linejoin:round;fill:none"><path style="fill:none" d="M 10224,17426 L 9887,17848"/></g></g></g><g class="Drawing"><g><g style="stroke:rgb(0,0,0);stroke-width:3;stroke-linejoin:round;fill:none"><path style="fill:none" d="M 14240,15450 L 16761,15450 16761,16069 14226,16069"/></g></g></g><g class="Drawing"><g><g style="stroke:rgb(0,0,0);stroke-width:3;stroke-linejoin:round;fill:none"><path style="fill:none" d="M 16365,21814 L 18886,21814 18886,22433 16351,22433"/></g></g></g><g class="Drawing"><g><g style="stroke:rgb(0,0,0);stroke-width:3;stroke-linejoin:round;fill:none"><path style="fill:none" d="M 9727,22435 L 9114,23530 10470,23530 9742,22435 9727,22435"/></g></g></g><g class="Drawing"><g><g style="stroke:rgb(0,0,0);stroke-width:3;stroke-linejoin:round;fill:none"><path style="fill:none" d="M 9216,24084 L 8879,24505"/></g></g></g><g class="Drawing"><g><g style="stroke:rgb(0,0,0);stroke-width:3;stroke-linejoin:round;fill:none"><path style="fill:none" d="M 9620,24086 L 9284,24507"/></g></g></g><g class="Drawing"><g><g style="stroke:rgb(0,0,0);stroke-width:3;stroke-linejoin:round;fill:none"><path style="fill:none" d="M 10022,24086 L 9686,24507"/></g></g></g><g class="Drawing"><g><g style="stroke:rgb(0,0,0);stroke-width:3;stroke-linejoin:round;fill:none"><path style="fill:none" d="M 10395,24071 L 10058,24492"/></g></g></g><g class="Drawing"><g><g style="stroke:rgb(0,0,0);stroke-width:3;stroke-linejoin:round;fill:none"><path style="fill:none" d="M 9070,24041 L 10560,24041"/></g></g></g><g class="Drawing"><g><g style="stroke:rgb(0,0,0);stroke-width:3;stroke-linejoin:round;fill:none"><path style="fill:none" d="M 10301,23958 C 10266,23958 10237,23950 10207,23933 10178,23916 10156,23895 10139,23866 10122,23837 10114,23808 10114,23774 10114,23740 10122,23711 10139,23682 10156,23653 10178,23632 10207,23615 10237,23598 10266,23590 10301,23590 10335,23590 10364,23598 10394,23615 10423,23632 10445,23653 10462,23682 10479,23711 10487,23740 10487,23774 10487,23808 10479,23837 10462,23866 10445,23895 10423,23916 10394,23933 10364,23950 10335,23958 10301,23958 L 10301,23958"/></g></g></g><g class="Drawing"><g><g style="stroke:rgb(0,0,0);stroke-width:3;stroke-linejoin:round;fill:none"><path style="fill:none" d="M 9320,23973 C 9285,23973 9256,23965 9226,23948 9197,23931 9175,23910 9158,23881 9141,23852 9133,23823 9133,23789 9133,23755 9141,23726 9158,23697 9175,23668 9197,23647 9226,23630 9256,23613 9285,23605 9320,23605 9354,23605 9383,23613 9413,23630 9442,23647 9464,23668 9481,23697 9498,23726 9506,23755 9506,23789 9506,23823 9498,23852 9481,23881 9464,23910 9442,23931 9413,23948 9383,23965 9354,23973 9320,23973 L 9320,23973"/></g></g></g><g class="Drawing"><g><g style="stroke:rgb(0,0,0);stroke-width:3;stroke-linejoin:round;fill:none"><path style="fill:none" d="M 18546,23169 C 18483,23169 18430,23155 18376,23124 18322,23093 18284,23054 18252,23001 18221,22947 18207,22894 18207,22833 18207,22771 18221,22718 18252,22664 18284,22611 18322,22572 18376,22541 18430,22510 18483,22496 18546,22496 18608,22496 18661,22510 18715,22541 18769,22572 18807,22611 18839,22664 18870,22718 18884,22771 18884,22833 18884,22894 18870,22947 18839,23001 18807,23054 18769,23093 18715,23124 18661,23155 18608,23169 18546,23169 L 18546,23169"/></g></g></g><g class="Drawing"><g><g style="stroke:rgb(0,0,0);stroke-width:3;stroke-linejoin:round;fill:none"><path style="fill:none" d="M 17154,16082 C 17091,16082 17038,16068 16984,16037 16930,16006 16892,15967 16860,15914 16829,15860 16815,15807 16815,15746 16815,15684 16829,15631 16860,15577 16892,15524 16930,15485 16984,15454 17038,15423 17091,15409 17154,15409 17216,15409 17269,15423 17323,15454 17377,15485 17415,15524 17447,15577 17478,15631 17492,15684 17492,15746 17492,15807 17478,15860 17447,15914 17415,15967 17377,16006 17323,16037 17269,16068 17216,16082 17154,16082 L 17154,16082"/></g></g></g><g class="Drawing"><g><g style="stroke:rgb(0,0,0);stroke-width:3;stroke-linejoin:round;fill:none"><path style="fill:none" d="M 17596,14874 L 17962,14563"/></g></g></g><g class="Drawing"><g><g style="stroke:rgb(0,0,0);stroke-width:3;stroke-linejoin:round;fill:none"><path style="fill:none" d="M 17594,15318 L 17960,15007"/></g></g></g><g class="Drawing"><g><g style="stroke:rgb(0,0,0);stroke-width:3;stroke-linejoin:round;fill:none"><path style="fill:none" d="M 17596,15778 L 17962,15467"/></g></g></g><g class="Drawing"><g><g style="stroke:rgb(0,0,0);stroke-width:3;stroke-linejoin:round;fill:none"><path style="fill:none" d="M 17594,16250 L 17960,15939"/></g></g></g><g class="Drawing"><g><g style="stroke:rgb(0,0,0);stroke-width:3;stroke-linejoin:round;fill:none"><path style="fill:none" d="M 17596,16681 L 17962,16370"/></g></g></g><g class="Drawing"><g><g style="stroke:rgb(0,0,0);stroke-width:3;stroke-linejoin:round;fill:none"><path style="fill:none" d="M 17549,14808 L 17549,16737"/></g></g></g><g class="Drawing"><g><g style="stroke:rgb(0,0,0);stroke-width:3;stroke-linejoin:round;fill:none"><path style="fill:none" d="M 19008,23287 L 19327,23645"/></g></g></g><g class="Drawing"><g><g style="stroke:rgb(0,0,0);stroke-width:3;stroke-linejoin:round;fill:none"><path style="fill:none" d="M 18553,23298 L 18864,23656"/></g></g></g><g class="Drawing"><g><g style="stroke:rgb(0,0,0);stroke-width:3;stroke-linejoin:round;fill:none"><path style="fill:none" d="M 18080,23305 L 18398,23660"/></g></g></g><g class="Drawing"><g><g style="stroke:rgb(0,0,0);stroke-width:3;stroke-linejoin:round;fill:none"><path style="fill:none" d="M 17647,23313 L 17966,23671"/></g></g></g><g class="Drawing"><g><g style="stroke:rgb(0,0,0);stroke-width:3;stroke-linejoin:round;fill:none"><path style="fill:none" d="M 19516,23237 L 17589,23268"/></g></g></g><g class="Drawing"><g><g style="stroke:rgb(0,0,0);stroke-width:3;stroke-linejoin:round;fill:none"><path style="fill:none" d="M 17333,7620 L 17699,7309"/></g></g></g><g class="Drawing"><g><g style="stroke:rgb(0,0,0);stroke-width:3;stroke-linejoin:round;fill:none"><path style="fill:none" d="M 17331,8064 L 17697,7753"/></g></g></g><g class="Drawing"><g><g style="stroke:rgb(0,0,0);stroke-width:3;stroke-linejoin:round;fill:none"><path style="fill:none" d="M 17333,8524 L 17699,8213"/></g></g></g><g class="Drawing"><g><g style="stroke:rgb(0,0,0);stroke-width:3;stroke-linejoin:round;fill:none"><path style="fill:none" d="M 17331,8996 L 17697,8685"/></g></g></g><g class="Drawing"><g><g style="stroke:rgb(0,0,0);stroke-width:3;stroke-linejoin:round;fill:none"><path style="fill:none" d="M 17333,9428 L 17699,9117"/></g></g></g><g class="Drawing"><g><g style="stroke:rgb(0,0,0);stroke-width:3;stroke-linejoin:round;fill:none"><path style="fill:none" d="M 17287,7554 L 17287,9483"/></g></g></g><g class="Drawing"><g><g style="stroke:rgb(0,0,0);stroke-width:3;stroke-linejoin:round;fill:none"><path style="fill:none" d="M 8110,671 L 8110,1428 8316,1518 7904,1643 8154,1723 8154,2260"/></g></g></g><g class="Drawing"><g><g style="stroke:rgb(0,0,0);stroke-width:3;stroke-linejoin:round;fill:none"><path style="fill:none" d="M 7954,7868 L 7954,8450 8279,8585 7806,8721 8049,8788 8049,9291"/></g></g></g><g class="Drawing"><g><g style="stroke:rgb(0,0,0);stroke-width:3;stroke-linejoin:round;fill:none"><path style="fill:none" d="M 321,15176 L 321,15760 591,15854 182,16030 404,16076 404,16498"/></g></g></g><g class="Drawing"><g><g style="stroke:rgb(0,0,0);stroke-width:3;stroke-linejoin:round;fill:none"><path style="fill:none" d="M 14173,14997 L 14173,15617 14490,15731 13913,15934 14208,16002 14208,16420"/></g></g></g><g class="Drawing"><g><g style="stroke:rgb(0,0,0);stroke-width:3;stroke-linejoin:round;fill:none"><path style="fill:none" d="M 432,21145 L 432,21792 693,21911 303,22050 491,22131 501,22509"/></g></g></g><g class="Drawing"><g><g style="stroke:rgb(0,0,0);stroke-width:3;stroke-linejoin:round;fill:none"><path style="fill:none" d="M 16295,21353 L 16295,21975 16563,22072 16046,22222 16306,22288 16306,22740"/></g></g></g><g class="Drawing"><g><g style="stroke:rgb(0,0,0);stroke-width:3;stroke-linejoin:round;fill:none"><path style="fill:none" d="M 10107,2612 C 11480,2673 12413,2810 13764,3155"/></g></g></g><g class="Drawing"><g><g style="stroke:rgb(0,0,0);stroke-width:3;stroke-linejoin:round;fill:none"><path style="fill:none" d="M 10107,2612 L 10208,2618 10310,2622 10407,2628 10507,2633 10602,2639 10697,2645 10790,2652 10883,2660 10976,2667 11067,2675 11156,2683 11245,2692 11334,2703 11423,2711 11510,2722 11597,2732 11683,2743 11770,2753 11857,2766 11943,2777 12029,2791 12114,2804 12201,2819 12288,2834 12374,2849 12461,2863 12548,2880 12637,2898 12726,2917 12815,2934 12904,2953 12995,2972 13086,2993 13179,3015 13274,3036 13367,3059 13465,3082 13562,3106 13661,3129 13764,3155"/></g></g></g><g class="Drawing"><g><g style="stroke:rgb(0,0,0);stroke-width:3;stroke-linejoin:round;fill:none"><path style="fill:none" d="M 13762,3154 L 13863,3181 13965,3206 14064,3232 14164,3257 14259,3283 14354,3310 14449,3336 14540,3361 14634,3386 14722,3414 14813,3441 14902,3467 14989,3494 15076,3522 15163,3549 15250,3579 15334,3606 15419,3636 15504,3666 15589,3695 15674,3725 15759,3757 15843,3789 15928,3822 16013,3854 16097,3888 16182,3922 16267,3958 16353,3994 16440,4030 16527,4066 16614,4104 16703,4144 16794,4184 16882,4225 16973,4267 17067,4309 17162,4352 17257,4396 17355,4444"/></g></g></g><g class="Drawing"><g><g style="stroke:rgb(0,0,0);stroke-width:3;stroke-linejoin:round;fill:none"><path style="fill:none" d="M 18165,1528 L 19317,1528"/></g></g></g><g class="Drawing"><g><g style="stroke:rgb(0,0,0);stroke-width:3;stroke-linejoin:round;fill:none"><path style="fill:none" d="M 17964,4443 L 19181,4443"/></g></g></g><g class="Drawing"><g><g style="stroke:rgb(0,0,0);stroke-width:3;stroke-linejoin:round;fill:none"><path style="fill:none" d="M 17691,4710 L 19317,5660"/></g></g></g><g class="Drawing"><g><g style="stroke:rgb(0,0,0);stroke-width:3;stroke-linejoin:round;fill:none"><path style="fill:none" d="M 18984,1530 L 18984,4430"/></g></g></g><g class="Drawing"><g><g style="stroke:rgb(0,0,0);stroke-width:3;stroke-linejoin:round;fill:none"><path style="fill:none" d="M 18743,3822 L 18985,4450 19195,3772"/></g></g></g><g class="Drawing"><g><g style="stroke:rgb(0,0,0);stroke-width:3;stroke-linejoin:round;fill:none"><path style="fill:none" d="M 18446,4449 C 18456,4573 18442,4662 18396,4778"/></g></g></g><g class="Drawing"><g><g style="stroke:rgb(0,0,0);stroke-width:3;stroke-linejoin:round;fill:none"><path style="fill:none" d="M 18447,4449 L 18447,4480 18450,4510 18450,4537 18447,4565 18445,4590 18441,4618 18437,4643 18430,4669 18424,4696 18415,4722 18406,4749 18396,4778"/></g></g></g><g class="Drawing"><g><g style="stroke:rgb(0,0,0);stroke-width:3;stroke-linejoin:round;fill:none"><path style="fill:none" d="M 18396,4777 L 18384,4804 18372,4827 18361,4851 18349,4872 18336,4893 18323,4912 18308,4931 18293,4950 18277,4967 18260,4986 18241,5003 18222,5021"/></g></g></g><g class="Drawing"><g><g style="stroke:rgb(0,0,0);stroke-width:3;stroke-linejoin:round;fill:none"><path style="fill:none" d="M 18238,4813 L 18222,5022 18431,4934"/></g></g></g><g class="Drawing"><g><g style="stroke:rgb(0,0,0);stroke-width:3;stroke-linejoin:round;fill:none"><path style="fill:none" d="M 17880,24888 C 17516,24888 17207,24805 16893,24623 16578,24442 16351,24215 16170,23901 15988,23586 15905,23277 15905,22913 15905,22549 15988,22240 16170,21926 16351,21611 16578,21384 16893,21203 17207,21021 17516,20938 17880,20938 18244,20938 18553,21021 18868,21203 19182,21384 19409,21611 19590,21926 19772,22240 19855,22549 19855,22913 19855,23277 19772,23586 19590,23901 19409,24215 19182,24442 18868,24623 18553,24805 18244,24888 17880,24888 L 17880,24888"/></g></g></g><g class="Drawing"><g><g style="stroke:rgb(0,0,0);stroke-width:3;stroke-linejoin:round;fill:none"><path style="fill:none" d="M 16527,24405 L 19234,21560"/></g></g></g><g class="Drawing"><g><g style="stroke:rgb(0,0,0);stroke-width:3;stroke-linejoin:round;fill:none"><path style="fill:none" d="M 9625,15987 C 8659,16492 7962,16751 6917,17004"/></g></g></g><g class="Drawing"><g><g style="stroke:rgb(0,0,0);stroke-width:3;stroke-linejoin:round;fill:none"><path style="fill:none" d="M 9625,15987 L 9552,16025 9480,16061 9410,16097 9342,16133 9272,16166 9205,16198 9139,16232 9071,16262 9006,16293 8940,16323 8874,16353 8811,16382 8745,16410 8682,16437 8618,16465 8555,16490 8491,16516 8428,16541 8364,16566 8301,16590 8237,16613 8172,16636 8108,16660 8043,16683 7979,16704 7913,16725 7846,16746 7780,16768 7712,16789 7645,16808 7577,16829 7507,16848 7437,16869 7365,16888 7293,16907 7221,16926 7147,16945 7071,16964 6995,16983 6917,17004"/></g></g></g><g class="Drawing"><g><g style="stroke:rgb(0,0,0);stroke-width:3;stroke-linejoin:round;fill:none"><path style="fill:none" d="M 6918,17003 L 6783,17034 6654,17064 6527,17094 6400,17121 6275,17149 6150,17176 6030,17199 5909,17225 5788,17248 5670,17269 5553,17291 5437,17313 5321,17332 5206,17351 5092,17368 4978,17384 4863,17399 4751,17414 4637,17429 4525,17442 4410,17454 4298,17465 4184,17476 4070,17486 3955,17495 3841,17503 3725,17509 3608,17516 3490,17522 3371,17528 3253,17533 3132,17537 3009,17539 2886,17541 2762,17543 2635,17546 2505,17546 2374,17546 2243,17546 2108,17543"/></g></g></g><g class="Drawing"><g><g style="stroke:rgb(0,0,0);stroke-width:3;stroke-linejoin:round;fill:none"><path style="fill:none" d="M 10840,21821 C 8726,22592 7236,22941 5012,23177"/></g></g></g><g class="Drawing"><g><g style="stroke:rgb(0,0,0);stroke-width:3;stroke-linejoin:round;fill:none"><path style="fill:none" d="M 10840,21821 L 10680,21878 10525,21933 10373,21988 10223,22039 10072,22091 9924,22140 9780,22189 9634,22235 9492,22280 9351,22324 9209,22367 9069,22409 8929,22449 8792,22487 8654,22526 8517,22564 8379,22598 8242,22634 8104,22668 7968,22700 7831,22732 7693,22761 7554,22791 7416,22821 7276,22848 7137,22873 6995,22901 6853,22926 6709,22950 6565,22973 6417,22996 6269,23020 6121,23041 5968,23062 5816,23083 5659,23102 5500,23121 5342,23140 5179,23159 5012,23177"/></g></g></g><g class="Drawing"><g><g style="stroke:rgb(0,0,0);stroke-width:3;stroke-linejoin:round;fill:none"><path style="fill:none" d="M 5013,23175 L 4934,23185 4860,23194 4784,23202 4712,23208 4638,23217 4566,23223 4496,23230 4424,23236 4356,23240 4286,23246 4219,23251 4151,23255 4083,23259 4018,23261 3950,23263 3884,23266 3819,23268 3753,23271 3687,23271 3621,23271 3555,23271 3490,23271 3424,23268 3358,23266 3293,23263 3227,23261 3159,23259 3094,23255 3026,23251 2958,23246 2891,23240 2821,23236 2751,23230 2681,23223 2609,23217 2537,23208 2463,23202 2389,23194 2313,23183 2237,23175"/></g></g></g><g class="Drawing"><g><g style="stroke:rgb(0,0,0);stroke-width:3;stroke-linejoin:round;fill:none"><path style="fill:none" d="M 9898,15919 L 12200,14698"/></g></g></g><g class="Drawing"><g><g style="stroke:rgb(0,0,0);stroke-width:3;stroke-linejoin:round;fill:none"><path style="fill:none" d="M 9898,15987 L 12135,15987"/></g></g></g><g class="Drawing"><g><g style="stroke:rgb(0,0,0);stroke-width:3;stroke-linejoin:round;fill:none"><path style="fill:none" d="M 9688,21211 L 9688,20398"/></g></g></g><g class="Drawing"><g><g style="stroke:rgb(0,0,0);stroke-width:3;stroke-linejoin:round;fill:none"><path style="fill:none" d="M 10839,21074 L 10839,20331"/></g></g></g><g class="Drawing"><g><g style="stroke:rgb(0,0,0);stroke-width:3;stroke-linejoin:round;fill:none"><path style="fill:none" d="M 10774,21821 L 12736,21006"/></g></g></g><g class="Drawing"><g><g style="stroke:rgb(0,0,0);stroke-width:3;stroke-linejoin:round;fill:none"><path style="fill:none" d="M 10839,21956 L 12941,21956"/></g></g></g><g class="Drawing"><g><g style="stroke:rgb(0,0,0);stroke-width:3;stroke-linejoin:round;fill:none"><path style="fill:none" d="M 12603,21957 C 12672,21827 12699,21706 12670,21550"/></g></g></g><g class="Drawing"><g><g style="stroke:rgb(0,0,0);stroke-width:3;stroke-linejoin:round;fill:none"><path style="fill:none" d="M 12603,21957 L 12619,21924 12634,21892 12645,21861 12655,21829 12666,21795 12672,21763 12677,21729 12682,21696 12682,21662 12679,21626 12674,21588 12670,21550"/></g></g></g><g class="Drawing"><g><g style="stroke:rgb(0,0,0);stroke-width:3;stroke-linejoin:round;fill:none"><path style="fill:none" d="M 12671,21550 L 12655,21507 12642,21464 12625,21426 12608,21390 12589,21354 12568,21320 12547,21289 12521,21259 12494,21229 12464,21200 12432,21170 12397,21143"/></g></g></g><g class="Drawing"><g><g style="stroke:rgb(0,0,0);stroke-width:3;stroke-linejoin:round;fill:none"><path style="fill:none" d="M 9688,20667 L 10839,20667"/></g></g></g><g class="Drawing"><g><g style="stroke:rgb(0,0,0);stroke-width:3;stroke-linejoin:round;fill:none"><path style="fill:none" d="M 11295,15170 C 11434,15356 11500,15506 11554,15734"/></g></g></g><g class="Drawing"><g><g style="stroke:rgb(0,0,0);stroke-width:3;stroke-linejoin:round;fill:none"><path style="fill:none" d="M 11295,15170 L 11320,15208 11345,15244 11369,15277 11392,15313 11411,15349 11430,15383 11447,15419 11464,15455 11479,15491 11493,15527 11506,15565 11519,15606 11529,15646 11542,15688 11554,15734"/></g></g></g><g class="Drawing"><g><g style="stroke:rgb(0,0,0);stroke-width:3;stroke-linejoin:round;fill:none"><path style="fill:none" d="M 11553,15733 L 11557,15756 11562,15779 11564,15800 11567,15821 11567,15840 11567,15862 11567,15881 11567,15902 11564,15923 11562,15944 11557,15965 11553,15990"/></g></g></g><g class="Drawing"><g><g style="stroke:rgb(0,0,0);stroke-width:3;stroke-linejoin:round;fill:none"><path style="fill:none" d="M 11341,15497 L 11320,15147 11529,15356"/></g></g></g><g class="Drawing"><g><g style="stroke:rgb(0,0,0);stroke-width:3;stroke-linejoin:round;fill:none"><path style="fill:none" d="M 12467,21346 L 12404,21131 12595,21248"/></g></g></g><g class="Drawing"><g><g style="stroke:rgb(0,0,0);stroke-width:3;stroke-linejoin:round;fill:none"><path style="fill:none" d="M 10573,20517 L 10839,20655 10583,20783"/></g></g></g><g class="Drawing"><g><g style="stroke:rgb(0,0,0);stroke-width:3;stroke-linejoin:round;fill:none"><path style="fill:none" d="M 18597,15706 L 19863,15706"/></g></g></g><g class="Drawing"><g><g style="stroke:none;fill:rgb(0,0,0)"><path d="M 18181,15704 L 18830,15467 18830,15910 18167,15704 18181,15704 Z"/></g><g style="stroke:rgb(0,0,0);stroke-width:3;stroke-linejoin:round;fill:none"><path style="fill:none" d="M 18181,15704 L 18830,15467 18830,15910 18167,15704 18181,15704"/></g></g></g><g class="Drawing"><g><g style="stroke:rgb(0,0,0);stroke-width:3;stroke-linejoin:round;fill:none"><path style="fill:none" d="M 18375,16212 L 18375,17473"/></g></g></g><g class="Drawing"><g><g style="stroke:none;fill:rgb(0,0,0)"><path d="M 18374,16050 L 18142,16699 18581,16699 18374,16036 18374,16050 Z"/></g><g style="stroke:rgb(0,0,0);stroke-width:3;stroke-linejoin:round;fill:none"><path style="fill:none" d="M 18374,16050 L 18142,16699 18581,16699 18374,16036 18374,16050"/></g></g></g><g class="Drawing"><g><g style="stroke:rgb(0,0,0);stroke-width:3;stroke-linejoin:round;fill:none"><path style="fill:none" d="M 18330,8592 L 19596,8592"/></g></g></g><g class="Drawing"><g><g style="stroke:none;fill:rgb(0,0,0)"><path d="M 17915,8589 L 18564,8352 18564,8795 17901,8589 17915,8589 Z"/></g><g style="stroke:rgb(0,0,0);stroke-width:3;stroke-linejoin:round;fill:none"><path style="fill:none" d="M 17915,8589 L 18564,8352 18564,8795 17901,8589 17915,8589"/></g></g></g><g class="Drawing"><g><g style="stroke:rgb(0,0,0);stroke-width:3;stroke-linejoin:round;fill:none"><path style="fill:none" d="M 18108,9098 L 18108,10359"/></g></g></g><g class="Drawing"><g><g style="stroke:none;fill:rgb(0,0,0)"><path d="M 18107,8936 L 17875,9585 18314,9585 18107,8922 18107,8936 Z"/></g><g style="stroke:rgb(0,0,0);stroke-width:3;stroke-linejoin:round;fill:none"><path style="fill:none" d="M 18107,8936 L 17875,9585 18314,9585 18107,8922 18107,8936"/></g></g></g><g class="Drawing"><g><g style="stroke:rgb(0,0,0);stroke-width:3;stroke-linejoin:round;fill:none"><path style="fill:none" d="M 9813,25121 L 9813,26382"/></g></g></g><g class="Drawing"><g><g style="stroke:none;fill:rgb(0,0,0)"><path d="M 9799,24637 L 9567,25286 10006,25286 9799,24623 9799,24637 Z"/></g><g style="stroke:rgb(0,0,0);stroke-width:3;stroke-linejoin:round;fill:none"><path style="fill:none" d="M 9799,24637 L 9567,25286 10006,25286 9799,24623 9799,24637"/></g></g></g><g class="Drawing"><g><g style="stroke:rgb(0,0,0);stroke-width:3;stroke-linejoin:round;fill:none"><path style="fill:none" d="M 18663,7569 C 19113,7647 19448,8045 19453,8503"/></g></g></g><g class="Drawing"><g><g style="stroke:rgb(0,0,0);stroke-width:3;stroke-linejoin:round;fill:none"><path style="fill:none" d="M 18663,7569 L 18694,7577 18728,7583 18762,7592 18794,7602 18825,7613 18855,7626 18887,7638 18916,7653 18946,7668 18974,7685 19003,7702 19031,7719 19056,7738 19084,7759 19109,7778 19132,7799 19156,7823 19179,7846 19202,7869 19223,7894 19245,7920 19264,7945 19283,7973 19302,7998 19319,8028 19336,8055 19350,8085 19363,8115 19378,8144 19391,8174 19401,8206 19410,8237 19420,8269 19429,8301 19435,8335 19439,8366 19444,8400 19448,8434 19450,8468 19453,8503"/></g></g></g><g class="Drawing"><g><g style="stroke:rgb(0,0,0);stroke-width:3;stroke-linejoin:round;fill:none"><path style="fill:none" d="M 19453,8503 L 19450,8538 19448,8572 19446,8606 19441,8640 19435,8672 19429,8706 19420,8737 19412,8769 19401,8801 19391,8833 19378,8864 19365,8894 19350,8924 19336,8953 19319,8981 19302,9010 19285,9036 19266,9063 19245,9089 19226,9114 19204,9140 19181,9163 19158,9186 19135,9209 19109,9231 19084,9250 19058,9271 19031,9290 19003,9307 18976,9324 18946,9341 18916,9356 18887,9370 18857,9383 18825,9396 18794,9406 18762,9417 18728,9425 18696,9432 18663,9439"/></g></g></g><g class="Drawing"><g><g style="stroke:none;fill:rgb(0,0,0)"><path d="M 18871,9083 L 18500,9487 19098,9520 18871,9116 18871,9083 Z"/></g><g style="stroke:rgb(0,0,0);stroke-width:3;stroke-linejoin:round;fill:none"><path style="fill:none" d="M 18871,9083 L 18500,9487 19098,9520 18871,9116 18871,9083"/></g></g></g></g></svg>