<?xml version="1.0" standalone="yes"?>
<!DOCTYPE svg PUBLIC "-//W3C//DTD SVG 1.1//EN" 
  "http://www.w3.org/Graphics/SVG/1.1/DTD/svg11.dtd">
<svg xmlns="http://www.w3.org/2000/svg"
     xmlns:xlink="http://www.w3.org/1999/xlink"
     version="1.1"
     width="8.5in" 
     height="11.0in" 
     viewBox="0 0 612 792">
  <defs>
    <style type="text/css"><![CDATA[
    .elem {
	stroke-width: 2.0;
	stroke: black;
	}
    path.dim {
       stroke-width: 0.5;
       stroke: black;
       }
    path.guides {
       stroke-width: 0.5;
       stroke: grey;
       }
    text.dwglabel {
       font-family: Verdana, Arial;
       font-size: 10px;
       font-weight: bold;
       fill: black;
       text-align: center;
       text-anchor: start;
       }
    text.dim {
       font-family: Verdana, Arial;
       font-size: 8px;
       font-weight: bold;
       fill: black;
       text-align: center;
       text-anchor: middle;
       }
    text.guides {
       font-family: Verdana, Arial;
       font-size: 8px;
       font-weight: normal;
       font-style: italic;
       fill: black;
       text-align: center;
       text-anchor: middle;
       }
    text.vmlabel {
       font-family: Verdana, Arial;
       font-size: 8px;
       font-style: italic;
       fill: black;
       }
    text.notes {
       font-family: Verdana, Arial;
       font-size: 9px;
       font-weight: normal;
       font-style: italic;
       fill: black;
       text-align: center;
       text-anchor: left;
       }
    text.ptlabel {
       font-family: Verdana, Arial;
       font-size: 7px;
       font-style: italic;
       fill: black;
       text-align: center;
       text-anchor: start;
       }
     path.cload {
       fill: none;
       stroke-width: 1;
       stroke: black; 
       marker-end: url(#CLArrowEnd);
     }
      path.mload {
       fill: none;
       stroke-width: 1;
       stroke: black; 
       marker-end: url(#MLArrowEnd);
     }
      path.mloadInkscape {
       fill: none;
       stroke-width: 1;
       stroke: black; 
       marker-end: url(#MLArrowStart);
     }
     polygon.dload {
       fill: rgb(240,240,240);
       opacity: 0.5; /* if < 1, REALLY slows down printing of the pdfs */
       stroke-width: 1;
       stroke: black; 
     }
     path.dload {
       fill: none;
       stroke-width: 1;
       stroke: black; 
       marker-end: url(#DLArrowEnd);
     }
     path.dloadna {
       fill: none;
       stroke-width: 1;
       stroke: black; 
     }
     path.vdiag {
       fill: url(#crosshatch45);
       stroke-width: 1;
       stroke: black; 
     }
     path.mdiag {
       fill: url(#crosshatch45);
       stroke-width: 1;
       stroke: black; 
     }

    ]]></style>
    <g id="PinnedSupport" transform="translate(0,1.0)">
      <path d="M 0 0 l 4 6 l -8 0 z" 
	    stroke="black" stroke-width="0" fill="black" opacity="1.0" />
      <path d="M -6 6 l 12 0" 
	    stroke="black" stroke-width="1" fill="none" />
      <path d="M 6 6 l -3 3 m 0 -3 l -3 3 m 0 -3 l -3 3 m 0 -3 l -3 3 m 0 -3 l -3 3"
	    stroke="black" stroke-width="1" fill="none" />
    </g>
    <g id="RollerSupport" transform="translate(0,1.0)">
      <circle cx="0" cy="3" r="3"
	    stroke="black" stroke-width="0" fill="black" opacity="1.0" />
      <path d="M -6 6 l 12 0" 
	    stroke="black" stroke-width="1" fill="none" />
      <path d="M 6 6 l -3 3 m 0 -3 l -3 3 m 0 -3 l -3 3 m 0 -3 l -3 3 m 0 -3 l -3 3"
	    stroke="black" stroke-width="1" fill="none" />
    </g>
    <g id="LFixedSupport" transform="translate(-0.5,0)">
      <path d="M 0 -6 l 0 12"
	    stroke="black" stroke-width="1" fill="none" />
      <path d="M 0 -6 l -3 3 m 3 0 l -3 3 m 3 0 l -3 3 m 3 0 l -3 3 m 3 0 l -3 3"
	    stroke="black" stroke-width="1" fill="none" />
    </g>
    <g id="RFixedSupport">
      <use xlink:href="#LFixedSupport" transform="scale(-1,1)"/>
    </g>
    <g id="Hinge">
      <circle cx="0" cy="0" r="2.5"
	      stroke="black" stroke-width="1" fill="white"/>
    </g>
    <g id="ShearRelease">
      <rect x="-3" y="-6" width="6" height="12"
	    stroke="none" fill="white"/>
      <circle cx="0" cy="-6" r="2" stroke="black" strokewidth="0.5" fill="white"/>
      <circle cx="0" cy="0" r="2" stroke="black" strokewidth="0.5" fill="white"/>
      <circle cx="0" cy="6" r="2" stroke="black" strokewidth="0.5" fill="white"/>
      <path d="M -3 -9 l 0 18 M 3 -9 l 0 18" stroke="black" stroke-width="1"/>
    </g>
    <marker id="DLArrowStart"
	    markerUnits="userSpaceOnUse"
	    markerWidth="8"
	    markerHeight="4"
	    orient="auto"
	    viewBox="0 0 8 4"
	    refX="0"
	    refY="2">
      <path d="M 0 2 l 8 -2 l 0 4 z"/>
    </marker>
    <marker id="DLArrowEnd"
	    markerUnits="userSpaceOnUse"
	    markerWidth="8"
	    markerHeight="4"
	    orient="auto"
	    viewBox="0 0 8 4"
	    refX="8"
	    refY="2">
      <path d="M 0 0 l 8 2 l -8 2 z"/>
    </marker>
    <marker id="CLArrowStart"
	    markerUnits="userSpaceOnUse"
	    markerWidth="10.0"
	    markerHeight="6"
	    orient="auto"
	    viewBox="0 0 10 6"
	    refX="3.0"
	    refY="3">
      <path d="M 0 3 l 10 -3 l -2 3 l 2 3 z"/>
    </marker>
    <marker id="CLArrowEnd"
	    markerUnits="userSpaceOnUse"
	    markerWidth="10.0"
	    markerHeight="6"
	    orient="auto"
	    viewBox="0 0 10 6"
	    refX="7.0"
	    refY="3">
      <path d="M 0 0 l 10 3 l -10 3 l 2 -3 z"/>
    </marker>
    <marker id="MLArrowStart"
	    markerUnits="userSpaceOnUse"
	    markerWidth="10.0"
	    markerHeight="6"
	    orient="auto"
	    viewBox="0 0 10 6"
	    refX="8"
	    refY="3">
      <path d="M 10 0 l -10 3 l 10 3 l -2 -3 z"/>
    </marker>
    <marker id="MLArrowEnd"
	    markerUnits="userSpaceOnUse"
	    markerWidth="10.0"
	    markerHeight="6"
	    orient="auto"
	    viewBox="0 0 10 6"
	    refX="2"
	    refY="3">
      <path d="M 0 0 l 10 3 l -10 3 l 2 -3 z"/>
    </marker>
    <pattern id="crosshatch45" patternUnits="userSpaceOnUse"
             x="0" y="0" width="10" height="10"
	     viewBox="0 0 10 10">
       <path d="M 0 0 L 10 10" fill="none" stroke="grey" stroke-width="0.2"/>
    </pattern>


  </defs>

<g transform="translate(72.0,122.0)">
  <title>Beam! Length = 16.8</title>
  <path class="elem" d="M 0 0 l 360.0 0"/>
  <g transform="translate(0.0,0.0)">
    <title>UD Load 30 kN/m</title>
    <polygon points="0,0 0,-12.0 360.0,-12.0 360.0,0" class="dload"/>
    <path class="dload" d="M 0.0 -12.0 L 0.0 -1.0"/>
    <path class="dload" d="M 25.7 -12.0 L 25.7 -1.0"/>
    <path class="dload" d="M 51.4 -12.0 L 51.4 -1.0"/>
    <path class="dload" d="M 77.1 -12.0 L 77.1 -1.0"/>
    <path class="dload" d="M 102.9 -12.0 L 102.9 -1.0"/>
    <path class="dload" d="M 128.6 -12.0 L 128.6 -1.0"/>
    <path class="dload" d="M 154.3 -12.0 L 154.3 -1.0"/>
    <path class="dload" d="M 180.0 -12.0 L 180.0 -1.0"/>
    <path class="dload" d="M 205.7 -12.0 L 205.7 -1.0"/>
    <path class="dload" d="M 231.4 -12.0 L 231.4 -1.0"/>
    <path class="dload" d="M 257.1 -12.0 L 257.1 -1.0"/>
    <path class="dload" d="M 282.9 -12.0 L 282.9 -1.0"/>
    <path class="dload" d="M 308.6 -12.0 L 308.6 -1.0"/>
    <path class="dload" d="M 334.3 -12.0 L 334.3 -1.0"/>
    <path class="dload" d="M 360.0 -12.0 L 360.0 -1.0"/>
    <text style="text-anchor: middle;" dx="0.0" dy="-2.0" y="-12.0" x="180.0" class="dim">30</text>
  </g>
  <g transform="translate(177.9,-1.0)">
    <title>Point Load = 90 kN</title>
    <path class="cload" d="M 0 -26.0 l 0 23.0"/>
    <text y="-26.0" x="0" class="dim" dy="-3.0">90</text>
  </g>
  <use y="0" x="38.6" xlink:href="#RollerSupport"/>
  <use y="0" x="177.9" xlink:href="#Hinge"/>
  <use y="0" x="360.0" xlink:href="#RFixedSupport"/>
  <path class="dim" d="M 177.9 10.0 l 0 25.0"/>
  <path class="dim" d="M 38.6 30.0 l 139.3 0"/>
  <path class="dim" d="M 38.6 30.0 m -3.0 3.0 l 6.0 -6.0"/>
  <path class="dim" d="M 177.9 30.0 m -3.0 3.0 l 6.0 -6.0"/>
  <text y="30.0" x="108.2" class="dim" dy="-3.0">6.5</text>
  <path class="dim" d="M 0.0 10.0 l 0 40.0"/>
  <path class="dim" d="M 38.6 10.0 l 0 40.0"/>
  <path class="dim" d="M 0.0 45.0 l 38.6 0"/>
  <path class="dim" d="M 0.0 45.0 m -3.0 3.0 l 6.0 -6.0"/>
  <path class="dim" d="M 38.6 45.0 m -3.0 3.0 l 6.0 -6.0"/>
  <text y="45.0" x="19.3" class="dim" dy="-3.0">1.8</text>
  <path class="dim" d="M 360.0 10.0 l 0 40.0"/>
  <path class="dim" d="M 38.6 45.0 l 321.4 0"/>
  <path class="dim" d="M 360.0 45.0 m -3.0 3.0 l 6.0 -6.0"/>
  <text y="45.0" x="199.3" class="dim" dy="-3.0">15</text>
  <text y="17.0" x="0.0" class="ptlabel" dx="1.0">a</text>
  <text y="17.0" x="38.6" class="ptlabel" dx="1.0">b</text>
  <text y="17.0" x="177.9" class="ptlabel" dx="1.0">c</text>
  <text y="17.0" x="360.0" class="ptlabel" dx="1.0">d</text>
  <text y="-56.0" x="0" xml:space="preserve" class="notes">Units are m, kN;       Difficulty Level = 5</text>
  <g id="beam-guides" visibility="visible" transform="translate(0.0,0.0)">
    <path class="guides" d="M 0.0 51.0 L 0.0 474.0 M 38.6 51.0 L 38.6 474.0 M 177.9 51.0 L 177.9 474.0 M 360.0 51.0 L 360.0 474.0"/>
  </g>
  <g id="beam-fb-diagram" visibility="visible" transform="translate(0.0,144.0)">
    <title>Free Body Diagram</title>
    <path class="elem" d="M 0 0 l 360.0 0"/>
    <g transform="translate(0.0,0.0)">
      <title>UD Load 30 kN/m</title>
      <polygon points="0,0 0,-12.0 360.0,-12.0 360.0,0" class="dload"/>
      <path class="dload" d="M 0.0 -12.0 L 0.0 -1.0"/>
      <path class="dload" d="M 25.7 -12.0 L 25.7 -1.0"/>
      <path class="dload" d="M 51.4 -12.0 L 51.4 -1.0"/>
      <path class="dload" d="M 77.1 -12.0 L 77.1 -1.0"/>
      <path class="dload" d="M 102.9 -12.0 L 102.9 -1.0"/>
      <path class="dload" d="M 128.6 -12.0 L 128.6 -1.0"/>
      <path class="dload" d="M 154.3 -12.0 L 154.3 -1.0"/>
      <path class="dload" d="M 180.0 -12.0 L 180.0 -1.0"/>
      <path class="dload" d="M 205.7 -12.0 L 205.7 -1.0"/>
      <path class="dload" d="M 231.4 -12.0 L 231.4 -1.0"/>
      <path class="dload" d="M 257.1 -12.0 L 257.1 -1.0"/>
      <path class="dload" d="M 282.9 -12.0 L 282.9 -1.0"/>
      <path class="dload" d="M 308.6 -12.0 L 308.6 -1.0"/>
      <path class="dload" d="M 334.3 -12.0 L 334.3 -1.0"/>
      <path class="dload" d="M 360.0 -12.0 L 360.0 -1.0"/>
      <text style="text-anchor: middle;" dx="0.0" dy="-2.0" y="-12.0" x="180.0" class="dim">30</text>
    </g>
    <g transform="translate(177.9,-1.0)">
      <title>Point Load = 90 kN</title>
      <path class="cload" d="M 0 -29.3 l 0 26.3"/>
      <text y="-29.3" x="0" class="dim" dy="-3.0">90</text>
    </g>
    <g transform="translate(38.6,1.0)">
      <title>Point Load = -158.977 kN</title>
      <path class="cload" d="M 0 31.8 l 0 -28.8"/>
      <text y="31.8" x="0" class="dim" dy="8.0">159</text>
    </g>
    <g transform="translate(360.0,1.0)">
      <title>Point Load = -435.023 kN</title>
      <path class="cload" d="M 0 42.0 l 0 -39.0"/>
      <text y="42.0" x="0" class="dim" dy="8.0">435</text>
    </g>
    <g transform="translate(360.0,0.0)">
      <title>Moment load = -2613.95 kN-m</title>
      <path class="dim" d="M -2.0 -2.0 l 4.0 4.0 M -2.0 2.0 l 4.0 -4.0"/>
      <path class="mloadInkscape" d="M 0.0,-15.0 A 15.0,15.0 0 0,1 0.0,15.0"/>
      <text y="-15.0" x="0.0" class="dim" dy="-4.0">2614</text>
    </g>
    <text x="360.0" y="0" class="dwglabel" dx="18.0">FBD [m,kN]</text>
  </g>
  <g id="beam-shear-diagram" visibility="visible" transform="translate(0.0,216.0)">
    <g transform="translate(0.0,21.0)">
      <title>Shear Force Diagram</title>
      <path class="vdiag" d="M 0,0 L 0.0,-0.0 38.6,10.8 38.6,-21.0 177.9,18.0 177.9,36.0 360.0,87.0 360.0,-0.0 z"/>
      <circle cx="38.6" cy="10.8" r="1.5" stroke="none" fill="red"><title>-54 kN</title></circle>
      <text x="38.6" y="10.8" dx="1.0" dy="7.0" class="vmlabel" text-anchor="start"><title>-54 kN</title>-54</text>
      <circle cx="38.6" cy="-21.0" r="1.5" stroke="none" fill="red"><title>105 kN</title></circle>
      <text x="38.6" y="-21.0" dx="1.0" dy="-1.0" class="vmlabel" text-anchor="start"><title>105 kN</title>105</text>
      <circle cx="177.9" cy="18.0" r="1.5" stroke="none" fill="red"><title>-90.02 kN</title></circle>
      <text x="177.9" y="18.0" dx="-1.0" dy="7.0" class="vmlabel" text-anchor="end"><title>-90.02 kN</title>-90.02</text>
      <circle cx="177.9" cy="36.0" r="1.5" stroke="none" fill="red"><title>-180 kN</title></circle>
      <text x="177.9" y="36.0" dx="-1.0" dy="7.0" class="vmlabel" text-anchor="end"><title>-180 kN</title>-180</text>
      <circle cx="360.0" cy="87.0" r="1.5" stroke="none" fill="red"><title>-435 kN</title></circle>
      <text x="360.0" y="87.0" dx="1.0" dy="7.0" class="vmlabel" text-anchor="start"><title>-435 kN</title>-435</text>
      <text x="360.0" y="0" class="dwglabel" dx="18.0">V [kN]</text>
    </g>
    <g id="beam-zvguides" visibility="visible" transform="translate(0.0,0.0)">
      <path class="guides" d="M 113.6 23.0 L 113.6 258.0"/>
      <path class="guides" d="M 38.6 126.0 L 113.6 126.0"/>
      <path class="guides" d="M 38.6 126.0 m -3.0 3.0 l 6.0 -6.0"/>
      <path class="guides" d="M 113.6 126.0 m -3.0 3.0 l 6.0 -6.0"/>
      <text y="126.0" x="76.1" class="guides" dy="-3.0">3.5</text>
    </g>
  </g>
  <g id="beam-moment-diagram" visibility="visible" transform="translate(0.0,360.0)">
    <g transform="translate(0.0,5.3)">
      <title>Bending Moment Diagram</title>
      <path class="mdiag" d="M 0,0 L 0.0,0.0 1.8,0.0 3.7,0.0 5.5,0.0 7.3,0.1 9.2,0.1 11.0,0.2 12.9,0.2 14.7,0.3 16.5,0.4 18.4,0.4 20.2,0.5 22.0,0.6 23.9,0.7 25.7,0.8 27.6,1.0 29.4,1.1 31.2,1.3 33.1,1.4 34.9,1.6 36.7,1.7 38.6,1.9 40.4,1.6 42.2,1.2 44.0,0.9 45.8,0.6 47.6,0.3 49.4,-0.0 51.2,-0.3 53.0,-0.6 54.9,-0.9 56.7,-1.2 58.5,-1.4 60.3,-1.7 62.1,-1.9 63.9,-2.1 65.7,-2.4 67.5,-2.6 69.3,-2.8 71.1,-3.0 72.9,-3.2 74.7,-3.4 76.6,-3.5 78.4,-3.7 80.2,-3.9 82.0,-4.0 83.8,-4.2 85.6,-4.3 87.4,-4.4 89.2,-4.5 91.0,-4.7 92.8,-4.8 94.6,-4.8 96.5,-4.9 98.3,-5.0 100.1,-5.1 101.9,-5.1 103.7,-5.2 105.5,-5.2 107.3,-5.3 109.1,-5.3 110.9,-5.3 112.7,-5.3 113.6,-5.3 114.5,-5.3 116.4,-5.3 118.2,-5.3 120.0,-5.3 121.8,-5.2 123.6,-5.2 125.4,-5.1 127.2,-5.1 129.0,-5.0 130.8,-4.9 132.6,-4.8 134.4,-4.7 136.3,-4.6 138.1,-4.5 139.9,-4.4 141.7,-4.3 143.5,-4.2 145.3,-4.0 147.1,-3.9 148.9,-3.7 150.7,-3.5 152.5,-3.4 154.3,-3.2 156.2,-3.0 158.0,-2.8 159.8,-2.6 161.6,-2.3 163.4,-2.1 165.2,-1.9 167.0,-1.6 168.8,-1.4 170.6,-1.1 172.4,-0.9 174.2,-0.6 176.0,-0.3 177.9,0.0 179.7,0.6 181.5,1.2 183.3,1.8 185.1,2.4 186.9,3.1 188.7,3.7 190.5,4.4 192.3,5.0 194.1,5.7 195.9,6.4 197.7,7.1 199.5,7.7 201.3,8.4 203.1,9.2 204.9,9.9 206.7,10.6 208.5,11.3 210.3,12.1 212.1,12.8 213.9,13.6 215.7,14.3 217.5,15.1 219.3,15.9 221.1,16.7 222.9,17.5 224.7,18.3 226.5,19.1 228.4,19.9 230.2,20.8 232.0,21.6 233.8,22.5 235.6,23.3 237.4,24.2 239.2,25.1 241.0,25.9 242.8,26.8 244.6,27.7 246.4,28.6 248.2,29.6 250.0,30.5 251.8,31.4 253.6,32.4 255.4,33.3 257.2,34.3 259.0,35.2 260.8,36.2 262.6,37.2 264.4,38.2 266.2,39.2 268.0,40.2 269.8,41.2 271.6,42.2 273.4,43.3 275.2,44.3 277.0,45.4 278.8,46.4 280.7,47.5 282.5,48.6 284.3,49.6 286.1,50.7 287.9,51.8 289.7,52.9 291.5,54.1 293.3,55.2 295.1,56.3 296.9,57.5 298.7,58.6 300.5,59.8 302.3,60.9 304.1,62.1 305.9,63.3 307.7,64.5 309.5,65.7 311.3,66.9 313.1,68.1 314.9,69.3 316.7,70.6 318.5,71.8 320.3,73.1 322.1,74.3 323.9,75.6 325.7,76.9 327.5,78.2 329.3,79.4 331.1,80.7 332.9,82.1 334.8,83.4 336.6,84.7 338.4,86.0 340.2,87.4 342.0,88.7 343.8,90.1 345.6,91.5 347.4,92.8 349.2,94.2 351.0,95.6 352.8,97.0 354.6,98.4 356.4,99.8 358.2,101.3 360.0,102.7 360.0,0.0 z"/>
      <circle cx="38.6" cy="1.9" r="1.5" stroke="none" fill="red"><title>-48.6 kN-m</title></circle>
      <text x="38.6" y="1.9" dx="1.0" dy="7.0" class="vmlabel" text-anchor="start"><title>-48.6 kN-m</title>-48.6</text>
      <circle cx="113.6" cy="-5.3" r="1.5" stroke="none" fill="red"><title>135.1 kN-m</title></circle>
      <text x="113.6" y="-5.3" dx="1.0" dy="-1.0" class="vmlabel" text-anchor="start"><title>135.1 kN-m</title>135.1</text>
      <circle cx="360.0" cy="102.7" r="1.5" stroke="none" fill="red"><title>-2614 kN-m</title></circle>
      <text x="360.0" y="102.7" dx="1.0" dy="7.0" class="vmlabel" text-anchor="start"><title>-2614 kN-m</title>-2614</text>
      <text x="360.0" y="0" class="dwglabel" dx="18.0">M [kN-m]</text>
    </g>
  </g>
</g>

</svg>
