<?xml version="1.0" standalone="yes"?>
<!DOCTYPE svg PUBLIC "-//W3C//DTD SVG 1.1//EN" 
  "http://www.w3.org/Graphics/SVG/1.1/DTD/svg11.dtd">
<svg xmlns="http://www.w3.org/2000/svg"
     xmlns:xlink="http://www.w3.org/1999/xlink"
     version="1.1"
     width="8.5in" 
     height="11.0in" 
     viewBox="0 0 612 792">
  <defs>
    <style type="text/css"><![CDATA[
    .elem {
	stroke-width: 2.0;
	stroke: black;
	}
    path.dim {
       stroke-width: 0.5;
       stroke: black;
       }
    path.guides {
       stroke-width: 0.5;
       stroke: grey;
       }
    text.dwglabel {
       font-family: Verdana, Arial;
       font-size: 10px;
       font-weight: bold;
       fill: black;
       text-align: center;
       text-anchor: start;
       }
    text.dim {
       font-family: Verdana, Arial;
       font-size: 8px;
       font-weight: bold;
       fill: black;
       text-align: center;
       text-anchor: middle;
       }
    text.guides {
       font-family: Verdana, Arial;
       font-size: 8px;
       font-weight: normal;
       font-style: italic;
       fill: black;
       text-align: center;
       text-anchor: middle;
       }
    text.vmlabel {
       font-family: Verdana, Arial;
       font-size: 8px;
       font-style: italic;
       fill: black;
       }
    text.notes {
       font-family: Verdana, Arial;
       font-size: 9px;
       font-weight: normal;
       font-style: italic;
       fill: black;
       text-align: center;
       text-anchor: left;
       }
    text.ptlabel {
       font-family: Verdana, Arial;
       font-size: 7px;
       font-style: italic;
       fill: black;
       text-align: center;
       text-anchor: start;
       }
     path.cload {
       fill: none;
       stroke-width: 1;
       stroke: black; 
       marker-end: url(#CLArrowEnd);
     }
      path.mload {
       fill: none;
       stroke-width: 1;
       stroke: black; 
       marker-end: url(#MLArrowEnd);
     }
      path.mloadInkscape {
       fill: none;
       stroke-width: 1;
       stroke: black; 
       marker-end: url(#MLArrowStart);
     }
     polygon.dload {
       fill: rgb(240,240,240);
       opacity: 0.5; /* if < 1, REALLY slows down printing of the pdfs */
       stroke-width: 1;
       stroke: black; 
     }
     path.dload {
       fill: none;
       stroke-width: 1;
       stroke: black; 
       marker-end: url(#DLArrowEnd);
     }
     path.dloadna {
       fill: none;
       stroke-width: 1;
       stroke: black; 
     }
     path.vdiag {
       fill: url(#crosshatch45);
       stroke-width: 1;
       stroke: black; 
     }
     path.mdiag {
       fill: url(#crosshatch45);
       stroke-width: 1;
       stroke: black; 
     }

    ]]></style>
    <g id="PinnedSupport" transform="translate(0,1.0)">
      <path d="M 0 0 l 4 6 l -8 0 z" 
	    stroke="black" stroke-width="0" fill="black" opacity="1.0" />
      <path d="M -6 6 l 12 0" 
	    stroke="black" stroke-width="1" fill="none" />
      <path d="M 6 6 l -3 3 m 0 -3 l -3 3 m 0 -3 l -3 3 m 0 -3 l -3 3 m 0 -3 l -3 3"
	    stroke="black" stroke-width="1" fill="none" />
    </g>
    <g id="RollerSupport" transform="translate(0,1.0)">
      <circle cx="0" cy="3" r="3"
	    stroke="black" stroke-width="0" fill="black" opacity="1.0" />
      <path d="M -6 6 l 12 0" 
	    stroke="black" stroke-width="1" fill="none" />
      <path d="M 6 6 l -3 3 m 0 -3 l -3 3 m 0 -3 l -3 3 m 0 -3 l -3 3 m 0 -3 l -3 3"
	    stroke="black" stroke-width="1" fill="none" />
    </g>
    <g id="LFixedSupport" transform="translate(-0.5,0)">
      <path d="M 0 -6 l 0 12"
	    stroke="black" stroke-width="1" fill="none" />
      <path d="M 0 -6 l -3 3 m 3 0 l -3 3 m 3 0 l -3 3 m 3 0 l -3 3 m 3 0 l -3 3"
	    stroke="black" stroke-width="1" fill="none" />
    </g>
    <g id="RFixedSupport">
      <use xlink:href="#LFixedSupport" transform="scale(-1,1)"/>
    </g>
    <g id="Hinge">
      <circle cx="0" cy="0" r="2.5"
	      stroke="black" stroke-width="1" fill="white"/>
    </g>
    <g id="ShearRelease">
      <rect x="-3" y="-6" width="6" height="12"
	    stroke="none" fill="white"/>
      <circle cx="0" cy="-6" r="2" stroke="black" strokewidth="0.5" fill="white"/>
      <circle cx="0" cy="0" r="2" stroke="black" strokewidth="0.5" fill="white"/>
      <circle cx="0" cy="6" r="2" stroke="black" strokewidth="0.5" fill="white"/>
      <path d="M -3 -9 l 0 18 M 3 -9 l 0 18" stroke="black" stroke-width="1"/>
    </g>
    <marker id="DLArrowStart"
	    markerUnits="userSpaceOnUse"
	    markerWidth="8"
	    markerHeight="4"
	    orient="auto"
	    viewBox="0 0 8 4"
	    refX="0"
	    refY="2">
      <path d="M 0 2 l 8 -2 l 0 4 z"/>
    </marker>
    <marker id="DLArrowEnd"
	    markerUnits="userSpaceOnUse"
	    markerWidth="8"
	    markerHeight="4"
	    orient="auto"
	    viewBox="0 0 8 4"
	    refX="8"
	    refY="2">
      <path d="M 0 0 l 8 2 l -8 2 z"/>
    </marker>
    <marker id="CLArrowStart"
	    markerUnits="userSpaceOnUse"
	    markerWidth="10.0"
	    markerHeight="6"
	    orient="auto"
	    viewBox="0 0 10 6"
	    refX="3.0"
	    refY="3">
      <path d="M 0 3 l 10 -3 l -2 3 l 2 3 z"/>
    </marker>
    <marker id="CLArrowEnd"
	    markerUnits="userSpaceOnUse"
	    markerWidth="10.0"
	    markerHeight="6"
	    orient="auto"
	    viewBox="0 0 10 6"
	    refX="7.0"
	    refY="3">
      <path d="M 0 0 l 10 3 l -10 3 l 2 -3 z"/>
    </marker>
    <marker id="MLArrowStart"
	    markerUnits="userSpaceOnUse"
	    markerWidth="10.0"
	    markerHeight="6"
	    orient="auto"
	    viewBox="0 0 10 6"
	    refX="8"
	    refY="3">
      <path d="M 10 0 l -10 3 l 10 3 l -2 -3 z"/>
    </marker>
    <marker id="MLArrowEnd"
	    markerUnits="userSpaceOnUse"
	    markerWidth="10.0"
	    markerHeight="6"
	    orient="auto"
	    viewBox="0 0 10 6"
	    refX="2"
	    refY="3">
      <path d="M 0 0 l 10 3 l -10 3 l 2 -3 z"/>
    </marker>
    <pattern id="crosshatch45" patternUnits="userSpaceOnUse"
             x="0" y="0" width="10" height="10"
	     viewBox="0 0 10 10">
       <path d="M 0 0 L 10 10" fill="none" stroke="grey" stroke-width="0.2"/>
    </pattern>


  </defs>

<g transform="translate(72.0,122.0)">
  <title>Beam! Length = 13.3</title>
  <path class="elem" d="M 0 0 l 360.0 0"/>
  <g transform="translate(94.7,0.0)">
    <title>UD Load 23 kN/m</title>
    <polygon points="0,0 0,-12.0 265.3,-12.0 265.3,0" class="dload"/>
    <path class="dload" d="M 0.0 -12.0 L 0.0 -1.0"/>
    <path class="dload" d="M 24.1 -12.0 L 24.1 -1.0"/>
    <path class="dload" d="M 48.2 -12.0 L 48.2 -1.0"/>
    <path class="dload" d="M 72.3 -12.0 L 72.3 -1.0"/>
    <path class="dload" d="M 96.5 -12.0 L 96.5 -1.0"/>
    <path class="dload" d="M 120.6 -12.0 L 120.6 -1.0"/>
    <path class="dload" d="M 144.7 -12.0 L 144.7 -1.0"/>
    <path class="dload" d="M 168.8 -12.0 L 168.8 -1.0"/>
    <path class="dload" d="M 192.9 -12.0 L 192.9 -1.0"/>
    <path class="dload" d="M 217.0 -12.0 L 217.0 -1.0"/>
    <path class="dload" d="M 241.1 -12.0 L 241.1 -1.0"/>
    <path class="dload" d="M 265.3 -12.0 L 265.3 -1.0"/>
    <text style="text-anchor: middle;" dx="0.0" dy="-2.0" y="-12.0" x="132.6" class="dim">23</text>
  </g>
  <g transform="translate(48.7,-1.0)">
    <title>Point Load = 35 kN</title>
    <path class="cload" d="M 0 -26.0 l 0 23.0"/>
    <text y="-26.0" x="0" class="dim" dy="-3.0">35</text>
  </g>
  <use y="0" x="0.0" xlink:href="#LFixedSupport"/>
  <use y="0" x="94.7" xlink:href="#Hinge"/>
  <use y="0" x="311.3" xlink:href="#RollerSupport"/>
  <path class="dim" d="M 48.7 10.0 l 0 25.0"/>
  <path class="dim" d="M 0.0 30.0 l 48.7 0"/>
  <path class="dim" d="M 0.0 30.0 m -3.0 3.0 l 6.0 -6.0"/>
  <path class="dim" d="M 48.7 30.0 m -3.0 3.0 l 6.0 -6.0"/>
  <text y="30.0" x="24.4" class="dim" dy="-3.0">1.8</text>
  <path class="dim" d="M 94.7 10.0 l 0 40.0"/>
  <path class="dim" d="M 0.0 45.0 l 94.7 0"/>
  <path class="dim" d="M 0.0 45.0 m -3.0 3.0 l 6.0 -6.0"/>
  <path class="dim" d="M 94.7 45.0 m -3.0 3.0 l 6.0 -6.0"/>
  <text y="45.0" x="47.4" class="dim" dy="-3.0">3.5</text>
  <path class="dim" d="M 0.0 10.0 l 0 55.0"/>
  <path class="dim" d="M 311.3 10.0 l 0 55.0"/>
  <path class="dim" d="M 0.0 60.0 l 311.3 0"/>
  <path class="dim" d="M 0.0 60.0 m -3.0 3.0 l 6.0 -6.0"/>
  <path class="dim" d="M 311.3 60.0 m -3.0 3.0 l 6.0 -6.0"/>
  <text y="60.0" x="155.6" class="dim" dy="-3.0">11.5</text>
  <path class="dim" d="M 360.0 10.0 l 0 55.0"/>
  <path class="dim" d="M 311.3 60.0 l 48.7 0"/>
  <path class="dim" d="M 360.0 60.0 m -3.0 3.0 l 6.0 -6.0"/>
  <text y="60.0" x="335.6" class="dim" dy="-3.0">1.8</text>
  <text y="17.0" x="0.0" class="ptlabel" dx="1.0">a</text>
  <text y="17.0" x="48.7" class="ptlabel" dx="1.0">b</text>
  <text y="17.0" x="94.7" class="ptlabel" dx="1.0">c</text>
  <text y="17.0" x="311.3" class="ptlabel" dx="1.0">d</text>
  <text y="17.0" x="360.0" class="ptlabel" dx="1.0">e</text>
  <text y="-56.0" x="0" xml:space="preserve" class="notes">Units are m, kN;       Difficulty Level = 5</text>
  <g id="beam-guides" visibility="visible" transform="translate(0.0,0.0)">
    <path class="guides" d="M 0.0 66.0 L 0.0 474.0 M 48.7 66.0 L 48.7 474.0 M 94.7 66.0 L 94.7 474.0 M 311.3 66.0 L 311.3 474.0 M 360.0 66.0 L 360.0 474.0"/>
  </g>
  <g id="beam-fb-diagram" visibility="visible" transform="translate(0.0,144.0)">
    <title>Free Body Diagram</title>
    <path class="elem" d="M 0 0 l 360.0 0"/>
    <g transform="translate(94.7,0.0)">
      <title>UD Load 23 kN/m</title>
      <polygon points="0,0 0,-12.0 265.3,-12.0 265.3,0" class="dload"/>
      <path class="dload" d="M 0.0 -12.0 L 0.0 -1.0"/>
      <path class="dload" d="M 24.1 -12.0 L 24.1 -1.0"/>
      <path class="dload" d="M 48.2 -12.0 L 48.2 -1.0"/>
      <path class="dload" d="M 72.3 -12.0 L 72.3 -1.0"/>
      <path class="dload" d="M 96.5 -12.0 L 96.5 -1.0"/>
      <path class="dload" d="M 120.6 -12.0 L 120.6 -1.0"/>
      <path class="dload" d="M 144.7 -12.0 L 144.7 -1.0"/>
      <path class="dload" d="M 168.8 -12.0 L 168.8 -1.0"/>
      <path class="dload" d="M 192.9 -12.0 L 192.9 -1.0"/>
      <path class="dload" d="M 217.0 -12.0 L 217.0 -1.0"/>
      <path class="dload" d="M 241.1 -12.0 L 241.1 -1.0"/>
      <path class="dload" d="M 265.3 -12.0 L 265.3 -1.0"/>
      <text style="text-anchor: middle;" dx="0.0" dy="-2.0" y="-12.0" x="132.6" class="dim">23</text>
    </g>
    <g transform="translate(48.7,-1.0)">
      <title>Point Load = 35 kN</title>
      <path class="cload" d="M 0 -30.1 l 0 27.1"/>
      <text y="-30.1" x="0" class="dim" dy="-3.0">35</text>
    </g>
    <g transform="translate(0.0,1.0)">
      <title>Point Load = -122.343 kN</title>
      <path class="cload" d="M 0 40.2 l 0 -37.2"/>
      <text y="40.2" x="0" class="dim" dy="8.0">122.3</text>
    </g>
    <g transform="translate(311.3,1.0)">
      <title>Point Load = -138.058 kN</title>
      <path class="cload" d="M 0 42.0 l 0 -39.0"/>
      <text y="42.0" x="0" class="dim" dy="8.0">138.1</text>
    </g>
    <g transform="translate(0.0,0.0)">
      <title>Moment load = 368.699 kN-m</title>
      <path class="dim" d="M -2.0 -2.0 l 4.0 4.0 M -2.0 2.0 l 4.0 -4.0"/>
      <path class="mload" d="M -0.0,-15.0 A 15.0,15.0 0 0,0 -0.0,15.0"/>
      <text y="-15.0" x="-0.0" class="dim" dy="-4.0">368.7</text>
    </g>
    <text x="360.0" y="0" class="dwglabel" dx="18.0">FBD [m,kN]</text>
  </g>
  <g id="beam-shear-diagram" visibility="visible" transform="translate(0.0,216.0)">
    <g transform="translate(0.0,60.3)">
      <title>Shear Force Diagram</title>
      <path class="vdiag" d="M 0,0 L -0.0,-0.0 0.0,-60.3 48.7,-60.3 48.7,-43.1 94.7,-43.1 311.3,47.7 311.3,-20.4 360.0,-0.0 z"/>
      <circle cx="0.0" cy="-60.3" r="1.5" stroke="none" fill="red"><title>122.3 kN</title></circle>
      <text x="0.0" y="-60.3" dx="1.0" dy="-1.0" class="vmlabel" text-anchor="start"><title>122.3 kN</title>122.3</text>
      <circle cx="48.7" cy="-60.3" r="1.5" stroke="none" fill="red"><title>122.3 kN</title></circle>
      <text x="48.7" y="-60.3" dx="1.0" dy="-1.0" class="vmlabel" text-anchor="start"><title>122.3 kN</title>122.3</text>
      <circle cx="48.7" cy="-43.1" r="1.5" stroke="none" fill="red"><title>87.34 kN</title></circle>
      <text x="48.7" y="-43.1" dx="1.0" dy="-1.0" class="vmlabel" text-anchor="start"><title>87.34 kN</title>87.34</text>
      <circle cx="94.7" cy="-43.1" r="1.5" stroke="none" fill="red"><title>87.34 kN</title></circle>
      <text x="94.7" y="-43.1" dx="1.0" dy="-1.0" class="vmlabel" text-anchor="start"><title>87.34 kN</title>87.34</text>
      <circle cx="311.3" cy="47.7" r="1.5" stroke="none" fill="red"><title>-96.66 kN</title></circle>
      <text x="311.3" y="47.7" dx="1.0" dy="7.0" class="vmlabel" text-anchor="start"><title>-96.66 kN</title>-96.66</text>
      <circle cx="311.3" cy="-20.4" r="1.5" stroke="none" fill="red"><title>41.4 kN</title></circle>
      <text x="311.3" y="-20.4" dx="1.0" dy="-1.0" class="vmlabel" text-anchor="start"><title>41.4 kN</title>41.4</text>
      <text x="360.0" y="0" class="dwglabel" dx="18.0">V [kN]</text>
    </g>
    <g id="beam-zvguides" visibility="visible" transform="translate(0.0,0.0)">
      <path class="guides" d="M 197.5 62.3 L 197.5 258.0"/>
      <path class="guides" d="M 94.7 126.0 L 197.5 126.0"/>
      <path class="guides" d="M 94.7 126.0 m -3.0 3.0 l 6.0 -6.0"/>
      <path class="guides" d="M 197.5 126.0 m -3.0 3.0 l 6.0 -6.0"/>
      <text y="126.0" x="146.1" class="guides" dy="-3.0">3.8</text>
    </g>
  </g>
  <g id="beam-moment-diagram" visibility="visible" transform="translate(0.0,360.0)">
    <g transform="translate(0.0,33.5)">
      <title>Bending Moment Diagram</title>
      <path class="mdiag" d="M 0,0 L -0.0,0.0 0.0,74.5 48.7,30.0 94.7,-0.0 96.5,-1.2 98.3,-2.3 100.2,-3.4 102.0,-4.5 103.8,-5.6 105.6,-6.7 107.4,-7.7 109.2,-8.8 111.0,-9.8 112.8,-10.7 114.6,-11.7 116.4,-12.6 118.2,-13.5 120.0,-14.4 121.8,-15.3 123.6,-16.2 125.4,-17.0 127.2,-17.8 129.0,-18.6 130.8,-19.4 132.6,-20.2 134.4,-20.9 136.2,-21.6 138.0,-22.3 139.8,-23.0 141.7,-23.6 143.5,-24.2 145.3,-24.8 147.1,-25.4 148.9,-26.0 150.7,-26.5 152.5,-27.1 154.3,-27.6 156.1,-28.1 157.9,-28.5 159.7,-29.0 161.5,-29.4 163.3,-29.8 165.1,-30.2 166.9,-30.5 168.7,-30.9 170.5,-31.2 172.3,-31.5 174.1,-31.8 175.9,-32.0 177.7,-32.3 179.5,-32.5 181.4,-32.7 183.2,-32.9 185.0,-33.0 186.8,-33.1 188.6,-33.3 190.4,-33.3 192.2,-33.4 194.0,-33.5 195.8,-33.5 197.5,-33.5 197.6,-33.5 199.4,-33.5 201.2,-33.5 203.0,-33.4 204.8,-33.3 206.6,-33.2 208.4,-33.1 210.2,-33.0 212.0,-32.8 213.8,-32.7 215.6,-32.5 217.4,-32.2 219.2,-32.0 221.1,-31.8 222.9,-31.5 224.7,-31.2 226.5,-30.9 228.3,-30.5 230.1,-30.1 231.9,-29.8 233.7,-29.4 235.5,-28.9 237.3,-28.5 239.1,-28.0 240.9,-27.5 242.7,-27.0 244.5,-26.5 246.3,-26.0 248.1,-25.4 249.9,-24.8 251.7,-24.2 253.5,-23.6 255.3,-22.9 257.1,-22.2 258.9,-21.5 260.8,-20.8 262.6,-20.1 264.4,-19.3 266.2,-18.6 268.0,-17.8 269.8,-17.0 271.6,-16.1 273.4,-15.3 275.2,-14.4 277.0,-13.5 278.8,-12.6 280.6,-11.6 282.4,-10.7 284.2,-9.7 286.0,-8.7 287.8,-7.7 289.6,-6.6 291.4,-5.5 293.2,-4.5 295.0,-3.4 296.8,-2.2 298.6,-1.1 300.5,0.1 302.3,1.3 304.1,2.5 305.9,3.7 307.7,5.0 309.5,6.2 311.3,7.5 313.1,7.0 314.9,6.5 316.7,5.9 318.5,5.5 320.3,5.0 322.1,4.6 323.9,4.1 325.7,3.7 327.5,3.3 329.3,3.0 331.1,2.6 332.9,2.3 334.7,2.0 336.5,1.7 338.3,1.5 340.2,1.2 342.0,1.0 343.8,0.8 345.6,0.7 347.4,0.5 349.2,0.4 351.0,0.3 352.8,0.2 354.6,0.1 356.4,0.0 358.2,0.0 360.0,-0.0 z"/>
      <circle cx="0.0" cy="74.5" r="1.5" stroke="none" fill="red"><title>-368.7 kN-m</title></circle>
      <text x="0.0" y="74.5" dx="1.0" dy="7.0" class="vmlabel" text-anchor="start"><title>-368.7 kN-m</title>-368.7</text>
      <circle cx="48.7" cy="30.0" r="1.5" stroke="none" fill="red"><title>-148.5 kN-m</title></circle>
      <text x="48.7" y="30.0" dx="1.0" dy="7.0" class="vmlabel" text-anchor="start"><title>-148.5 kN-m</title>-148.5</text>
      <circle cx="197.5" cy="-33.5" r="1.5" stroke="none" fill="red"><title>165.8 kN-m</title></circle>
      <text x="197.5" y="-33.5" dx="1.0" dy="-1.0" class="vmlabel" text-anchor="start"><title>165.8 kN-m</title>165.8</text>
      <circle cx="311.3" cy="7.5" r="1.5" stroke="none" fill="red"><title>-37.26 kN-m</title></circle>
      <text x="311.3" y="7.5" dx="1.0" dy="7.0" class="vmlabel" text-anchor="start"><title>-37.26 kN-m</title>-37.26</text>
      <text x="360.0" y="0" class="dwglabel" dx="18.0">M [kN-m]</text>
    </g>
  </g>
</g>

</svg>
