<?xml version="1.0" standalone="yes"?>
<!DOCTYPE svg PUBLIC "-//W3C//DTD SVG 1.1//EN" 
  "http://www.w3.org/Graphics/SVG/1.1/DTD/svg11.dtd">
<svg xmlns="http://www.w3.org/2000/svg"
     xmlns:xlink="http://www.w3.org/1999/xlink"
     version="1.1"
     width="8.5in" 
     height="11.0in" 
     viewBox="0 0 612 792">
  <defs>
    <style type="text/css"><![CDATA[
    .elem {
	stroke-width: 2.0;
	stroke: black;
	}
    path.dim {
       stroke-width: 0.5;
       stroke: black;
       }
    path.guides {
       stroke-width: 0.5;
       stroke: grey;
       }
    text.dwglabel {
       font-family: Verdana, Arial;
       font-size: 10px;
       font-weight: bold;
       fill: black;
       text-align: center;
       text-anchor: start;
       }
    text.dim {
       font-family: Verdana, Arial;
       font-size: 8px;
       font-weight: bold;
       fill: black;
       text-align: center;
       text-anchor: middle;
       }
    text.guides {
       font-family: Verdana, Arial;
       font-size: 8px;
       font-weight: normal;
       font-style: italic;
       fill: black;
       text-align: center;
       text-anchor: middle;
       }
    text.vmlabel {
       font-family: Verdana, Arial;
       font-size: 8px;
       font-style: italic;
       fill: black;
       }
    text.notes {
       font-family: Verdana, Arial;
       font-size: 9px;
       font-weight: normal;
       font-style: italic;
       fill: black;
       text-align: center;
       text-anchor: left;
       }
    text.ptlabel {
       font-family: Verdana, Arial;
       font-size: 7px;
       font-style: italic;
       fill: black;
       text-align: center;
       text-anchor: start;
       }
     path.cload {
       fill: none;
       stroke-width: 1;
       stroke: black; 
       marker-end: url(#CLArrowEnd);
     }
      path.mload {
       fill: none;
       stroke-width: 1;
       stroke: black; 
       marker-end: url(#MLArrowEnd);
     }
      path.mloadInkscape {
       fill: none;
       stroke-width: 1;
       stroke: black; 
       marker-end: url(#MLArrowStart);
     }
     polygon.dload {
       fill: rgb(240,240,240);
       opacity: 0.5; /* if < 1, REALLY slows down printing of the pdfs */
       stroke-width: 1;
       stroke: black; 
     }
     path.dload {
       fill: none;
       stroke-width: 1;
       stroke: black; 
       marker-end: url(#DLArrowEnd);
     }
     path.dloadna {
       fill: none;
       stroke-width: 1;
       stroke: black; 
     }
     path.vdiag {
       fill: url(#crosshatch45);
       stroke-width: 1;
       stroke: black; 
     }
     path.mdiag {
       fill: url(#crosshatch45);
       stroke-width: 1;
       stroke: black; 
     }

    ]]></style>
    <g id="PinnedSupport" transform="translate(0,1.0)">
      <path d="M 0 0 l 4 6 l -8 0 z" 
	    stroke="black" stroke-width="0" fill="black" opacity="1.0" />
      <path d="M -6 6 l 12 0" 
	    stroke="black" stroke-width="1" fill="none" />
      <path d="M 6 6 l -3 3 m 0 -3 l -3 3 m 0 -3 l -3 3 m 0 -3 l -3 3 m 0 -3 l -3 3"
	    stroke="black" stroke-width="1" fill="none" />
    </g>
    <g id="RollerSupport" transform="translate(0,1.0)">
      <circle cx="0" cy="3" r="3"
	    stroke="black" stroke-width="0" fill="black" opacity="1.0" />
      <path d="M -6 6 l 12 0" 
	    stroke="black" stroke-width="1" fill="none" />
      <path d="M 6 6 l -3 3 m 0 -3 l -3 3 m 0 -3 l -3 3 m 0 -3 l -3 3 m 0 -3 l -3 3"
	    stroke="black" stroke-width="1" fill="none" />
    </g>
    <g id="LFixedSupport" transform="translate(-0.5,0)">
      <path d="M 0 -6 l 0 12"
	    stroke="black" stroke-width="1" fill="none" />
      <path d="M 0 -6 l -3 3 m 3 0 l -3 3 m 3 0 l -3 3 m 3 0 l -3 3 m 3 0 l -3 3"
	    stroke="black" stroke-width="1" fill="none" />
    </g>
    <g id="RFixedSupport">
      <use xlink:href="#LFixedSupport" transform="scale(-1,1)"/>
    </g>
    <g id="Hinge">
      <circle cx="0" cy="0" r="2.5"
	      stroke="black" stroke-width="1" fill="white"/>
    </g>
    <g id="ShearRelease">
      <rect x="-3" y="-6" width="6" height="12"
	    stroke="none" fill="white"/>
      <circle cx="0" cy="-6" r="2" stroke="black" strokewidth="0.5" fill="white"/>
      <circle cx="0" cy="0" r="2" stroke="black" strokewidth="0.5" fill="white"/>
      <circle cx="0" cy="6" r="2" stroke="black" strokewidth="0.5" fill="white"/>
      <path d="M -3 -9 l 0 18 M 3 -9 l 0 18" stroke="black" stroke-width="1"/>
    </g>
    <marker id="DLArrowStart"
	    markerUnits="userSpaceOnUse"
	    markerWidth="8"
	    markerHeight="4"
	    orient="auto"
	    viewBox="0 0 8 4"
	    refX="0"
	    refY="2">
      <path d="M 0 2 l 8 -2 l 0 4 z"/>
    </marker>
    <marker id="DLArrowEnd"
	    markerUnits="userSpaceOnUse"
	    markerWidth="8"
	    markerHeight="4"
	    orient="auto"
	    viewBox="0 0 8 4"
	    refX="8"
	    refY="2">
      <path d="M 0 0 l 8 2 l -8 2 z"/>
    </marker>
    <marker id="CLArrowStart"
	    markerUnits="userSpaceOnUse"
	    markerWidth="10.0"
	    markerHeight="6"
	    orient="auto"
	    viewBox="0 0 10 6"
	    refX="3.0"
	    refY="3">
      <path d="M 0 3 l 10 -3 l -2 3 l 2 3 z"/>
    </marker>
    <marker id="CLArrowEnd"
	    markerUnits="userSpaceOnUse"
	    markerWidth="10.0"
	    markerHeight="6"
	    orient="auto"
	    viewBox="0 0 10 6"
	    refX="7.0"
	    refY="3">
      <path d="M 0 0 l 10 3 l -10 3 l 2 -3 z"/>
    </marker>
    <marker id="MLArrowStart"
	    markerUnits="userSpaceOnUse"
	    markerWidth="10.0"
	    markerHeight="6"
	    orient="auto"
	    viewBox="0 0 10 6"
	    refX="8"
	    refY="3">
      <path d="M 10 0 l -10 3 l 10 3 l -2 -3 z"/>
    </marker>
    <marker id="MLArrowEnd"
	    markerUnits="userSpaceOnUse"
	    markerWidth="10.0"
	    markerHeight="6"
	    orient="auto"
	    viewBox="0 0 10 6"
	    refX="2"
	    refY="3">
      <path d="M 0 0 l 10 3 l -10 3 l 2 -3 z"/>
    </marker>
    <pattern id="crosshatch45" patternUnits="userSpaceOnUse"
             x="0" y="0" width="10" height="10"
	     viewBox="0 0 10 10">
       <path d="M 0 0 L 10 10" fill="none" stroke="grey" stroke-width="0.2"/>
    </pattern>


  </defs>

<g transform="translate(72.0,122.0)">
  <title>Beam! Length = 30</title>
  <path class="elem" d="M 0 0 l 360.0 0"/>
  <g transform="translate(0.0,0.0)">
    <title>UD Load 24 kN/m</title>
    <polygon points="0,0 0,-24.0 208.8,-24.0 208.8,0" class="dload"/>
    <path class="dload" d="M 0.0 -24.0 L 0.0 -1.0"/>
    <path class="dload" d="M 26.1 -24.0 L 26.1 -1.0"/>
    <path class="dload" d="M 52.2 -24.0 L 52.2 -1.0"/>
    <path class="dload" d="M 78.3 -24.0 L 78.3 -1.0"/>
    <path class="dload" d="M 104.4 -24.0 L 104.4 -1.0"/>
    <path class="dload" d="M 130.5 -24.0 L 130.5 -1.0"/>
    <path class="dload" d="M 156.6 -24.0 L 156.6 -1.0"/>
    <path class="dload" d="M 182.7 -24.0 L 182.7 -1.0"/>
    <path class="dload" d="M 208.8 -24.0 L 208.8 -1.0"/>
    <text style="text-anchor: middle;" dx="0.0" dy="-2.0" y="-24.0" x="104.4" class="dim">24</text>
  </g>
  <g transform="translate(232.8,0.0)">
    <title>UD Load 12 kN/m</title>
    <polygon points="0,0 0,-12.0 127.2,-12.0 127.2,0" class="dload"/>
    <path class="dload" d="M 0.0 -12.0 L 0.0 -1.0"/>
    <path class="dload" d="M 25.4 -12.0 L 25.4 -1.0"/>
    <path class="dload" d="M 50.9 -12.0 L 50.9 -1.0"/>
    <path class="dload" d="M 76.3 -12.0 L 76.3 -1.0"/>
    <path class="dload" d="M 101.8 -12.0 L 101.8 -1.0"/>
    <path class="dload" d="M 127.2 -12.0 L 127.2 -1.0"/>
    <text style="text-anchor: middle;" dx="0.0" dy="-2.0" y="-12.0" x="63.6" class="dim">12</text>
  </g>
  <g transform="translate(328.8,-1.0)">
    <title>Point Load = 95 kN</title>
    <path class="cload" d="M 0 -42.0 l 0 39.0"/>
    <text y="-42.0" x="0" class="dim" dy="-3.0">95</text>
  </g>
  <g transform="translate(130.8,-1.0)">
    <title>Point Load = 70 kN</title>
    <path class="cload" d="M 0 -35.3 l 0 32.3"/>
    <text y="-35.3" x="0" class="dim" dy="-3.0">70</text>
  </g>
  <g transform="translate(264.0,-1.0)">
    <title>Point Load = 35 kN</title>
    <path class="cload" d="M 0 -26.0 l 0 23.0"/>
    <text y="-26.0" x="0" class="dim" dy="-3.0">35</text>
  </g>
  <g transform="translate(214.8,0.0)">
    <title>Moment load = 190 kN-m</title>
    <path class="dim" d="M -2.0 -2.0 l 4.0 4.0 M -2.0 2.0 l 4.0 -4.0"/>
    <path class="mload" d="M 0.0,15.0 A 15.0,15.0 0 0,0 0.0,-15.0"/>
    <text y="-15.0" x="0.0" class="dim" dy="-4.0">190</text>
  </g>
  <use y="0" x="24.0" xlink:href="#PinnedSupport"/>
  <use y="0" x="102.0" xlink:href="#RollerSupport"/>
  <use y="0" x="130.8" xlink:href="#Hinge"/>
  <use y="0" x="208.8" xlink:href="#Hinge"/>
  <use y="0" x="232.8" xlink:href="#RollerSupport"/>
  <use y="0" x="340.8" xlink:href="#RollerSupport"/>
  <path class="dim" d="M 214.8 10.0 l 0 25.0"/>
  <path class="dim" d="M 208.8 30.0 l 6.0 0"/>
  <path class="dim" d="M 208.8 30.0 m -3.0 3.0 l 6.0 -6.0"/>
  <path class="dim" d="M 214.8 30.0 m -3.0 3.0 l 6.0 -6.0"/>
  <text y="30.0" x="211.8" class="dim" dy="-3.0">0.5</text>
  <path class="dim" d="M 264.0 10.0 l 0 25.0"/>
  <path class="dim" d="M 232.8 30.0 l 31.2 0"/>
  <path class="dim" d="M 232.8 30.0 m -3.0 3.0 l 6.0 -6.0"/>
  <path class="dim" d="M 264.0 30.0 m -3.0 3.0 l 6.0 -6.0"/>
  <text y="30.0" x="248.4" class="dim" dy="-3.0">2.6</text>
  <path class="dim" d="M 328.8 10.0 l 0 25.0"/>
  <path class="dim" d="M 264.0 30.0 l 64.8 0"/>
  <path class="dim" d="M 264.0 30.0 m -3.0 3.0 l 6.0 -6.0"/>
  <path class="dim" d="M 328.8 30.0 m -3.0 3.0 l 6.0 -6.0"/>
  <text y="30.0" x="296.4" class="dim" dy="-3.0">5.4</text>
  <path class="dim" d="M 130.8 10.0 l 0 40.0"/>
  <path class="dim" d="M 102.0 45.0 l 28.8 0"/>
  <path class="dim" d="M 102.0 45.0 m -3.0 3.0 l 6.0 -6.0"/>
  <path class="dim" d="M 130.8 45.0 m -3.0 3.0 l 6.0 -6.0"/>
  <text y="45.0" x="116.4" class="dim" dy="-3.0">2.4</text>
  <path class="dim" d="M 208.8 10.0 l 0 40.0"/>
  <path class="dim" d="M 130.8 45.0 l 78.0 0"/>
  <path class="dim" d="M 130.8 45.0 m -3.0 3.0 l 6.0 -6.0"/>
  <path class="dim" d="M 208.8 45.0 m -3.0 3.0 l 6.0 -6.0"/>
  <text y="45.0" x="169.8" class="dim" dy="-3.0">6.5</text>
  <path class="dim" d="M 0.0 10.0 l 0 55.0"/>
  <path class="dim" d="M 24.0 10.0 l 0 55.0"/>
  <path class="dim" d="M 0.0 60.0 l 24.0 0"/>
  <path class="dim" d="M 0.0 60.0 m -3.0 3.0 l 6.0 -6.0"/>
  <path class="dim" d="M 24.0 60.0 m -3.0 3.0 l 6.0 -6.0"/>
  <text y="60.0" x="12.0" class="dim" dy="-3.0">2</text>
  <path class="dim" d="M 102.0 10.0 l 0 55.0"/>
  <path class="dim" d="M 24.0 60.0 l 78.0 0"/>
  <path class="dim" d="M 102.0 60.0 m -3.0 3.0 l 6.0 -6.0"/>
  <text y="60.0" x="63.0" class="dim" dy="-3.0">6.5</text>
  <path class="dim" d="M 232.8 10.0 l 0 55.0"/>
  <path class="dim" d="M 102.0 60.0 l 130.8 0"/>
  <path class="dim" d="M 232.8 60.0 m -3.0 3.0 l 6.0 -6.0"/>
  <text y="60.0" x="167.4" class="dim" dy="-3.0">10.9</text>
  <path class="dim" d="M 340.8 10.0 l 0 55.0"/>
  <path class="dim" d="M 232.8 60.0 l 108.0 0"/>
  <path class="dim" d="M 340.8 60.0 m -3.0 3.0 l 6.0 -6.0"/>
  <text y="60.0" x="286.8" class="dim" dy="-3.0">9</text>
  <path class="dim" d="M 360.0 10.0 l 0 55.0"/>
  <path class="dim" d="M 340.8 60.0 l 19.2 0"/>
  <path class="dim" d="M 360.0 60.0 m -3.0 3.0 l 6.0 -6.0"/>
  <text y="60.0" x="350.4" class="dim" dy="-3.0">1.6</text>
  <text y="17.0" x="0.0" class="ptlabel" dx="1.0">a</text>
  <text y="17.0" x="24.0" class="ptlabel" dx="1.0">b</text>
  <text y="17.0" x="102.0" class="ptlabel" dx="1.0">c</text>
  <text y="17.0" x="130.8" class="ptlabel" dx="1.0">d</text>
  <text y="17.0" x="208.8" class="ptlabel" dx="1.0">e</text>
  <text y="17.0" x="214.8" class="ptlabel" dx="1.0">f</text>
  <text y="17.0" x="232.8" class="ptlabel" dx="1.0">g</text>
  <text y="17.0" x="264.0" class="ptlabel" dx="1.0">h</text>
  <text y="17.0" x="328.8" class="ptlabel" dx="1.0">i</text>
  <text y="17.0" x="340.8" class="ptlabel" dx="1.0">j</text>
  <text y="17.0" x="360.0" class="ptlabel" dx="1.0">k</text>
  <text y="-56.0" x="0" xml:space="preserve" class="notes">Units are m, kN;       Difficulty Level = 9</text>
  <g id="beam-guides" visibility="visible" transform="translate(0.0,0.0)">
    <path class="guides" d="M 0.0 66.0 L 0.0 474.0 M 24.0 66.0 L 24.0 474.0 M 102.0 66.0 L 102.0 474.0 M 130.8 66.0 L 130.8 474.0 M 208.8 66.0 L 208.8 474.0 M 214.8 66.0 L 214.8 474.0 M 232.8 66.0 L 232.8 474.0 M 264.0 66.0 L 264.0 474.0 M 328.8 66.0 L 328.8 474.0 M 340.8 66.0 L 340.8 474.0 M 360.0 66.0 L 360.0 474.0"/>
  </g>
  <g id="beam-fb-diagram" visibility="visible" transform="translate(0.0,144.0)">
    <title>Free Body Diagram</title>
    <path class="elem" d="M 0 0 l 360.0 0"/>
    <g transform="translate(0.0,0.0)">
      <title>UD Load 24 kN/m</title>
      <polygon points="0,0 0,-24.0 208.8,-24.0 208.8,0" class="dload"/>
      <path class="dload" d="M 0.0 -24.0 L 0.0 -1.0"/>
      <path class="dload" d="M 26.1 -24.0 L 26.1 -1.0"/>
      <path class="dload" d="M 52.2 -24.0 L 52.2 -1.0"/>
      <path class="dload" d="M 78.3 -24.0 L 78.3 -1.0"/>
      <path class="dload" d="M 104.4 -24.0 L 104.4 -1.0"/>
      <path class="dload" d="M 130.5 -24.0 L 130.5 -1.0"/>
      <path class="dload" d="M 156.6 -24.0 L 156.6 -1.0"/>
      <path class="dload" d="M 182.7 -24.0 L 182.7 -1.0"/>
      <path class="dload" d="M 208.8 -24.0 L 208.8 -1.0"/>
      <text style="text-anchor: middle;" dx="0.0" dy="-2.0" y="-24.0" x="104.4" class="dim">24</text>
    </g>
    <g transform="translate(232.8,0.0)">
      <title>UD Load 12 kN/m</title>
      <polygon points="0,0 0,-12.0 127.2,-12.0 127.2,0" class="dload"/>
      <path class="dload" d="M 0.0 -12.0 L 0.0 -1.0"/>
      <path class="dload" d="M 25.4 -12.0 L 25.4 -1.0"/>
      <path class="dload" d="M 50.9 -12.0 L 50.9 -1.0"/>
      <path class="dload" d="M 76.3 -12.0 L 76.3 -1.0"/>
      <path class="dload" d="M 101.8 -12.0 L 101.8 -1.0"/>
      <path class="dload" d="M 127.2 -12.0 L 127.2 -1.0"/>
      <text style="text-anchor: middle;" dx="0.0" dy="-2.0" y="-12.0" x="63.6" class="dim">12</text>
    </g>
    <g transform="translate(328.8,-1.0)">
      <title>Point Load = 95 kN</title>
      <path class="cload" d="M 0 -30.5 l 0 27.5"/>
      <text y="-30.5" x="0" class="dim" dy="-3.0">95</text>
    </g>
    <g transform="translate(130.8,-1.0)">
      <title>Point Load = 70 kN</title>
      <path class="cload" d="M 0 -29.3 l 0 26.3"/>
      <text y="-29.3" x="0" class="dim" dy="-3.0">70</text>
    </g>
    <g transform="translate(264.0,-1.0)">
      <title>Point Load = 35 kN</title>
      <path class="cload" d="M 0 -27.6 l 0 24.6"/>
      <text y="-27.6" x="0" class="dim" dy="-3.0">35</text>
    </g>
    <g transform="translate(24.0,1.0)">
      <title>Point Load = -68.1046 kN</title>
      <path class="cload" d="M 0 29.2 l 0 -26.2"/>
      <text y="29.2" x="0" class="dim" dy="8.0">68.1</text>
    </g>
    <g transform="translate(102.0,1.0)">
      <title>Point Load = -341.495 kN</title>
      <path class="cload" d="M 0 42.0 l 0 -39.0"/>
      <text y="42.0" x="0" class="dim" dy="8.0">341.5</text>
    </g>
    <g transform="translate(232.8,1.0)">
      <title>Point Load = -204.182 kN</title>
      <path class="cload" d="M 0 35.6 l 0 -32.6"/>
      <text y="35.6" x="0" class="dim" dy="8.0">204.2</text>
    </g>
    <g transform="translate(340.8,1.0)">
      <title>Point Load = -131.018 kN</title>
      <path class="cload" d="M 0 32.1 l 0 -29.1"/>
      <text y="32.1" x="0" class="dim" dy="8.0">131</text>
    </g>
    <g transform="translate(214.8,0.0)">
      <title>Moment load = 190 kN-m</title>
      <path class="dim" d="M -2.0 -2.0 l 4.0 4.0 M -2.0 2.0 l 4.0 -4.0"/>
      <path class="mload" d="M 0.0,15.0 A 15.0,15.0 0 0,0 0.0,-15.0"/>
      <text y="-15.0" x="0.0" class="dim" dy="-4.0">190</text>
    </g>
    <text x="360.0" y="0" class="dwglabel" dx="18.0">FBD [m,kN]</text>
  </g>
  <g id="beam-shear-diagram" visibility="visible" transform="translate(0.0,216.0)">
    <g transform="translate(0.0,65.0)">
      <title>Shear Force Diagram</title>
      <path class="vdiag" d="M 0,0 L 0.0,-0.0 24.0,15.2 24.0,-6.4 102.0,43.0 102.0,-65.0 130.8,-46.8 130.8,-24.7 208.8,24.7 214.8,24.7 232.8,24.7 232.8,-39.9 264.0,-30.0 264.0,-19.0 328.8,1.5 328.8,31.6 340.8,35.4 340.8,-6.1 360.0,0.0 z"/>
      <circle cx="24.0" cy="15.2" r="1.5" stroke="none" fill="red"><title>-48 kN</title></circle>
      <text x="24.0" y="15.2" dx="1.0" dy="7.0" class="vmlabel" text-anchor="start"><title>-48 kN</title>-48</text>
      <circle cx="24.0" cy="-6.4" r="1.5" stroke="none" fill="red"><title>20.1 kN</title></circle>
      <text x="24.0" y="-6.4" dx="1.0" dy="-1.0" class="vmlabel" text-anchor="start"><title>20.1 kN</title>20.1</text>
      <circle cx="102.0" cy="43.0" r="1.5" stroke="none" fill="red"><title>-135.9 kN</title></circle>
      <text x="102.0" y="43.0" dx="1.0" dy="7.0" class="vmlabel" text-anchor="start"><title>-135.9 kN</title>-135.9</text>
      <circle cx="102.0" cy="-65.0" r="1.5" stroke="none" fill="red"><title>205.6 kN</title></circle>
      <text x="102.0" y="-65.0" dx="1.0" dy="-1.0" class="vmlabel" text-anchor="start"><title>205.6 kN</title>205.6</text>
      <circle cx="130.8" cy="-46.8" r="1.5" stroke="none" fill="red"><title>148 kN</title></circle>
      <text x="130.8" y="-46.8" dx="1.0" dy="-1.0" class="vmlabel" text-anchor="start"><title>148 kN</title>148</text>
      <circle cx="130.8" cy="-24.7" r="1.5" stroke="none" fill="red"><title>78 kN</title></circle>
      <text x="130.8" y="-24.7" dx="1.0" dy="-1.0" class="vmlabel" text-anchor="start"><title>78 kN</title>78</text>
      <circle cx="208.8" cy="24.7" r="1.5" stroke="none" fill="red"><title>-78 kN</title></circle>
      <text x="208.8" y="24.7" dx="-1.0" dy="7.0" class="vmlabel" text-anchor="end"><title>-78 kN</title>-78</text>
      <circle cx="214.8" cy="24.7" r="1.5" stroke="none" fill="red"><title>-78 kN</title></circle>
      <text x="214.8" y="24.7" dx="-1.0" dy="7.0" class="vmlabel" text-anchor="end"><title>-78 kN</title>-78</text>
      <circle cx="232.8" cy="24.7" r="1.5" stroke="none" fill="red"><title>-78 kN</title></circle>
      <text x="232.8" y="24.7" dx="1.0" dy="7.0" class="vmlabel" text-anchor="start"><title>-78 kN</title>-78</text>
      <circle cx="232.8" cy="-39.9" r="1.5" stroke="none" fill="red"><title>126.2 kN</title></circle>
      <text x="232.8" y="-39.9" dx="1.0" dy="-1.0" class="vmlabel" text-anchor="start"><title>126.2 kN</title>126.2</text>
      <circle cx="264.0" cy="-30.0" r="1.5" stroke="none" fill="red"><title>94.98 kN</title></circle>
      <text x="264.0" y="-30.0" dx="1.0" dy="-1.0" class="vmlabel" text-anchor="start"><title>94.98 kN</title>94.98</text>
      <circle cx="264.0" cy="-19.0" r="1.5" stroke="none" fill="red"><title>59.98 kN</title></circle>
      <text x="264.0" y="-19.0" dx="1.0" dy="-1.0" class="vmlabel" text-anchor="start"><title>59.98 kN</title>59.98</text>
      <circle cx="328.8" cy="1.5" r="1.5" stroke="none" fill="red"><title>-4.818 kN</title></circle>
      <text x="328.8" y="1.5" dx="-1.0" dy="7.0" class="vmlabel" text-anchor="end"><title>-4.818 kN</title>-4.818</text>
      <circle cx="328.8" cy="31.6" r="1.5" stroke="none" fill="red"><title>-99.82 kN</title></circle>
      <text x="328.8" y="31.6" dx="-1.0" dy="7.0" class="vmlabel" text-anchor="end"><title>-99.82 kN</title>-99.82</text>
      <circle cx="340.8" cy="35.4" r="1.5" stroke="none" fill="red"><title>-111.8 kN</title></circle>
      <text x="340.8" y="35.4" dx="1.0" dy="7.0" class="vmlabel" text-anchor="start"><title>-111.8 kN</title>-111.8</text>
      <circle cx="340.8" cy="-6.1" r="1.5" stroke="none" fill="red"><title>19.2 kN</title></circle>
      <text x="340.8" y="-6.1" dx="1.0" dy="-1.0" class="vmlabel" text-anchor="start"><title>19.2 kN</title>19.2</text>
      <text x="360.0" y="0" class="dwglabel" dx="18.0">V [kN]</text>
    </g>
    <g id="beam-zvguides" visibility="visible" transform="translate(0.0,0.0)">
      <path class="guides" d="M 34.1 67.0 L 34.1 258.0 M 169.8 67.0 L 169.8 258.0 M 324.0 67.0 L 324.0 258.0 M 360.0 67.0 L 360.0 258.0"/>
      <path class="guides" d="M 24.0 126.0 L 34.1 126.0"/>
      <path class="guides" d="M 24.0 126.0 m -3.0 3.0 l 6.0 -6.0"/>
      <path class="guides" d="M 34.1 126.0 m -3.0 3.0 l 6.0 -6.0"/>
      <text y="126.0" x="29.0" class="guides" dy="-3.0">0.838</text>
      <path class="guides" d="M 130.8 126.0 L 169.8 126.0"/>
      <path class="guides" d="M 130.8 126.0 m -3.0 3.0 l 6.0 -6.0"/>
      <path class="guides" d="M 169.8 126.0 m -3.0 3.0 l 6.0 -6.0"/>
      <text y="126.0" x="150.3" class="guides" dy="-3.0">3.25</text>
      <path class="guides" d="M 264.0 126.0 L 324.0 126.0"/>
      <path class="guides" d="M 264.0 126.0 m -3.0 3.0 l 6.0 -6.0"/>
      <path class="guides" d="M 324.0 126.0 m -3.0 3.0 l 6.0 -6.0"/>
      <text y="126.0" x="294.0" class="guides" dy="-3.0">5</text>
      <path class="guides" d="M 340.8 126.0 L 360.0 126.0"/>
      <path class="guides" d="M 340.8 126.0 m -3.0 3.0 l 6.0 -6.0"/>
      <path class="guides" d="M 360.0 126.0 m -3.0 3.0 l 6.0 -6.0"/>
      <text y="126.0" x="350.4" class="guides" dy="-3.0">1.6</text>
    </g>
  </g>
  <g id="beam-moment-diagram" visibility="visible" transform="translate(0.0,360.0)">
    <g transform="translate(0.0,24.8)">
      <title>Bending Moment Diagram</title>
      <path class="mdiag" d="M 0,0 L 0.0,0.0 1.8,0.1 3.7,0.2 5.5,0.5 7.4,0.9 9.2,1.4 11.1,2.0 12.9,2.7 14.8,3.6 16.6,4.5 18.5,5.6 20.3,6.7 22.2,8.0 24.0,9.4 25.8,8.9 27.6,8.4 29.4,8.1 31.3,7.9 33.1,7.8 34.1,7.8 34.9,7.8 36.7,7.9 38.5,8.1 40.3,8.4 42.1,8.8 44.0,9.4 45.8,10.0 47.6,10.7 49.4,11.6 51.2,12.6 53.0,13.6 54.8,14.8 56.7,16.1 58.5,17.5 60.3,19.0 62.1,20.6 63.9,22.3 65.7,24.1 67.5,26.1 69.3,28.1 71.2,30.2 73.0,32.5 74.8,34.9 76.6,37.3 78.4,39.9 80.2,42.6 82.0,45.4 83.9,48.3 85.7,51.3 87.5,54.4 89.3,57.6 91.1,60.9 92.9,64.4 94.7,67.9 96.6,71.6 98.4,75.3 100.2,79.2 102.0,83.2 103.8,77.2 105.6,71.3 107.4,65.5 109.2,59.8 111.0,54.3 112.8,48.8 114.6,43.4 116.4,38.2 118.2,33.0 120.0,28.0 121.8,23.1 123.6,18.2 125.4,13.5 127.2,8.9 129.0,4.4 130.8,0.0 132.6,-2.3 134.4,-4.4 136.2,-6.4 138.1,-8.4 139.9,-10.2 141.7,-11.9 143.5,-13.5 145.3,-15.0 147.1,-16.4 148.9,-17.7 150.8,-18.9 152.6,-20.0 154.4,-21.0 156.2,-21.8 158.0,-22.6 159.8,-23.2 161.6,-23.8 163.5,-24.2 165.3,-24.5 167.1,-24.7 168.9,-24.8 169.8,-24.8 170.7,-24.8 172.5,-24.7 174.3,-24.5 176.1,-24.2 178.0,-23.8 179.8,-23.2 181.6,-22.6 183.4,-21.8 185.2,-21.0 187.0,-20.0 188.8,-18.9 190.7,-17.7 192.5,-16.4 194.3,-15.0 196.1,-13.5 197.9,-11.9 199.7,-10.2 201.5,-8.4 203.4,-6.4 205.2,-4.4 207.0,-2.3 208.8,0.0 214.8,7.6 214.8,44.9 232.8,67.8 234.6,64.1 236.5,60.4 238.3,56.7 240.1,53.1 242.0,49.6 243.8,46.1 245.6,42.7 247.5,39.3 249.3,36.0 251.2,32.7 253.0,29.5 254.8,26.4 256.7,23.3 258.5,20.3 260.3,17.3 262.2,14.3 264.0,11.5 265.8,9.7 267.6,8.0 269.4,6.4 271.2,4.8 273.0,3.3 274.8,1.8 276.6,0.4 278.4,-1.0 280.2,-2.3 282.0,-3.5 283.8,-4.7 285.6,-5.9 287.4,-7.0 289.2,-8.0 291.0,-9.0 292.8,-10.0 294.6,-10.9 296.4,-11.7 298.2,-12.5 300.0,-13.2 301.8,-13.9 303.6,-14.5 305.4,-15.1 307.2,-15.6 309.0,-16.1 310.8,-16.5 312.6,-16.9 314.4,-17.2 316.2,-17.4 318.0,-17.6 319.8,-17.8 321.6,-17.9 323.4,-17.9 324.0,-17.9 325.2,-17.9 327.0,-17.8 328.8,-17.7 330.5,-14.9 332.2,-12.0 333.9,-9.1 335.7,-6.2 337.4,-3.2 339.1,-0.1 340.8,3.0 342.5,2.5 344.3,2.0 346.0,1.6 347.8,1.2 349.5,0.9 351.3,0.6 353.0,0.4 354.8,0.2 356.5,0.1 358.3,0.0 360.0,0.0 360.0,0.0 z"/>
      <circle cx="24.0" cy="9.4" r="1.5" stroke="none" fill="red"><title>-48 kN-m</title></circle>
      <text x="24.0" y="9.4" dx="1.0" dy="7.0" class="vmlabel" text-anchor="start"><title>-48 kN-m</title>-48</text>
      <circle cx="34.1" cy="7.8" r="1.5" stroke="none" fill="red"><title>-39.58 kN-m</title></circle>
      <text x="34.1" y="7.8" dx="-1.0" dy="7.0" class="vmlabel" text-anchor="end"><title>-39.58 kN-m</title>-39.58</text>
      <circle cx="102.0" cy="83.2" r="1.5" stroke="none" fill="red"><title>-424.3 kN-m</title></circle>
      <text x="102.0" y="83.2" dx="1.0" dy="7.0" class="vmlabel" text-anchor="start"><title>-424.3 kN-m</title>-424.3</text>
      <circle cx="169.8" cy="-24.8" r="1.5" stroke="none" fill="red"><title>126.8 kN-m</title></circle>
      <text x="169.8" y="-24.8" dx="1.0" dy="-1.0" class="vmlabel" text-anchor="start"><title>126.8 kN-m</title>126.8</text>
      <circle cx="214.8" cy="7.6" r="1.5" stroke="none" fill="red"><title>-39 kN-m</title></circle>
      <text x="214.8" y="7.6" dx="-1.0" dy="7.0" class="vmlabel" text-anchor="end"><title>-39 kN-m</title>-39</text>
      <circle cx="214.8" cy="44.9" r="1.5" stroke="none" fill="red"><title>-229 kN-m</title></circle>
      <text x="214.8" y="44.9" dx="-1.0" dy="7.0" class="vmlabel" text-anchor="end"><title>-229 kN-m</title>-229</text>
      <circle cx="232.8" cy="67.8" r="1.5" stroke="none" fill="red"><title>-346 kN-m</title></circle>
      <text x="232.8" y="67.8" dx="1.0" dy="7.0" class="vmlabel" text-anchor="start"><title>-346 kN-m</title>-346</text>
      <circle cx="264.0" cy="11.5" r="1.5" stroke="none" fill="red"><title>-58.49 kN-m</title></circle>
      <text x="264.0" y="11.5" dx="1.0" dy="7.0" class="vmlabel" text-anchor="start"><title>-58.49 kN-m</title>-58.49</text>
      <circle cx="324.0" cy="-17.9" r="1.5" stroke="none" fill="red"><title>91.42 kN-m</title></circle>
      <text x="324.0" y="-17.9" dx="1.0" dy="-1.0" class="vmlabel" text-anchor="start"><title>91.42 kN-m</title>91.42</text>
      <circle cx="328.8" cy="-17.7" r="1.5" stroke="none" fill="red"><title>90.46 kN-m</title></circle>
      <text x="328.8" y="-17.7" dx="1.0" dy="-1.0" class="vmlabel" text-anchor="start"><title>90.46 kN-m</title>90.46</text>
      <circle cx="340.8" cy="3.0" r="1.5" stroke="none" fill="red"><title>-15.36 kN-m</title></circle>
      <text x="340.8" y="3.0" dx="1.0" dy="7.0" class="vmlabel" text-anchor="start"><title>-15.36 kN-m</title>-15.36</text>
      <text x="360.0" y="0" class="dwglabel" dx="18.0">M [kN-m]</text>
    </g>
  </g>
</g>

</svg>
