<?xml version="1.0" standalone="yes"?>
<!DOCTYPE svg PUBLIC "-//W3C//DTD SVG 1.1//EN" 
  "http://www.w3.org/Graphics/SVG/1.1/DTD/svg11.dtd">
<svg xmlns="http://www.w3.org/2000/svg"
     xmlns:xlink="http://www.w3.org/1999/xlink"
     version="1.1"
     width="8.5in" 
     height="11.0in" 
     viewBox="0 0 612 792">
  <defs>
    <style type="text/css"><![CDATA[
    .elem {
	stroke-width: 2.0;
	stroke: black;
	}
    path.dim {
       stroke-width: 0.5;
       stroke: black;
       }
    path.guides {
       stroke-width: 0.5;
       stroke: grey;
       }
    text.dwglabel {
       font-family: Verdana, Arial;
       font-size: 10px;
       font-weight: bold;
       fill: black;
       text-align: center;
       text-anchor: start;
       }
    text.dim {
       font-family: Verdana, Arial;
       font-size: 8px;
       font-weight: bold;
       fill: black;
       text-align: center;
       text-anchor: middle;
       }
    text.guides {
       font-family: Verdana, Arial;
       font-size: 8px;
       font-weight: normal;
       font-style: italic;
       fill: black;
       text-align: center;
       text-anchor: middle;
       }
    text.vmlabel {
       font-family: Verdana, Arial;
       font-size: 8px;
       font-style: italic;
       fill: black;
       }
    text.notes {
       font-family: Verdana, Arial;
       font-size: 9px;
       font-weight: normal;
       font-style: italic;
       fill: black;
       text-align: center;
       text-anchor: left;
       }
    text.ptlabel {
       font-family: Verdana, Arial;
       font-size: 7px;
       font-style: italic;
       fill: black;
       text-align: center;
       text-anchor: start;
       }
     path.cload {
       fill: none;
       stroke-width: 1;
       stroke: black; 
       marker-end: url(#CLArrowEnd);
     }
      path.mload {
       fill: none;
       stroke-width: 1;
       stroke: black; 
       marker-end: url(#MLArrowEnd);
     }
      path.mloadInkscape {
       fill: none;
       stroke-width: 1;
       stroke: black; 
       marker-end: url(#MLArrowStart);
     }
     polygon.dload {
       fill: rgb(240,240,240);
       opacity: 0.5; /* if < 1, REALLY slows down printing of the pdfs */
       stroke-width: 1;
       stroke: black; 
     }
     path.dload {
       fill: none;
       stroke-width: 1;
       stroke: black; 
       marker-end: url(#DLArrowEnd);
     }
     path.dloadna {
       fill: none;
       stroke-width: 1;
       stroke: black; 
     }
     path.vdiag {
       fill: url(#crosshatch45);
       stroke-width: 1;
       stroke: black; 
     }
     path.mdiag {
       fill: url(#crosshatch45);
       stroke-width: 1;
       stroke: black; 
     }

    ]]></style>
    <g id="PinnedSupport" transform="translate(0,1.0)">
      <path d="M 0 0 l 4 6 l -8 0 z" 
	    stroke="black" stroke-width="0" fill="black" opacity="1.0" />
      <path d="M -6 6 l 12 0" 
	    stroke="black" stroke-width="1" fill="none" />
      <path d="M 6 6 l -3 3 m 0 -3 l -3 3 m 0 -3 l -3 3 m 0 -3 l -3 3 m 0 -3 l -3 3"
	    stroke="black" stroke-width="1" fill="none" />
    </g>
    <g id="RollerSupport" transform="translate(0,1.0)">
      <circle cx="0" cy="3" r="3"
	    stroke="black" stroke-width="0" fill="black" opacity="1.0" />
      <path d="M -6 6 l 12 0" 
	    stroke="black" stroke-width="1" fill="none" />
      <path d="M 6 6 l -3 3 m 0 -3 l -3 3 m 0 -3 l -3 3 m 0 -3 l -3 3 m 0 -3 l -3 3"
	    stroke="black" stroke-width="1" fill="none" />
    </g>
    <g id="LFixedSupport" transform="translate(-0.5,0)">
      <path d="M 0 -6 l 0 12"
	    stroke="black" stroke-width="1" fill="none" />
      <path d="M 0 -6 l -3 3 m 3 0 l -3 3 m 3 0 l -3 3 m 3 0 l -3 3 m 3 0 l -3 3"
	    stroke="black" stroke-width="1" fill="none" />
    </g>
    <g id="RFixedSupport">
      <use xlink:href="#LFixedSupport" transform="scale(-1,1)"/>
    </g>
    <g id="Hinge">
      <circle cx="0" cy="0" r="2.5"
	      stroke="black" stroke-width="1" fill="white"/>
    </g>
    <g id="ShearRelease">
      <rect x="-3" y="-6" width="6" height="12"
	    stroke="none" fill="white"/>
      <circle cx="0" cy="-6" r="2" stroke="black" strokewidth="0.5" fill="white"/>
      <circle cx="0" cy="0" r="2" stroke="black" strokewidth="0.5" fill="white"/>
      <circle cx="0" cy="6" r="2" stroke="black" strokewidth="0.5" fill="white"/>
      <path d="M -3 -9 l 0 18 M 3 -9 l 0 18" stroke="black" stroke-width="1"/>
    </g>
    <marker id="DLArrowStart"
	    markerUnits="userSpaceOnUse"
	    markerWidth="8"
	    markerHeight="4"
	    orient="auto"
	    viewBox="0 0 8 4"
	    refX="0"
	    refY="2">
      <path d="M 0 2 l 8 -2 l 0 4 z"/>
    </marker>
    <marker id="DLArrowEnd"
	    markerUnits="userSpaceOnUse"
	    markerWidth="8"
	    markerHeight="4"
	    orient="auto"
	    viewBox="0 0 8 4"
	    refX="8"
	    refY="2">
      <path d="M 0 0 l 8 2 l -8 2 z"/>
    </marker>
    <marker id="CLArrowStart"
	    markerUnits="userSpaceOnUse"
	    markerWidth="10.0"
	    markerHeight="6"
	    orient="auto"
	    viewBox="0 0 10 6"
	    refX="3.0"
	    refY="3">
      <path d="M 0 3 l 10 -3 l -2 3 l 2 3 z"/>
    </marker>
    <marker id="CLArrowEnd"
	    markerUnits="userSpaceOnUse"
	    markerWidth="10.0"
	    markerHeight="6"
	    orient="auto"
	    viewBox="0 0 10 6"
	    refX="7.0"
	    refY="3">
      <path d="M 0 0 l 10 3 l -10 3 l 2 -3 z"/>
    </marker>
    <marker id="MLArrowStart"
	    markerUnits="userSpaceOnUse"
	    markerWidth="10.0"
	    markerHeight="6"
	    orient="auto"
	    viewBox="0 0 10 6"
	    refX="8"
	    refY="3">
      <path d="M 10 0 l -10 3 l 10 3 l -2 -3 z"/>
    </marker>
    <marker id="MLArrowEnd"
	    markerUnits="userSpaceOnUse"
	    markerWidth="10.0"
	    markerHeight="6"
	    orient="auto"
	    viewBox="0 0 10 6"
	    refX="2"
	    refY="3">
      <path d="M 0 0 l 10 3 l -10 3 l 2 -3 z"/>
    </marker>
    <pattern id="crosshatch45" patternUnits="userSpaceOnUse"
             x="0" y="0" width="10" height="10"
	     viewBox="0 0 10 10">
       <path d="M 0 0 L 10 10" fill="none" stroke="grey" stroke-width="0.2"/>
    </pattern>


  </defs>

<g transform="translate(72.0,122.0)">
  <title>Beam! Length = 19.8</title>
  <path class="elem" d="M 0 0 l 360.0 0"/>
  <g transform="translate(40.0,0.0)">
    <title>UD Load 25 kN/m</title>
    <polygon points="0,0 0,-12.0 90.9,-12.0 90.9,0" class="dload"/>
    <path class="dload" d="M 0.0 -12.0 L 0.0 -1.0"/>
    <path class="dload" d="M 22.7 -12.0 L 22.7 -1.0"/>
    <path class="dload" d="M 45.5 -12.0 L 45.5 -1.0"/>
    <path class="dload" d="M 68.2 -12.0 L 68.2 -1.0"/>
    <path class="dload" d="M 90.9 -12.0 L 90.9 -1.0"/>
    <text style="text-anchor: middle;" dx="0.0" dy="-2.0" y="-12.0" x="45.5" class="dim">25</text>
  </g>
  <g transform="translate(130.9,0.0)">
    <title>UD Load 25 kN/m</title>
    <polygon points="0,0 0,-12.0 200.0,-12.0 200.0,0" class="dload"/>
    <path class="dload" d="M 0.0 -12.0 L 0.0 -1.0"/>
    <path class="dload" d="M 25.0 -12.0 L 25.0 -1.0"/>
    <path class="dload" d="M 50.0 -12.0 L 50.0 -1.0"/>
    <path class="dload" d="M 75.0 -12.0 L 75.0 -1.0"/>
    <path class="dload" d="M 100.0 -12.0 L 100.0 -1.0"/>
    <path class="dload" d="M 125.0 -12.0 L 125.0 -1.0"/>
    <path class="dload" d="M 150.0 -12.0 L 150.0 -1.0"/>
    <path class="dload" d="M 175.0 -12.0 L 175.0 -1.0"/>
    <path class="dload" d="M 200.0 -12.0 L 200.0 -1.0"/>
    <text style="text-anchor: middle;" dx="0.0" dy="-2.0" y="-12.0" x="100.0" class="dim">25</text>
  </g>
  <g transform="translate(0.0,-1.0)">
    <title>Point Load = 45 kN</title>
    <path class="cload" d="M 0 -42.0 l 0 39.0"/>
    <text y="-42.0" x="0" class="dim" dy="-3.0">45</text>
  </g>
  <g transform="translate(360.0,-1.0)">
    <title>Point Load = 35 kN</title>
    <path class="cload" d="M 0 -26.0 l 0 23.0"/>
    <text y="-26.0" x="0" class="dim" dy="-3.0">35</text>
  </g>
  <use y="0" x="40.0" xlink:href="#RollerSupport"/>
  <use y="0" x="130.9" xlink:href="#Hinge"/>
  <use y="0" x="149.1" xlink:href="#RollerSupport"/>
  <use y="0" x="330.9" xlink:href="#PinnedSupport"/>
  <path class="dim" d="M 130.9 10.0 l 0 25.0"/>
  <path class="dim" d="M 40.0 30.0 l 90.9 0"/>
  <path class="dim" d="M 40.0 30.0 m -3.0 3.0 l 6.0 -6.0"/>
  <path class="dim" d="M 130.9 30.0 m -3.0 3.0 l 6.0 -6.0"/>
  <text y="30.0" x="85.5" class="dim" dy="-3.0">5</text>
  <path class="dim" d="M 0.0 10.0 l 0 40.0"/>
  <path class="dim" d="M 40.0 10.0 l 0 40.0"/>
  <path class="dim" d="M 0.0 45.0 l 40.0 0"/>
  <path class="dim" d="M 0.0 45.0 m -3.0 3.0 l 6.0 -6.0"/>
  <path class="dim" d="M 40.0 45.0 m -3.0 3.0 l 6.0 -6.0"/>
  <text y="45.0" x="20.0" class="dim" dy="-3.0">2.2</text>
  <path class="dim" d="M 149.1 10.0 l 0 40.0"/>
  <path class="dim" d="M 40.0 45.0 l 109.1 0"/>
  <path class="dim" d="M 149.1 45.0 m -3.0 3.0 l 6.0 -6.0"/>
  <text y="45.0" x="94.5" class="dim" dy="-3.0">6</text>
  <path class="dim" d="M 330.9 10.0 l 0 40.0"/>
  <path class="dim" d="M 149.1 45.0 l 181.8 0"/>
  <path class="dim" d="M 330.9 45.0 m -3.0 3.0 l 6.0 -6.0"/>
  <text y="45.0" x="240.0" class="dim" dy="-3.0">10</text>
  <path class="dim" d="M 360.0 10.0 l 0 40.0"/>
  <path class="dim" d="M 330.9 45.0 l 29.1 0"/>
  <path class="dim" d="M 360.0 45.0 m -3.0 3.0 l 6.0 -6.0"/>
  <text y="45.0" x="345.5" class="dim" dy="-3.0">1.6</text>
  <text y="17.0" x="0.0" class="ptlabel" dx="1.0">a</text>
  <text y="17.0" x="40.0" class="ptlabel" dx="1.0">b</text>
  <text y="17.0" x="130.9" class="ptlabel" dx="1.0">c</text>
  <text y="17.0" x="149.1" class="ptlabel" dx="1.0">d</text>
  <text y="17.0" x="330.9" class="ptlabel" dx="1.0">e</text>
  <text y="17.0" x="360.0" class="ptlabel" dx="1.0">f</text>
  <text y="-56.0" x="0" xml:space="preserve" class="notes">Units are m, kN;       Difficulty Level = 7</text>
  <g id="beam-guides" visibility="visible" transform="translate(0.0,0.0)">
    <path class="guides" d="M 0.0 51.0 L 0.0 474.0 M 40.0 51.0 L 40.0 474.0 M 130.9 51.0 L 130.9 474.0 M 149.1 51.0 L 149.1 474.0 M 330.9 51.0 L 330.9 474.0 M 360.0 51.0 L 360.0 474.0"/>
  </g>
  <g id="beam-fb-diagram" visibility="visible" transform="translate(0.0,144.0)">
    <title>Free Body Diagram</title>
    <path class="elem" d="M 0 0 l 360.0 0"/>
    <g transform="translate(40.0,0.0)">
      <title>UD Load 25 kN/m</title>
      <polygon points="0,0 0,-12.0 90.9,-12.0 90.9,0" class="dload"/>
      <path class="dload" d="M 0.0 -12.0 L 0.0 -1.0"/>
      <path class="dload" d="M 22.7 -12.0 L 22.7 -1.0"/>
      <path class="dload" d="M 45.5 -12.0 L 45.5 -1.0"/>
      <path class="dload" d="M 68.2 -12.0 L 68.2 -1.0"/>
      <path class="dload" d="M 90.9 -12.0 L 90.9 -1.0"/>
      <text style="text-anchor: middle;" dx="0.0" dy="-2.0" y="-12.0" x="45.5" class="dim">25</text>
    </g>
    <g transform="translate(130.9,0.0)">
      <title>UD Load 25 kN/m</title>
      <polygon points="0,0 0,-12.0 200.0,-12.0 200.0,0" class="dload"/>
      <path class="dload" d="M 0.0 -12.0 L 0.0 -1.0"/>
      <path class="dload" d="M 25.0 -12.0 L 25.0 -1.0"/>
      <path class="dload" d="M 50.0 -12.0 L 50.0 -1.0"/>
      <path class="dload" d="M 75.0 -12.0 L 75.0 -1.0"/>
      <path class="dload" d="M 100.0 -12.0 L 100.0 -1.0"/>
      <path class="dload" d="M 125.0 -12.0 L 125.0 -1.0"/>
      <path class="dload" d="M 150.0 -12.0 L 150.0 -1.0"/>
      <path class="dload" d="M 175.0 -12.0 L 175.0 -1.0"/>
      <path class="dload" d="M 200.0 -12.0 L 200.0 -1.0"/>
      <text style="text-anchor: middle;" dx="0.0" dy="-2.0" y="-12.0" x="100.0" class="dim">25</text>
    </g>
    <g transform="translate(0.0,-1.0)">
      <title>Point Load = 45 kN</title>
      <path class="cload" d="M 0 -29.7 l 0 26.7"/>
      <text y="-29.7" x="0" class="dim" dy="-3.0">45</text>
    </g>
    <g transform="translate(360.0,-1.0)">
      <title>Point Load = 35 kN</title>
      <path class="cload" d="M 0 -28.9 l 0 25.9"/>
      <text y="-28.9" x="0" class="dim" dy="-3.0">35</text>
    </g>
    <g transform="translate(40.0,1.0)">
      <title>Point Load = -127.3 kN</title>
      <path class="cload" d="M 0 36.6 l 0 -33.6"/>
      <text y="36.6" x="0" class="dim" dy="8.0">127.3</text>
    </g>
    <g transform="translate(149.1,1.0)">
      <title>Point Load = -192.62 kN</title>
      <path class="cload" d="M 0 42.0 l 0 -39.0"/>
      <text y="42.0" x="0" class="dim" dy="8.0">192.6</text>
    </g>
    <g transform="translate(330.9,1.0)">
      <title>Point Load = -160.08 kN</title>
      <path class="cload" d="M 0 39.3 l 0 -36.3"/>
      <text y="39.3" x="0" class="dim" dy="8.0">160.1</text>
    </g>
    <text x="360.0" y="0" class="dwglabel" dx="18.0">FBD [m,kN]</text>
  </g>
  <g id="beam-shear-diagram" visibility="visible" transform="translate(0.0,216.0)">
    <g transform="translate(0.0,54.0)">
      <title>Shear Force Diagram</title>
      <path class="vdiag" d="M 0,0 L -0.0,-0.0 0.0,19.4 40.0,19.4 40.0,-35.6 130.9,18.4 149.1,29.2 149.1,-54.0 330.9,54.0 330.9,-15.1 360.0,-15.1 360.0,0.0 z"/>
      <circle cx="0.0" cy="19.4" r="1.5" stroke="none" fill="red"><title>-45 kN</title></circle>
      <text x="0.0" y="19.4" dx="-1.0" dy="7.0" class="vmlabel" text-anchor="end"><title>-45 kN</title>-45</text>
      <circle cx="40.0" cy="19.4" r="1.5" stroke="none" fill="red"><title>-45 kN</title></circle>
      <text x="40.0" y="19.4" dx="1.0" dy="7.0" class="vmlabel" text-anchor="start"><title>-45 kN</title>-45</text>
      <circle cx="40.0" cy="-35.6" r="1.5" stroke="none" fill="red"><title>82.3 kN</title></circle>
      <text x="40.0" y="-35.6" dx="1.0" dy="-1.0" class="vmlabel" text-anchor="start"><title>82.3 kN</title>82.3</text>
      <circle cx="130.9" cy="18.4" r="1.5" stroke="none" fill="red"><title>-42.7 kN</title></circle>
      <text x="130.9" y="18.4" dx="-1.0" dy="7.0" class="vmlabel" text-anchor="end"><title>-42.7 kN</title>-42.7</text>
      <circle cx="149.1" cy="29.2" r="1.5" stroke="none" fill="red"><title>-67.7 kN</title></circle>
      <text x="149.1" y="29.2" dx="1.0" dy="7.0" class="vmlabel" text-anchor="start"><title>-67.7 kN</title>-67.7</text>
      <circle cx="149.1" cy="-54.0" r="1.5" stroke="none" fill="red"><title>124.9 kN</title></circle>
      <text x="149.1" y="-54.0" dx="1.0" dy="-1.0" class="vmlabel" text-anchor="start"><title>124.9 kN</title>124.9</text>
      <circle cx="330.9" cy="54.0" r="1.5" stroke="none" fill="red"><title>-125.1 kN</title></circle>
      <text x="330.9" y="54.0" dx="1.0" dy="7.0" class="vmlabel" text-anchor="start"><title>-125.1 kN</title>-125.1</text>
      <circle cx="330.9" cy="-15.1" r="1.5" stroke="none" fill="red"><title>35 kN</title></circle>
      <text x="330.9" y="-15.1" dx="1.0" dy="-1.0" class="vmlabel" text-anchor="start"><title>35 kN</title>35</text>
      <circle cx="360.0" cy="-15.1" r="1.5" stroke="none" fill="red"><title>35 kN</title></circle>
      <text x="360.0" y="-15.1" dx="1.0" dy="-1.0" class="vmlabel" text-anchor="start"><title>35 kN</title>35</text>
      <text x="360.0" y="0" class="dwglabel" dx="18.0">V [kN]</text>
    </g>
    <g id="beam-zvguides" visibility="visible" transform="translate(0.0,0.0)">
      <path class="guides" d="M 99.9 56.0 L 99.9 258.0 M 239.9 56.0 L 239.9 258.0"/>
      <path class="guides" d="M 40.0 126.0 L 99.9 126.0"/>
      <path class="guides" d="M 40.0 126.0 m -3.0 3.0 l 6.0 -6.0"/>
      <path class="guides" d="M 99.9 126.0 m -3.0 3.0 l 6.0 -6.0"/>
      <text y="126.0" x="69.9" class="guides" dy="-3.0">3.29</text>
      <path class="guides" d="M 149.1 126.0 L 239.9 126.0"/>
      <path class="guides" d="M 149.1 126.0 m -3.0 3.0 l 6.0 -6.0"/>
      <path class="guides" d="M 239.9 126.0 m -3.0 3.0 l 6.0 -6.0"/>
      <text y="126.0" x="194.5" class="guides" dy="-3.0">5</text>
    </g>
  </g>
  <g id="beam-moment-diagram" visibility="visible" transform="translate(0.0,360.0)">
    <g transform="translate(0.0,78.0)">
      <title>Bending Moment Diagram</title>
      <path class="mdiag" d="M 0,0 L 0.0,0.0 40.0,30.0 41.8,27.6 43.6,25.3 45.3,23.0 47.1,20.8 48.9,18.7 50.7,16.7 52.5,14.7 54.3,12.8 56.0,11.0 57.8,9.2 59.6,7.5 61.4,5.9 63.2,4.4 65.0,2.9 66.7,1.5 68.5,0.2 70.3,-1.0 72.1,-2.2 73.9,-3.3 75.7,-4.3 77.4,-5.3 79.2,-6.2 81.0,-7.0 82.8,-7.7 84.6,-8.4 86.3,-9.0 88.1,-9.5 89.9,-9.9 91.7,-10.3 93.5,-10.6 95.3,-10.8 97.0,-11.0 98.8,-11.1 99.9,-11.1 100.6,-11.1 102.4,-11.0 104.2,-10.9 106.0,-10.6 107.7,-10.4 109.5,-10.0 111.3,-9.6 113.1,-9.1 114.9,-8.5 116.6,-7.8 118.4,-7.1 120.2,-6.3 122.0,-5.4 123.8,-4.5 125.6,-3.5 127.3,-2.4 129.1,-1.2 130.9,-0.0 132.7,1.3 134.5,2.7 136.4,4.2 138.2,5.8 140.0,7.4 141.8,9.1 143.6,10.9 145.5,12.8 147.3,14.7 149.1,16.8 150.9,13.0 152.7,9.4 154.5,5.8 156.3,2.3 158.1,-1.1 159.9,-4.4 161.7,-7.7 163.5,-10.9 165.3,-14.0 167.1,-17.1 168.9,-20.0 170.7,-22.9 172.5,-25.8 174.3,-28.5 176.1,-31.2 177.9,-33.8 179.7,-36.3 181.5,-38.8 183.3,-41.1 185.1,-43.4 186.9,-45.7 188.7,-47.8 190.5,-49.9 192.3,-51.9 194.1,-53.8 195.9,-55.7 197.7,-57.5 199.5,-59.2 201.3,-60.8 203.1,-62.4 204.9,-63.9 206.7,-65.3 208.5,-66.6 210.3,-67.9 212.1,-69.1 213.9,-70.2 215.7,-71.2 217.5,-72.2 219.3,-73.1 221.1,-73.9 222.9,-74.6 224.7,-75.3 226.5,-75.9 228.3,-76.4 230.1,-76.8 231.9,-77.2 233.7,-77.5 235.5,-77.7 237.3,-77.9 239.1,-77.9 239.9,-78.0 240.9,-77.9 242.7,-77.9 244.5,-77.7 246.3,-77.5 248.1,-77.2 249.9,-76.8 251.7,-76.4 253.5,-75.8 255.3,-75.3 257.1,-74.6 258.9,-73.8 260.7,-73.0 262.5,-72.1 264.3,-71.1 266.1,-70.1 267.9,-69.0 269.7,-67.8 271.5,-66.5 273.3,-65.2 275.1,-63.8 276.9,-62.3 278.7,-60.7 280.5,-59.1 282.3,-57.4 284.1,-55.6 285.9,-53.7 287.7,-51.8 289.5,-49.8 291.3,-47.7 293.1,-45.5 294.9,-43.3 296.7,-41.0 298.5,-38.6 300.3,-36.1 302.1,-33.6 303.9,-31.0 305.7,-28.3 307.5,-25.6 309.3,-22.7 311.1,-19.8 312.9,-16.9 314.7,-13.8 316.5,-10.7 318.3,-7.5 320.1,-4.2 321.9,-0.9 323.7,2.6 325.5,6.1 327.3,9.6 329.1,13.3 330.9,17.0 360.0,0.0 z"/>
      <circle cx="40.0" cy="30.0" r="1.5" stroke="none" fill="red"><title>-99 kN-m</title></circle>
      <text x="40.0" y="30.0" dx="1.0" dy="7.0" class="vmlabel" text-anchor="start"><title>-99 kN-m</title>-99</text>
      <circle cx="99.9" cy="-11.1" r="1.5" stroke="none" fill="red"><title>36.47 kN-m</title></circle>
      <text x="99.9" y="-11.1" dx="1.0" dy="-1.0" class="vmlabel" text-anchor="start"><title>36.47 kN-m</title>36.47</text>
      <circle cx="149.1" cy="16.8" r="1.5" stroke="none" fill="red"><title>-55.2 kN-m</title></circle>
      <text x="149.1" y="16.8" dx="1.0" dy="7.0" class="vmlabel" text-anchor="start"><title>-55.2 kN-m</title>-55.2</text>
      <circle cx="239.9" cy="-78.0" r="1.5" stroke="none" fill="red"><title>256.9 kN-m</title></circle>
      <text x="239.9" y="-78.0" dx="1.0" dy="-1.0" class="vmlabel" text-anchor="start"><title>256.9 kN-m</title>256.9</text>
      <circle cx="330.9" cy="17.0" r="1.5" stroke="none" fill="red"><title>-56 kN-m</title></circle>
      <text x="330.9" y="17.0" dx="1.0" dy="7.0" class="vmlabel" text-anchor="start"><title>-56 kN-m</title>-56</text>
      <text x="360.0" y="0" class="dwglabel" dx="18.0">M [kN-m]</text>
    </g>
  </g>
</g>

</svg>
