<?xml version="1.0" standalone="yes"?>
<!DOCTYPE svg PUBLIC "-//W3C//DTD SVG 1.1//EN" 
  "http://www.w3.org/Graphics/SVG/1.1/DTD/svg11.dtd">
<svg xmlns="http://www.w3.org/2000/svg"
     xmlns:xlink="http://www.w3.org/1999/xlink"
     version="1.1"
     width="8.5in" 
     height="11.0in" 
     viewBox="0 0 612 792">
  <defs>
    <style type="text/css"><![CDATA[
    .elem {
	stroke-width: 2.0;
	stroke: black;
	}
    path.dim {
       stroke-width: 0.5;
       stroke: black;
       }
    path.guides {
       stroke-width: 0.5;
       stroke: grey;
       }
    text.dwglabel {
       font-family: Verdana, Arial;
       font-size: 10px;
       font-weight: bold;
       fill: black;
       text-align: center;
       text-anchor: start;
       }
    text.dim {
       font-family: Verdana, Arial;
       font-size: 8px;
       font-weight: bold;
       fill: black;
       text-align: center;
       text-anchor: middle;
       }
    text.guides {
       font-family: Verdana, Arial;
       font-size: 8px;
       font-weight: normal;
       font-style: italic;
       fill: black;
       text-align: center;
       text-anchor: middle;
       }
    text.vmlabel {
       font-family: Verdana, Arial;
       font-size: 8px;
       font-style: italic;
       fill: black;
       }
    text.notes {
       font-family: Verdana, Arial;
       font-size: 9px;
       font-weight: normal;
       font-style: italic;
       fill: black;
       text-align: center;
       text-anchor: left;
       }
    text.ptlabel {
       font-family: Verdana, Arial;
       font-size: 7px;
       font-style: italic;
       fill: black;
       text-align: center;
       text-anchor: start;
       }
     path.cload {
       fill: none;
       stroke-width: 1;
       stroke: black; 
       marker-end: url(#CLArrowEnd);
     }
      path.mload {
       fill: none;
       stroke-width: 1;
       stroke: black; 
       marker-end: url(#MLArrowEnd);
     }
      path.mloadInkscape {
       fill: none;
       stroke-width: 1;
       stroke: black; 
       marker-end: url(#MLArrowStart);
     }
     polygon.dload {
       fill: rgb(240,240,240);
       opacity: 0.5; /* if < 1, REALLY slows down printing of the pdfs */
       stroke-width: 1;
       stroke: black; 
     }
     path.dload {
       fill: none;
       stroke-width: 1;
       stroke: black; 
       marker-end: url(#DLArrowEnd);
     }
     path.dloadna {
       fill: none;
       stroke-width: 1;
       stroke: black; 
     }
     path.vdiag {
       fill: url(#crosshatch45);
       stroke-width: 1;
       stroke: black; 
     }
     path.mdiag {
       fill: url(#crosshatch45);
       stroke-width: 1;
       stroke: black; 
     }

    ]]></style>
    <g id="PinnedSupport" transform="translate(0,1.0)">
      <path d="M 0 0 l 4 6 l -8 0 z" 
	    stroke="black" stroke-width="0" fill="black" opacity="1.0" />
      <path d="M -6 6 l 12 0" 
	    stroke="black" stroke-width="1" fill="none" />
      <path d="M 6 6 l -3 3 m 0 -3 l -3 3 m 0 -3 l -3 3 m 0 -3 l -3 3 m 0 -3 l -3 3"
	    stroke="black" stroke-width="1" fill="none" />
    </g>
    <g id="RollerSupport" transform="translate(0,1.0)">
      <circle cx="0" cy="3" r="3"
	    stroke="black" stroke-width="0" fill="black" opacity="1.0" />
      <path d="M -6 6 l 12 0" 
	    stroke="black" stroke-width="1" fill="none" />
      <path d="M 6 6 l -3 3 m 0 -3 l -3 3 m 0 -3 l -3 3 m 0 -3 l -3 3 m 0 -3 l -3 3"
	    stroke="black" stroke-width="1" fill="none" />
    </g>
    <g id="LFixedSupport" transform="translate(-0.5,0)">
      <path d="M 0 -6 l 0 12"
	    stroke="black" stroke-width="1" fill="none" />
      <path d="M 0 -6 l -3 3 m 3 0 l -3 3 m 3 0 l -3 3 m 3 0 l -3 3 m 3 0 l -3 3"
	    stroke="black" stroke-width="1" fill="none" />
    </g>
    <g id="RFixedSupport">
      <use xlink:href="#LFixedSupport" transform="scale(-1,1)"/>
    </g>
    <g id="Hinge">
      <circle cx="0" cy="0" r="2.5"
	      stroke="black" stroke-width="1" fill="white"/>
    </g>
    <g id="ShearRelease">
      <rect x="-3" y="-6" width="6" height="12"
	    stroke="none" fill="white"/>
      <circle cx="0" cy="-6" r="2" stroke="black" strokewidth="0.5" fill="white"/>
      <circle cx="0" cy="0" r="2" stroke="black" strokewidth="0.5" fill="white"/>
      <circle cx="0" cy="6" r="2" stroke="black" strokewidth="0.5" fill="white"/>
      <path d="M -3 -9 l 0 18 M 3 -9 l 0 18" stroke="black" stroke-width="1"/>
    </g>
    <marker id="DLArrowStart"
	    markerUnits="userSpaceOnUse"
	    markerWidth="8"
	    markerHeight="4"
	    orient="auto"
	    viewBox="0 0 8 4"
	    refX="0"
	    refY="2">
      <path d="M 0 2 l 8 -2 l 0 4 z"/>
    </marker>
    <marker id="DLArrowEnd"
	    markerUnits="userSpaceOnUse"
	    markerWidth="8"
	    markerHeight="4"
	    orient="auto"
	    viewBox="0 0 8 4"
	    refX="8"
	    refY="2">
      <path d="M 0 0 l 8 2 l -8 2 z"/>
    </marker>
    <marker id="CLArrowStart"
	    markerUnits="userSpaceOnUse"
	    markerWidth="10.0"
	    markerHeight="6"
	    orient="auto"
	    viewBox="0 0 10 6"
	    refX="3.0"
	    refY="3">
      <path d="M 0 3 l 10 -3 l -2 3 l 2 3 z"/>
    </marker>
    <marker id="CLArrowEnd"
	    markerUnits="userSpaceOnUse"
	    markerWidth="10.0"
	    markerHeight="6"
	    orient="auto"
	    viewBox="0 0 10 6"
	    refX="7.0"
	    refY="3">
      <path d="M 0 0 l 10 3 l -10 3 l 2 -3 z"/>
    </marker>
    <marker id="MLArrowStart"
	    markerUnits="userSpaceOnUse"
	    markerWidth="10.0"
	    markerHeight="6"
	    orient="auto"
	    viewBox="0 0 10 6"
	    refX="8"
	    refY="3">
      <path d="M 10 0 l -10 3 l 10 3 l -2 -3 z"/>
    </marker>
    <marker id="MLArrowEnd"
	    markerUnits="userSpaceOnUse"
	    markerWidth="10.0"
	    markerHeight="6"
	    orient="auto"
	    viewBox="0 0 10 6"
	    refX="2"
	    refY="3">
      <path d="M 0 0 l 10 3 l -10 3 l 2 -3 z"/>
    </marker>
    <pattern id="crosshatch45" patternUnits="userSpaceOnUse"
             x="0" y="0" width="10" height="10"
	     viewBox="0 0 10 10">
       <path d="M 0 0 L 10 10" fill="none" stroke="grey" stroke-width="0.2"/>
    </pattern>


  </defs>

<g transform="translate(72.0,122.0)">
  <title>Beam! Length = 7.7</title>
  <path class="elem" d="M 0 0 l 360.0 0"/>
  <g transform="translate(0.0,0.0)">
    <title>UD Load 20 kN/m</title>
    <polygon points="0,0 0,-12.0 102.9,-12.0 102.9,0" class="dload"/>
    <path class="dload" d="M 0.0 -12.0 L 0.0 -1.0"/>
    <path class="dload" d="M 25.7 -12.0 L 25.7 -1.0"/>
    <path class="dload" d="M 51.4 -12.0 L 51.4 -1.0"/>
    <path class="dload" d="M 77.1 -12.0 L 77.1 -1.0"/>
    <path class="dload" d="M 102.9 -12.0 L 102.9 -1.0"/>
    <text style="text-anchor: middle;" dx="0.0" dy="-2.0" y="-12.0" x="51.4" class="dim">20</text>
  </g>
  <g transform="translate(233.8,-1.0)">
    <title>Point Load = 60 kN</title>
    <path class="cload" d="M 0 -26.0 l 0 23.0"/>
    <text y="-26.0" x="0" class="dim" dy="-3.0">60</text>
  </g>
  <use y="0" x="102.9" xlink:href="#PinnedSupport"/>
  <use y="0" x="360.0" xlink:href="#RollerSupport"/>
  <path class="dim" d="M 233.8 10.0 l 0 25.0"/>
  <path class="dim" d="M 102.9 30.0 l 130.9 0"/>
  <path class="dim" d="M 102.9 30.0 m -3.0 3.0 l 6.0 -6.0"/>
  <path class="dim" d="M 233.8 30.0 m -3.0 3.0 l 6.0 -6.0"/>
  <text y="30.0" x="168.3" class="dim" dy="-3.0">2.8</text>
  <path class="dim" d="M 0.0 10.0 l 0 40.0"/>
  <path class="dim" d="M 102.9 10.0 l 0 40.0"/>
  <path class="dim" d="M 0.0 45.0 l 102.9 0"/>
  <path class="dim" d="M 0.0 45.0 m -3.0 3.0 l 6.0 -6.0"/>
  <path class="dim" d="M 102.9 45.0 m -3.0 3.0 l 6.0 -6.0"/>
  <text y="45.0" x="51.4" class="dim" dy="-3.0">2.2</text>
  <path class="dim" d="M 360.0 10.0 l 0 40.0"/>
  <path class="dim" d="M 102.9 45.0 l 257.1 0"/>
  <path class="dim" d="M 360.0 45.0 m -3.0 3.0 l 6.0 -6.0"/>
  <text y="45.0" x="231.4" class="dim" dy="-3.0">5.5</text>
  <text y="17.0" x="0.0" class="ptlabel" dx="1.0">a</text>
  <text y="17.0" x="102.9" class="ptlabel" dx="1.0">b</text>
  <text y="17.0" x="233.8" class="ptlabel" dx="1.0">c</text>
  <text y="17.0" x="360.0" class="ptlabel" dx="1.0">d</text>
  <text y="-56.0" x="0" xml:space="preserve" class="notes">Units are m, kN;       Difficulty Level = 3</text>
  <g id="beam-guides" visibility="visible" transform="translate(0.0,0.0)">
    <path class="guides" d="M 0.0 51.0 L 0.0 474.0 M 102.9 51.0 L 102.9 474.0 M 233.8 51.0 L 233.8 474.0 M 360.0 51.0 L 360.0 474.0"/>
  </g>
  <g id="beam-fb-diagram" visibility="visible" transform="translate(0.0,144.0)">
    <title>Free Body Diagram</title>
    <path class="elem" d="M 0 0 l 360.0 0"/>
    <g transform="translate(0.0,0.0)">
      <title>UD Load 20 kN/m</title>
      <polygon points="0,0 0,-12.0 102.9,-12.0 102.9,0" class="dload"/>
      <path class="dload" d="M 0.0 -12.0 L 0.0 -1.0"/>
      <path class="dload" d="M 25.7 -12.0 L 25.7 -1.0"/>
      <path class="dload" d="M 51.4 -12.0 L 51.4 -1.0"/>
      <path class="dload" d="M 77.1 -12.0 L 77.1 -1.0"/>
      <path class="dload" d="M 102.9 -12.0 L 102.9 -1.0"/>
      <text style="text-anchor: middle;" dx="0.0" dy="-2.0" y="-12.0" x="51.4" class="dim">20</text>
    </g>
    <g transform="translate(233.8,-1.0)">
      <title>Point Load = 60 kN</title>
      <path class="cload" d="M 0 -37.7 l 0 34.7"/>
      <text y="-37.7" x="0" class="dim" dy="-3.0">60</text>
    </g>
    <g transform="translate(102.9,1.0)">
      <title>Point Load = -82.2545 kN</title>
      <path class="cload" d="M 0 42.0 l 0 -39.0"/>
      <text y="42.0" x="0" class="dim" dy="8.0">82.25</text>
    </g>
    <g transform="translate(360.0,1.0)">
      <title>Point Load = -21.7455 kN</title>
      <path class="cload" d="M 0 30.2 l 0 -27.2"/>
      <text y="30.2" x="0" class="dim" dy="8.0">21.75</text>
    </g>
    <text x="360.0" y="0" class="dwglabel" dx="18.0">FBD [m,kN]</text>
  </g>
  <g id="beam-shear-diagram" visibility="visible" transform="translate(0.0,216.0)">
    <g transform="translate(0.0,50.2)">
      <title>Shear Force Diagram</title>
      <path class="vdiag" d="M 0,0 L 0.0,-0.0 102.9,57.8 102.9,-50.2 233.8,-50.2 233.8,28.6 360.0,28.6 360.0,-0.0 z"/>
      <circle cx="102.9" cy="57.8" r="1.5" stroke="none" fill="red"><title>-44 kN</title></circle>
      <text x="102.9" y="57.8" dx="1.0" dy="7.0" class="vmlabel" text-anchor="start"><title>-44 kN</title>-44</text>
      <circle cx="102.9" cy="-50.2" r="1.5" stroke="none" fill="red"><title>38.25 kN</title></circle>
      <text x="102.9" y="-50.2" dx="1.0" dy="-1.0" class="vmlabel" text-anchor="start"><title>38.25 kN</title>38.25</text>
      <circle cx="233.8" cy="-50.2" r="1.5" stroke="none" fill="red"><title>38.25 kN</title></circle>
      <text x="233.8" y="-50.2" dx="1.0" dy="-1.0" class="vmlabel" text-anchor="start"><title>38.25 kN</title>38.25</text>
      <circle cx="233.8" cy="28.6" r="1.5" stroke="none" fill="red"><title>-21.75 kN</title></circle>
      <text x="233.8" y="28.6" dx="-1.0" dy="7.0" class="vmlabel" text-anchor="end"><title>-21.75 kN</title>-21.75</text>
      <circle cx="360.0" cy="28.6" r="1.5" stroke="none" fill="red"><title>-21.75 kN</title></circle>
      <text x="360.0" y="28.6" dx="1.0" dy="7.0" class="vmlabel" text-anchor="start"><title>-21.75 kN</title>-21.75</text>
      <text x="360.0" y="0" class="dwglabel" dx="18.0">V [kN]</text>
    </g>
    <g id="beam-zvguides" visibility="visible" transform="translate(0.0,0.0)">
    </g>
  </g>
  <g id="beam-moment-diagram" visibility="visible" transform="translate(0.0,360.0)">
    <g transform="translate(0.0,59.2)">
      <title>Bending Moment Diagram</title>
      <path class="mdiag" d="M 0,0 L 0.0,0.0 1.8,0.0 3.6,0.1 5.4,0.1 7.2,0.2 9.0,0.4 10.8,0.5 12.6,0.7 14.4,1.0 16.2,1.2 18.0,1.5 19.8,1.8 21.7,2.2 23.5,2.5 25.3,2.9 27.1,3.4 28.9,3.8 30.7,4.3 32.5,4.9 34.3,5.4 36.1,6.0 37.9,6.6 39.7,7.3 41.5,7.9 43.3,8.7 45.1,9.4 46.9,10.2 48.7,10.9 50.5,11.8 52.3,12.6 54.1,13.5 55.9,14.4 57.7,15.4 59.5,16.4 61.4,17.4 63.2,18.4 65.0,19.5 66.8,20.6 68.6,21.7 70.4,22.8 72.2,24.0 74.0,25.2 75.8,26.5 77.6,27.8 79.4,29.1 81.2,30.4 83.0,31.8 84.8,33.2 86.6,34.6 88.4,36.1 90.2,37.6 92.0,39.1 93.8,40.6 95.6,42.2 97.4,43.8 99.2,45.4 101.1,47.1 102.9,48.8 233.8,-59.2 360.0,0.0 z"/>
      <circle cx="102.9" cy="48.8" r="1.5" stroke="none" fill="red"><title>-48.4 kN-m</title></circle>
      <text x="102.9" y="48.8" dx="1.0" dy="7.0" class="vmlabel" text-anchor="start"><title>-48.4 kN-m</title>-48.4</text>
      <circle cx="233.8" cy="-59.2" r="1.5" stroke="none" fill="red"><title>58.71 kN-m</title></circle>
      <text x="233.8" y="-59.2" dx="1.0" dy="-1.0" class="vmlabel" text-anchor="start"><title>58.71 kN-m</title>58.71</text>
      <text x="360.0" y="0" class="dwglabel" dx="18.0">M [kN-m]</text>
    </g>
  </g>
</g>

</svg>
