<?xml version="1.0" standalone="yes"?>
<!DOCTYPE svg PUBLIC "-//W3C//DTD SVG 1.1//EN" 
  "http://www.w3.org/Graphics/SVG/1.1/DTD/svg11.dtd">
<svg xmlns="http://www.w3.org/2000/svg"
     xmlns:xlink="http://www.w3.org/1999/xlink"
     version="1.1"
     width="8.5in" 
     height="11.0in" 
     viewBox="0 0 612 792">
  <defs>
    <style type="text/css"><![CDATA[
    .elem {
	stroke-width: 2.0;
	stroke: black;
	}
    path.dim {
       stroke-width: 0.5;
       stroke: black;
       }
    path.guides {
       stroke-width: 0.5;
       stroke: grey;
       }
    text.dwglabel {
       font-family: Verdana, Arial;
       font-size: 10px;
       font-weight: bold;
       fill: black;
       text-align: center;
       text-anchor: start;
       }
    text.dim {
       font-family: Verdana, Arial;
       font-size: 8px;
       font-weight: bold;
       fill: black;
       text-align: center;
       text-anchor: middle;
       }
    text.guides {
       font-family: Verdana, Arial;
       font-size: 8px;
       font-weight: normal;
       font-style: italic;
       fill: black;
       text-align: center;
       text-anchor: middle;
       }
    text.vmlabel {
       font-family: Verdana, Arial;
       font-size: 8px;
       font-style: italic;
       fill: black;
       }
    text.notes {
       font-family: Verdana, Arial;
       font-size: 9px;
       font-weight: normal;
       font-style: italic;
       fill: black;
       text-align: center;
       text-anchor: left;
       }
    text.ptlabel {
       font-family: Verdana, Arial;
       font-size: 7px;
       font-style: italic;
       fill: black;
       text-align: center;
       text-anchor: start;
       }
     path.cload {
       fill: none;
       stroke-width: 1;
       stroke: black; 
       marker-end: url(#CLArrowEnd);
     }
      path.mload {
       fill: none;
       stroke-width: 1;
       stroke: black; 
       marker-end: url(#MLArrowEnd);
     }
      path.mloadInkscape {
       fill: none;
       stroke-width: 1;
       stroke: black; 
       marker-end: url(#MLArrowStart);
     }
     polygon.dload {
       fill: rgb(240,240,240);
       opacity: 0.5; /* if < 1, REALLY slows down printing of the pdfs */
       stroke-width: 1;
       stroke: black; 
     }
     path.dload {
       fill: none;
       stroke-width: 1;
       stroke: black; 
       marker-end: url(#DLArrowEnd);
     }
     path.dloadna {
       fill: none;
       stroke-width: 1;
       stroke: black; 
     }
     path.vdiag {
       fill: url(#crosshatch45);
       stroke-width: 1;
       stroke: black; 
     }
     path.mdiag {
       fill: url(#crosshatch45);
       stroke-width: 1;
       stroke: black; 
     }

    ]]></style>
    <g id="PinnedSupport" transform="translate(0,1.0)">
      <path d="M 0 0 l 4 6 l -8 0 z" 
	    stroke="black" stroke-width="0" fill="black" opacity="1.0" />
      <path d="M -6 6 l 12 0" 
	    stroke="black" stroke-width="1" fill="none" />
      <path d="M 6 6 l -3 3 m 0 -3 l -3 3 m 0 -3 l -3 3 m 0 -3 l -3 3 m 0 -3 l -3 3"
	    stroke="black" stroke-width="1" fill="none" />
    </g>
    <g id="RollerSupport" transform="translate(0,1.0)">
      <circle cx="0" cy="3" r="3"
	    stroke="black" stroke-width="0" fill="black" opacity="1.0" />
      <path d="M -6 6 l 12 0" 
	    stroke="black" stroke-width="1" fill="none" />
      <path d="M 6 6 l -3 3 m 0 -3 l -3 3 m 0 -3 l -3 3 m 0 -3 l -3 3 m 0 -3 l -3 3"
	    stroke="black" stroke-width="1" fill="none" />
    </g>
    <g id="LFixedSupport" transform="translate(-0.5,0)">
      <path d="M 0 -6 l 0 12"
	    stroke="black" stroke-width="1" fill="none" />
      <path d="M 0 -6 l -3 3 m 3 0 l -3 3 m 3 0 l -3 3 m 3 0 l -3 3 m 3 0 l -3 3"
	    stroke="black" stroke-width="1" fill="none" />
    </g>
    <g id="RFixedSupport">
      <use xlink:href="#LFixedSupport" transform="scale(-1,1)"/>
    </g>
    <g id="Hinge">
      <circle cx="0" cy="0" r="2.5"
	      stroke="black" stroke-width="1" fill="white"/>
    </g>
    <g id="ShearRelease">
      <rect x="-3" y="-6" width="6" height="12"
	    stroke="none" fill="white"/>
      <circle cx="0" cy="-6" r="2" stroke="black" strokewidth="0.5" fill="white"/>
      <circle cx="0" cy="0" r="2" stroke="black" strokewidth="0.5" fill="white"/>
      <circle cx="0" cy="6" r="2" stroke="black" strokewidth="0.5" fill="white"/>
      <path d="M -3 -9 l 0 18 M 3 -9 l 0 18" stroke="black" stroke-width="1"/>
    </g>
    <marker id="DLArrowStart"
	    markerUnits="userSpaceOnUse"
	    markerWidth="8"
	    markerHeight="4"
	    orient="auto"
	    viewBox="0 0 8 4"
	    refX="0"
	    refY="2">
      <path d="M 0 2 l 8 -2 l 0 4 z"/>
    </marker>
    <marker id="DLArrowEnd"
	    markerUnits="userSpaceOnUse"
	    markerWidth="8"
	    markerHeight="4"
	    orient="auto"
	    viewBox="0 0 8 4"
	    refX="8"
	    refY="2">
      <path d="M 0 0 l 8 2 l -8 2 z"/>
    </marker>
    <marker id="CLArrowStart"
	    markerUnits="userSpaceOnUse"
	    markerWidth="10.0"
	    markerHeight="6"
	    orient="auto"
	    viewBox="0 0 10 6"
	    refX="3.0"
	    refY="3">
      <path d="M 0 3 l 10 -3 l -2 3 l 2 3 z"/>
    </marker>
    <marker id="CLArrowEnd"
	    markerUnits="userSpaceOnUse"
	    markerWidth="10.0"
	    markerHeight="6"
	    orient="auto"
	    viewBox="0 0 10 6"
	    refX="7.0"
	    refY="3">
      <path d="M 0 0 l 10 3 l -10 3 l 2 -3 z"/>
    </marker>
    <marker id="MLArrowStart"
	    markerUnits="userSpaceOnUse"
	    markerWidth="10.0"
	    markerHeight="6"
	    orient="auto"
	    viewBox="0 0 10 6"
	    refX="8"
	    refY="3">
      <path d="M 10 0 l -10 3 l 10 3 l -2 -3 z"/>
    </marker>
    <marker id="MLArrowEnd"
	    markerUnits="userSpaceOnUse"
	    markerWidth="10.0"
	    markerHeight="6"
	    orient="auto"
	    viewBox="0 0 10 6"
	    refX="2"
	    refY="3">
      <path d="M 0 0 l 10 3 l -10 3 l 2 -3 z"/>
    </marker>
    <pattern id="crosshatch45" patternUnits="userSpaceOnUse"
             x="0" y="0" width="10" height="10"
	     viewBox="0 0 10 10">
       <path d="M 0 0 L 10 10" fill="none" stroke="grey" stroke-width="0.2"/>
    </pattern>


  </defs>

<g transform="translate(72.0,122.0)">
  <title>Beam! Length = 23.1</title>
  <path class="elem" d="M 0 0 l 360.0 0"/>
  <g transform="translate(0.0,0.0)">
    <title>UD Load 15 kN/m</title>
    <polygon points="0,0 0,-12.0 360.0,-12.0 360.0,0" class="dload"/>
    <path class="dload" d="M 0.0 -12.0 L 0.0 -1.0"/>
    <path class="dload" d="M 25.7 -12.0 L 25.7 -1.0"/>
    <path class="dload" d="M 51.4 -12.0 L 51.4 -1.0"/>
    <path class="dload" d="M 77.1 -12.0 L 77.1 -1.0"/>
    <path class="dload" d="M 102.9 -12.0 L 102.9 -1.0"/>
    <path class="dload" d="M 128.6 -12.0 L 128.6 -1.0"/>
    <path class="dload" d="M 154.3 -12.0 L 154.3 -1.0"/>
    <path class="dload" d="M 180.0 -12.0 L 180.0 -1.0"/>
    <path class="dload" d="M 205.7 -12.0 L 205.7 -1.0"/>
    <path class="dload" d="M 231.4 -12.0 L 231.4 -1.0"/>
    <path class="dload" d="M 257.1 -12.0 L 257.1 -1.0"/>
    <path class="dload" d="M 282.9 -12.0 L 282.9 -1.0"/>
    <path class="dload" d="M 308.6 -12.0 L 308.6 -1.0"/>
    <path class="dload" d="M 334.3 -12.0 L 334.3 -1.0"/>
    <path class="dload" d="M 360.0 -12.0 L 360.0 -1.0"/>
    <text style="text-anchor: middle;" dx="0.0" dy="-2.0" y="-12.0" x="180.0" class="dim">15</text>
  </g>
  <g transform="translate(90.4,-1.0)">
    <title>Point Load = 85 kN</title>
    <path class="cload" d="M 0 -42.0 l 0 39.0"/>
    <text y="-42.0" x="0" class="dim" dy="-3.0">85</text>
  </g>
  <g transform="translate(104.4,-1.0)">
    <title>Point Load = 50 kN</title>
    <path class="cload" d="M 0 -26.0 l 0 23.0"/>
    <text y="-26.0" x="0" class="dim" dy="-3.0">50</text>
  </g>
  <use y="0" x="0.0" xlink:href="#PinnedSupport"/>
  <use y="0" x="70.1" xlink:href="#RollerSupport"/>
  <use y="0" x="104.4" xlink:href="#Hinge"/>
  <use y="0" x="229.1" xlink:href="#Hinge"/>
  <use y="0" x="250.9" xlink:href="#RollerSupport"/>
  <use y="0" x="360.0" xlink:href="#RollerSupport"/>
  <path class="dim" d="M 90.4 10.0 l 0 25.0"/>
  <path class="dim" d="M 70.1 30.0 l 20.3 0"/>
  <path class="dim" d="M 70.1 30.0 m -3.0 3.0 l 6.0 -6.0"/>
  <path class="dim" d="M 90.4 30.0 m -3.0 3.0 l 6.0 -6.0"/>
  <text y="30.0" x="80.3" class="dim" dy="-3.0">1.3</text>
  <path class="dim" d="M 104.4 10.0 l 0 40.0"/>
  <path class="dim" d="M 70.1 45.0 l 34.3 0"/>
  <path class="dim" d="M 70.1 45.0 m -3.0 3.0 l 6.0 -6.0"/>
  <path class="dim" d="M 104.4 45.0 m -3.0 3.0 l 6.0 -6.0"/>
  <text y="45.0" x="87.3" class="dim" dy="-3.0">2.2</text>
  <path class="dim" d="M 229.1 10.0 l 0 40.0"/>
  <path class="dim" d="M 104.4 45.0 l 124.7 0"/>
  <path class="dim" d="M 104.4 45.0 m -3.0 3.0 l 6.0 -6.0"/>
  <path class="dim" d="M 229.1 45.0 m -3.0 3.0 l 6.0 -6.0"/>
  <text y="45.0" x="166.8" class="dim" dy="-3.0">8</text>
  <path class="dim" d="M 0.0 10.0 l 0 55.0"/>
  <path class="dim" d="M 70.1 10.0 l 0 55.0"/>
  <path class="dim" d="M 0.0 60.0 l 70.1 0"/>
  <path class="dim" d="M 0.0 60.0 m -3.0 3.0 l 6.0 -6.0"/>
  <path class="dim" d="M 70.1 60.0 m -3.0 3.0 l 6.0 -6.0"/>
  <text y="60.0" x="35.1" class="dim" dy="-3.0">4.5</text>
  <path class="dim" d="M 250.9 10.0 l 0 55.0"/>
  <path class="dim" d="M 70.1 60.0 l 180.8 0"/>
  <path class="dim" d="M 250.9 60.0 m -3.0 3.0 l 6.0 -6.0"/>
  <text y="60.0" x="160.5" class="dim" dy="-3.0">11.6</text>
  <path class="dim" d="M 360.0 10.0 l 0 55.0"/>
  <path class="dim" d="M 250.9 60.0 l 109.1 0"/>
  <path class="dim" d="M 360.0 60.0 m -3.0 3.0 l 6.0 -6.0"/>
  <text y="60.0" x="305.5" class="dim" dy="-3.0">7</text>
  <text y="17.0" x="0.0" class="ptlabel" dx="1.0">a</text>
  <text y="17.0" x="70.1" class="ptlabel" dx="1.0">b</text>
  <text y="17.0" x="90.4" class="ptlabel" dx="1.0">c</text>
  <text y="17.0" x="104.4" class="ptlabel" dx="1.0">d</text>
  <text y="17.0" x="229.1" class="ptlabel" dx="1.0">e</text>
  <text y="17.0" x="250.9" class="ptlabel" dx="1.0">f</text>
  <text y="17.0" x="360.0" class="ptlabel" dx="1.0">g</text>
  <text y="-56.0" x="0" xml:space="preserve" class="notes">Units are m, kN;       Difficulty Level = 7</text>
  <g id="beam-guides" visibility="visible" transform="translate(0.0,0.0)">
    <path class="guides" d="M 0.0 66.0 L 0.0 474.0 M 70.1 66.0 L 70.1 474.0 M 90.4 66.0 L 90.4 474.0 M 104.4 66.0 L 104.4 474.0 M 229.1 66.0 L 229.1 474.0 M 250.9 66.0 L 250.9 474.0 M 360.0 66.0 L 360.0 474.0"/>
  </g>
  <g id="beam-fb-diagram" visibility="visible" transform="translate(0.0,144.0)">
    <title>Free Body Diagram</title>
    <path class="elem" d="M 0 0 l 360.0 0"/>
    <g transform="translate(0.0,0.0)">
      <title>UD Load 15 kN/m</title>
      <polygon points="0,0 0,-12.0 360.0,-12.0 360.0,0" class="dload"/>
      <path class="dload" d="M 0.0 -12.0 L 0.0 -1.0"/>
      <path class="dload" d="M 25.7 -12.0 L 25.7 -1.0"/>
      <path class="dload" d="M 51.4 -12.0 L 51.4 -1.0"/>
      <path class="dload" d="M 77.1 -12.0 L 77.1 -1.0"/>
      <path class="dload" d="M 102.9 -12.0 L 102.9 -1.0"/>
      <path class="dload" d="M 128.6 -12.0 L 128.6 -1.0"/>
      <path class="dload" d="M 154.3 -12.0 L 154.3 -1.0"/>
      <path class="dload" d="M 180.0 -12.0 L 180.0 -1.0"/>
      <path class="dload" d="M 205.7 -12.0 L 205.7 -1.0"/>
      <path class="dload" d="M 231.4 -12.0 L 231.4 -1.0"/>
      <path class="dload" d="M 257.1 -12.0 L 257.1 -1.0"/>
      <path class="dload" d="M 282.9 -12.0 L 282.9 -1.0"/>
      <path class="dload" d="M 308.6 -12.0 L 308.6 -1.0"/>
      <path class="dload" d="M 334.3 -12.0 L 334.3 -1.0"/>
      <path class="dload" d="M 360.0 -12.0 L 360.0 -1.0"/>
      <text style="text-anchor: middle;" dx="0.0" dy="-2.0" y="-12.0" x="180.0" class="dim">15</text>
    </g>
    <g transform="translate(90.4,-1.0)">
      <title>Point Load = 85 kN</title>
      <path class="cload" d="M 0 -29.9 l 0 26.9"/>
      <text y="-29.9" x="0" class="dim" dy="-3.0">85</text>
    </g>
    <g transform="translate(104.4,-1.0)">
      <title>Point Load = 50 kN</title>
      <path class="cload" d="M 0 -28.3 l 0 25.3"/>
      <text y="-28.3" x="0" class="dim" dy="-3.0">50</text>
    </g>
    <g transform="translate(0.0,-1.0)">
      <title>Point Load = 52.65 kN</title>
      <path class="cload" d="M 0 -28.4 l 0 25.4"/>
      <text y="-28.4" x="0" class="dim" dy="-3.0">52.65</text>
    </g>
    <g transform="translate(70.1,1.0)">
      <title>Point Load = -348.15 kN</title>
      <path class="cload" d="M 0 42.0 l 0 -39.0"/>
      <text y="42.0" x="0" class="dim" dy="8.0">348.1</text>
    </g>
    <g transform="translate(250.9,1.0)">
      <title>Point Load = -147.6 kN</title>
      <path class="cload" d="M 0 32.8 l 0 -29.8"/>
      <text y="32.8" x="0" class="dim" dy="8.0">147.6</text>
    </g>
    <g transform="translate(360.0,1.0)">
      <title>Point Load = -38.4 kN</title>
      <path class="cload" d="M 0 27.8 l 0 -24.8"/>
      <text y="27.8" x="0" class="dim" dy="8.0">38.4</text>
    </g>
    <text x="360.0" y="0" class="dwglabel" dx="18.0">FBD [m,kN]</text>
  </g>
  <g id="beam-shear-diagram" visibility="visible" transform="translate(0.0,216.0)">
    <g transform="translate(0.0,70.7)">
      <title>Shear Force Diagram</title>
      <path class="vdiag" d="M 0,0 L -0.0,-0.0 0.0,16.3 70.1,37.3 70.1,-70.7 90.4,-64.7 90.4,-38.3 104.4,-34.1 104.4,-18.6 229.1,18.6 250.9,25.1 250.9,-20.7 360.0,11.9 360.0,0.0 z"/>
      <circle cx="0.0" cy="16.3" r="1.5" stroke="none" fill="red"><title>-52.65 kN</title></circle>
      <text x="0.0" y="16.3" dx="-1.0" dy="7.0" class="vmlabel" text-anchor="end"><title>-52.65 kN</title>-52.65</text>
      <circle cx="70.1" cy="37.3" r="1.5" stroke="none" fill="red"><title>-120.1 kN</title></circle>
      <text x="70.1" y="37.3" dx="1.0" dy="7.0" class="vmlabel" text-anchor="start"><title>-120.1 kN</title>-120.1</text>
      <circle cx="70.1" cy="-70.7" r="1.5" stroke="none" fill="red"><title>228 kN</title></circle>
      <text x="70.1" y="-70.7" dx="1.0" dy="-1.0" class="vmlabel" text-anchor="start"><title>228 kN</title>228</text>
      <circle cx="90.4" cy="-64.7" r="1.5" stroke="none" fill="red"><title>208.5 kN</title></circle>
      <text x="90.4" y="-64.7" dx="1.0" dy="-1.0" class="vmlabel" text-anchor="start"><title>208.5 kN</title>208.5</text>
      <circle cx="90.4" cy="-38.3" r="1.5" stroke="none" fill="red"><title>123.5 kN</title></circle>
      <text x="90.4" y="-38.3" dx="1.0" dy="-1.0" class="vmlabel" text-anchor="start"><title>123.5 kN</title>123.5</text>
      <circle cx="104.4" cy="-34.1" r="1.5" stroke="none" fill="red"><title>110 kN</title></circle>
      <text x="104.4" y="-34.1" dx="1.0" dy="-1.0" class="vmlabel" text-anchor="start"><title>110 kN</title>110</text>
      <circle cx="104.4" cy="-18.6" r="1.5" stroke="none" fill="red"><title>60 kN</title></circle>
      <text x="104.4" y="-18.6" dx="1.0" dy="-1.0" class="vmlabel" text-anchor="start"><title>60 kN</title>60</text>
      <circle cx="229.1" cy="18.6" r="1.5" stroke="none" fill="red"><title>-60 kN</title></circle>
      <text x="229.1" y="18.6" dx="-1.0" dy="7.0" class="vmlabel" text-anchor="end"><title>-60 kN</title>-60</text>
      <circle cx="250.9" cy="25.1" r="1.5" stroke="none" fill="red"><title>-81 kN</title></circle>
      <text x="250.9" y="25.1" dx="1.0" dy="7.0" class="vmlabel" text-anchor="start"><title>-81 kN</title>-81</text>
      <circle cx="250.9" cy="-20.7" r="1.5" stroke="none" fill="red"><title>66.6 kN</title></circle>
      <text x="250.9" y="-20.7" dx="1.0" dy="-1.0" class="vmlabel" text-anchor="start"><title>66.6 kN</title>66.6</text>
      <circle cx="360.0" cy="11.9" r="1.5" stroke="none" fill="red"><title>-38.4 kN</title></circle>
      <text x="360.0" y="11.9" dx="1.0" dy="7.0" class="vmlabel" text-anchor="start"><title>-38.4 kN</title>-38.4</text>
      <text x="360.0" y="0" class="dwglabel" dx="18.0">V [kN]</text>
    </g>
    <g id="beam-zvguides" visibility="visible" transform="translate(0.0,0.0)">
      <path class="guides" d="M 166.8 72.7 L 166.8 258.0 M 320.1 72.7 L 320.1 258.0"/>
      <path class="guides" d="M 104.4 126.0 L 166.8 126.0"/>
      <path class="guides" d="M 104.4 126.0 m -3.0 3.0 l 6.0 -6.0"/>
      <path class="guides" d="M 166.8 126.0 m -3.0 3.0 l 6.0 -6.0"/>
      <text y="126.0" x="135.6" class="guides" dy="-3.0">4</text>
      <path class="guides" d="M 250.9 126.0 L 320.1 126.0"/>
      <path class="guides" d="M 250.9 126.0 m -3.0 3.0 l 6.0 -6.0"/>
      <path class="guides" d="M 320.1 126.0 m -3.0 3.0 l 6.0 -6.0"/>
      <text y="126.0" x="285.5" class="guides" dy="-3.0">4.44</text>
    </g>
  </g>
  <g id="beam-moment-diagram" visibility="visible" transform="translate(0.0,360.0)">
    <g transform="translate(0.0,25.5)">
      <title>Bending Moment Diagram</title>
      <path class="mdiag" d="M 0,0 L 0.0,0.0 1.8,1.3 3.6,2.7 5.4,4.1 7.2,5.5 9.0,7.0 10.8,8.5 12.6,10.1 14.4,11.7 16.2,13.3 18.0,15.0 19.8,16.7 21.6,18.5 23.4,20.3 25.2,22.2 27.0,24.1 28.8,26.1 30.6,28.0 32.4,30.1 34.2,32.2 36.0,34.3 37.8,36.4 39.6,38.6 41.4,40.9 43.2,43.2 45.0,45.5 46.8,47.9 48.6,50.3 50.3,52.7 52.1,55.2 53.9,57.8 55.7,60.3 57.5,63.0 59.3,65.6 61.1,68.3 62.9,71.1 64.7,73.9 66.5,76.7 68.3,79.6 70.1,82.5 72.0,76.8 73.8,71.2 75.7,65.6 77.5,60.0 79.3,54.5 81.2,49.0 83.0,43.6 84.9,38.2 86.7,32.9 88.5,27.6 90.4,22.3 92.1,19.4 93.9,16.5 95.6,13.6 97.4,10.8 99.2,8.1 100.9,5.3 102.7,2.6 104.4,0.0 106.2,-1.5 108.0,-2.9 109.8,-4.2 111.6,-5.6 113.5,-6.8 115.3,-8.1 117.1,-9.3 118.9,-10.4 120.7,-11.6 122.5,-12.6 124.3,-13.7 126.1,-14.6 127.9,-15.6 129.7,-16.5 131.5,-17.3 133.3,-18.1 135.1,-18.9 136.9,-19.6 138.7,-20.3 140.6,-21.0 142.4,-21.6 144.2,-22.1 146.0,-22.6 147.8,-23.1 149.6,-23.5 151.4,-23.9 153.2,-24.3 155.0,-24.6 156.8,-24.8 158.6,-25.0 160.4,-25.2 162.2,-25.3 164.0,-25.4 165.8,-25.5 166.8,-25.5 167.7,-25.5 169.5,-25.4 171.3,-25.3 173.1,-25.2 174.9,-25.0 176.7,-24.8 178.5,-24.6 180.3,-24.3 182.1,-23.9 183.9,-23.5 185.7,-23.1 187.5,-22.6 189.3,-22.1 191.1,-21.6 193.0,-21.0 194.8,-20.3 196.6,-19.6 198.4,-18.9 200.2,-18.1 202.0,-17.3 203.8,-16.5 205.6,-15.6 207.4,-14.6 209.2,-13.7 211.0,-12.6 212.8,-11.6 214.6,-10.4 216.4,-9.3 218.2,-8.1 220.1,-6.8 221.9,-5.6 223.7,-4.2 225.5,-2.9 227.3,-1.5 229.1,0.0 230.9,1.5 232.7,3.1 234.5,4.7 236.4,6.3 238.2,8.0 240.0,9.7 241.8,11.5 243.6,13.3 245.5,15.1 247.3,17.0 249.1,19.0 250.9,21.0 252.7,19.3 254.5,17.8 256.3,16.3 258.1,14.8 259.9,13.4 261.6,12.0 263.4,10.6 265.2,9.3 267.0,8.0 268.8,6.8 270.6,5.6 272.4,4.5 274.2,3.4 275.9,2.3 277.7,1.3 279.5,0.4 281.3,-0.6 283.1,-1.5 284.9,-2.3 286.7,-3.1 288.5,-3.9 290.3,-4.6 292.0,-5.3 293.8,-5.9 295.6,-6.5 297.4,-7.1 299.2,-7.6 301.0,-8.0 302.8,-8.5 304.6,-8.8 306.3,-9.2 308.1,-9.5 309.9,-9.8 311.7,-10.0 313.5,-10.1 315.3,-10.3 317.1,-10.4 318.9,-10.4 320.1,-10.4 320.7,-10.4 322.4,-10.4 324.2,-10.3 326.0,-10.2 327.8,-10.0 329.6,-9.8 331.4,-9.6 333.2,-9.3 335.0,-9.0 336.8,-8.6 338.5,-8.2 340.3,-7.8 342.1,-7.3 343.9,-6.7 345.7,-6.1 347.5,-5.5 349.3,-4.9 351.1,-4.2 352.8,-3.4 354.6,-2.6 356.4,-1.8 358.2,-0.9 360.0,0.0 z"/>
      <circle cx="70.1" cy="82.5" r="1.5" stroke="none" fill="red"><title>-388.8 kN-m</title></circle>
      <text x="70.1" y="82.5" dx="1.0" dy="7.0" class="vmlabel" text-anchor="start"><title>-388.8 kN-m</title>-388.8</text>
      <circle cx="90.4" cy="22.3" r="1.5" stroke="none" fill="red"><title>-105.1 kN-m</title></circle>
      <text x="90.4" y="22.3" dx="1.0" dy="7.0" class="vmlabel" text-anchor="start"><title>-105.1 kN-m</title>-105.1</text>
      <circle cx="166.8" cy="-25.5" r="1.5" stroke="none" fill="red"><title>120 kN-m</title></circle>
      <text x="166.8" y="-25.5" dx="1.0" dy="-1.0" class="vmlabel" text-anchor="start"><title>120 kN-m</title>120</text>
      <circle cx="250.9" cy="21.0" r="1.5" stroke="none" fill="red"><title>-98.7 kN-m</title></circle>
      <text x="250.9" y="21.0" dx="1.0" dy="7.0" class="vmlabel" text-anchor="start"><title>-98.7 kN-m</title>-98.7</text>
      <circle cx="320.1" cy="-10.4" r="1.5" stroke="none" fill="red"><title>49.15 kN-m</title></circle>
      <text x="320.1" y="-10.4" dx="1.0" dy="-1.0" class="vmlabel" text-anchor="start"><title>49.15 kN-m</title>49.15</text>
      <text x="360.0" y="0" class="dwglabel" dx="18.0">M [kN-m]</text>
    </g>
  </g>
</g>

</svg>
