<?xml version="1.0" standalone="yes"?>
<!DOCTYPE svg PUBLIC "-//W3C//DTD SVG 1.1//EN" 
  "http://www.w3.org/Graphics/SVG/1.1/DTD/svg11.dtd">
<svg xmlns="http://www.w3.org/2000/svg"
     xmlns:xlink="http://www.w3.org/1999/xlink"
     version="1.1"
     width="8.5in" 
     height="11.0in" 
     viewBox="0 0 612 792">
  <defs>
    <style type="text/css"><![CDATA[
    .elem {
	stroke-width: 2.0;
	stroke: black;
	}
    path.dim {
       stroke-width: 0.5;
       stroke: black;
       }
    path.guides {
       stroke-width: 0.5;
       stroke: grey;
       }
    text.dwglabel {
       font-family: Verdana, Arial;
       font-size: 10px;
       font-weight: bold;
       fill: black;
       text-align: center;
       text-anchor: start;
       }
    text.dim {
       font-family: Verdana, Arial;
       font-size: 8px;
       font-weight: bold;
       fill: black;
       text-align: center;
       text-anchor: middle;
       }
    text.guides {
       font-family: Verdana, Arial;
       font-size: 8px;
       font-weight: normal;
       font-style: italic;
       fill: black;
       text-align: center;
       text-anchor: middle;
       }
    text.vmlabel {
       font-family: Verdana, Arial;
       font-size: 8px;
       font-style: italic;
       fill: black;
       }
    text.notes {
       font-family: Verdana, Arial;
       font-size: 9px;
       font-weight: normal;
       font-style: italic;
       fill: black;
       text-align: center;
       text-anchor: left;
       }
    text.ptlabel {
       font-family: Verdana, Arial;
       font-size: 7px;
       font-style: italic;
       fill: black;
       text-align: center;
       text-anchor: start;
       }
     path.cload {
       fill: none;
       stroke-width: 1;
       stroke: black; 
       marker-end: url(#CLArrowEnd);
     }
      path.mload {
       fill: none;
       stroke-width: 1;
       stroke: black; 
       marker-end: url(#MLArrowEnd);
     }
      path.mloadInkscape {
       fill: none;
       stroke-width: 1;
       stroke: black; 
       marker-end: url(#MLArrowStart);
     }
     polygon.dload {
       fill: rgb(240,240,240);
       opacity: 0.5; /* if < 1, REALLY slows down printing of the pdfs */
       stroke-width: 1;
       stroke: black; 
     }
     path.dload {
       fill: none;
       stroke-width: 1;
       stroke: black; 
       marker-end: url(#DLArrowEnd);
     }
     path.dloadna {
       fill: none;
       stroke-width: 1;
       stroke: black; 
     }
     path.vdiag {
       fill: url(#crosshatch45);
       stroke-width: 1;
       stroke: black; 
     }
     path.mdiag {
       fill: url(#crosshatch45);
       stroke-width: 1;
       stroke: black; 
     }

    ]]></style>
    <g id="PinnedSupport" transform="translate(0,1.0)">
      <path d="M 0 0 l 4 6 l -8 0 z" 
	    stroke="black" stroke-width="0" fill="black" opacity="1.0" />
      <path d="M -6 6 l 12 0" 
	    stroke="black" stroke-width="1" fill="none" />
      <path d="M 6 6 l -3 3 m 0 -3 l -3 3 m 0 -3 l -3 3 m 0 -3 l -3 3 m 0 -3 l -3 3"
	    stroke="black" stroke-width="1" fill="none" />
    </g>
    <g id="RollerSupport" transform="translate(0,1.0)">
      <circle cx="0" cy="3" r="3"
	    stroke="black" stroke-width="0" fill="black" opacity="1.0" />
      <path d="M -6 6 l 12 0" 
	    stroke="black" stroke-width="1" fill="none" />
      <path d="M 6 6 l -3 3 m 0 -3 l -3 3 m 0 -3 l -3 3 m 0 -3 l -3 3 m 0 -3 l -3 3"
	    stroke="black" stroke-width="1" fill="none" />
    </g>
    <g id="LFixedSupport" transform="translate(-0.5,0)">
      <path d="M 0 -6 l 0 12"
	    stroke="black" stroke-width="1" fill="none" />
      <path d="M 0 -6 l -3 3 m 3 0 l -3 3 m 3 0 l -3 3 m 3 0 l -3 3 m 3 0 l -3 3"
	    stroke="black" stroke-width="1" fill="none" />
    </g>
    <g id="RFixedSupport">
      <use xlink:href="#LFixedSupport" transform="scale(-1,1)"/>
    </g>
    <g id="Hinge">
      <circle cx="0" cy="0" r="2.5"
	      stroke="black" stroke-width="1" fill="white"/>
    </g>
    <g id="ShearRelease">
      <rect x="-3" y="-6" width="6" height="12"
	    stroke="none" fill="white"/>
      <circle cx="0" cy="-6" r="2" stroke="black" strokewidth="0.5" fill="white"/>
      <circle cx="0" cy="0" r="2" stroke="black" strokewidth="0.5" fill="white"/>
      <circle cx="0" cy="6" r="2" stroke="black" strokewidth="0.5" fill="white"/>
      <path d="M -3 -9 l 0 18 M 3 -9 l 0 18" stroke="black" stroke-width="1"/>
    </g>
    <marker id="DLArrowStart"
	    markerUnits="userSpaceOnUse"
	    markerWidth="8"
	    markerHeight="4"
	    orient="auto"
	    viewBox="0 0 8 4"
	    refX="0"
	    refY="2">
      <path d="M 0 2 l 8 -2 l 0 4 z"/>
    </marker>
    <marker id="DLArrowEnd"
	    markerUnits="userSpaceOnUse"
	    markerWidth="8"
	    markerHeight="4"
	    orient="auto"
	    viewBox="0 0 8 4"
	    refX="8"
	    refY="2">
      <path d="M 0 0 l 8 2 l -8 2 z"/>
    </marker>
    <marker id="CLArrowStart"
	    markerUnits="userSpaceOnUse"
	    markerWidth="10.0"
	    markerHeight="6"
	    orient="auto"
	    viewBox="0 0 10 6"
	    refX="3.0"
	    refY="3">
      <path d="M 0 3 l 10 -3 l -2 3 l 2 3 z"/>
    </marker>
    <marker id="CLArrowEnd"
	    markerUnits="userSpaceOnUse"
	    markerWidth="10.0"
	    markerHeight="6"
	    orient="auto"
	    viewBox="0 0 10 6"
	    refX="7.0"
	    refY="3">
      <path d="M 0 0 l 10 3 l -10 3 l 2 -3 z"/>
    </marker>
    <marker id="MLArrowStart"
	    markerUnits="userSpaceOnUse"
	    markerWidth="10.0"
	    markerHeight="6"
	    orient="auto"
	    viewBox="0 0 10 6"
	    refX="8"
	    refY="3">
      <path d="M 10 0 l -10 3 l 10 3 l -2 -3 z"/>
    </marker>
    <marker id="MLArrowEnd"
	    markerUnits="userSpaceOnUse"
	    markerWidth="10.0"
	    markerHeight="6"
	    orient="auto"
	    viewBox="0 0 10 6"
	    refX="2"
	    refY="3">
      <path d="M 0 0 l 10 3 l -10 3 l 2 -3 z"/>
    </marker>
    <pattern id="crosshatch45" patternUnits="userSpaceOnUse"
             x="0" y="0" width="10" height="10"
	     viewBox="0 0 10 10">
       <path d="M 0 0 L 10 10" fill="none" stroke="grey" stroke-width="0.2"/>
    </pattern>


  </defs>

<g transform="translate(72.0,122.0)">
  <title>Beam! Length = 29.1</title>
  <path class="elem" d="M 0 0 l 360.0 0"/>
  <g transform="translate(0.0,0.0)">
    <title>LD Load 22 - 30 kN/m</title>
    <polygon points="0,0 0,-18.0 240.0,-24.0 240.0,0" class="dload"/>
    <path class="dload" d="M 0.0 -18.0 L 0.0 -1.0"/>
    <path class="dload" d="M 24.0 -18.6 L 24.0 -1.0"/>
    <path class="dload" d="M 48.0 -19.2 L 48.0 -1.0"/>
    <path class="dload" d="M 72.0 -19.8 L 72.0 -1.0"/>
    <path class="dload" d="M 96.0 -20.4 L 96.0 -1.0"/>
    <path class="dload" d="M 120.0 -21.0 L 120.0 -1.0"/>
    <path class="dload" d="M 144.0 -21.6 L 144.0 -1.0"/>
    <path class="dload" d="M 168.0 -22.2 L 168.0 -1.0"/>
    <path class="dload" d="M 192.0 -22.8 L 192.0 -1.0"/>
    <path class="dload" d="M 216.0 -23.4 L 216.0 -1.0"/>
    <path class="dload" d="M 240.0 -24.0 L 240.0 -1.0"/>
    <text style="text-anchor: end;" dx="0.0" dy="-2.0" y="-18.0" x="0.0" class="dim">22</text>
    <text style="text-anchor: start;" dx="0.0" dy="-2.0" y="-24.0" x="240.0" class="dim">30</text>
  </g>
  <g transform="translate(240.0,0.0)">
    <title>UD Load 14 kN/m</title>
    <polygon points="0,0 0,-12.0 102.7,-12.0 102.7,0" class="dload"/>
    <path class="dload" d="M 0.0 -12.0 L 0.0 -1.0"/>
    <path class="dload" d="M 25.7 -12.0 L 25.7 -1.0"/>
    <path class="dload" d="M 51.3 -12.0 L 51.3 -1.0"/>
    <path class="dload" d="M 77.0 -12.0 L 77.0 -1.0"/>
    <path class="dload" d="M 102.7 -12.0 L 102.7 -1.0"/>
    <text style="text-anchor: middle;" dx="0.0" dy="-2.0" y="-12.0" x="51.3" class="dim">14</text>
  </g>
  <g transform="translate(360.0,-1.0)">
    <title>Point Load = 50 kN</title>
    <path class="cload" d="M 0 -26.0 l 0 23.0"/>
    <text y="-26.0" x="0" class="dim" dy="-3.0">50</text>
  </g>
  <g transform="translate(240.0,-1.0)">
    <title>Point Load = 80 kN</title>
    <path class="cload" d="M 0 -38.0 l 0 35.0"/>
    <text y="-38.0" x="0" class="dim" dy="-3.0">80</text>
  </g>
  <g transform="translate(128.7,-1.0)">
    <title>Point Load = 90 kN</title>
    <path class="cload" d="M 0 -42.0 l 0 39.0"/>
    <text y="-42.0" x="0" class="dim" dy="-3.0">90</text>
  </g>
  <g transform="translate(292.0,-1.0)">
    <title>Point Load = 55 kN</title>
    <path class="cload" d="M 0 -28.0 l 0 25.0"/>
    <text y="-28.0" x="0" class="dim" dy="-3.0">55</text>
  </g>
  <use y="0" x="0.0" xlink:href="#RollerSupport"/>
  <use y="0" x="99.0" xlink:href="#RollerSupport"/>
  <use y="0" x="128.7" xlink:href="#Hinge"/>
  <use y="0" x="240.0" xlink:href="#Hinge"/>
  <use y="0" x="262.3" xlink:href="#RollerSupport"/>
  <use y="0" x="342.7" xlink:href="#PinnedSupport"/>
  <path class="dim" d="M 292.0 10.0 l 0 25.0"/>
  <path class="dim" d="M 262.3 30.0 l 29.7 0"/>
  <path class="dim" d="M 262.3 30.0 m -3.0 3.0 l 6.0 -6.0"/>
  <path class="dim" d="M 292.0 30.0 m -3.0 3.0 l 6.0 -6.0"/>
  <text y="30.0" x="277.1" class="dim" dy="-3.0">2.4</text>
  <path class="dim" d="M 128.7 10.0 l 0 40.0"/>
  <path class="dim" d="M 99.0 45.0 l 29.7 0"/>
  <path class="dim" d="M 99.0 45.0 m -3.0 3.0 l 6.0 -6.0"/>
  <path class="dim" d="M 128.7 45.0 m -3.0 3.0 l 6.0 -6.0"/>
  <text y="45.0" x="113.8" class="dim" dy="-3.0">2.4</text>
  <path class="dim" d="M 240.0 10.0 l 0 40.0"/>
  <path class="dim" d="M 128.7 45.0 l 111.3 0"/>
  <path class="dim" d="M 128.7 45.0 m -3.0 3.0 l 6.0 -6.0"/>
  <path class="dim" d="M 240.0 45.0 m -3.0 3.0 l 6.0 -6.0"/>
  <text y="45.0" x="184.3" class="dim" dy="-3.0">9</text>
  <path class="dim" d="M 0.0 10.0 l 0 55.0"/>
  <path class="dim" d="M 99.0 10.0 l 0 55.0"/>
  <path class="dim" d="M 0.0 60.0 l 99.0 0"/>
  <path class="dim" d="M 0.0 60.0 m -3.0 3.0 l 6.0 -6.0"/>
  <path class="dim" d="M 99.0 60.0 m -3.0 3.0 l 6.0 -6.0"/>
  <text y="60.0" x="49.5" class="dim" dy="-3.0">8</text>
  <path class="dim" d="M 262.3 10.0 l 0 55.0"/>
  <path class="dim" d="M 99.0 60.0 l 163.3 0"/>
  <path class="dim" d="M 262.3 60.0 m -3.0 3.0 l 6.0 -6.0"/>
  <text y="60.0" x="180.6" class="dim" dy="-3.0">13.2</text>
  <path class="dim" d="M 342.7 10.0 l 0 55.0"/>
  <path class="dim" d="M 262.3 60.0 l 80.4 0"/>
  <path class="dim" d="M 342.7 60.0 m -3.0 3.0 l 6.0 -6.0"/>
  <text y="60.0" x="302.5" class="dim" dy="-3.0">6.5</text>
  <path class="dim" d="M 360.0 10.0 l 0 55.0"/>
  <path class="dim" d="M 342.7 60.0 l 17.3 0"/>
  <path class="dim" d="M 360.0 60.0 m -3.0 3.0 l 6.0 -6.0"/>
  <text y="60.0" x="351.3" class="dim" dy="-3.0">1.4</text>
  <text y="17.0" x="0.0" class="ptlabel" dx="1.0">a</text>
  <text y="17.0" x="99.0" class="ptlabel" dx="1.0">b</text>
  <text y="17.0" x="128.7" class="ptlabel" dx="1.0">c</text>
  <text y="17.0" x="240.0" class="ptlabel" dx="1.0">d</text>
  <text y="17.0" x="262.3" class="ptlabel" dx="1.0">e</text>
  <text y="17.0" x="292.0" class="ptlabel" dx="1.0">f</text>
  <text y="17.0" x="342.7" class="ptlabel" dx="1.0">g</text>
  <text y="17.0" x="360.0" class="ptlabel" dx="1.0">h</text>
  <text y="-56.0" x="0" xml:space="preserve" class="notes">Units are m, kN;       Difficulty Level = 9</text>
  <g id="beam-guides" visibility="visible" transform="translate(0.0,0.0)">
    <path class="guides" d="M 0.0 66.0 L 0.0 474.0 M 99.0 66.0 L 99.0 474.0 M 128.7 66.0 L 128.7 474.0 M 240.0 66.0 L 240.0 474.0 M 262.3 66.0 L 262.3 474.0 M 292.0 66.0 L 292.0 474.0 M 342.7 66.0 L 342.7 474.0 M 360.0 66.0 L 360.0 474.0"/>
  </g>
  <g id="beam-fb-diagram" visibility="visible" transform="translate(0.0,144.0)">
    <title>Free Body Diagram</title>
    <path class="elem" d="M 0 0 l 360.0 0"/>
    <g transform="translate(0.0,0.0)">
      <title>LD Load 22 - 30 kN/m</title>
      <polygon points="0,0 0,-18.0 240.0,-24.0 240.0,0" class="dload"/>
      <path class="dload" d="M 0.0 -18.0 L 0.0 -1.0"/>
      <path class="dload" d="M 24.0 -18.6 L 24.0 -1.0"/>
      <path class="dload" d="M 48.0 -19.2 L 48.0 -1.0"/>
      <path class="dload" d="M 72.0 -19.8 L 72.0 -1.0"/>
      <path class="dload" d="M 96.0 -20.4 L 96.0 -1.0"/>
      <path class="dload" d="M 120.0 -21.0 L 120.0 -1.0"/>
      <path class="dload" d="M 144.0 -21.6 L 144.0 -1.0"/>
      <path class="dload" d="M 168.0 -22.2 L 168.0 -1.0"/>
      <path class="dload" d="M 192.0 -22.8 L 192.0 -1.0"/>
      <path class="dload" d="M 216.0 -23.4 L 216.0 -1.0"/>
      <path class="dload" d="M 240.0 -24.0 L 240.0 -1.0"/>
      <text style="text-anchor: end;" dx="0.0" dy="-2.0" y="-18.0" x="0.0" class="dim">22</text>
      <text style="text-anchor: start;" dx="0.0" dy="-2.0" y="-24.0" x="240.0" class="dim">30</text>
    </g>
    <g transform="translate(240.0,0.0)">
      <title>UD Load 14 kN/m</title>
      <polygon points="0,0 0,-12.0 102.7,-12.0 102.7,0" class="dload"/>
      <path class="dload" d="M 0.0 -12.0 L 0.0 -1.0"/>
      <path class="dload" d="M 25.7 -12.0 L 25.7 -1.0"/>
      <path class="dload" d="M 51.3 -12.0 L 51.3 -1.0"/>
      <path class="dload" d="M 77.0 -12.0 L 77.0 -1.0"/>
      <path class="dload" d="M 102.7 -12.0 L 102.7 -1.0"/>
      <text style="text-anchor: middle;" dx="0.0" dy="-2.0" y="-12.0" x="51.3" class="dim">14</text>
    </g>
    <g transform="translate(360.0,-1.0)">
      <title>Point Load = 50 kN</title>
      <path class="cload" d="M 0 -27.8 l 0 24.8"/>
      <text y="-27.8" x="0" class="dim" dy="-3.0">50</text>
    </g>
    <g transform="translate(240.0,-1.0)">
      <title>Point Load = 80 kN</title>
      <path class="cload" d="M 0 -28.9 l 0 25.9"/>
      <text y="-28.9" x="0" class="dim" dy="-3.0">80</text>
    </g>
    <g transform="translate(128.7,-1.0)">
      <title>Point Load = 90 kN</title>
      <path class="cload" d="M 0 -29.2 l 0 26.2"/>
      <text y="-29.2" x="0" class="dim" dy="-3.0">90</text>
    </g>
    <g transform="translate(292.0,-1.0)">
      <title>Point Load = 55 kN</title>
      <path class="cload" d="M 0 -28.0 l 0 25.0"/>
      <text y="-28.0" x="0" class="dim" dy="-3.0">55</text>
    </g>
    <g transform="translate(0.0,1.0)">
      <title>Point Load = -18.8937 kN</title>
      <path class="cload" d="M 0 26.7 l 0 -23.7"/>
      <text y="26.7" x="0" class="dim" dy="8.0">18.89</text>
    </g>
    <g transform="translate(99.0,1.0)">
      <title>Point Load = -446.073 kN</title>
      <path class="cload" d="M 0 42.0 l 0 -39.0"/>
      <text y="42.0" x="0" class="dim" dy="8.0">446.1</text>
    </g>
    <g transform="translate(262.3,1.0)">
      <title>Point Load = -365.542 kN</title>
      <path class="cload" d="M 0 39.1 l 0 -36.1"/>
      <text y="39.1" x="0" class="dim" dy="8.0">365.5</text>
    </g>
    <g transform="translate(342.7,1.0)">
      <title>Point Load = -65.0909 kN</title>
      <path class="cload" d="M 0 28.3 l 0 -25.3"/>
      <text y="28.3" x="0" class="dim" dy="8.0">65.09</text>
    </g>
    <text x="360.0" y="0" class="dwglabel" dx="18.0">FBD [m,kN]</text>
  </g>
  <g id="beam-shear-diagram" visibility="visible" transform="translate(0.0,216.0)">
    <g transform="translate(0.0,58.4)">
      <title>Shear Force Diagram</title>
      <path class="vdiag" d="M 0,0 L -0.0,-0.0 0.0,-4.0 1.8,-3.3 3.6,-2.6 5.4,-2.0 7.2,-1.3 9.0,-0.6 10.8,0.1 12.6,0.8 14.4,1.5 16.2,2.2 18.0,2.9 19.8,3.6 21.6,4.3 23.4,5.0 25.2,5.7 27.0,6.4 28.8,7.1 30.6,7.8 32.4,8.5 34.2,9.2 36.0,9.9 37.8,10.6 39.6,11.3 41.4,12.1 43.2,12.8 45.0,13.5 46.8,14.2 48.6,15.0 50.4,15.7 52.2,16.4 54.0,17.1 55.8,17.9 57.6,18.6 59.4,19.4 61.2,20.1 63.0,20.8 64.8,21.6 66.6,22.3 68.4,23.1 70.2,23.8 72.0,24.6 73.8,25.3 75.6,26.1 77.4,26.8 79.2,27.6 81.0,28.3 82.8,29.1 84.6,29.9 86.4,30.6 88.2,31.4 90.0,32.2 91.8,32.9 93.6,33.7 95.4,34.5 97.2,35.3 99.0,36.0 99.0,-58.4 100.8,-57.5 102.7,-56.7 104.5,-55.9 106.4,-55.1 108.2,-54.3 110.1,-53.5 112.0,-52.7 113.8,-51.9 115.7,-51.0 117.5,-50.2 119.4,-49.4 121.2,-48.6 123.1,-47.7 124.9,-46.9 126.8,-46.1 128.7,-45.3 128.7,-26.2 130.5,-25.4 132.3,-24.6 134.0,-23.8 135.8,-23.0 137.6,-22.1 139.4,-21.3 141.2,-20.5 143.0,-19.7 144.8,-18.9 146.6,-18.0 148.4,-17.2 150.2,-16.4 152.0,-15.6 153.8,-14.7 155.6,-13.9 157.4,-13.1 159.2,-12.2 161.0,-11.4 162.8,-10.5 164.6,-9.7 166.4,-8.8 168.2,-8.0 170.0,-7.2 171.8,-6.3 173.6,-5.4 175.4,-4.6 177.1,-3.7 178.9,-2.9 180.7,-2.0 182.5,-1.2 184.3,-0.3 186.1,0.6 187.9,1.4 189.7,2.3 191.5,3.2 193.3,4.1 195.1,4.9 196.9,5.8 198.7,6.7 200.5,7.6 202.3,8.4 204.1,9.3 205.9,10.2 207.7,11.1 209.5,12.0 211.3,12.9 213.1,13.8 214.9,14.7 216.7,15.6 218.5,16.5 220.2,17.4 222.0,18.3 223.8,19.2 225.6,20.1 227.4,21.0 229.2,21.9 231.0,22.8 232.8,23.7 234.6,24.6 236.4,25.5 238.2,26.5 240.0,27.4 240.0,44.3 262.3,49.6 262.3,-27.7 292.0,-20.6 292.0,-9.0 342.7,3.2 342.7,-10.6 360.0,-10.6 360.0,-0.0 z"/>
      <circle cx="0.0" cy="-4.0" r="1.5" stroke="none" fill="red"><title>18.89 kN</title></circle>
      <text x="0.0" y="-4.0" dx="1.0" dy="-1.0" class="vmlabel" text-anchor="start"><title>18.89 kN</title>18.89</text>
      <circle cx="99.0" cy="36.0" r="1.5" stroke="none" fill="red"><title>-170.3 kN</title></circle>
      <text x="99.0" y="36.0" dx="1.0" dy="7.0" class="vmlabel" text-anchor="start"><title>-170.3 kN</title>-170.3</text>
      <circle cx="99.0" cy="-58.4" r="1.5" stroke="none" fill="red"><title>275.8 kN</title></circle>
      <text x="99.0" y="-58.4" dx="1.0" dy="-1.0" class="vmlabel" text-anchor="start"><title>275.8 kN</title>275.8</text>
      <circle cx="128.7" cy="-45.3" r="1.5" stroke="none" fill="red"><title>213.9 kN</title></circle>
      <text x="128.7" y="-45.3" dx="1.0" dy="-1.0" class="vmlabel" text-anchor="start"><title>213.9 kN</title>213.9</text>
      <circle cx="128.7" cy="-26.2" r="1.5" stroke="none" fill="red"><title>123.9 kN</title></circle>
      <text x="128.7" y="-26.2" dx="1.0" dy="-1.0" class="vmlabel" text-anchor="start"><title>123.9 kN</title>123.9</text>
      <circle cx="240.0" cy="27.4" r="1.5" stroke="none" fill="red"><title>-129.4 kN</title></circle>
      <text x="240.0" y="27.4" dx="-1.0" dy="7.0" class="vmlabel" text-anchor="end"><title>-129.4 kN</title>-129.4</text>
      <circle cx="240.0" cy="44.3" r="1.5" stroke="none" fill="red"><title>-209.4 kN</title></circle>
      <text x="240.0" y="44.3" dx="-1.0" dy="7.0" class="vmlabel" text-anchor="end"><title>-209.4 kN</title>-209.4</text>
      <circle cx="262.3" cy="49.6" r="1.5" stroke="none" fill="red"><title>-234.6 kN</title></circle>
      <text x="262.3" y="49.6" dx="1.0" dy="7.0" class="vmlabel" text-anchor="start"><title>-234.6 kN</title>-234.6</text>
      <circle cx="262.3" cy="-27.7" r="1.5" stroke="none" fill="red"><title>130.9 kN</title></circle>
      <text x="262.3" y="-27.7" dx="1.0" dy="-1.0" class="vmlabel" text-anchor="start"><title>130.9 kN</title>130.9</text>
      <circle cx="292.0" cy="-20.6" r="1.5" stroke="none" fill="red"><title>97.31 kN</title></circle>
      <text x="292.0" y="-20.6" dx="1.0" dy="-1.0" class="vmlabel" text-anchor="start"><title>97.31 kN</title>97.31</text>
      <circle cx="292.0" cy="-9.0" r="1.5" stroke="none" fill="red"><title>42.31 kN</title></circle>
      <text x="292.0" y="-9.0" dx="1.0" dy="-1.0" class="vmlabel" text-anchor="start"><title>42.31 kN</title>42.31</text>
      <circle cx="342.7" cy="3.2" r="1.5" stroke="none" fill="red"><title>-15.09 kN</title></circle>
      <text x="342.7" y="3.2" dx="1.0" dy="7.0" class="vmlabel" text-anchor="start"><title>-15.09 kN</title>-15.09</text>
      <circle cx="342.7" cy="-10.6" r="1.5" stroke="none" fill="red"><title>50 kN</title></circle>
      <text x="342.7" y="-10.6" dx="1.0" dy="-1.0" class="vmlabel" text-anchor="start"><title>50 kN</title>50</text>
      <circle cx="360.0" cy="-10.6" r="1.5" stroke="none" fill="red"><title>50 kN</title></circle>
      <text x="360.0" y="-10.6" dx="1.0" dy="-1.0" class="vmlabel" text-anchor="start"><title>50 kN</title>50</text>
      <text x="360.0" y="0" class="dwglabel" dx="18.0">V [kN]</text>
    </g>
    <g id="beam-zvguides" visibility="visible" transform="translate(0.0,0.0)">
      <path class="guides" d="M 10.5 60.4 L 10.5 258.0 M 184.9 60.4 L 184.9 258.0 M 329.3 60.4 L 329.3 258.0"/>
      <path class="guides" d="M 0.0 126.0 L 10.5 126.0"/>
      <path class="guides" d="M 0.0 126.0 m -3.0 3.0 l 6.0 -6.0"/>
      <path class="guides" d="M 10.5 126.0 m -3.0 3.0 l 6.0 -6.0"/>
      <text y="126.0" x="5.3" class="guides" dy="-3.0">0.852</text>
      <path class="guides" d="M 128.7 126.0 L 184.9 126.0"/>
      <path class="guides" d="M 128.7 126.0 m -3.0 3.0 l 6.0 -6.0"/>
      <path class="guides" d="M 184.9 126.0 m -3.0 3.0 l 6.0 -6.0"/>
      <text y="126.0" x="156.8" class="guides" dy="-3.0">4.55</text>
      <path class="guides" d="M 292.0 126.0 L 329.3 126.0"/>
      <path class="guides" d="M 292.0 126.0 m -3.0 3.0 l 6.0 -6.0"/>
      <path class="guides" d="M 329.3 126.0 m -3.0 3.0 l 6.0 -6.0"/>
      <text y="126.0" x="310.7" class="guides" dy="-3.0">3.02</text>
    </g>
  </g>
  <g id="beam-moment-diagram" visibility="visible" transform="translate(0.0,360.0)">
    <g transform="translate(0.0,35.3)">
      <title>Bending Moment Diagram</title>
      <path class="mdiag" d="M 0,0 L 0.0,0.0 1.8,-0.3 3.6,-0.6 5.4,-0.8 7.2,-0.9 9.0,-1.0 10.5,-1.0 10.8,-1.0 12.6,-1.0 14.4,-0.9 16.2,-0.7 18.0,-0.5 19.8,-0.2 21.6,0.1 23.4,0.5 25.2,1.0 27.0,1.5 28.8,2.0 30.6,2.7 32.4,3.4 34.2,4.1 36.0,4.9 37.8,5.8 39.6,6.7 41.4,7.7 43.2,8.8 45.0,9.9 46.8,11.1 48.6,12.3 50.4,13.6 52.2,15.0 54.0,16.4 55.8,17.9 57.6,19.5 59.4,21.1 61.2,22.8 63.0,24.5 64.8,26.3 66.6,28.2 68.4,30.1 70.2,32.1 72.0,34.1 73.8,36.3 75.6,38.4 77.4,40.7 79.2,43.0 81.0,45.4 82.8,47.8 84.6,50.3 86.4,52.9 88.2,55.5 90.0,58.2 91.8,61.0 93.6,63.8 95.4,66.7 97.2,69.7 99.0,72.7 100.8,67.7 102.7,62.7 104.5,57.7 106.4,52.8 108.2,48.0 110.1,43.3 112.0,38.7 113.8,34.1 115.7,29.6 117.5,25.1 119.4,20.8 121.2,16.5 123.1,12.2 124.9,8.1 126.8,4.0 128.7,0.0 130.5,-2.2 132.3,-4.3 134.0,-6.4 135.8,-8.3 137.6,-10.3 139.4,-12.1 141.2,-13.9 143.0,-15.6 144.8,-17.2 146.6,-18.8 148.4,-20.3 150.2,-21.7 152.0,-23.1 153.8,-24.4 155.6,-25.6 157.4,-26.7 159.2,-27.8 161.0,-28.8 162.8,-29.7 164.6,-30.6 166.4,-31.4 168.2,-32.1 170.0,-32.7 171.8,-33.3 173.6,-33.8 175.4,-34.2 177.1,-34.6 178.9,-34.8 180.7,-35.1 182.5,-35.2 184.3,-35.3 184.9,-35.3 186.1,-35.2 187.9,-35.2 189.7,-35.0 191.5,-34.8 193.3,-34.5 195.1,-34.1 196.9,-33.6 198.7,-33.1 200.5,-32.5 202.3,-31.8 204.1,-31.1 205.9,-30.2 207.7,-29.3 209.5,-28.3 211.3,-27.3 213.1,-26.2 214.9,-24.9 216.7,-23.7 218.5,-22.3 220.2,-20.9 222.0,-19.4 223.8,-17.8 225.6,-16.1 227.4,-14.4 229.2,-12.5 231.0,-10.6 232.8,-8.7 234.6,-6.6 236.4,-4.5 238.2,-2.3 240.0,-0.0 241.9,3.9 243.7,7.9 245.6,11.8 247.4,15.9 249.3,19.9 251.1,24.0 253.0,28.2 254.8,32.3 256.7,36.6 258.6,40.8 260.4,45.1 262.3,49.4 264.1,47.0 266.0,44.7 267.8,42.3 269.7,40.0 271.5,37.8 273.4,35.6 275.3,33.4 277.1,31.3 279.0,29.2 280.8,27.1 282.7,25.1 284.5,23.1 286.4,21.2 288.2,19.3 290.1,17.4 292.0,15.6 293.8,14.8 295.6,14.1 297.4,13.4 299.2,12.8 301.0,12.2 302.8,11.6 304.6,11.1 306.5,10.6 308.3,10.2 310.1,9.8 311.9,9.4 313.7,9.0 315.5,8.7 317.3,8.5 319.1,8.2 320.9,8.1 322.8,7.9 324.6,7.8 326.4,7.7 328.2,7.7 329.3,7.7 330.0,7.7 331.8,7.7 333.6,7.8 335.4,7.9 337.2,8.0 339.1,8.2 340.9,8.4 342.7,8.7 360.0,-0.0 z"/>
      <circle cx="10.5" cy="-1.0" r="1.5" stroke="none" fill="red"><title>8.07 kN-m</title></circle>
      <text x="10.5" y="-1.0" dx="1.0" dy="-1.0" class="vmlabel" text-anchor="start"><title>8.07 kN-m</title>8.07</text>
      <circle cx="99.0" cy="72.7" r="1.5" stroke="none" fill="red"><title>-588 kN-m</title></circle>
      <text x="99.0" y="72.7" dx="1.0" dy="7.0" class="vmlabel" text-anchor="start"><title>-588 kN-m</title>-588</text>
      <circle cx="184.9" cy="-35.3" r="1.5" stroke="none" fill="red"><title>285 kN-m</title></circle>
      <text x="184.9" y="-35.3" dx="1.0" dy="-1.0" class="vmlabel" text-anchor="start"><title>285 kN-m</title>285</text>
      <circle cx="262.3" cy="49.4" r="1.5" stroke="none" fill="red"><title>-399.7 kN-m</title></circle>
      <text x="262.3" y="49.4" dx="1.0" dy="7.0" class="vmlabel" text-anchor="start"><title>-399.7 kN-m</title>-399.7</text>
      <circle cx="292.0" cy="15.6" r="1.5" stroke="none" fill="red"><title>-125.8 kN-m</title></circle>
      <text x="292.0" y="15.6" dx="1.0" dy="7.0" class="vmlabel" text-anchor="start"><title>-125.8 kN-m</title>-125.8</text>
      <circle cx="329.3" cy="7.7" r="1.5" stroke="none" fill="red"><title>-61.87 kN-m</title></circle>
      <text x="329.3" y="7.7" dx="-1.0" dy="7.0" class="vmlabel" text-anchor="end"><title>-61.87 kN-m</title>-61.87</text>
      <circle cx="342.7" cy="8.7" r="1.5" stroke="none" fill="red"><title>-70 kN-m</title></circle>
      <text x="342.7" y="8.7" dx="1.0" dy="7.0" class="vmlabel" text-anchor="start"><title>-70 kN-m</title>-70</text>
      <text x="360.0" y="0" class="dwglabel" dx="18.0">M [kN-m]</text>
    </g>
  </g>
</g>

</svg>
