<?xml version="1.0" standalone="yes"?>
<!DOCTYPE svg PUBLIC "-//W3C//DTD SVG 1.1//EN" 
  "http://www.w3.org/Graphics/SVG/1.1/DTD/svg11.dtd">
<svg xmlns="http://www.w3.org/2000/svg"
     xmlns:xlink="http://www.w3.org/1999/xlink"
     version="1.1"
     width="8.5in" 
     height="11.0in" 
     viewBox="0 0 612 792">
  <defs>
    <style type="text/css"><![CDATA[
    .elem {
	stroke-width: 2.0;
	stroke: black;
	}
    path.dim {
       stroke-width: 0.5;
       stroke: black;
       }
    path.guides {
       stroke-width: 0.5;
       stroke: grey;
       }
    text.dwglabel {
       font-family: Verdana, Arial;
       font-size: 10px;
       font-weight: bold;
       fill: black;
       text-align: center;
       text-anchor: start;
       }
    text.dim {
       font-family: Verdana, Arial;
       font-size: 8px;
       font-weight: bold;
       fill: black;
       text-align: center;
       text-anchor: middle;
       }
    text.guides {
       font-family: Verdana, Arial;
       font-size: 8px;
       font-weight: normal;
       font-style: italic;
       fill: black;
       text-align: center;
       text-anchor: middle;
       }
    text.vmlabel {
       font-family: Verdana, Arial;
       font-size: 8px;
       font-style: italic;
       fill: black;
       }
    text.notes {
       font-family: Verdana, Arial;
       font-size: 9px;
       font-weight: normal;
       font-style: italic;
       fill: black;
       text-align: center;
       text-anchor: left;
       }
    text.ptlabel {
       font-family: Verdana, Arial;
       font-size: 7px;
       font-style: italic;
       fill: black;
       text-align: center;
       text-anchor: start;
       }
     path.cload {
       fill: none;
       stroke-width: 1;
       stroke: black; 
       marker-end: url(#CLArrowEnd);
     }
      path.mload {
       fill: none;
       stroke-width: 1;
       stroke: black; 
       marker-end: url(#MLArrowEnd);
     }
      path.mloadInkscape {
       fill: none;
       stroke-width: 1;
       stroke: black; 
       marker-end: url(#MLArrowStart);
     }
     polygon.dload {
       fill: rgb(240,240,240);
       opacity: 0.5; /* if < 1, REALLY slows down printing of the pdfs */
       stroke-width: 1;
       stroke: black; 
     }
     path.dload {
       fill: none;
       stroke-width: 1;
       stroke: black; 
       marker-end: url(#DLArrowEnd);
     }
     path.dloadna {
       fill: none;
       stroke-width: 1;
       stroke: black; 
     }
     path.vdiag {
       fill: url(#crosshatch45);
       stroke-width: 1;
       stroke: black; 
     }
     path.mdiag {
       fill: url(#crosshatch45);
       stroke-width: 1;
       stroke: black; 
     }

    ]]></style>
    <g id="PinnedSupport" transform="translate(0,1.0)">
      <path d="M 0 0 l 4 6 l -8 0 z" 
	    stroke="black" stroke-width="0" fill="black" opacity="1.0" />
      <path d="M -6 6 l 12 0" 
	    stroke="black" stroke-width="1" fill="none" />
      <path d="M 6 6 l -3 3 m 0 -3 l -3 3 m 0 -3 l -3 3 m 0 -3 l -3 3 m 0 -3 l -3 3"
	    stroke="black" stroke-width="1" fill="none" />
    </g>
    <g id="RollerSupport" transform="translate(0,1.0)">
      <circle cx="0" cy="3" r="3"
	    stroke="black" stroke-width="0" fill="black" opacity="1.0" />
      <path d="M -6 6 l 12 0" 
	    stroke="black" stroke-width="1" fill="none" />
      <path d="M 6 6 l -3 3 m 0 -3 l -3 3 m 0 -3 l -3 3 m 0 -3 l -3 3 m 0 -3 l -3 3"
	    stroke="black" stroke-width="1" fill="none" />
    </g>
    <g id="LFixedSupport" transform="translate(-0.5,0)">
      <path d="M 0 -6 l 0 12"
	    stroke="black" stroke-width="1" fill="none" />
      <path d="M 0 -6 l -3 3 m 3 0 l -3 3 m 3 0 l -3 3 m 3 0 l -3 3 m 3 0 l -3 3"
	    stroke="black" stroke-width="1" fill="none" />
    </g>
    <g id="RFixedSupport">
      <use xlink:href="#LFixedSupport" transform="scale(-1,1)"/>
    </g>
    <g id="Hinge">
      <circle cx="0" cy="0" r="2.5"
	      stroke="black" stroke-width="1" fill="white"/>
    </g>
    <g id="ShearRelease">
      <rect x="-3" y="-6" width="6" height="12"
	    stroke="none" fill="white"/>
      <circle cx="0" cy="-6" r="2" stroke="black" strokewidth="0.5" fill="white"/>
      <circle cx="0" cy="0" r="2" stroke="black" strokewidth="0.5" fill="white"/>
      <circle cx="0" cy="6" r="2" stroke="black" strokewidth="0.5" fill="white"/>
      <path d="M -3 -9 l 0 18 M 3 -9 l 0 18" stroke="black" stroke-width="1"/>
    </g>
    <marker id="DLArrowStart"
	    markerUnits="userSpaceOnUse"
	    markerWidth="8"
	    markerHeight="4"
	    orient="auto"
	    viewBox="0 0 8 4"
	    refX="0"
	    refY="2">
      <path d="M 0 2 l 8 -2 l 0 4 z"/>
    </marker>
    <marker id="DLArrowEnd"
	    markerUnits="userSpaceOnUse"
	    markerWidth="8"
	    markerHeight="4"
	    orient="auto"
	    viewBox="0 0 8 4"
	    refX="8"
	    refY="2">
      <path d="M 0 0 l 8 2 l -8 2 z"/>
    </marker>
    <marker id="CLArrowStart"
	    markerUnits="userSpaceOnUse"
	    markerWidth="10.0"
	    markerHeight="6"
	    orient="auto"
	    viewBox="0 0 10 6"
	    refX="3.0"
	    refY="3">
      <path d="M 0 3 l 10 -3 l -2 3 l 2 3 z"/>
    </marker>
    <marker id="CLArrowEnd"
	    markerUnits="userSpaceOnUse"
	    markerWidth="10.0"
	    markerHeight="6"
	    orient="auto"
	    viewBox="0 0 10 6"
	    refX="7.0"
	    refY="3">
      <path d="M 0 0 l 10 3 l -10 3 l 2 -3 z"/>
    </marker>
    <marker id="MLArrowStart"
	    markerUnits="userSpaceOnUse"
	    markerWidth="10.0"
	    markerHeight="6"
	    orient="auto"
	    viewBox="0 0 10 6"
	    refX="8"
	    refY="3">
      <path d="M 10 0 l -10 3 l 10 3 l -2 -3 z"/>
    </marker>
    <marker id="MLArrowEnd"
	    markerUnits="userSpaceOnUse"
	    markerWidth="10.0"
	    markerHeight="6"
	    orient="auto"
	    viewBox="0 0 10 6"
	    refX="2"
	    refY="3">
      <path d="M 0 0 l 10 3 l -10 3 l 2 -3 z"/>
    </marker>
    <pattern id="crosshatch45" patternUnits="userSpaceOnUse"
             x="0" y="0" width="10" height="10"
	     viewBox="0 0 10 10">
       <path d="M 0 0 L 10 10" fill="none" stroke="grey" stroke-width="0.2"/>
    </pattern>


  </defs>

<g transform="translate(72.0,122.0)">
  <title>Beam! Length = 28.4</title>
  <path class="elem" d="M 0 0 l 360.0 0"/>
  <g transform="translate(22.8,0.0)">
    <title>LD Load 18 - 24 kN/m</title>
    <polygon points="0,0 0,-16.8 167.3,-24.0 167.3,0" class="dload"/>
    <path class="dload" d="M 0.0 -16.8 L 0.0 -1.0"/>
    <path class="dload" d="M 23.9 -17.8 L 23.9 -1.0"/>
    <path class="dload" d="M 47.8 -18.9 L 47.8 -1.0"/>
    <path class="dload" d="M 71.7 -19.9 L 71.7 -1.0"/>
    <path class="dload" d="M 95.6 -20.9 L 95.6 -1.0"/>
    <path class="dload" d="M 119.5 -21.9 L 119.5 -1.0"/>
    <path class="dload" d="M 143.4 -23.0 L 143.4 -1.0"/>
    <path class="dload" d="M 167.3 -24.0 L 167.3 -1.0"/>
    <text style="text-anchor: end;" dx="0.0" dy="-2.0" y="-16.8" x="0.0" class="dim">18</text>
    <text style="text-anchor: start;" dx="0.0" dy="-2.0" y="-24.0" x="167.3" class="dim">24</text>
  </g>
  <g transform="translate(190.1,0.0)">
    <title>LD Load 18 - 14 kN/m</title>
    <polygon points="0,0 0,-16.8 152.1,-12.0 152.1,0" class="dload"/>
    <path class="dload" d="M 0.0 -16.8 L 0.0 -1.0"/>
    <path class="dload" d="M 25.4 -16.0 L 25.4 -1.0"/>
    <path class="dload" d="M 50.7 -15.2 L 50.7 -1.0"/>
    <path class="dload" d="M 76.1 -14.4 L 76.1 -1.0"/>
    <path class="dload" d="M 101.4 -13.6 L 101.4 -1.0"/>
    <path class="dload" d="M 126.8 -12.8 L 126.8 -1.0"/>
    <path class="dload" d="M 152.1 -12.0 L 152.1 -1.0"/>
    <text style="text-anchor: end;" dx="0.0" dy="-2.0" y="-16.8" x="0.0" class="dim">18</text>
    <text style="text-anchor: start;" dx="0.0" dy="-2.0" y="-12.0" x="152.1" class="dim">14</text>
  </g>
  <g transform="translate(0.0,-1.0)">
    <title>Point Load = 90 kN</title>
    <path class="cload" d="M 0 -42.0 l 0 39.0"/>
    <text y="-42.0" x="0" class="dim" dy="-3.0">90</text>
  </g>
  <g transform="translate(360.0,-1.0)">
    <title>Point Load = 65 kN</title>
    <path class="cload" d="M 0 -26.0 l 0 23.0"/>
    <text y="-26.0" x="0" class="dim" dy="-3.0">65</text>
  </g>
  <use y="0" x="22.8" xlink:href="#RollerSupport"/>
  <use y="0" x="79.9" xlink:href="#RollerSupport"/>
  <use y="0" x="107.7" xlink:href="#Hinge"/>
  <use y="0" x="190.1" xlink:href="#Hinge"/>
  <use y="0" x="215.5" xlink:href="#RollerSupport"/>
  <use y="0" x="342.3" xlink:href="#PinnedSupport"/>
  <path class="dim" d="M 107.7 10.0 l 0 25.0"/>
  <path class="dim" d="M 79.9 30.0 l 27.9 0"/>
  <path class="dim" d="M 79.9 30.0 m -3.0 3.0 l 6.0 -6.0"/>
  <path class="dim" d="M 107.7 30.0 m -3.0 3.0 l 6.0 -6.0"/>
  <text y="30.0" x="93.8" class="dim" dy="-3.0">2.2</text>
  <path class="dim" d="M 190.1 10.0 l 0 25.0"/>
  <path class="dim" d="M 107.7 30.0 l 82.4 0"/>
  <path class="dim" d="M 107.7 30.0 m -3.0 3.0 l 6.0 -6.0"/>
  <path class="dim" d="M 190.1 30.0 m -3.0 3.0 l 6.0 -6.0"/>
  <text y="30.0" x="148.9" class="dim" dy="-3.0">6.5</text>
  <path class="dim" d="M 0.0 10.0 l 0 40.0"/>
  <path class="dim" d="M 22.8 10.0 l 0 40.0"/>
  <path class="dim" d="M 0.0 45.0 l 22.8 0"/>
  <path class="dim" d="M 0.0 45.0 m -3.0 3.0 l 6.0 -6.0"/>
  <path class="dim" d="M 22.8 45.0 m -3.0 3.0 l 6.0 -6.0"/>
  <text y="45.0" x="11.4" class="dim" dy="-3.0">1.8</text>
  <path class="dim" d="M 79.9 10.0 l 0 40.0"/>
  <path class="dim" d="M 22.8 45.0 l 57.0 0"/>
  <path class="dim" d="M 79.9 45.0 m -3.0 3.0 l 6.0 -6.0"/>
  <text y="45.0" x="51.3" class="dim" dy="-3.0">4.5</text>
  <path class="dim" d="M 215.5 10.0 l 0 40.0"/>
  <path class="dim" d="M 79.9 45.0 l 135.6 0"/>
  <path class="dim" d="M 215.5 45.0 m -3.0 3.0 l 6.0 -6.0"/>
  <text y="45.0" x="147.7" class="dim" dy="-3.0">10.7</text>
  <path class="dim" d="M 342.3 10.0 l 0 40.0"/>
  <path class="dim" d="M 215.5 45.0 l 126.8 0"/>
  <path class="dim" d="M 342.3 45.0 m -3.0 3.0 l 6.0 -6.0"/>
  <text y="45.0" x="278.9" class="dim" dy="-3.0">10</text>
  <path class="dim" d="M 360.0 10.0 l 0 40.0"/>
  <path class="dim" d="M 342.3 45.0 l 17.7 0"/>
  <path class="dim" d="M 360.0 45.0 m -3.0 3.0 l 6.0 -6.0"/>
  <text y="45.0" x="351.1" class="dim" dy="-3.0">1.4</text>
  <text y="17.0" x="0.0" class="ptlabel" dx="1.0">a</text>
  <text y="17.0" x="22.8" class="ptlabel" dx="1.0">b</text>
  <text y="17.0" x="79.9" class="ptlabel" dx="1.0">c</text>
  <text y="17.0" x="107.7" class="ptlabel" dx="1.0">d</text>
  <text y="17.0" x="190.1" class="ptlabel" dx="1.0">e</text>
  <text y="17.0" x="215.5" class="ptlabel" dx="1.0">f</text>
  <text y="17.0" x="342.3" class="ptlabel" dx="1.0">g</text>
  <text y="17.0" x="360.0" class="ptlabel" dx="1.0">h</text>
  <text y="-56.0" x="0" xml:space="preserve" class="notes">Units are m, kN;       Difficulty Level = 9</text>
  <g id="beam-guides" visibility="visible" transform="translate(0.0,0.0)">
    <path class="guides" d="M 0.0 51.0 L 0.0 474.0 M 22.8 51.0 L 22.8 474.0 M 79.9 51.0 L 79.9 474.0 M 107.7 51.0 L 107.7 474.0 M 190.1 51.0 L 190.1 474.0 M 215.5 51.0 L 215.5 474.0 M 342.3 51.0 L 342.3 474.0 M 360.0 51.0 L 360.0 474.0"/>
  </g>
  <g id="beam-fb-diagram" visibility="visible" transform="translate(0.0,144.0)">
    <title>Free Body Diagram</title>
    <path class="elem" d="M 0 0 l 360.0 0"/>
    <g transform="translate(22.8,0.0)">
      <title>LD Load 18 - 24 kN/m</title>
      <polygon points="0,0 0,-16.8 167.3,-24.0 167.3,0" class="dload"/>
      <path class="dload" d="M 0.0 -16.8 L 0.0 -1.0"/>
      <path class="dload" d="M 23.9 -17.8 L 23.9 -1.0"/>
      <path class="dload" d="M 47.8 -18.9 L 47.8 -1.0"/>
      <path class="dload" d="M 71.7 -19.9 L 71.7 -1.0"/>
      <path class="dload" d="M 95.6 -20.9 L 95.6 -1.0"/>
      <path class="dload" d="M 119.5 -21.9 L 119.5 -1.0"/>
      <path class="dload" d="M 143.4 -23.0 L 143.4 -1.0"/>
      <path class="dload" d="M 167.3 -24.0 L 167.3 -1.0"/>
      <text style="text-anchor: end;" dx="0.0" dy="-2.0" y="-16.8" x="0.0" class="dim">18</text>
      <text style="text-anchor: start;" dx="0.0" dy="-2.0" y="-24.0" x="167.3" class="dim">24</text>
    </g>
    <g transform="translate(190.1,0.0)">
      <title>LD Load 18 - 14 kN/m</title>
      <polygon points="0,0 0,-16.8 152.1,-12.0 152.1,0" class="dload"/>
      <path class="dload" d="M 0.0 -16.8 L 0.0 -1.0"/>
      <path class="dload" d="M 25.4 -16.0 L 25.4 -1.0"/>
      <path class="dload" d="M 50.7 -15.2 L 50.7 -1.0"/>
      <path class="dload" d="M 76.1 -14.4 L 76.1 -1.0"/>
      <path class="dload" d="M 101.4 -13.6 L 101.4 -1.0"/>
      <path class="dload" d="M 126.8 -12.8 L 126.8 -1.0"/>
      <path class="dload" d="M 152.1 -12.0 L 152.1 -1.0"/>
      <text style="text-anchor: end;" dx="0.0" dy="-2.0" y="-16.8" x="0.0" class="dim">18</text>
      <text style="text-anchor: start;" dx="0.0" dy="-2.0" y="-12.0" x="152.1" class="dim">14</text>
    </g>
    <g transform="translate(0.0,-1.0)">
      <title>Point Load = 90 kN</title>
      <path class="cload" d="M 0 -33.2 l 0 30.2"/>
      <text y="-33.2" x="0" class="dim" dy="-3.0">90</text>
    </g>
    <g transform="translate(360.0,-1.0)">
      <title>Point Load = 65 kN</title>
      <path class="cload" d="M 0 -31.2 l 0 28.2"/>
      <text y="-31.2" x="0" class="dim" dy="-3.0">65</text>
    </g>
    <g transform="translate(22.8,1.0)">
      <title>Point Load = -121.892 kN</title>
      <path class="cload" d="M 0 35.7 l 0 -32.7"/>
      <text y="35.7" x="0" class="dim" dy="8.0">121.9</text>
    </g>
    <g transform="translate(79.9,1.0)">
      <title>Point Load = -170.509 kN</title>
      <path class="cload" d="M 0 39.6 l 0 -36.6"/>
      <text y="39.6" x="0" class="dim" dy="8.0">170.5</text>
    </g>
    <g transform="translate(215.5,1.0)">
      <title>Point Load = -200.659 kN</title>
      <path class="cload" d="M 0 42.0 l 0 -39.0"/>
      <text y="42.0" x="0" class="dim" dy="8.0">200.7</text>
    </g>
    <g transform="translate(342.3,1.0)">
      <title>Point Load = -131.14 kN</title>
      <path class="cload" d="M 0 36.5 l 0 -33.5"/>
      <text y="36.5" x="0" class="dim" dy="8.0">131.1</text>
    </g>
    <text x="360.0" y="0" class="dwglabel" dx="18.0">FBD [m,kN]</text>
  </g>
  <g id="beam-shear-diagram" visibility="visible" transform="translate(0.0,216.0)">
    <g transform="translate(0.0,55.6)">
      <title>Shear Force Diagram</title>
      <path class="vdiag" d="M 0,0 L -0.0,-0.0 0.0,42.8 22.8,42.8 22.8,-15.2 24.6,-14.0 26.4,-12.8 28.2,-11.5 29.9,-10.3 31.7,-9.1 33.5,-7.9 35.3,-6.6 37.1,-5.4 38.9,-4.2 40.6,-2.9 42.4,-1.7 44.2,-0.4 46.0,0.8 47.8,2.1 49.6,3.4 51.3,4.6 53.1,5.9 54.9,7.2 56.7,8.5 58.5,9.8 60.3,11.1 62.0,12.4 63.8,13.7 65.6,15.0 67.4,16.3 69.2,17.6 70.9,18.9 72.7,20.2 74.5,21.6 76.3,22.9 78.1,24.2 79.9,25.6 79.9,-55.6 81.7,-54.2 83.6,-52.8 85.4,-51.4 87.3,-50.0 89.2,-48.5 91.0,-47.1 92.9,-45.7 94.7,-44.2 96.6,-42.8 98.5,-41.4 100.3,-39.9 102.2,-38.5 104.0,-37.0 105.9,-35.5 107.7,-34.1 109.5,-32.7 111.3,-31.2 113.1,-29.8 114.9,-28.4 116.7,-26.9 118.5,-25.5 120.3,-24.1 122.1,-22.6 123.9,-21.2 125.7,-19.7 127.4,-18.2 129.2,-16.8 131.0,-15.3 132.8,-13.8 134.6,-12.4 136.4,-10.9 138.2,-9.4 140.0,-7.9 141.8,-6.4 143.6,-4.9 145.4,-3.4 147.2,-1.9 148.9,-0.4 150.7,1.1 152.5,2.7 154.3,4.2 156.1,5.7 157.9,7.2 159.7,8.8 161.5,10.3 163.3,11.9 165.1,13.4 166.9,15.0 168.6,16.5 170.4,18.1 172.2,19.7 174.0,21.2 175.8,22.8 177.6,24.4 179.4,26.0 181.2,27.6 183.0,29.2 184.8,30.8 186.6,32.4 188.3,34.0 190.1,35.6 192.0,36.8 193.8,38.0 195.6,39.3 197.4,40.5 199.2,41.7 201.0,42.9 202.8,44.1 204.6,45.3 206.4,46.5 208.2,47.7 210.1,48.9 211.9,50.1 213.7,51.2 215.5,52.4 215.5,-43.1 217.3,-41.9 219.1,-40.7 220.9,-39.6 222.7,-38.4 224.5,-37.2 226.4,-36.1 228.2,-34.9 230.0,-33.8 231.8,-32.6 233.6,-31.5 235.4,-30.3 237.2,-29.2 239.0,-28.0 240.8,-26.9 242.7,-25.8 244.5,-24.6 246.3,-23.5 248.1,-22.4 249.9,-21.3 251.7,-20.2 253.5,-19.0 255.3,-17.9 257.1,-16.8 259.0,-15.7 260.8,-14.6 262.6,-13.5 264.4,-12.4 266.2,-11.4 268.0,-10.3 269.8,-9.2 271.6,-8.1 273.4,-7.0 275.3,-6.0 277.1,-4.9 278.9,-3.8 280.7,-2.8 282.5,-1.7 284.3,-0.6 286.1,0.4 287.9,1.5 289.7,2.5 291.5,3.6 293.4,4.6 295.2,5.6 297.0,6.7 298.8,7.7 300.6,8.7 302.4,9.8 304.2,10.8 306.0,11.8 307.8,12.8 309.7,13.8 311.5,14.8 313.3,15.8 315.1,16.8 316.9,17.8 318.7,18.8 320.5,19.8 322.3,20.8 324.1,21.8 326.0,22.8 327.8,23.8 329.6,24.7 331.4,25.7 333.2,26.7 335.0,27.6 336.8,28.6 338.6,29.6 340.4,30.5 342.3,31.5 342.3,-30.9 360.0,-30.9 360.0,-0.0 z"/>
      <circle cx="0.0" cy="42.8" r="1.5" stroke="none" fill="red"><title>-90 kN</title></circle>
      <text x="0.0" y="42.8" dx="-1.0" dy="7.0" class="vmlabel" text-anchor="end"><title>-90 kN</title>-90</text>
      <circle cx="22.8" cy="42.8" r="1.5" stroke="none" fill="red"><title>-90 kN</title></circle>
      <text x="22.8" y="42.8" dx="1.0" dy="7.0" class="vmlabel" text-anchor="start"><title>-90 kN</title>-90</text>
      <circle cx="22.8" cy="-15.2" r="1.5" stroke="none" fill="red"><title>31.89 kN</title></circle>
      <text x="22.8" y="-15.2" dx="1.0" dy="-1.0" class="vmlabel" text-anchor="start"><title>31.89 kN</title>31.89</text>
      <circle cx="79.9" cy="25.6" r="1.5" stroke="none" fill="red"><title>-53.71 kN</title></circle>
      <text x="79.9" y="25.6" dx="1.0" dy="7.0" class="vmlabel" text-anchor="start"><title>-53.71 kN</title>-53.71</text>
      <circle cx="79.9" cy="-55.6" r="1.5" stroke="none" fill="red"><title>116.8 kN</title></circle>
      <text x="79.9" y="-55.6" dx="1.0" dy="-1.0" class="vmlabel" text-anchor="start"><title>116.8 kN</title>116.8</text>
      <circle cx="107.7" cy="-34.1" r="1.5" stroke="none" fill="red"><title>71.6 kN</title></circle>
      <text x="107.7" y="-34.1" dx="1.0" dy="-1.0" class="vmlabel" text-anchor="start"><title>71.6 kN</title>71.6</text>
      <circle cx="190.1" cy="35.6" r="1.5" stroke="none" fill="red"><title>-74.8 kN</title></circle>
      <text x="190.1" y="35.6" dx="-1.0" dy="7.0" class="vmlabel" text-anchor="end"><title>-74.8 kN</title>-74.8</text>
      <circle cx="215.5" cy="52.4" r="1.5" stroke="none" fill="red"><title>-110.1 kN</title></circle>
      <text x="215.5" y="52.4" dx="1.0" dy="7.0" class="vmlabel" text-anchor="start"><title>-110.1 kN</title>-110.1</text>
      <circle cx="215.5" cy="-43.1" r="1.5" stroke="none" fill="red"><title>90.53 kN</title></circle>
      <text x="215.5" y="-43.1" dx="1.0" dy="-1.0" class="vmlabel" text-anchor="start"><title>90.53 kN</title>90.53</text>
      <circle cx="342.3" cy="31.5" r="1.5" stroke="none" fill="red"><title>-66.14 kN</title></circle>
      <text x="342.3" y="31.5" dx="1.0" dy="7.0" class="vmlabel" text-anchor="start"><title>-66.14 kN</title>-66.14</text>
      <circle cx="342.3" cy="-30.9" r="1.5" stroke="none" fill="red"><title>65 kN</title></circle>
      <text x="342.3" y="-30.9" dx="1.0" dy="-1.0" class="vmlabel" text-anchor="start"><title>65 kN</title>65</text>
      <circle cx="360.0" cy="-30.9" r="1.5" stroke="none" fill="red"><title>65 kN</title></circle>
      <text x="360.0" y="-30.9" dx="1.0" dy="-1.0" class="vmlabel" text-anchor="start"><title>65 kN</title>65</text>
      <text x="360.0" y="0" class="dwglabel" dx="18.0">V [kN]</text>
    </g>
    <g id="beam-zvguides" visibility="visible" transform="translate(0.0,0.0)">
      <path class="guides" d="M 44.8 57.6 L 44.8 258.0 M 149.4 57.6 L 149.4 258.0 M 285.4 57.6 L 285.4 258.0"/>
      <path class="guides" d="M 22.8 126.0 L 44.8 126.0"/>
      <path class="guides" d="M 22.8 126.0 m -3.0 3.0 l 6.0 -6.0"/>
      <path class="guides" d="M 44.8 126.0 m -3.0 3.0 l 6.0 -6.0"/>
      <text y="126.0" x="33.8" class="guides" dy="-3.0">1.73</text>
      <path class="guides" d="M 107.7 126.0 L 149.4 126.0"/>
      <path class="guides" d="M 107.7 126.0 m -3.0 3.0 l 6.0 -6.0"/>
      <path class="guides" d="M 149.4 126.0 m -3.0 3.0 l 6.0 -6.0"/>
      <text y="126.0" x="128.6" class="guides" dy="-3.0">3.29</text>
      <path class="guides" d="M 215.5 126.0 L 285.4 126.0"/>
      <path class="guides" d="M 215.5 126.0 m -3.0 3.0 l 6.0 -6.0"/>
      <path class="guides" d="M 285.4 126.0 m -3.0 3.0 l 6.0 -6.0"/>
      <text y="126.0" x="250.4" class="guides" dy="-3.0">5.52</text>
    </g>
  </g>
  <g id="beam-moment-diagram" visibility="visible" transform="translate(0.0,360.0)">
    <g transform="translate(0.0,39.3)">
      <title>Bending Moment Diagram</title>
      <path class="mdiag" d="M 0,0 L 0.0,0.0 22.8,53.6 24.6,52.1 26.4,50.8 28.2,49.7 29.9,48.6 31.7,47.6 33.5,46.8 35.3,46.1 37.1,45.5 38.9,45.0 40.6,44.7 42.4,44.5 44.2,44.4 44.8,44.4 46.0,44.4 47.8,44.5 49.6,44.8 51.3,45.2 53.1,45.7 54.9,46.4 56.7,47.1 58.5,48.0 60.3,49.0 62.0,50.2 63.8,51.4 65.6,52.8 67.4,54.4 69.2,56.0 70.9,57.8 72.7,59.7 74.5,61.8 76.3,63.9 78.1,66.2 79.9,68.7 81.7,63.1 83.6,57.6 85.4,52.3 87.3,47.1 89.2,42.1 91.0,37.3 92.9,32.5 94.7,27.9 96.6,23.5 98.5,19.2 100.3,15.1 102.2,11.1 104.0,7.2 105.9,3.5 107.7,-0.0 109.5,-3.3 111.3,-6.4 113.1,-9.4 114.9,-12.3 116.7,-15.0 118.5,-17.6 120.3,-20.0 122.1,-22.3 123.9,-24.4 125.7,-26.4 127.4,-28.3 129.2,-30.0 131.0,-31.6 132.8,-33.0 134.6,-34.3 136.4,-35.5 138.2,-36.4 140.0,-37.3 141.8,-38.0 143.6,-38.6 145.4,-39.0 147.2,-39.2 148.9,-39.3 149.4,-39.3 150.7,-39.3 152.5,-39.1 154.3,-38.8 156.1,-38.3 157.9,-37.7 159.7,-36.9 161.5,-35.9 163.3,-34.8 165.1,-33.6 166.9,-32.2 168.6,-30.7 170.4,-29.0 172.2,-27.1 174.0,-25.1 175.8,-22.9 177.6,-20.6 179.4,-18.1 181.2,-15.5 183.0,-12.7 184.8,-9.8 186.6,-6.7 188.3,-3.4 190.1,0.0 192.0,3.6 193.8,7.3 195.6,11.1 197.4,15.1 199.2,19.2 201.0,23.4 202.8,27.7 204.6,32.1 206.4,36.7 208.2,41.4 210.1,46.1 211.9,51.1 213.7,56.1 215.5,61.2 217.3,57.0 219.1,52.9 220.9,48.9 222.7,45.1 224.5,41.3 226.4,37.7 228.2,34.1 230.0,30.7 231.8,27.4 233.6,24.3 235.4,21.2 237.2,18.2 239.0,15.4 240.8,12.7 242.7,10.1 244.5,7.6 246.3,5.2 248.1,2.9 249.9,0.7 251.7,-1.3 253.5,-3.3 255.3,-5.1 257.1,-6.8 259.0,-8.5 260.8,-10.0 262.6,-11.4 264.4,-12.7 266.2,-13.8 268.0,-14.9 269.8,-15.9 271.6,-16.7 273.4,-17.5 275.3,-18.1 277.1,-18.7 278.9,-19.1 280.7,-19.4 282.5,-19.6 284.3,-19.8 285.4,-19.8 286.1,-19.8 287.9,-19.7 289.7,-19.5 291.5,-19.2 293.4,-18.8 295.2,-18.3 297.0,-17.7 298.8,-16.9 300.6,-16.1 302.4,-15.2 304.2,-14.2 306.0,-13.1 307.8,-11.9 309.7,-10.5 311.5,-9.1 313.3,-7.6 315.1,-6.0 316.9,-4.2 318.7,-2.4 320.5,-0.5 322.3,1.5 324.1,3.6 326.0,5.8 327.8,8.1 329.6,10.6 331.4,13.1 333.2,15.7 335.0,18.4 336.8,21.1 338.6,24.0 340.4,27.0 342.3,30.1 360.0,-0.0 z"/>
      <circle cx="22.8" cy="53.6" r="1.5" stroke="none" fill="red"><title>-162 kN-m</title></circle>
      <text x="22.8" y="53.6" dx="1.0" dy="7.0" class="vmlabel" text-anchor="start"><title>-162 kN-m</title>-162</text>
      <circle cx="44.8" cy="44.4" r="1.5" stroke="none" fill="red"><title>-134.2 kN-m</title></circle>
      <text x="44.8" y="44.4" dx="-1.0" dy="7.0" class="vmlabel" text-anchor="end"><title>-134.2 kN-m</title>-134.2</text>
      <circle cx="79.9" cy="68.7" r="1.5" stroke="none" fill="red"><title>-207.6 kN-m</title></circle>
      <text x="79.9" y="68.7" dx="1.0" dy="7.0" class="vmlabel" text-anchor="start"><title>-207.6 kN-m</title>-207.6</text>
      <circle cx="149.4" cy="-39.3" r="1.5" stroke="none" fill="red"><title>119 kN-m</title></circle>
      <text x="149.4" y="-39.3" dx="1.0" dy="-1.0" class="vmlabel" text-anchor="start"><title>119 kN-m</title>119</text>
      <circle cx="215.5" cy="61.2" r="1.5" stroke="none" fill="red"><title>-185.2 kN-m</title></circle>
      <text x="215.5" y="61.2" dx="1.0" dy="7.0" class="vmlabel" text-anchor="start"><title>-185.2 kN-m</title>-185.2</text>
      <circle cx="285.4" cy="-19.8" r="1.5" stroke="none" fill="red"><title>59.82 kN-m</title></circle>
      <text x="285.4" y="-19.8" dx="1.0" dy="-1.0" class="vmlabel" text-anchor="start"><title>59.82 kN-m</title>59.82</text>
      <circle cx="342.3" cy="30.1" r="1.5" stroke="none" fill="red"><title>-91 kN-m</title></circle>
      <text x="342.3" y="30.1" dx="1.0" dy="7.0" class="vmlabel" text-anchor="start"><title>-91 kN-m</title>-91</text>
      <text x="360.0" y="0" class="dwglabel" dx="18.0">M [kN-m]</text>
    </g>
  </g>
</g>

</svg>
