<?xml version="1.0" standalone="yes"?>
<!DOCTYPE svg PUBLIC "-//W3C//DTD SVG 1.1//EN" 
  "http://www.w3.org/Graphics/SVG/1.1/DTD/svg11.dtd">
<svg xmlns="http://www.w3.org/2000/svg"
     xmlns:xlink="http://www.w3.org/1999/xlink"
     version="1.1"
     width="8.5in" 
     height="11.0in" 
     viewBox="0 0 612 792">
  <defs>
    <style type="text/css"><![CDATA[
    .elem {
	stroke-width: 2.0;
	stroke: black;
	}
    path.dim {
       stroke-width: 0.5;
       stroke: black;
       }
    path.guides {
       stroke-width: 0.5;
       stroke: grey;
       }
    text.dwglabel {
       font-family: Verdana, Arial;
       font-size: 10px;
       font-weight: bold;
       fill: black;
       text-align: center;
       text-anchor: start;
       }
    text.dim {
       font-family: Verdana, Arial;
       font-size: 8px;
       font-weight: bold;
       fill: black;
       text-align: center;
       text-anchor: middle;
       }
    text.guides {
       font-family: Verdana, Arial;
       font-size: 8px;
       font-weight: normal;
       font-style: italic;
       fill: black;
       text-align: center;
       text-anchor: middle;
       }
    text.vmlabel {
       font-family: Verdana, Arial;
       font-size: 8px;
       font-style: italic;
       fill: black;
       }
    text.notes {
       font-family: Verdana, Arial;
       font-size: 9px;
       font-weight: normal;
       font-style: italic;
       fill: black;
       text-align: center;
       text-anchor: left;
       }
    text.ptlabel {
       font-family: Verdana, Arial;
       font-size: 7px;
       font-style: italic;
       fill: black;
       text-align: center;
       text-anchor: start;
       }
     path.cload {
       fill: none;
       stroke-width: 1;
       stroke: black; 
       marker-end: url(#CLArrowEnd);
     }
      path.mload {
       fill: none;
       stroke-width: 1;
       stroke: black; 
       marker-end: url(#MLArrowEnd);
     }
      path.mloadInkscape {
       fill: none;
       stroke-width: 1;
       stroke: black; 
       marker-end: url(#MLArrowStart);
     }
     polygon.dload {
       fill: rgb(240,240,240);
       opacity: 0.5; /* if < 1, REALLY slows down printing of the pdfs */
       stroke-width: 1;
       stroke: black; 
     }
     path.dload {
       fill: none;
       stroke-width: 1;
       stroke: black; 
       marker-end: url(#DLArrowEnd);
     }
     path.dloadna {
       fill: none;
       stroke-width: 1;
       stroke: black; 
     }
     path.vdiag {
       fill: url(#crosshatch45);
       stroke-width: 1;
       stroke: black; 
     }
     path.mdiag {
       fill: url(#crosshatch45);
       stroke-width: 1;
       stroke: black; 
     }

    ]]></style>
    <g id="PinnedSupport" transform="translate(0,1.0)">
      <path d="M 0 0 l 4 6 l -8 0 z" 
	    stroke="black" stroke-width="0" fill="black" opacity="1.0" />
      <path d="M -6 6 l 12 0" 
	    stroke="black" stroke-width="1" fill="none" />
      <path d="M 6 6 l -3 3 m 0 -3 l -3 3 m 0 -3 l -3 3 m 0 -3 l -3 3 m 0 -3 l -3 3"
	    stroke="black" stroke-width="1" fill="none" />
    </g>
    <g id="RollerSupport" transform="translate(0,1.0)">
      <circle cx="0" cy="3" r="3"
	    stroke="black" stroke-width="0" fill="black" opacity="1.0" />
      <path d="M -6 6 l 12 0" 
	    stroke="black" stroke-width="1" fill="none" />
      <path d="M 6 6 l -3 3 m 0 -3 l -3 3 m 0 -3 l -3 3 m 0 -3 l -3 3 m 0 -3 l -3 3"
	    stroke="black" stroke-width="1" fill="none" />
    </g>
    <g id="LFixedSupport" transform="translate(-0.5,0)">
      <path d="M 0 -6 l 0 12"
	    stroke="black" stroke-width="1" fill="none" />
      <path d="M 0 -6 l -3 3 m 3 0 l -3 3 m 3 0 l -3 3 m 3 0 l -3 3 m 3 0 l -3 3"
	    stroke="black" stroke-width="1" fill="none" />
    </g>
    <g id="RFixedSupport">
      <use xlink:href="#LFixedSupport" transform="scale(-1,1)"/>
    </g>
    <g id="Hinge">
      <circle cx="0" cy="0" r="2.5"
	      stroke="black" stroke-width="1" fill="white"/>
    </g>
    <g id="ShearRelease">
      <rect x="-3" y="-6" width="6" height="12"
	    stroke="none" fill="white"/>
      <circle cx="0" cy="-6" r="2" stroke="black" strokewidth="0.5" fill="white"/>
      <circle cx="0" cy="0" r="2" stroke="black" strokewidth="0.5" fill="white"/>
      <circle cx="0" cy="6" r="2" stroke="black" strokewidth="0.5" fill="white"/>
      <path d="M -3 -9 l 0 18 M 3 -9 l 0 18" stroke="black" stroke-width="1"/>
    </g>
    <marker id="DLArrowStart"
	    markerUnits="userSpaceOnUse"
	    markerWidth="8"
	    markerHeight="4"
	    orient="auto"
	    viewBox="0 0 8 4"
	    refX="0"
	    refY="2">
      <path d="M 0 2 l 8 -2 l 0 4 z"/>
    </marker>
    <marker id="DLArrowEnd"
	    markerUnits="userSpaceOnUse"
	    markerWidth="8"
	    markerHeight="4"
	    orient="auto"
	    viewBox="0 0 8 4"
	    refX="8"
	    refY="2">
      <path d="M 0 0 l 8 2 l -8 2 z"/>
    </marker>
    <marker id="CLArrowStart"
	    markerUnits="userSpaceOnUse"
	    markerWidth="10.0"
	    markerHeight="6"
	    orient="auto"
	    viewBox="0 0 10 6"
	    refX="3.0"
	    refY="3">
      <path d="M 0 3 l 10 -3 l -2 3 l 2 3 z"/>
    </marker>
    <marker id="CLArrowEnd"
	    markerUnits="userSpaceOnUse"
	    markerWidth="10.0"
	    markerHeight="6"
	    orient="auto"
	    viewBox="0 0 10 6"
	    refX="7.0"
	    refY="3">
      <path d="M 0 0 l 10 3 l -10 3 l 2 -3 z"/>
    </marker>
    <marker id="MLArrowStart"
	    markerUnits="userSpaceOnUse"
	    markerWidth="10.0"
	    markerHeight="6"
	    orient="auto"
	    viewBox="0 0 10 6"
	    refX="8"
	    refY="3">
      <path d="M 10 0 l -10 3 l 10 3 l -2 -3 z"/>
    </marker>
    <marker id="MLArrowEnd"
	    markerUnits="userSpaceOnUse"
	    markerWidth="10.0"
	    markerHeight="6"
	    orient="auto"
	    viewBox="0 0 10 6"
	    refX="2"
	    refY="3">
      <path d="M 0 0 l 10 3 l -10 3 l 2 -3 z"/>
    </marker>
    <pattern id="crosshatch45" patternUnits="userSpaceOnUse"
             x="0" y="0" width="10" height="10"
	     viewBox="0 0 10 10">
       <path d="M 0 0 L 10 10" fill="none" stroke="grey" stroke-width="0.2"/>
    </pattern>


  </defs>

<g transform="translate(72.0,122.0)">
  <title>Beam! Length = 29.5</title>
  <path class="elem" d="M 0 0 l 360.0 0"/>
  <g transform="translate(0.0,0.0)">
    <title>LD Load 14 - 10 kN/m</title>
    <polygon points="0,0 0,-21.6 218.4,-12.0 218.4,0" class="dload"/>
    <path class="dload" d="M 0.0 -21.6 L 0.0 -1.0"/>
    <path class="dload" d="M 24.3 -20.5 L 24.3 -1.0"/>
    <path class="dload" d="M 48.5 -19.5 L 48.5 -1.0"/>
    <path class="dload" d="M 72.8 -18.4 L 72.8 -1.0"/>
    <path class="dload" d="M 97.1 -17.3 L 97.1 -1.0"/>
    <path class="dload" d="M 121.4 -16.3 L 121.4 -1.0"/>
    <path class="dload" d="M 145.6 -15.2 L 145.6 -1.0"/>
    <path class="dload" d="M 169.9 -14.1 L 169.9 -1.0"/>
    <path class="dload" d="M 194.2 -13.1 L 194.2 -1.0"/>
    <path class="dload" d="M 218.4 -12.0 L 218.4 -1.0"/>
    <text style="text-anchor: end;" dx="0.0" dy="-2.0" y="-21.6" x="0.0" class="dim">14</text>
    <text style="text-anchor: start;" dx="0.0" dy="-2.0" y="-12.0" x="218.4" class="dim">10</text>
  </g>
  <g transform="translate(218.4,0.0)">
    <title>UD Load 15 kN/m</title>
    <polygon points="0,0 0,-24.0 119.6,-24.0 119.6,0" class="dload"/>
    <path class="dload" d="M 0.0 -24.0 L 0.0 -1.0"/>
    <path class="dload" d="M 23.9 -24.0 L 23.9 -1.0"/>
    <path class="dload" d="M 47.8 -24.0 L 47.8 -1.0"/>
    <path class="dload" d="M 71.8 -24.0 L 71.8 -1.0"/>
    <path class="dload" d="M 95.7 -24.0 L 95.7 -1.0"/>
    <path class="dload" d="M 119.6 -24.0 L 119.6 -1.0"/>
    <text style="text-anchor: middle;" dx="0.0" dy="-2.0" y="-24.0" x="59.8" class="dim">15</text>
  </g>
  <g transform="translate(360.0,-1.0)">
    <title>Point Load = 90 kN</title>
    <path class="cload" d="M 0 -26.0 l 0 23.0"/>
    <text y="-26.0" x="0" class="dim" dy="-3.0">90</text>
  </g>
  <use y="0" x="24.4" xlink:href="#PinnedSupport"/>
  <use y="0" x="103.7" xlink:href="#RollerSupport"/>
  <use y="0" x="120.8" xlink:href="#Hinge"/>
  <use y="0" x="218.4" xlink:href="#Hinge"/>
  <use y="0" x="240.4" xlink:href="#RollerSupport"/>
  <use y="0" x="338.0" xlink:href="#RollerSupport"/>
  <path class="dim" d="M 120.8 10.0 l 0 25.0"/>
  <path class="dim" d="M 103.7 30.0 l 17.1 0"/>
  <path class="dim" d="M 103.7 30.0 m -3.0 3.0 l 6.0 -6.0"/>
  <path class="dim" d="M 120.8 30.0 m -3.0 3.0 l 6.0 -6.0"/>
  <text y="30.0" x="112.3" class="dim" dy="-3.0">1.4</text>
  <path class="dim" d="M 218.4 10.0 l 0 25.0"/>
  <path class="dim" d="M 120.8 30.0 l 97.6 0"/>
  <path class="dim" d="M 120.8 30.0 m -3.0 3.0 l 6.0 -6.0"/>
  <path class="dim" d="M 218.4 30.0 m -3.0 3.0 l 6.0 -6.0"/>
  <text y="30.0" x="169.6" class="dim" dy="-3.0">8</text>
  <path class="dim" d="M 0.0 10.0 l 0 40.0"/>
  <path class="dim" d="M 24.4 10.0 l 0 40.0"/>
  <path class="dim" d="M 0.0 45.0 l 24.4 0"/>
  <path class="dim" d="M 0.0 45.0 m -3.0 3.0 l 6.0 -6.0"/>
  <path class="dim" d="M 24.4 45.0 m -3.0 3.0 l 6.0 -6.0"/>
  <text y="45.0" x="12.2" class="dim" dy="-3.0">2</text>
  <path class="dim" d="M 103.7 10.0 l 0 40.0"/>
  <path class="dim" d="M 24.4 45.0 l 79.3 0"/>
  <path class="dim" d="M 103.7 45.0 m -3.0 3.0 l 6.0 -6.0"/>
  <text y="45.0" x="64.1" class="dim" dy="-3.0">6.5</text>
  <path class="dim" d="M 240.4 10.0 l 0 40.0"/>
  <path class="dim" d="M 103.7 45.0 l 136.7 0"/>
  <path class="dim" d="M 240.4 45.0 m -3.0 3.0 l 6.0 -6.0"/>
  <text y="45.0" x="172.1" class="dim" dy="-3.0">11.2</text>
  <path class="dim" d="M 338.0 10.0 l 0 40.0"/>
  <path class="dim" d="M 240.4 45.0 l 97.6 0"/>
  <path class="dim" d="M 338.0 45.0 m -3.0 3.0 l 6.0 -6.0"/>
  <text y="45.0" x="289.2" class="dim" dy="-3.0">8</text>
  <path class="dim" d="M 360.0 10.0 l 0 40.0"/>
  <path class="dim" d="M 338.0 45.0 l 22.0 0"/>
  <path class="dim" d="M 360.0 45.0 m -3.0 3.0 l 6.0 -6.0"/>
  <text y="45.0" x="349.0" class="dim" dy="-3.0">1.8</text>
  <text y="17.0" x="0.0" class="ptlabel" dx="1.0">a</text>
  <text y="17.0" x="24.4" class="ptlabel" dx="1.0">b</text>
  <text y="17.0" x="103.7" class="ptlabel" dx="1.0">c</text>
  <text y="17.0" x="120.8" class="ptlabel" dx="1.0">d</text>
  <text y="17.0" x="218.4" class="ptlabel" dx="1.0">e</text>
  <text y="17.0" x="240.4" class="ptlabel" dx="1.0">f</text>
  <text y="17.0" x="338.0" class="ptlabel" dx="1.0">g</text>
  <text y="17.0" x="360.0" class="ptlabel" dx="1.0">h</text>
  <text y="-56.0" x="0" xml:space="preserve" class="notes">Units are m, kN;       Difficulty Level = 9</text>
  <g id="beam-guides" visibility="visible" transform="translate(0.0,0.0)">
    <path class="guides" d="M 0.0 51.0 L 0.0 474.0 M 24.4 51.0 L 24.4 474.0 M 103.7 51.0 L 103.7 474.0 M 120.8 51.0 L 120.8 474.0 M 218.4 51.0 L 218.4 474.0 M 240.4 51.0 L 240.4 474.0 M 338.0 51.0 L 338.0 474.0 M 360.0 51.0 L 360.0 474.0"/>
  </g>
  <g id="beam-fb-diagram" visibility="visible" transform="translate(0.0,144.0)">
    <title>Free Body Diagram</title>
    <path class="elem" d="M 0 0 l 360.0 0"/>
    <g transform="translate(0.0,0.0)">
      <title>LD Load 14 - 10 kN/m</title>
      <polygon points="0,0 0,-21.6 218.4,-12.0 218.4,0" class="dload"/>
      <path class="dload" d="M 0.0 -21.6 L 0.0 -1.0"/>
      <path class="dload" d="M 24.3 -20.5 L 24.3 -1.0"/>
      <path class="dload" d="M 48.5 -19.5 L 48.5 -1.0"/>
      <path class="dload" d="M 72.8 -18.4 L 72.8 -1.0"/>
      <path class="dload" d="M 97.1 -17.3 L 97.1 -1.0"/>
      <path class="dload" d="M 121.4 -16.3 L 121.4 -1.0"/>
      <path class="dload" d="M 145.6 -15.2 L 145.6 -1.0"/>
      <path class="dload" d="M 169.9 -14.1 L 169.9 -1.0"/>
      <path class="dload" d="M 194.2 -13.1 L 194.2 -1.0"/>
      <path class="dload" d="M 218.4 -12.0 L 218.4 -1.0"/>
      <text style="text-anchor: end;" dx="0.0" dy="-2.0" y="-21.6" x="0.0" class="dim">14</text>
      <text style="text-anchor: start;" dx="0.0" dy="-2.0" y="-12.0" x="218.4" class="dim">10</text>
    </g>
    <g transform="translate(218.4,0.0)">
      <title>UD Load 15 kN/m</title>
      <polygon points="0,0 0,-24.0 119.6,-24.0 119.6,0" class="dload"/>
      <path class="dload" d="M 0.0 -24.0 L 0.0 -1.0"/>
      <path class="dload" d="M 23.9 -24.0 L 23.9 -1.0"/>
      <path class="dload" d="M 47.8 -24.0 L 47.8 -1.0"/>
      <path class="dload" d="M 71.8 -24.0 L 71.8 -1.0"/>
      <path class="dload" d="M 95.7 -24.0 L 95.7 -1.0"/>
      <path class="dload" d="M 119.6 -24.0 L 119.6 -1.0"/>
      <text style="text-anchor: middle;" dx="0.0" dy="-2.0" y="-24.0" x="59.8" class="dim">15</text>
    </g>
    <g transform="translate(360.0,-1.0)">
      <title>Point Load = 90 kN</title>
      <path class="cload" d="M 0 -35.1 l 0 32.1"/>
      <text y="-35.1" x="0" class="dim" dy="-3.0">90</text>
    </g>
    <g transform="translate(24.4,1.0)">
      <title>Point Load = -62.8537 kN</title>
      <path class="cload" d="M 0 32.4 l 0 -29.4"/>
      <text y="32.4" x="0" class="dim" dy="8.0">62.85</text>
    </g>
    <g transform="translate(103.7,1.0)">
      <title>Point Load = -109.563 kN</title>
      <path class="cload" d="M 0 37.1 l 0 -34.1"/>
      <text y="37.1" x="0" class="dim" dy="8.0">109.6</text>
    </g>
    <g transform="translate(240.4,1.0)">
      <title>Point Load = -121.707 kN</title>
      <path class="cload" d="M 0 38.4 l 0 -35.4"/>
      <text y="38.4" x="0" class="dim" dy="8.0">121.7</text>
    </g>
    <g transform="translate(338.0,1.0)">
      <title>Point Load = -157.676 kN</title>
      <path class="cload" d="M 0 42.0 l 0 -39.0"/>
      <text y="42.0" x="0" class="dim" dy="8.0">157.7</text>
    </g>
    <text x="360.0" y="0" class="dwglabel" dx="18.0">FBD [m,kN]</text>
  </g>
  <g id="beam-shear-diagram" visibility="visible" transform="translate(0.0,216.0)">
    <g transform="translate(0.0,61.0)">
      <title>Shear Force Diagram</title>
      <path class="vdiag" d="M 0,0 L 0.0,-0.0 1.7,1.4 3.5,2.7 5.2,4.1 7.0,5.4 8.7,6.7 10.5,8.1 12.2,9.4 13.9,10.7 15.7,12.1 17.4,13.4 19.2,14.7 20.9,16.0 22.7,17.4 24.4,18.7 24.4,-23.9 26.2,-22.6 28.0,-21.2 29.8,-19.9 31.6,-18.5 33.4,-17.2 35.2,-15.8 37.0,-14.5 38.8,-13.2 40.6,-11.8 42.4,-10.5 44.2,-9.2 46.0,-7.9 47.8,-6.6 49.6,-5.3 51.4,-3.9 53.3,-2.6 55.1,-1.3 56.9,-0.0 58.7,1.3 60.5,2.6 62.3,3.8 64.1,5.1 65.9,6.4 67.7,7.7 69.5,9.0 71.3,10.2 73.1,11.5 74.9,12.8 76.7,14.0 78.5,15.3 80.3,16.5 82.1,17.8 83.9,19.1 85.7,20.3 87.5,21.5 89.3,22.8 91.1,24.0 92.9,25.2 94.7,26.5 96.5,27.7 98.3,28.9 100.1,30.1 101.9,31.4 103.7,32.6 103.7,-41.7 105.6,-40.4 107.5,-39.1 109.4,-37.9 111.3,-36.6 113.2,-35.3 115.1,-34.1 117.0,-32.8 118.9,-31.6 120.8,-30.3 122.6,-29.2 124.4,-28.0 126.2,-26.8 128.0,-25.6 129.9,-24.5 131.7,-23.3 133.5,-22.1 135.3,-21.0 137.1,-19.8 138.9,-18.7 140.7,-17.5 142.5,-16.4 144.3,-15.2 146.1,-14.1 147.9,-13.0 149.7,-11.8 151.5,-10.7 153.4,-9.6 155.2,-8.5 157.0,-7.3 158.8,-6.2 160.6,-5.1 162.4,-4.0 164.2,-2.9 166.0,-1.8 167.8,-0.7 169.6,0.4 171.4,1.5 173.2,2.6 175.1,3.7 176.9,4.8 178.7,5.8 180.5,6.9 182.3,8.0 184.1,9.0 185.9,10.1 187.7,11.2 189.5,12.2 191.3,13.3 193.1,14.3 194.9,15.4 196.7,16.4 198.6,17.5 200.4,18.5 202.2,19.6 204.0,20.6 205.8,21.6 207.6,22.6 209.4,23.7 211.2,24.7 213.0,25.7 214.8,26.7 216.6,27.7 218.4,28.7 240.4,47.0 240.4,-35.5 338.0,45.9 338.0,-61.0 360.0,-61.0 360.0,0.0 z"/>
      <circle cx="24.4" cy="18.7" r="1.5" stroke="none" fill="red"><title>-27.55 kN</title></circle>
      <text x="24.4" y="18.7" dx="1.0" dy="7.0" class="vmlabel" text-anchor="start"><title>-27.55 kN</title>-27.55</text>
      <circle cx="24.4" cy="-23.9" r="1.5" stroke="none" fill="red"><title>35.3 kN</title></circle>
      <text x="24.4" y="-23.9" dx="1.0" dy="-1.0" class="vmlabel" text-anchor="start"><title>35.3 kN</title>35.3</text>
      <circle cx="103.7" cy="32.6" r="1.5" stroke="none" fill="red"><title>-48.07 kN</title></circle>
      <text x="103.7" y="32.6" dx="1.0" dy="7.0" class="vmlabel" text-anchor="start"><title>-48.07 kN</title>-48.07</text>
      <circle cx="103.7" cy="-41.7" r="1.5" stroke="none" fill="red"><title>61.49 kN</title></circle>
      <text x="103.7" y="-41.7" dx="1.0" dy="-1.0" class="vmlabel" text-anchor="start"><title>61.49 kN</title>61.49</text>
      <circle cx="120.8" cy="-30.3" r="1.5" stroke="none" fill="red"><title>44.77 kN</title></circle>
      <text x="120.8" y="-30.3" dx="1.0" dy="-1.0" class="vmlabel" text-anchor="start"><title>44.77 kN</title>44.77</text>
      <circle cx="218.4" cy="28.7" r="1.5" stroke="none" fill="red"><title>-42.38 kN</title></circle>
      <text x="218.4" y="28.7" dx="-1.0" dy="7.0" class="vmlabel" text-anchor="end"><title>-42.38 kN</title>-42.38</text>
      <circle cx="240.4" cy="47.0" r="1.5" stroke="none" fill="red"><title>-69.38 kN</title></circle>
      <text x="240.4" y="47.0" dx="1.0" dy="7.0" class="vmlabel" text-anchor="start"><title>-69.38 kN</title>-69.38</text>
      <circle cx="240.4" cy="-35.5" r="1.5" stroke="none" fill="red"><title>52.32 kN</title></circle>
      <text x="240.4" y="-35.5" dx="1.0" dy="-1.0" class="vmlabel" text-anchor="start"><title>52.32 kN</title>52.32</text>
      <circle cx="338.0" cy="45.9" r="1.5" stroke="none" fill="red"><title>-67.68 kN</title></circle>
      <text x="338.0" y="45.9" dx="1.0" dy="7.0" class="vmlabel" text-anchor="start"><title>-67.68 kN</title>-67.68</text>
      <circle cx="338.0" cy="-61.0" r="1.5" stroke="none" fill="red"><title>90 kN</title></circle>
      <text x="338.0" y="-61.0" dx="1.0" dy="-1.0" class="vmlabel" text-anchor="start"><title>90 kN</title>90</text>
      <circle cx="360.0" cy="-61.0" r="1.5" stroke="none" fill="red"><title>90 kN</title></circle>
      <text x="360.0" y="-61.0" dx="1.0" dy="-1.0" class="vmlabel" text-anchor="start"><title>90 kN</title>90</text>
      <text x="360.0" y="0" class="dwglabel" dx="18.0">V [kN]</text>
    </g>
    <g id="beam-zvguides" visibility="visible" transform="translate(0.0,0.0)">
      <path class="guides" d="M 56.9 63.0 L 56.9 258.0 M 169.0 63.0 L 169.0 258.0 M 283.0 63.0 L 283.0 258.0"/>
      <path class="guides" d="M 24.4 126.0 L 56.9 126.0"/>
      <path class="guides" d="M 24.4 126.0 m -3.0 3.0 l 6.0 -6.0"/>
      <path class="guides" d="M 56.9 126.0 m -3.0 3.0 l 6.0 -6.0"/>
      <text y="126.0" x="40.7" class="guides" dy="-3.0">2.66</text>
      <path class="guides" d="M 120.8 126.0 L 169.0 126.0"/>
      <path class="guides" d="M 120.8 126.0 m -3.0 3.0 l 6.0 -6.0"/>
      <path class="guides" d="M 169.0 126.0 m -3.0 3.0 l 6.0 -6.0"/>
      <text y="126.0" x="144.9" class="guides" dy="-3.0">3.95</text>
      <path class="guides" d="M 240.4 126.0 L 283.0 126.0"/>
      <path class="guides" d="M 240.4 126.0 m -3.0 3.0 l 6.0 -6.0"/>
      <path class="guides" d="M 283.0 126.0 m -3.0 3.0 l 6.0 -6.0"/>
      <text y="126.0" x="261.7" class="guides" dy="-3.0">3.49</text>
    </g>
  </g>
  <g id="beam-moment-diagram" visibility="visible" transform="translate(0.0,360.0)">
    <g transform="translate(0.0,37.8)">
      <title>Bending Moment Diagram</title>
      <path class="mdiag" d="M 0,0 L 0.0,0.0 1.7,0.1 3.5,0.2 5.2,0.6 7.0,1.0 8.7,1.5 10.5,2.2 12.2,3.0 13.9,3.9 15.7,5.0 17.4,6.1 19.2,7.4 20.9,8.8 22.7,10.4 24.4,12.0 26.2,9.8 28.0,7.7 29.8,5.8 31.6,4.0 33.4,2.3 35.2,0.7 37.0,-0.7 38.8,-2.0 40.6,-3.2 42.4,-4.2 44.2,-5.2 46.0,-6.0 47.8,-6.7 49.6,-7.2 51.4,-7.7 53.3,-8.0 55.1,-8.1 56.9,-8.2 56.9,-8.2 58.7,-8.2 60.5,-8.0 62.3,-7.7 64.1,-7.2 65.9,-6.7 67.7,-6.0 69.5,-5.3 71.3,-4.3 73.1,-3.3 74.9,-2.2 76.7,-0.9 78.5,0.5 80.3,2.0 82.1,3.6 83.9,5.4 85.7,7.2 87.5,9.2 89.3,11.3 91.1,13.5 92.9,15.8 94.7,18.3 96.5,20.8 98.3,23.5 100.1,26.3 101.9,29.2 103.7,32.2 105.6,28.1 107.5,24.2 109.4,20.3 111.3,16.6 113.2,13.1 115.1,9.6 117.0,6.3 118.9,3.1 120.8,-0.0 122.6,-2.8 124.4,-5.5 126.2,-8.1 128.0,-10.6 129.9,-13.0 131.7,-15.2 133.5,-17.4 135.3,-19.4 137.1,-21.4 138.9,-23.2 140.7,-24.9 142.5,-26.5 144.3,-28.0 146.1,-29.4 147.9,-30.7 149.7,-31.9 151.5,-32.9 153.4,-33.9 155.2,-34.7 157.0,-35.5 158.8,-36.1 160.6,-36.7 162.4,-37.1 164.2,-37.4 166.0,-37.6 167.8,-37.8 169.0,-37.8 169.6,-37.8 171.4,-37.7 173.2,-37.5 175.1,-37.2 176.9,-36.8 178.7,-36.3 180.5,-35.7 182.3,-35.0 184.1,-34.2 185.9,-33.3 187.7,-32.3 189.5,-31.2 191.3,-29.9 193.1,-28.6 194.9,-27.2 196.7,-25.7 198.6,-24.1 200.4,-22.4 202.2,-20.6 204.0,-18.7 205.8,-16.7 207.6,-14.6 209.4,-12.4 211.2,-10.1 213.0,-7.7 214.8,-5.3 216.6,-2.7 218.4,-0.0 220.3,2.8 222.1,5.8 223.9,8.9 225.8,12.2 227.6,15.6 229.4,19.2 231.3,22.9 233.1,26.7 234.9,30.7 236.7,34.9 238.6,39.2 240.4,43.6 242.2,40.3 244.0,37.2 245.8,34.2 247.6,31.3 249.4,28.6 251.3,26.0 253.1,23.6 254.9,21.3 256.7,19.1 258.5,17.1 260.3,15.3 262.1,13.6 263.9,12.0 265.7,10.5 267.5,9.3 269.3,8.1 271.1,7.1 272.9,6.2 274.8,5.5 276.6,4.9 278.4,4.5 280.2,4.2 282.0,4.1 283.0,4.0 283.8,4.1 285.6,4.2 287.4,4.5 289.2,4.9 291.0,5.5 292.8,6.2 294.6,7.0 296.5,8.0 298.3,9.1 300.1,10.4 301.9,11.8 303.7,13.4 305.5,15.1 307.3,17.0 309.1,19.0 310.9,21.1 312.7,23.4 314.5,25.8 316.3,28.3 318.1,31.0 320.0,33.9 321.8,36.9 323.6,40.0 325.4,43.3 327.2,46.7 329.0,50.3 330.8,54.0 332.6,57.8 334.4,61.8 336.2,65.9 338.0,70.2 360.0,-0.0 z"/>
      <circle cx="24.4" cy="12.0" r="1.5" stroke="none" fill="red"><title>-27.7 kN-m</title></circle>
      <text x="24.4" y="12.0" dx="1.0" dy="7.0" class="vmlabel" text-anchor="start"><title>-27.7 kN-m</title>-27.7</text>
      <circle cx="56.9" cy="-8.2" r="1.5" stroke="none" fill="red"><title>18.95 kN-m</title></circle>
      <text x="56.9" y="-8.2" dx="1.0" dy="-1.0" class="vmlabel" text-anchor="start"><title>18.95 kN-m</title>18.95</text>
      <circle cx="103.7" cy="32.2" r="1.5" stroke="none" fill="red"><title>-74.33 kN-m</title></circle>
      <text x="103.7" y="32.2" dx="1.0" dy="7.0" class="vmlabel" text-anchor="start"><title>-74.33 kN-m</title>-74.33</text>
      <circle cx="169.0" cy="-37.8" r="1.5" stroke="none" fill="red"><title>87.17 kN-m</title></circle>
      <text x="169.0" y="-37.8" dx="1.0" dy="-1.0" class="vmlabel" text-anchor="start"><title>87.17 kN-m</title>87.17</text>
      <circle cx="240.4" cy="43.6" r="1.5" stroke="none" fill="red"><title>-100.6 kN-m</title></circle>
      <text x="240.4" y="43.6" dx="1.0" dy="7.0" class="vmlabel" text-anchor="start"><title>-100.6 kN-m</title>-100.6</text>
      <circle cx="283.0" cy="4.0" r="1.5" stroke="none" fill="red"><title>-9.331 kN-m</title></circle>
      <text x="283.0" y="4.0" dx="-1.0" dy="7.0" class="vmlabel" text-anchor="end"><title>-9.331 kN-m</title>-9.331</text>
      <circle cx="338.0" cy="70.2" r="1.5" stroke="none" fill="red"><title>-162 kN-m</title></circle>
      <text x="338.0" y="70.2" dx="1.0" dy="7.0" class="vmlabel" text-anchor="start"><title>-162 kN-m</title>-162</text>
      <text x="360.0" y="0" class="dwglabel" dx="18.0">M [kN-m]</text>
    </g>
  </g>
</g>

</svg>
