<?xml version="1.0" encoding="UTF-8" standalone="no"?>
<svg
   xmlns:dc="http://purl.org/dc/elements/1.1/"
   xmlns:cc="http://creativecommons.org/ns#"
   xmlns:rdf="http://www.w3.org/1999/02/22-rdf-syntax-ns#"
   xmlns:svg="http://www.w3.org/2000/svg"
   xmlns="http://www.w3.org/2000/svg"
   xmlns:xlink="http://www.w3.org/1999/xlink"
   version="1.1"
   id="svg2"
   height="125.02604"
   width="294.12949">
  <script
     id="script3033"
     xlink:href="" />
  <defs
     id="defs4" />
  <metadata
     id="metadata7">
    <rdf:RDF>
      <cc:Work
         rdf:about="">
        <dc:format>image/svg+xml</dc:format>
        <dc:type
           rdf:resource="http://purl.org/dc/dcmitype/StillImage" />
        <dc:title />
        <cc:license
           rdf:resource="http://creativecommons.org/licenses/by-nc/3.0/" />
      </cc:Work>
      <cc:License
         rdf:about="http://creativecommons.org/licenses/by-nc/3.0/">
        <cc:permits
           rdf:resource="http://creativecommons.org/ns#Reproduction" />
        <cc:permits
           rdf:resource="http://creativecommons.org/ns#Distribution" />
        <cc:requires
           rdf:resource="http://creativecommons.org/ns#Notice" />
        <cc:requires
           rdf:resource="http://creativecommons.org/ns#Attribution" />
        <cc:prohibits
           rdf:resource="http://creativecommons.org/ns#CommercialUse" />
        <cc:permits
           rdf:resource="http://creativecommons.org/ns#DerivativeWorks" />
      </cc:License>
    </rdf:RDF>
  </metadata>
  <g
     transform="translate(-99.891438,-353.59001)"
     id="layer1">
    <g
       id="g10305">
      <path
         style="fill:none;stroke:#000000;stroke-width:1;stroke-linecap:butt;stroke-linejoin:miter;stroke-opacity:1"
         d="m 131.87541,374.28677 58.15954,-59.22019"
         id="path10299"
         transform="translate(0,62.362)" />
      <path
         style="fill:none;stroke:#000000;stroke-width:1;stroke-linecap:butt;stroke-linejoin:miter;stroke-opacity:1"
         d="M 364.33677,374.10999 306.17724,314.8898"
         id="path10301"
         transform="translate(0,62.362)" />
      <path
         style="fill:none;stroke:#000000;stroke-width:1;stroke-linecap:butt;stroke-linejoin:miter;stroke-opacity:1"
         d="M 131.52186,374.46355 248.19448,314.8898 364.33677,374.28677"
         id="path10303"
         transform="translate(0,62.362)" />
      <path
         style="fill:none;stroke:#000000;stroke-width:1;stroke-linecap:butt;stroke-linejoin:miter;stroke-opacity:1"
         d="M 192.32505,436.49068 H 304.08961"
         id="path9521-7-6-8" />
      <path
         style="fill:none;stroke:#000000;stroke-width:1;stroke-linecap:butt;stroke-linejoin:miter;stroke-opacity:1"
         d="m 135.10177,377.36594 h 51.84215"
         id="path9521" />
      <circle
         style="fill:#ffffff;stroke:#000000;stroke-width:0.80000001"
         id="circle3573"
         r="2.5"
         cy="0"
         cx="0"
         transform="matrix(1.25,0,0,1.25,190.12975,377.34001)" />
      <circle
         style="fill:#ffffff;stroke:#000000;stroke-width:0.80000001"
         id="circle3573-4"
         r="2.5"
         cy="0"
         cx="0"
         transform="matrix(1.25,0,0,1.25,131.41787,377.34001)" />
      <path
         style="fill:none;stroke:#000000;stroke-width:1;stroke-linecap:butt;stroke-linejoin:miter;stroke-opacity:1"
         d="m 309.62217,377.36594 h 51.21918"
         id="path9521-2" />
      <path
         style="fill:none;stroke:#000000;stroke-width:1;stroke-linecap:butt;stroke-linejoin:miter;stroke-opacity:1"
         d="m 193.63706,377.36594 h 51.21918"
         id="path9521-7" />
      <circle
         style="fill:#ffffff;stroke:#000000;stroke-width:0.80000001"
         id="circle3573-6"
         r="2.5"
         cy="0"
         cx="0"
         transform="matrix(1.25,0,0,1.25,248.24091,377.21501)" />
      <path
         style="fill:none;stroke:#000000;stroke-width:1;stroke-linecap:butt;stroke-linejoin:miter;stroke-opacity:1"
         d="m 251.60955,377.36594 h 51.21918"
         id="path9521-7-6" />
      <circle
         style="fill:#ffffff;stroke:#000000;stroke-width:0.80000001"
         id="circle3573-6-7"
         r="2.5"
         cy="0"
         cx="0"
         transform="matrix(1.25,0,0,1.25,306.27495,377.34001)" />
      <path
         style="fill:#000000;stroke:#000000;stroke-width:0"
         id="path5224"
         d="m 131.58338,439.86057 5,7.5 h -10 z" />
      <path
         style="fill:none;stroke:#000000;stroke-width:1.25"
         id="path5226"
         d="m 124.08338,447.36057 h 15" />
      <path
         style="fill:none;stroke:#000000;stroke-width:1.25"
         id="path5228"
         d="m 139.08338,447.36057 -3.75,3.75 m 0,-3.75 -3.75,3.75 m 0,-3.75 -3.75,3.75 m 0,-3.75 -3.75,3.75 m 0,-3.75 -3.75,3.75" />
      <path
         style="fill:#000000;stroke:#000000;stroke-width:0"
         id="path5224-5"
         d="m 365.01096,439.83657 5,7.5 h -10 z" />
      <path
         style="fill:none;stroke:#000000;stroke-width:1.25"
         id="path5226-4"
         d="m 357.51096,454.42411 h 15" />
      <path
         style="fill:none;stroke:#000000;stroke-width:1.25"
         id="path5228-7"
         d="m 372.51096,454.42411 -3.75,3.75 m 0,-3.75 -3.75,3.75 m 0,-3.75 -3.75,3.75 m 0,-3.75 -3.75,3.75 m 0,-3.75 -3.75,3.75" />
      <path
         style="fill:none;stroke:#000000;stroke-width:1px;stroke-linecap:butt;stroke-linejoin:miter;stroke-opacity:1"
         d="m 356.67123,447.81569 h 16.4794"
         id="path3342" />
      <g
         id="use3513-4"
         transform="matrix(0.93789014,0,0,0.93789014,371.20724,451.083)">
        <circle
           cx="0"
           cy="0"
           r="2.5"
           id="circle3573-4-6"
           style="fill:#ffffff;stroke:#000000;stroke-width:1" />
      </g>
      <g
         id="use3513-4-3"
         transform="matrix(0.93789014,0,0,0.93789014,365.34678,451.14292)">
        <circle
           cx="0"
           cy="0"
           r="2.5"
           id="circle3573-4-0"
           style="fill:#ffffff;stroke:#000000;stroke-width:1" />
      </g>
      <g
         id="use3513-4-7"
         transform="matrix(0.93789014,0,0,0.93789014,359.51018,451.14292)">
        <circle
           cx="0"
           cy="0"
           r="2.5"
           id="circle3573-4-8"
           style="fill:#ffffff;stroke:#000000;stroke-width:1" />
      </g>
      <circle
         style="fill:#ffffff;stroke:#000000;stroke-width:0.80000001"
         id="circle3573-9-8"
         r="2.5"
         cy="0"
         cx="0"
         transform="matrix(1.25,0,0,1.25,364.35974,377.30358)" />
      <path
         style="fill:none;stroke:#000000;stroke-width:1;stroke-linecap:butt;stroke-linejoin:miter;stroke-opacity:1"
         d="m 364.34619,380.83448 0.25584,52.15544"
         id="path10208" />
      <path
         style="fill:none;stroke:#000000;stroke-width:1;stroke-linecap:butt;stroke-linejoin:miter;stroke-opacity:1"
         d="m 131.49708,380.78428 0.25584,52.15544"
         id="path10208-8" />
      <path
         style="fill:none;stroke:#000000;stroke-width:1;stroke-linecap:butt;stroke-linejoin:miter;stroke-opacity:1"
         d="m 135.21297,436.49068 h 51.84215"
         id="path9521-0" />
      <circle
         style="fill:#ffffff;stroke:#000000;stroke-width:0.80000001"
         id="circle3573-8"
         r="2.5"
         cy="0"
         cx="0"
         transform="matrix(1.25,0,0,1.25,190.41771,436.46475)" />
      <circle
         style="fill:#ffffff;stroke:#000000;stroke-width:0.80000001"
         id="circle3573-4-7"
         r="2.5"
         cy="0"
         cx="0"
         transform="matrix(1.25,0,0,1.25,131.70585,436.46475)" />
      <path
         style="fill:none;stroke:#000000;stroke-width:1;stroke-linecap:butt;stroke-linejoin:miter;stroke-opacity:1"
         d="m 309.73337,436.49068 h 51.21918"
         id="path9521-2-7" />
      <circle
         style="fill:#ffffff;stroke:#000000;stroke-width:0.80000001"
         id="circle3573-6-7-3"
         r="2.5"
         cy="0"
         cx="0"
         transform="matrix(1.25,0,0,1.25,306.51115,436.46475)" />
      <circle
         style="fill:#ffffff;stroke:#000000;stroke-width:0.80000001"
         id="circle3573-9-8-7"
         r="2.5"
         cy="0"
         cx="0"
         transform="matrix(1.25,0,0,1.25,364.47094,436.42832)" />
      <path
         style="fill:none;stroke:#000000;stroke-width:1;stroke-linecap:butt;stroke-linejoin:miter;stroke-opacity:1"
         d="m 190.19397,380.78428 0.25584,52.15544"
         id="path10208-8-1" />
      <path
         style="fill:none;stroke:#000000;stroke-width:1;stroke-linecap:butt;stroke-linejoin:miter;stroke-opacity:1"
         d="m 306.24708,380.78428 0.25584,52.15544"
         id="path10208-8-0" />
    </g>
  </g>
</svg>
