<?xml version="1.0" encoding="UTF-8" standalone="no"?>
<svg
   xmlns:dc="http://purl.org/dc/elements/1.1/"
   xmlns:cc="http://creativecommons.org/ns#"
   xmlns:rdf="http://www.w3.org/1999/02/22-rdf-syntax-ns#"
   xmlns:svg="http://www.w3.org/2000/svg"
   xmlns="http://www.w3.org/2000/svg"
   xmlns:xlink="http://www.w3.org/1999/xlink"
   version="1.1"
   id="svg2"
   height="129.51796"
   width="332.99258">
  <script
     id="script3033"
     xlink:href="" />
  <defs
     id="defs4">
    <marker
       id="CLArrowEnd"
       markerUnits="userSpaceOnUse"
       markerWidth="10"
       markerHeight="6"
       orient="auto"
       viewBox="0 0 10 6"
       refX="7"
       refY="3">
      <path
         d="M 0,0 10,3 0,6 2,3 Z"
         id="path3451" />
    </marker>
  </defs>
  <metadata
     id="metadata7">
    <rdf:RDF>
      <cc:Work
         rdf:about="">
        <dc:format>image/svg+xml</dc:format>
        <dc:type
           rdf:resource="http://purl.org/dc/dcmitype/StillImage" />
        <dc:title />
        <cc:license
           rdf:resource="http://creativecommons.org/licenses/by-nc/3.0/" />
      </cc:Work>
      <cc:License
         rdf:about="http://creativecommons.org/licenses/by-nc/3.0/">
        <cc:permits
           rdf:resource="http://creativecommons.org/ns#Reproduction" />
        <cc:permits
           rdf:resource="http://creativecommons.org/ns#Distribution" />
        <cc:requires
           rdf:resource="http://creativecommons.org/ns#Notice" />
        <cc:requires
           rdf:resource="http://creativecommons.org/ns#Attribution" />
        <cc:prohibits
           rdf:resource="http://creativecommons.org/ns#CommercialUse" />
        <cc:permits
           rdf:resource="http://creativecommons.org/ns#DerivativeWorks" />
      </cc:License>
    </rdf:RDF>
  </metadata>
  <g
     transform="translate(-260.95457,-623.612)"
     id="layer1">
    <g
       transform="translate(67.55262,-89.92067)"
       id="g4861">
      <path
         style="fill:none;stroke:#000000;stroke-width:1px;stroke-linecap:butt;stroke-linejoin:miter;stroke-opacity:1"
         d="m 225,738 90,-63 90,63"
         id="path4766"
         transform="translate(0,62.362)" />
      <path
         style="fill:none;stroke:#000000;stroke-width:1px;stroke-linecap:butt;stroke-linejoin:miter;stroke-opacity:1"
         d="m 407,800.362 90,-63"
         id="path4768" />
      <path
         style="fill:none;stroke:#000000;stroke-width:1px;stroke-linecap:butt;stroke-linejoin:miter;stroke-opacity:1"
         d="m 407.1213,737.362 90,63"
         id="path4764" />
      <path
         style="fill:none;stroke:#000000;stroke-width:1px;stroke-linecap:butt;stroke-linejoin:miter;stroke-opacity:1"
         d="m 225,675 90,63 90,-63"
         id="path4762"
         transform="translate(0,62.362)" />
      <path
         style="fill:none;stroke:#000000;stroke-width:1;stroke-linecap:butt;stroke-linejoin:miter;stroke-opacity:1"
         d="M 225,796.39939 V 740.76486"
         id="path3876-5" />
      <path
         style="fill:none;stroke:#000000;stroke-width:1;stroke-linecap:butt;stroke-linejoin:miter;stroke-opacity:1"
         d="m 319.19556,737.362 h 83.79287"
         id="path3878-0-4" />
      <path
         style="fill:none;stroke:#000000;stroke-width:1;stroke-linecap:butt;stroke-linejoin:miter;stroke-opacity:1"
         d="m 409.85619,800.00844 h 83.79287"
         id="path3878-0-3" />
      <path
         style="fill:none;stroke:#000000;stroke-width:1;stroke-linecap:butt;stroke-linejoin:miter;stroke-opacity:1"
         d="m 410,737.362 h 83.79287"
         id="path3878-0-88" />
      <path
         style="fill:none;stroke:#000000;stroke-width:1;stroke-linecap:butt;stroke-linejoin:miter;stroke-opacity:1"
         d="m 228.53791,737.41396 h 83.79287"
         id="path3878-0-06" />
      <path
         style="fill:none;stroke:#000000;stroke-width:1;stroke-linecap:butt;stroke-linejoin:miter;stroke-opacity:1"
         d="M 497.1436,796.52662 V 740.89209"
         id="path3876-5-1" />
      <circle
         style="fill:#ffffff;stroke:#000000;stroke-width:1"
         id="circle3573-11-8-8-9"
         r="2.5"
         cy="0"
         cx="0"
         transform="matrix(1.25,0,0,1.25,224.96102,737.40643)" />
      <circle
         style="fill:#ffffff;stroke:#000000;stroke-width:1"
         id="circle3573-11-8-8-9-8"
         r="2.5"
         cy="0"
         cx="0"
         transform="matrix(1.25,0,0,1.25,224.96102,799.88137)" />
      <circle
         style="fill:#ffffff;stroke:#000000;stroke-width:1"
         id="circle3573-11-8-8-9-9"
         r="2.5"
         cy="0"
         cx="0"
         transform="matrix(1.25,0,0,1.25,315.7853,737.40643)" />
      <circle
         style="fill:#ffffff;stroke:#000000;stroke-width:1"
         id="circle3573-11-8-8-9-7"
         r="2.5"
         cy="0"
         cx="0"
         transform="matrix(1.25,0,0,1.25,406.32238,737.28267)" />
      <circle
         style="fill:#ffffff;stroke:#000000;stroke-width:1"
         id="circle3573-11-8-8-9-2"
         r="2.5"
         cy="0"
         cx="0"
         transform="matrix(1.25,0,0,1.25,497.14498,737.36267)" />
      <circle
         style="fill:#ffffff;stroke:#000000;stroke-width:1"
         id="circle3573-11-8-8-9-28"
         r="2.5"
         cy="0"
         cx="0"
         transform="matrix(1.25,0,0,1.25,497.12682,799.91139)" />
      <circle
         style="fill:#ffffff;stroke:#000000;stroke-width:1"
         id="circle3573-11-8-8-9-28-2"
         r="2.5"
         cy="0"
         cx="0"
         transform="matrix(1.25,0,0,1.25,406.51335,799.91139)" />
      <path
         style="fill:none;stroke:#000000;stroke-width:1;stroke-linecap:butt;stroke-linejoin:miter;stroke-opacity:1"
         d="M 319.27043,800.00844 H 403.0633"
         id="path3878-0-3-8" />
      <circle
         style="fill:#ffffff;stroke:#000000;stroke-width:1"
         id="circle3573-11-8-8-9-28-2-9"
         r="2.5"
         cy="0"
         cx="0"
         transform="matrix(1.25,0,0,1.25,315.95085,799.94264)" />
      <path
         style="fill:none;stroke:#000000;stroke-width:1;stroke-linecap:butt;stroke-linejoin:miter;stroke-opacity:1"
         d="m 228.50526,800.00844 h 83.79287"
         id="path3878-0-3-8-0" />
      <g
         style="stroke-width:0.80000001"
         transform="matrix(1.25,0,0,1.25,225.0055,804.37888)"
         id="use90">
        <path
           style="fill:#000000;stroke:#000000;stroke-width:0.80000001"
           id="path5224"
           d="M 0,0 4,6 H -4 Z" />
        <path
           style="fill:none;stroke:#000000;stroke-width:0.80000001"
           id="path5226"
           d="M -6,6 H 6" />
        <path
           style="fill:none;stroke:#000000;stroke-width:0.80000001"
           id="path5228"
           d="M 6,6 3,9 M 3,6 0,9 M 0,6 -3,9 m 0,-3 -3,3 m 0,-3 -3,3" />
      </g>
      <g
         style="stroke-width:1"
         id="g3395"
         transform="translate(365.04375,466.71823)">
        <path
           style="fill:#000000;stroke:#000000;stroke-width:1"
           id="path5224-5"
           d="m 132.30977,337.64131 5,7.5 h -10 z" />
        <path
           style="fill:none;stroke:#000000;stroke-width:1"
           id="path5226-4"
           d="m 124.80977,352.22885 h 15" />
        <path
           style="fill:none;stroke:#000000;stroke-width:1"
           id="path5228-7"
           d="m 139.80977,352.22885 -3.75,3.75 m 0,-3.75 -3.75,3.75 m 0,-3.75 -3.75,3.75 m 0,-3.75 -3.75,3.75 m 0,-3.75 -3.75,3.75" />
        <path
           style="fill:none;stroke:#000000;stroke-width:1;stroke-linecap:butt;stroke-linejoin:miter;stroke-opacity:1"
           d="m 123.97004,345.62043 h 16.4794"
           id="path3342" />
        <g
           style="stroke-width:1.06622291"
           id="use3513-4"
           transform="matrix(0.93789014,0,0,0.93789014,138.50605,348.88774)">
          <circle
             cx="0"
             cy="0"
             r="2.5"
             id="circle3573-4"
             style="fill:#ffffff;stroke:#000000;stroke-width:1.06622291" />
        </g>
        <g
           style="stroke-width:1.06622291"
           id="use3513-4-3"
           transform="matrix(0.93789014,0,0,0.93789014,132.64559,348.94766)">
          <circle
             cx="0"
             cy="0"
             r="2.5"
             id="circle3573-4-0"
             style="fill:#ffffff;stroke:#000000;stroke-width:1.06622291" />
        </g>
        <g
           style="stroke-width:1.06622291"
           id="use3513-4-7"
           transform="matrix(0.93789014,0,0,0.93789014,126.80899,348.94766)">
          <circle
             cx="0"
             cy="0"
             r="2.5"
             id="circle3573-4-8"
             style="fill:#ffffff;stroke:#000000;stroke-width:1.06622291" />
        </g>
      </g>
    </g>
  </g>
</svg>
