<?xml version="1.0" encoding="UTF-8" standalone="no"?>
<svg
   xmlns:dc="http://purl.org/dc/elements/1.1/"
   xmlns:cc="http://creativecommons.org/ns#"
   xmlns:rdf="http://www.w3.org/1999/02/22-rdf-syntax-ns#"
   xmlns:svg="http://www.w3.org/2000/svg"
   xmlns="http://www.w3.org/2000/svg"
   xmlns:xlink="http://www.w3.org/1999/xlink"
   version="1.1"
   id="svg2"
   height="193"
   width="158.64391">
  <script
     id="script3033"
     xlink:href="" />
  <defs
     id="defs4" />
  <metadata
     id="metadata7">
    <rdf:RDF>
      <cc:Work
         rdf:about="">
        <dc:format>image/svg+xml</dc:format>
        <dc:type
           rdf:resource="http://purl.org/dc/dcmitype/StillImage" />
        <dc:title />
        <cc:license
           rdf:resource="http://creativecommons.org/licenses/by-nc/3.0/" />
      </cc:Work>
      <cc:License
         rdf:about="http://creativecommons.org/licenses/by-nc/3.0/">
        <cc:permits
           rdf:resource="http://creativecommons.org/ns#Reproduction" />
        <cc:permits
           rdf:resource="http://creativecommons.org/ns#Distribution" />
        <cc:requires
           rdf:resource="http://creativecommons.org/ns#Notice" />
        <cc:requires
           rdf:resource="http://creativecommons.org/ns#Attribution" />
        <cc:prohibits
           rdf:resource="http://creativecommons.org/ns#CommercialUse" />
        <cc:permits
           rdf:resource="http://creativecommons.org/ns#DerivativeWorks" />
      </cc:License>
    </rdf:RDF>
  </metadata>
  <g
     transform="translate(-316.51705,-317.62942)"
     id="layer1">
    <g
       id="g3889">
      <g
         id="g7152"
         transform="translate(25.89608,49.28722)">
        <g
           transform="translate(26.949055,9.9801984)"
           id="g7132">
          <g
             id="g7120"
             transform="translate(-16.712872,-13.01237)">
            <path
               d="m 304.57673,312.112 -3.75,3.75 m 3.75,0 -3.75,3.75 m 3.75,0 -3.75,3.75 m 3.75,0 -3.75,3.75 m 3.75,0 -3.75,3.75"
               id="path3411"
               style="fill:none;stroke:#000000;stroke-width:1.25" />
            <path
               d="m 304.57673,330.7308 -3.75,3.75 m 3.75,0 -3.75,3.75 m 3.75,0 -3.75,3.75 m 3.75,0 -3.75,3.75 m 3.75,0 -3.75,3.75"
               id="path3411-4"
               style="fill:none;stroke:#000000;stroke-width:1.25" />
            <path
               d="m 304.57673,349.54516 -3.75,3.75 m 3.75,0 -3.75,3.75 m 3.75,0 -3.75,3.75 m 3.75,0 -3.75,3.75 m 3.75,0 -3.75,3.75"
               id="path3411-3"
               style="fill:none;stroke:#000000;stroke-width:1.25" />
            <path
               d="m 304.57673,368.86448 -3.75,3.75 m 3.75,0 -3.75,3.75 m 3.75,0 -3.75,3.75 m 3.75,0 -3.75,3.75 m 3.75,0 -3.75,3.75"
               id="path3411-8"
               style="fill:none;stroke:#000000;stroke-width:1.25" />
            <path
               d="m 304.57673,387.4932 -3.75,3.75 m 3.75,0 -3.75,3.75 m 3.75,0 -3.75,3.75 m 3.75,0 -3.75,3.75 m 3.75,0 -3.75,3.75"
               id="path3411-0"
               style="fill:none;stroke:#000000;stroke-width:1.25" />
            <path
               d="m 304.57673,406.10208 -3.75,3.75 m 3.75,0 -3.75,3.75 m 3.75,0 -3.75,3.75 m 3.75,0 -3.75,3.75 m 3.75,0 -3.75,3.75"
               id="path3411-88"
               style="fill:none;stroke:#000000;stroke-width:1.25" />
            <path
               d="m 304.57673,424.9684 -3.75,3.75 m 3.75,0 -3.75,3.75 m 3.75,0 -3.75,3.75 m 3.75,0 -3.75,3.75 m 3.75,0 -3.75,3.75"
               id="path3411-88-0"
               style="fill:none;stroke:#000000;stroke-width:1.25" />
            <path
               d="m 304.83417,293.32976 -3.75,3.75 m 3.75,0 -3.75,3.75 m 3.75,0 -3.75,3.75 m 3.75,0 -3.75,3.75 m 3.75,0 -3.75,3.75"
               id="path3411-88-6"
               style="fill:none;stroke:#000000;stroke-width:1.25" />
          </g>
          <path
             style="fill:none;stroke:#000000;stroke-width:1px;stroke-linecap:butt;stroke-linejoin:miter;stroke-opacity:1"
             d="M 288,216 V 369"
             id="path7130"
             transform="translate(0,62.362)" />
        </g>
        <path
           transform="translate(0,62.362)"
           id="path7008"
           d="M 315,360 423,252"
           style="fill:none;stroke:#000000;stroke-width:1px;stroke-linecap:butt;stroke-linejoin:miter;stroke-opacity:1" />
        <path
           id="path6829"
           d="m 315,312.3719 v 51.99418"
           style="fill:none;stroke:#000000;stroke-width:1;stroke-linecap:butt;stroke-linejoin:miter;stroke-opacity:1" />
        <path
           id="path6831"
           d="m 314.51087,312.87266 h 51.99418"
           style="fill:none;stroke:#000000;stroke-width:1;stroke-linecap:butt;stroke-linejoin:miter;stroke-opacity:1" />
        <path
           id="path6831-3"
           d="m 315.09755,367.09042 h 51.99418"
           style="fill:none;stroke:#000000;stroke-width:1;stroke-linecap:butt;stroke-linejoin:miter;stroke-opacity:1" />
        <path
           id="path6829-4"
           d="m 369.59896,312.70806 v 55.62312"
           style="fill:none;stroke:#000000;stroke-width:1.03430903;stroke-linecap:butt;stroke-linejoin:miter;stroke-opacity:1" />
        <circle
           transform="matrix(1.25,0,0,1.25,370.10392,367.19978)"
           cx="0"
           cy="0"
           r="2.5"
           id="circle3573-4"
           style="fill:#ffffff;stroke:#000000;stroke-width:1" />
        <circle
           transform="matrix(1.25,0,0,1.25,314.87624,312.7345)"
           cx="0"
           cy="0"
           r="2.5"
           id="circle3573-5"
           style="fill:#ffffff;stroke:#000000;stroke-width:1" />
        <path
           id="path6831-5"
           d="m 369.90199,312.87266 h 51.99418"
           style="fill:none;stroke:#000000;stroke-width:1;stroke-linecap:butt;stroke-linejoin:miter;stroke-opacity:1" />
        <circle
           transform="matrix(1.25,0,0,1.25,369.22768,312.7345)"
           cx="0"
           cy="0"
           r="2.5"
           id="circle3573"
           style="fill:#ffffff;stroke:#000000;stroke-width:1" />
        <path
           id="path6829-3"
           d="m 315,367.3719 v 51.99418"
           style="fill:none;stroke:#000000;stroke-width:1;stroke-linecap:butt;stroke-linejoin:miter;stroke-opacity:1" />
        <circle
           transform="matrix(1.25,0,0,1.25,314.87624,366.98202)"
           cx="0"
           cy="0"
           r="2.5"
           id="circle3573-9"
           style="fill:#ffffff;stroke:#000000;stroke-width:1" />
        <circle
           transform="matrix(1.25,0,0,1.25,425.51488,312.72458)"
           cx="0"
           cy="0"
           r="2.5"
           id="circle3573-4-3"
           style="fill:#ffffff;stroke:#000000;stroke-width:1" />
        <circle
           transform="matrix(1.25,0,0,1.25,314.89608,422.86818)"
           cx="0"
           cy="0"
           r="2.5"
           id="circle3573-4-37"
           style="fill:#ffffff;stroke:#000000;stroke-width:1" />
      </g>
    </g>
  </g>
</svg>
