<?xml version="1.0" encoding="UTF-8" standalone="no"?>
<!-- Created with Inkscape (http://www.inkscape.org/) -->

<svg
   xmlns:ns0="http://www.iki.fi/pav/software/textext/"
   xmlns:dc="http://purl.org/dc/elements/1.1/"
   xmlns:cc="http://creativecommons.org/ns#"
   xmlns:rdf="http://www.w3.org/1999/02/22-rdf-syntax-ns#"
   xmlns:svg="http://www.w3.org/2000/svg"
   xmlns="http://www.w3.org/2000/svg"
   xmlns:xlink="http://www.w3.org/1999/xlink"
   xmlns:sodipodi="http://sodipodi.sourceforge.net/DTD/sodipodi-0.dtd"
   xmlns:inkscape="http://www.inkscape.org/namespaces/inkscape"
   width="227.88297"
   height="134.71335"
   id="svg2"
   version="1.1"
   inkscape:version="0.92.4 (unknown)"
   sodipodi:docname="p1.svg">
  <sodipodi:namedview
     id="base"
     pagecolor="#ffffff"
     bordercolor="#666666"
     borderopacity="1.0"
     inkscape:pageopacity="0.0"
     inkscape:pageshadow="2"
     inkscape:zoom="2.02"
     inkscape:cx="78.12508"
     inkscape:cy="64.338796"
     inkscape:document-units="in"
     inkscape:current-layer="layer1"
     showgrid="true"
     units="in"
     inkscape:window-width="1179"
     inkscape:window-height="979"
     inkscape:window-x="621"
     inkscape:window-y="26"
     inkscape:window-maximized="0"
     showguides="true"
     fit-margin-top="0.1"
     fit-margin-bottom="0.1"
     fit-margin-left="0.1"
     fit-margin-right="0.1">
    <inkscape:grid
       spacingy="9"
       spacingx="9"
       units="in"
       snapvisiblegridlinesonly="true"
       enabled="true"
       visible="true"
       empspacing="5"
       id="grid2985"
       type="xygrid"
       originx="0"
       originy="0" />
    <sodipodi:guide
       id="guide3042"
       orientation="0,765"
       position="-181.28318,-648"
       inkscape:locked="false" />
    <sodipodi:guide
       id="guide3044"
       orientation="-990,0"
       position="583.71682,-648"
       inkscape:locked="false" />
    <sodipodi:guide
       id="guide3046"
       orientation="0,-765"
       position="583.71682,342"
       inkscape:locked="false" />
    <sodipodi:guide
       id="guide3048"
       orientation="990,0"
       position="-181.28318,342"
       inkscape:locked="false" />
    <sodipodi:guide
       id="guide3050"
       orientation="0,765"
       position="538.71682,-603"
       inkscape:locked="false" />
    <sodipodi:guide
       id="guide3052"
       orientation="-990,0"
       position="538.71682,252"
       inkscape:locked="false" />
    <sodipodi:guide
       id="guide3054"
       orientation="0,-765"
       position="-118.28318,252"
       inkscape:locked="false" />
    <sodipodi:guide
       id="guide3056"
       orientation="990,0"
       position="-91.283186,279"
       inkscape:locked="false" />
  </sodipodi:namedview>
  <script
     id="script3033"
     xlink:href="" />
  <defs
     id="defs4">
    <marker
       inkscape:stockid="Arrow1Sstart"
       orient="auto"
       refY="0"
       refX="0"
       id="Arrow1Sstart"
       style="overflow:visible">
      <path
         id="path4254"
         d="M 0,0 5,-5 -12.5,0 5,5 0,0 z"
         style="fill-rule:evenodd;stroke:#000000;stroke-width:1pt;marker-start:none"
         transform="matrix(0.2,0,0,0.2,1.2,0)"
         inkscape:connector-curvature="0" />
    </marker>
    <marker
       inkscape:stockid="Arrow1Mstart"
       orient="auto"
       refY="0"
       refX="0"
       id="Arrow1Mstart"
       style="overflow:visible">
      <path
         id="path4248"
         d="M 0,0 5,-5 -12.5,0 5,5 0,0 z"
         style="fill-rule:evenodd;stroke:#000000;stroke-width:1pt;marker-start:none"
         transform="matrix(0.4,0,0,0.4,4,0)"
         inkscape:connector-curvature="0" />
    </marker>
    <marker
       inkscape:stockid="DimensionTick"
       orient="auto"
       refY="0"
       refX="0"
       id="DimensionTick"
       style="overflow:visible">
      <path
         d="M 0,0 8,8"
         style="stroke:#000000;stroke-width:1pt;marker-start:none"
         transform="translate(-4,-4)"
         id="path4233"
         inkscape:connector-curvature="0" />
    </marker>
  </defs>
  <metadata
     id="metadata7">
    <rdf:RDF>
      <cc:Work
         rdf:about="">
        <dc:format>image/svg+xml</dc:format>
        <dc:type
           rdf:resource="http://purl.org/dc/dcmitype/StillImage" />
        <dc:title />
        <cc:license
           rdf:resource="http://creativecommons.org/licenses/by-nc/3.0/" />
      </cc:Work>
      <cc:License
         rdf:about="http://creativecommons.org/licenses/by-nc/3.0/">
        <cc:permits
           rdf:resource="http://creativecommons.org/ns#Reproduction" />
        <cc:permits
           rdf:resource="http://creativecommons.org/ns#Distribution" />
        <cc:requires
           rdf:resource="http://creativecommons.org/ns#Notice" />
        <cc:requires
           rdf:resource="http://creativecommons.org/ns#Attribution" />
        <cc:prohibits
           rdf:resource="http://creativecommons.org/ns#CommercialUse" />
        <cc:permits
           rdf:resource="http://creativecommons.org/ns#DerivativeWorks" />
      </cc:License>
    </rdf:RDF>
  </metadata>
  <g
     transform="translate(-181.28318,-269.64865)"
     id="layer1"
     inkscape:groupmode="layer"
     inkscape:label="Layer 1">
    <g
       id="g5638"
       transform="translate(-3.980198,0)">
      <path
         style="fill:none;stroke:#000000;stroke-width:3;stroke-linecap:butt;stroke-linejoin:miter;stroke-miterlimit:4;stroke-opacity:1;stroke-dasharray:none;stroke-dashoffset:0"
         d="m 225,225 63,27 63,0 45,45"
         id="path2994"
         inkscape:connector-curvature="0"
         transform="translate(0,62.362)" />
      <g
         id="use3511"
         transform="matrix(1.25,0,0,1.25,224.76519,286.57834)">
        <title
           id="title3743">Fixed Support</title>
        <path
           d="M 0,-6 0,6"
           id="path3409"
           inkscape:connector-curvature="0"
           style="fill:none;stroke:#000000;stroke-width:1" />
        <path
           d="m 0,-6 -3,3 m 3,0 -3,3 m 3,0 -3,3 m 3,0 -3,3 m 3,0 -3,3"
           id="path3411"
           inkscape:connector-curvature="0"
           style="fill:none;stroke:#000000;stroke-width:1" />
      </g>
      <g
         id="g10775"
         transform="translate(140.56019,4.105029)">
        <title
           id="title3737">Pin Support</title>
        <g
           transform="matrix(1.25,0,0,1.25,255.65647,356.59727)"
           id="use90">
          <path
             sodipodi:nodetypes="cccc"
             style="fill:#000000;stroke:#000000;stroke-width:0"
             inkscape:connector-curvature="0"
             id="path5224"
             d="m 0.19825424,-1.057356 4.99127116,6.9251865 -10.5112203,0 z" />
          <path
             style="fill:none;stroke:#000000;stroke-width:1"
             inkscape:connector-curvature="0"
             id="path5226"
             d="M -6,6 6,6" />
          <path
             style="fill:none;stroke:#000000;stroke-width:1"
             inkscape:connector-curvature="0"
             id="path5228"
             d="M 6,6 3,9 M 3,6 0,9 M 0,6 -3,9 m 0,-3 -3,3 m 0,-3 -3,3" />
        </g>
      </g>
      <g
         id="use3513"
         transform="matrix(1.25,0,0,1.25,288.3525,314.78178)">
        <circle
           d="M 2.5,0 C 2.5,1.3807119 1.3807119,2.5 0,2.5 -1.3807119,2.5 -2.5,1.3807119 -2.5,0 c 0,-1.3807119 1.1192881,-2.5 2.5,-2.5 1.3807119,0 2.5,1.1192881 2.5,2.5 z"
           cx="0"
           cy="0"
           r="2.5"
           id="circle3573"
           sodipodi:cx="0"
           sodipodi:cy="0"
           sodipodi:rx="2.5"
           sodipodi:ry="2.5"
           style="fill:#ffffff;stroke:#000000;stroke-width:1" />
      </g>
      <g
         id="use3513-2"
         transform="matrix(1.25,0,0,1.25,351.3525,314.37583)">
        <circle
           d="M 2.5,0 C 2.5,1.3807119 1.3807119,2.5 0,2.5 -1.3807119,2.5 -2.5,1.3807119 -2.5,0 c 0,-1.3807119 1.1192881,-2.5 2.5,-2.5 1.3807119,0 2.5,1.1192881 2.5,2.5 z"
           cx="0"
           cy="0"
           r="2.5"
           id="circle3573-5"
           sodipodi:cx="0"
           sodipodi:cy="0"
           sodipodi:rx="2.5"
           sodipodi:ry="2.5"
           style="fill:#ffffff;stroke:#000000;stroke-width:1" />
      </g>
      <g
         transform="matrix(1.25,0,0,1.25,396.49505,359.70235)"
         id="g3413">
        <circle
           style="fill:#ffffff;stroke:#000000;stroke-width:1"
           sodipodi:ry="2.5"
           sodipodi:rx="2.5"
           sodipodi:cy="0"
           sodipodi:cx="0"
           id="circle3415"
           r="2.5"
           cy="0"
           cx="0"
           d="M 2.5,0 C 2.5,1.3807119 1.3807119,2.5 0,2.5 -1.3807119,2.5 -2.5,1.3807119 -2.5,0 c 0,-1.3807119 1.1192881,-2.5 2.5,-2.5 1.3807119,0 2.5,1.1192881 2.5,2.5 z" />
      </g>
      <path
         style="fill:none;stroke:#4d4d4d;stroke-width:0.75;stroke-linecap:butt;stroke-linejoin:miter;stroke-miterlimit:4;stroke-opacity:1;stroke-dasharray:none;stroke-dashoffset:0"
         d="m 216,225 -18,0"
         id="path3417"
         inkscape:connector-curvature="0"
         transform="translate(0,62.362)" />
      <path
         style="fill:none;stroke:#4d4d4d;stroke-width:0.75;stroke-linecap:butt;stroke-linejoin:miter;stroke-miterlimit:4;stroke-opacity:1;stroke-dasharray:none;stroke-dashoffset:0"
         d="m 216,252 -18,0"
         id="path3419"
         inkscape:connector-curvature="0"
         transform="translate(0,62.362)" />
      <path
         style="fill:none;stroke:#4d4d4d;stroke-width:0.75;stroke-linecap:butt;stroke-linejoin:miter;stroke-miterlimit:4;stroke-opacity:1;stroke-dasharray:none;stroke-dashoffset:0"
         d="m 216,297 -18,0"
         id="path3421"
         inkscape:connector-curvature="0"
         transform="translate(0,62.362)"
         sodipodi:nodetypes="cc" />
      <path
         style="fill:none;stroke:#4d4d4d;stroke-width:0.72000003;stroke-linecap:butt;stroke-linejoin:miter;stroke-miterlimit:4;stroke-opacity:1;stroke-dasharray:none;stroke-dashoffset:0;marker-start:url(#DimensionTick);marker-mid:url(#DimensionTick);marker-end:url(#DimensionTick)"
         d="m 207,225 0,27 0,45"
         id="path3423"
         inkscape:connector-curvature="0"
         transform="translate(0,62.362)"
         sodipodi:nodetypes="ccc" />
      <path
         style="fill:none;stroke:#4d4d4d;stroke-width:0.75;stroke-linecap:butt;stroke-linejoin:miter;stroke-miterlimit:4;stroke-opacity:1;stroke-dasharray:none;stroke-dashoffset:0"
         d="m 225,315 0,18"
         id="path3425"
         inkscape:connector-curvature="0"
         transform="translate(0,62.362)" />
      <path
         style="fill:none;stroke:#4d4d4d;stroke-width:0.75;stroke-linecap:butt;stroke-linejoin:miter;stroke-miterlimit:4;stroke-opacity:1;stroke-dasharray:none;stroke-dashoffset:0"
         d="m 288,315 0,18"
         id="path3427"
         inkscape:connector-curvature="0"
         transform="translate(0,62.362)" />
      <path
         style="fill:none;stroke:#4d4d4d;stroke-width:0.75;stroke-linecap:butt;stroke-linejoin:miter;stroke-miterlimit:4;stroke-opacity:1;stroke-dasharray:none;stroke-dashoffset:0"
         d="m 351,315 0,18"
         id="path3429"
         inkscape:connector-curvature="0"
         transform="translate(0,62.362)" />
      <path
         style="fill:none;stroke:#4d4d4d;stroke-width:0.75;stroke-linecap:butt;stroke-linejoin:miter;stroke-miterlimit:4;stroke-opacity:1;stroke-dasharray:none;stroke-dashoffset:0"
         d="m 396,315 0,18"
         id="path3431"
         inkscape:connector-curvature="0"
         transform="translate(0,62.362)" />
      <path
         style="fill:none;stroke:#4d4d4d;stroke-width:0.72000003;stroke-linecap:butt;stroke-linejoin:miter;stroke-miterlimit:4;stroke-opacity:1;stroke-dasharray:none;stroke-dashoffset:0;marker-start:url(#DimensionTick);marker-mid:url(#DimensionTick);marker-end:url(#DimensionTick)"
         d="m 225,324 63,0 63,0 45,0"
         id="path3433"
         inkscape:connector-curvature="0"
         transform="translate(0,62.362)" />
      <text
         xml:space="preserve"
         style="font-style:normal;font-variant:normal;font-weight:normal;font-stretch:normal;line-height:0%;font-family:Verdana;-inkscape-font-specification:Sans;text-align:start;letter-spacing:0px;word-spacing:0px;writing-mode:lr-tb;text-anchor:start;fill:#000000;fill-opacity:1;stroke:none"
         x="252.97031"
         y="319.20792"
         id="text5065"
         transform="translate(0,62.362)"><tspan
           sodipodi:role="line"
           id="tspan5067"
           x="252.97031"
           y="319.20792"
           style="font-size:11px;line-height:1.25">7m</tspan></text>
      <text
         xml:space="preserve"
         style="font-style:normal;font-variant:normal;font-weight:normal;font-stretch:normal;line-height:0%;font-family:Verdana;-inkscape-font-specification:Sans;text-align:start;letter-spacing:0px;word-spacing:0px;writing-mode:lr-tb;text-anchor:start;fill:#000000;fill-opacity:1;stroke:none"
         x="319.80197"
         y="382.04517"
         id="text5069"><tspan
           sodipodi:role="line"
           id="tspan5071"
           x="319.80197"
           y="382.04517"
           style="font-size:11px;line-height:1.25">7m</tspan></text>
      <text
         xml:space="preserve"
         style="font-style:normal;font-variant:normal;font-weight:normal;font-stretch:normal;line-height:0%;font-family:Verdana;-inkscape-font-specification:Sans;text-align:start;letter-spacing:0px;word-spacing:0px;writing-mode:lr-tb;text-anchor:start;fill:#000000;fill-opacity:1;stroke:none"
         x="368.31683"
         y="381.58972"
         id="text5073"><tspan
           sodipodi:role="line"
           id="tspan5075"
           x="368.31683"
           y="381.58972"
           style="font-size:11px;line-height:1.25">5m</tspan></text>
      <text
         xml:space="preserve"
         style="font-style:normal;font-variant:normal;font-weight:normal;font-stretch:normal;line-height:0%;font-family:Verdana;-inkscape-font-specification:Sans;text-align:start;letter-spacing:0px;word-spacing:0px;writing-mode:lr-tb;text-anchor:start;fill:#000000;fill-opacity:1;stroke:none"
         x="-346.33478"
         y="202.3979"
         id="text5077"
         transform="rotate(-90)"><tspan
           sodipodi:role="line"
           id="tspan5079"
           x="-346.33478"
           y="202.3979"
           style="font-size:11px;line-height:1.25">5m</tspan></text>
      <text
         xml:space="preserve"
         style="font-style:normal;font-variant:normal;font-weight:normal;font-stretch:normal;line-height:0%;font-family:Verdana;-inkscape-font-specification:Sans;text-align:start;letter-spacing:0px;word-spacing:0px;writing-mode:lr-tb;text-anchor:start;fill:#000000;fill-opacity:1;stroke:none"
         x="-310.69287"
         y="202.42744"
         id="text5081"
         transform="rotate(-90)"><tspan
           sodipodi:role="line"
           id="tspan5083"
           x="-310.69287"
           y="202.42744"
           style="font-size:11px;line-height:1.25">3m</tspan></text>
      <path
         style="fill:none;stroke:#4d4d4d;stroke-width:0.72000003;stroke-linecap:butt;stroke-linejoin:miter;stroke-miterlimit:4;stroke-opacity:1;stroke-dasharray:none;stroke-dashoffset:0"
         d="m 320.0099,305.362 0,18"
         id="path5104"
         inkscape:connector-curvature="0" />
      <text
         xml:space="preserve"
         style="font-style:normal;font-variant:normal;font-weight:normal;font-stretch:normal;line-height:0%;font-family:Verdana;-inkscape-font-specification:Sans;text-align:start;letter-spacing:0px;word-spacing:0px;writing-mode:lr-tb;text-anchor:start;fill:#000000;fill-opacity:1;stroke:none"
         x="316.77228"
         y="331.13428"
         id="text5106"><tspan
           sodipodi:role="line"
           id="tspan5108"
           x="316.77228"
           y="331.13428"
           style="font-size:11px;line-height:1.25">a</tspan></text>
      <g
         style="font-style:normal;font-variant:normal;font-weight:normal;font-stretch:normal;letter-spacing:normal;word-spacing:normal;text-anchor:start;fill:none;stroke:#000000;stroke-linecap:butt;stroke-linejoin:miter;stroke-miterlimit:10.43299961;stroke-opacity:1;stroke-dasharray:none;stroke-dashoffset:0"
         id="content"
         transform="matrix(1.1,0,0,-1.1,103.639,1121.363)"
         xml:space="preserve"
         stroke-miterlimit="10.433"
         font-style="normal"
         font-variant="normal"
         font-weight="normal"
         font-stretch="normal"
         font-size-adjust="none"
         letter-spacing="normal"
         word-spacing="normal"
         ns0:text="\\[\n\\Delta T = 50^\\circ C\n\\]"
         ns0:preamble="/home/nholtz/work/share/config/inkscape/extensions/amspreamble.tex">
<path
   style="fill:#000000;stroke-width:0"
   inkscape:connector-curvature="0"
   d="m 157.88,708.75 0,0.01 -0.01,0.01 -0.01,0.02 0,0.01 -0.01,0.01 0,0.01 -0.01,0.01 -0.01,0.01 0,0.01 -0.01,0.01 0,0 -0.01,0.01 -0.01,0.01 0,0.01 -0.01,0 -0.01,0.01 0,0 -0.01,0.01 -0.01,0 -0.01,0.01 -0.01,0 -0.01,0.01 -0.01,0 -0.01,0 -0.01,0.01 -0.01,0 -0.01,0 -0.02,0 -0.01,0 -0.02,0 -0.01,0 -0.02,0 c -0.19,0 -0.21,-0.05 -0.28,-0.19 l -0.07,-0.9 2.93,-5.87 h -5.87 l 2.94,5.87 0.07,0.9 -3.68,-7.38 c -0.06,-0.1 -0.06,-0.12 -0.06,-0.14 0,-0.08 0.07,-0.08 0.24,-0.08 h 7.56 c 0.17,0 0.24,0 0.24,0.08 0,0.02 0,0.04 -0.06,0.14 z"
   id="path5169" />
<path
   style="fill:#000000;stroke-width:0"
   inkscape:connector-curvature="0"
   d="m 166.81,707.76 0.01,0.02 0.01,0.03 0,0.03 0.01,0.02 0.01,0.02 0,0.02 0.01,0.03 0,0.01 0.01,0.02 0.01,0.02 0,0.02 0.01,0.01 0.01,0.01 0,0.02 0.01,0.01 0.01,0.01 0,0.01 0.01,0.01 0.01,0.01 0.01,0.01 0,0.01 0.01,0 0.01,0.01 0.01,0.01 0.01,0 0.01,0.01 0.01,0 0.01,0.01 0.01,0 0.01,0 0.01,0.01 0.01,0 c 0.1,0.02 0.46,0.02 0.69,0.02 1.1,0 1.59,-0.04 1.59,-0.89 0,-0.16 -0.05,-0.59 -0.09,-0.87 -0.01,-0.05 -0.03,-0.18 -0.03,-0.21 0,-0.06 0.03,-0.14 0.13,-0.14 0.12,0 0.14,0.09 0.16,0.25 l 0.3,1.9 c 0.01,0.04 0.02,0.15 0.02,0.18 0,0.12 -0.11,0.12 -0.3,0.12 h -6.04 c -0.26,0 -0.27,-0.01 -0.35,-0.22 l -0.65,-1.91 c -0.01,-0.03 -0.07,-0.18 -0.07,-0.2 0,-0.07 0.06,-0.12 0.13,-0.12 0.11,0 0.12,0.05 0.19,0.23 0.59,1.69 0.87,1.88 2.48,1.88 h 0.43 c 0.3,0 0.3,-0.04 0.3,-0.13 0,-0.06 -0.03,-0.2 -0.04,-0.23 l -1.46,-5.81 c -0.1,-0.41 -0.13,-0.52 -1.3,-0.52 -0.39,0 -0.45,0 -0.45,-0.21 0,-0.13 0.12,-0.13 0.18,-0.13 0.3,0 0.6,0.02 0.89,0.02 0.31,0 0.62,0.01 0.93,0.01 0.3,0 0.61,-0.01 0.9,-0.01 0.32,0 0.64,-0.02 0.95,-0.02 0.11,0 0.24,0 0.24,0.22 0,0.12 -0.09,0.12 -0.37,0.12 -0.27,0 -0.41,0 -0.7,0.02 -0.31,0.03 -0.4,0.06 -0.4,0.24 0,0.01 0,0.06 0.04,0.23 z"
   id="path5171" />
<path
   style="fill:#000000;stroke-width:0"
   inkscape:connector-curvature="0"
   d="m 180.56,704.71 0.03,0 0.04,0 0.03,0 0.01,0 0.02,0 0.02,0 0.01,0 0.02,0.01 0.01,0 0.02,0 0.01,0.01 0.02,0 0.01,0.01 0.01,0 0.02,0.01 0.01,0 0.01,0.01 0.01,0.01 0.01,0.01 0.01,0.01 0.01,0.01 0,0.01 0.01,0 0,0.01 0,0 0.01,0.01 0,0.01 0,0.01 0,0 0.01,0.01 0,0.01 0,0.01 0,0.01 0,0.01 0,0.01 0,0.01 0,0.01 c 0,0.21 -0.2,0.21 -0.36,0.21 h -6.52 c -0.15,0 -0.36,0 -0.36,-0.21 0,-0.22 0.21,-0.22 0.37,-0.22 z"
   id="path5173" />
<path
   style="fill:#000000;stroke-width:0"
   inkscape:connector-curvature="0"
   d="m 180.57,702.6 0.02,0 0.01,0 0.03,0 0.03,0 0.02,0 0.01,0 0.02,0 0.01,0 0.02,0 0.01,0.01 0.02,0 0.01,0 0.02,0.01 0.01,0 0.01,0.01 0.02,0 0.01,0.01 0.01,0.01 0.01,0.01 0.01,0.01 0.01,0.01 0,0 0.01,0.01 0,0 0.01,0.01 0,0.01 0,0 0.01,0.01 0,0.01 0,0 0,0.01 0.01,0.01 0,0.01 0,0.01 0,0.01 0,0 0,0.01 0,0.01 0,0.01 c 0,0.22 -0.2,0.22 -0.37,0.22 h -6.5 c -0.16,0 -0.37,0 -0.37,-0.22 0,-0.21 0.21,-0.21 0.36,-0.21 z"
   id="path5175" />
<path
   style="fill:#000000;stroke-width:0"
   inkscape:connector-curvature="0"
   d="m 189.49,703.34 0,0.12 -0.01,0.12 -0.01,0.12 -0.02,0.11 -0.02,0.12 -0.03,0.11 -0.03,0.11 -0.04,0.11 -0.04,0.1 -0.04,0.1 -0.05,0.1 -0.06,0.1 -0.05,0.09 -0.06,0.09 -0.07,0.09 -0.06,0.08 -0.08,0.08 -0.07,0.08 -0.08,0.07 -0.08,0.07 -0.08,0.06 -0.09,0.06 -0.09,0.05 -0.09,0.05 -0.1,0.04 -0.09,0.04 -0.1,0.03 -0.1,0.03 -0.11,0.02 -0.1,0.02 -0.11,0.01 -0.11,0 c -0.52,0 -0.99,-0.17 -1.38,-0.55 v 2.12 c 0.22,-0.07 0.57,-0.14 0.92,-0.14 1.34,0 2.1,0.99 2.1,1.13 0,0.06 -0.03,0.12 -0.1,0.12 -0.02,0 -0.04,0 -0.09,-0.03 -0.22,-0.1 -0.75,-0.32 -1.48,-0.32 -0.44,0 -0.94,0.08 -1.45,0.31 -0.09,0.03 -0.11,0.03 -0.13,0.03 -0.11,0 -0.11,-0.09 -0.11,-0.26 v -3.22 c 0,-0.2 0,-0.29 0.15,-0.29 0.08,0 0.1,0.03 0.14,0.1 0.12,0.17 0.53,0.76 1.41,0.76 0.56,0 0.84,-0.5 0.92,-0.7 0.18,-0.4 0.2,-0.82 0.2,-1.37 0,-0.38 0,-1.03 -0.26,-1.49 -0.26,-0.42 -0.67,-0.71 -1.17,-0.71 -0.79,0 -1.41,0.58 -1.6,1.22 0.03,-0.01 0.07,-0.02 0.19,-0.02 0.36,0 0.54,0.27 0.54,0.54 0,0.26 -0.18,0.53 -0.54,0.53 -0.16,0 -0.54,-0.08 -0.54,-0.58 0,-0.93 0.76,-1.99 1.98,-1.99 1.26,0 2.37,1.04 2.37,2.43 z"
   id="path5177" />
<path
   style="fill:#000000;stroke-width:0"
   inkscape:connector-curvature="0"
   d="m 195.06,704.63 0,0.17 0,0.16 0,0.16 -0.01,0.16 -0.01,0.17 -0.01,0.16 -0.02,0.16 -0.02,0.16 -0.03,0.16 -0.03,0.16 -0.03,0.16 -0.04,0.15 -0.05,0.16 -0.05,0.15 -0.06,0.16 -0.04,0.07 -0.03,0.08 c -0.5,1.05 -1.4,1.22 -1.85,1.22 -0.66,0 -1.45,-0.28 -1.9,-1.3 -0.35,-0.75 -0.4,-1.6 -0.4,-2.47 0,-0.81 0.04,-1.79 0.49,-2.62 0.47,-0.88 1.26,-1.1 1.8,-1.1 v 0.24 c -0.43,0 -1.07,0.27 -1.27,1.32 -0.12,0.65 -0.12,1.65 -0.12,2.29 0,0.7 0,1.42 0.09,2.01 0.21,1.29 1.02,1.39 1.3,1.39 0.35,0 1.07,-0.2 1.28,-1.27 0.11,-0.61 0.11,-1.44 0.11,-2.13 0,-0.81 0,-1.55 -0.12,-2.25 -0.16,-1.04 -0.78,-1.36 -1.27,-1.36 h 0 v -0.24 c 0.58,0 1.41,0.23 1.89,1.26 0.35,0.75 0.4,1.6 0.4,2.46 z"
   id="path5179" />
<path
   style="fill:#000000;stroke-width:0"
   inkscape:connector-curvature="0"
   d="m 199.26,707.64 -0.01,0.08 0,0.09 -0.01,0.08 -0.02,0.08 -0.02,0.08 -0.02,0.08 -0.02,0.08 -0.03,0.07 -0.04,0.07 -0.03,0.08 -0.04,0.06 -0.04,0.07 -0.05,0.07 -0.05,0.06 -0.05,0.06 -0.05,0.05 -0.06,0.06 -0.06,0.05 -0.06,0.05 -0.07,0.04 -0.06,0.05 -0.07,0.04 -0.07,0.03 -0.07,0.04 -0.08,0.02 -0.08,0.03 -0.07,0.02 -0.08,0.02 -0.08,0.02 -0.09,0.01 -0.08,0 -0.08,0 c -0.91,0 -1.64,-0.73 -1.64,-1.64 0,-0.92 0.73,-1.65 1.64,-1.65 v 0.37 c -0.71,0 -1.28,0.56 -1.28,1.28 0,0.71 0.57,1.28 1.28,1.28 0.7,0 1.27,-0.57 1.27,-1.28 0,-0.72 -0.57,-1.28 -1.27,-1.28 h 0 v -0.37 c 0.9,0 1.64,0.73 1.64,1.65 z"
   id="path5181" />
<path
   style="fill:#000000;stroke-width:0"
   inkscape:connector-curvature="0"
   d="m 208.51,708.72 0,0 0,0 0,0.01 0,0 0,0 0,0.01 0,0 0,0.01 0,0 0,0.01 -0.01,0 0,0 0,0.01 0,0 -0.01,0.01 0,0 0,0.01 -0.01,0 0,0 0,0.01 -0.01,0 0,0.01 -0.01,0 -0.01,0 0,0 0,0.01 -0.01,0 0,0 0,0 -0.01,0 0,0 -0.01,0 0,0 0,0 -0.01,0 0,0 -0.01,0 0,0 0,0 c -0.04,0 -0.05,-0.01 -0.17,-0.13 l -0.76,-0.84 c -0.1,0.16 -0.6,0.97 -1.81,0.97 -2.43,0 -4.88,-2.4 -4.88,-4.93 0,-1.8 1.29,-2.98 2.95,-2.98 0.95,0 1.78,0.43 2.36,0.93 1.01,0.9 1.19,1.89 1.19,1.92 0,0.11 -0.1,0.11 -0.13,0.11 -0.06,0 -0.12,-0.02 -0.14,-0.11 -0.1,-0.31 -0.35,-1.09 -1.1,-1.72 -0.75,-0.61 -1.43,-0.79 -2,-0.79 -0.98,0 -2.14,0.56 -2.14,2.26 0,0.62 0.23,2.39 1.32,3.66 0.67,0.77 1.69,1.32 2.66,1.32 1.11,0 1.75,-0.84 1.75,-2.1 0,-0.44 -0.03,-0.45 -0.03,-0.56 0,-0.11 0.12,-0.11 0.16,-0.11 0.14,0 0.14,0.02 0.2,0.22 z"
   id="path5183" />
</g>    </g>
  </g>
</svg>
