<?xml version="1.0" encoding="UTF-8" standalone="no"?>
<!-- Created with wpg2svg/libwpg 0.2.0 -->

<svg
   xmlns:dc="http://purl.org/dc/elements/1.1/"
   xmlns:cc="http://creativecommons.org/ns#"
   xmlns:rdf="http://www.w3.org/1999/02/22-rdf-syntax-ns#"
   xmlns:svg="http://www.w3.org/2000/svg"
   xmlns="http://www.w3.org/2000/svg"
   xmlns:sodipodi="http://sodipodi.sourceforge.net/DTD/sodipodi-0.dtd"
   xmlns:inkscape="http://www.inkscape.org/namespaces/inkscape"
   version="1.1"
   width="640.8"
   height="244.8"
   id="svg2"
   inkscape:version="0.48.1 r9760"
   sodipodi:docname="S-3-2.svg">
  <metadata
     id="metadata174">
    <rdf:RDF>
      <cc:Work
         rdf:about="">
        <dc:format>image/svg+xml</dc:format>
        <dc:type
           rdf:resource="http://purl.org/dc/dcmitype/StillImage" />
        <dc:title></dc:title>
      </cc:Work>
    </rdf:RDF>
  </metadata>
  <defs
     id="defs172" />
  <sodipodi:namedview
     pagecolor="#ffffff"
     bordercolor="#666666"
     borderopacity="1"
     objecttolerance="10"
     gridtolerance="10"
     guidetolerance="10"
     inkscape:pageopacity="0"
     inkscape:pageshadow="2"
     inkscape:window-width="640"
     inkscape:window-height="480"
     id="namedview170"
     showgrid="false"
     inkscape:zoom="0.80212236"
     inkscape:cx="320.39999"
     inkscape:cy="137.36031"
     inkscape:window-x="613"
     inkscape:window-y="204"
     inkscape:window-maximized="0"
     inkscape:current-layer="svg2" />
  <g
     id="g3252"
     inkscape:export-filename="/home/nholtz/3203/drawings/SDTrusses/Equilibrium/MethodOfSections/S-3-2.png"
     inkscape:export-xdpi="90"
     inkscape:export-ydpi="90">
    <ellipse
       id="ellipse4"
       style="stroke-width: 1.0; stroke: #000000; fill: none; "
       ry="3.84"
       rx="3.84"
       cy="156.42"
       cx="43.8" />
    <ellipse
       id="ellipse6"
       style="stroke-width: 1.0; stroke: #000000; fill: none; "
       ry="3.84"
       rx="3.84"
       cy="156.48"
       cx="130.14" />
    <ellipse
       id="ellipse8"
       style="stroke-width: 1.0; stroke: #000000; fill: none; "
       ry="3.84"
       rx="3.84"
       cy="157.62"
       cx="216.48" />
    <ellipse
       id="ellipse10"
       style="stroke-width: 1.0; stroke: #000000; fill: none; "
       ry="3.84"
       rx="3.84"
       cy="156.48"
       cx="303.96" />
    <ellipse
       id="ellipse12"
       style="stroke-width: 1.0; stroke: #000000; fill: none; "
       ry="3.84"
       rx="3.84"
       cy="156.48"
       cx="389.22" />
    <ellipse
       id="ellipse14"
       style="stroke-width: 1.0; stroke: #000000; fill: none; "
       ry="3.84"
       rx="3.84"
       cy="157.62"
       cx="476.76" />
    <ellipse
       id="ellipse16"
       style="stroke-width: 1.0; stroke: #000000; fill: none; "
       ry="3.84"
       rx="3.84"
       cy="157.62"
       cx="562.02" />
    <ellipse
       id="ellipse18"
       style="stroke-width: 1.0; stroke: #000000; fill: none; "
       ry="3.84"
       rx="3.84"
       cy="71.34"
       cx="563.16" />
    <ellipse
       id="ellipse20"
       style="stroke-width: 1.0; stroke: #000000; fill: none; "
       ry="3.84"
       rx="3.84"
       cy="71.34"
       cx="476.88" />
    <ellipse
       id="ellipse22"
       style="stroke-width: 1.0; stroke: #000000; fill: none; "
       ry="3.84"
       rx="3.84"
       cy="71.34"
       cx="390.42" />
    <ellipse
       id="ellipse24"
       style="stroke-width: 1.0; stroke: #000000; fill: none; "
       ry="3.84"
       rx="3.84"
       cy="71.34"
       cx="302.88" />
    <ellipse
       id="ellipse26"
       style="stroke-width: 1.0; stroke: #000000; fill: none; "
       ry="3.84"
       rx="3.84"
       cy="70.14"
       cx="216.54" />
    <ellipse
       id="ellipse28"
       style="stroke-width: 1.0; stroke: #000000; fill: none; "
       ry="3.84"
       rx="3.84"
       cy="71.34"
       cx="130.2" />
    <ellipse
       id="ellipse30"
       style="stroke-width: 1.0; stroke: #000000; fill: none; "
       ry="3.84"
       rx="3.84"
       cy="70.14"
       cx="43.8" />
    <ellipse
       id="ellipse32"
       style="stroke-width: 1.0; stroke: #000000; fill: none; "
       ry="3.84"
       rx="3.84"
       cy="115.08"
       cx="45" />
    <ellipse
       id="ellipse34"
       style="stroke-width: 1.0; stroke: #000000; fill: none; "
       ry="3.84"
       rx="3.84"
       cy="113.88"
       cx="130.14" />
    <ellipse
       id="ellipse36"
       style="stroke-width: 1.0; stroke: #000000; fill: none; "
       ry="3.84"
       rx="3.84"
       cy="113.88"
       cx="217.68" />
    <ellipse
       id="ellipse38"
       style="stroke-width: 1.0; stroke: #000000; fill: none; "
       ry="3.84"
       rx="3.84"
       cy="115.08"
       cx="562.98" />
    <ellipse
       id="ellipse40"
       style="stroke-width: 1.0; stroke: #000000; fill: none; "
       ry="3.84"
       rx="3.84"
       cy="115.08"
       cx="476.82" />
    <ellipse
       id="ellipse42"
       style="stroke-width: 1.0; stroke: #000000; fill: none; "
       ry="3.84"
       rx="3.84"
       cy="113.88"
       cx="389.22" />
    <line
       id="line44"
       style="stroke-width: 1.0; stroke: #000000; fill: none; "
       y2="71.58"
       x2="126.96"
       y1="70.08"
       x1="47.22" />
    <line
       id="line46"
       style="stroke-width: 1.0; stroke: #000000; fill: none; "
       y2="70.8"
       x2="211.98"
       y1="71.58"
       x1="134.4" />
    <line
       id="line48"
       style="stroke-width: 1.0; stroke: #000000; fill: none; "
       y2="70.8"
       x2="299.22"
       y1="70.8"
       x1="220.08" />
    <line
       id="line50"
       style="stroke-width: 1.0; stroke: #000000; fill: none; "
       y2="156.54"
       x2="124.8"
       y1="156.54"
       x1="47.22" />
    <line
       id="line52"
       style="stroke-width: 1.0; stroke: #000000; fill: none; "
       y2="158.04"
       x2="211.98"
       y1="156.54"
       x1="135.12" />
    <line
       id="line54"
       style="stroke-width: 1.0; stroke: #000000; fill: none; "
       y2="157.32"
       x2="299.94"
       y1="157.32"
       x1="220.08" />
    <line
       id="line56"
       style="stroke-width: 1.0; stroke: #000000; fill: none; "
       y2="109.26"
       x2="44.22"
       y1="74.46"
       x1="43.5" />
    <line
       id="line58"
       style="stroke-width: 1.0; stroke: #000000; fill: none; "
       y2="152.1"
       x2="44.94"
       y1="118.86"
       x1="44.94" />
    <line
       id="line60"
       style="stroke-width: 1.0; stroke: #000000; fill: none; "
       y2="109.26"
       x2="129.96"
       y1="76.02"
       x1="129.96" />
    <line
       id="line62"
       style="stroke-width: 1.0; stroke: #000000; fill: none; "
       y2="150.66"
       x2="129.96"
       y1="117.42"
       x1="129.96" />
    <line
       id="line64"
       style="stroke-width: 1.0; stroke: #000000; fill: none; "
       y2="108.54"
       x2="216.42"
       y1="73.08"
       x1="216.42" />
    <line
       id="line66"
       style="stroke-width: 1.0; stroke: #000000; fill: none; "
       y2="152.1"
       x2="217.14"
       y1="118.14"
       x1="217.14" />
    <line
       id="line68"
       style="stroke-width: 1.0; stroke: #000000; fill: none; "
       y2="73.8"
       x2="128.46"
       y1="112.98"
       x1="47.94" />
    <line
       id="line70"
       style="stroke-width: 1.0; stroke: #000000; fill: none; "
       y2="72.3"
       x2="214.98"
       y1="112.98"
       x1="132.9" />
    <line
       id="line72"
       style="stroke-width: 1.0; stroke: #000000; fill: none; "
       y2="73.8"
       x2="301.38"
       y1="112.26"
       x1="220.08" />
    <line
       id="line74"
       style="stroke-width: 1.0; stroke: #000000; fill: none; "
       y2="154.32"
       x2="125.52"
       y1="115.92"
       x1="47.22" />
    <line
       id="line76"
       style="stroke-width: 1.0; stroke: #000000; fill: none; "
       y2="154.32"
       x2="212.7"
       y1="114.42"
       x1="132.9" />
    <line
       id="line78"
       style="stroke-width: 1.0; stroke: #000000; fill: none; "
       y2="152.1"
       x2="299.94"
       y1="115.92"
       x1="221.64" />
    <line
       id="line80"
       style="stroke-width: 1.0; stroke: #000000; fill: none; "
       y2="71.4"
       x2="385.56"
       y1="71.4"
       x1="307.2" />
    <line
       id="line82"
       style="stroke-width: 1.0; stroke: #000000; fill: none; "
       y2="71.4"
       x2="472.74"
       y1="71.4"
       x1="392.94" />
    <line
       id="line84"
       style="stroke-width: 1.0; stroke: #000000; fill: none; "
       y2="71.4"
       x2="560.7"
       y1="70.68"
       x1="480.18" />
    <line
       id="line86"
       style="stroke-width: 1.0; stroke: #000000; fill: none; "
       y2="157.14"
       x2="384.84"
       y1="157.14"
       x1="307.98" />
    <line
       id="line88"
       style="stroke-width: 1.0; stroke: #000000; fill: none; "
       y2="157.92"
       x2="472.02"
       y1="157.14"
       x1="392.16" />
    <line
       id="line90"
       style="stroke-width: 1.0; stroke: #000000; fill: none; "
       y2="157.92"
       x2="558.48"
       y1="157.92"
       x1="480.18" />
    <line
       id="line92"
       style="stroke-width: 1.0; stroke: #000000; fill: none; "
       y2="110.58"
       x2="562.92"
       y1="75.84"
       x1="562.92" />
    <line
       id="line94"
       style="stroke-width: 1.0; stroke: #000000; fill: none; "
       y2="152.7"
       x2="562.92"
       y1="118.74"
       x1="562.92" />
    <line
       id="line96"
       style="stroke-width: 1.0; stroke: #000000; fill: none; "
       y2="109.86"
       x2="477.18"
       y1="75.84"
       x1="477.18" />
    <line
       id="line98"
       style="stroke-width: 1.0; stroke: #000000; fill: none; "
       y2="151.98"
       x2="477.18"
       y1="119.46"
       x1="477.18" />
    <line
       id="line100"
       style="stroke-width: 1.0; stroke: #000000; fill: none; "
       y2="108.36"
       x2="388.5"
       y1="74.4"
       x1="388.5" />
    <line
       id="line102"
       style="stroke-width: 1.0; stroke: #000000; fill: none; "
       y2="151.26"
       x2="389.28"
       y1="118.02"
       x1="389.28" />
    <line
       id="line104"
       style="stroke-width: 1.0; stroke: #000000; fill: none; "
       y2="111.3"
       x2="386.28"
       y1="73.68"
       x1="305.7" />
    <line
       id="line106"
       style="stroke-width: 1.0; stroke: #000000; fill: none; "
       y2="113.58"
       x2="473.46"
       y1="73.68"
       x1="392.94" />
    <line
       id="line108"
       style="stroke-width: 1.0; stroke: #000000; fill: none; "
       y2="112.86"
       x2="558.48"
       y1="72.18"
       x1="477.9" />
    <line
       id="line110"
       style="stroke-width: 1.0; stroke: #000000; fill: none; "
       y2="115.74"
       x2="385.56"
       y1="154.2"
       x1="307.2" />
    <line
       id="line112"
       style="stroke-width: 1.0; stroke: #000000; fill: none; "
       y2="118.74"
       x2="474.3"
       y1="154.2"
       x1="392.16" />
    <line
       id="line114"
       style="stroke-width: 1.0; stroke: #000000; fill: none; "
       y2="116.52"
       x2="560.7"
       y1="154.92"
       x1="480.18" />
    <line
       id="line116"
       style="stroke-width: 1.0; stroke: #000000; fill: none; "
       y2="75.06"
       x2="303.54"
       y1="151.98"
       x1="304.26" />
    <line
       id="line118"
       style="stroke-width: 1.0; stroke: #000000; fill: none; "
       y2="210.9"
       x2="43.92"
       y1="163.56"
       x1="43.92" />
    <polygon
       id="polygon120"
       style="stroke-width: 1.0; stroke: #000000; fill: #000000; "
       points="43.92 163.56, 39.66 178.8, 48.12 178.8, 43.92 164.46" />
    <line
       id="line122"
       style="stroke-width: 1.0; stroke: #000000; fill: #000000; "
       y2="37.68"
       x2="130.02"
       y1="65.58"
       x1="130.02" />
    <polygon
       id="polygon124"
       style="stroke-width: 1.0; stroke: #000000; fill: #000000; "
       points="130.02 66.42, 125.76 54.54, 133.38 54.54, 130.86 65.58" />
    <line
       id="line126"
       style="stroke-width: 1.0; stroke: #000000; fill: #000000; "
       y2="212.34"
       x2="562.98"
       y1="165"
       x1="562.98" />
    <polygon
       id="polygon128"
       style="stroke-width: 1.0; stroke: #000000; fill: #000000; "
       points="562.98 165, 558.72 180.24, 567.18 180.24, 562.98 165.9" />
    <line
       id="line130"
       style="stroke-width: 1.0; stroke: #000000; fill: #000000; "
       y2="37.26"
       x2="216.96"
       y1="65.16"
       x1="216.96" />
    <polygon
       id="polygon132"
       style="stroke-width: 1.0; stroke: #000000; fill: #000000; "
       points="216.96 66, 212.7 54.12, 220.32 54.12, 217.8 65.16" />
    <line
       id="line134"
       style="stroke-width: 1.0; stroke: #000000; fill: #000000; "
       y2="37.2"
       x2="390.78"
       y1="65.1"
       x1="390.78" />
    <polygon
       id="polygon136"
       style="stroke-width: 1.0; stroke: #000000; fill: #000000; "
       points="390.78 65.94, 386.52 54.06, 394.14 54.06, 391.62 65.1" />
    <text
       id="text138"
       y="66.3"
       x="227.22">
i
</text>
    <text
       id="text140"
       y="62.64"
       x="299.34">
j
</text>
    <text
       id="text142"
       y="123"
       x="196.8">
k
</text>
    <text
       id="text144"
       y="188.04"
       x="205.98">
l
</text>
    <text
       id="text146"
       y="180.96"
       x="292.8">
m
</text>
    <ellipse
       id="ellipse148"
       style="stroke-width: 1.0; stroke: #000000; fill: none; "
       ry="13.08"
       rx="13.08"
       cy="56.16"
       cx="230.46" />
    <ellipse
       id="ellipse150"
       style="stroke-width: 1.0; stroke: #000000; fill: none; "
       ry="13.08"
       rx="13.08"
       cy="53.88"
       cx="302.52" />
    <ellipse
       id="ellipse152"
       style="stroke-width: 1.0; stroke: #000000; fill: none; "
       ry="13.08"
       rx="13.08"
       cy="172.14"
       cx="300.24" />
    <ellipse
       id="ellipse154"
       style="stroke-width: 1.0; stroke: #000000; fill: none; "
       ry="13.08"
       rx="13.08"
       cy="113.04"
       cx="200.88" />
    <ellipse
       id="ellipse156"
       style="stroke-width: 1.0; stroke: #000000; fill: none; "
       ry="13.08"
       rx="13.08"
       cy="176.88"
       cx="209.16" />
    <path
       id="path158"
       style="stroke-width: 1.0; stroke: #000000; fill: none; "
       d="  M198.54,46.74 C192.66,60.9 190.8,71.7 191.46,86.94 C192.54,104.94 196.62,117 204.48,133.02 C205.38,135.06 206.52,136.2 208.02,137.82" />
    <polyline
       id="polyline160"
       style="stroke-width: 1.0; stroke: #000000; fill: none; "
       points="198.54 46.74, 198.12 47.82, 197.7 48.84, 197.28 49.86, 196.86 50.88, 196.5 51.9, 196.14 52.92, 195.78 53.94, 195.48 54.9, 195.18 55.86, 194.88 56.88, 194.58 57.84, 194.28 58.8, 194.04 59.76, 193.74 60.72, 193.56 61.68, 193.32 62.64, 193.08 63.6, 192.9 64.5, 192.72 65.46, 192.54 66.42, 192.36 67.38, 192.24 68.34, 192.06 69.3, 191.94 70.26, 191.88 71.28, 191.76 72.24, 191.64 73.2, 191.58 74.22, 191.52 75.24, 191.46 76.2, 191.4 77.22, 191.34 78.24, 191.34 79.32, 191.34 80.34, 191.34 81.42, 191.34 82.5, 191.34 83.58, 191.4 84.66, 191.4 85.8, 191.46 86.94" />
    <polyline
       id="polyline162"
       style="stroke-width: 1.0; stroke: #000000; fill: none; "
       points="191.46 86.94, 191.52 88.26, 191.64 89.58, 191.76 90.9, 191.88 92.16, 192 93.42, 192.12 94.68, 192.3 95.88, 192.48 97.14, 192.66 98.28, 192.84 99.48, 193.02 100.68, 193.26 101.82, 193.5 102.96, 193.74 104.1, 193.98 105.18, 194.22 106.32, 194.52 107.46, 194.82 108.54, 195.12 109.62, 195.42 110.7, 195.72 111.78, 196.08 112.92, 196.44 114, 196.8 115.08, 197.16 116.16, 197.58 117.24, 198 118.32, 198.42 119.4, 198.84 120.48, 199.26 121.56, 199.74 122.7, 200.22 123.78, 200.7 124.92, 201.18 126.06, 201.72 127.2, 202.2 128.34, 202.74 129.48, 203.34 130.62, 203.88 131.82, 204.48 133.02" />
    <polyline
       id="polyline164"
       style="stroke-width: 1.0; stroke: #000000; fill: none; "
       points="204.48 133.02, 204.72 133.5, 204.96 133.98, 205.2 134.4, 205.44 134.82, 205.74 135.18, 206.04 135.6, 206.34 135.96, 206.64 136.32, 206.94 136.68, 207.3 137.04, 207.66 137.4, 208.02 137.82" />
    <polyline
       id="polyline166"
       style="stroke-width: 1.0; stroke: #000000; fill: none; "
       points="208.02 137.82, 209.04 138.96, 210.06 140.04, 211.02 141.12, 212.04 142.2, 213 143.22, 213.96 144.24, 214.92 145.26, 215.88 146.22, 216.84 147.18, 217.8 148.14, 218.76 149.1, 219.66 150.06, 220.62 150.96, 221.52 151.86, 222.48 152.76, 223.38 153.66, 224.34 154.56, 225.3 155.4, 226.2 156.3, 227.16 157.14, 228.12 158.04, 229.08 158.88, 230.04 159.72, 231 160.56, 231.96 161.4, 232.92 162.24, 233.94 163.08, 234.96 163.92, 235.98 164.76, 237 165.6, 238.02 166.5, 239.1 167.34, 240.18 168.18, 241.26 169.08, 242.34 169.92, 243.48 170.82, 244.62 171.72, 245.82 172.62, 247.02 173.52, 248.22 174.42" />
    <text
       id="text168"
       y="185.46"
       x="239.16">
sect.
</text>
  </g>
</svg>
