<?xml version="1.0" encoding="UTF-8" standalone="no"?>
<!-- Created with wpg2svg/libwpg 0.2.0 -->

<svg
   xmlns:dc="http://purl.org/dc/elements/1.1/"
   xmlns:cc="http://creativecommons.org/ns#"
   xmlns:rdf="http://www.w3.org/1999/02/22-rdf-syntax-ns#"
   xmlns:svg="http://www.w3.org/2000/svg"
   xmlns="http://www.w3.org/2000/svg"
   xmlns:sodipodi="http://sodipodi.sourceforge.net/DTD/sodipodi-0.dtd"
   xmlns:inkscape="http://www.inkscape.org/namespaces/inkscape"
   version="1.1"
   width="640.8"
   height="244.8"
   id="svg2"
   inkscape:version="0.48.1 r9760"
   sodipodi:docname="S-3-3.svg">
  <metadata
     id="metadata100">
    <rdf:RDF>
      <cc:Work
         rdf:about="">
        <dc:format>image/svg+xml</dc:format>
        <dc:type
           rdf:resource="http://purl.org/dc/dcmitype/StillImage" />
        <dc:title></dc:title>
      </cc:Work>
    </rdf:RDF>
  </metadata>
  <defs
     id="defs98" />
  <sodipodi:namedview
     pagecolor="#ffffff"
     bordercolor="#666666"
     borderopacity="1"
     objecttolerance="10"
     gridtolerance="10"
     guidetolerance="10"
     inkscape:pageopacity="0"
     inkscape:pageshadow="2"
     inkscape:window-width="640"
     inkscape:window-height="480"
     id="namedview96"
     showgrid="false"
     inkscape:zoom="0.80212236"
     inkscape:cx="320.39999"
     inkscape:cy="137.36031"
     inkscape:window-x="601"
     inkscape:window-y="130"
     inkscape:window-maximized="0"
     inkscape:current-layer="svg2" />
  <g
     id="g3077"
     inkscape:export-filename="/home/nholtz/3203/drawings/SDTrusses/Equilibrium/MethodOfSections/S-3-3.png"
     inkscape:export-xdpi="90"
     inkscape:export-ydpi="90">
    <ellipse
       id="ellipse4"
       style="stroke-width: 1.0; stroke: #000000; fill: none; "
       ry="3.84"
       rx="3.84"
       cy="156.42"
       cx="43.8" />
    <ellipse
       id="ellipse6"
       style="stroke-width: 1.0; stroke: #000000; fill: none; "
       ry="3.84"
       rx="3.84"
       cy="156.48"
       cx="130.14" />
    <ellipse
       id="ellipse8"
       style="stroke-width: 1.0; stroke: #000000; fill: none; "
       ry="3.84"
       rx="3.84"
       cy="157.62"
       cx="216.48" />
    <ellipse
       id="ellipse10"
       style="stroke-width: 1.0; stroke: #000000; fill: none; "
       ry="3.84"
       rx="3.84"
       cy="70.14"
       cx="216.54" />
    <ellipse
       id="ellipse12"
       style="stroke-width: 1.0; stroke: #000000; fill: none; "
       ry="3.84"
       rx="3.84"
       cy="71.34"
       cx="130.2" />
    <ellipse
       id="ellipse14"
       style="stroke-width: 1.0; stroke: #000000; fill: none; "
       ry="3.84"
       rx="3.84"
       cy="70.14"
       cx="43.8" />
    <ellipse
       id="ellipse16"
       style="stroke-width: 1.0; stroke: #000000; fill: none; "
       ry="3.84"
       rx="3.84"
       cy="115.08"
       cx="45" />
    <ellipse
       id="ellipse18"
       style="stroke-width: 1.0; stroke: #000000; fill: none; "
       ry="3.84"
       rx="3.84"
       cy="113.88"
       cx="130.14" />
    <line
       id="line20"
       style="stroke-width: 1.0; stroke: #000000; fill: none; "
       y2="71.58"
       x2="126.96"
       y1="70.08"
       x1="47.22" />
    <line
       id="line22"
       style="stroke-width: 1.0; stroke: #000000; fill: none; "
       y2="156.54"
       x2="124.8"
       y1="156.54"
       x1="47.22" />
    <line
       id="line24"
       style="stroke-width: 1.0; stroke: #000000; fill: none; "
       y2="158.04"
       x2="211.98"
       y1="156.54"
       x1="135.12" />
    <line
       id="line26"
       style="stroke-width: 1.0; stroke: #000000; fill: none; "
       y2="109.26"
       x2="44.22"
       y1="74.46"
       x1="43.5" />
    <line
       id="line28"
       style="stroke-width: 1.0; stroke: #000000; fill: none; "
       y2="152.1"
       x2="44.94"
       y1="118.86"
       x1="44.94" />
    <line
       id="line30"
       style="stroke-width: 1.0; stroke: #000000; fill: none; "
       y2="109.26"
       x2="129.96"
       y1="76.02"
       x1="129.96" />
    <line
       id="line32"
       style="stroke-width: 1.0; stroke: #000000; fill: none; "
       y2="150.66"
       x2="129.96"
       y1="117.42"
       x1="129.96" />
    <line
       id="line34"
       style="stroke-width: 1.0; stroke: #000000; fill: none; "
       y2="73.8"
       x2="128.46"
       y1="112.98"
       x1="47.94" />
    <line
       id="line36"
       style="stroke-width: 1.0; stroke: #000000; fill: none; "
       y2="154.32"
       x2="125.52"
       y1="115.92"
       x1="47.22" />
    <line
       id="line38"
       style="stroke-width: 1.0; stroke: #000000; fill: none; "
       y2="154.32"
       x2="212.7"
       y1="114.42"
       x1="132.9" />
    <line
       id="line40"
       style="stroke-width: 1.0; stroke: #000000; fill: none; "
       y2="210.9"
       x2="43.92"
       y1="163.56"
       x1="43.92" />
    <polygon
       id="polygon42"
       style="stroke-width: 1.0; stroke: #000000; fill: #000000; "
       points="43.92 163.56, 39.66 178.8, 48.12 178.8, 43.92 164.46" />
    <line
       id="line44"
       style="stroke-width: 1.0; stroke: #000000; fill: #000000; "
       y2="37.68"
       x2="130.02"
       y1="65.58"
       x1="130.02" />
    <polygon
       id="polygon46"
       style="stroke-width: 1.0; stroke: #000000; fill: #000000; "
       points="130.02 66.42, 125.76 54.54, 133.38 54.54, 130.86 65.58" />
    <line
       id="line48"
       style="stroke-width: 1.0; stroke: #000000; fill: #000000; "
       y2="37.26"
       x2="216.96"
       y1="65.16"
       x1="216.96" />
    <polygon
       id="polygon50"
       style="stroke-width: 1.0; stroke: #000000; fill: #000000; "
       points="216.96 66, 212.7 54.12, 220.32 54.12, 217.8 65.16" />
    <text
       id="text52"
       y="66.3"
       x="227.22">
i
</text>
    <text
       id="text54"
       y="188.04"
       x="205.98">
l
</text>
    <ellipse
       id="ellipse56"
       style="stroke-width: 1.0; stroke: #000000; fill: none; "
       ry="13.08"
       rx="13.08"
       cy="56.16"
       cx="230.46" />
    <ellipse
       id="ellipse58"
       style="stroke-width: 1.0; stroke: #000000; fill: none; "
       ry="13.08"
       rx="13.08"
       cy="176.88"
       cx="209.16" />
    <path
       id="path60"
       style="stroke-width: 1.0; stroke: #000000; fill: none; "
       d="  M198.54,46.74 C192.66,60.9 190.8,71.7 191.46,86.94 C192.54,104.94 196.62,117 204.48,133.02 C205.38,135.06 206.52,136.2 208.02,137.82" />
    <polyline
       id="polyline62"
       style="stroke-width: 1.0; stroke: #000000; fill: none; "
       points="198.54 46.74, 198.12 47.82, 197.7 48.84, 197.28 49.86, 196.86 50.88, 196.5 51.9, 196.14 52.92, 195.78 53.94, 195.48 54.9, 195.18 55.86, 194.88 56.88, 194.58 57.84, 194.28 58.8, 194.04 59.76, 193.74 60.72, 193.56 61.68, 193.32 62.64, 193.08 63.6, 192.9 64.5, 192.72 65.46, 192.54 66.42, 192.36 67.38, 192.24 68.34, 192.06 69.3, 191.94 70.26, 191.88 71.28, 191.76 72.24, 191.64 73.2, 191.58 74.22, 191.52 75.24, 191.46 76.2, 191.4 77.22, 191.34 78.24, 191.34 79.32, 191.34 80.34, 191.34 81.42, 191.34 82.5, 191.34 83.58, 191.4 84.66, 191.4 85.8, 191.46 86.94" />
    <polyline
       id="polyline64"
       style="stroke-width: 1.0; stroke: #000000; fill: none; "
       points="191.46 86.94, 191.52 88.26, 191.64 89.58, 191.76 90.9, 191.88 92.16, 192 93.42, 192.12 94.68, 192.3 95.88, 192.48 97.14, 192.66 98.28, 192.84 99.48, 193.02 100.68, 193.26 101.82, 193.5 102.96, 193.74 104.1, 193.98 105.18, 194.22 106.32, 194.52 107.46, 194.82 108.54, 195.12 109.62, 195.42 110.7, 195.72 111.78, 196.08 112.92, 196.44 114, 196.8 115.08, 197.16 116.16, 197.58 117.24, 198 118.32, 198.42 119.4, 198.84 120.48, 199.26 121.56, 199.74 122.7, 200.22 123.78, 200.7 124.92, 201.18 126.06, 201.72 127.2, 202.2 128.34, 202.74 129.48, 203.34 130.62, 203.88 131.82, 204.48 133.02" />
    <polyline
       id="polyline66"
       style="stroke-width: 1.0; stroke: #000000; fill: none; "
       points="204.48 133.02, 204.72 133.5, 204.96 133.98, 205.2 134.4, 205.44 134.82, 205.74 135.18, 206.04 135.6, 206.34 135.96, 206.64 136.32, 206.94 136.68, 207.3 137.04, 207.66 137.4, 208.02 137.82" />
    <polyline
       id="polyline68"
       style="stroke-width: 1.0; stroke: #000000; fill: none; "
       points="208.02 137.82, 209.04 138.96, 210.06 140.04, 211.02 141.12, 212.04 142.2, 213 143.22, 213.96 144.24, 214.92 145.26, 215.88 146.22, 216.84 147.18, 217.8 148.14, 218.76 149.1, 219.66 150.06, 220.62 150.96, 221.52 151.86, 222.48 152.76, 223.38 153.66, 224.34 154.56, 225.3 155.4, 226.2 156.3, 227.16 157.14, 228.12 158.04, 229.08 158.88, 230.04 159.72, 231 160.56, 231.96 161.4, 232.92 162.24, 233.94 163.08, 234.96 163.92, 235.98 164.76, 237 165.6, 238.02 166.5, 239.1 167.34, 240.18 168.18, 241.26 169.08, 242.34 169.92, 243.48 170.82, 244.62 171.72, 245.82 172.62, 247.02 173.52, 248.22 174.42" />
    <line
       id="line70"
       style="stroke-width: 1.0; stroke: #000000; fill: none; "
       y2="71.58"
       x2="176.1"
       y1="71.58"
       x1="133.5" />
    <line
       id="line72"
       style="stroke-width: 1.0; stroke: #000000; fill: none; "
       y2="94.02"
       x2="173.7"
       y1="112.92"
       x1="133.5" />
    <line
       id="line74"
       style="stroke-width: 1.0; stroke: #000000; fill: none; "
       y2="130.68"
       x2="215.16"
       y1="155.58"
       x1="216.3" />
    <line
       id="line76"
       style="stroke-width: 1.0; stroke: #000000; fill: none; "
       y2="157.92"
       x2="253.02"
       y1="157.92"
       x1="221.04" />
    <line
       id="line78"
       style="stroke-width: 1.0; stroke: #000000; fill: none; "
       y2="71.64"
       x2="209.94"
       y1="71.64"
       x1="177.18" />
    <line
       id="line80"
       style="stroke-width: 1.0; stroke: #000000; fill: none; "
       y2="77.04"
       x2="208.08"
       y1="93.48"
       x1="175.38" />
    <line
       id="line82"
       style="stroke-width: 1.0; stroke: #000000; fill: none; "
       y2="82.56"
       x2="215.4"
       y1="126.18"
       x1="215.4" />
    <polygon
       id="polygon84"
       style="stroke-width: 1.0; stroke: #000000; fill: #000000; "
       points="177.78 71.46, 163.92 68.58, 163.92 74.64, 175.38 71.88" />
    <polygon
       id="polygon86"
       style="stroke-width: 1.0; stroke: #000000; fill: #000000; "
       points="175.38 93, 160.26 95.88, 164.76 102.78, 173.34 93.84" />
    <polygon
       id="polygon88"
       style="stroke-width: 1.0; stroke: #000000; fill: #000000; "
       points="214.86 128.46, 212.88 138.3, 218.52 138.3, 215.7 128.46" />
    <polygon
       id="polygon90"
       style="stroke-width: 1.0; stroke: #000000; fill: #000000; "
       points="255.6 157.8, 242.58 154.14, 243 161.52, 256.02 157.8" />
    <text
       id="text92"
       y="153.6"
       x="254.52">
F
</text>
    <text
       id="text94"
       y="163.68"
       x="266.34">
lm
</text>
  </g>
</svg>
