<?xml version="1.0" encoding="UTF-8" standalone="no"?>
<!-- Created with Inkscape (http://www.inkscape.org/) -->

<svg
   xmlns:ns0="http://www.iki.fi/pav/software/textext/"
   xmlns:dc="http://purl.org/dc/elements/1.1/"
   xmlns:cc="http://creativecommons.org/ns#"
   xmlns:rdf="http://www.w3.org/1999/02/22-rdf-syntax-ns#"
   xmlns:svg="http://www.w3.org/2000/svg"
   xmlns="http://www.w3.org/2000/svg"
   xmlns:xlink="http://www.w3.org/1999/xlink"
   xmlns:sodipodi="http://sodipodi.sourceforge.net/DTD/sodipodi-0.dtd"
   xmlns:inkscape="http://www.inkscape.org/namespaces/inkscape"
   width="427.42853"
   height="250.8374"
   id="svg2"
   version="1.1"
   inkscape:version="0.92.4 (unknown)"
   sodipodi:docname="derivation-2.svg">
  <sodipodi:namedview
     id="base"
     pagecolor="#ffffff"
     bordercolor="#666666"
     borderopacity="1.0"
     inkscape:pageopacity="0.0"
     inkscape:pageshadow="2"
     inkscape:zoom="2.02"
     inkscape:cx="257.32588"
     inkscape:cy="100.58781"
     inkscape:document-units="in"
     inkscape:current-layer="layer1"
     showgrid="true"
     units="in"
     inkscape:window-width="1305"
     inkscape:window-height="1019"
     inkscape:window-x="293"
     inkscape:window-y="28"
     inkscape:window-maximized="0"
     showguides="true"
     fit-margin-top="0.1"
     fit-margin-right="0.1"
     fit-margin-left="0.1"
     fit-margin-bottom="0.1"
     inkscape:snap-global="false">
    <inkscape:grid
       type="xygrid"
       id="grid2985"
       empspacing="5"
       visible="true"
       enabled="true"
       snapvisiblegridlinesonly="true"
       units="in"
       spacingx="9"
       spacingy="9"
       originx="0"
       originy="0" />
    <sodipodi:guide
       position="-192.38887,-377.64119"
       orientation="0,765"
       id="guide3042"
       inkscape:locked="false" />
    <sodipodi:guide
       position="572.61113,-377.64119"
       orientation="-990,0"
       id="guide3044"
       inkscape:locked="false" />
    <sodipodi:guide
       position="572.61113,612.35881"
       orientation="0,-765"
       id="guide3046"
       inkscape:locked="false" />
    <sodipodi:guide
       position="-192.38887,612.35881"
       orientation="990,0"
       id="guide3048"
       inkscape:locked="false" />
    <sodipodi:guide
       position="527.61113,-332.64119"
       orientation="0,765"
       id="guide3050"
       inkscape:locked="false" />
    <sodipodi:guide
       position="527.61113,522.35881"
       orientation="-990,0"
       id="guide3052"
       inkscape:locked="false" />
    <sodipodi:guide
       position="-129.38887,522.35881"
       orientation="0,-765"
       id="guide3054"
       inkscape:locked="false" />
    <sodipodi:guide
       position="-102.38887,549.35881"
       orientation="990,0"
       id="guide3056"
       inkscape:locked="false" />
  </sodipodi:namedview>
  <script
     xlink:href=""
     id="script3033" />
  <defs
     id="defs4">
    <marker
       style="overflow:visible"
       id="Arrow2Mend"
       refX="0"
       refY="0"
       orient="auto"
       inkscape:stockid="Arrow2Mend">
      <path
         inkscape:connector-curvature="0"
         transform="scale(-0.6,-0.6)"
         d="M 8.7185878,4.0337352 -2.2072895,0.01601326 8.7185884,-4.0017078 c -1.7454984,2.3720609 -1.7354408,5.6174519 -6e-7,8.035443 z"
         style="font-size:12px;fill-rule:evenodd;stroke-width:0.625;stroke-linejoin:round"
         id="path3890" />
    </marker>
    <marker
       style="overflow:visible"
       id="Arrow1Send"
       refX="0"
       refY="0"
       orient="auto"
       inkscape:stockid="Arrow1Send">
      <path
         inkscape:connector-curvature="0"
         transform="matrix(-0.2,0,0,-0.2,-1.2,0)"
         style="fill-rule:evenodd;stroke:#000000;stroke-width:1pt;marker-start:none"
         d="M 0,0 5,-5 -12.5,0 5,5 0,0 z"
         id="path3878" />
    </marker>
    <marker
       inkscape:stockid="Arrow1Lstart"
       orient="auto"
       refY="0"
       refX="0"
       id="Arrow1Lstart"
       style="overflow:visible">
      <path
         inkscape:connector-curvature="0"
         id="path3863"
         d="M 0,0 5,-5 -12.5,0 5,5 0,0 z"
         style="fill-rule:evenodd;stroke:#000000;stroke-width:1pt;marker-start:none"
         transform="matrix(0.8,0,0,0.8,10,0)" />
    </marker>
    <marker
       inkscape:stockid="StopL"
       orient="auto"
       refY="0"
       refX="0"
       id="StopL"
       style="overflow:visible">
      <path
         inkscape:connector-curvature="0"
         id="path4033"
         d="M 0,5.65 0,-5.65"
         style="fill:none;stroke:#000000;stroke-width:1pt"
         transform="scale(0.8,0.8)" />
    </marker>
    <marker
       style="overflow:visible"
       id="DistanceStart"
       refX="0"
       refY="0"
       orient="auto"
       inkscape:stockid="DistanceStart">
      <g
         id="g2300">
        <path
           inkscape:connector-curvature="0"
           style="fill:none;stroke:#ffffff;stroke-width:1.14999998;stroke-linecap:square"
           d="M 0,0 2,0"
           id="path2306" />
        <path
           inkscape:connector-curvature="0"
           style="fill:#000000;fill-rule:evenodd;stroke:none"
           d="M 0,0 13,4 9,0 13,-4 0,0 z"
           id="path2302" />
        <path
           inkscape:connector-curvature="0"
           style="fill:none;stroke:#000000;stroke-width:1;stroke-linecap:square"
           d="M 0,-4 0,40"
           id="path2304" />
      </g>
    </marker>
    <marker
       inkscape:stockid="Arrow1Lend"
       orient="auto"
       refY="0"
       refX="0"
       id="Arrow1Lend"
       style="overflow:visible">
      <path
         inkscape:connector-curvature="0"
         id="path3866"
         d="M 0,0 5,-5 -12.5,0 5,5 0,0 z"
         style="fill-rule:evenodd;stroke:#000000;stroke-width:1pt;marker-start:none"
         transform="matrix(-0.8,0,0,-0.8,-10,0)" />
    </marker>
    <marker
       inkscape:stockid="Arrow1Mend"
       orient="auto"
       refY="0"
       refX="0"
       id="Arrow1Mend"
       style="overflow:visible">
      <path
         inkscape:connector-curvature="0"
         id="path3872"
         d="M 0,0 5,-5 -12.5,0 5,5 0,0 z"
         style="fill-rule:evenodd;stroke:#000000;stroke-width:1pt;marker-start:none"
         transform="matrix(-0.4,0,0,-0.4,-4,0)" />
    </marker>
    <!-- markers by NMH <nholtz@cee.carleton.ca> -->
    <marker
       inkscape:stockid="DimensionTick"
       orient="auto"
       refY="0"
       refX="0"
       id="DimensionTick"
       style="overflow:visible">
      <path
         inkscape:connector-curvature="0"
         d="M 0,0 8,8"
         style="stroke:#4d4d4d;stroke-width:1px;marker-start:none"
         transform="translate(-4,-4)"
         id="path6" />
    </marker>
    <marker
       inkscape:stockid="TrussNodeS"
       orient="auto"
       refY="0"
       refX="0"
       id="TrussNodeS"
       markerUnits="userSpaceOnUse"
       style="overflow:visible">
      <circle
         sodipodi:ry="3"
         sodipodi:rx="3"
         sodipodi:cy="0"
         sodipodi:cx="0"
         cx="0"
         cy="0"
         r="3"
         style="fill:#ffffff;stroke:#000000;stroke-width:1"
         id="circle9" />
    </marker>
    <marker
       inkscape:stockid="TrussNodeM"
       orient="auto"
       refY="0"
       refX="0"
       id="TrussNodeM"
       markerUnits="userSpaceOnUse"
       style="overflow:visible">
      <circle
         sodipodi:ry="4"
         sodipodi:rx="4"
         sodipodi:cy="0"
         sodipodi:cx="0"
         cx="0"
         cy="0"
         r="4"
         style="fill:#ffffff;stroke:#000000;stroke-width:1"
         id="circle12" />
    </marker>
  </defs>
  <metadata
     id="metadata7">
    <rdf:RDF>
      <cc:Work
         rdf:about="">
        <dc:format>image/svg+xml</dc:format>
        <dc:type
           rdf:resource="http://purl.org/dc/dcmitype/StillImage" />
        <dc:title />
        <cc:license
           rdf:resource="http://creativecommons.org/licenses/by-nc/3.0/" />
      </cc:Work>
      <cc:License
         rdf:about="http://creativecommons.org/licenses/by-nc/3.0/">
        <cc:permits
           rdf:resource="http://creativecommons.org/ns#Reproduction" />
        <cc:permits
           rdf:resource="http://creativecommons.org/ns#Distribution" />
        <cc:requires
           rdf:resource="http://creativecommons.org/ns#Notice" />
        <cc:requires
           rdf:resource="http://creativecommons.org/ns#Attribution" />
        <cc:prohibits
           rdf:resource="http://creativecommons.org/ns#CommercialUse" />
        <cc:permits
           rdf:resource="http://creativecommons.org/ns#DerivativeWorks" />
      </cc:License>
    </rdf:RDF>
  </metadata>
  <g
     inkscape:label="Layer 1"
     inkscape:groupmode="layer"
     id="layer1"
     transform="translate(-192.38887,-423.8834)">
    <path
       inkscape:connector-curvature="0"
       id="path8843"
       d="m 496.48515,484.86695 -270,0"
       style="fill:none;stroke:#000000;stroke-width:0.75;stroke-linecap:square;stroke-linejoin:miter;stroke-miterlimit:4;stroke-opacity:1;stroke-dasharray:0.75, 2.25;stroke-dashoffset:0" />
    <path
       sodipodi:nodetypes="cc"
       inkscape:connector-curvature="0"
       id="path8845"
       d="m 226.48515,485.5169 270,72"
       style="fill:none;stroke:#000000;stroke-width:0.75;stroke-linecap:square;stroke-linejoin:miter;stroke-miterlimit:4;stroke-opacity:1;stroke-dasharray:0.75, 2.25;stroke-dashoffset:0" />
    <path
       sodipodi:nodetypes="ccc"
       inkscape:connector-curvature="0"
       id="path8847"
       d="m 226.48515,484.86695 c 94.95049,-0.9901 135,36 135,36 0,0 48.9604,36.49505 135,36"
       style="fill:none;stroke:#000000;stroke-width:3;stroke-linecap:square;stroke-linejoin:miter;stroke-miterlimit:4;stroke-opacity:1;stroke-dasharray:none;stroke-dashoffset:0" />
    <g
       id="g8849"
       transform="translate(-13.59475,94.50442)">
      <path
         sodipodi:type="arc"
         style="fill:none;stroke:#000000;stroke-width:1.5;stroke-linecap:square;stroke-linejoin:miter;stroke-miterlimit:4;stroke-opacity:1;stroke-dasharray:none;stroke-dashoffset:0;marker-end:none"
         id="path8851"
         sodipodi:cx="243"
         sodipodi:cy="328.5"
         sodipodi:rx="13.5"
         sodipodi:ry="13.5"
         d="m 241.78484,341.9452 c -7.42558,-0.67112 -12.90115,-7.23478 -12.23004,-14.66036 0.6246,-6.91094 6.38669,-12.2228 13.32552,-12.28431"
         transform="translate(0,62.362)"
         sodipodi:start="1.6609303"
         sodipodi:end="4.703524"
         sodipodi:open="true" />
      <path
         style="fill:none;stroke:#000000;stroke-width:1.5;stroke-linecap:square;stroke-linejoin:miter;stroke-miterlimit:4;stroke-opacity:1;stroke-dasharray:none;stroke-dashoffset:0;marker-end:url(#Arrow1Send)"
         d="m 243,315 3,0"
         id="path8853"
         inkscape:connector-curvature="0"
         transform="translate(0,62.362)"
         sodipodi:nodetypes="cc" />
    </g>
    <text
       xml:space="preserve"
       style="font-style:normal;font-variant:normal;font-weight:normal;font-stretch:normal;line-height:0%;font-family:Verdana;-inkscape-font-specification:Sans;text-align:start;letter-spacing:0px;word-spacing:0px;writing-mode:lr-tb;text-anchor:start;fill:#000000;fill-opacity:1;stroke:none"
       x="200.217"
       y="501.599"
       id="text8855"><tspan
         sodipodi:role="line"
         id="tspan8857"
         x="200.217"
         y="501.599"
         style="font-size:12px;line-height:1.25">M<tspan
   id="tspan8879"
   style="font-size:65.00091553%;baseline-shift:super">d</tspan><tspan
   style="font-size:65.00091553%;baseline-shift:sub"
   id="tspan8861">ab</tspan></tspan></text>
    <g
       id="g8863"
       transform="matrix(-1,0,0,-1,737.08545,947.02885)">
      <path
         sodipodi:open="true"
         sodipodi:end="4.703524"
         sodipodi:start="1.6609303"
         transform="translate(0,62.362)"
         d="m 241.78484,341.9452 c -7.42558,-0.67112 -12.90115,-7.23478 -12.23004,-14.66036 0.6246,-6.91094 6.38669,-12.2228 13.32552,-12.28431"
         sodipodi:ry="13.5"
         sodipodi:rx="13.5"
         sodipodi:cy="328.5"
         sodipodi:cx="243"
         id="path8865"
         style="fill:none;stroke:#000000;stroke-width:1.5;stroke-linecap:square;stroke-linejoin:miter;stroke-miterlimit:4;stroke-opacity:1;stroke-dasharray:none;stroke-dashoffset:0;marker-end:none"
         sodipodi:type="arc" />
      <path
         sodipodi:nodetypes="cc"
         transform="translate(0,62.362)"
         inkscape:connector-curvature="0"
         id="path8867"
         d="m 243,315 3,0"
         style="fill:none;stroke:#000000;stroke-width:1.5;stroke-linecap:square;stroke-linejoin:miter;stroke-miterlimit:4;stroke-opacity:1;stroke-dasharray:none;stroke-dashoffset:0;marker-end:url(#Arrow1Send)" />
    </g>
    <text
       xml:space="preserve"
       style="font-style:normal;font-variant:normal;font-weight:normal;font-stretch:normal;line-height:0%;font-family:Verdana;-inkscape-font-specification:Sans;text-align:start;letter-spacing:0px;word-spacing:0px;writing-mode:lr-tb;text-anchor:start;fill:#000000;fill-opacity:1;stroke:none"
       x="499.81104"
       y="579.51569"
       id="text8869"><tspan
         sodipodi:role="line"
         id="tspan8871"
         x="499.81104"
         y="579.51569"
         style="font-size:12px;line-height:1.25">M<tspan
   id="tspan8877"
   style="font-size:65.00091553%;baseline-shift:super">d</tspan><tspan
   style="font-size:65.00091553%;baseline-shift:sub"
   id="tspan8875">ba</tspan></tspan></text>
    <path
       inkscape:connector-curvature="0"
       id="path8881"
       d="m 505.48515,484.86695 18,0"
       style="fill:none;stroke:#4d4d4d;stroke-width:0.72000003;stroke-linecap:square;stroke-linejoin:miter;stroke-miterlimit:4;stroke-opacity:1;stroke-dasharray:none;stroke-dashoffset:0" />
    <path
       inkscape:connector-curvature="0"
       id="path8883"
       d="m 505.48515,556.86695 18,0"
       style="fill:none;stroke:#4d4d4d;stroke-width:0.72000003;stroke-linecap:square;stroke-linejoin:miter;stroke-miterlimit:4;stroke-opacity:1;stroke-dasharray:none;stroke-dashoffset:0" />
    <path
       sodipodi:nodetypes="cc"
       inkscape:connector-curvature="0"
       id="path8885"
       d="m 514.48515,485.56706 0,70.59978"
       style="fill:none;stroke:#4d4d4d;stroke-width:0.72000003;stroke-linecap:square;stroke-linejoin:miter;stroke-miterlimit:4;stroke-opacity:1;stroke-dasharray:none;stroke-dashoffset:0;marker-start:url(#Arrow1Lstart);marker-end:url(#Arrow1Lend)" />
    <g
       ns0:preamble="/home/nholtz/work/share/config/inkscape/extensions/amspreamble.tex"
       ns0:text="\\[\n\\Delta_{ab}\n\\]\n"
       word-spacing="normal"
       letter-spacing="normal"
       font-size-adjust="none"
       font-stretch="normal"
       font-weight="normal"
       font-variant="normal"
       font-style="normal"
       stroke-miterlimit="10.433"
       xml:space="preserve"
       transform="matrix(1.2,0,0,-1.2,332.56905,1365.243)"
       id="g8887"
       style="font-style:normal;font-variant:normal;font-weight:normal;font-stretch:normal;letter-spacing:normal;word-spacing:normal;text-anchor:start;fill:none;stroke:#000000;stroke-width:1;stroke-linecap:butt;stroke-linejoin:miter;stroke-miterlimit:10.43299961;stroke-opacity:1;stroke-dasharray:none;stroke-dashoffset:0">
<path
   id="path8889"
   d="m 157.88,708.75 0,0.01 -0.01,0.01 -0.01,0.02 0,0.01 -0.01,0.01 0,0.01 -0.01,0.01 -0.01,0.01 0,0.01 -0.01,0.01 0,0 -0.01,0.01 -0.01,0.01 0,0.01 -0.01,0 -0.01,0.01 0,0 -0.01,0.01 -0.01,0 -0.01,0.01 -0.01,0 -0.01,0.01 -0.01,0 -0.01,0 -0.01,0.01 -0.01,0 -0.01,0 -0.02,0 -0.01,0 -0.02,0 -0.01,0 -0.02,0 c -0.19,0 -0.21,-0.05 -0.28,-0.19 l -0.07,-0.9 2.93,-5.87 h -5.87 l 2.94,5.87 0.07,0.9 -3.68,-7.38 c -0.06,-0.1 -0.06,-0.12 -0.06,-0.14 0,-0.08 0.07,-0.08 0.24,-0.08 h 7.56 c 0.17,0 0.24,0 0.24,0.08 0,0.02 0,0.04 -0.06,0.14 z"
   inkscape:connector-curvature="0"
   style="fill:#000000;stroke-width:0" />
<path
   id="path8891"
   d="m 165.28,702.4 -0.01,0.01 0,0.02 -0.01,0.01 -0.01,0.02 -0.01,0.01 -0.02,0.02 -0.01,0.02 -0.01,0.02 -0.02,0.02 -0.01,0.02 -0.02,0.02 -0.02,0.02 -0.02,0.02 -0.02,0.02 -0.02,0.02 -0.03,0.02 -0.02,0.02 -0.03,0.01 -0.02,0.02 -0.03,0.02 -0.03,0.02 -0.03,0.01 -0.03,0.02 -0.04,0.01 -0.03,0.01 -0.04,0.01 -0.04,0.01 -0.04,0.01 -0.04,0.01 -0.04,0 -0.04,0 -0.05,0 0.01,-0.22 c 0.52,0 0.67,-0.58 0.67,-0.67 0,-0.03 -0.2,-0.81 -0.25,-1.02 -0.1,-0.37 -0.1,-0.39 -0.18,-0.73 h 0 c -0.4,-0.55 -0.81,-0.72 -1.07,-0.72 -0.36,0 -0.55,0.34 -0.55,0.75 0,0.37 0.22,1.22 0.39,1.57 0.24,0.49 0.63,0.82 0.99,0.82 l -0.01,0.22 c -0.94,0 -1.99,-1.1 -1.99,-2.28 0,-0.82 0.54,-1.3 1.15,-1.3 0.51,0 0.95,0.41 1.09,0.56 0.14,-0.54 0.69,-0.56 0.78,-0.56 0.37,0 0.55,0.3 0.61,0.44 0.16,0.28 0.27,0.74 0.27,0.78 0,0.04 -0.03,0.1 -0.12,0.1 -0.1,0 -0.11,-0.05 -0.16,-0.25 -0.11,-0.43 -0.27,-0.85 -0.58,-0.85 -0.18,0 -0.25,0.15 -0.25,0.38 0,0.13 0.07,0.4 0.12,0.6 0.05,0.2 0.17,0.68 0.2,0.82 l 0.16,0.6 c 0.04,0.19 0.13,0.53 0.13,0.57 0,0.18 -0.16,0.24 -0.26,0.24 -0.12,0 -0.32,-0.08 -0.36,-0.32 z"
   inkscape:connector-curvature="0"
   style="fill:#000000;stroke-width:0" />
<path
   id="path8893"
   d="m 168.6,704.65 0,0 0,0 0,0 0,0 0,0 0,0 0.01,0.01 0,0 0,0 0,0 0,0.01 0,0 0,0.01 0,0 0,0.01 0.01,0 0,0.01 0,0 0,0.01 0,0.01 0,0.01 0.01,0 0,0.01 0,0 0,0.01 0,0 0,0.01 0,0 0,0 0,0 0,0.01 0,0 0,0 0,0 0,0 0,0 0,0 0,0 0,0 0,0 c 0,0.04 -0.03,0.12 -0.12,0.12 -0.03,0 -0.28,-0.03 -0.47,-0.05 l -0.44,-0.03 c -0.18,-0.01 -0.25,-0.02 -0.25,-0.16 0,-0.12 0.11,-0.12 0.2,-0.12 0.38,0 0.38,-0.04 0.38,-0.11 0,-0.05 -0.08,-0.37 -0.12,-0.55 l -0.7,-2.77 c -0.06,-0.27 -0.06,-0.39 -0.06,-0.52 0,-0.82 0.5,-1.29 1.11,-1.29 v 0.22 c -0.28,0 -0.57,0.22 -0.57,0.81 0,0.21 0.03,0.41 0.13,0.79 0.05,0.23 0.11,0.45 0.17,0.68 0.04,0.15 0.04,0.16 0.14,0.28 0.27,0.34 0.63,0.58 0.96,0.58 0.4,0 0.55,-0.39 0.55,-0.74 0,-0.3 -0.17,-1.15 -0.41,-1.62 -0.21,-0.43 -0.59,-0.78 -0.97,-0.78 h 0 v -0.22 c 0.98,0 2,1.13 2,2.28 0,0.79 -0.51,1.3 -1.14,1.3 -0.45,0 -0.79,-0.28 -0.97,-0.43 z"
   inkscape:connector-curvature="0"
   style="fill:#000000;stroke-width:0" />
</g>    <g
       transform="translate(216,114)"
       id="g8899">
      <path
         style="fill:none;stroke:#000000;stroke-width:1.5;stroke-linecap:square;stroke-linejoin:miter;stroke-miterlimit:4;stroke-opacity:1;stroke-dasharray:none;stroke-dashoffset:0"
         d="m 135,378 18,0"
         id="path8895"
         inkscape:connector-curvature="0"
         transform="translate(0,62.362)" />
      <path
         inkscape:connector-curvature="0"
         id="path8897"
         d="m 135,446.362 18,0"
         style="fill:none;stroke:#000000;stroke-width:1.5;stroke-linecap:square;stroke-linejoin:miter;stroke-miterlimit:4;stroke-opacity:1;stroke-dasharray:none;stroke-dashoffset:0" />
    </g>
    <path
       style="fill:none;stroke:#000000;stroke-width:0.75;stroke-linecap:square;stroke-linejoin:miter;stroke-miterlimit:4;stroke-opacity:1;stroke-dasharray:0.75, 2.25;stroke-dashoffset:0"
       d="m 496.48515,628.86695 -270,0"
       id="path3456"
       inkscape:connector-curvature="0" />
    <path
       inkscape:transform-center-y="0.84480369"
       inkscape:transform-center-x="-141.55489"
       style="fill:none;stroke:#000000;stroke-width:3;stroke-linecap:square;stroke-linejoin:miter;stroke-miterlimit:4;stroke-opacity:1;stroke-dasharray:none;stroke-dashoffset:0"
       d="m 226.82263,628.42698 c 86.92532,-23.32357 139.71741,-0.21523 139.71741,-0.21523 0,0 43.28714,23.10835 130.21246,-0.21522"
       id="path3460"
       inkscape:connector-curvature="0"
       sodipodi:nodetypes="ccc" />
    <g
       transform="translate(-13.59475,238.50442)"
       id="g3462">
      <path
         sodipodi:open="true"
         sodipodi:end="4.703524"
         sodipodi:start="1.6609303"
         transform="translate(0,62.362)"
         d="m 241.78484,341.9452 c -7.42558,-0.67112 -12.90115,-7.23478 -12.23004,-14.66036 0.6246,-6.91094 6.38669,-12.2228 13.32552,-12.28431"
         sodipodi:ry="13.5"
         sodipodi:rx="13.5"
         sodipodi:cy="328.5"
         sodipodi:cx="243"
         id="path3464"
         style="fill:none;stroke:#000000;stroke-width:1.5;stroke-linecap:square;stroke-linejoin:miter;stroke-miterlimit:4;stroke-opacity:1;stroke-dasharray:none;stroke-dashoffset:0;marker-end:none"
         sodipodi:type="arc" />
      <path
         sodipodi:nodetypes="cc"
         transform="translate(0,62.362)"
         inkscape:connector-curvature="0"
         id="path3466"
         d="m 243,315 3,0"
         style="fill:none;stroke:#000000;stroke-width:1.5;stroke-linecap:square;stroke-linejoin:miter;stroke-miterlimit:4;stroke-opacity:1;stroke-dasharray:none;stroke-dashoffset:0;marker-end:url(#Arrow1Send)" />
    </g>
    <text
       id="text3468"
       y="645.599"
       x="200.217"
       style="font-style:normal;font-variant:normal;font-weight:normal;font-stretch:normal;line-height:0%;font-family:Verdana;-inkscape-font-specification:Sans;text-align:start;letter-spacing:0px;word-spacing:0px;writing-mode:lr-tb;text-anchor:start;fill:#000000;fill-opacity:1;stroke:none"
       xml:space="preserve"><tspan
         y="645.599"
         x="200.217"
         id="tspan3470"
         sodipodi:role="line"
         style="font-size:12px;line-height:1.25">M<tspan
   style="font-size:65.00091553%;baseline-shift:super"
   id="tspan3472">d</tspan><tspan
   id="tspan3474"
   style="font-size:65.00091553%;baseline-shift:sub">ab</tspan></tspan></text>
    <g
       transform="matrix(-1,0,0,-1,739.08545,1019.0288)"
       id="g3476">
      <path
         sodipodi:type="arc"
         style="fill:none;stroke:#000000;stroke-width:1.5;stroke-linecap:square;stroke-linejoin:miter;stroke-miterlimit:4;stroke-opacity:1;stroke-dasharray:none;stroke-dashoffset:0;marker-end:none"
         id="path3478"
         sodipodi:cx="243"
         sodipodi:cy="328.5"
         sodipodi:rx="13.5"
         sodipodi:ry="13.5"
         d="m 241.78484,341.9452 c -7.42558,-0.67112 -12.90115,-7.23478 -12.23004,-14.66036 0.6246,-6.91094 6.38669,-12.2228 13.32552,-12.28431"
         transform="translate(0,62.362)"
         sodipodi:start="1.6609303"
         sodipodi:end="4.703524"
         sodipodi:open="true" />
      <path
         style="fill:none;stroke:#000000;stroke-width:1.5;stroke-linecap:square;stroke-linejoin:miter;stroke-miterlimit:4;stroke-opacity:1;stroke-dasharray:none;stroke-dashoffset:0;marker-end:url(#Arrow1Send)"
         d="m 243,315 3,0"
         id="path3480"
         inkscape:connector-curvature="0"
         transform="translate(0,62.362)"
         sodipodi:nodetypes="cc" />
    </g>
    <text
       id="text3482"
       y="651.51569"
       x="501.81104"
       style="font-style:normal;font-variant:normal;font-weight:normal;font-stretch:normal;line-height:0%;font-family:Verdana;-inkscape-font-specification:Sans;text-align:start;letter-spacing:0px;word-spacing:0px;writing-mode:lr-tb;text-anchor:start;fill:#000000;fill-opacity:1;stroke:none"
       xml:space="preserve"><tspan
         y="651.51569"
         x="501.81104"
         id="tspan3484"
         sodipodi:role="line"
         style="font-size:12px;line-height:1.25">M<tspan
   style="font-size:65.00091553%;baseline-shift:super"
   id="tspan3486">d</tspan><tspan
   id="tspan3488"
   style="font-size:65.00091553%;baseline-shift:sub">ba</tspan></tspan></text>
    <path
       transform="translate(190.9037,237.64501)"
       inkscape:connector-curvature="0"
       id="path3508"
       d="m 36,201.88379 0,18"
       style="fill:none;stroke:#4d4d4d;stroke-width:0.75;stroke-linecap:square;stroke-linejoin:miter;stroke-miterlimit:4;stroke-opacity:1;stroke-dasharray:none;stroke-dashoffset:0" />
    <path
       transform="translate(190.9037,237.64501)"
       inkscape:connector-curvature="0"
       id="path3510"
       d="m 306,201.88379 0,18"
       style="fill:none;stroke:#4d4d4d;stroke-width:0.75;stroke-linecap:square;stroke-linejoin:miter;stroke-miterlimit:4;stroke-opacity:1;stroke-dasharray:none;stroke-dashoffset:0" />
    <path
       transform="translate(190.9037,237.64501)"
       inkscape:connector-curvature="0"
       id="path3512"
       d="m 36,210.88379 270,0"
       style="fill:none;stroke:#4d4d4d;stroke-width:0.72000003;stroke-linecap:square;stroke-linejoin:miter;stroke-miterlimit:4;stroke-opacity:1;stroke-dasharray:none;stroke-dashoffset:0;marker-start:url(#DimensionTick);marker-end:url(#DimensionTick)" />
    <text
       transform="translate(190.9037,237.64501)"
       id="text4757"
       y="203.963"
       x="168.81187"
       style="font-style:normal;font-variant:normal;font-weight:normal;font-stretch:normal;line-height:0%;font-family:Verdana;-inkscape-font-specification:Verdana;text-align:start;letter-spacing:0px;word-spacing:0px;writing-mode:lr-tb;text-anchor:start;fill:#000000;fill-opacity:1;stroke:none"
       xml:space="preserve"><tspan
         y="203.963"
         x="168.81187"
         id="tspan4759"
         sodipodi:role="line"
         style="font-size:12px;line-height:1.25">L</tspan></text>
    <path
       transform="translate(190.9037,237.64501)"
       inkscape:connector-curvature="0"
       id="path4761"
       d="m 36,390.88379 144,-37"
       style="fill:none;stroke:#4d4d4d;stroke-width:0.72000003;stroke-linecap:square;stroke-linejoin:miter;stroke-miterlimit:4;stroke-opacity:1;stroke-dasharray:none;stroke-dashoffset:0"
       sodipodi:nodetypes="cc" />
    <path
       inkscape:connector-curvature="0"
       id="path4765"
       d="m 496.49775,628.5288 -126,36"
       style="fill:none;stroke:#4d4d4d;stroke-width:0.72000003;stroke-linecap:square;stroke-linejoin:miter;stroke-miterlimit:4;stroke-opacity:1;stroke-dasharray:none;stroke-dashoffset:0" />
    <path
       sodipodi:open="true"
       sodipodi:end="6.2857402"
       sodipodi:start="5.9813998"
       transform="translate(208.9037,237.64501)"
       d="m 113.33939,366.80852 c 2.44708,7.86101 3.68138,16.04916 3.66035,24.28222"
       sodipodi:ry="81"
       sodipodi:rx="81"
       sodipodi:cy="390.88379"
       sodipodi:cx="36"
       id="path4767"
       style="fill:none;stroke:#4d4d4d;stroke-width:0.72000003;stroke-linecap:square;stroke-linejoin:miter;stroke-miterlimit:4;stroke-opacity:1;stroke-dasharray:none;stroke-dashoffset:0;marker-start:url(#Arrow1Lstart);marker-end:url(#StopL)"
       sodipodi:type="arc" />
    <path
       sodipodi:type="arc"
       style="fill:none;stroke:#4d4d4d;stroke-width:0.72000003;stroke-linecap:square;stroke-linejoin:miter;stroke-miterlimit:4;stroke-opacity:1;stroke-dasharray:none;stroke-dashoffset:0;marker-start:url(#Arrow1Lstart);marker-end:url(#StopL)"
       id="path5175"
       sodipodi:cx="36"
       sodipodi:cy="390.88379"
       sodipodi:rx="81"
       sodipodi:ry="81"
       d="m 113.33939,366.80852 c 2.44708,7.86101 3.68138,16.04916 3.66035,24.28222"
       transform="matrix(-1,0,0,-1,516.49722,1020.0476)"
       sodipodi:start="5.9813998"
       sodipodi:end="6.2857402"
       sodipodi:open="true" />
    <g
       ns0:preamble="/home/nholtz/work/share/config/inkscape/extensions/amspreamble.tex"
       ns0:text="\\[\n\\Psi_{ab} = \\frac{\\Delta_{ab}}{L}\n\\]\n"
       word-spacing="normal"
       letter-spacing="normal"
       font-size-adjust="none"
       font-stretch="normal"
       font-weight="normal"
       font-variant="normal"
       font-style="normal"
       stroke-miterlimit="10.433"
       xml:space="preserve"
       transform="matrix(1.2,0,0,-1.2,116.54769,1493.4688)"
       id="content"
       style="font-style:normal;font-variant:normal;font-weight:normal;font-stretch:normal;letter-spacing:normal;word-spacing:normal;text-anchor:start;fill:none;stroke:#000000;stroke-width:1;stroke-linecap:butt;stroke-linejoin:miter;stroke-miterlimit:10.43299961;stroke-opacity:1;stroke-dasharray:none;stroke-dashoffset:0">
<path
   id="path5268"
   d="m 157.72,703.85 0,0.03 0,0.04 0,0.03 0,0.03 0,0.03 0.01,0.02 0,0.03 0.01,0.03 0,0.02 0.01,0.02 0.01,0.03 0.01,0.02 0.02,0.02 0.02,0.01 0.02,0.02 0.02,0.02 0.03,0.01 0.01,0.01 0.01,0.01 0.02,0 0.02,0.01 0.01,0.01 0.02,0 0.02,0.01 0.02,0 0.02,0.01 0.03,0 0.02,0.01 0.02,0 0.03,0.01 0.03,0 0.02,0.01 0.03,0 0.03,0 0.04,0 0.03,0.01 0.03,0 0.04,0 0.03,0 0.04,0.01 0.04,0 0.04,0 0.04,0 0.05,0 0.04,0 0.05,0 0.05,0 h 0.35 v 0.34 c -0.39,-0.03 -1.39,-0.03 -1.84,-0.03 -0.44,0 -1.45,0 -1.85,0.03 v -0.34 h 0.36 c 1.04,0 1.04,-0.14 1.04,-0.52 v -4.84 c -1.43,0.39 -1.48,2.06 -1.48,2.77 -0.02,1.32 -0.49,1.52 -0.97,1.52 h -0.41 c -0.16,0 -0.27,0 -0.27,-0.12 0,-0.05 0.03,-0.1 0.1,-0.11 0.36,-0.05 0.63,-0.2 0.64,-1.49 0,-0.25 0.03,-1.11 0.56,-1.84 0.42,-0.58 1.09,-0.9 1.83,-1 v -0.61 c 0,-0.37 0,-0.52 -1.04,-0.52 h -0.36 v -0.34 c 0.4,0.03 1.4,0.03 1.84,0.03 0.45,0 1.46,0 1.85,-0.03 v 0.34 h -0.35 c -1.04,0 -1.04,0.14 -1.04,0.52 v 0.61 c 0.78,0.1 1.45,0.43 1.87,0.99 0.57,0.78 0.58,1.64 0.58,2.11 0,0.18 0.01,1.15 0.6,1.23 0.07,0.01 0.14,0.02 0.14,0.11 0,0.12 -0.09,0.12 -0.26,0.12 h -0.41 c -0.43,0 -0.96,-0.07 -0.97,-1.65 -0.01,-1.2 -0.37,-2.35 -1.55,-2.64 z"
   inkscape:connector-curvature="0"
   style="fill:#000000;stroke-width:0" />
<path
   id="path5270"
   d="m 164.68,698.52 -0.01,0.02 -0.01,0.01 -0.01,0.02 -0.01,0.01 -0.01,0.02 -0.01,0.02 -0.01,0.02 -0.02,0.01 -0.01,0.02 -0.02,0.02 -0.02,0.02 -0.02,0.02 -0.02,0.02 -0.02,0.02 -0.02,0.02 -0.02,0.02 -0.03,0.02 -0.02,0.02 -0.03,0.02 -0.03,0.01 -0.03,0.02 -0.03,0.02 -0.03,0.01 -0.03,0.01 -0.04,0.02 -0.03,0.01 -0.04,0.01 -0.04,0 -0.04,0.01 -0.04,0.01 -0.05,0 -0.04,0 0.01,-0.22 c 0.51,0 0.67,-0.58 0.67,-0.68 0,-0.03 -0.2,-0.81 -0.25,-1.02 -0.11,-0.37 -0.11,-0.38 -0.19,-0.73 h 0 c -0.39,-0.55 -0.81,-0.71 -1.06,-0.71 -0.37,0 -0.55,0.33 -0.55,0.75 0,0.37 0.21,1.22 0.39,1.57 0.23,0.48 0.62,0.82 0.99,0.82 l -0.01,0.22 c -0.95,0 -1.99,-1.1 -1.99,-2.28 0,-0.83 0.53,-1.3 1.14,-1.3 0.51,0 0.95,0.4 1.09,0.56 0.15,-0.55 0.69,-0.56 0.78,-0.56 0.37,0 0.55,0.3 0.62,0.43 0.16,0.29 0.27,0.75 0.27,0.78 0,0.05 -0.03,0.1 -0.13,0.1 -0.09,0 -0.11,-0.04 -0.16,-0.24 -0.11,-0.44 -0.26,-0.85 -0.57,-0.85 -0.18,0 -0.26,0.15 -0.26,0.37 0,0.14 0.08,0.41 0.12,0.6 0.05,0.2 0.17,0.68 0.2,0.82 l 0.16,0.61 c 0.04,0.19 0.13,0.52 0.13,0.56 0,0.18 -0.15,0.25 -0.26,0.25 -0.12,0 -0.31,-0.08 -0.35,-0.33 z"
   inkscape:connector-curvature="0"
   style="fill:#000000;stroke-width:0" />
<path
   id="path5272"
   d="m 168,700.77 0,0 0,0 0,0 0,0.01 0,0 0,0 0,0 0,0 0,0.01 0,0 0,0 0,0.01 0.01,0 0,0.01 0,0 0,0.01 0,0 0,0.01 0,0.01 0.01,0.01 0,0 0,0.01 0,0 0,0.01 0,0 0,0.01 0,0 0.01,0.01 0,0 0,0 0,0 0,0 0,0 0,0 0,0.01 0,0 0,0 0,0 0,0 0,0 c 0,0.04 -0.03,0.11 -0.13,0.11 -0.03,0 -0.28,-0.02 -0.46,-0.04 l -0.45,-0.03 c -0.17,-0.02 -0.25,-0.03 -0.25,-0.17 0,-0.11 0.11,-0.11 0.21,-0.11 0.38,0 0.38,-0.05 0.38,-0.12 0,-0.05 -0.08,-0.36 -0.13,-0.55 l -0.69,-2.76 c -0.07,-0.27 -0.07,-0.39 -0.07,-0.53 0,-0.82 0.51,-1.28 1.12,-1.28 v 0.22 c -0.29,0 -0.57,0.22 -0.57,0.8 0,0.22 0.03,0.41 0.12,0.79 0.06,0.24 0.11,0.46 0.18,0.69 0.04,0.14 0.04,0.16 0.13,0.28 0.27,0.33 0.63,0.58 0.97,0.58 0.39,0 0.55,-0.39 0.55,-0.75 0,-0.29 -0.18,-1.14 -0.42,-1.61 -0.2,-0.43 -0.59,-0.78 -0.96,-0.78 h 0 v -0.22 c 0.98,0 2,1.12 2,2.28 0,0.78 -0.51,1.3 -1.15,1.3 -0.45,0 -0.79,-0.29 -0.96,-0.44 z"
   inkscape:connector-curvature="0"
   style="fill:#000000;stroke-width:0" />
<path
   id="path5274"
   d="m 180.68,700.83 0.04,0 0.03,0 0.03,0 0.02,0 0.01,0.01 0.02,0 0.01,0 0.02,0 0.01,0 0.02,0.01 0.01,0 0.02,0 0.01,0.01 0.02,0 0.01,0.01 0.01,0.01 0.01,0.01 0.01,0 0.01,0.01 0.01,0.01 0.01,0.01 0.01,0.01 0,0.01 0,0 0.01,0.01 0,0.01 0,0 0,0.01 0.01,0.01 0,0.01 0,0 0,0.01 0,0.01 0,0.01 0.01,0.01 0,0.01 0,0.01 c 0,0.22 -0.21,0.22 -0.36,0.22 h -6.53 c -0.15,0 -0.35,0 -0.35,-0.22 0,-0.22 0.2,-0.22 0.36,-0.22 z"
   inkscape:connector-curvature="0"
   style="fill:#000000;stroke-width:0" />
<path
   id="path5276"
   d="m 180.7,698.72 0.01,0 0.02,0 0.03,0 0.03,0 0.01,0 0.02,0 0.01,0 0.02,0.01 0.01,0 0.02,0 0.01,0 0.02,0.01 0.01,0 0.01,0.01 0.02,0 0.01,0.01 0.01,0.01 0.01,0 0.01,0.01 0.01,0.01 0.01,0.01 0.01,0.01 0,0 0.01,0.01 0,0 0,0.01 0.01,0.01 0,0 0,0.01 0,0.01 0.01,0.01 0,0 0,0.01 0,0.01 0,0.01 0,0.01 0.01,0.01 0,0.01 0,0.01 c 0,0.22 -0.21,0.22 -0.38,0.22 h -6.5 c -0.16,0 -0.36,0 -0.36,-0.22 0,-0.22 0.2,-0.22 0.35,-0.22 z"
   inkscape:connector-curvature="0"
   style="fill:#000000;stroke-width:0" />
<path
   id="path5278"
   d="m 190.73,712.25 -0.01,0.02 0,0.01 -0.01,0.01 -0.01,0.01 0,0.01 -0.01,0.01 -0.01,0.01 0,0.01 -0.01,0.01 0,0.01 -0.01,0.01 -0.01,0.01 0,0 -0.01,0.01 -0.01,0.01 0,0 -0.01,0.01 -0.01,0 0,0.01 -0.01,0 -0.01,0.01 -0.01,0 -0.01,0 -0.01,0.01 -0.01,0 -0.02,0 -0.01,0 -0.01,0.01 -0.02,0 -0.01,0 -0.02,0 -0.01,0 c -0.19,0 -0.21,-0.06 -0.29,-0.2 l -0.06,-0.89 2.93,-5.88 h -5.87 l 2.94,5.88 0.06,0.89 -3.68,-7.38 c -0.05,-0.1 -0.05,-0.12 -0.05,-0.13 0,-0.09 0.06,-0.09 0.24,-0.09 h 7.55 c 0.18,0 0.24,0 0.24,0.09 0,0.01 0,0.03 -0.05,0.13 z"
   inkscape:connector-curvature="0"
   style="fill:#000000;stroke-width:0" />
<path
   id="path5280"
   d="m 198.13,705.9 -0.01,0.02 -0.01,0.01 -0.01,0.02 -0.01,0.01 -0.01,0.02 -0.01,0.02 -0.01,0.02 -0.02,0.01 -0.01,0.02 -0.02,0.02 -0.02,0.02 -0.02,0.02 -0.02,0.02 -0.02,0.02 -0.02,0.02 -0.02,0.02 -0.03,0.02 -0.02,0.02 -0.03,0.02 -0.03,0.01 -0.03,0.02 -0.03,0.02 -0.03,0.01 -0.03,0.01 -0.04,0.02 -0.03,0.01 -0.04,0.01 -0.04,0.01 -0.04,0 -0.04,0.01 -0.05,0 -0.04,0 0.01,-0.22 c 0.51,0 0.66,-0.58 0.66,-0.68 0,-0.03 -0.19,-0.81 -0.24,-1.02 -0.11,-0.37 -0.11,-0.38 -0.18,-0.73 h 0 c -0.4,-0.55 -0.82,-0.71 -1.07,-0.71 -0.37,0 -0.55,0.33 -0.55,0.75 0,0.37 0.21,1.22 0.39,1.57 0.23,0.48 0.62,0.82 0.99,0.82 l -0.01,0.22 c -0.95,0 -1.99,-1.1 -1.99,-2.28 0,-0.83 0.53,-1.3 1.14,-1.3 0.51,0 0.95,0.4 1.1,0.56 0.14,-0.55 0.68,-0.56 0.78,-0.56 0.36,0 0.54,0.3 0.61,0.43 0.16,0.29 0.27,0.75 0.27,0.78 0,0.05 -0.03,0.1 -0.13,0.1 -0.09,0 -0.11,-0.04 -0.16,-0.24 -0.11,-0.44 -0.26,-0.85 -0.57,-0.85 -0.18,0 -0.26,0.15 -0.26,0.37 0,0.14 0.08,0.41 0.12,0.6 0.05,0.2 0.17,0.68 0.2,0.82 l 0.16,0.61 c 0.04,0.19 0.13,0.52 0.13,0.56 0,0.18 -0.15,0.25 -0.26,0.25 -0.11,0 -0.31,-0.08 -0.35,-0.33 z"
   inkscape:connector-curvature="0"
   style="fill:#000000;stroke-width:0" />
<path
   id="path5282"
   d="m 201.45,708.15 0,0 0,0 0,0 0,0.01 0,0 0,0 0,0 0,0 0,0.01 0,0 0,0 0,0.01 0.01,0 0,0.01 0,0 0,0.01 0,0 0,0.01 0,0.01 0.01,0.01 0,0 0,0.01 0,0 0,0.01 0,0 0,0.01 0,0 0.01,0.01 0,0 0,0 0,0 0,0 0,0 0,0 0,0.01 0,0 0,0 0,0 0,0 0,0 c 0,0.04 -0.03,0.11 -0.13,0.11 -0.03,0 -0.28,-0.02 -0.46,-0.04 l -0.45,-0.03 c -0.17,-0.02 -0.25,-0.03 -0.25,-0.17 0,-0.11 0.11,-0.11 0.21,-0.11 0.38,0 0.38,-0.05 0.38,-0.12 0,-0.05 -0.08,-0.36 -0.13,-0.55 l -0.69,-2.76 c -0.07,-0.27 -0.07,-0.39 -0.07,-0.53 0,-0.82 0.51,-1.28 1.12,-1.28 v 0.22 c -0.29,0 -0.57,0.22 -0.57,0.8 0,0.21 0.03,0.41 0.12,0.79 0.06,0.24 0.11,0.46 0.18,0.69 0.04,0.14 0.04,0.16 0.13,0.28 0.27,0.33 0.63,0.58 0.97,0.58 0.39,0 0.55,-0.39 0.55,-0.75 0,-0.29 -0.18,-1.14 -0.42,-1.61 -0.21,-0.43 -0.59,-0.78 -0.96,-0.78 h 0 v -0.22 c 0.98,0 2,1.12 2,2.28 0,0.78 -0.51,1.3 -1.15,1.3 -0.45,0 -0.79,-0.29 -0.96,-0.44 z"
   inkscape:connector-curvature="0"
   style="fill:#000000;stroke-width:0" />
<line
   id="line5284"
   y2="700"
   x2="203.63"
   y1="700"
   x1="185.92"
   style="stroke-width:0.43599999" />
<path
   id="path5286"
   d="m 195.13,696.38 0.01,0.03 0.01,0.04 0.01,0.03 0.01,0.03 0.01,0.03 0.01,0.03 0.01,0.03 0.01,0.02 0.01,0.03 0.02,0.02 0.01,0.02 0.02,0.02 0.02,0.02 0.02,0.02 0.02,0.01 0.03,0.02 0.03,0.01 0.03,0.02 0.04,0.01 0.04,0.01 0.02,0 0.02,0.01 0.02,0 0.02,0.01 0.03,0 0.02,0.01 0.03,0 0.03,0 0.02,0.01 0.03,0 0.03,0 0.04,0 0.03,0.01 0.03,0 0.04,0 0.03,0 0.04,0 0.04,0 0.04,0.01 0.04,0 0.05,0 0.04,0 0.05,0 0.04,0 c 0.33,0 0.42,0 0.42,0.2 0,0.14 -0.12,0.14 -0.18,0.14 -0.36,0 -1.25,-0.04 -1.61,-0.04 -0.32,0 -1.12,0.04 -1.45,0.04 -0.07,0 -0.2,0 -0.2,-0.22 0,-0.12 0.09,-0.12 0.3,-0.12 0.02,0 0.23,0 0.42,-0.02 0.19,-0.03 0.29,-0.04 0.29,-0.18 0,-0.04 -0.01,-0.07 -0.04,-0.21 l -1.46,-5.84 c -0.11,-0.43 -0.13,-0.51 -0.99,-0.51 -0.19,0 -0.3,0 -0.3,-0.22 0,-0.12 0.1,-0.12 0.3,-0.12 h 5.04 c 0.26,0 0.27,0 0.34,0.18 l 0.86,2.36 c 0.04,0.12 0.04,0.14 0.04,0.15 0,0.04 -0.03,0.12 -0.13,0.12 -0.1,0 -0.11,-0.06 -0.19,-0.23 -0.37,-1 -0.85,-2.24 -2.73,-2.24 h -1.02 c -0.15,0 -0.18,0 -0.24,0.01 -0.11,0.01 -0.14,0.02 -0.14,0.11 0,0.03 0,0.05 0.05,0.25 z"
   inkscape:connector-curvature="0"
   style="fill:#000000;stroke-width:0" />
</g>    <path
       style="fill:none;stroke:#4d4d4d;stroke-width:0.75;stroke-linecap:butt;stroke-linejoin:miter;stroke-opacity:1"
       d="m 131.68316,385.15112 c -25.02143,-0.98314 -31.972354,7.96431 -34.158405,16.27722 -0.91302,3.47194 5.186065,11.9406 9.405935,11.9406"
       id="path5387"
       inkscape:connector-curvature="0"
       transform="translate(190.9037,237.64501)"
       sodipodi:nodetypes="csc" />
    <path
       style="fill:none;stroke:#4d4d4d;stroke-width:0.75;stroke-linecap:butt;stroke-linejoin:miter;stroke-opacity:1"
       d="m 174.25743,415.84419 c 8.58951,3.20654 19.21801,-9.7444 32.67326,-13.86139"
       id="path5389"
       inkscape:connector-curvature="0"
       transform="translate(190.9037,237.64501)"
       sodipodi:nodetypes="cc" />
    <text
       xml:space="preserve"
       style="font-style:italic;font-variant:normal;font-weight:normal;font-stretch:normal;line-height:0%;font-family:Verdana;-inkscape-font-specification:Sans;text-align:start;letter-spacing:0px;word-spacing:0px;writing-mode:lr-tb;text-anchor:start;fill:#000000;fill-opacity:1;stroke:none"
       x="372.77228"
       y="63.213638"
       id="text3307"
       transform="translate(192.38887,423.8834)"><tspan
         sodipodi:role="line"
         id="tspan3309"
         x="372.77228"
         y="63.213638"
         style="font-size:12px;line-height:1.25">case iii)</tspan></text>
  </g>
</svg>
