<?xml version="1.0" encoding="UTF-8" standalone="no"?>
<!-- Created with Inkscape (http://www.inkscape.org/) -->

<svg
   xmlns:ns0="http://www.iki.fi/pav/software/textext/"
   xmlns:dc="http://purl.org/dc/elements/1.1/"
   xmlns:cc="http://creativecommons.org/ns#"
   xmlns:rdf="http://www.w3.org/1999/02/22-rdf-syntax-ns#"
   xmlns:svg="http://www.w3.org/2000/svg"
   xmlns="http://www.w3.org/2000/svg"
   xmlns:xlink="http://www.w3.org/1999/xlink"
   xmlns:sodipodi="http://sodipodi.sourceforge.net/DTD/sodipodi-0.dtd"
   xmlns:inkscape="http://www.inkscape.org/namespaces/inkscape"
   width="404.81693"
   height="464.84875"
   id="svg2"
   version="1.1"
   inkscape:version="0.92.4 (unknown)"
   sodipodi:docname="derivation-3.svg">
  <sodipodi:namedview
     id="base"
     pagecolor="#ffffff"
     bordercolor="#666666"
     borderopacity="1.0"
     inkscape:pageopacity="0.0"
     inkscape:pageshadow="2"
     inkscape:zoom="2.02"
     inkscape:cx="183.40086"
     inkscape:cy="238.696"
     inkscape:document-units="in"
     inkscape:current-layer="layer1"
     showgrid="true"
     units="in"
     inkscape:window-width="1305"
     inkscape:window-height="1019"
     inkscape:window-x="293"
     inkscape:window-y="28"
     inkscape:window-maximized="0"
     showguides="true"
     fit-margin-top="0.1"
     fit-margin-right="0.1"
     fit-margin-left="0.1"
     fit-margin-bottom="0.1"
     inkscape:snap-global="false">
    <inkscape:grid
       spacingy="9"
       spacingx="9"
       units="in"
       snapvisiblegridlinesonly="true"
       enabled="true"
       visible="true"
       empspacing="5"
       id="grid2985"
       type="xygrid"
       originx="0"
       originy="0" />
    <sodipodi:guide
       id="guide3042"
       orientation="0,765"
       position="-189.88745,-382.52622"
       inkscape:locked="false" />
    <sodipodi:guide
       id="guide3044"
       orientation="-990,0"
       position="575.11255,-382.52622"
       inkscape:locked="false" />
    <sodipodi:guide
       id="guide3046"
       orientation="0,-765"
       position="575.11255,607.47378"
       inkscape:locked="false" />
    <sodipodi:guide
       id="guide3048"
       orientation="990,0"
       position="-189.88745,607.47378"
       inkscape:locked="false" />
    <sodipodi:guide
       id="guide3050"
       orientation="0,765"
       position="530.11255,-337.52622"
       inkscape:locked="false" />
    <sodipodi:guide
       id="guide3052"
       orientation="-990,0"
       position="530.11255,517.47378"
       inkscape:locked="false" />
    <sodipodi:guide
       id="guide3054"
       orientation="0,-765"
       position="-126.88745,517.47378"
       inkscape:locked="false" />
    <sodipodi:guide
       id="guide3056"
       orientation="990,0"
       position="-99.887452,544.47378"
       inkscape:locked="false" />
  </sodipodi:namedview>
  <script
     id="script3033"
     xlink:href="" />
  <defs
     id="defs4">
    <marker
       inkscape:stockid="Arrow2Mend"
       orient="auto"
       refY="0"
       refX="0"
       id="Arrow2Mend"
       style="overflow:visible">
      <path
         id="path3890"
         style="font-size:12px;fill-rule:evenodd;stroke-width:0.625;stroke-linejoin:round"
         d="M 8.7185878,4.0337352 -2.2072895,0.01601326 8.7185884,-4.0017078 c -1.7454984,2.3720609 -1.7354408,5.6174519 -6e-7,8.035443 z"
         transform="scale(-0.6,-0.6)"
         inkscape:connector-curvature="0" />
    </marker>
    <marker
       inkscape:stockid="Arrow1Send"
       orient="auto"
       refY="0"
       refX="0"
       id="Arrow1Send"
       style="overflow:visible">
      <path
         id="path3878"
         d="M 0,0 5,-5 -12.5,0 5,5 0,0 z"
         style="fill-rule:evenodd;stroke:#000000;stroke-width:1pt;marker-start:none"
         transform="matrix(-0.2,0,0,-0.2,-1.2,0)"
         inkscape:connector-curvature="0" />
    </marker>
    <marker
       style="overflow:visible"
       id="Arrow1Lstart"
       refX="0"
       refY="0"
       orient="auto"
       inkscape:stockid="Arrow1Lstart">
      <path
         transform="matrix(0.8,0,0,0.8,10,0)"
         style="fill-rule:evenodd;stroke:#000000;stroke-width:1pt;marker-start:none"
         d="M 0,0 5,-5 -12.5,0 5,5 0,0 z"
         id="path3863"
         inkscape:connector-curvature="0" />
    </marker>
    <marker
       style="overflow:visible"
       id="StopL"
       refX="0"
       refY="0"
       orient="auto"
       inkscape:stockid="StopL">
      <path
         transform="scale(0.8,0.8)"
         style="fill:none;stroke:#000000;stroke-width:1pt"
         d="M 0,5.65 0,-5.65"
         id="path4033"
         inkscape:connector-curvature="0" />
    </marker>
    <marker
       inkscape:stockid="DistanceStart"
       orient="auto"
       refY="0"
       refX="0"
       id="DistanceStart"
       style="overflow:visible">
      <g
         id="g2300">
        <path
           id="path2306"
           d="M 0,0 2,0"
           style="fill:none;stroke:#ffffff;stroke-width:1.14999998;stroke-linecap:square"
           inkscape:connector-curvature="0" />
        <path
           id="path2302"
           d="M 0,0 13,4 9,0 13,-4 0,0 z"
           style="fill:#000000;fill-rule:evenodd;stroke:none"
           inkscape:connector-curvature="0" />
        <path
           id="path2304"
           d="M 0,-4 0,40"
           style="fill:none;stroke:#000000;stroke-width:1;stroke-linecap:square"
           inkscape:connector-curvature="0" />
      </g>
    </marker>
    <marker
       style="overflow:visible"
       id="Arrow1Lend"
       refX="0"
       refY="0"
       orient="auto"
       inkscape:stockid="Arrow1Lend">
      <path
         transform="matrix(-0.8,0,0,-0.8,-10,0)"
         style="fill-rule:evenodd;stroke:#000000;stroke-width:1pt;marker-start:none"
         d="M 0,0 5,-5 -12.5,0 5,5 0,0 z"
         id="path3866"
         inkscape:connector-curvature="0" />
    </marker>
    <marker
       style="overflow:visible"
       id="Arrow1Mend"
       refX="0"
       refY="0"
       orient="auto"
       inkscape:stockid="Arrow1Mend">
      <path
         transform="matrix(-0.4,0,0,-0.4,-4,0)"
         style="fill-rule:evenodd;stroke:#000000;stroke-width:1pt;marker-start:none"
         d="M 0,0 5,-5 -12.5,0 5,5 0,0 z"
         id="path3872"
         inkscape:connector-curvature="0" />
    </marker>
    <!-- markers by NMH <nholtz@cee.carleton.ca> -->
    <marker
       style="overflow:visible"
       id="DimensionTick"
       refX="0"
       refY="0"
       orient="auto"
       inkscape:stockid="DimensionTick">
      <path
         id="path6"
         transform="translate(-4,-4)"
         style="stroke:#4d4d4d;stroke-width:1px;marker-start:none"
         d="M 0,0 8,8"
         inkscape:connector-curvature="0" />
    </marker>
    <marker
       style="overflow:visible"
       markerUnits="userSpaceOnUse"
       id="TrussNodeS"
       refX="0"
       refY="0"
       orient="auto"
       inkscape:stockid="TrussNodeS">
      <circle
         id="circle9"
         style="fill:#ffffff;stroke:#000000;stroke-width:1"
         r="3"
         cy="0"
         cx="0"
         sodipodi:cx="0"
         sodipodi:cy="0"
         sodipodi:rx="3"
         sodipodi:ry="3" />
    </marker>
    <marker
       style="overflow:visible"
       markerUnits="userSpaceOnUse"
       id="TrussNodeM"
       refX="0"
       refY="0"
       orient="auto"
       inkscape:stockid="TrussNodeM">
      <circle
         id="circle12"
         style="fill:#ffffff;stroke:#000000;stroke-width:1"
         r="4"
         cy="0"
         cx="0"
         sodipodi:cx="0"
         sodipodi:cy="0"
         sodipodi:rx="4"
         sodipodi:ry="4" />
    </marker>
  </defs>
  <metadata
     id="metadata7">
    <rdf:RDF>
      <cc:Work
         rdf:about="">
        <dc:format>image/svg+xml</dc:format>
        <dc:type
           rdf:resource="http://purl.org/dc/dcmitype/StillImage" />
        <dc:title />
        <cc:license
           rdf:resource="http://creativecommons.org/licenses/by-nc/3.0/" />
      </cc:Work>
      <cc:License
         rdf:about="http://creativecommons.org/licenses/by-nc/3.0/">
        <cc:permits
           rdf:resource="http://creativecommons.org/ns#Reproduction" />
        <cc:permits
           rdf:resource="http://creativecommons.org/ns#Distribution" />
        <cc:requires
           rdf:resource="http://creativecommons.org/ns#Notice" />
        <cc:requires
           rdf:resource="http://creativecommons.org/ns#Attribution" />
        <cc:prohibits
           rdf:resource="http://creativecommons.org/ns#CommercialUse" />
        <cc:permits
           rdf:resource="http://creativecommons.org/ns#DerivativeWorks" />
      </cc:License>
    </rdf:RDF>
  </metadata>
  <g
     transform="translate(-189.88745,-204.98699)"
     id="layer1"
     inkscape:groupmode="layer"
     inkscape:label="Layer 1">
    <path
       style="fill:#808080;fill-opacity:1;fill-rule:nonzero;stroke:#4d4d4d;stroke-width:0.75;stroke-linecap:square;stroke-linejoin:miter;stroke-miterlimit:4;stroke-opacity:1;stroke-dasharray:0.75, 2.25;stroke-dashoffset:0"
       d="m 226.9802,286.66189 270,0"
       id="path8787"
       inkscape:connector-curvature="0" />
    <path
       style="fill:#808080;fill-opacity:1;fill-rule:nonzero;stroke:#4d4d4d;stroke-width:0.75;stroke-linecap:square;stroke-linejoin:miter;stroke-miterlimit:4;stroke-opacity:1;stroke-dasharray:none;stroke-dashoffset:0"
       d="m 316.9802,358.86149 -90,-72"
       id="path8789"
       inkscape:connector-curvature="0" />
    <path
       style="fill:#808080;fill-opacity:1;fill-rule:nonzero;stroke:#4d4d4d;stroke-width:0.75;stroke-linecap:square;stroke-linejoin:miter;stroke-miterlimit:4;stroke-opacity:1;stroke-dasharray:none;stroke-dashoffset:0"
       d="m 496.9802,286.36199 -90,-72"
       id="path8791"
       inkscape:connector-curvature="0" />
    <path
       style="fill:none;stroke:#000000;stroke-width:3;stroke-linecap:square;stroke-linejoin:miter;stroke-miterlimit:4;stroke-opacity:1;stroke-dasharray:none;stroke-dashoffset:0"
       d="m 496.9802,286.61174 c -45,-36.05015 -135,0 -135,0 0,0 -90,35.94985 -135,0"
       id="path8793"
       inkscape:connector-curvature="0"
       sodipodi:nodetypes="ccc" />
    <path
       sodipodi:type="arc"
       style="fill:none;stroke:#4d4d4d;stroke-width:0.72000003;stroke-linecap:square;stroke-linejoin:miter;stroke-miterlimit:4;stroke-opacity:1;stroke-dasharray:none;stroke-dashoffset:0;marker-start:url(#StopL);marker-end:url(#Arrow1Lend)"
       id="path8795"
       sodipodi:cx="225"
       sodipodi:cy="225"
       sodipodi:rx="72"
       sodipodi:ry="72"
       d="m 297,225 c 0,16.78545 -5.86465,33.04342 -16.58018,45.96351"
       transform="translate(5.4807269,61.661894)"
       sodipodi:start="0"
       sodipodi:end="0.6923944"
       sodipodi:open="true" />
    <g
       style="font-style:normal;font-variant:normal;font-weight:normal;font-stretch:normal;letter-spacing:normal;word-spacing:normal;text-anchor:start;fill:none;stroke:#000000;stroke-width:1;stroke-linecap:butt;stroke-linejoin:miter;stroke-miterlimit:10.43299961;stroke-opacity:1;stroke-dasharray:none;stroke-dashoffset:0"
       id="g8797"
       transform="matrix(1.2,0,0,-1.2,114.69805,1160.5128)"
       xml:space="preserve"
       stroke-miterlimit="10.433"
       font-style="normal"
       font-variant="normal"
       font-weight="normal"
       font-stretch="normal"
       font-size-adjust="none"
       letter-spacing="normal"
       word-spacing="normal"
       ns0:text="\\[\n\\theta_a\n\\]\n"
       ns0:preamble="/home/nholtz/work/share/config/inkscape/extensions/amspreamble.tex">
<path
   style="fill:#000000;stroke-width:0"
   inkscape:connector-curvature="0"
   d="m 158.02,706.59 0,0.07 0,0.08 0,0.07 -0.01,0.08 0,0.09 -0.01,0.08 -0.01,0.09 -0.01,0.09 -0.02,0.1 -0.01,0.09 -0.02,0.09 -0.03,0.09 -0.02,0.1 -0.03,0.09 -0.03,0.09 -0.03,0.09 -0.04,0.08 -0.04,0.09 -0.04,0.08 -0.05,0.08 -0.05,0.07 -0.06,0.07 -0.06,0.07 -0.06,0.06 -0.07,0.05 -0.03,0.03 -0.04,0.02 -0.04,0.02 -0.03,0.02 -0.04,0.02 -0.05,0.02 -0.04,0.01 -0.04,0.02 -0.05,0.01 -0.04,0.01 -0.05,0 -0.05,0.01 -0.05,0 -0.05,0 -0.01,-0.23 c 0.53,0 0.6,-0.7 0.6,-1.32 0,-0.54 -0.09,-1.09 -0.35,-2.17 h -2.28 c 0.19,0.7 0.41,1.57 0.84,2.34 0.3,0.53 0.7,1.15 1.19,1.15 l 0.01,0.23 c -1.51,0 -3.19,-3.07 -3.19,-5.56 0,-1.02 0.31,-2.23 1.31,-2.23 v 0.24 c -0.36,0 -0.59,0.31 -0.59,1.33 0,0.45 0.06,1.08 0.35,2.15 h 2.26 c -0.12,-0.5 -0.35,-1.42 -0.76,-2.21 -0.38,-0.74 -0.8,-1.27 -1.26,-1.27 v -0.24 c 1.53,0 3.18,3.12 3.18,5.56 z"
   id="path8799" />
<path
   style="fill:#000000;stroke-width:0"
   inkscape:connector-curvature="0"
   d="m 161.31,702.54 -0.01,0.01 0,0.02 -0.01,0.01 -0.01,0.02 -0.01,0.02 -0.02,0.01 -0.01,0.02 -0.01,0.02 -0.02,0.02 -0.01,0.02 -0.02,0.02 -0.02,0.02 -0.02,0.02 -0.02,0.02 -0.02,0.02 -0.03,0.02 -0.02,0.02 -0.03,0.02 -0.02,0.01 -0.03,0.02 -0.03,0.02 -0.03,0.01 -0.03,0.02 -0.04,0.01 -0.03,0.01 -0.04,0.01 -0.04,0.01 -0.04,0.01 -0.04,0.01 -0.04,0 -0.04,0.01 -0.05,0 0.01,-0.23 c 0.52,0 0.67,-0.58 0.67,-0.67 0,-0.03 -0.2,-0.81 -0.25,-1.02 -0.1,-0.37 -0.1,-0.39 -0.18,-0.73 h 0 c -0.4,-0.55 -0.81,-0.72 -1.07,-0.72 -0.36,0 -0.55,0.34 -0.55,0.75 0,0.38 0.22,1.22 0.39,1.57 0.24,0.49 0.63,0.82 0.99,0.82 l -0.01,0.23 c -0.94,0 -1.99,-1.11 -1.99,-2.29 0,-0.82 0.54,-1.3 1.15,-1.3 0.51,0 0.95,0.41 1.09,0.57 0.14,-0.55 0.69,-0.57 0.78,-0.57 0.37,0 0.55,0.3 0.61,0.44 0.16,0.29 0.27,0.75 0.27,0.78 0,0.05 -0.03,0.1 -0.12,0.1 -0.1,0 -0.11,-0.05 -0.16,-0.25 -0.11,-0.43 -0.27,-0.85 -0.58,-0.85 -0.18,0 -0.25,0.15 -0.25,0.38 0,0.13 0.07,0.4 0.12,0.6 0.05,0.2 0.17,0.68 0.2,0.82 l 0.16,0.6 c 0.04,0.19 0.13,0.53 0.13,0.57 0,0.18 -0.16,0.24 -0.26,0.24 -0.12,0 -0.32,-0.08 -0.36,-0.32 z"
   id="path8801" />
</g>    <path
       sodipodi:open="true"
       sodipodi:end="0.6923944"
       sodipodi:start="0"
       transform="matrix(-1,0,0,-1,718.59962,511.6254)"
       d="m 297,225 c 0,16.78545 -5.86465,33.04342 -16.58018,45.96351"
       sodipodi:ry="72"
       sodipodi:rx="72"
       sodipodi:cy="225"
       sodipodi:cx="225"
       id="path8803"
       style="fill:none;stroke:#4d4d4d;stroke-width:0.72000003;stroke-linecap:square;stroke-linejoin:miter;stroke-miterlimit:4;stroke-opacity:1;stroke-dasharray:none;stroke-dashoffset:0;marker-start:url(#StopL);marker-end:url(#Arrow1Lend)"
       sodipodi:type="arc" />
    <g
       style="font-style:normal;font-variant:normal;font-weight:normal;font-stretch:normal;letter-spacing:normal;word-spacing:normal;text-anchor:start;fill:none;stroke:#000000;stroke-width:1;stroke-linecap:butt;stroke-linejoin:miter;stroke-miterlimit:10.43299961;stroke-opacity:1;stroke-dasharray:none;stroke-dashoffset:0"
       ns0:preamble="/home/nholtz/work/share/config/inkscape/extensions/amspreamble.tex"
       ns0:text="\\[\n\\theta_b\n\\]\n"
       word-spacing="normal"
       letter-spacing="normal"
       font-size-adjust="none"
       font-stretch="normal"
       font-weight="normal"
       font-variant="normal"
       font-style="normal"
       stroke-miterlimit="10.433"
       xml:space="preserve"
       transform="matrix(1.2,0,0,-1.2,230.1724,1102.3059)"
       id="g8805">
<path
   id="path8807"
   d="m 158.02,706.59 0,0.07 0,0.08 0,0.07 -0.01,0.08 0,0.09 -0.01,0.08 -0.01,0.09 -0.01,0.09 -0.02,0.1 -0.01,0.09 -0.02,0.09 -0.03,0.09 -0.02,0.1 -0.03,0.09 -0.03,0.09 -0.03,0.09 -0.04,0.08 -0.04,0.09 -0.04,0.08 -0.05,0.08 -0.05,0.07 -0.06,0.07 -0.06,0.07 -0.06,0.06 -0.07,0.05 -0.03,0.03 -0.04,0.02 -0.04,0.02 -0.03,0.02 -0.04,0.02 -0.05,0.02 -0.04,0.01 -0.04,0.02 -0.05,0.01 -0.04,0.01 -0.05,0 -0.05,0.01 -0.05,0 -0.05,0 -0.01,-0.23 c 0.53,0 0.6,-0.7 0.6,-1.32 0,-0.54 -0.09,-1.09 -0.35,-2.17 h -2.28 c 0.19,0.7 0.41,1.57 0.84,2.34 0.3,0.53 0.7,1.15 1.19,1.15 l 0.01,0.23 c -1.51,0 -3.19,-3.07 -3.19,-5.56 0,-1.02 0.31,-2.23 1.31,-2.23 v 0.24 c -0.36,0 -0.59,0.31 -0.59,1.33 0,0.45 0.06,1.08 0.35,2.15 h 2.26 c -0.12,-0.5 -0.35,-1.42 -0.76,-2.21 -0.38,-0.74 -0.8,-1.27 -1.26,-1.27 v -0.24 c 1.53,0 3.18,3.12 3.18,5.56 z"
   inkscape:connector-curvature="0"
   style="fill:#000000;stroke-width:0" />
<path
   id="path8809"
   d="m 160.13,704.65 0,0 0,0 0.01,0 0,0 0,0 0,0 0,0.01 0,0 0,0 0,0 0,0.01 0,0 0,0.01 0,0 0.01,0.01 0,0 0,0.01 0,0 0,0.01 0.01,0.01 0,0.01 0,0 0,0.01 0,0 0,0.01 0,0 0,0.01 0,0 0,0 0,0 0,0.01 0,0 0.01,0 0,0 0,0 0,0 0,0 0,0 0,0 0,0 c 0,0.04 -0.04,0.12 -0.13,0.12 -0.03,0 -0.28,-0.03 -0.46,-0.05 l -0.45,-0.03 c -0.17,-0.01 -0.25,-0.02 -0.25,-0.16 0,-0.12 0.11,-0.12 0.2,-0.12 0.38,0 0.38,-0.04 0.38,-0.11 0,-0.05 -0.07,-0.37 -0.12,-0.55 l -0.69,-2.77 c -0.07,-0.27 -0.07,-0.39 -0.07,-0.52 0,-0.82 0.5,-1.29 1.12,-1.29 v 0.22 c -0.29,0 -0.58,0.22 -0.58,0.81 0,0.21 0.03,0.41 0.13,0.79 0.06,0.23 0.11,0.45 0.18,0.68 0.03,0.15 0.03,0.16 0.13,0.28 0.27,0.34 0.63,0.58 0.96,0.58 0.4,0 0.55,-0.39 0.55,-0.74 0,-0.3 -0.17,-1.15 -0.41,-1.62 -0.21,-0.43 -0.59,-0.78 -0.96,-0.78 h 0 v -0.22 c 0.98,0 1.99,1.13 1.99,2.28 0,0.79 -0.51,1.3 -1.14,1.3 -0.45,0 -0.79,-0.28 -0.96,-0.43 z"
   inkscape:connector-curvature="0"
   style="fill:#000000;stroke-width:0" />
</g>    <g
       id="g8811"
       transform="translate(-13.0997,-103.45089)">
      <path
         sodipodi:type="arc"
         style="fill:none;stroke:#000000;stroke-width:1.5;stroke-linecap:square;stroke-linejoin:miter;stroke-miterlimit:4;stroke-opacity:1;stroke-dasharray:none;stroke-dashoffset:0;marker-end:none"
         id="path8813"
         sodipodi:cx="243"
         sodipodi:cy="328.5"
         sodipodi:rx="13.5"
         sodipodi:ry="13.5"
         d="m 241.78484,341.9452 c -7.42558,-0.67112 -12.90115,-7.23478 -12.23004,-14.66036 0.6246,-6.91094 6.38669,-12.2228 13.32552,-12.28431"
         transform="translate(0,62.362)"
         sodipodi:start="1.6609303"
         sodipodi:end="4.703524"
         sodipodi:open="true" />
      <path
         style="fill:none;stroke:#000000;stroke-width:1.5;stroke-linecap:square;stroke-linejoin:miter;stroke-miterlimit:4;stroke-opacity:1;stroke-dasharray:none;stroke-dashoffset:0;marker-end:url(#Arrow1Send)"
         d="m 243,315 3,0"
         id="path8815"
         inkscape:connector-curvature="0"
         transform="translate(0,62.362)"
         sodipodi:nodetypes="cc" />
    </g>
    <text
       xml:space="preserve"
       style="font-style:normal;font-variant:normal;font-weight:normal;font-stretch:normal;line-height:0%;font-family:Verdana;-inkscape-font-specification:Sans;text-align:start;letter-spacing:0px;word-spacing:0px;writing-mode:lr-tb;text-anchor:start;fill:#000000;fill-opacity:1;stroke:none"
       x="200.71205"
       y="303.64377"
       id="text8817"><tspan
         sodipodi:role="line"
         id="tspan8819"
         x="200.71205"
         y="303.64377"
         style="font-size:12px;line-height:1.25">M<tspan
   style="font-size:65.00091553%;baseline-shift:super"
   id="tspan8841">r</tspan><tspan
   style="font-size:65.00091553%;baseline-shift:sub"
   id="tspan8823">ab</tspan></tspan></text>
    <g
       id="g8825"
       transform="matrix(-1,0,0,-1,737.5805,676.82379)">
      <path
         sodipodi:open="true"
         sodipodi:end="4.703524"
         sodipodi:start="1.6609303"
         transform="translate(0,62.362)"
         d="m 241.78484,341.9452 c -7.42558,-0.67112 -12.90115,-7.23478 -12.23004,-14.66036 0.6246,-6.91094 6.38669,-12.2228 13.32552,-12.28431"
         sodipodi:ry="13.5"
         sodipodi:rx="13.5"
         sodipodi:cy="328.5"
         sodipodi:cx="243"
         id="path8827"
         style="fill:none;stroke:#000000;stroke-width:1.5;stroke-linecap:square;stroke-linejoin:miter;stroke-miterlimit:4;stroke-opacity:1;stroke-dasharray:none;stroke-dashoffset:0;marker-end:none"
         sodipodi:type="arc" />
      <path
         sodipodi:nodetypes="cc"
         transform="translate(0,62.362)"
         inkscape:connector-curvature="0"
         id="path8829"
         d="m 243,315 3,0"
         style="fill:none;stroke:#000000;stroke-width:1.5;stroke-linecap:square;stroke-linejoin:miter;stroke-miterlimit:4;stroke-opacity:1;stroke-dasharray:none;stroke-dashoffset:0;marker-end:url(#Arrow1Send)" />
    </g>
    <text
       xml:space="preserve"
       style="font-style:normal;font-variant:normal;font-weight:normal;font-stretch:normal;line-height:0%;font-family:Verdana;-inkscape-font-specification:Sans;text-align:start;letter-spacing:0px;word-spacing:0px;writing-mode:lr-tb;text-anchor:start;fill:#000000;fill-opacity:1;stroke:none"
       x="500.30609"
       y="271.31064"
       id="text8831"><tspan
         sodipodi:role="line"
         id="tspan8833"
         x="500.30609"
         y="271.31064"
         style="font-size:12px;line-height:1.25">M<tspan
   style="font-size:65.00091553%;baseline-shift:super"
   id="tspan8839">r</tspan><tspan
   style="font-size:65.00091553%;baseline-shift:sub"
   id="tspan8837">ba</tspan></tspan></text>
    <path
       style="fill:#e6e6e6;stroke:#000000;stroke-width:1;stroke-linecap:square;stroke-linejoin:miter;stroke-miterlimit:4;stroke-opacity:1;stroke-dasharray:none;stroke-dashoffset:0"
       d="m 497.40865,430.5288 -270,0 0,-36 z"
       id="path5827"
       inkscape:connector-curvature="0" />
    <path
       style="fill:#e6e6e6;fill-opacity:1;fill-rule:nonzero;stroke:#000000;stroke-width:1;stroke-linecap:square;stroke-linejoin:miter;stroke-miterlimit:4;stroke-opacity:1;stroke-dasharray:none;stroke-dashoffset:0"
       d="m 227.40865,439.5288 270,0 0,36 z"
       id="path5829"
       inkscape:connector-curvature="0" />
    <path
       style="fill:#e6e6e6;fill-opacity:1;fill-rule:nonzero;stroke:#000000;stroke-width:3;stroke-linecap:square;stroke-linejoin:miter;stroke-miterlimit:4;stroke-opacity:1;stroke-dasharray:none;stroke-dashoffset:0"
       d="m 227.40865,520.5288 270,0"
       id="path5831"
       inkscape:connector-curvature="0" />
    <path
       style="fill:#e6e6e6;fill-opacity:1;fill-rule:nonzero;stroke:#000000;stroke-width:1;stroke-linecap:square;stroke-linejoin:miter;stroke-miterlimit:4;stroke-opacity:1;stroke-dasharray:none;stroke-dashoffset:0"
       d="m 497.40865,565.5288 -270,0 0,-27 z"
       id="path5833"
       inkscape:connector-curvature="0" />
    <path
       style="fill:#e6e6e6;fill-opacity:1;fill-rule:nonzero;stroke:#000000;stroke-width:3;stroke-linecap:square;stroke-linejoin:miter;stroke-miterlimit:4;stroke-opacity:1;stroke-dasharray:none;stroke-dashoffset:0"
       d="m 227.40865,610.5288 270,0"
       id="path5835"
       inkscape:connector-curvature="0" />
    <path
       style="fill:#e6e6e6;fill-opacity:1;fill-rule:nonzero;stroke:#000000;stroke-width:1;stroke-linecap:square;stroke-linejoin:miter;stroke-miterlimit:4;stroke-opacity:1;stroke-dasharray:none;stroke-dashoffset:0"
       d="m 497.40865,628.5288 0,27 -270,-27 z"
       id="path5837"
       inkscape:connector-curvature="0" />
    <g
       transform="translate(-12.0898,130.54911)"
       id="g5839">
      <path
         sodipodi:open="true"
         sodipodi:end="4.703524"
         sodipodi:start="1.6609303"
         transform="translate(0,62.362)"
         d="m 241.78484,341.9452 c -7.42558,-0.67112 -12.90115,-7.23478 -12.23004,-14.66036 0.6246,-6.91094 6.38669,-12.2228 13.32552,-12.28431"
         sodipodi:ry="13.5"
         sodipodi:rx="13.5"
         sodipodi:cy="328.5"
         sodipodi:cx="243"
         id="path5841"
         style="fill:none;stroke:#000000;stroke-width:1.5;stroke-linecap:square;stroke-linejoin:miter;stroke-miterlimit:4;stroke-opacity:1;stroke-dasharray:none;stroke-dashoffset:0;marker-end:none"
         sodipodi:type="arc" />
      <path
         sodipodi:nodetypes="cc"
         transform="translate(0,62.362)"
         inkscape:connector-curvature="0"
         id="path5843"
         d="m 243,315 3,0"
         style="fill:none;stroke:#000000;stroke-width:1.5;stroke-linecap:square;stroke-linejoin:miter;stroke-miterlimit:4;stroke-opacity:1;stroke-dasharray:none;stroke-dashoffset:0;marker-end:url(#Arrow1Send)" />
    </g>
    <g
       transform="matrix(-1,0,0,-1,737.5805,1000.8238)"
       id="g5845">
      <path
         sodipodi:type="arc"
         style="fill:none;stroke:#000000;stroke-width:1.5;stroke-linecap:square;stroke-linejoin:miter;stroke-miterlimit:4;stroke-opacity:1;stroke-dasharray:none;stroke-dashoffset:0;marker-end:none"
         id="path5847"
         sodipodi:cx="243"
         sodipodi:cy="328.5"
         sodipodi:rx="13.5"
         sodipodi:ry="13.5"
         d="m 241.78484,341.9452 c -7.42558,-0.67112 -12.90115,-7.23478 -12.23004,-14.66036 0.6246,-6.91094 6.38669,-12.2228 13.32552,-12.28431"
         transform="translate(0,62.362)"
         sodipodi:start="1.6609303"
         sodipodi:end="4.703524"
         sodipodi:open="true" />
      <path
         style="fill:none;stroke:#000000;stroke-width:1.5;stroke-linecap:square;stroke-linejoin:miter;stroke-miterlimit:4;stroke-opacity:1;stroke-dasharray:none;stroke-dashoffset:0;marker-end:url(#Arrow1Send)"
         d="m 243,315 3,0"
         id="path5849"
         inkscape:connector-curvature="0"
         transform="translate(0,62.362)"
         sodipodi:nodetypes="cc" />
    </g>
    <text
       xml:space="preserve"
       style="font-style:normal;font-variant:normal;font-weight:normal;font-stretch:normal;line-height:0%;font-family:Verdana;-inkscape-font-specification:Sans;text-align:start;letter-spacing:0px;word-spacing:0px;writing-mode:lr-tb;text-anchor:start;fill:#000000;fill-opacity:1;stroke:none"
       x="217.14133"
       y="507.80603"
       id="text5851"><tspan
         sodipodi:role="line"
         id="tspan5853"
         x="217.14133"
         y="507.80603"
         style="font-size:12px;line-height:1.25">1*</tspan></text>
    <text
       xml:space="preserve"
       style="font-style:normal;font-variant:normal;font-weight:normal;font-stretch:normal;line-height:0%;font-family:Verdana;-inkscape-font-specification:Sans;text-align:start;letter-spacing:0px;word-spacing:0px;writing-mode:lr-tb;text-anchor:start;fill:#000000;fill-opacity:1;stroke:none"
       x="512.68585"
       y="612.26147"
       id="text5855"><tspan
         sodipodi:role="line"
         id="tspan5857"
         x="512.68585"
         y="612.26147"
         style="font-size:12px;line-height:1.25">1*</tspan></text>
    <text
       xml:space="preserve"
       style="font-style:normal;font-variant:normal;font-weight:normal;font-stretch:normal;line-height:0%;font-family:Verdana;-inkscape-font-specification:Sans;text-align:start;letter-spacing:0px;word-spacing:0px;writing-mode:lr-tb;text-anchor:start;fill:#000000;fill-opacity:1;stroke:none"
       x="199.26013"
       y="631.07336"
       id="text5859"><tspan
         sodipodi:role="line"
         id="tspan5861"
         x="199.26013"
         y="631.07336"
         style="font-size:12px;line-height:1.25">m<tspan
   style="font-size:65.00091553%;baseline-shift:sub"
   id="tspan5881">2</tspan></tspan></text>
    <text
       xml:space="preserve"
       style="font-style:normal;font-variant:normal;font-weight:normal;font-stretch:normal;line-height:0%;font-family:Verdana;-inkscape-font-specification:Sans;text-align:start;letter-spacing:0px;word-spacing:0px;writing-mode:lr-tb;text-anchor:start;fill:#000000;fill-opacity:1;stroke:none"
       x="199.26013"
       y="567.21198"
       id="text5863"><tspan
         sodipodi:role="line"
         id="tspan5865"
         x="199.26013"
         y="567.21198"
         style="font-size:12px;line-height:1.25">m<tspan
   style="font-size:65.00091553%;baseline-shift:sub"
   id="tspan5879">1</tspan></tspan></text>
    <text
       xml:space="preserve"
       style="font-style:normal;font-variant:normal;font-weight:normal;font-stretch:normal;line-height:0%;font-family:Verdana;-inkscape-font-specification:Sans;text-align:start;letter-spacing:0px;word-spacing:0px;writing-mode:lr-tb;text-anchor:start;fill:#000000;fill-opacity:1;stroke:none"
       x="198.21063"
       y="418.24167"
       id="text5867"><tspan
         sodipodi:role="line"
         id="tspan5869"
         x="198.21063"
         y="418.24167"
         style="font-size:12px;line-height:1.25">M<tspan
   style="font-size:65.00091553%;baseline-shift:sub"
   id="tspan5877">1</tspan></tspan></text>
    <text
       xml:space="preserve"
       style="font-style:normal;font-variant:normal;font-weight:normal;font-stretch:normal;line-height:0%;font-family:Verdana;-inkscape-font-specification:Sans;text-align:start;letter-spacing:0px;word-spacing:0px;writing-mode:lr-tb;text-anchor:start;fill:#000000;fill-opacity:1;stroke:none"
       x="197.71558"
       y="447.82584"
       id="text5871"><tspan
         sodipodi:role="line"
         id="tspan5873"
         x="197.71558"
         y="447.82584"
         style="font-size:12px;line-height:1.25">M<tspan
   style="font-size:65.00091553%;baseline-shift:sub"
   id="tspan5875">2</tspan></tspan></text>
    <text
       xml:space="preserve"
       style="font-style:normal;font-variant:normal;font-weight:normal;font-stretch:normal;line-height:0%;font-family:Verdana;-inkscape-font-specification:Sans;text-align:start;letter-spacing:0px;word-spacing:0px;writing-mode:lr-tb;text-anchor:start;fill:#000000;fill-opacity:1;stroke:none"
       x="207.14133"
       y="542.97437"
       id="text5883"><tspan
         sodipodi:role="line"
         id="tspan5885"
         x="207.14133"
         y="542.97437"
         style="font-size:12px;line-height:1.25">+1</tspan></text>
    <text
       xml:space="preserve"
       style="font-style:normal;font-variant:normal;font-weight:normal;font-stretch:normal;line-height:0%;font-family:Verdana;-inkscape-font-specification:Sans;text-align:start;letter-spacing:0px;word-spacing:0px;writing-mode:lr-tb;text-anchor:start;fill:#000000;fill-opacity:1;stroke:none"
       x="500.25021"
       y="660.83575"
       id="text5887"><tspan
         sodipodi:role="line"
         id="tspan5889"
         x="500.25021"
         y="660.83575"
         style="font-size:12px;line-height:1.25">-1</tspan></text>
    <text
       xml:space="preserve"
       style="font-style:normal;font-variant:normal;font-weight:normal;font-stretch:normal;line-height:0%;font-family:Verdana;-inkscape-font-specification:Sans;text-align:start;letter-spacing:0px;word-spacing:0px;writing-mode:lr-tb;text-anchor:start;fill:#000000;fill-opacity:1;stroke:none"
       x="218.13142"
       y="390.49908"
       id="text5891"><tspan
         sodipodi:role="line"
         id="tspan5893"
         x="218.13142"
         y="390.49908"
         style="font-size:12px;line-height:1.25">+M<tspan
   style="font-size:65.00091553%;baseline-shift:super"
   id="tspan5903">r</tspan><tspan
   style="font-size:65.00091553%;baseline-shift:sub"
   id="tspan5905">ab</tspan></tspan></text>
    <text
       xml:space="preserve"
       style="font-style:normal;font-variant:normal;font-weight:normal;font-stretch:normal;line-height:0%;font-family:Verdana;-inkscape-font-specification:Sans;text-align:start;letter-spacing:0px;word-spacing:0px;writing-mode:lr-tb;text-anchor:start;fill:#000000;fill-opacity:1;stroke:none"
       x="498.28983"
       y="483.52881"
       id="text5895"><tspan
         sodipodi:role="line"
         id="tspan5897"
         x="498.28983"
         y="483.52881"
         style="font-size:12px;line-height:1.25">-M<tspan
   style="font-size:65.00091553%;baseline-shift:super"
   id="tspan5901">r</tspan><tspan
   style="font-size:65.00091553%;baseline-shift:sub"
   id="tspan5899">ba</tspan></tspan></text>
    <path
       style="fill:#e6e6e6;fill-opacity:1;fill-rule:nonzero;stroke:#4d4d4d;stroke-width:0.75;stroke-linecap:square;stroke-linejoin:miter;stroke-miterlimit:4;stroke-opacity:1;stroke-dasharray:none;stroke-dashoffset:0"
       d="m 36,102.88379 0,18"
       id="path5907"
       inkscape:connector-curvature="0"
       transform="translate(190.9037,237.64501)" />
    <path
       style="fill:#e6e6e6;fill-opacity:1;fill-rule:nonzero;stroke:#4d4d4d;stroke-width:0.75;stroke-linecap:square;stroke-linejoin:miter;stroke-miterlimit:4;stroke-opacity:1;stroke-dasharray:none;stroke-dashoffset:0"
       d="m 315,102.88379 0,18"
       id="path5909"
       inkscape:connector-curvature="0"
       transform="translate(190.9037,237.64501)" />
    <path
       style="fill:#e6e6e6;fill-opacity:1;fill-rule:nonzero;stroke:#4d4d4d;stroke-width:0.72000003;stroke-linecap:square;stroke-linejoin:miter;stroke-miterlimit:4;stroke-opacity:1;stroke-dasharray:none;stroke-dashoffset:0;marker-start:url(#DimensionTick);marker-end:url(#DimensionTick)"
       d="m 36,111.88379 279,0"
       id="path5911"
       inkscape:connector-curvature="0"
       transform="translate(190.9037,237.64501)" />
    <text
       xml:space="preserve"
       style="font-style:normal;font-variant:normal;font-weight:normal;font-stretch:normal;line-height:0%;font-family:Verdana;-inkscape-font-specification:Sans;text-align:start;letter-spacing:0px;word-spacing:0px;writing-mode:lr-tb;text-anchor:start;fill:#000000;fill-opacity:1;stroke:none"
       x="173.76237"
       y="106.43825"
       id="text6896"
       transform="translate(190.9037,237.64501)"><tspan
         sodipodi:role="line"
         id="tspan6898"
         x="173.76237"
         y="106.43825"
         style="font-size:12px;line-height:1.25">L</tspan></text>
    <text
       xml:space="preserve"
       style="font-style:normal;font-variant:normal;font-weight:normal;font-stretch:normal;line-height:0%;font-family:Verdana;-inkscape-font-specification:Sans;text-align:start;letter-spacing:0px;word-spacing:0px;writing-mode:lr-tb;text-anchor:start;fill:#000000;fill-opacity:1;stroke:none"
       x="179.20792"
       y="65.349136"
       id="text6900"
       transform="translate(190.9037,237.64501)"><tspan
         sodipodi:role="line"
         id="tspan6902"
         x="179.20792"
         y="65.349136"
         style="font-size:12px;line-height:1.25">E,I</tspan></text>
    <path
       style="fill:none;stroke:#4d4d4d;stroke-width:0.75;stroke-linecap:butt;stroke-linejoin:miter;stroke-opacity:1"
       d="m 177.22772,61.368939 c -9.69862,2.74914 -13.03734,-3.171381 -16.33663,-5.920793"
       id="path6904"
       inkscape:connector-curvature="0"
       transform="translate(190.9037,237.64501)"
       sodipodi:nodetypes="cc" />
    <text
       xml:space="preserve"
       style="font-style:italic;font-variant:normal;font-weight:normal;font-stretch:normal;line-height:0%;font-family:Verdana;-inkscape-font-specification:'Sans Italic';text-align:start;letter-spacing:0px;word-spacing:0px;writing-mode:lr-tb;text-anchor:start;fill:#000000;fill-opacity:1;stroke:none"
       x="37.62376"
       y="45.052105"
       id="text6906"
       transform="translate(190.9037,237.64501)"><tspan
         sodipodi:role="line"
         id="tspan6908"
         x="37.62376"
         y="45.052105"
         style="font-size:10px;line-height:1.25">a</tspan></text>
    <text
       xml:space="preserve"
       style="font-style:italic;font-variant:normal;font-weight:normal;font-stretch:normal;line-height:0%;font-family:Verdana;-inkscape-font-specification:'Sans Italic';text-align:start;letter-spacing:0px;word-spacing:0px;writing-mode:lr-tb;text-anchor:start;fill:#000000;fill-opacity:1;stroke:none"
       x="296.53464"
       y="55.943195"
       id="text6910"
       transform="translate(190.9037,237.64501)"><tspan
         sodipodi:role="line"
         id="tspan6912"
         x="296.53464"
         y="55.943195"
         style="font-size:10px;line-height:1.25">b</tspan></text>
    <text
       xml:space="preserve"
       style="font-style:italic;font-variant:normal;font-weight:normal;font-stretch:normal;line-height:0%;font-family:Verdana;-inkscape-font-specification:Sans;text-align:start;letter-spacing:0px;word-spacing:0px;writing-mode:lr-tb;text-anchor:start;fill:#000000;fill-opacity:1;stroke:none"
       x="353.46536"
       y="82.175491"
       id="text3532"
       transform="translate(189.88745,204.98699)"><tspan
         sodipodi:role="line"
         id="tspan3534"
         x="353.46536"
         y="82.175491"
         style="font-size:12px;line-height:1.25">case ii)</tspan></text>
  </g>
</svg>
