<?xml version="1.0" encoding="UTF-8" standalone="no"?>
<svg
   xmlns:dc="http://purl.org/dc/elements/1.1/"
   xmlns:cc="http://creativecommons.org/ns#"
   xmlns:rdf="http://www.w3.org/1999/02/22-rdf-syntax-ns#"
   xmlns:svg="http://www.w3.org/2000/svg"
   xmlns="http://www.w3.org/2000/svg"
   xmlns:xlink="http://www.w3.org/1999/xlink"
   version="1.1"
   id="svg2"
   height="204.75682"
   width="318.12274">
  <script
     id="script3033"
     xlink:href="" />
  <defs
     id="defs4" />
  <metadata
     id="metadata7">
    <rdf:RDF>
      <cc:Work
         rdf:about="">
        <dc:format>image/svg+xml</dc:format>
        <dc:type
           rdf:resource="http://purl.org/dc/dcmitype/StillImage" />
        <dc:title />
        <cc:license
           rdf:resource="http://creativecommons.org/licenses/by-nc/3.0/" />
      </cc:Work>
      <cc:License
         rdf:about="http://creativecommons.org/licenses/by-nc/3.0/">
        <cc:permits
           rdf:resource="http://creativecommons.org/ns#Reproduction" />
        <cc:permits
           rdf:resource="http://creativecommons.org/ns#Distribution" />
        <cc:requires
           rdf:resource="http://creativecommons.org/ns#Notice" />
        <cc:requires
           rdf:resource="http://creativecommons.org/ns#Attribution" />
        <cc:prohibits
           rdf:resource="http://creativecommons.org/ns#CommercialUse" />
        <cc:permits
           rdf:resource="http://creativecommons.org/ns#DerivativeWorks" />
      </cc:License>
    </rdf:RDF>
  </metadata>
  <g
     transform="translate(-100.83321,-300.60332)"
     id="layer1">
    <g
       id="g3125">
      <path
         style="fill:none;stroke:#000000;stroke-width:1px;stroke-linecap:butt;stroke-linejoin:miter;stroke-opacity:1"
         d="m 228.75,391.862 -99,72"
         id="path3625" />
      <path
         style="fill:none;stroke:#000000;stroke-width:1px;stroke-linecap:butt;stroke-linejoin:miter;stroke-opacity:1"
         d="m 222.60012,322.21512 99,72"
         id="path3563" />
      <path
         style="fill:none;stroke:#000000;stroke-width:1px;stroke-linecap:butt;stroke-linejoin:miter;stroke-opacity:1"
         d="m 228.24658,322.56867 -99,72"
         id="path3496" />
      <path
         style="fill:none;stroke:#000000;stroke-width:1.45979667;stroke-linecap:butt;stroke-linejoin:miter;stroke-opacity:1"
         d="m 135.9647,393.56347 h 85.99246"
         id="path3417" />
      <path
         style="fill:none;stroke:#000000;stroke-width:1.17750227;stroke-linecap:butt;stroke-linejoin:miter;stroke-opacity:1"
         d="m 225.53947,327.75485 v 62.39301"
         id="path3419" />
      <circle
         style="fill:#ffffff;stroke:#000000;stroke-width:1"
         id="circle3573"
         r="2.5"
         cy="0"
         cx="0"
         transform="matrix(1.25,0,0,1.25,225.5,393.487)" />
      <circle
         style="fill:#ffffff;stroke:#000000;stroke-width:1"
         id="circle3573-7"
         r="2.5"
         cy="0"
         cx="0"
         transform="matrix(1.25,0,0,1.25,132.5,393.487)" />
      <circle
         style="fill:#ffffff;stroke:#000000;stroke-width:1"
         id="circle3573-7-0"
         r="2.5"
         cy="0"
         cx="0"
         transform="matrix(1.25,0,0,1.25,225.50992,324.35332)" />
      <path
         style="fill:none;stroke:#000000;stroke-width:1.45979667;stroke-linecap:butt;stroke-linejoin:miter;stroke-opacity:1"
         d="m 228.9868,393.56347 h 85.99246"
         id="path3417-9" />
      <circle
         style="fill:#ffffff;stroke:#000000;stroke-width:1"
         id="circle3573-4"
         r="2.5"
         cy="0"
         cx="0"
         transform="matrix(1.25,0,0,1.25,318.49445,393.487)" />
      <path
         style="fill:none;stroke:#000000;stroke-width:1.17750227;stroke-linecap:butt;stroke-linejoin:miter;stroke-opacity:1"
         d="m 132.58052,397.00617 v 62.39301"
         id="path3419-8-8" />
      <g
         id="g3087">
        <path
           id="path3419-8"
           d="m 318.51802,397.00617 v 62.39301"
           style="fill:none;stroke:#000000;stroke-width:1.17750227;stroke-linecap:butt;stroke-linejoin:miter;stroke-opacity:1" />
        <circle
           transform="matrix(1.25,0,0,1.25,318.49445,462.77996)"
           cx="0"
           cy="0"
           r="2.5"
           id="circle3573-4-2"
           style="fill:#ffffff;stroke:#000000;stroke-width:1" />
      </g>
      <circle
         style="fill:#ffffff;stroke:#000000;stroke-width:1"
         id="circle3573-4-4"
         r="2.5"
         cy="0"
         cx="0"
         transform="matrix(1.25,0,0,1.25,132.55695,462.862)" />
      <g
         id="use90"
         transform="matrix(1.25,0,0,1.25,132.52515,467.09425)">
        <path
           d="M 0,0 4,6 H -4 Z"
           id="path5224"
           style="fill:#000000;stroke:#000000;stroke-width:0" />
        <path
           d="M -6,6 H 6"
           id="path5226"
           style="fill:none;stroke:#000000;stroke-width:1" />
        <path
           d="M 6,6 3,9 M 3,6 0,9 M 0,6 -3,9 m 0,-3 -3,3 m 0,-3 -3,3"
           id="path5228"
           style="fill:none;stroke:#000000;stroke-width:1" />
      </g>
      <g
         transform="translate(186.5858,128.93935)"
         id="g3395">
        <path
           d="m 132.30977,337.64131 5,7.5 h -10 z"
           id="path5224-5"
           style="fill:#000000;stroke:#000000;stroke-width:0" />
        <path
           d="m 124.80977,352.22885 h 15"
           id="path5226-4"
           style="fill:none;stroke:#000000;stroke-width:1.25" />
        <path
           d="m 139.80977,352.22885 -3.75,3.75 m 0,-3.75 -3.75,3.75 m 0,-3.75 -3.75,3.75 m 0,-3.75 -3.75,3.75 m 0,-3.75 -3.75,3.75"
           id="path5228-7"
           style="fill:none;stroke:#000000;stroke-width:1.25" />
        <path
           id="path3342"
           d="m 123.97004,345.62043 h 16.4794"
           style="fill:none;stroke:#000000;stroke-width:1px;stroke-linecap:butt;stroke-linejoin:miter;stroke-opacity:1" />
        <g
           transform="matrix(0.93789014,0,0,0.93789014,138.50605,348.88774)"
           id="use3513-4">
          <circle
             style="fill:#ffffff;stroke:#000000;stroke-width:1"
             id="circle3573-4-5"
             r="2.5"
             cy="0"
             cx="0" />
        </g>
        <g
           transform="matrix(0.93789014,0,0,0.93789014,132.64559,348.94766)"
           id="use3513-4-3">
          <circle
             style="fill:#ffffff;stroke:#000000;stroke-width:1"
             id="circle3573-4-0"
             r="2.5"
             cy="0"
             cx="0" />
        </g>
        <g
           transform="matrix(0.93789014,0,0,0.93789014,126.80899,348.94766)"
           id="use3513-4-7">
          <circle
             style="fill:#ffffff;stroke:#000000;stroke-width:1"
             id="circle3573-4-8"
             r="2.5"
             cy="0"
             cx="0" />
        </g>
      </g>
      <path
         id="path3093"
         d="m 318.56294,396.34243 11.18029,65.80002"
         style="fill:none;stroke:#ff0000;stroke-width:1.17750227;stroke-linecap:butt;stroke-linejoin:miter;stroke-opacity:1" />
      <circle
         transform="matrix(1.2310368,-0.21690629,0.21690629,1.2310368,329.95312,462.53669)"
         cx="0"
         cy="0"
         r="2.5"
         id="circle3095"
         style="fill:#ffffff;stroke:#ff0000;stroke-width:1" />
      <g
         id="g3097"
         transform="translate(198.5858,128.93935)"
         style="stroke:#ff0000">
        <path
           style="fill:#ff0000;stroke:#ff0000;stroke-width:0"
           id="path3099"
           d="m 132.30977,337.64131 5,7.5 h -10 z" />
        <path
           style="fill:none;stroke:#ff0000;stroke-width:1.25"
           id="path3101"
           d="m 124.80977,352.22885 h 15" />
        <path
           style="fill:none;stroke:#ff0000;stroke-width:1.25"
           id="path3103"
           d="m 139.80977,352.22885 -3.75,3.75 m 0,-3.75 -3.75,3.75 m 0,-3.75 -3.75,3.75 m 0,-3.75 -3.75,3.75 m 0,-3.75 -3.75,3.75" />
        <path
           style="fill:none;stroke:#ff0000;stroke-width:1px;stroke-linecap:butt;stroke-linejoin:miter;stroke-opacity:1"
           d="m 123.97004,345.62043 h 16.4794"
           id="path3105" />
        <g
           id="g3107"
           transform="matrix(0.93789014,0,0,0.93789014,138.50605,348.88774)"
           style="stroke:#ff0000">
          <circle
             cx="0"
             cy="0"
             r="2.5"
             id="circle3109"
             style="fill:#ffffff;stroke:#ff0000;stroke-width:1" />
        </g>
        <g
           id="g3111"
           transform="matrix(0.93789014,0,0,0.93789014,132.64559,348.94766)"
           style="stroke:#ff0000">
          <circle
             cx="0"
             cy="0"
             r="2.5"
             id="circle3113"
             style="fill:#ffffff;stroke:#ff0000;stroke-width:1" />
        </g>
        <g
           id="g3115"
           transform="matrix(0.93789014,0,0,0.93789014,126.80899,348.94766)"
           style="stroke:#ff0000">
          <circle
             cx="0"
             cy="0"
             r="2.5"
             id="circle3117"
             style="fill:#ffffff;stroke:#ff0000;stroke-width:1" />
        </g>
      </g>
      <text
         xml:space="preserve"
         style="font-style:normal;font-variant:normal;font-weight:normal;font-stretch:normal;line-height:0%;font-family:Verdana;-inkscape-font-specification:Sans;text-align:start;letter-spacing:0px;word-spacing:0px;writing-mode:lr-tb;text-anchor:start;fill:#000000;fill-opacity:1;stroke:none"
         x="355.67471"
         y="301.27798"
         id="text3121"
         transform="translate(0,62.362)"><tspan
           style="font-size:10px;line-height:1.25"
           id="tspan3123"
           x="355.67471"
           y="301.27798">Unstable</tspan></text>
    </g>
  </g>
</svg>
