<?xml version="1.0" encoding="UTF-8" standalone="no"?>
<svg
   xmlns:dc="http://purl.org/dc/elements/1.1/"
   xmlns:cc="http://creativecommons.org/ns#"
   xmlns:rdf="http://www.w3.org/1999/02/22-rdf-syntax-ns#"
   xmlns:svg="http://www.w3.org/2000/svg"
   xmlns="http://www.w3.org/2000/svg"
   xmlns:xlink="http://www.w3.org/1999/xlink"
   version="1.1"
   id="svg2"
   height="291.96088"
   width="360.45483">
  <script
     id="script3033"
     xlink:href="" />
  <defs
     id="defs4" />
  <metadata
     id="metadata7">
    <rdf:RDF>
      <cc:Work
         rdf:about="">
        <dc:format>image/svg+xml</dc:format>
        <dc:type
           rdf:resource="http://purl.org/dc/dcmitype/StillImage" />
        <dc:title />
        <cc:license
           rdf:resource="http://creativecommons.org/licenses/by-nc/3.0/" />
      </cc:Work>
      <cc:License
         rdf:about="http://creativecommons.org/licenses/by-nc/3.0/">
        <cc:permits
           rdf:resource="http://creativecommons.org/ns#Reproduction" />
        <cc:permits
           rdf:resource="http://creativecommons.org/ns#Distribution" />
        <cc:requires
           rdf:resource="http://creativecommons.org/ns#Notice" />
        <cc:requires
           rdf:resource="http://creativecommons.org/ns#Attribution" />
        <cc:prohibits
           rdf:resource="http://creativecommons.org/ns#CommercialUse" />
        <cc:permits
           rdf:resource="http://creativecommons.org/ns#DerivativeWorks" />
      </cc:License>
    </rdf:RDF>
  </metadata>
  <g
     transform="translate(-316.51705,-311.00195)"
     id="layer1">
    <g
       id="g3535">
      <g
         id="g3889">
        <g
           transform="translate(25.89608,49.28722)"
           id="g7152">
          <g
             id="g7132"
             transform="translate(26.949055,9.9801984)">
            <g
               transform="translate(-16.712872,-13.01237)"
               id="g7120">
              <path
                 style="fill:none;stroke:#000000;stroke-width:1.25"
                 id="path3411"
                 d="m 304.57673,312.112 -3.75,3.75 m 3.75,0 -3.75,3.75 m 3.75,0 -3.75,3.75 m 3.75,0 -3.75,3.75 m 3.75,0 -3.75,3.75" />
              <path
                 style="fill:none;stroke:#000000;stroke-width:1.25"
                 id="path3411-4"
                 d="m 304.57673,330.7308 -3.75,3.75 m 3.75,0 -3.75,3.75 m 3.75,0 -3.75,3.75 m 3.75,0 -3.75,3.75 m 3.75,0 -3.75,3.75" />
              <path
                 style="fill:none;stroke:#000000;stroke-width:1.25"
                 id="path3411-3"
                 d="m 304.57673,349.54516 -3.75,3.75 m 3.75,0 -3.75,3.75 m 3.75,0 -3.75,3.75 m 3.75,0 -3.75,3.75 m 3.75,0 -3.75,3.75" />
              <path
                 style="fill:none;stroke:#000000;stroke-width:1.25"
                 id="path3411-8"
                 d="m 304.57673,368.86448 -3.75,3.75 m 3.75,0 -3.75,3.75 m 3.75,0 -3.75,3.75 m 3.75,0 -3.75,3.75 m 3.75,0 -3.75,3.75" />
              <path
                 style="fill:none;stroke:#000000;stroke-width:1.25"
                 id="path3411-0"
                 d="m 304.57673,387.4932 -3.75,3.75 m 3.75,0 -3.75,3.75 m 3.75,0 -3.75,3.75 m 3.75,0 -3.75,3.75 m 3.75,0 -3.75,3.75" />
              <path
                 style="fill:none;stroke:#000000;stroke-width:1.25"
                 id="path3411-88"
                 d="m 304.57673,406.10208 -3.75,3.75 m 3.75,0 -3.75,3.75 m 3.75,0 -3.75,3.75 m 3.75,0 -3.75,3.75 m 3.75,0 -3.75,3.75" />
              <path
                 style="fill:none;stroke:#000000;stroke-width:1.25"
                 id="path3411-88-0"
                 d="m 304.57673,424.9684 -3.75,3.75 m 3.75,0 -3.75,3.75 m 3.75,0 -3.75,3.75 m 3.75,0 -3.75,3.75 m 3.75,0 -3.75,3.75" />
              <path
                 style="fill:none;stroke:#000000;stroke-width:1.25"
                 id="path3411-88-6"
                 d="m 304.83417,293.32976 -3.75,3.75 m 3.75,0 -3.75,3.75 m 3.75,0 -3.75,3.75 m 3.75,0 -3.75,3.75 m 3.75,0 -3.75,3.75" />
            </g>
            <path
               transform="translate(0,62.362)"
               id="path7130"
               d="M 288,216 V 369"
               style="fill:none;stroke:#000000;stroke-width:1px;stroke-linecap:butt;stroke-linejoin:miter;stroke-opacity:1" />
          </g>
          <path
             style="fill:none;stroke:#000000;stroke-width:1px;stroke-linecap:butt;stroke-linejoin:miter;stroke-opacity:1"
             d="M 315,360 423,252"
             id="path7008"
             transform="translate(0,62.362)" />
          <path
             style="fill:none;stroke:#000000;stroke-width:1;stroke-linecap:butt;stroke-linejoin:miter;stroke-opacity:1"
             d="m 315,312.3719 v 51.99418"
             id="path6829" />
          <path
             style="fill:none;stroke:#000000;stroke-width:1;stroke-linecap:butt;stroke-linejoin:miter;stroke-opacity:1"
             d="m 314.51087,312.87266 h 51.99418"
             id="path6831" />
          <path
             style="fill:none;stroke:#000000;stroke-width:1;stroke-linecap:butt;stroke-linejoin:miter;stroke-opacity:1"
             d="m 315.09755,367.09042 h 51.99418"
             id="path6831-3" />
          <path
             style="fill:none;stroke:#000000;stroke-width:1.03430903;stroke-linecap:butt;stroke-linejoin:miter;stroke-opacity:1"
             d="m 369.59896,312.70806 v 55.62312"
             id="path6829-4" />
          <circle
             style="fill:#ffffff;stroke:#000000;stroke-width:1"
             id="circle3573-4"
             r="2.5"
             cy="0"
             cx="0"
             transform="matrix(1.25,0,0,1.25,370.10392,367.19978)" />
          <circle
             style="fill:#ffffff;stroke:#000000;stroke-width:1"
             id="circle3573-5"
             r="2.5"
             cy="0"
             cx="0"
             transform="matrix(1.25,0,0,1.25,314.87624,312.7345)" />
          <path
             style="fill:none;stroke:#000000;stroke-width:1;stroke-linecap:butt;stroke-linejoin:miter;stroke-opacity:1"
             d="m 369.90199,312.87266 h 51.99418"
             id="path6831-5" />
          <circle
             style="fill:#ffffff;stroke:#000000;stroke-width:1"
             id="circle3573"
             r="2.5"
             cy="0"
             cx="0"
             transform="matrix(1.25,0,0,1.25,369.22768,312.7345)" />
          <path
             style="fill:none;stroke:#000000;stroke-width:1;stroke-linecap:butt;stroke-linejoin:miter;stroke-opacity:1"
             d="m 315,367.3719 v 51.99418"
             id="path6829-3" />
          <circle
             style="fill:#ffffff;stroke:#000000;stroke-width:1"
             id="circle3573-9"
             r="2.5"
             cy="0"
             cx="0"
             transform="matrix(1.25,0,0,1.25,314.87624,366.98202)" />
          <circle
             style="fill:#ffffff;stroke:#000000;stroke-width:1"
             id="circle3573-4-3"
             r="2.5"
             cy="0"
             cx="0"
             transform="matrix(1.25,0,0,1.25,425.51488,312.72458)" />
          <circle
             style="fill:#ffffff;stroke:#000000;stroke-width:1"
             id="circle3573-4-37"
             r="2.5"
             cy="0"
             cx="0"
             transform="matrix(1.25,0,0,1.25,314.89608,422.86818)" />
        </g>
      </g>
      <path
         id="path3065"
         d="m 494.89608,471.64922 108,-108"
         style="fill:none;stroke:#000000;stroke-width:1px;stroke-linecap:butt;stroke-linejoin:miter;stroke-opacity:1" />
      <path
         id="path3069"
         d="m 494.40695,362.15988 h 51.99418"
         style="fill:none;stroke:#000000;stroke-width:1;stroke-linecap:butt;stroke-linejoin:miter;stroke-opacity:1" />
      <path
         id="path3071"
         d="m 494.99363,416.37764 h 51.99418"
         style="fill:none;stroke:#000000;stroke-width:1;stroke-linecap:butt;stroke-linejoin:miter;stroke-opacity:1" />
      <path
         id="path3073"
         d="M 549.49504,361.99528 V 417.6184"
         style="fill:none;stroke:#000000;stroke-width:1.03430903;stroke-linecap:butt;stroke-linejoin:miter;stroke-opacity:1" />
      <circle
         transform="matrix(1.25,0,0,1.25,550,416.487)"
         cx="0"
         cy="0"
         r="2.5"
         id="circle3075"
         style="fill:#ffffff;stroke:#000000;stroke-width:1" />
      <circle
         transform="matrix(1.25,0,0,1.25,494.77232,362.02172)"
         cx="0"
         cy="0"
         r="2.5"
         id="circle3077"
         style="fill:#ffffff;stroke:#000000;stroke-width:1" />
      <path
         id="path3079"
         d="m 549.79807,362.15988 h 51.99418"
         style="fill:none;stroke:#000000;stroke-width:1;stroke-linecap:butt;stroke-linejoin:miter;stroke-opacity:1" />
      <circle
         transform="matrix(1.25,0,0,1.25,549.12376,362.02172)"
         cx="0"
         cy="0"
         r="2.5"
         id="circle3081"
         style="fill:#ffffff;stroke:#000000;stroke-width:1" />
      <circle
         transform="matrix(1.25,0,0,1.25,494.77232,416.26924)"
         cx="0"
         cy="0"
         r="2.5"
         id="circle3085"
         style="fill:#ffffff;stroke:#000000;stroke-width:1" />
      <circle
         transform="matrix(1.25,0,0,1.25,605.41096,362.0118)"
         cx="0"
         cy="0"
         r="2.5"
         id="circle3087"
         style="fill:#ffffff;stroke:#000000;stroke-width:1" />
      <circle
         transform="matrix(1.25,0,0,1.25,494.79216,472.1554)"
         cx="0"
         cy="0"
         r="2.5"
         id="circle3089"
         style="fill:#ffffff;stroke:#000000;stroke-width:1" />
      <g
         id="g10775"
         transform="rotate(90,370.27143,476.43921)">
        <title
           id="title3737">Pin Support</title>
        <g
           transform="matrix(1.25,0,0,1.25,255.65647,356.59727)"
           id="use90">
          <path
             style="fill:#000000;stroke:#000000;stroke-width:0"
             id="path5224"
             d="M 0.19825424,-1.057356 5.1895254,5.8678305 H -5.3216949 Z" />
          <path
             style="fill:none;stroke:#000000;stroke-width:1"
             id="path5226"
             d="M -6,6 H 6" />
          <path
             style="fill:none;stroke:#000000;stroke-width:1"
             id="path5228"
             d="M 6,6 3,9 M 3,6 0,9 M 0,6 -3,9 m 0,-3 -3,3 m 0,-3 -3,3" />
        </g>
      </g>
      <g
         transform="rotate(90,343.27143,503.43921)"
         id="g3479">
        <title
           id="title3481">Pin Support</title>
        <g
           id="g3483"
           transform="matrix(1.25,0,0,1.25,255.65647,356.59727)">
          <path
             d="M 0.19825424,-1.057356 5.1895254,5.8678305 H -5.3216949 Z"
             id="path3485"
             style="fill:#000000;stroke:#000000;stroke-width:0" />
          <path
             d="M -6,6 H 6"
             id="path3487"
             style="fill:none;stroke:#000000;stroke-width:1" />
          <path
             d="M 6,6 3,9 M 3,6 0,9 M 0,6 -3,9 m 0,-3 -3,3 m 0,-3 -3,3"
             id="path3489"
             style="fill:none;stroke:#000000;stroke-width:1" />
        </g>
      </g>
      <g
         id="g3491"
         transform="rotate(90,315.27143,531.43921)">
        <title
           id="title3493">Pin Support</title>
        <g
           transform="matrix(1.25,0,0,1.25,255.65647,356.59727)"
           id="g3495">
          <path
             style="fill:#000000;stroke:#000000;stroke-width:0"
             id="path3497"
             d="M 0.19825424,-1.057356 5.1895254,5.8678305 H -5.3216949 Z" />
          <path
             style="fill:none;stroke:#000000;stroke-width:1"
             id="path3499"
             d="M -6,6 H 6" />
          <path
             style="fill:none;stroke:#000000;stroke-width:1"
             id="path3501"
             d="M 6,6 3,9 M 3,6 0,9 M 0,6 -3,9 m 0,-3 -3,3 m 0,-3 -3,3" />
        </g>
      </g>
      <text
         xml:space="preserve"
         style="font-style:normal;font-variant:normal;font-weight:normal;font-stretch:normal;line-height:0%;font-family:Verdana;-inkscape-font-specification:Sans;text-align:start;letter-spacing:0px;word-spacing:0px;writing-mode:lr-tb;text-anchor:start;fill:#000000;fill-opacity:1;stroke:none"
         x="496.1188"
         y="338.59961"
         id="text3503"><tspan
           style="font-size:10px;line-height:1.25"
           id="tspan3505"
           x="496.1188"
           y="338.59961">is equivalent to:</tspan></text>
      <text
         xml:space="preserve"
         style="font-style:normal;font-variant:normal;font-weight:normal;font-stretch:normal;line-height:0%;font-family:Verdana;-inkscape-font-specification:Sans;text-align:start;letter-spacing:0px;word-spacing:0px;writing-mode:lr-tb;text-anchor:start;fill:#000000;fill-opacity:1;stroke:none"
         x="498.51486"
         y="431.08911"
         id="text3507"
         transform="translate(0,62.362)"><tspan
           style="font-size:10px;line-height:1.25"
           id="tspan3519"
           x="498.51486"
           y="431.08911">Stable</tspan><tspan
           style="font-size:10px;line-height:1.25"
           id="tspan3521"
           x="498.51486"
           y="443.58911">m = 6</tspan><tspan
           style="font-size:10px;line-height:1.25"
           id="tspan3523"
           x="498.51486"
           y="456.08911">r = 6</tspan><tspan
           style="font-size:10px;line-height:1.25"
           id="tspan3525"
           x="498.51486"
           y="468.58911">j = 6</tspan><tspan
           style="font-size:10px;line-height:1.25"
           id="tspan3527"
           x="498.51486"
           y="481.08911">°S.I. = m+r - 2j</tspan><tspan
           style="font-size:10px;line-height:1.25"
           x="498.51486"
           y="493.58911"
           id="tspan3529">        = 6 + 6 - 2x6</tspan><tspan
           style="font-size:10px;line-height:1.25"
           x="498.51486"
           y="506.08911"
           id="tspan3531">        = 0</tspan><tspan
           style="font-size:10px;line-height:1.25"
           x="498.51486"
           y="518.58911"
           id="tspan3533">therefore statically determinate</tspan></text>
    </g>
  </g>
</svg>
