<?xml version="1.0" encoding="UTF-8" standalone="no"?>
<svg
   xmlns:dc="http://purl.org/dc/elements/1.1/"
   xmlns:cc="http://creativecommons.org/ns#"
   xmlns:rdf="http://www.w3.org/1999/02/22-rdf-syntax-ns#"
   xmlns:svg="http://www.w3.org/2000/svg"
   xmlns="http://www.w3.org/2000/svg"
   xmlns:xlink="http://www.w3.org/1999/xlink"
   version="1.1"
   id="svg2"
   height="180.02242"
   width="431.45868">
  <script
     id="script3033"
     xlink:href="" />
  <defs
     id="defs4">
    <marker
       id="CLArrowEnd"
       markerUnits="userSpaceOnUse"
       markerWidth="10"
       markerHeight="6"
       orient="auto"
       viewBox="0 0 10 6"
       refX="7"
       refY="3">
      <path
         d="M 0,0 10,3 0,6 2,3 Z"
         id="path3451" />
    </marker>
  </defs>
  <metadata
     id="metadata7">
    <rdf:RDF>
      <cc:Work
         rdf:about="">
        <dc:format>image/svg+xml</dc:format>
        <dc:type
           rdf:resource="http://purl.org/dc/dcmitype/StillImage" />
        <dc:title />
        <cc:license
           rdf:resource="http://creativecommons.org/licenses/by-nc/3.0/" />
      </cc:Work>
      <cc:License
         rdf:about="http://creativecommons.org/licenses/by-nc/3.0/">
        <cc:permits
           rdf:resource="http://creativecommons.org/ns#Reproduction" />
        <cc:permits
           rdf:resource="http://creativecommons.org/ns#Distribution" />
        <cc:requires
           rdf:resource="http://creativecommons.org/ns#Notice" />
        <cc:requires
           rdf:resource="http://creativecommons.org/ns#Attribution" />
        <cc:prohibits
           rdf:resource="http://creativecommons.org/ns#CommercialUse" />
        <cc:permits
           rdf:resource="http://creativecommons.org/ns#DerivativeWorks" />
      </cc:License>
    </rdf:RDF>
  </metadata>
  <g
     transform="translate(-153.39645,-397.99095)"
     id="layer1">
    <g
       transform="rotate(11.527957,430.59448,515.49768)"
       id="g3222">
      <path
         style="fill:none;stroke:#000000;stroke-width:1px;stroke-linecap:butt;stroke-linejoin:miter;stroke-opacity:1"
         d="m 429.625,469.112 45,45"
         id="path5741" />
      <path
         style="fill:none;stroke:#000000;stroke-width:1px;stroke-linecap:butt;stroke-linejoin:miter;stroke-opacity:1"
         d="M 386.90123,513.96076 421.875,478.987 431.90123,468.96076"
         id="path5667-2" />
      <path
         style="fill:none;stroke:#000000;stroke-width:1px;stroke-linecap:butt;stroke-linejoin:miter;stroke-opacity:1"
         d="m 344.84466,514.1625 34.97377,-34.97378 10.02623,-10.02623"
         id="path5667" />
      <path
         style="fill:none;stroke:#000000;stroke-width:0.81769305;stroke-linecap:butt;stroke-linejoin:miter;stroke-opacity:1"
         d="m 433.91122,511.76877 h 34.76446"
         id="path3878-0-7-6" />
      <path
         style="fill:none;stroke:#000000;stroke-width:0.81769305;stroke-linecap:butt;stroke-linejoin:miter;stroke-opacity:1"
         d="m 392.39634,511.76877 h 34.76445"
         id="path3878-0-7-7" />
      <path
         style="fill:none;stroke:#000000;stroke-width:0.81769305;stroke-linecap:butt;stroke-linejoin:miter;stroke-opacity:1"
         d="m 350.78746,511.76877 h 34.76445"
         id="path3878-0-7-0" />
      <circle
         style="fill:#ffffff;stroke:#000000;stroke-width:1"
         id="circle3573-11-8-1-7"
         r="2.5"
         cy="0"
         cx="0"
         transform="matrix(1.25,0,0,1.25,388.9013,511.74769)" />
      <circle
         style="fill:#ffffff;stroke:#000000;stroke-width:1"
         id="circle3573-11-8-1-1"
         r="2.5"
         cy="0"
         cx="0"
         transform="matrix(1.25,0,0,1.25,430.4261,511.73777)" />
      <path
         style="fill:none;stroke:#000000;stroke-width:1.18740618;stroke-linecap:butt;stroke-linejoin:miter;stroke-opacity:1"
         d="m 389.01267,508.26937 v -34.0011"
         id="path3876-77-1" />
      <path
         style="fill:none;stroke:#000000;stroke-width:1.18740618;stroke-linecap:butt;stroke-linejoin:miter;stroke-opacity:1"
         d="m 430.43741,508.18186 v -34.0011"
         id="path3876-77-8" />
      <circle
         style="fill:#ffffff;stroke:#000000;stroke-width:1"
         id="circle3573-11-8-1-3-1"
         r="2.5"
         cy="0"
         cx="0"
         transform="matrix(1.25,0,0,1.25,430.22962,470.57451)" />
      <circle
         style="fill:#ffffff;stroke:#000000;stroke-width:1"
         id="circle3573-11-8-1-3-2"
         r="2.5"
         cy="0"
         cx="0"
         transform="matrix(1.25,0,0,1.25,388.95436,470.58724)" />
      <path
         style="fill:none;stroke:#000000;stroke-width:0.81769305;stroke-linecap:butt;stroke-linejoin:miter;stroke-opacity:1"
         d="M 392.23555,470.112 H 427"
         id="path3878-0-7-5-8-3" />
      <path
         style="fill:#e9afaf;fill-opacity:1;fill-rule:nonzero;stroke:none"
         d="m 350.86937,448.01379 c -0.35419,-1.35443 35.04459,-36.75288 36.27939,-36.27905 0.77596,0.29777 0.84981,1.7581 0.84981,16.80489 v 16.47879 l -1.5,1.26217 c -0.825,0.69419 -1.5,1.57966 -1.5,1.96772 0,0.59352 -2.69008,0.70555 -16.94168,0.70555 -16.16116,0 -16.95301,-0.0433 -17.18752,-0.94007 z"
         id="path3151"
         transform="translate(0,62.362)" />
      <path
         style="fill:#c8b7b7;fill-opacity:1;fill-rule:nonzero;stroke:none"
         d="m 359.12357,448.56584 c -4.48473,-0.0812 -7.625,-0.33728 -7.625,-0.62183 0,-0.95622 7.10614,-8.47675 20.66035,-21.86515 7.58656,-7.49375 14.10574,-13.625 14.48707,-13.625 0.55979,0 0.75658,2.09463 1.02173,10.875 0.18062,5.98125 0.32895,13.20758 0.32962,16.05851 l 10e-4,5.18351 -1.92822,1.87127 -1.92821,1.87127 -8.69679,0.19522 c -4.78323,0.10737 -12.12803,0.13311 -16.32178,0.0572 z"
         id="path3155"
         transform="translate(0,62.362)" />
      <path
         style="fill:#c8b7b7;fill-opacity:1;fill-rule:nonzero;stroke:none"
         d="m 390.3319,445.62053 c -0.18333,-0.18334 -0.33333,-7.7447 -0.33333,-16.80304 v -16.46971 l 1.22045,-0.96 c 0.67124,-0.528 1.3614,-1.40414 1.53369,-1.94696 0.30364,-0.95669 0.82601,-0.98696 17.02955,-0.98696 h 16.71631 v 1.12764 c 0,0.81563 -4.87744,6.00363 -17.6276,18.75 -9.69519,9.6923 -17.75769,17.62236 -17.91667,17.62236 -0.15899,0 -0.43906,-0.15 -0.6224,-0.33333 z"
         id="path3157"
         transform="translate(0,62.362)" />
      <path
         style="fill:#c8b7b7;fill-opacity:1;fill-rule:nonzero;stroke:none"
         d="m 392.66027,448.15406 c -0.39314,-1.02453 35.14324,-36.74367 36.16542,-36.35142 0.54501,0.20914 0.67288,3.38986 0.67288,16.73699 v 16.47879 l -1.5,1.26217 c -0.825,0.69419 -1.5,1.57966 -1.5,1.96772 0,0.59337 -2.6656,0.70555 -16.76569,0.70555 -14.9056,0 -16.79975,-0.0887 -17.07261,-0.7998 z"
         id="path3159"
         transform="translate(0,62.362)" />
      <path
         style="fill:#c8b7b7;fill-opacity:1;fill-rule:nonzero;stroke:none"
         d="m 434.01013,447.73426 c -0.25503,-0.67078 -0.92446,-1.4662 -1.48763,-1.76759 -1.00062,-0.53552 -1.02393,-0.92923 -1.02393,-17.29609 0,-14.88948 0.0888,-16.78216 0.7998,-17.05502 1.18921,-0.45634 36.67085,35.09252 36.3294,36.39823 -0.23451,0.89678 -1.02662,0.94007 -17.19989,0.94007 h -16.95406 z"
         id="path3161"
         transform="translate(0,62.362)" />
    </g>
    <g
       transform="translate(-42.25,-0.26701)"
       id="g6780">
      <path
         d="m 227.25,516.12901 5,7.5 h -10 z"
         id="path5224"
         style="fill:#000000;stroke:#000000;stroke-width:1" />
      <path
         d="m 219.75,523.62901 h 15"
         id="path5226"
         style="fill:none;stroke:#000000;stroke-width:1" />
      <path
         d="m 234.75,523.62901 -3.75,3.75 m 0,-3.75 -3.75,3.75 m 0,-3.75 -3.75,3.75 m 0,-3.75 -3.75,3.75 m 0,-3.75 -3.75,3.75"
         id="path5228"
         style="fill:none;stroke:#000000;stroke-width:1" />
    </g>
    <g
       transform="translate(2.8284272,2.1213204)"
       id="g6803">
      <path
         d="m 428,513.862 5,7.5 h -10 z"
         id="path5224-5-43"
         style="fill:#000000;stroke:#000000;stroke-width:1" />
      <path
         d="m 420.5,528.44954 h 15"
         id="path5226-4-9"
         style="fill:none;stroke:#000000;stroke-width:1" />
      <path
         d="m 435.5,528.44954 -3.75,3.75 m 0,-3.75 -3.75,3.75 m 0,-3.75 -3.75,3.75 m 0,-3.75 -3.75,3.75 m 0,-3.75 -3.75,3.75"
         id="path5228-7-8"
         style="fill:none;stroke:#000000;stroke-width:1" />
      <path
         id="path3342-8"
         d="m 419.66027,521.84112 h 16.4794"
         style="fill:none;stroke:#000000;stroke-width:1;stroke-linecap:butt;stroke-linejoin:miter;stroke-opacity:1" />
      <circle
         cx="0"
         cy="0"
         r="2.5"
         id="circle3573-4-08"
         style="fill:#ffffff;stroke:#000000;stroke-width:1.06622291"
         transform="matrix(0.93789014,0,0,0.93789014,434.19628,525.10843)" />
      <circle
         cx="0"
         cy="0"
         r="2.5"
         id="circle3573-4-0-7"
         style="fill:#ffffff;stroke:#000000;stroke-width:1.06622291"
         transform="matrix(0.93789014,0,0,0.93789014,428.33582,525.16835)" />
      <circle
         cx="0"
         cy="0"
         r="2.5"
         id="circle3573-4-8-7"
         style="fill:#ffffff;stroke:#000000;stroke-width:1.06622291"
         transform="matrix(0.93789014,0,0,0.93789014,422.49922,525.16835)" />
    </g>
    <path
       style="fill:#000000;stroke:#000000;stroke-width:1"
       id="path5224-5-3"
       d="m 555.81413,516.31622 5,7.5 h -10 z" />
    <path
       style="fill:none;stroke:#000000;stroke-width:1"
       id="path5226-4-8"
       d="m 548.31413,530.90376 h 15" />
    <path
       style="fill:none;stroke:#000000;stroke-width:1"
       id="path5228-7-3"
       d="m 563.31413,530.90376 -3.75,3.75 m 0,-3.75 -3.75,3.75 m 0,-3.75 -3.75,3.75 m 0,-3.75 -3.75,3.75 m 0,-3.75 -3.75,3.75" />
    <path
       style="fill:none;stroke:#000000;stroke-width:1;stroke-linecap:butt;stroke-linejoin:miter;stroke-opacity:1"
       d="m 547.4744,524.29534 h 16.4794"
       id="path3342-7" />
    <circle
       transform="matrix(0.93789014,0,0,0.93789014,562.01041,527.56265)"
       style="fill:#ffffff;stroke:#000000;stroke-width:1.06622291"
       id="circle3573-4-1"
       r="2.5"
       cy="0"
       cx="0" />
    <circle
       transform="matrix(0.93789014,0,0,0.93789014,556.14995,527.62257)"
       style="fill:#ffffff;stroke:#000000;stroke-width:1.06622291"
       id="circle3573-4-0-0"
       r="2.5"
       cy="0"
       cx="0" />
    <circle
       transform="matrix(0.93789014,0,0,0.93789014,550.31335,527.62257)"
       style="fill:#ffffff;stroke:#000000;stroke-width:1.06622291"
       id="circle3573-4-8-73"
       r="2.5"
       cy="0"
       cx="0" />
    <g
       transform="rotate(-5.4807179,184.86344,515.61154)"
       id="g3169">
      <path
         style="fill:none;stroke:#000000;stroke-width:1px;stroke-linecap:butt;stroke-linejoin:miter;stroke-opacity:1"
         d="m 228.69389,468.61306 -45,45"
         id="path5593-9-6" />
      <path
         style="fill:none;stroke:#000000;stroke-width:1px;stroke-linecap:butt;stroke-linejoin:miter;stroke-opacity:1"
         d="m 270.19389,427.11306 -45,45"
         id="path5593-9" />
      <path
         style="fill:none;stroke:#000000;stroke-width:1px;stroke-linecap:butt;stroke-linejoin:miter;stroke-opacity:1"
         d="m 267.16261,427.1941 45,45"
         id="path5522-9" />
      <path
         style="fill:none;stroke:#000000;stroke-width:1px;stroke-linecap:butt;stroke-linejoin:miter;stroke-opacity:1"
         d="m 310.46899,469.08782 36,45"
         id="path5595" />
      <path
         style="fill:none;stroke:#000000;stroke-width:1px;stroke-linecap:butt;stroke-linejoin:miter;stroke-opacity:1"
         d="m 311.94389,468.48806 -45,45"
         id="path5593" />
      <path
         style="fill:none;stroke:#000000;stroke-width:1.19152534;stroke-linecap:butt;stroke-linejoin:miter;stroke-opacity:1"
         d="M 227.13753,508.22791 V 473.9905"
         id="path3876-77" />
      <path
         style="fill:none;stroke:#000000;stroke-width:0.81769305;stroke-linecap:butt;stroke-linejoin:miter;stroke-opacity:1"
         d="m 230.39429,511.76877 h 34.76445"
         id="path3878-0-7-5" />
      <path
         style="fill:none;stroke:#000000;stroke-width:0.81769305;stroke-linecap:butt;stroke-linejoin:miter;stroke-opacity:1"
         d="m 309.12693,511.76877 h 34.76446"
         id="path3878-0-7-54" />
      <path
         style="fill:none;stroke:#000000;stroke-width:0.81769305;stroke-linecap:butt;stroke-linejoin:miter;stroke-opacity:1"
         d="m 271.89139,511.76877 h 34.76445"
         id="path3878-0-7-1" />
      <circle
         style="fill:#ffffff;stroke:#000000;stroke-width:1"
         id="circle3573-11-8-1"
         r="2.5"
         cy="0"
         cx="0"
         transform="matrix(1.25,0,0,1.25,226.89138,511.86153)" />
      <circle
         style="fill:#ffffff;stroke:#000000;stroke-width:1"
         id="circle3573-11-8-1-6"
         r="2.5"
         cy="0"
         cx="0"
         transform="matrix(1.25,0,0,1.25,309.87154,511.71793)" />
      <circle
         style="fill:#ffffff;stroke:#000000;stroke-width:1"
         id="circle3573-11-8-1-0"
         r="2.5"
         cy="0"
         cx="0"
         transform="matrix(1.25,0,0,1.25,347.28251,511.73777)" />
      <path
         style="fill:none;stroke:#000000;stroke-width:1.18740618;stroke-linecap:butt;stroke-linejoin:miter;stroke-opacity:1"
         d="M 268.66262,508.14453 V 474.14344"
         id="path3876-77-5" />
      <path
         style="fill:none;stroke:#000000;stroke-width:1.18740618;stroke-linecap:butt;stroke-linejoin:miter;stroke-opacity:1"
         d="m 309.96249,508.05702 v -34.0011"
         id="path3876-77-9" />
      <circle
         style="fill:#ffffff;stroke:#000000;stroke-width:1"
         id="circle3573-11-8-1-3-4"
         r="2.5"
         cy="0"
         cx="0"
         transform="matrix(1.25,0,0,1.25,268.65443,470.53712)" />
      <path
         style="fill:none;stroke:#000000;stroke-width:1px;stroke-linecap:butt;stroke-linejoin:miter;stroke-opacity:1"
         d="m 225.66261,468.6941 45,45"
         id="path5522" />
      <path
         style="fill:none;stroke:#000000;stroke-width:0.81769305;stroke-linecap:butt;stroke-linejoin:miter;stroke-opacity:1"
         d="m 230.53002,470.64501 h 34.76445"
         id="path3878-0-7-5-8" />
      <circle
         style="fill:#ffffff;stroke:#000000;stroke-width:1"
         id="circle3573-11-8-1-3-09"
         r="2.5"
         cy="0"
         cx="0"
         transform="matrix(1.25,0,0,1.25,309.96708,470.53712)" />
      <circle
         style="fill:#ffffff;stroke:#000000;stroke-width:1"
         id="circle3573-11-8-1-3-7"
         r="2.5"
         cy="0"
         cx="0"
         transform="matrix(1.25,0,0,1.25,227.04186,470.487)" />
      <circle
         style="fill:#ffffff;stroke:#000000;stroke-width:1"
         id="circle3573-11-8-1-4"
         r="2.5"
         cy="0"
         cx="0"
         transform="matrix(1.25,0,0,1.25,268.64386,511.73777)" />
      <path
         style="fill:none;stroke:#000000;stroke-width:0.81769305;stroke-linecap:butt;stroke-linejoin:miter;stroke-opacity:1"
         d="m 188.57889,511.76877 h 34.76445"
         id="path3878-0-7-1-4" />
      <circle
         style="fill:#ffffff;stroke:#000000;stroke-width:1"
         id="circle3573-11-8-1-9"
         r="2.5"
         cy="0"
         cx="0"
         transform="matrix(1.25,0,0,1.25,185.07888,511.73653)" />
      <path
         style="fill:none;stroke:#000000;stroke-width:0.81769305;stroke-linecap:butt;stroke-linejoin:miter;stroke-opacity:1"
         d="m 271.93241,470.29905 h 34.76445"
         id="path3878-0-7-1-4-6" />
      <path
         style="fill:none;stroke:#000000;stroke-width:1.18740618;stroke-linecap:butt;stroke-linejoin:miter;stroke-opacity:1"
         d="M 268.66262,466.91233 V 432.91124"
         id="path3876-77-5-5" />
      <circle
         style="fill:#ffffff;stroke:#000000;stroke-width:1"
         id="circle3573-11-8-1-3-4-1"
         r="2.5"
         cy="0"
         cx="0"
         transform="matrix(1.25,0,0,1.25,268.65443,429.34962)" />
      <path
         style="fill:#ffaaaa;fill-opacity:1;fill-rule:nonzero;stroke:none"
         d="m 188.99857,448.08143 c 0,-0.48015 8.00809,-8.88284 17.80993,-18.68752 13.5403,-13.54422 18.0353,-17.75615 18.75,-17.56925 0.8963,0.23438 0.94007,1.01934 0.94007,16.85726 v 16.61142 l -1.25736,0.5729 c -0.69155,0.31509 -1.51517,1.13871 -1.83026,1.83026 l -0.5729,1.25736 h -16.91974 c -15.76173,0 -16.91974,-0.0597 -16.91974,-0.87243 z"
         id="path3135"
         transform="translate(0,62.362)" />
      <path
         style="fill:#ffaaaa;fill-opacity:1;fill-rule:nonzero;stroke:none"
         d="m 230.41197,447.71347 c -0.31084,-0.68221 -0.98101,-1.37238 -1.48928,-1.53369 -0.87483,-0.27766 -0.92412,-1.19533 -0.92412,-17.20612 0,-15.45525 0.0732,-16.94092 0.84981,-17.23892 0.64421,-0.2472 5.17313,3.99596 18.71879,17.5377 15.18635,15.18196 17.79596,18.00024 17.3826,18.77261 -0.45525,0.85064 -1.55813,0.90881 -17.22951,0.90881 h -16.74313 z"
         id="path3137"
         transform="translate(0,62.362)" />
      <path
         style="fill:#ffaaaa;fill-opacity:1;fill-rule:nonzero;stroke:none"
         d="m 248.42545,428.07886 c -9.82014,-9.8516 -17.71145,-18.15554 -17.58073,-18.5 0.18327,-0.48293 4.06497,-0.625 17.07695,-0.625 h 16.83977 l 0.49357,1.125 c 0.27146,0.61875 0.99981,1.3471 1.61856,1.61856 l 1.125,0.49357 v 16.57794 c 0,14.65567 -0.0917,16.61313 -0.79089,16.88144 -0.435,0.16692 -0.82992,0.30349 -0.87761,0.30349 -0.0477,0 -8.10477,-8.04375 -17.90462,-17.875 z"
         id="path3139"
         transform="translate(0,62.362)" />
      <path
         style="fill:#ffaaaa;fill-opacity:1;fill-rule:nonzero;stroke:none"
         d="m 230.77945,406.60405 c -0.2472,-0.64421 3.99287,-5.17004 17.52447,-18.70556 15.7791,-15.78366 17.95757,-17.78891 18.77261,-17.27991 0.86581,0.54071 0.92204,1.58267 0.92204,17.08699 v 16.51116 l -1.125,0.49357 c -0.61875,0.27146 -1.3471,0.99981 -1.61856,1.61856 l -0.49357,1.125 H 247.9335 c -15.37538,0 -16.85609,-0.0734 -17.15405,-0.84981 z"
         id="path3141"
         transform="translate(0,62.362)" />
      <path
         style="fill:#ffaaaa;fill-opacity:1;fill-rule:nonzero;stroke:none"
         d="m 272.10931,406.24723 c -0.30238,-0.66365 -1.0135,-1.35381 -1.58026,-1.5337 -1.01327,-0.3216 -1.03048,-0.60315 -1.03048,-16.86324 0,-15.16543 0.0725,-16.59058 0.875,-17.19239 0.78332,-0.58745 2.74318,1.2092 18.70555,17.14784 15.76236,15.73892 17.76376,17.91099 17.25473,18.72608 -0.54076,0.86588 -1.58375,0.92204 -17.1253,0.92204 h -16.54947 z"
         id="path3143"
         transform="translate(0,62.362)" />
      <path
         style="fill:#ffaaaa;fill-opacity:1;fill-rule:nonzero;stroke:none"
         d="m 270.12357,445.60771 c -0.48272,-0.18319 -0.625,-4.02263 -0.625,-16.86526 v -16.62808 l 1.23621,-0.56325 c 0.67991,-0.30979 1.3793,-1.1334 1.5542,-1.83026 l 0.318,-1.267 h 16.63748 c 15.86342,0 16.64892,0.0437 16.88331,0.94007 0.18702,0.71514 -4.01601,5.18826 -17.56668,18.69551 -9.81661,9.78516 -18.09308,17.64898 -18.43752,17.51827 z"
         id="path3145"
         transform="translate(0,62.362)" />
      <path
         style="fill:#ffaaaa;fill-opacity:1;fill-rule:nonzero;stroke:none"
         d="m 272.36937,448.01379 c -0.18702,-0.71515 4.01601,-5.18826 17.56668,-18.69552 9.81661,-9.78515 18.09308,-17.64897 18.43752,-17.51826 0.48257,0.18313 0.625,3.99514 0.625,16.7278 v 16.49061 l -1.5,1.26217 c -0.825,0.69419 -1.5,1.57966 -1.5,1.96772 0,0.59331 -2.6553,0.70555 -16.69168,0.70555 -15.91648,0 -16.70311,-0.0437 -16.93752,-0.94007 z"
         id="path3147"
         transform="translate(0,62.362)" />
      <path
         style="fill:#e9afaf;fill-opacity:1;fill-rule:nonzero;stroke:none"
         d="m 313.2799,447.51445 c -0.40939,-0.79167 -1.09017,-1.57211 -1.51284,-1.73431 -0.67003,-0.25711 -0.76849,-2.42761 -0.76849,-16.94031 0,-15.71382 0.0523,-16.67808 0.93431,-17.22891 0.84131,-0.52541 2.37168,1.21285 15.375,17.46363 7.94238,9.92591 14.7347,18.45936 15.09404,18.96321 0.6291,0.8821 0.11461,0.9161 -13.86216,0.9161 h -14.51551 z"
         id="path3149"
         transform="translate(0,62.362)" />
      <path
         style="fill:#ffaaaa;fill-opacity:1;fill-rule:nonzero;stroke:none"
         d="m 313.99857,448.56684 c 0,-0.29494 -0.57425,-1.21872 -1.27612,-2.05284 l -1.27612,-1.51658 v -16.09566 c 0,-15.46898 0.18384,-17.54362 1.48338,-16.74046 1.07706,0.66566 29.27796,35.75012 28.97748,36.0506 -0.0921,0.0921 -6.4092,0.33029 -14.03803,0.52932 -9.76383,0.25473 -13.87059,0.2031 -13.87059,-0.17438 z"
         id="path3153"
         transform="translate(0,62.362)" />
    </g>
    <g
       transform="rotate(-6.1306557,555.81906,515.54963)"
       id="g3205">
      <path
         style="fill:none;stroke:#000000;stroke-width:1px;stroke-linecap:butt;stroke-linejoin:miter;stroke-opacity:1"
         d="m 513.09466,468.28878 45,45"
         id="path5741-8" />
      <path
         style="fill:none;stroke:#000000;stroke-width:1px;stroke-linecap:butt;stroke-linejoin:miter;stroke-opacity:1"
         d="m 470.47485,514.12975 34.97377,-34.97376 10.02623,-10.02624"
         id="path5667-2-1" />
      <path
         style="fill:none;stroke:#000000;stroke-width:0.81769305;stroke-linecap:butt;stroke-linejoin:miter;stroke-opacity:1"
         d="m 517.63189,511.76877 h 34.76445"
         id="path3878-0-7" />
      <path
         style="fill:none;stroke:#000000;stroke-width:0.81769305;stroke-linecap:butt;stroke-linejoin:miter;stroke-opacity:1"
         d="m 475.9013,511.76877 h 34.76445"
         id="path3878-0-7-20" />
      <circle
         style="fill:#ffffff;stroke:#000000;stroke-width:1"
         id="circle3573-11-8-1-77"
         r="2.5"
         cy="0"
         cx="0"
         transform="matrix(1.25,0,0,1.25,472.28251,511.76009)" />
      <circle
         style="fill:#ffffff;stroke:#000000;stroke-width:1"
         id="circle3573-11-8-1-773"
         r="2.5"
         cy="0"
         cx="0"
         transform="matrix(1.25,0,0,1.25,514.14882,511.72785)" />
      <circle
         style="fill:#ffffff;stroke:#000000;stroke-width:1"
         id="circle3573-11-8-1-3"
         r="2.5"
         cy="0"
         cx="0"
         transform="matrix(1.25,0,0,1.25,555.91696,511.79965)" />
      <path
         style="fill:none;stroke:#000000;stroke-width:1.18740618;stroke-linecap:butt;stroke-linejoin:miter;stroke-opacity:1"
         d="M 472.48759,508.1947 V 474.1936"
         id="path3876-77-2" />
      <path
         style="fill:none;stroke:#000000;stroke-width:1.18740618;stroke-linecap:butt;stroke-linejoin:miter;stroke-opacity:1"
         d="M 514.36274,508.1947 V 474.1936"
         id="path3876-77-6" />
      <circle
         style="fill:#ffffff;stroke:#000000;stroke-width:1"
         id="circle3573-11-8-1-3-8"
         r="2.5"
         cy="0"
         cx="0"
         transform="matrix(1.25,0,0,1.25,514.26701,470.58724)" />
      <path
         style="fill:none;stroke:#000000;stroke-width:0.83694863;stroke-linecap:butt;stroke-linejoin:miter;stroke-opacity:1"
         d="m 475.04861,470.2459 h 36.42105"
         id="path3878-0-7-5-8-5" />
      <circle
         style="fill:#ffffff;stroke:#000000;stroke-width:1"
         id="circle3573-11-8-1-3-0"
         r="2.5"
         cy="0"
         cx="0"
         transform="matrix(1.25,0,0,1.25,472.47942,470.49972)" />
      <path
         style="fill:#ffccaa;fill-opacity:1;fill-rule:nonzero;stroke:none"
         d="m 474.1098,445.86509 c -0.45687,-0.45687 -0.61123,-4.76617 -0.61123,-17.06427 v -16.45304 l 1.22045,-0.96 c 0.67124,-0.528 1.3614,-1.40414 1.53369,-1.94696 0.30373,-0.95698 0.82686,-0.98696 17.22124,-0.98696 16.128,0 16.91933,0.0434 17.15381,0.94004 0.3636,1.39038 -35.64065,37.3485 -36.51796,36.47119 z"
         id="path3163"
         transform="translate(0,62.362)" />
      <path
         style="fill:#ffccaa;fill-opacity:1;fill-rule:nonzero;stroke:none"
         d="m 475.99857,448.07626 c 0,-0.48723 7.9624,-8.83771 17.90019,-18.77261 13.56957,-13.56566 18.10578,-17.81612 18.75,-17.56891 0.77622,0.29787 0.84981,1.76895 0.84981,16.98892 0,16.25397 -0.0247,16.67064 -1.00548,16.98194 -0.55302,0.17552 -1.3463,0.97818 -1.76284,1.78369 l -0.75736,1.46457 h -16.98716 c -15.86412,0 -16.98716,-0.058 -16.98716,-0.8776 z"
         id="path3165"
         transform="translate(0,62.362)" />
      <path
         style="fill:#ffccaa;fill-opacity:1;fill-rule:nonzero;stroke:none"
         d="m 517.99857,448.24831 c 0,-0.38806 -0.675,-1.27353 -1.5,-1.96772 l -1.5,-1.26217 v -16.47396 -16.47397 l 1.125,-0.29881 c 0.96086,-0.2552 3.70468,2.27962 18.80548,17.37304 15.02978,15.02245 17.62963,17.83206 17.34131,18.74049 -0.33766,1.06387 -0.41503,1.06865 -17.30548,1.06865 -14.27281,0 -16.96631,-0.11201 -16.96631,-0.70555 z"
         id="path3167"
         transform="translate(0,62.362)" />
    </g>
    <text
       transform="translate(0,62.362)"
       id="text3242"
       y="483"
       x="293"
       style="font-style:normal;font-variant:normal;font-weight:normal;font-stretch:normal;line-height:0%;font-family:Verdana;-inkscape-font-specification:Sans;text-align:start;letter-spacing:0px;word-spacing:0px;writing-mode:lr-tb;text-anchor:start;fill:#000000;fill-opacity:1;stroke:none"
       xml:space="preserve"><tspan
         style="font-size:10px;line-height:1.25"
         y="483"
         x="293"
         id="tspan3244">Possible displacements of rigid sub-parts.</tspan><tspan
         style="font-size:10px;line-height:1.25"
         id="tspan3246"
         y="495.5"
         x="293">Unstable</tspan></text>
  </g>
</svg>
