<?xml version="1.0" encoding="UTF-8" standalone="no"?>
<svg
   xmlns:dc="http://purl.org/dc/elements/1.1/"
   xmlns:cc="http://creativecommons.org/ns#"
   xmlns:rdf="http://www.w3.org/1999/02/22-rdf-syntax-ns#"
   xmlns:svg="http://www.w3.org/2000/svg"
   xmlns="http://www.w3.org/2000/svg"
   xmlns:xlink="http://www.w3.org/1999/xlink"
   version="1.1"
   id="svg2"
   height="205.46393"
   width="247.07231">
  <script
     id="script3033"
     xlink:href="" />
  <defs
     id="defs4" />
  <metadata
     id="metadata7">
    <rdf:RDF>
      <cc:Work
         rdf:about="">
        <dc:format>image/svg+xml</dc:format>
        <dc:type
           rdf:resource="http://purl.org/dc/dcmitype/StillImage" />
        <dc:title />
        <cc:license
           rdf:resource="http://creativecommons.org/licenses/by-nc/3.0/" />
      </cc:Work>
      <cc:License
         rdf:about="http://creativecommons.org/licenses/by-nc/3.0/">
        <cc:permits
           rdf:resource="http://creativecommons.org/ns#Reproduction" />
        <cc:permits
           rdf:resource="http://creativecommons.org/ns#Distribution" />
        <cc:requires
           rdf:resource="http://creativecommons.org/ns#Notice" />
        <cc:requires
           rdf:resource="http://creativecommons.org/ns#Attribution" />
        <cc:prohibits
           rdf:resource="http://creativecommons.org/ns#CommercialUse" />
        <cc:permits
           rdf:resource="http://creativecommons.org/ns#DerivativeWorks" />
      </cc:License>
    </rdf:RDF>
  </metadata>
  <g
     transform="translate(-100.83321,-300.60332)"
     id="layer1">
    <g
       id="g3687">
      <path
         style="fill:none;stroke:#000000;stroke-width:1px;stroke-linecap:butt;stroke-linejoin:miter;stroke-opacity:1"
         d="m 228.75,391.862 -99,72"
         id="path3625" />
      <g
         id="g3608"
         transform="translate(-44.10698,-25.79333)">
        <path
           id="path3563"
           d="m 266.7071,348.00845 99,72"
           style="fill:none;stroke:#000000;stroke-width:1px;stroke-linecap:butt;stroke-linejoin:miter;stroke-opacity:1" />
        <path
           id="path3496"
           d="m 272.35356,348.362 -99,72"
           style="fill:none;stroke:#000000;stroke-width:1px;stroke-linecap:butt;stroke-linejoin:miter;stroke-opacity:1" />
        <path
           id="path3417"
           d="m 180.07168,419.3568 h 85.99246"
           style="fill:none;stroke:#000000;stroke-width:1.45979667;stroke-linecap:butt;stroke-linejoin:miter;stroke-opacity:1" />
        <path
           id="path3419"
           d="m 269.64645,353.54818 v 62.39301"
           style="fill:none;stroke:#000000;stroke-width:1.17750227;stroke-linecap:butt;stroke-linejoin:miter;stroke-opacity:1" />
        <circle
           transform="matrix(1.25,0,0,1.25,269.60698,419.28033)"
           cx="0"
           cy="0"
           r="2.5"
           id="circle3573"
           style="fill:#ffffff;stroke:#000000;stroke-width:1" />
        <circle
           transform="matrix(1.25,0,0,1.25,176.60698,419.28033)"
           cx="0"
           cy="0"
           r="2.5"
           id="circle3573-7"
           style="fill:#ffffff;stroke:#000000;stroke-width:1" />
        <circle
           transform="matrix(1.25,0,0,1.25,269.6169,350.14665)"
           cx="0"
           cy="0"
           r="2.5"
           id="circle3573-7-0"
           style="fill:#ffffff;stroke:#000000;stroke-width:1" />
        <path
           id="path3417-9"
           d="m 273.09378,419.3568 h 85.99246"
           style="fill:none;stroke:#000000;stroke-width:1.45979667;stroke-linecap:butt;stroke-linejoin:miter;stroke-opacity:1" />
        <circle
           transform="matrix(1.25,0,0,1.25,362.60143,419.28033)"
           cx="0"
           cy="0"
           r="2.5"
           id="circle3573-4"
           style="fill:#ffffff;stroke:#000000;stroke-width:1" />
        <path
           id="path3419-8"
           d="m 362.625,422.7995 v 62.39301"
           style="fill:none;stroke:#000000;stroke-width:1.17750227;stroke-linecap:butt;stroke-linejoin:miter;stroke-opacity:1" />
        <path
           id="path3419-8-8"
           d="m 176.6875,422.7995 v 62.39301"
           style="fill:none;stroke:#000000;stroke-width:1.17750227;stroke-linecap:butt;stroke-linejoin:miter;stroke-opacity:1" />
        <circle
           transform="matrix(1.25,0,0,1.25,362.60143,488.57329)"
           cx="0"
           cy="0"
           r="2.5"
           id="circle3573-4-2"
           style="fill:#ffffff;stroke:#000000;stroke-width:1" />
        <circle
           transform="matrix(1.25,0,0,1.25,176.66393,488.65533)"
           cx="0"
           cy="0"
           r="2.5"
           id="circle3573-4-4"
           style="fill:#ffffff;stroke:#000000;stroke-width:1" />
      </g>
      <g
         id="use90"
         transform="matrix(1.25,0,0,1.25,132.52515,467.09425)">
        <path
           d="M 0,0 4,6 H -4 Z"
           id="path5224"
           style="fill:#000000;stroke:#000000;stroke-width:0" />
        <path
           d="M -6,6 H 6"
           id="path5226"
           style="fill:none;stroke:#000000;stroke-width:1" />
        <path
           d="M 6,6 3,9 M 3,6 0,9 M 0,6 -3,9 m 0,-3 -3,3 m 0,-3 -3,3"
           id="path5228"
           style="fill:none;stroke:#000000;stroke-width:1" />
      </g>
      <g
         transform="translate(186.5858,129.64645)"
         id="g3395">
        <path
           d="m 132.30977,337.64131 5,7.5 h -10 z"
           id="path5224-5"
           style="fill:#000000;stroke:#000000;stroke-width:0" />
        <path
           d="m 124.80977,352.22885 h 15"
           id="path5226-4"
           style="fill:none;stroke:#000000;stroke-width:1.25" />
        <path
           d="m 139.80977,352.22885 -3.75,3.75 m 0,-3.75 -3.75,3.75 m 0,-3.75 -3.75,3.75 m 0,-3.75 -3.75,3.75 m 0,-3.75 -3.75,3.75"
           id="path5228-7"
           style="fill:none;stroke:#000000;stroke-width:1.25" />
        <path
           id="path3342"
           d="m 123.97004,345.62043 h 16.4794"
           style="fill:none;stroke:#000000;stroke-width:1px;stroke-linecap:butt;stroke-linejoin:miter;stroke-opacity:1" />
        <g
           transform="matrix(0.93789014,0,0,0.93789014,138.50605,348.88774)"
           id="use3513-4">
          <circle
             style="fill:#ffffff;stroke:#000000;stroke-width:1"
             id="circle3573-4-5"
             r="2.5"
             cy="0"
             cx="0" />
        </g>
        <g
           transform="matrix(0.93789014,0,0,0.93789014,132.64559,348.94766)"
           id="use3513-4-3">
          <circle
             style="fill:#ffffff;stroke:#000000;stroke-width:1"
             id="circle3573-4-0"
             r="2.5"
             cy="0"
             cx="0" />
        </g>
        <g
           transform="matrix(0.93789014,0,0,0.93789014,126.80899,348.94766)"
           id="use3513-4-7">
          <circle
             style="fill:#ffffff;stroke:#000000;stroke-width:1"
             id="circle3573-4-8"
             r="2.5"
             cy="0"
             cx="0" />
        </g>
      </g>
    </g>
  </g>
</svg>
