<?xml version="1.0" encoding="UTF-8" standalone="no"?>
<svg
   xmlns:dc="http://purl.org/dc/elements/1.1/"
   xmlns:cc="http://creativecommons.org/ns#"
   xmlns:rdf="http://www.w3.org/1999/02/22-rdf-syntax-ns#"
   xmlns:svg="http://www.w3.org/2000/svg"
   xmlns="http://www.w3.org/2000/svg"
   xmlns:xlink="http://www.w3.org/1999/xlink"
   version="1.1"
   id="svg2"
   height="305.94675"
   width="344.50412">
  <script
     id="script3033"
     xlink:href="" />
  <defs
     id="defs4" />
  <metadata
     id="metadata7">
    <rdf:RDF>
      <cc:Work
         rdf:about="">
        <dc:format>image/svg+xml</dc:format>
        <dc:type
           rdf:resource="http://purl.org/dc/dcmitype/StillImage" />
        <dc:title />
        <cc:license
           rdf:resource="http://creativecommons.org/licenses/by-nc/3.0/" />
      </cc:Work>
      <cc:License
         rdf:about="http://creativecommons.org/licenses/by-nc/3.0/">
        <cc:permits
           rdf:resource="http://creativecommons.org/ns#Reproduction" />
        <cc:permits
           rdf:resource="http://creativecommons.org/ns#Distribution" />
        <cc:requires
           rdf:resource="http://creativecommons.org/ns#Notice" />
        <cc:requires
           rdf:resource="http://creativecommons.org/ns#Attribution" />
        <cc:prohibits
           rdf:resource="http://creativecommons.org/ns#CommercialUse" />
        <cc:permits
           rdf:resource="http://creativecommons.org/ns#DerivativeWorks" />
      </cc:License>
    </rdf:RDF>
  </metadata>
  <g
     transform="translate(-157.69072,-220.17967)"
     id="layer1">
    <g
       id="g6049">
      <g
         id="g11314">
        <path
           transform="translate(0,62.362)"
           id="path11264"
           d="m 314.69752,181.37789 -95.56443,242.93668 95.56443,-82.96252"
           style="fill:none;stroke:#000000;stroke-width:0.99000001;stroke-linecap:butt;stroke-linejoin:miter;stroke-miterlimit:4;stroke-dasharray:0.495, 0.495;stroke-dashoffset:0;stroke-opacity:1" />
        <path
           transform="translate(0,62.362)"
           id="path10686"
           d="M 375.60672,181.72794 470.47105,424.66463 375.25667,341.7021"
           style="fill:none;stroke:#000000;stroke-width:0.99000001;stroke-linecap:butt;stroke-linejoin:miter;stroke-miterlimit:4;stroke-dasharray:0.495, 0.495;stroke-dashoffset:0;stroke-opacity:1" />
        <path
           transform="translate(0,62.362)"
           id="path10586"
           d="m 375.60672,180.67778 -60.9092,80.86221 61.25925,80.16211 -61.25925,80.1621"
           style="fill:none;stroke:#000000;stroke-width:1px;stroke-linecap:butt;stroke-linejoin:miter;stroke-opacity:1" />
        <path
           transform="translate(0,62.362)"
           id="path10584"
           d="m 315.04758,181.02784 60.20909,80.51215 -60.55915,79.81206 60.9092,80.86221"
           style="fill:none;stroke:#000000;stroke-width:1px;stroke-linecap:butt;stroke-linejoin:miter;stroke-opacity:1" />
        <path
           id="path10453"
           d="m 315,247.37163 v 72.91814"
           style="fill:none;stroke:#000000;stroke-width:1;stroke-linecap:butt;stroke-linejoin:miter;stroke-opacity:1" />
        <g
           style="stroke-width:0.80000001"
           transform="matrix(1.25,0,0,1.25,315.04759,243.93834)"
           id="use3513">
          <circle
             style="fill:#ffffff;stroke:#000000;stroke-width:0.80000001"
             id="circle3573"
             r="2.5"
             cy="0"
             cx="0" />
        </g>
        <g
           style="stroke-width:0.80000001"
           transform="matrix(1.25,0,0,1.25,314.96007,323.87633)"
           id="use3513-7">
          <circle
             style="fill:#ffffff;stroke:#000000;stroke-width:0.80000001"
             id="circle3573-3"
             r="2.5"
             cy="0"
             cx="0" />
        </g>
        <path
           id="path10453-4"
           d="m 314.99262,327.41243 v 72.91814"
           style="fill:none;stroke:#000000;stroke-width:1;stroke-linecap:butt;stroke-linejoin:miter;stroke-opacity:1" />
        <g
           style="stroke-width:0.80000001"
           transform="matrix(1.25,0,0,1.25,315.01987,403.90696)"
           id="use3513-7-9">
          <circle
             style="fill:#ffffff;stroke:#000000;stroke-width:0.80000001"
             id="circle3573-3-6"
             r="2.5"
             cy="0"
             cx="0" />
        </g>
        <path
           id="path10453-5"
           d="m 314.9962,407.42366 v 72.91813"
           style="fill:none;stroke:#000000;stroke-width:1;stroke-linecap:butt;stroke-linejoin:miter;stroke-opacity:1" />
        <g
           style="stroke-width:0.80000001"
           transform="matrix(1.25,0,0,1.25,314.86875,483.91818)"
           id="use3513-7-1">
          <circle
             style="fill:#ffffff;stroke:#000000;stroke-width:0.80000001"
             id="circle3573-3-0"
             r="2.5"
             cy="0"
             cx="0" />
        </g>
        <path
           id="path10453-9"
           d="m 375.5248,247.38689 v 72.91814"
           style="fill:none;stroke:#000000;stroke-width:1;stroke-linecap:butt;stroke-linejoin:miter;stroke-opacity:1" />
        <g
           style="stroke-width:0.80000001"
           transform="matrix(1.25,0,0,1.25,375.57239,243.80467)"
           id="use3513-9">
          <circle
             style="fill:#ffffff;stroke:#000000;stroke-width:0.80000001"
             id="circle3573-6"
             r="2.5"
             cy="0"
             cx="0" />
        </g>
        <g
           style="stroke-width:0.80000001"
           transform="matrix(1.25,0,0,1.25,375.48487,323.88143)"
           id="use3513-7-8">
          <circle
             style="fill:#ffffff;stroke:#000000;stroke-width:0.80000001"
             id="circle3573-3-3"
             r="2.5"
             cy="0"
             cx="0" />
        </g>
        <path
           id="path10453-4-4"
           d="M 375.51742,327.45376 V 400.3719"
           style="fill:none;stroke:#000000;stroke-width:1;stroke-linecap:butt;stroke-linejoin:miter;stroke-opacity:1" />
        <g
           style="stroke-width:0.80000001"
           transform="matrix(1.25,0,0,1.25,375.54467,403.9483)"
           id="use3513-7-9-8">
          <circle
             style="fill:#ffffff;stroke:#000000;stroke-width:0.80000001"
             id="circle3573-3-6-4"
             r="2.5"
             cy="0"
             cx="0" />
        </g>
        <path
           id="path10453-5-9"
           d="m 375.521,407.465 v 72.91813"
           style="fill:none;stroke:#000000;stroke-width:1;stroke-linecap:butt;stroke-linejoin:miter;stroke-opacity:1" />
        <g
           style="stroke-width:0.80000001"
           transform="matrix(1.25,0,0,1.25,375.39355,483.95953)"
           id="use3513-7-1-9">
          <circle
             style="fill:#ffffff;stroke:#000000;stroke-width:0.80000001"
             id="circle3573-3-0-2"
             r="2.5"
             cy="0"
             cx="0" />
        </g>
        <g
           transform="matrix(1.25,0,0,1.25,314.99384,487.41461)"
           id="use90">
          <path
             style="fill:#000000;stroke:#000000;stroke-width:0"
             id="path5224"
             d="M 0,0 4,6 H -4 Z" />
          <path
             style="fill:none;stroke:#000000;stroke-width:1"
             id="path5226"
             d="M -6,6 H 6" />
          <path
             style="fill:none;stroke:#000000;stroke-width:1"
             id="path5228"
             d="M 6,6 3,9 M 3,6 0,9 M 0,6 -3,9 m 0,-3 -3,3 m 0,-3 -3,3" />
        </g>
        <g
           transform="translate(243.09235,149.70562)"
           id="g3395">
          <path
             style="fill:#000000;stroke:#000000;stroke-width:0"
             id="path5224-5"
             d="m 132.30977,337.64131 5,7.5 h -10 z" />
          <path
             style="fill:none;stroke:#000000;stroke-width:1.25"
             id="path5226-4"
             d="m 124.80977,352.22885 h 15" />
          <path
             style="fill:none;stroke:#000000;stroke-width:1.25"
             id="path5228-7"
             d="m 139.80977,352.22885 -3.75,3.75 m 0,-3.75 -3.75,3.75 m 0,-3.75 -3.75,3.75 m 0,-3.75 -3.75,3.75 m 0,-3.75 -3.75,3.75" />
          <path
             style="fill:none;stroke:#000000;stroke-width:1px;stroke-linecap:butt;stroke-linejoin:miter;stroke-opacity:1"
             d="m 123.97004,345.62043 h 16.4794"
             id="path3342" />
          <g
             id="use3513-4"
             transform="matrix(0.93789014,0,0,0.93789014,138.50605,348.88774)">
            <circle
               cx="0"
               cy="0"
               r="2.5"
               id="circle3573-4"
               style="fill:#ffffff;stroke:#000000;stroke-width:1" />
          </g>
          <g
             id="use3513-4-3"
             transform="matrix(0.93789014,0,0,0.93789014,132.64559,348.94766)">
            <circle
               cx="0"
               cy="0"
               r="2.5"
               id="circle3573-4-0"
               style="fill:#ffffff;stroke:#000000;stroke-width:1" />
          </g>
          <g
             id="use3513-4-7"
             transform="matrix(0.93789014,0,0,0.93789014,126.80899,348.94766)">
            <circle
               cx="0"
               cy="0"
               r="2.5"
               id="circle3573-4-8"
               style="fill:#ffffff;stroke:#000000;stroke-width:1" />
          </g>
        </g>
        <g
           style="stroke-width:0.80000001"
           transform="matrix(1.25,0,0,1.25,469.84891,486.71201)"
           id="use3513-7-1-9-5">
          <circle
             style="fill:#ffffff;stroke:#000000;stroke-width:0.80000001"
             id="circle3573-3-0-2-5"
             r="2.5"
             cy="0"
             cx="0" />
        </g>
        <g
           style="stroke-width:0.80000001"
           transform="matrix(1.25,0,0,1.25,219.46956,486.72262)"
           id="use3513-7-1-3">
          <circle
             style="fill:#ffffff;stroke:#000000;stroke-width:0.80000001"
             id="circle3573-3-0-3"
             r="2.5"
             cy="0"
             cx="0" />
        </g>
        <g
           transform="matrix(0.92584648,-0.83982635,0.83982635,0.92584648,216.59468,488.54628)"
           id="use3511">
          <path
             style="fill:none;stroke:#000000;stroke-width:1"
             id="path3409"
             d="M 0,-6 V 6" />
          <path
             style="fill:none;stroke:#000000;stroke-width:1"
             id="path3411"
             d="m 0,-6 -3,3 m 3,0 -3,3 m 3,0 -3,3 m 3,0 -3,3 m 3,0 -3,3" />
        </g>
        <g
           transform="matrix(-0.89897349,-0.86853132,0.86853132,-0.89897349,471.67037,490.22277)"
           id="use3511-8">
          <path
             style="fill:none;stroke:#000000;stroke-width:1"
             id="path3409-0"
             d="M 0,-6 V 6" />
          <path
             style="fill:none;stroke:#000000;stroke-width:1"
             id="path3411-8"
             d="m 0,-6 -3,3 m 3,0 -3,3 m 3,0 -3,3 m 3,0 -3,3 m 3,0 -3,3" />
        </g>
      </g>
      <text
         xml:space="preserve"
         style="font-style:normal;font-variant:normal;font-weight:normal;font-stretch:normal;line-height:0%;font-family:Verdana;-inkscape-font-specification:Sans;letter-spacing:0px;word-spacing:0px;fill:#000000;fill-opacity:1;stroke:none"
         x="447.36755"
         y="303.89639"
         id="text6029"
         transform="translate(0,62.362)"><tspan
           style="font-size:11px;line-height:1.25"
           id="tspan6031"
           x="447.36755"
           y="303.89639">cable </tspan><tspan
           style="font-size:11px;line-height:1.25"
           x="447.36755"
           y="317.64639"
           id="tspan6039">guys</tspan></text>
      <text
         xml:space="preserve"
         style="font-style:normal;font-variant:normal;font-weight:normal;font-stretch:normal;line-height:0%;font-family:Verdana;-inkscape-font-specification:Sans;letter-spacing:0px;word-spacing:0px;fill:#000000;fill-opacity:1;stroke:none"
         x="177.12675"
         y="299.69577"
         id="text6033"
         transform="translate(0,62.362)"><tspan
           style="font-size:11px;line-height:1.25"
           id="tspan6035"
           x="177.12675"
           y="299.69577">cable</tspan><tspan
           style="font-size:11px;line-height:1.25"
           x="177.12675"
           y="313.44577"
           id="tspan6037">guys</tspan></text>
      <path
         style="fill:none;stroke:#000000;stroke-width:1px;stroke-linecap:butt;stroke-linejoin:miter;stroke-opacity:1"
         d="m 263.93986,307.39692 c -14.94362,-7.09101 -39.36004,-9.75011 -53.90814,-4.90074"
         id="path6041"
         transform="translate(0,62.362)" />
      <path
         style="fill:none;stroke:#000000;stroke-width:1px;stroke-linecap:butt;stroke-linejoin:miter;stroke-opacity:1"
         d="M 284.24292,366.90591 C 258.10528,351.62923 239.97034,306.55248 211.43193,301.79607"
         id="path6043"
         transform="translate(0,62.362)" />
      <path
         style="fill:none;stroke:#000000;stroke-width:1px;stroke-linecap:butt;stroke-linejoin:miter;stroke-opacity:1"
         d="m 389.95889,353.6039 c 3.30981,-24.69491 25.91774,-34.31902 38.50581,-46.90709 0.92399,-0.92398 14.47984,-1.28901 16.10243,-2.10031"
         id="path6045"
         transform="translate(0,62.362)" />
      <path
         style="fill:none;stroke:#000000;stroke-width:1px;stroke-linecap:butt;stroke-linejoin:miter;stroke-opacity:1"
         d="m 427.7646,318.59861 c 3.07646,-8.39695 4.61209,-16.19864 13.30201,-13.30201"
         id="path6047"
         transform="translate(0,62.362)" />
    </g>
  </g>
</svg>
