<?xml version="1.0" encoding="UTF-8" standalone="no"?>
<svg
   xmlns:dc="http://purl.org/dc/elements/1.1/"
   xmlns:cc="http://creativecommons.org/ns#"
   xmlns:rdf="http://www.w3.org/1999/02/22-rdf-syntax-ns#"
   xmlns:svg="http://www.w3.org/2000/svg"
   xmlns="http://www.w3.org/2000/svg"
   xmlns:xlink="http://www.w3.org/1999/xlink"
   version="1.1"
   id="svg2"
   height="151.29228"
   width="389.20868">
  <script
     id="script3033"
     xlink:href="" />
  <defs
     id="defs4">
    <marker
       id="CLArrowEnd"
       markerUnits="userSpaceOnUse"
       markerWidth="10"
       markerHeight="6"
       orient="auto"
       viewBox="0 0 10 6"
       refX="7"
       refY="3">
      <path
         d="M 0,0 10,3 0,6 2,3 Z"
         id="path3451" />
    </marker>
  </defs>
  <metadata
     id="metadata7">
    <rdf:RDF>
      <cc:Work
         rdf:about="">
        <dc:format>image/svg+xml</dc:format>
        <dc:type
           rdf:resource="http://purl.org/dc/dcmitype/StillImage" />
        <dc:title />
        <cc:license
           rdf:resource="http://creativecommons.org/licenses/by-nc/3.0/" />
      </cc:Work>
      <cc:License
         rdf:about="http://creativecommons.org/licenses/by-nc/3.0/">
        <cc:permits
           rdf:resource="http://creativecommons.org/ns#Reproduction" />
        <cc:permits
           rdf:resource="http://creativecommons.org/ns#Distribution" />
        <cc:requires
           rdf:resource="http://creativecommons.org/ns#Notice" />
        <cc:requires
           rdf:resource="http://creativecommons.org/ns#Attribution" />
        <cc:prohibits
           rdf:resource="http://creativecommons.org/ns#CommercialUse" />
        <cc:permits
           rdf:resource="http://creativecommons.org/ns#DerivativeWorks" />
      </cc:License>
    </rdf:RDF>
  </metadata>
  <g
     transform="translate(-195.64645,-441.31695)"
     id="layer1">
    <g
       transform="rotate(-9.493114,388.4946,515.4977)"
       id="g3512">
      <path
         style="fill:none;stroke:#000000;stroke-width:1px;stroke-linecap:butt;stroke-linejoin:miter;stroke-opacity:1"
         d="m 387.14453,468.9128 45,45"
         id="path5741" />
      <path
         style="fill:none;stroke:#000000;stroke-width:1px;stroke-linecap:butt;stroke-linejoin:miter;stroke-opacity:1"
         d="m 344.84466,514.1625 34.97377,-34.97378 10.02623,-10.02623"
         id="path5667" />
      <path
         style="fill:none;stroke:#000000;stroke-width:0.81769305;stroke-linecap:butt;stroke-linejoin:miter;stroke-opacity:1"
         d="m 392.39634,511.76877 h 34.76445"
         id="path3878-0-7-7" />
      <path
         style="fill:none;stroke:#000000;stroke-width:0.81769305;stroke-linecap:butt;stroke-linejoin:miter;stroke-opacity:1"
         d="m 350.78746,511.76877 h 34.76445"
         id="path3878-0-7-0" />
      <circle
         style="fill:#ffffff;stroke:#000000;stroke-width:1"
         id="circle3573-11-8-1-7"
         r="2.5"
         cy="0"
         cx="0"
         transform="matrix(1.25,0,0,1.25,388.9013,511.74769)" />
      <path
         style="fill:none;stroke:#000000;stroke-width:1.18740618;stroke-linecap:butt;stroke-linejoin:miter;stroke-opacity:1"
         d="m 389.01267,508.26937 v -34.0011"
         id="path3876-77-1" />
      <circle
         style="fill:#ffffff;stroke:#000000;stroke-width:1"
         id="circle3573-11-8-1-3-2"
         r="2.5"
         cy="0"
         cx="0"
         transform="matrix(1.25,0,0,1.25,388.95436,470.58724)" />
      <path
         style="fill:#e3dbdb;fill-opacity:1;fill-rule:nonzero;stroke:none"
         d="m 350.95872,510.25433 c 0,-0.4824 7.88357,-8.7502 17.72295,-18.58674 13.43523,-13.43134 17.92652,-17.63972 18.56436,-17.39495 0.76877,0.295 0.8414,1.76105 0.8414,16.9842 v 16.66133 l -1.11386,0.48868 c -0.61262,0.26877 -1.33377,0.98991 -1.60254,1.60253 l -0.48868,1.11387 h -16.96181 c -15.84326,0 -16.96182,-0.0573 -16.96182,-0.86892 z"
         id="path3118" />
      <path
         style="fill:#e3dbdb;fill-opacity:1;fill-rule:nonzero;stroke:none"
         d="m 392.34787,509.91862 c -0.16629,-0.66255 -0.74737,-1.34588 -1.29129,-1.51851 -0.96293,-0.30562 -0.98895,-0.75517 -0.98895,-17.08299 0,-11.79695 0.16364,-16.87024 0.5519,-17.1102 0.72063,-0.44537 36.08176,34.8821 36.08176,36.04741 0,0.81168 -1.12152,0.86892 -17.02554,0.86892 h -17.02554 z"
         id="path3120" />
    </g>
    <g
       transform="rotate(9.8736822,308.73818,515.48777)"
       id="g3458">
      <path
         style="fill:none;stroke:#000000;stroke-width:1px;stroke-linecap:butt;stroke-linejoin:miter;stroke-opacity:1"
         d="m 268.5,513.21111 81,-45"
         id="path6230" />
      <path
         style="fill:none;stroke:#000000;stroke-width:1px;stroke-linecap:butt;stroke-linejoin:miter;stroke-opacity:1"
         d="m 310.46899,469.08782 36,45"
         id="path5595" />
      <path
         style="fill:none;stroke:#000000;stroke-width:1px;stroke-linecap:butt;stroke-linejoin:miter;stroke-opacity:1"
         d="m 311.94389,468.48806 -45,45"
         id="path5593" />
      <path
         style="fill:none;stroke:#000000;stroke-width:0.81769305;stroke-linecap:butt;stroke-linejoin:miter;stroke-opacity:1"
         d="m 309.12693,511.76877 h 34.76446"
         id="path3878-0-7-54" />
      <path
         style="fill:none;stroke:#000000;stroke-width:0.81769305;stroke-linecap:butt;stroke-linejoin:miter;stroke-opacity:1"
         d="m 271.89139,511.76877 h 34.76445"
         id="path3878-0-7-1" />
      <circle
         style="fill:#ffffff;stroke:#000000;stroke-width:1"
         id="circle3573-11-8-1-6"
         r="2.5"
         cy="0"
         cx="0"
         transform="matrix(1.25,0,0,1.25,309.87154,511.71793)" />
      <circle
         style="fill:#ffffff;stroke:#000000;stroke-width:1"
         id="circle3573-11-8-1-0"
         r="2.5"
         cy="0"
         cx="0"
         transform="matrix(1.25,0,0,1.25,347.28251,511.73777)" />
      <path
         style="fill:none;stroke:#000000;stroke-width:1.18740618;stroke-linecap:butt;stroke-linejoin:miter;stroke-opacity:1"
         d="m 309.96249,508.05702 v -34.0011"
         id="path3876-77-9" />
      <path
         style="fill:none;stroke:#000000;stroke-width:1.18740618;stroke-linecap:butt;stroke-linejoin:miter;stroke-opacity:1"
         d="m 347.26238,508.23205 v -34.0011"
         id="path3876-77-98" />
      <path
         style="fill:none;stroke:#000000;stroke-width:0.81769305;stroke-linecap:butt;stroke-linejoin:miter;stroke-opacity:1"
         d="m 311.53003,470.64501 h 34.76445"
         id="path3878-0-7-5-8-3" />
      <circle
         style="fill:#ffffff;stroke:#000000;stroke-width:1"
         id="circle3573-11-8-1-3-5"
         r="2.5"
         cy="0"
         cx="0"
         transform="matrix(1.25,0,0,1.25,347.21688,470.58724)" />
      <circle
         style="fill:#ffffff;stroke:#000000;stroke-width:1"
         id="circle3573-11-8-1-3-09"
         r="2.5"
         cy="0"
         cx="0"
         transform="matrix(1.25,0,0,1.25,309.96708,470.53712)" />
      <path
         style="fill:#ffd5d5;fill-opacity:1;fill-rule:nonzero;stroke:none"
         d="m 272.24585,509.78838 c 0,-0.22163 7.97533,-8.37599 17.72295,-18.12079 13.43523,-13.43134 17.92652,-17.63972 18.56436,-17.39495 0.74061,0.2842 0.8414,1.22146 0.8414,7.82444 v 7.50157 l -14.69351,8.16329 c -22.16868,12.31627 -22.4352,12.45914 -22.4352,12.02644 z"
         id="path3106" />
      <path
         style="fill:#ffd5d5;fill-opacity:1;fill-rule:nonzero;stroke:none"
         d="m 310.85971,481.63858 c 0,-6.70488 0.0594,-7.14595 1.0325,-7.66674 0.56787,-0.30392 1.08374,-0.47883 1.14638,-0.3887 0.23394,0.33663 6.43594,8.11619 7.08718,8.88989 0.60451,0.71818 0.14026,1.10116 -4.29414,3.54247 l -4.97192,2.73724 z"
         id="path3108" />
      <path
         style="fill:#ffd5d5;fill-opacity:1;fill-rule:nonzero;stroke:none"
         d="m 317.87008,477.14679 c -2.27054,-2.86511 -4.03057,-5.30698 -3.91118,-5.42636 0.11938,-0.11939 6.35655,-0.15779 13.86036,-0.0853 l 13.64329,0.13172 -9.57827,5.32178 c -5.26806,2.92698 -9.64751,5.30957 -9.73212,5.29464 -0.0846,-0.0149 -2.01155,-2.37132 -4.28208,-5.23644 z"
         id="path3110" />
      <path
         style="fill:#ffd5d5;fill-opacity:1;fill-rule:nonzero;stroke:none"
         d="m 334.12704,497.4448 c -5.30941,-6.64414 -9.91998,-12.46647 -10.24572,-12.93853 -0.52931,-0.76704 0.48103,-1.45285 9.50522,-6.45206 l 10.09748,-5.59378 1.01458,1.01458 c 0.55801,0.55801 1.23735,1.01457 1.50962,1.01457 0.32033,0 0.49505,5.9406 0.49505,16.83169 0,12.53182 -0.14812,16.83168 -0.57983,16.83168 -0.31891,0 -0.93153,0.30872 -1.36138,0.68605 -0.69157,0.60706 -1.89307,-0.70488 -10.43502,-11.3942 z"
         id="path3112" />
      <path
         style="fill:#ffd5d5;fill-opacity:1;fill-rule:nonzero;stroke:none"
         d="m 313.5729,510.10297 c -0.1781,-0.56115 -0.86143,-1.26523 -1.51851,-1.56461 l -1.19468,-0.54434 v -8.71228 -8.71228 l 5.26864,-2.9186 c 3.59432,-1.99109 5.47455,-2.77624 5.91657,-2.47063 0.35635,0.24638 5.22859,6.18435 10.82719,13.19549 l 10.17928,12.74753 h -14.57733 c -14.28627,0 -14.5838,-0.0204 -14.90116,-1.02028 z"
         id="path3114" />
      <path
         style="fill:#e3dbdb;fill-opacity:1;fill-rule:nonzero;stroke:none"
         d="m 274.72109,510.66522 c 0.40842,-0.23535 8.37253,-4.66686 17.69802,-9.8478 l 16.95545,-9.4199 v 8.11748 8.11747 l -1.45006,0.74986 c -0.79754,0.41242 -1.59226,1.19785 -1.76604,1.74539 -0.30805,0.97059 -0.71508,0.99515 -16.24795,0.98047 -9.20575,-0.009 -15.61849,-0.19571 -15.18942,-0.44297 z"
         id="path3116" />
      <path
         style="fill:#ffd5d5;fill-opacity:1;fill-rule:nonzero;stroke:none"
         d="m 278.19993,510.59366 -2.31325,-0.312 16.21249,-9.03465 c 8.91686,-4.96906 16.36252,-9.03466 16.54591,-9.03466 0.18339,0 0.32942,3.39728 0.32452,7.54951 l -0.009,7.5495 -2.08441,1.73268 -2.08442,1.73267 -12.13933,0.0645 c -6.67664,0.0355 -13.1803,-0.0759 -14.45258,-0.24752 v 0 z"
         id="path3140" />
    </g>
    <path
       style="fill:#000000;stroke:#000000;stroke-width:1"
       id="path5224"
       d="m 227.25,516.12901 5,7.5 h -10 z" />
    <path
       style="fill:none;stroke:#000000;stroke-width:1"
       id="path5226"
       d="m 219.75,523.62901 h 15" />
    <path
       style="fill:none;stroke:#000000;stroke-width:1"
       id="path5228"
       d="m 234.75,523.62901 -3.75,3.75 m 0,-3.75 -3.75,3.75 m 0,-3.75 -3.75,3.75 m 0,-3.75 -3.75,3.75 m 0,-3.75 -3.75,3.75" />
    <path
       style="fill:#000000;stroke:#000000;stroke-width:1"
       id="path5224-5"
       d="m 309.68926,515.96616 5,7.5 h -10 z" />
    <path
       style="fill:none;stroke:#000000;stroke-width:1"
       id="path5226-4"
       d="m 302.18926,530.5537 h 15" />
    <path
       style="fill:none;stroke:#000000;stroke-width:1"
       id="path5228-7"
       d="m 317.18926,530.5537 -3.75,3.75 m 0,-3.75 -3.75,3.75 m 0,-3.75 -3.75,3.75 m 0,-3.75 -3.75,3.75 m 0,-3.75 -3.75,3.75" />
    <path
       style="fill:none;stroke:#000000;stroke-width:1;stroke-linecap:butt;stroke-linejoin:miter;stroke-opacity:1"
       d="m 301.34953,523.94528 h 16.4794"
       id="path3342" />
    <circle
       transform="matrix(0.93789014,0,0,0.93789014,315.88554,527.21259)"
       style="fill:#ffffff;stroke:#000000;stroke-width:1.06622291"
       id="circle3573-4"
       r="2.5"
       cy="0"
       cx="0" />
    <circle
       transform="matrix(0.93789014,0,0,0.93789014,310.02508,527.27251)"
       style="fill:#ffffff;stroke:#000000;stroke-width:1.06622291"
       id="circle3573-4-0"
       r="2.5"
       cy="0"
       cx="0" />
    <circle
       transform="matrix(0.93789014,0,0,0.93789014,304.18848,527.27251)"
       style="fill:#ffffff;stroke:#000000;stroke-width:1.06622291"
       id="circle3573-4-8"
       r="2.5"
       cy="0"
       cx="0" />
    <path
       style="fill:#000000;stroke:#000000;stroke-width:1"
       id="path5224-5-4"
       d="m 389.16417,516.14119 5,7.5 h -10 z" />
    <path
       style="fill:none;stroke:#000000;stroke-width:1"
       id="path5226-4-0"
       d="m 381.66417,530.72873 h 15" />
    <path
       style="fill:none;stroke:#000000;stroke-width:1"
       id="path5228-7-6"
       d="m 396.66417,530.72873 -3.75,3.75 m 0,-3.75 -3.75,3.75 m 0,-3.75 -3.75,3.75 m 0,-3.75 -3.75,3.75 m 0,-3.75 -3.75,3.75" />
    <path
       style="fill:none;stroke:#000000;stroke-width:1;stroke-linecap:butt;stroke-linejoin:miter;stroke-opacity:1"
       d="m 380.82444,524.12031 h 16.4794"
       id="path3342-1" />
    <circle
       transform="matrix(0.93789014,0,0,0.93789014,395.36045,527.38762)"
       style="fill:#ffffff;stroke:#000000;stroke-width:1.06622291"
       id="circle3573-4-89"
       r="2.5"
       cy="0"
       cx="0" />
    <circle
       transform="matrix(0.93789014,0,0,0.93789014,389.49999,527.44754)"
       style="fill:#ffffff;stroke:#000000;stroke-width:1.06622291"
       id="circle3573-4-0-8"
       r="2.5"
       cy="0"
       cx="0" />
    <circle
       transform="matrix(0.93789014,0,0,0.93789014,383.66339,527.44754)"
       style="fill:#ffffff;stroke:#000000;stroke-width:1.06622291"
       id="circle3573-4-8-4"
       r="2.5"
       cy="0"
       cx="0" />
    <path
       style="fill:#000000;stroke:#000000;stroke-width:1"
       id="path5224-5-43"
       d="m 472.56439,515.96616 5,7.5 h -10 z" />
    <path
       style="fill:none;stroke:#000000;stroke-width:1"
       id="path5226-4-9"
       d="m 465.06439,530.5537 h 15" />
    <path
       style="fill:none;stroke:#000000;stroke-width:1"
       id="path5228-7-8"
       d="m 480.06439,530.5537 -3.75,3.75 m 0,-3.75 -3.75,3.75 m 0,-3.75 -3.75,3.75 m 0,-3.75 -3.75,3.75 m 0,-3.75 -3.75,3.75" />
    <path
       style="fill:none;stroke:#000000;stroke-width:1;stroke-linecap:butt;stroke-linejoin:miter;stroke-opacity:1"
       d="m 464.22466,523.94528 h 16.4794"
       id="path3342-8" />
    <circle
       transform="matrix(0.93789014,0,0,0.93789014,478.76067,527.21259)"
       style="fill:#ffffff;stroke:#000000;stroke-width:1.06622291"
       id="circle3573-4-08"
       r="2.5"
       cy="0"
       cx="0" />
    <circle
       transform="matrix(0.93789014,0,0,0.93789014,472.90021,527.27251)"
       style="fill:#ffffff;stroke:#000000;stroke-width:1.06622291"
       id="circle3573-4-0-7"
       r="2.5"
       cy="0"
       cx="0" />
    <circle
       transform="matrix(0.93789014,0,0,0.93789014,467.06361,527.27251)"
       style="fill:#ffffff;stroke:#000000;stroke-width:1.06622291"
       id="circle3573-4-8-7"
       r="2.5"
       cy="0"
       cx="0" />
    <path
       style="fill:#000000;stroke:#000000;stroke-width:1"
       id="path5224-5-3"
       d="m 555.81413,516.31622 5,7.5 h -10 z" />
    <path
       style="fill:none;stroke:#000000;stroke-width:1"
       id="path5226-4-8"
       d="m 548.31413,530.90376 h 15" />
    <path
       style="fill:none;stroke:#000000;stroke-width:1"
       id="path5228-7-3"
       d="m 563.31413,530.90376 -3.75,3.75 m 0,-3.75 -3.75,3.75 m 0,-3.75 -3.75,3.75 m 0,-3.75 -3.75,3.75 m 0,-3.75 -3.75,3.75" />
    <path
       style="fill:none;stroke:#000000;stroke-width:1;stroke-linecap:butt;stroke-linejoin:miter;stroke-opacity:1"
       d="m 547.4744,524.29534 h 16.4794"
       id="path3342-7" />
    <circle
       transform="matrix(0.93789014,0,0,0.93789014,562.01041,527.56265)"
       style="fill:#ffffff;stroke:#000000;stroke-width:1.06622291"
       id="circle3573-4-1"
       r="2.5"
       cy="0"
       cx="0" />
    <circle
       transform="matrix(0.93789014,0,0,0.93789014,556.14995,527.62257)"
       style="fill:#ffffff;stroke:#000000;stroke-width:1.06622291"
       id="circle3573-4-0-0"
       r="2.5"
       cy="0"
       cx="0" />
    <circle
       transform="matrix(0.93789014,0,0,0.93789014,550.31335,527.62257)"
       style="fill:#ffffff;stroke:#000000;stroke-width:1.06622291"
       id="circle3573-4-8-73"
       r="2.5"
       cy="0"
       cx="0" />
    <g
       transform="rotate(-7.9963265,226.85426,512.36201)"
       id="g3445">
      <path
         style="fill:none;stroke:#000000;stroke-width:1.19152534;stroke-linecap:butt;stroke-linejoin:miter;stroke-opacity:1"
         d="M 227.13753,508.22791 V 473.9905"
         id="path3876-77" />
      <path
         style="fill:none;stroke:#000000;stroke-width:0.81769305;stroke-linecap:butt;stroke-linejoin:miter;stroke-opacity:1"
         d="m 230.39429,511.76877 h 34.76445"
         id="path3878-0-7-5" />
      <circle
         style="fill:#ffffff;stroke:#000000;stroke-width:1"
         id="circle3573-11-8-1"
         r="2.5"
         cy="0"
         cx="0"
         transform="matrix(1.25,0,0,1.25,226.89138,511.86153)" />
      <path
         style="fill:none;stroke:#000000;stroke-width:1.18740618;stroke-linecap:butt;stroke-linejoin:miter;stroke-opacity:1"
         d="M 268.66262,508.14453 V 474.14344"
         id="path3876-77-5" />
      <circle
         style="fill:#ffffff;stroke:#000000;stroke-width:1"
         id="circle3573-11-8-1-3-4"
         r="2.5"
         cy="0"
         cx="0"
         transform="matrix(1.25,0,0,1.25,268.65443,470.53712)" />
      <path
         style="fill:none;stroke:#000000;stroke-width:1px;stroke-linecap:butt;stroke-linejoin:miter;stroke-opacity:1"
         d="m 225.66261,468.6941 45,45"
         id="path5522" />
      <path
         style="fill:none;stroke:#000000;stroke-width:0.81769305;stroke-linecap:butt;stroke-linejoin:miter;stroke-opacity:1"
         d="m 230.53002,470.64501 h 34.76445"
         id="path3878-0-7-5-8" />
      <circle
         style="fill:#ffffff;stroke:#000000;stroke-width:1"
         id="circle3573-11-8-1-3-7"
         r="2.5"
         cy="0"
         cx="0"
         transform="matrix(1.25,0,0,1.25,227.04186,470.487)" />
      <circle
         style="fill:#ffffff;stroke:#000000;stroke-width:1"
         id="circle3573-11-8-1-4"
         r="2.5"
         cy="0"
         cx="0"
         transform="matrix(1.25,0,0,1.25,268.64386,511.73777)" />
      <path
         style="fill:#e6e6e6;fill-opacity:1;fill-rule:nonzero;stroke:none"
         d="m 230.414,510.13262 c -0.17293,-0.54484 -0.74487,-1.221 -1.27099,-1.50256 -0.9169,-0.49072 -0.95657,-1.21732 -0.95657,-17.52077 0,-13.79553 0.12586,-17.05712 0.66619,-17.26447 0.40581,-0.15572 7.67061,6.75075 18.58675,17.66997 13.58703,13.59085 17.84249,18.12908 17.59768,18.76703 -0.29519,0.76925 -1.7804,0.84143 -17.31577,0.84143 -16.5611,0 -17.00087,-0.0252 -17.30729,-0.99063 z"
         id="path3102" />
      <path
         style="fill:#e6e6e6;fill-opacity:1;fill-rule:nonzero;stroke:none"
         d="m 248.35713,490.45239 c -9.73249,-9.73531 -17.69544,-17.97789 -17.69544,-18.31684 0,-0.47954 3.72341,-0.61626 16.78218,-0.61626 h 16.78218 l 1.78217,1.78217 1.78218,1.78218 v 16.53466 c 0,15.43594 -0.0577,16.53465 -0.86891,16.53465 -0.48239,0 -8.74066,-7.87402 -18.56436,-17.70056 z"
         id="path3104" />
    </g>
    <g
       transform="rotate(8.2529855,471.83928,515.51009)"
       id="g3495">
      <path
         style="fill:none;stroke:#000000;stroke-width:1px;stroke-linecap:butt;stroke-linejoin:miter;stroke-opacity:1"
         d="m 471.69898,468.9128 45,45"
         id="path5741-0" />
      <path
         style="fill:none;stroke:#000000;stroke-width:1px;stroke-linecap:butt;stroke-linejoin:miter;stroke-opacity:1"
         d="m 429.19472,513.68758 34.97377,-34.97376 10.02623,-10.02624"
         id="path5667-2" />
      <path
         style="fill:none;stroke:#000000;stroke-width:0.81769305;stroke-linecap:butt;stroke-linejoin:miter;stroke-opacity:1"
         d="m 433.91122,511.76877 h 34.76446"
         id="path3878-0-7-6" />
      <path
         style="fill:none;stroke:#000000;stroke-width:0.81769305;stroke-linecap:butt;stroke-linejoin:miter;stroke-opacity:1"
         d="m 475.9013,511.76877 h 34.76445"
         id="path3878-0-7-20" />
      <circle
         style="fill:#ffffff;stroke:#000000;stroke-width:1"
         id="circle3573-11-8-1-1"
         r="2.5"
         cy="0"
         cx="0"
         transform="matrix(1.25,0,0,1.25,430.4261,511.73777)" />
      <circle
         style="fill:#ffffff;stroke:#000000;stroke-width:1"
         id="circle3573-11-8-1-77"
         r="2.5"
         cy="0"
         cx="0"
         transform="matrix(1.25,0,0,1.25,472.28251,511.76009)" />
      <path
         style="fill:none;stroke:#000000;stroke-width:1.18740618;stroke-linecap:butt;stroke-linejoin:miter;stroke-opacity:1"
         d="m 430.43741,508.18186 v -34.0011"
         id="path3876-77-8" />
      <path
         style="fill:none;stroke:#000000;stroke-width:1.18740618;stroke-linecap:butt;stroke-linejoin:miter;stroke-opacity:1"
         d="M 472.48759,508.1947 V 474.1936"
         id="path3876-77-2" />
      <circle
         style="fill:#ffffff;stroke:#000000;stroke-width:1"
         id="circle3573-11-8-1-3-1"
         r="2.5"
         cy="0"
         cx="0"
         transform="matrix(1.25,0,0,1.25,430.22962,470.57451)" />
      <path
         style="fill:none;stroke:#000000;stroke-width:0.83694863;stroke-linecap:butt;stroke-linejoin:miter;stroke-opacity:1"
         d="m 433.94657,470.52124 h 36.42105"
         id="path3878-0-7-5-8-5" />
      <circle
         style="fill:#ffffff;stroke:#000000;stroke-width:1"
         id="circle3573-11-8-1-3-0"
         r="2.5"
         cy="0"
         cx="0"
         transform="matrix(1.25,0,0,1.25,472.47942,470.49972)" />
      <path
         style="fill:#fff6d5;fill-opacity:1;fill-rule:nonzero;stroke:none"
         d="m 431.87456,508.22113 c -0.47765,-0.19274 -0.61881,-4.00764 -0.61881,-16.72336 v -16.47365 l 1.69943,-1.80192 1.69943,-1.80192 h 17.11245 c 13.39728,0 17.11245,0.13489 17.11245,0.62135 0,0.59357 -35.63317,36.5493 -36.14112,36.46828 -0.13476,-0.0215 -0.52348,-0.15145 -0.86383,-0.28878 z"
         id="path3124" />
      <path
         style="fill:#fff6d5;fill-opacity:1;fill-rule:nonzero;stroke:none"
         d="m 434.22605,510.40288 c 0,-0.34174 8.0867,-8.70578 17.97045,-18.58675 13.62522,-13.62139 18.17391,-17.88733 18.81188,-17.64251 0.76889,0.29505 0.84143,1.76462 0.84143,17.04793 v 16.72505 l -1.14682,0.28784 c -0.63076,0.15831 -1.4481,0.85077 -1.81633,1.53881 l -0.66951,1.25099 H 451.2216 c -13.30351,0 -16.99555,-0.13499 -16.99555,-0.62136 z"
         id="path3126" />
      <path
         style="fill:#e9c6af;fill-opacity:1;fill-rule:nonzero;stroke:none"
         d="m 474.94387,509.18951 -1.60891,-1.78035 V 491.0782 c 0,-14.97574 0.0719,-16.38487 0.86633,-16.98067 0.7756,-0.58168 2.73938,1.22057 18.75001,17.20776 13.60216,13.58224 17.82541,18.08031 17.64028,18.78821 -0.23239,0.88869 -1.00666,0.92951 -17.14109,0.90355 l -16.89771,-0.0272 -1.60891,-1.78036 z"
         id="path3128" />
      <path
         style="fill:#fff6d5;fill-opacity:1;fill-rule:nonzero;stroke:none"
         d="m 474.80454,508.70315 -1.60329,-1.82604 0.35516,-15.87198 c 0.19534,-8.72959 0.54662,-16.07066 0.78063,-16.31348 0.24506,-0.25429 1.43477,0.40737 2.80575,1.56043 4.43643,3.73125 32.82583,32.69304 32.82583,33.48768 0,0.70701 -1.75186,0.78943 -16.7804,0.78943 h -16.7804 z"
         id="path3134" />
    </g>
    <g
       transform="rotate(-7.859113,555.10108,515.54967)"
       id="g3479">
      <path
         style="fill:none;stroke:#000000;stroke-width:1px;stroke-linecap:butt;stroke-linejoin:miter;stroke-opacity:1"
         d="m 513.19472,513.68758 34.97377,-34.97376 10.02623,-10.02624"
         id="path5667-2-1" />
      <path
         style="fill:none;stroke:#000000;stroke-width:0.81769305;stroke-linecap:butt;stroke-linejoin:miter;stroke-opacity:1"
         d="m 517.63189,511.76877 h 34.76445"
         id="path3878-0-7" />
      <circle
         style="fill:#ffffff;stroke:#000000;stroke-width:1"
         id="circle3573-11-8-1-773"
         r="2.5"
         cy="0"
         cx="0"
         transform="matrix(1.25,0,0,1.25,514.14882,511.72785)" />
      <circle
         style="fill:#ffffff;stroke:#000000;stroke-width:1"
         id="circle3573-11-8-1-3"
         r="2.5"
         cy="0"
         cx="0"
         transform="matrix(1.25,0,0,1.25,555.91696,511.79965)" />
      <path
         style="fill:none;stroke:#000000;stroke-width:1.18740618;stroke-linecap:butt;stroke-linejoin:miter;stroke-opacity:1"
         d="M 514.36274,508.1947 V 474.1936"
         id="path3876-77-6" />
      <path
         style="fill:none;stroke:#000000;stroke-width:1.18740618;stroke-linecap:butt;stroke-linejoin:miter;stroke-opacity:1"
         d="m 555.9625,508.31955 v -34.0011"
         id="path3876-77-60" />
      <circle
         style="fill:#ffffff;stroke:#000000;stroke-width:1"
         id="circle3573-11-8-1-3-3"
         r="2.5"
         cy="0"
         cx="0"
         transform="matrix(1.25,0,0,1.25,555.95435,470.81238)" />
      <circle
         style="fill:#ffffff;stroke:#000000;stroke-width:1"
         id="circle3573-11-8-1-3-8"
         r="2.5"
         cy="0"
         cx="0"
         transform="matrix(1.25,0,0,1.25,514.26701,470.58724)" />
      <path
         style="fill:none;stroke:#000000;stroke-width:0.81769305;stroke-linecap:butt;stroke-linejoin:miter;stroke-opacity:1"
         d="m 517.65378,470.53117 h 34.76445"
         id="path3878-0-7-5-8-1" />
      <path
         style="fill:#e9c6af;fill-opacity:1;fill-rule:nonzero;stroke:none"
         d="m 516.03298,508.22113 c -0.47792,-0.19285 -0.61882,-4.0596 -0.61882,-16.98319 v -16.7335 l 1.23763,-0.81092 c 0.68069,-0.44601 1.23762,-1.13994 1.23762,-1.54208 0,-0.63068 2.33995,-0.73116 17.02624,-0.73116 15.56657,0 17.05393,0.0721 17.34912,0.8414 0.24477,0.63784 -3.96361,5.12913 -17.39495,18.56435 -9.7448,9.74763 -17.83037,17.70537 -17.96793,17.68388 -0.13756,-0.0215 -0.52857,-0.15145 -0.86891,-0.28878 z"
         id="path3130" />
      <path
         style="fill:#fff6d5;fill-opacity:1;fill-rule:nonzero;stroke:none"
         d="m 517.88941,510.65041 c 0,-0.64449 35.86344,-36.25984 36.51241,-36.25984 0.4796,0 0.6163,3.72617 0.6163,16.79833 0,15.87626 -0.05,16.81419 -0.91083,17.08741 -0.50096,0.15899 -1.20692,0.84232 -1.5688,1.5185 l -0.65797,1.22943 h -16.99555 c -9.34756,0 -16.99556,-0.16823 -16.99556,-0.37383 z"
         id="path3132" />
      <path
         style="fill:#f4d7d7;fill-opacity:1;fill-rule:nonzero;stroke:none"
         d="m 523.68168,510.55509 -5.34635,-0.27343 17.96669,-17.82178 17.96669,-17.82178 0.35347,6.43564 c 0.1944,3.5396 0.22143,10.96686 0.0601,16.50502 -0.28371,9.73638 -0.33212,10.10809 -1.46391,11.23988 -0.64377,0.64377 -1.17049,1.40339 -1.17049,1.68804 0,0.5441 -18.07099,0.57494 -28.36615,0.0484 v 0 z"
         id="path3138" />
      <path
         style="fill:#e9c6af;fill-opacity:1;fill-rule:nonzero;stroke:none"
         d="m 520.55992,510.09273 c -1.51642,-0.30194 -1.29909,-0.54108 15.92771,-17.52523 l 17.46512,-17.21911 0.34686,2.77615 c 0.19077,1.52689 0.25239,8.61995 0.13694,15.76237 -0.20156,12.46933 -0.25488,13.05899 -1.33969,14.81425 l -1.12978,1.82803 -14.93488,-0.0652 c -8.21418,-0.0358 -15.6267,-0.20292 -16.47228,-0.37129 v 0 z"
         id="path3142" />
      <path
         style="fill:#e9c6af;fill-opacity:1;fill-rule:nonzero;stroke:none"
         d="m 530.88446,510.15844 c -6.82256,-0.0934 -10.5198,-0.32394 -10.5198,-0.656 0,-0.71995 7.64506,-8.52186 21.68456,-22.12946 l 12.03109,-11.66097 -0.1499,15.79967 c -0.13929,14.6808 -0.21882,15.91362 -1.12298,17.4086 l -0.97308,1.60891 -5.21504,-0.11338 c -2.86828,-0.0624 -9.94896,-0.17818 -15.73485,-0.25737 z"
         id="path3144" />
    </g>
    <text
       transform="translate(0,62.362)"
       id="text3523"
       y="495.94058"
       x="279.20792"
       style="font-style:normal;font-variant:normal;font-weight:normal;font-stretch:normal;line-height:0%;font-family:Verdana;-inkscape-font-specification:Sans;text-align:start;letter-spacing:0px;word-spacing:0px;writing-mode:lr-tb;text-anchor:start;fill:#000000;fill-opacity:1;stroke:none"
       xml:space="preserve"><tspan
         style="font-size:10px;line-height:1.25"
         y="495.94058"
         x="279.20792"
         id="tspan3525">Showing possible displacements of stable portions.</tspan><tspan
         style="font-size:10px;line-height:1.25"
         id="tspan3527"
         y="508.44058"
         x="279.20792">Therefore, unstable.</tspan></text>
  </g>
</svg>
