<?xml version="1.0" encoding="UTF-8" standalone="no"?>
<svg
   xmlns:dc="http://purl.org/dc/elements/1.1/"
   xmlns:cc="http://creativecommons.org/ns#"
   xmlns:rdf="http://www.w3.org/1999/02/22-rdf-syntax-ns#"
   xmlns:svg="http://www.w3.org/2000/svg"
   xmlns="http://www.w3.org/2000/svg"
   xmlns:xlink="http://www.w3.org/1999/xlink"
   version="1.1"
   id="svg2"
   height="162.10938"
   width="486.62003">
  <script
     id="script3033"
     xlink:href="" />
  <defs
     id="defs4" />
  <metadata
     id="metadata7">
    <rdf:RDF>
      <cc:Work
         rdf:about="">
        <dc:format>image/svg+xml</dc:format>
        <dc:type
           rdf:resource="http://purl.org/dc/dcmitype/StillImage" />
        <dc:title />
        <cc:license
           rdf:resource="http://creativecommons.org/licenses/by-nc/3.0/" />
      </cc:Work>
      <cc:License
         rdf:about="http://creativecommons.org/licenses/by-nc/3.0/">
        <cc:permits
           rdf:resource="http://creativecommons.org/ns#Reproduction" />
        <cc:permits
           rdf:resource="http://creativecommons.org/ns#Distribution" />
        <cc:requires
           rdf:resource="http://creativecommons.org/ns#Notice" />
        <cc:requires
           rdf:resource="http://creativecommons.org/ns#Attribution" />
        <cc:prohibits
           rdf:resource="http://creativecommons.org/ns#CommercialUse" />
        <cc:permits
           rdf:resource="http://creativecommons.org/ns#DerivativeWorks" />
      </cc:License>
    </rdf:RDF>
  </metadata>
  <g
     transform="translate(-99.891438,-353.36646)"
     id="layer1">
    <g
       id="g3102">
      <g
         id="g10305">
        <path
           transform="translate(0,62.362)"
           id="path10299"
           d="m 131.87541,374.28677 58.15954,-59.22019"
           style="fill:none;stroke:#000000;stroke-width:1;stroke-linecap:butt;stroke-linejoin:miter;stroke-opacity:1" />
        <path
           transform="translate(0,62.362)"
           id="path10301"
           d="M 364.33677,374.10999 306.17724,314.8898"
           style="fill:none;stroke:#000000;stroke-width:1;stroke-linecap:butt;stroke-linejoin:miter;stroke-opacity:1" />
        <path
           transform="translate(0,62.362)"
           id="path10303"
           d="M 131.52186,374.46355 248.19448,314.8898 364.33677,374.28677"
           style="fill:none;stroke:#000000;stroke-width:1;stroke-linecap:butt;stroke-linejoin:miter;stroke-opacity:1" />
        <path
           id="path9521-7-6-8"
           d="M 192.32505,436.49068 H 304.08961"
           style="fill:none;stroke:#000000;stroke-width:1;stroke-linecap:butt;stroke-linejoin:miter;stroke-opacity:1" />
        <path
           id="path9521"
           d="m 135.10177,377.36594 h 51.84215"
           style="fill:none;stroke:#000000;stroke-width:1;stroke-linecap:butt;stroke-linejoin:miter;stroke-opacity:1" />
        <circle
           transform="matrix(1.25,0,0,1.25,190.12975,377.34001)"
           cx="0"
           cy="0"
           r="2.5"
           id="circle3573"
           style="fill:#ffffff;stroke:#000000;stroke-width:0.80000001" />
        <circle
           transform="matrix(1.25,0,0,1.25,131.41787,377.34001)"
           cx="0"
           cy="0"
           r="2.5"
           id="circle3573-4"
           style="fill:#ffffff;stroke:#000000;stroke-width:0.80000001" />
        <path
           id="path9521-2"
           d="m 309.62217,377.36594 h 51.21918"
           style="fill:none;stroke:#000000;stroke-width:1;stroke-linecap:butt;stroke-linejoin:miter;stroke-opacity:1" />
        <path
           id="path9521-7"
           d="m 193.63706,377.36594 h 51.21918"
           style="fill:none;stroke:#000000;stroke-width:1;stroke-linecap:butt;stroke-linejoin:miter;stroke-opacity:1" />
        <circle
           transform="matrix(1.25,0,0,1.25,248.24091,377.21501)"
           cx="0"
           cy="0"
           r="2.5"
           id="circle3573-6"
           style="fill:#ffffff;stroke:#000000;stroke-width:0.80000001" />
        <path
           id="path9521-7-6"
           d="m 251.60955,377.36594 h 51.21918"
           style="fill:none;stroke:#000000;stroke-width:1;stroke-linecap:butt;stroke-linejoin:miter;stroke-opacity:1" />
        <circle
           transform="matrix(1.25,0,0,1.25,306.27495,377.34001)"
           cx="0"
           cy="0"
           r="2.5"
           id="circle3573-6-7"
           style="fill:#ffffff;stroke:#000000;stroke-width:0.80000001" />
        <path
           d="m 131.58338,439.86057 5,7.5 h -10 z"
           id="path5224"
           style="fill:#000000;stroke:#000000;stroke-width:0" />
        <path
           d="m 124.08338,447.36057 h 15"
           id="path5226"
           style="fill:none;stroke:#000000;stroke-width:1.25" />
        <path
           d="m 139.08338,447.36057 -3.75,3.75 m 0,-3.75 -3.75,3.75 m 0,-3.75 -3.75,3.75 m 0,-3.75 -3.75,3.75 m 0,-3.75 -3.75,3.75"
           id="path5228"
           style="fill:none;stroke:#000000;stroke-width:1.25" />
        <path
           d="m 365.01096,439.83657 5,7.5 h -10 z"
           id="path5224-5"
           style="fill:#000000;stroke:#000000;stroke-width:0" />
        <path
           d="m 357.51096,454.42411 h 15"
           id="path5226-4"
           style="fill:none;stroke:#000000;stroke-width:1.25" />
        <path
           d="m 372.51096,454.42411 -3.75,3.75 m 0,-3.75 -3.75,3.75 m 0,-3.75 -3.75,3.75 m 0,-3.75 -3.75,3.75 m 0,-3.75 -3.75,3.75"
           id="path5228-7"
           style="fill:none;stroke:#000000;stroke-width:1.25" />
        <path
           id="path3342"
           d="m 356.67123,447.81569 h 16.4794"
           style="fill:none;stroke:#000000;stroke-width:1px;stroke-linecap:butt;stroke-linejoin:miter;stroke-opacity:1" />
        <g
           transform="matrix(0.93789014,0,0,0.93789014,371.20724,451.083)"
           id="use3513-4">
          <circle
             style="fill:#ffffff;stroke:#000000;stroke-width:1"
             id="circle3573-4-6"
             r="2.5"
             cy="0"
             cx="0" />
        </g>
        <g
           transform="matrix(0.93789014,0,0,0.93789014,365.34678,451.14292)"
           id="use3513-4-3">
          <circle
             style="fill:#ffffff;stroke:#000000;stroke-width:1"
             id="circle3573-4-0"
             r="2.5"
             cy="0"
             cx="0" />
        </g>
        <g
           transform="matrix(0.93789014,0,0,0.93789014,359.51018,451.14292)"
           id="use3513-4-7">
          <circle
             style="fill:#ffffff;stroke:#000000;stroke-width:1"
             id="circle3573-4-8"
             r="2.5"
             cy="0"
             cx="0" />
        </g>
        <circle
           transform="matrix(1.25,0,0,1.25,364.35974,377.30358)"
           cx="0"
           cy="0"
           r="2.5"
           id="circle3573-9-8"
           style="fill:#ffffff;stroke:#000000;stroke-width:0.80000001" />
        <path
           id="path10208"
           d="m 364.34619,380.83448 0.25584,52.15544"
           style="fill:none;stroke:#000000;stroke-width:1;stroke-linecap:butt;stroke-linejoin:miter;stroke-opacity:1" />
        <path
           id="path10208-8"
           d="m 131.49708,380.78428 0.25584,52.15544"
           style="fill:none;stroke:#000000;stroke-width:1;stroke-linecap:butt;stroke-linejoin:miter;stroke-opacity:1" />
        <path
           id="path9521-0"
           d="m 135.21297,436.49068 h 51.84215"
           style="fill:none;stroke:#000000;stroke-width:1;stroke-linecap:butt;stroke-linejoin:miter;stroke-opacity:1" />
        <circle
           transform="matrix(1.25,0,0,1.25,190.41771,436.46475)"
           cx="0"
           cy="0"
           r="2.5"
           id="circle3573-8"
           style="fill:#ffffff;stroke:#000000;stroke-width:0.80000001" />
        <circle
           transform="matrix(1.25,0,0,1.25,131.70585,436.46475)"
           cx="0"
           cy="0"
           r="2.5"
           id="circle3573-4-7"
           style="fill:#ffffff;stroke:#000000;stroke-width:0.80000001" />
        <path
           id="path9521-2-7"
           d="m 309.73337,436.49068 h 51.21918"
           style="fill:none;stroke:#000000;stroke-width:1;stroke-linecap:butt;stroke-linejoin:miter;stroke-opacity:1" />
        <circle
           transform="matrix(1.25,0,0,1.25,306.51115,436.46475)"
           cx="0"
           cy="0"
           r="2.5"
           id="circle3573-6-7-3"
           style="fill:#ffffff;stroke:#000000;stroke-width:0.80000001" />
        <circle
           transform="matrix(1.25,0,0,1.25,364.47094,436.42832)"
           cx="0"
           cy="0"
           r="2.5"
           id="circle3573-9-8-7"
           style="fill:#ffffff;stroke:#000000;stroke-width:0.80000001" />
        <path
           id="path10208-8-1"
           d="m 190.19397,380.78428 0.25584,52.15544"
           style="fill:none;stroke:#000000;stroke-width:1;stroke-linecap:butt;stroke-linejoin:miter;stroke-opacity:1" />
        <path
           id="path10208-8-0"
           d="m 306.24708,380.78428 0.25584,52.15544"
           style="fill:none;stroke:#000000;stroke-width:1;stroke-linecap:butt;stroke-linejoin:miter;stroke-opacity:1" />
      </g>
      <path
         style="fill:#b3b3b3;fill-opacity:1;fill-rule:nonzero;stroke:none"
         d="m 132.95232,370.52962 c -0.54817,-0.40637 -0.60341,-2.50844 -0.68629,-26.11582 l -0.0901,-25.67388 0.98037,-0.4339 c 0.5392,-0.23865 1.21946,-0.89625 1.51168,-1.46135 l 0.53131,-1.02744 h 25.59972 c 25.47313,0 25.60085,0.004 25.82908,0.72268 0.18972,0.59773 -2.20558,3.2046 -13.85314,15.07678 -7.74538,7.89475 -19.57143,19.96148 -26.28011,26.81496 -6.70867,6.85348 -12.36606,12.47866 -12.57196,12.50039 -0.2059,0.0217 -0.64263,-0.15935 -0.97052,-0.40242 z"
         id="path3050"
         transform="translate(0,62.362)" />
      <path
         style="fill:#b3b3b3;fill-opacity:1;fill-rule:nonzero;stroke:none"
         d="m 150.03034,356.83614 c 34.56762,-35.24116 37.94889,-38.58183 38.80248,-38.33657 l 0.7955,0.22856 v 12.64179 12.64178 l -26.57395,13.56832 c -14.61567,7.46257 -26.74697,13.6326 -26.95845,13.71117 -0.21147,0.0786 6.05901,-6.42621 13.93442,-14.45505 z"
         id="path3052"
         transform="translate(0,62.362)" />
      <path
         style="fill:#b3b3b3;fill-opacity:1;fill-rule:nonzero;stroke:none"
         d="m 190.96313,330.89024 -0.0974,-12.1506 0.98037,-0.43376 c 0.53921,-0.23857 1.21946,-0.89611 1.51168,-1.46121 l 0.53131,-1.02744 25.35838,0.006 25.35838,0.006 -3.88909,2.04755 c -6.53378,3.43993 -49.21978,25.1643 -49.4451,25.1643 -0.11615,0 -0.255,-5.46777 -0.30855,-12.1506 z"
         id="path3054"
         transform="translate(0,62.362)" />
      <path
         style="fill:#b3b3b3;fill-opacity:1;fill-rule:nonzero;stroke:none"
         d="m 137.12564,372.4419 c 0.97227,-0.54885 12.18875,-6.29503 24.92551,-12.76929 12.73676,-6.47426 24.15212,-12.31591 25.36746,-12.98144 l 2.20971,-1.21006 v 12.49094 12.49093 l -1.00877,0.38077 c -0.58283,0.21999 -1.21639,0.84984 -1.50052,1.49172 l -0.49175,1.11096 -25.63471,-0.003 -25.6347,-0.003 1.76777,-0.9979 z"
         id="path3056"
         transform="translate(0,62.362)" />
      <path
         style="fill:#b3b3b3;fill-opacity:1;fill-rule:nonzero;stroke:none"
         d="m 281.5522,331.15648 c -13.12567,-6.72273 -25.2172,-12.91622 -26.87006,-13.7633 l -3.0052,-1.54016 25.45792,-0.0179 25.45793,-0.0179 0.4604,1.04012 c 0.25322,0.57207 0.92846,1.2473 1.50052,1.50052 l 1.04012,0.4604 v 12.28806 c 0,6.75844 -0.0398,12.28475 -0.0884,12.28069 -0.0486,-0.004 -10.82757,-5.5078 -23.95324,-12.23054 z"
         id="path3058"
         transform="translate(0,62.362)" />
      <path
         style="fill:#b3b3b3;fill-opacity:1;fill-rule:nonzero;stroke:none"
         d="m 333.52455,357.77367 -26.33973,-13.50091 -0.0928,-12.78833 -0.0928,-12.78834 0.75731,-0.24036 c 0.60036,-0.19055 1.10308,0.11562 2.42583,1.47739 2.02941,2.08928 40.9913,41.84602 46.46656,47.41452 2.15098,2.18761 3.75437,3.9661 3.56309,3.9522 -0.19128,-0.0139 -12.20066,-6.10067 -26.68751,-13.52617 z"
         id="path3060"
         transform="translate(0,62.362)" />
      <path
         style="fill:#b3b3b3;fill-opacity:1;fill-rule:nonzero;stroke:none"
         d="m 335.87745,344.11711 c -21.72643,-22.10531 -26.3144,-26.93895 -26.15356,-27.55399 l 0.19505,-0.74589 h 25.35786 25.35786 l 0.41018,0.90026 c 0.2256,0.49514 0.86919,1.16369 1.4302,1.48567 l 1.02001,0.5854 0.24179,16.63395 c 0.13299,9.14867 0.19111,20.75237 0.12916,25.78601 -0.11084,9.00579 -0.12484,9.15657 -0.87629,9.43438 -0.67229,0.24854 -3.91583,-2.92484 -27.11226,-26.52579 z"
         id="path3062"
         transform="translate(0,62.362)" />
      <path
         style="fill:#b3b3b3;fill-opacity:1;fill-rule:nonzero;stroke:none"
         d="m 309.90784,372.41897 c -0.25152,-0.56821 -1.00123,-1.28676 -1.6773,-1.60758 l -1.2225,-0.58011 v -12.18101 c 0,-6.69955 0.0469,-12.181 0.10429,-12.181 0.15658,0 53.43578,27.26516 53.60637,27.43258 0.081,0.0795 -11.21595,0.14458 -25.10438,0.14458 h -25.25168 z"
         id="path3064"
         transform="translate(0,62.362)" />
      <text
         xml:space="preserve"
         style="font-style:normal;font-variant:normal;font-weight:normal;font-stretch:normal;line-height:0%;font-family:Verdana;-inkscape-font-specification:Sans;text-align:start;letter-spacing:0px;word-spacing:0px;writing-mode:lr-tb;text-anchor:start;fill:#000000;fill-opacity:1;stroke:none"
         x="390.67651"
         y="318.60211"
         id="text3066"
         transform="translate(0,62.362)"><tspan
           style="font-size:10px;line-height:1.25"
           id="tspan3082"
           x="390.67651"
           y="318.60211">Compound truss - 2 simple trusses</tspan><tspan
           style="font-size:10px;line-height:1.25"
           id="tspan3084"
           x="390.67651"
           y="331.10211">(shaded) joined at joint + bar.</tspan><tspan
           style="font-size:10px;line-height:1.25"
           id="tspan3086"
           x="390.67651"
           y="343.60211">Stable.</tspan><tspan
           style="font-size:10px;line-height:1.25"
           id="tspan3088"
           x="390.67651"
           y="356.10211">m = 15</tspan><tspan
           style="font-size:10px;line-height:1.25"
           id="tspan3090"
           x="390.67651"
           y="368.60211">r = 3</tspan><tspan
           style="font-size:10px;line-height:1.25"
           id="tspan3092"
           x="390.67651"
           y="381.10211">j = 9</tspan><tspan
           style="font-size:10px;line-height:1.25"
           id="tspan3094"
           x="390.67651"
           y="393.60211">°S.I. = m + r - 2j</tspan><tspan
           style="font-size:10px;line-height:1.25"
           x="390.67651"
           y="406.10211"
           id="tspan3096">        = 15 + 3 - 2x9</tspan><tspan
           style="font-size:10px;line-height:1.25"
           x="390.67651"
           y="418.60211"
           id="tspan3098">        = 0</tspan><tspan
           style="font-size:10px;line-height:1.25"
           x="390.67651"
           y="431.10211"
           id="tspan3100">Statically determinate</tspan></text>
    </g>
  </g>
</svg>
