<?xml version="1.0" encoding="UTF-8" standalone="no"?>
<svg
   xmlns:dc="http://purl.org/dc/elements/1.1/"
   xmlns:cc="http://creativecommons.org/ns#"
   xmlns:rdf="http://www.w3.org/1999/02/22-rdf-syntax-ns#"
   xmlns:svg="http://www.w3.org/2000/svg"
   xmlns="http://www.w3.org/2000/svg"
   xmlns:xlink="http://www.w3.org/1999/xlink"
   version="1.1"
   id="svg2"
   height="221.66711"
   width="364.64493">
  <script
     id="script3033"
     xlink:href="" />
  <defs
     id="defs4">
    <marker
       id="CLArrowEnd"
       markerUnits="userSpaceOnUse"
       markerWidth="10"
       markerHeight="6"
       orient="auto"
       viewBox="0 0 10 6"
       refX="7"
       refY="3">
      <path
         d="M 0,0 10,3 0,6 2,3 Z"
         id="path3451" />
    </marker>
  </defs>
  <metadata
     id="metadata7">
    <rdf:RDF>
      <cc:Work
         rdf:about="">
        <dc:format>image/svg+xml</dc:format>
        <dc:type
           rdf:resource="http://purl.org/dc/dcmitype/StillImage" />
        <dc:title />
        <cc:license
           rdf:resource="http://creativecommons.org/licenses/by-nc/3.0/" />
      </cc:Work>
      <cc:License
         rdf:about="http://creativecommons.org/licenses/by-nc/3.0/">
        <cc:permits
           rdf:resource="http://creativecommons.org/ns#Reproduction" />
        <cc:permits
           rdf:resource="http://creativecommons.org/ns#Distribution" />
        <cc:requires
           rdf:resource="http://creativecommons.org/ns#Notice" />
        <cc:requires
           rdf:resource="http://creativecommons.org/ns#Attribution" />
        <cc:prohibits
           rdf:resource="http://creativecommons.org/ns#CommercialUse" />
        <cc:permits
           rdf:resource="http://creativecommons.org/ns#DerivativeWorks" />
      </cc:License>
    </rdf:RDF>
  </metadata>
  <g
     transform="translate(-230.59883,-425.62315)"
     id="layer1">
    <g
       transform="translate(113.48652,167.36395)"
       id="g3933">
      <path
         style="fill:none;stroke:#000000;stroke-width:1;stroke-linecap:butt;stroke-linejoin:miter;stroke-opacity:1"
         d="m 299.44762,324.69057 81,-45"
         id="path3429" />
      <path
         style="fill:none;stroke:#000000;stroke-width:1;stroke-linecap:butt;stroke-linejoin:miter;stroke-opacity:1"
         d="m 380.93106,359.76299 -81,-36"
         id="path3427" />
      <path
         style="fill:none;stroke:#000000;stroke-width:1;stroke-linecap:butt;stroke-linejoin:miter;stroke-opacity:1"
         d="m 223.05104,280.13159 81,45"
         id="path3351" />
      <path
         style="fill:none;stroke:#000000;stroke-width:1;stroke-linecap:butt;stroke-linejoin:miter;stroke-opacity:1"
         d="m 227.2762,358.63711 72,-36"
         id="path3349" />
      <path
         style="fill:none;stroke:#000000;stroke-width:1;stroke-linecap:butt;stroke-linejoin:miter;stroke-opacity:1"
         d="m 149.55894,443.99805 73.48344,-82.73068"
         id="path3275" />
      <path
         style="fill:none;stroke:#000000;stroke-width:1;stroke-linecap:butt;stroke-linejoin:miter;stroke-opacity:1"
         d="M 224.9992,355.05721 V 285.51405"
         id="path3876" />
      <path
         style="fill:none;stroke:#000000;stroke-width:1;stroke-linecap:butt;stroke-linejoin:miter;stroke-opacity:1"
         d="m 152.03004,281.99805 h 69.5289"
         id="path3878" />
      <path
         style="fill:none;stroke:#000000;stroke-width:1;stroke-linecap:butt;stroke-linejoin:miter;stroke-opacity:1"
         d="M 148.88156,441.99569 V 285.52357"
         id="path3876-5" />
      <circle
         style="fill:#ffffff;stroke:#000000;stroke-width:0.80000001"
         id="circle3573-6-4-9-3"
         r="2.5"
         cy="0"
         cx="0"
         transform="matrix(1.25,0,0,1.25,225.15396,282.00797)" />
      <path
         style="fill:none;stroke:#000000;stroke-width:1;stroke-linecap:butt;stroke-linejoin:miter;stroke-opacity:1"
         d="M 453.75359,441.68524 V 285.21312"
         id="path3876-5-1" />
      <circle
         style="fill:#ffffff;stroke:#000000;stroke-width:0.80000001"
         id="circle3573-6-4-9-3-7"
         r="2.5"
         cy="0"
         cx="0"
         transform="matrix(1.25,0,0,1.25,148.87668,282.00797)" />
      <circle
         style="fill:#ffffff;stroke:#000000;stroke-width:0.80000001"
         id="circle3573-6-4-9-3-4"
         r="2.5"
         cy="0"
         cx="0"
         transform="matrix(1.25,0,0,1.25,225.04012,358.40901)" />
      <path
         style="fill:none;stroke:#000000;stroke-width:1;stroke-linecap:butt;stroke-linejoin:miter;stroke-opacity:1"
         d="m 150.60789,283.99805 72,72"
         id="path3255" />
      <circle
         style="fill:#ffffff;stroke:#000000;stroke-width:0.80000001"
         id="circle3573-6-4-9-3-4-0"
         r="2.5"
         cy="0"
         cx="0"
         transform="matrix(1.25,0,0,1.25,148.8653,445.23419)" />
      <path
         style="fill:none;stroke:#000000;stroke-width:1;stroke-linecap:butt;stroke-linejoin:miter;stroke-opacity:1"
         d="m 228.51348,281.99805 h 69.5289"
         id="path3878-9" />
      <circle
         style="fill:#ffffff;stroke:#000000;stroke-width:0.80000001"
         id="circle3573-6-4-9-3-48"
         r="2.5"
         cy="0"
         cx="0"
         transform="matrix(1.25,0,0,1.25,301.165,281.88435)" />
      <path
         style="fill:none;stroke:#000000;stroke-width:1;stroke-linecap:butt;stroke-linejoin:miter;stroke-opacity:1"
         d="M 301.13645,320.07172 V 285.14093"
         id="path3876-8" />
      <circle
         style="fill:#ffffff;stroke:#000000;stroke-width:0.80000001"
         id="circle3573-6-4-9-3-48-2"
         r="2.5"
         cy="0"
         cx="0"
         transform="matrix(1.25,0,0,1.25,301.12129,323.52934)" />
      <circle
         style="fill:#ffffff;stroke:#000000;stroke-width:0.80000001"
         id="circle3573-6-4-9-3-48-5"
         r="2.5"
         cy="0"
         cx="0"
         transform="matrix(1.25,0,0,1.25,377.64054,281.97176)" />
      <path
         style="fill:none;stroke:#000000;stroke-width:1;stroke-linecap:butt;stroke-linejoin:miter;stroke-opacity:1"
         d="M 377.62834,354.93359 V 285.39043"
         id="path3876-51" />
      <circle
         style="fill:#ffffff;stroke:#000000;stroke-width:0.80000001"
         id="circle3573-6-4-9-3-48-7"
         r="2.5"
         cy="0"
         cx="0"
         transform="matrix(1.25,0,0,1.25,377.55839,358.4856)" />
      <path
         style="fill:none;stroke:#000000;stroke-width:1;stroke-linecap:butt;stroke-linejoin:miter;stroke-opacity:1"
         d="m 380.63938,281.99805 h 69.5289"
         id="path3878-9-4-1" />
      <circle
         style="fill:#ffffff;stroke:#000000;stroke-width:0.80000001"
         id="circle3573-6-4-9-3-48-7-1"
         r="2.5"
         cy="0"
         cx="0"
         transform="matrix(1.25,0,0,1.25,453.76119,281.8842)" />
      <path
         style="fill:none;stroke:#000000;stroke-width:1;stroke-linecap:butt;stroke-linejoin:miter;stroke-opacity:1"
         d="m 451.92313,284.21506 -72,72"
         id="path3467" />
      <circle
         style="fill:#ffffff;stroke:#000000;stroke-width:0.80000001"
         id="circle3573-6-4-9-3-48-7-5"
         r="2.5"
         cy="0"
         cx="0"
         transform="matrix(1.25,0,0,1.25,453.73322,444.63934)" />
      <path
         style="fill:none;stroke:#000000;stroke-width:1;stroke-linecap:butt;stroke-linejoin:miter;stroke-opacity:1"
         d="m 379.2362,361.09268 72,81"
         id="path3487" />
      <g
         id="use90"
         transform="matrix(1.25,0,0,1.25,148.80425,448.23437)">
        <path
           d="M 0,0 4,6 H -4 Z"
           id="path5224-2"
           style="fill:#000000;stroke:#000000;stroke-width:0" />
        <path
           d="M -6,6 H 6"
           id="path5226-7"
           style="fill:none;stroke:#000000;stroke-width:1" />
        <path
           d="M 6,6 3,9 M 3,6 0,9 M 0,6 -3,9 m 0,-3 -3,3 m 0,-3 -3,3"
           id="path5228-6"
           style="fill:none;stroke:#000000;stroke-width:1" />
      </g>
      <g
         id="use90-1"
         transform="matrix(1.25,0,0,1.25,453.81529,447.78405)">
        <path
           d="M 0,0 4,6 H -4 Z"
           id="path5224-4"
           style="fill:#000000;stroke:#000000;stroke-width:0" />
        <path
           d="M -6,6 H 6"
           id="path5226-2"
           style="fill:none;stroke:#000000;stroke-width:1" />
        <path
           d="M 6,6 3,9 M 3,6 0,9 M 0,6 -3,9 m 0,-3 -3,3 m 0,-3 -3,3"
           id="path5228-3"
           style="fill:none;stroke:#000000;stroke-width:1" />
      </g>
    </g>
  </g>
</svg>
