<?xml version="1.0" encoding="UTF-8" standalone="no"?>
<svg
   xmlns:dc="http://purl.org/dc/elements/1.1/"
   xmlns:cc="http://creativecommons.org/ns#"
   xmlns:rdf="http://www.w3.org/1999/02/22-rdf-syntax-ns#"
   xmlns:svg="http://www.w3.org/2000/svg"
   xmlns="http://www.w3.org/2000/svg"
   xmlns:xlink="http://www.w3.org/1999/xlink"
   version="1.1"
   id="svg2"
   height="273.37231"
   width="456.30698">
  <script
     id="script3033"
     xlink:href="" />
  <defs
     id="defs4">
    <marker
       style="overflow:visible"
       id="Arrow1Mstart"
       refX="0"
       refY="0"
       orient="auto">
      <path
         transform="matrix(0.4,0,0,0.4,4,0)"
         style="fill-rule:evenodd;stroke:#000000;stroke-width:1.00000003pt;marker-start:none"
         d="M 0,0 5,-5 -12.5,0 5,5 Z"
         id="path3888" />
    </marker>
    <marker
       id="CLArrowEnd"
       markerUnits="userSpaceOnUse"
       markerWidth="10"
       markerHeight="6"
       orient="auto"
       viewBox="0 0 10 6"
       refX="7"
       refY="3">
      <path
         d="M 0,0 10,3 0,6 2,3 Z"
         id="path3451" />
    </marker>
  </defs>
  <metadata
     id="metadata7">
    <rdf:RDF>
      <cc:Work
         rdf:about="">
        <dc:format>image/svg+xml</dc:format>
        <dc:type
           rdf:resource="http://purl.org/dc/dcmitype/StillImage" />
        <dc:title />
        <cc:license
           rdf:resource="http://creativecommons.org/licenses/by-nc/3.0/" />
      </cc:Work>
      <cc:License
         rdf:about="http://creativecommons.org/licenses/by-nc/3.0/">
        <cc:permits
           rdf:resource="http://creativecommons.org/ns#Reproduction" />
        <cc:permits
           rdf:resource="http://creativecommons.org/ns#Distribution" />
        <cc:requires
           rdf:resource="http://creativecommons.org/ns#Notice" />
        <cc:requires
           rdf:resource="http://creativecommons.org/ns#Attribution" />
        <cc:prohibits
           rdf:resource="http://creativecommons.org/ns#CommercialUse" />
        <cc:permits
           rdf:resource="http://creativecommons.org/ns#DerivativeWorks" />
      </cc:License>
    </rdf:RDF>
  </metadata>
  <g
     transform="translate(-233.17532,-283.612)"
     id="layer1">
    <g
       id="g3057">
      <path
         style="fill:none;stroke:#000000;stroke-width:1px;stroke-linecap:butt;stroke-linejoin:miter;stroke-opacity:1"
         d="m 317.24752,331.47584 54,27"
         id="path7317" />
      <g
         id="g7256"
         transform="translate(-6.01263,-21.84974)">
        <path
           id="path4688"
           d="m 487.13368,341.362 -54,198"
           style="fill:none;stroke:#000000;stroke-width:1px;stroke-linecap:butt;stroke-linejoin:miter;stroke-opacity:1" />
        <g
           id="g4647"
           transform="translate(9,-135)">
          <path
             style="fill:none;stroke:#000000;stroke-width:1px;stroke-linecap:butt;stroke-linejoin:miter;stroke-opacity:1"
             d="m 423,620.362 -54,54"
             id="path4343" />
          <path
             style="fill:none;stroke:#000000;stroke-width:1px;stroke-linecap:butt;stroke-linejoin:miter;stroke-opacity:1"
             d="m 371,568.362 54,54"
             id="path4303" />
          <path
             style="fill:none;stroke:#000000;stroke-width:1;stroke-linecap:butt;stroke-linejoin:miter;stroke-opacity:1"
             d="M 371.21896,516.87628 V 464.31073"
             id="path3876" />
          <path
             style="fill:none;stroke:#000000;stroke-width:1;stroke-linecap:butt;stroke-linejoin:miter;stroke-opacity:1"
             d="m 370.72974,464.31073 h 51.99418"
             id="path3878" />
          <path
             style="fill:none;stroke:#000000;stroke-width:0.99776226;stroke-linecap:butt;stroke-linejoin:miter;stroke-opacity:1"
             d="M 371.23826,516.362 H 423"
             id="path3878-1" />
          <path
             style="fill:none;stroke:#000000;stroke-width:1;stroke-linecap:butt;stroke-linejoin:miter;stroke-opacity:1"
             d="M 422.51888,516.43873 V 463.87318"
             id="path3876-7" />
          <path
             style="fill:none;stroke:#000000;stroke-width:1;stroke-linecap:butt;stroke-linejoin:miter;stroke-opacity:1"
             d="M 371.21896,568.87628 V 516.31073"
             id="path3876-4" />
          <path
             style="fill:none;stroke:#000000;stroke-width:1;stroke-linecap:butt;stroke-linejoin:miter;stroke-opacity:1"
             d="m 370.72974,516.31073 h 51.99418"
             id="path3878-0" />
          <path
             style="fill:none;stroke:#000000;stroke-width:0.99776226;stroke-linecap:butt;stroke-linejoin:miter;stroke-opacity:1"
             d="M 371.23826,568.362 H 423"
             id="path3878-1-9" />
          <path
             style="fill:none;stroke:#000000;stroke-width:1;stroke-linecap:butt;stroke-linejoin:miter;stroke-opacity:1"
             d="M 422.51888,568.43873 V 515.87318"
             id="path3876-7-4" />
          <path
             style="fill:none;stroke:#000000;stroke-width:1;stroke-linecap:butt;stroke-linejoin:miter;stroke-opacity:1"
             d="M 371.21896,620.87628 V 568.31073"
             id="path3876-5" />
          <path
             style="fill:none;stroke:#000000;stroke-width:1;stroke-linecap:butt;stroke-linejoin:miter;stroke-opacity:1"
             d="m 370.72974,568.31073 h 51.99418"
             id="path3878-17" />
          <path
             style="fill:none;stroke:#000000;stroke-width:0.99776226;stroke-linecap:butt;stroke-linejoin:miter;stroke-opacity:1"
             d="M 371.23826,620.362 H 423"
             id="path3878-1-1" />
          <path
             style="fill:none;stroke:#000000;stroke-width:1;stroke-linecap:butt;stroke-linejoin:miter;stroke-opacity:1"
             d="M 422.51888,620.43873 V 567.87318"
             id="path3876-7-1" />
          <path
             style="fill:none;stroke:#000000;stroke-width:1;stroke-linecap:butt;stroke-linejoin:miter;stroke-opacity:1"
             d="M 371.21896,672.8973 V 620.33175"
             id="path3876-2" />
          <path
             style="fill:none;stroke:#000000;stroke-width:1;stroke-linecap:butt;stroke-linejoin:miter;stroke-opacity:1"
             d="m 370.72974,620.33175 h 51.99418"
             id="path3878-3" />
          <path
             style="fill:none;stroke:#000000;stroke-width:0.99776226;stroke-linecap:butt;stroke-linejoin:miter;stroke-opacity:1"
             d="M 371.23826,672.38302 H 423"
             id="path3878-1-2" />
          <path
             style="fill:none;stroke:#000000;stroke-width:1;stroke-linecap:butt;stroke-linejoin:miter;stroke-opacity:1"
             d="M 422.51888,672.45975 V 619.8942"
             id="path3876-7-2" />
          <circle
             style="fill:#ffffff;stroke:#000000;stroke-width:1"
             id="circle3573-6"
             r="2.5"
             cy="0"
             cx="0"
             transform="matrix(1.25,0,0,1.25,371.10024,516.26186)" />
          <circle
             style="fill:#ffffff;stroke:#000000;stroke-width:1"
             id="circle3573-61"
             r="2.5"
             cy="0"
             cx="0"
             transform="matrix(1.25,0,0,1.25,371.13763,464.21174)" />
          <circle
             style="fill:#ffffff;stroke:#000000;stroke-width:1"
             id="circle3573-54"
             r="2.5"
             cy="0"
             cx="0"
             transform="matrix(1.25,0,0,1.25,422.47574,568.22447)" />
          <circle
             style="fill:#ffffff;stroke:#000000;stroke-width:1"
             id="circle3573-1"
             r="2.5"
             cy="0"
             cx="0"
             transform="matrix(1.25,0,0,1.25,422.48767,620.31198)" />
          <circle
             style="fill:#ffffff;stroke:#000000;stroke-width:1"
             id="circle3573-3"
             r="2.5"
             cy="0"
             cx="0"
             transform="matrix(1.25,0,0,1.25,371.13763,620.26186)" />
          <circle
             style="fill:#ffffff;stroke:#000000;stroke-width:1"
             id="circle3573-11"
             r="2.5"
             cy="0"
             cx="0"
             transform="matrix(1.25,0,0,1.25,422.45028,672.22447)" />
          <circle
             style="fill:#ffffff;stroke:#000000;stroke-width:1"
             id="circle3573-11-8"
             r="2.5"
             cy="0"
             cx="0"
             transform="matrix(1.25,0,0,1.25,371.10024,672.22447)" />
          <path
             style="fill:none;stroke:#000000;stroke-width:1;stroke-linecap:butt;stroke-linejoin:miter;stroke-opacity:1"
             d="m 315.72974,516.30081 h 51.99418"
             id="path3878-0-7" />
          <circle
             style="fill:#ffffff;stroke:#000000;stroke-width:1"
             id="circle3573-6-4"
             r="2.5"
             cy="0"
             cx="0"
             transform="matrix(1.25,0,0,1.25,313.10024,516.26186)" />
          <path
             style="fill:none;stroke:#000000;stroke-width:1;stroke-linecap:butt;stroke-linejoin:miter;stroke-opacity:1"
             d="m 257.63454,516.30012 h 51.99418"
             id="path3878-0-7-2" />
          <path
             style="fill:none;stroke:#000000;stroke-width:0.98461401;stroke-linecap:butt;stroke-linejoin:miter;stroke-opacity:1"
             d="M 313.16884,512.74103 V 489.362"
             id="path3876-77" />
          <path
             style="fill:none;stroke:#000000;stroke-width:0.9094829px;stroke-linecap:butt;stroke-linejoin:miter;stroke-opacity:1"
             d="M 368.29988,463.93727 252,516.362"
             id="path4263" />
          <circle
             style="fill:#ffffff;stroke:#000000;stroke-width:1"
             id="circle3573-6-4-9-3"
             r="2.5"
             cy="0"
             cx="0"
             transform="matrix(1.25,0,0,1.25,253.93795,516.18708)" />
          <circle
             style="fill:#ffffff;stroke:#000000;stroke-width:1"
             id="circle3573-6-4-9"
             r="2.5"
             cy="0"
             cx="0"
             transform="matrix(1.25,0,0,1.25,313.10024,489.09957)" />
          <path
             style="fill:none;stroke:#000000;stroke-width:1px;stroke-linecap:butt;stroke-linejoin:miter;stroke-opacity:1"
             d="m 423,516.362 -54,54"
             id="path4265" />
          <circle
             style="fill:#ffffff;stroke:#000000;stroke-width:1"
             id="circle3573-2"
             r="2.5"
             cy="0"
             cx="0"
             transform="matrix(1.25,0,0,1.25,371.13763,568.22447)" />
          <path
             style="fill:none;stroke:#000000;stroke-width:1px;stroke-linecap:butt;stroke-linejoin:miter;stroke-opacity:1"
             d="m 422.12485,515.83691 54,-36"
             id="path4589" />
          <circle
             style="fill:#ffffff;stroke:#000000;stroke-width:1"
             id="circle3573"
             r="2.5"
             cy="0"
             cx="0"
             transform="matrix(1.25,0,0,1.25,422.48767,516.26186)" />
          <path
             style="fill:none;stroke:#000000;stroke-width:1.10562158px;stroke-linecap:butt;stroke-linejoin:miter;stroke-opacity:1"
             d="M 425,464.93727 477,476.362"
             id="path4609" />
          <circle
             style="fill:#ffffff;stroke:#000000;stroke-width:1"
             id="circle3573-5-9"
             r="2.5"
             cy="0"
             cx="0"
             transform="matrix(1.25,0,0,1.25,477.02314,477.58721)" />
          <circle
             style="fill:#ffffff;stroke:#000000;stroke-width:1"
             id="circle3573-5"
             r="2.5"
             cy="0"
             cx="0"
             transform="matrix(1.25,0,0,1.25,422.41289,464.26186)" />
        </g>
        <g
           id="g3503"
           transform="matrix(1.25,0,0,1.25,261,444.112)">
          <title
             id="title3505">Point Load = 65 kN</title>
          <path
             id="path3507"
             d="m 1.5841584,-47.98218 v 23"
             class="cload"
             style="fill:none;stroke:#000000;stroke-width:0.80000001;marker-end:url(#CLArrowEnd)" />
          <g
             style="stroke-width:0.80000001"
             transform="translate(95.38218,77.00396)"
             id="use90">
            <path
               style="fill:#000000;stroke:#000000;stroke-width:0.80000001"
               id="path5224"
               d="M 0,0 4,6 H -4 Z" />
            <path
               style="fill:none;stroke:#000000;stroke-width:0.80000001"
               id="path5226"
               d="M -6,6 H 6" />
            <path
               style="fill:none;stroke:#000000;stroke-width:0.80000001"
               id="path5228"
               d="M 6,6 3,9 M 3,6 0,9 M 0,6 -3,9 m 0,-3 -3,3 m 0,-3 -3,3" />
          </g>
          <g
             style="stroke-width:1"
             id="g3395"
             transform="matrix(0.8,0,0,0.8,30.683528,-193.28829)">
            <path
               style="fill:#000000;stroke:#000000;stroke-width:1"
               id="path5224-5"
               d="m 132.30977,337.64131 5,7.5 h -10 z" />
            <path
               style="fill:none;stroke:#000000;stroke-width:1"
               id="path5226-4"
               d="m 124.80977,352.22885 h 15" />
            <path
               style="fill:none;stroke:#000000;stroke-width:1"
               id="path5228-7"
               d="m 139.80977,352.22885 -3.75,3.75 m 0,-3.75 -3.75,3.75 m 0,-3.75 -3.75,3.75 m 0,-3.75 -3.75,3.75 m 0,-3.75 -3.75,3.75" />
            <path
               style="fill:none;stroke:#000000;stroke-width:1;stroke-linecap:butt;stroke-linejoin:miter;stroke-opacity:1"
               d="m 123.97004,345.62043 h 16.4794"
               id="path3342" />
            <g
               style="stroke-width:1.06622291"
               id="use3513-4"
               transform="matrix(0.93789014,0,0,0.93789014,138.50605,348.88774)">
              <circle
                 cx="0"
                 cy="0"
                 r="2.5"
                 id="circle3573-4"
                 style="fill:#ffffff;stroke:#000000;stroke-width:1.06622291" />
            </g>
            <g
               style="stroke-width:1.06622291"
               id="use3513-4-3"
               transform="matrix(0.93789014,0,0,0.93789014,132.64559,348.94766)">
              <circle
                 cx="0"
                 cy="0"
                 r="2.5"
                 id="circle3573-4-0"
                 style="fill:#ffffff;stroke:#000000;stroke-width:1.06622291" />
            </g>
            <g
               style="stroke-width:1.06622291"
               id="use3513-4-7"
               transform="matrix(0.93789014,0,0,0.93789014,126.80899,348.94766)">
              <circle
                 cx="0"
                 cy="0"
                 r="2.5"
                 id="circle3573-4-8"
                 style="fill:#ffffff;stroke:#000000;stroke-width:1.06622291" />
            </g>
          </g>
        </g>
      </g>
    </g>
    <path
       transform="translate(0,62.362)"
       id="path3077"
       d="m 260.79151,295.91337 c -0.14651,-0.23706 11.44196,-5.7137 25.75217,-12.17031 24.06407,-10.85743 26.08366,-11.68037 26.88507,-10.95511 0.47657,0.4313 1.12743,0.78417 1.44633,0.78417 0.42352,0 0.57983,2.63754 0.57983,9.7836 0,9.67113 -0.0128,9.78922 -1.11386,10.27228 -0.61262,0.26877 -1.33377,0.98992 -1.60254,1.60254 l -0.48868,1.11386 h -25.59596 c -14.07778,0 -25.71584,-0.19396 -25.86236,-0.43103 z"
       style="fill:#e9afaf;fill-opacity:1;fill-rule:nonzero;stroke:none;stroke-width:0.75;stroke-linecap:butt;stroke-linejoin:miter;stroke-miterlimit:4;stroke-dasharray:none;stroke-dashoffset:0;stroke-opacity:1" />
    <path
       transform="translate(0,62.362)"
       id="path3079"
       d="m 319.65326,295.32412 c -0.17811,-0.56115 -0.86144,-1.26522 -1.51851,-1.56461 l -1.19469,-0.54433 v -9.82153 c 0,-6.21765 0.18165,-9.82153 0.49505,-9.82153 0.27228,0 0.97704,-0.48198 1.56614,-1.07108 l 1.07108,-1.07109 24.79525,12.42943 24.79525,12.42944 -24.84287,0.0278 c -24.66502,0.0276 -24.8452,0.0205 -25.1667,-0.99249 z"
       style="fill:#e9afaf;fill-opacity:1;fill-rule:nonzero;stroke:none;stroke-width:0.75;stroke-linecap:butt;stroke-linejoin:miter;stroke-miterlimit:4;stroke-dasharray:none;stroke-dashoffset:0;stroke-opacity:1" />
    <path
       transform="translate(0,62.362)"
       id="path3081"
       d="m 344.99904,282.18991 c -13.83737,-6.93836 -25.0847,-12.83764 -24.99408,-13.1095 0.0906,-0.27187 11.4121,-5.57255 25.15884,-11.77929 24.88414,-11.23535 24.9968,-11.28006 25.6109,-10.16475 0.33924,0.61613 1.06325,1.26193 1.60891,1.43512 0.97337,0.30894 0.9921,0.7347 0.9921,22.55875 0,18.56355 -0.11284,22.24386 -0.68196,22.24386 -0.37508,0 -0.95929,0.33416 -1.29824,0.74258 -0.33896,0.40841 -0.75609,0.73039 -0.92695,0.7155 -0.17087,-0.0149 -11.63216,-5.70391 -25.46952,-12.64227 z"
       style="fill:#e9afaf;fill-opacity:1;fill-rule:nonzero;stroke:none;stroke-width:0.75;stroke-linecap:butt;stroke-linejoin:miter;stroke-miterlimit:4;stroke-dasharray:none;stroke-dashoffset:0;stroke-opacity:1" />
    <path
       transform="translate(0,62.362)"
       id="path3083"
       d="m 426.96481,293.54129 c -0.48266,-0.19476 -0.61278,-5.11462 -0.59142,-22.36191 l 0.0274,-22.11221 1.4133,-1.11469 1.41329,-1.11469 22.69298,4.96908 c 12.48114,2.73299 23.02714,5.0698 23.43555,5.19292 0.40842,0.12312 0.76182,0.72776 0.78534,1.34364 0.0235,0.61588 0.20922,1.49609 0.41269,1.95601 0.30319,0.68533 -4.05879,3.78962 -24.17268,17.20297 -13.49844,9.00171 -24.6,16.34916 -24.67012,16.32766 -0.0701,-0.0215 -0.40597,-0.15145 -0.74632,-0.28878 z"
       style="fill:#c8b7b7;fill-opacity:1;fill-rule:nonzero;stroke:none" />
    <path
       transform="translate(0,62.362)"
       id="path3085"
       d="m 426.96481,449.45311 c -0.79356,-0.28331 -0.91654,-44.69287 -0.12376,-44.69287 1.11826,0 2.47525,-2.03549 2.47525,-3.71287 0,-1.67738 -1.35699,-3.71287 -2.47525,-3.71287 -0.3227,0 -0.49505,-7.75578 -0.49505,-22.27723 0,-14.52145 0.17235,-22.27723 0.49505,-22.27723 1.11826,0 2.47525,-2.03549 2.47525,-3.71287 0,-1.67738 -1.35699,-3.71287 -2.47525,-3.71287 -0.32267,0 -0.49505,-7.72928 -0.49505,-22.19776 v -22.19777 l 1.22397,-0.55767 c 1.29434,-0.58974 1.94043,-2.19883 1.65834,-4.13011 -0.1517,-1.03856 2.49402,-2.94449 24.51252,-17.65851 13.57542,-9.07187 24.77638,-16.4005 24.89102,-16.28586 0.20817,0.20817 -50.01584,185.03686 -50.69146,186.54893 -0.19622,0.43916 -0.63523,0.69906 -0.97558,0.57756 z"
       style="fill:#c8b7b7;fill-opacity:1;fill-rule:nonzero;stroke:none" />
    <path
       transform="translate(0,62.362)"
       id="path3087"
       d="m 377.83115,347.45627 c 0,-0.97556 45.4424,-46.65642 46.41287,-46.65642 0.48328,0 0.61683,4.82352 0.61683,22.27722 0,19.27032 -0.0982,22.27723 -0.72775,22.27723 -0.40026,0 -1.22186,0.66832 -1.82577,1.48515 l -1.09802,1.48515 h -21.68908 c -20.34523,0 -21.68908,-0.0538 -21.68908,-0.86833 z"
       style="fill:#c8b7b7;fill-opacity:1;fill-rule:nonzero;stroke:none" />
    <path
       transform="translate(0,62.362)"
       id="path3089"
       d="m 374.86085,323.11043 c 0,-22.02839 0.01,-22.247 1.02028,-22.56769 0.56115,-0.1781 1.26523,-0.86143 1.56461,-1.5185 l 0.54434,-1.19469 h 21.8925 c 21.00713,0 21.90234,0.0376 22.13578,0.9303 0.18549,0.70933 -5.18106,6.35371 -22.59275,23.76238 -12.6778,12.6756 -23.22053,22.83207 -23.70039,22.83207 -0.80963,0 -0.86437,-1.40863 -0.86437,-22.24387 z"
       style="fill:#c8b7b7;fill-opacity:1;fill-rule:nonzero;stroke:none" />
    <path
       transform="translate(0,62.362)"
       id="path3091"
       d="m 377.57725,399.19094 c -0.26877,-0.61263 -0.98991,-1.33377 -1.60253,-1.60254 l -1.11387,-0.48868 v -22.11858 c 0,-17.23948 0.13651,-22.17043 0.61882,-22.35363 0.34247,-0.13008 10.92627,10.04755 23.70039,22.79083 17.60917,17.56669 23.02389,23.24644 22.8383,23.95617 -0.23343,0.89263 -1.12798,0.93029 -22.09785,0.93029 h -21.85458 z"
       style="fill:#c8b7b7;fill-opacity:1;fill-rule:nonzero;stroke:none" />
    <path
       transform="translate(0,62.362)"
       id="path3093"
       d="m 400.2076,374.41394 c -17.42218,-17.42521 -22.83914,-23.1224 -22.59355,-23.76238 0.29724,-0.77462 2.05011,-0.84181 21.95915,-0.84181 h 21.63611 l 1.09802,1.48515 c 0.60391,0.81683 1.42551,1.48514 1.82577,1.48514 0.62952,0 0.72775,3.00692 0.72775,22.27723 0,20.90589 -0.0535,22.27723 -0.86833,22.27723 -0.48526,0 -10.97805,-10.11147 -23.78492,-22.92056 z"
       style="fill:#c8b7b7;fill-opacity:1;fill-rule:nonzero;stroke:none" />
    <path
       transform="translate(0,62.362)"
       id="path3095"
       d="m 374.86085,427.15486 v -22.15984 l 1.11387,-0.48867 c 0.61262,-0.26878 1.33376,-0.98992 1.60253,-1.60254 l 0.48868,-1.11386 h 21.64737 c 20.41333,0 21.67481,0.0513 22.12873,0.89943 0.40962,0.76536 -2.92712,4.30733 -22.38554,23.76237 -12.69539,12.69319 -23.25139,22.86295 -23.73127,22.86295 -0.80958,0 -0.86437,-1.40456 -0.86437,-22.15984 z"
       style="fill:#c8b7b7;fill-opacity:1;fill-rule:nonzero;stroke:none" />
    <path
       transform="translate(0,62.362)"
       id="path3097"
       d="m 377.6816,451.61921 c -0.28483,-0.74223 45.54004,-46.85897 46.5624,-46.85897 0.4833,0 0.61685,4.82312 0.61685,22.27723 0,19.27032 -0.0982,22.27723 -0.72775,22.27723 -0.40026,0 -1.22186,0.66832 -1.82577,1.48515 l -1.09802,1.48515 H 399.5732 c -17.66632,0 -21.683,-0.12216 -21.8916,-0.66579 z"
       style="fill:#c8b7b7;fill-opacity:1;fill-rule:nonzero;stroke:none" />
    <text
       id="text3099"
       y="383.55011"
       x="267.1485"
       style="font-style:normal;font-variant:normal;font-weight:normal;font-stretch:normal;line-height:0%;font-family:Verdana;-inkscape-font-specification:Sans;text-align:start;letter-spacing:0px;word-spacing:0px;writing-mode:lr-tb;text-anchor:start;fill:#000000;fill-opacity:1;stroke:none"
       xml:space="preserve"><tspan
         style="font-size:10px;line-height:1.25"
         y="383.55011"
         x="267.1485"
         id="tspan3101">simple truss</tspan></text>
    <path
       transform="translate(0,62.362)"
       id="path3103"
       d="m 342,288 c 9,18 16.18972,29.68433 -9,30"
       style="fill:none;stroke:#000000;stroke-width:0.99000001;stroke-linecap:butt;stroke-linejoin:miter;stroke-miterlimit:4;stroke-dasharray:none;stroke-opacity:1;marker-start:url(#Arrow1Mstart)" />
    <text
       xml:space="preserve"
       style="font-style:normal;font-variant:normal;font-weight:normal;font-stretch:normal;line-height:0%;font-family:Verdana;-inkscape-font-specification:Sans;text-align:start;letter-spacing:0px;word-spacing:0px;writing-mode:lr-tb;text-anchor:start;fill:#000000;fill-opacity:1;stroke:none"
       x="267.1485"
       y="449.55011"
       id="text4325"><tspan
         style="font-size:10px;line-height:1.25"
         id="tspan4327"
         x="267.1485"
         y="449.55011">simple truss</tspan></text>
    <path
       style="fill:none;stroke:#000000;stroke-width:0.99000001;stroke-linecap:butt;stroke-linejoin:miter;stroke-miterlimit:4;stroke-dasharray:none;stroke-opacity:1;marker-start:url(#Arrow1Mstart)"
       d="m 387,440.362 c -27,18 -28.81028,5.68433 -54,6"
       id="path4329" />
    <text
       transform="translate(0,62.362)"
       id="text4331"
       y="251.38614"
       x="515.34656"
       style="font-style:normal;font-variant:normal;font-weight:normal;font-stretch:normal;line-height:0%;font-family:Verdana;-inkscape-font-specification:Sans;text-align:start;letter-spacing:0px;word-spacing:0px;writing-mode:lr-tb;text-anchor:start;fill:#000000;fill-opacity:1;stroke:none"
       xml:space="preserve"><tspan
         style="font-size:10px;line-height:1.25"
         y="251.38614"
         x="515.34656"
         id="tspan4377">compound truss - two simple</tspan><tspan
         style="font-size:10px;line-height:1.25"
         y="263.88614"
         x="515.34656"
         id="tspan4379">trusses connected by joint and</tspan><tspan
         style="font-size:10px;line-height:1.25"
         y="276.38614"
         x="515.34656"
         id="tspan4381">link. Reactions are stable.</tspan><tspan
         style="font-size:10px;line-height:1.25"
         y="288.88614"
         x="515.34656"
         id="tspan4383">Therefore stable.</tspan><tspan
         style="font-size:10px;line-height:1.25"
         y="301.38614"
         x="515.34656"
         id="tspan4385">m = 25</tspan><tspan
         style="font-size:10px;line-height:1.25"
         y="313.88614"
         x="515.34656"
         id="tspan4387">r = 3</tspan><tspan
         style="font-size:10px;line-height:1.25"
         y="326.38614"
         x="515.34656"
         id="tspan4389">j = 14</tspan><tspan
         style="font-size:10px;line-height:1.25"
         y="338.88614"
         x="515.34656"
         id="tspan4391">m + r - 2j = 25 +3 - 2x14 = 0</tspan><tspan
         style="font-size:10px;line-height:1.25"
         y="351.38614"
         x="515.34656"
         id="tspan4393"> </tspan><tspan
         style="font-size:10px;line-height:1.25"
         y="363.88614"
         x="515.34656"
         id="tspan4395">Statically determinate</tspan><tspan
         style="font-size:10px;line-height:1.25"
         y="376.38614"
         x="515.34656"
         id="tspan4397"> °S.I. = 0</tspan></text>
  </g>
</svg>
