<?xml version="1.0" standalone="yes"?>
<!DOCTYPE svg PUBLIC "-//W3C//DTD SVG 1.1//EN" 
  "http://www.w3.org/Graphics/SVG/1.1/DTD/svg11.dtd">
<svg xmlns="http://www.w3.org/2000/svg"
     xmlns:xlink="http://www.w3.org/1999/xlink"
     version="1.1"
     width="8.5in" 
     height="11.0in" 
     viewBox="0 0 612 792">
  <defs>
    <style type="text/css"><![CDATA[
    .elem {
	stroke-width: 2.0;
	stroke: black;
	}
    path.dim {
       stroke-width: 0.5;
       stroke: black;
       }
    path.guides {
       stroke-width: 0.5;
       stroke: grey;
       }
    text.dwglabel {
       font-family: Verdana, Arial;
       font-size: 10px;
       font-weight: bold;
       fill: black;
       text-align: center;
       text-anchor: start;
       }
    text.dim {
       font-family: Verdana, Arial;
       font-size: 8px;
       font-weight: bold;
       fill: black;
       text-align: center;
       text-anchor: middle;
       }
    text.guides {
       font-family: Verdana, Arial;
       font-size: 8px;
       font-weight: normal;
       font-style: italic;
       fill: black;
       text-align: center;
       text-anchor: middle;
       }
    text.vmlabel {
       font-family: Verdana, Arial;
       font-size: 8px;
       font-style: italic;
       fill: black;
       }
    text.notes {
       font-family: Verdana, Arial;
       font-size: 9px;
       font-weight: normal;
       font-style: italic;
       fill: black;
       text-align: center;
       text-anchor: left;
       }
    text.ptlabel {
       font-family: Verdana, Arial;
       font-size: 7px;
       font-style: italic;
       fill: black;
       text-align: center;
       text-anchor: start;
       }
     path.cload {
       fill: none;
       stroke-width: 1;
       stroke: black; 
       marker-end: url(#CLArrowEnd);
     }
      path.mload {
       fill: none;
       stroke-width: 1;
       stroke: black; 
       marker-end: url(#MLArrowEnd);
     }
      path.mloadInkscape {
       fill: none;
       stroke-width: 1;
       stroke: black; 
       marker-end: url(#MLArrowStart);
     }
     polygon.dload {
       fill: rgb(240,240,240);
       opacity: 0.5; /* if < 1, REALLY slows down printing of the pdfs */
       stroke-width: 1;
       stroke: black; 
     }
     path.dload {
       fill: none;
       stroke-width: 1;
       stroke: black; 
       marker-end: url(#DLArrowEnd);
     }
     path.dloadna {
       fill: none;
       stroke-width: 1;
       stroke: black; 
     }
     path.vdiag {
       fill: url(#crosshatch45);
       stroke-width: 1;
       stroke: black; 
     }
     path.mdiag {
       fill: url(#crosshatch45);
       stroke-width: 1;
       stroke: black; 
     }

    ]]></style>
    <g id="PinnedSupport" transform="translate(0,1.0)">
      <path d="M 0 0 l 4 6 l -8 0 z" 
	    stroke="black" stroke-width="0" fill="black" opacity="1.0" />
      <path d="M -6 6 l 12 0" 
	    stroke="black" stroke-width="1" fill="none" />
      <path d="M 6 6 l -3 3 m 0 -3 l -3 3 m 0 -3 l -3 3 m 0 -3 l -3 3 m 0 -3 l -3 3"
	    stroke="black" stroke-width="1" fill="none" />
    </g>
    <g id="RollerSupport" transform="translate(0,1.0)">
      <circle cx="0" cy="3" r="3"
	    stroke="black" stroke-width="0" fill="black" opacity="1.0" />
      <path d="M -6 6 l 12 0" 
	    stroke="black" stroke-width="1" fill="none" />
      <path d="M 6 6 l -3 3 m 0 -3 l -3 3 m 0 -3 l -3 3 m 0 -3 l -3 3 m 0 -3 l -3 3"
	    stroke="black" stroke-width="1" fill="none" />
    </g>
    <g id="LFixedSupport" transform="translate(-0.5,0)">
      <path d="M 0 -6 l 0 12"
	    stroke="black" stroke-width="1" fill="none" />
      <path d="M 0 -6 l -3 3 m 3 0 l -3 3 m 3 0 l -3 3 m 3 0 l -3 3 m 3 0 l -3 3"
	    stroke="black" stroke-width="1" fill="none" />
    </g>
    <g id="RFixedSupport">
      <use xlink:href="#LFixedSupport" transform="scale(-1,1)"/>
    </g>
    <g id="Hinge">
      <circle cx="0" cy="0" r="2.5"
	      stroke="black" stroke-width="1" fill="white"/>
    </g>
    <g id="ShearRelease">
      <rect x="-3" y="-6" width="6" height="12"
	    stroke="none" fill="white"/>
      <circle cx="0" cy="-6" r="2" stroke="black" strokewidth="0.5" fill="white"/>
      <circle cx="0" cy="0" r="2" stroke="black" strokewidth="0.5" fill="white"/>
      <circle cx="0" cy="6" r="2" stroke="black" strokewidth="0.5" fill="white"/>
      <path d="M -3 -9 l 0 18 M 3 -9 l 0 18" stroke="black" stroke-width="1"/>
    </g>
    <marker id="DLArrowStart"
	    markerUnits="userSpaceOnUse"
	    markerWidth="8"
	    markerHeight="4"
	    orient="auto"
	    viewBox="0 0 8 4"
	    refX="0"
	    refY="2">
      <path d="M 0 2 l 8 -2 l 0 4 z"/>
    </marker>
    <marker id="DLArrowEnd"
	    markerUnits="userSpaceOnUse"
	    markerWidth="8"
	    markerHeight="4"
	    orient="auto"
	    viewBox="0 0 8 4"
	    refX="8"
	    refY="2">
      <path d="M 0 0 l 8 2 l -8 2 z"/>
    </marker>
    <marker id="CLArrowStart"
	    markerUnits="userSpaceOnUse"
	    markerWidth="10.0"
	    markerHeight="6"
	    orient="auto"
	    viewBox="0 0 10 6"
	    refX="3.0"
	    refY="3">
      <path d="M 0 3 l 10 -3 l -2 3 l 2 3 z"/>
    </marker>
    <marker id="CLArrowEnd"
	    markerUnits="userSpaceOnUse"
	    markerWidth="10.0"
	    markerHeight="6"
	    orient="auto"
	    viewBox="0 0 10 6"
	    refX="7.0"
	    refY="3">
      <path d="M 0 0 l 10 3 l -10 3 l 2 -3 z"/>
    </marker>
    <marker id="MLArrowStart"
	    markerUnits="userSpaceOnUse"
	    markerWidth="10.0"
	    markerHeight="6"
	    orient="auto"
	    viewBox="0 0 10 6"
	    refX="8"
	    refY="3">
      <path d="M 10 0 l -10 3 l 10 3 l -2 -3 z"/>
    </marker>
    <marker id="MLArrowEnd"
	    markerUnits="userSpaceOnUse"
	    markerWidth="10.0"
	    markerHeight="6"
	    orient="auto"
	    viewBox="0 0 10 6"
	    refX="2"
	    refY="3">
      <path d="M 0 0 l 10 3 l -10 3 l 2 -3 z"/>
    </marker>
    <pattern id="crosshatch45" patternUnits="userSpaceOnUse"
             x="0" y="0" width="10" height="10"
	     viewBox="0 0 10 10">
       <path d="M 0 0 L 10 10" fill="none" stroke="grey" stroke-width="0.2"/>
    </pattern>


  </defs>

<g transform="translate(72.0,122.0)">
  <title>Beam! Length = 30.1</title>
  <path class="elem" d="M 0 0 l 360.0 0"/>
  <g transform="translate(23.9,0.0)">
    <title>UD Load 27 kN/m</title>
    <polygon points="0,0 0,-12.0 336.1,-12.0 336.1,0" class="dload"/>
    <path class="dload" d="M 0.0 -12.0 L 0.0 -1.0"/>
    <path class="dload" d="M 25.9 -12.0 L 25.9 -1.0"/>
    <path class="dload" d="M 51.7 -12.0 L 51.7 -1.0"/>
    <path class="dload" d="M 77.6 -12.0 L 77.6 -1.0"/>
    <path class="dload" d="M 103.4 -12.0 L 103.4 -1.0"/>
    <path class="dload" d="M 129.3 -12.0 L 129.3 -1.0"/>
    <path class="dload" d="M 155.1 -12.0 L 155.1 -1.0"/>
    <path class="dload" d="M 181.0 -12.0 L 181.0 -1.0"/>
    <path class="dload" d="M 206.8 -12.0 L 206.8 -1.0"/>
    <path class="dload" d="M 232.7 -12.0 L 232.7 -1.0"/>
    <path class="dload" d="M 258.5 -12.0 L 258.5 -1.0"/>
    <path class="dload" d="M 284.4 -12.0 L 284.4 -1.0"/>
    <path class="dload" d="M 310.2 -12.0 L 310.2 -1.0"/>
    <path class="dload" d="M 336.1 -12.0 L 336.1 -1.0"/>
    <text style="text-anchor: middle;" dx="0.0" dy="-2.0" y="-12.0" x="168.0" class="dim">27</text>
  </g>
  <g transform="translate(0.0,-1.0)">
    <title>Point Load = 60 kN</title>
    <path class="cload" d="M 0 -26.0 l 0 23.0"/>
    <text y="-26.0" x="0" class="dim" dy="-3.0">60</text>
  </g>
  <use y="0" x="23.9" xlink:href="#RollerSupport"/>
  <use y="0" x="101.7" xlink:href="#Hinge"/>
  <use y="0" x="120.8" xlink:href="#RollerSupport"/>
  <use y="0" x="228.4" xlink:href="#Hinge"/>
  <use y="0" x="252.4" xlink:href="#RollerSupport"/>
  <use y="0" x="348.0" xlink:href="#PinnedSupport"/>
  <path class="dim" d="M 101.7 10.0 l 0 25.0"/>
  <path class="dim" d="M 23.9 30.0 l 77.7 0"/>
  <path class="dim" d="M 23.9 30.0 m -3.0 3.0 l 6.0 -6.0"/>
  <path class="dim" d="M 101.7 30.0 m -3.0 3.0 l 6.0 -6.0"/>
  <text y="30.0" x="62.8" class="dim" dy="-3.0">6.5</text>
  <path class="dim" d="M 228.4 10.0 l 0 25.0"/>
  <path class="dim" d="M 120.8 30.0 l 107.6 0"/>
  <path class="dim" d="M 120.8 30.0 m -3.0 3.0 l 6.0 -6.0"/>
  <path class="dim" d="M 228.4 30.0 m -3.0 3.0 l 6.0 -6.0"/>
  <text y="30.0" x="174.6" class="dim" dy="-3.0">9</text>
  <path class="dim" d="M 0.0 10.0 l 0 40.0"/>
  <path class="dim" d="M 23.9 10.0 l 0 40.0"/>
  <path class="dim" d="M 0.0 45.0 l 23.9 0"/>
  <path class="dim" d="M 0.0 45.0 m -3.0 3.0 l 6.0 -6.0"/>
  <path class="dim" d="M 23.9 45.0 m -3.0 3.0 l 6.0 -6.0"/>
  <text y="45.0" x="12.0" class="dim" dy="-3.0">2</text>
  <path class="dim" d="M 120.8 10.0 l 0 40.0"/>
  <path class="dim" d="M 23.9 45.0 l 96.9 0"/>
  <path class="dim" d="M 120.8 45.0 m -3.0 3.0 l 6.0 -6.0"/>
  <text y="45.0" x="72.4" class="dim" dy="-3.0">8.1</text>
  <path class="dim" d="M 252.4 10.0 l 0 40.0"/>
  <path class="dim" d="M 120.8 45.0 l 131.6 0"/>
  <path class="dim" d="M 252.4 45.0 m -3.0 3.0 l 6.0 -6.0"/>
  <text y="45.0" x="186.6" class="dim" dy="-3.0">11</text>
  <path class="dim" d="M 348.0 10.0 l 0 40.0"/>
  <path class="dim" d="M 252.4 45.0 l 95.7 0"/>
  <path class="dim" d="M 348.0 45.0 m -3.0 3.0 l 6.0 -6.0"/>
  <text y="45.0" x="300.2" class="dim" dy="-3.0">8</text>
  <path class="dim" d="M 360.0 10.0 l 0 40.0"/>
  <path class="dim" d="M 348.0 45.0 l 12.0 0"/>
  <path class="dim" d="M 360.0 45.0 m -3.0 3.0 l 6.0 -6.0"/>
  <text y="45.0" x="354.0" class="dim" dy="-3.0">1</text>
  <text y="17.0" x="0.0" class="ptlabel" dx="1.0">a</text>
  <text y="17.0" x="23.9" class="ptlabel" dx="1.0">b</text>
  <text y="17.0" x="101.7" class="ptlabel" dx="1.0">c</text>
  <text y="17.0" x="120.8" class="ptlabel" dx="1.0">d</text>
  <text y="17.0" x="228.4" class="ptlabel" dx="1.0">e</text>
  <text y="17.0" x="252.4" class="ptlabel" dx="1.0">f</text>
  <text y="17.0" x="348.0" class="ptlabel" dx="1.0">g</text>
  <text y="17.0" x="360.0" class="ptlabel" dx="1.0">h</text>
  <text y="-56.0" x="0" xml:space="preserve" class="notes">Units are m, kN;       Difficulty Level = 7</text>
  <g id="fbd-guides" visibility="visible" transform="translate(0.0,0.0)">
    <path class="guides" d="M 0.0 51.0 L 0.0 186.0 M 23.9 51.0 L 23.9 186.0 M 101.7 51.0 L 101.7 186.0 M 120.8 51.0 L 120.8 186.0 M 228.4 51.0 L 228.4 186.0 M 252.4 51.0 L 252.4 186.0 M 348.0 51.0 L 348.0 186.0 M 360.0 51.0 L 360.0 186.0"/>
  </g>
  <g id="beam-fb-diagram" visibility="visible" transform="translate(0.0,144.0)">
    <title>Free Body Diagram</title>
    <path class="elem" d="M 0 0 l 360.0 0"/>
    <g transform="translate(23.9,0.0)">
      <title>UD Load 27 kN/m</title>
      <polygon points="0,0 0,-12.0 336.1,-12.0 336.1,0" class="dload"/>
      <path class="dload" d="M 0.0 -12.0 L 0.0 -1.0"/>
      <path class="dload" d="M 25.9 -12.0 L 25.9 -1.0"/>
      <path class="dload" d="M 51.7 -12.0 L 51.7 -1.0"/>
      <path class="dload" d="M 77.6 -12.0 L 77.6 -1.0"/>
      <path class="dload" d="M 103.4 -12.0 L 103.4 -1.0"/>
      <path class="dload" d="M 129.3 -12.0 L 129.3 -1.0"/>
      <path class="dload" d="M 155.1 -12.0 L 155.1 -1.0"/>
      <path class="dload" d="M 181.0 -12.0 L 181.0 -1.0"/>
      <path class="dload" d="M 206.8 -12.0 L 206.8 -1.0"/>
      <path class="dload" d="M 232.7 -12.0 L 232.7 -1.0"/>
      <path class="dload" d="M 258.5 -12.0 L 258.5 -1.0"/>
      <path class="dload" d="M 284.4 -12.0 L 284.4 -1.0"/>
      <path class="dload" d="M 310.2 -12.0 L 310.2 -1.0"/>
      <path class="dload" d="M 336.1 -12.0 L 336.1 -1.0"/>
      <text style="text-anchor: middle;" dx="0.0" dy="-2.0" y="-12.0" x="168.0" class="dim">27</text>
    </g>
    <g transform="translate(0.0,-1.0)">
      <title>Point Load = 60 kN</title>
      <path class="cload" d="M 0 -29.2 l 0 26.2"/>
      <text y="-29.2" x="0" class="dim" dy="-3.0">60</text>
    </g>
    <g transform="translate(23.9,1.0)">
      <title>Point Load = -166.212 kN</title>
      <path class="cload" d="M 0 34.9 l 0 -31.9"/>
      <text y="34.9" x="0" class="dim" dy="8.0">166.2</text>
    </g>
    <g transform="translate(120.8,1.0)">
      <title>Point Load = -250.146 kN</title>
      <path class="cload" d="M 0 39.4 l 0 -36.4"/>
      <text y="39.4" x="0" class="dim" dy="8.0">250.1</text>
    </g>
    <g transform="translate(252.4,1.0)">
      <title>Point Load = -298.74 kN</title>
      <path class="cload" d="M 0 42.0 l 0 -39.0"/>
      <text y="42.0" x="0" class="dim" dy="8.0">298.7</text>
    </g>
    <g transform="translate(348.0,1.0)">
      <title>Point Load = -103.602 kN</title>
      <path class="cload" d="M 0 31.5 l 0 -28.5"/>
      <text y="31.5" x="0" class="dim" dy="8.0">103.6</text>
    </g>
    <text x="360.0" y="0" class="dwglabel" dx="18.0">FBD [m,kN]</text>
  </g>
</g>

</svg>
