<?xml version="1.0" encoding="UTF-8" standalone="no"?>
<!-- Created with Inkscape (http://www.inkscape.org/) -->

<svg
   xmlns:ns0="http://www.iki.fi/pav/software/textext/"
   xmlns:dc="http://purl.org/dc/elements/1.1/"
   xmlns:cc="http://creativecommons.org/ns#"
   xmlns:rdf="http://www.w3.org/1999/02/22-rdf-syntax-ns#"
   xmlns:svg="http://www.w3.org/2000/svg"
   xmlns="http://www.w3.org/2000/svg"
   xmlns:xlink="http://www.w3.org/1999/xlink"
   xmlns:sodipodi="http://sodipodi.sourceforge.net/DTD/sodipodi-0.dtd"
   xmlns:inkscape="http://www.inkscape.org/namespaces/inkscape"
   width="405"
   height="271.37537"
   id="svg2"
   version="1.1"
   inkscape:version="0.92.4 (unknown)"
   sodipodi:docname="frame2-3.svg">
  <sodipodi:namedview
     id="base"
     pagecolor="#ffffff"
     bordercolor="#666666"
     borderopacity="1.0"
     inkscape:pageopacity="0.0"
     inkscape:pageshadow="2"
     inkscape:zoom="2.02"
     inkscape:cx="240.75836"
     inkscape:cy="101.3486"
     inkscape:document-units="in"
     inkscape:current-layer="layer1"
     showgrid="true"
     units="in"
     inkscape:window-width="1179"
     inkscape:window-height="979"
     inkscape:window-x="346"
     inkscape:window-y="38"
     inkscape:window-maximized="0"
     showguides="true"
     fit-margin-top="0.1"
     fit-margin-right="0.1"
     fit-margin-left="0.1"
     fit-margin-bottom="0.1"
     inkscape:snap-grids="true">
    <inkscape:grid
       type="xygrid"
       id="grid2985"
       empspacing="5"
       visible="true"
       enabled="true"
       snapvisiblegridlinesonly="true"
       units="in"
       spacingx="9"
       spacingy="9"
       originx="0"
       originy="0" />
    <sodipodi:guide
       position="-182.05044,-632.12256"
       orientation="0,765"
       id="guide3042"
       inkscape:locked="false" />
    <sodipodi:guide
       position="582.94956,-632.12256"
       orientation="-990,0"
       id="guide3044"
       inkscape:locked="false" />
    <sodipodi:guide
       position="582.94956,357.87744"
       orientation="0,-765"
       id="guide3046"
       inkscape:locked="false" />
    <sodipodi:guide
       position="-182.05044,357.87744"
       orientation="990,0"
       id="guide3048"
       inkscape:locked="false" />
    <sodipodi:guide
       position="537.94956,-587.12256"
       orientation="0,765"
       id="guide3050"
       inkscape:locked="false" />
    <sodipodi:guide
       position="537.94956,267.87744"
       orientation="-990,0"
       id="guide3052"
       inkscape:locked="false" />
    <sodipodi:guide
       position="-119.05044,267.87744"
       orientation="0,-765"
       id="guide3054"
       inkscape:locked="false" />
    <sodipodi:guide
       position="-92.05044,294.87744"
       orientation="990,0"
       id="guide3056"
       inkscape:locked="false" />
  </sodipodi:namedview>
  <script
     xlink:href=""
     id="script3033" />
  <defs
     id="defs4">
    <marker
       inkscape:stockid="Arrow1Lstart"
       orient="auto"
       refY="0.0"
       refX="0.0"
       id="Arrow1Lstart"
       style="overflow:visible">
      <path
         id="path4783"
         d="M 0.0,0.0 L 5.0,-5.0 L -12.5,0.0 L 5.0,5.0 L 0.0,0.0 z "
         style="fill-rule:evenodd;stroke:#000000;stroke-width:1.0pt;marker-start:none"
         transform="scale(0.8) translate(12.5,0)" />
    </marker>
    <marker
       style="overflow:visible"
       id="Arrow1Mstart"
       refX="0.0"
       refY="0.0"
       orient="auto"
       inkscape:stockid="Arrow1Mstart">
      <path
         transform="scale(0.4) translate(10,0)"
         style="fill-rule:evenodd;stroke:#000000;stroke-width:1.0pt;marker-start:none"
         d="M 0.0,0.0 L 5.0,-5.0 L -12.5,0.0 L 5.0,5.0 L 0.0,0.0 z "
         id="path4789" />
    </marker>
    <marker
       inkscape:stockid="Arrow1Mend"
       orient="auto"
       refY="0"
       refX="0"
       id="Arrow1Mend"
       style="overflow:visible">
      <path
         id="path3952"
         d="M 0,0 5,-5 -12.5,0 5,5 0,0 z"
         style="fill-rule:evenodd;stroke:#000000;stroke-width:1pt;marker-start:none"
         transform="matrix(-0.4,0,0,-0.4,-4,0)"
         inkscape:connector-curvature="0" />
    </marker>
    <marker
       style="overflow:visible"
       id="DimensionTick"
       refX="0"
       refY="0"
       orient="auto"
       inkscape:stockid="DimensionTick">
      <path
         id="path3934"
         transform="translate(-4,-4)"
         style="stroke:#000000;stroke-width:1pt;marker-start:none"
         d="M 0,0 8,8"
         inkscape:connector-curvature="0" />
    </marker>
    <marker
       refY="3"
       refX="2"
       viewBox="0 0 10 6"
       orient="auto"
       markerHeight="6"
       markerWidth="10"
       markerUnits="userSpaceOnUse"
       id="MLArrowEnd">
      <path
         inkscape:connector-curvature="0"
         id="path3454"
         d="M 0,0 10,3 0,6 2,3 z" />
    </marker>
  </defs>
  <metadata
     id="metadata7">
    <rdf:RDF>
      <cc:Work
         rdf:about="">
        <dc:format>image/svg+xml</dc:format>
        <dc:type
           rdf:resource="http://purl.org/dc/dcmitype/StillImage" />
        <dc:title />
        <cc:license
           rdf:resource="http://creativecommons.org/licenses/by-nc/3.0/" />
      </cc:Work>
      <cc:License
         rdf:about="http://creativecommons.org/licenses/by-nc/3.0/">
        <cc:permits
           rdf:resource="http://creativecommons.org/ns#Reproduction" />
        <cc:permits
           rdf:resource="http://creativecommons.org/ns#Distribution" />
        <cc:requires
           rdf:resource="http://creativecommons.org/ns#Notice" />
        <cc:requires
           rdf:resource="http://creativecommons.org/ns#Attribution" />
        <cc:prohibits
           rdf:resource="http://creativecommons.org/ns#CommercialUse" />
        <cc:permits
           rdf:resource="http://creativecommons.org/ns#DerivativeWorks" />
      </cc:License>
    </rdf:RDF>
  </metadata>
  <g
     inkscape:label="Layer 1"
     inkscape:groupmode="layer"
     id="layer1"
     transform="translate(-182.05044,-148.86409)">
    <path
       transform="translate(182.05044,148.86409)"
       inkscape:connector-curvature="0"
       id="path3607"
       d="m 261,226.37537 -27,-180.000004 27,0 z"
       style="fill:#e6e6e6;stroke:#000000;stroke-width:1;stroke-linecap:square;stroke-linejoin:miter;stroke-miterlimit:4;stroke-opacity:1;stroke-dasharray:none;stroke-dashoffset:0" />
    <path
       transform="translate(182.05044,148.86409)"
       inkscape:connector-curvature="0"
       id="path3609"
       d="m 261,19.375366 0,27 135,0 z"
       style="fill:#e6e6e6;fill-opacity:1;fill-rule:nonzero;stroke:#000000;stroke-width:1;stroke-linecap:square;stroke-linejoin:miter;stroke-miterlimit:4;stroke-opacity:1;stroke-dasharray:none;stroke-dashoffset:0" />
    <path
       style="fill:none;stroke:#000000;stroke-width:3;stroke-linecap:square;stroke-linejoin:miter;stroke-miterlimit:4;stroke-opacity:1;stroke-dasharray:none;stroke-dashoffset:0"
       d="m 227,375.3818 0,-180 135,0"
       id="path3973"
       inkscape:connector-curvature="0"
       sodipodi:nodetypes="ccc" />
    <text
       xml:space="preserve"
       style="font-style:normal;font-variant:normal;font-weight:normal;font-stretch:normal;line-height:0%;font-family:Verdana;-inkscape-font-specification:Sans;text-align:start;letter-spacing:0px;word-spacing:0px;writing-mode:lr-tb;text-anchor:start;fill:#000000;fill-opacity:1;stroke:none"
       x="284.14261"
       y="210.2549"
       id="text3112"><tspan
         sodipodi:role="line"
         id="tspan3114"
         x="284.14261"
         y="210.2549"
         style="font-size:11px;line-height:1.25">2EI<tspan
   style="font-size:65.00091553%;baseline-shift:sub"
   id="tspan3122">0</tspan></tspan></text>
    <text
       xml:space="preserve"
       style="font-style:normal;font-variant:normal;font-weight:normal;font-stretch:normal;line-height:0%;font-family:Verdana;-inkscape-font-specification:Sans;text-align:start;letter-spacing:0px;word-spacing:0px;writing-mode:lr-tb;text-anchor:start;fill:#000000;fill-opacity:1;stroke:none"
       x="233.0349"
       y="288.66675"
       id="text3116"><tspan
         sodipodi:role="line"
         id="tspan3118"
         x="233.0349"
         y="288.66675"
         style="font-size:11px;line-height:1.25">EI<tspan
   style="font-size:65.00091553%;baseline-shift:sub"
   id="tspan3120">0</tspan></tspan></text>
    <path
       style="fill:none;stroke:#4d4d4d;stroke-width:0.75;stroke-linecap:square;stroke-linejoin:miter;stroke-miterlimit:4;stroke-opacity:1;stroke-dasharray:none;stroke-dashoffset:0"
       d="m 389,375.3818 -18,0"
       id="path3124"
       inkscape:connector-curvature="0" />
    <path
       style="fill:none;stroke:#4d4d4d;stroke-width:0.75;stroke-linecap:square;stroke-linejoin:miter;stroke-miterlimit:4;stroke-opacity:1;stroke-dasharray:none;stroke-dashoffset:0"
       d="m 389,195.3818 -18,0"
       id="path3126"
       inkscape:connector-curvature="0" />
    <path
       style="fill:none;stroke:#4d4d4d;stroke-width:0.72000003;stroke-linecap:square;stroke-linejoin:miter;stroke-miterlimit:4;stroke-opacity:1;stroke-dasharray:none;stroke-dashoffset:0;marker-start:url(#DimensionTick);marker-end:url(#DimensionTick)"
       d="m 380,195.3818 0,180"
       id="path3128"
       inkscape:connector-curvature="0" />
    <path
       style="fill:none;stroke:#4d4d4d;stroke-width:0.75;stroke-linecap:square;stroke-linejoin:miter;stroke-miterlimit:4;stroke-opacity:1;stroke-dasharray:none;stroke-dashoffset:0"
       d="m 227,159.3818 0,18"
       id="path3130"
       inkscape:connector-curvature="0" />
    <path
       style="fill:none;stroke:#4d4d4d;stroke-width:0.75;stroke-linecap:square;stroke-linejoin:miter;stroke-miterlimit:4;stroke-opacity:1;stroke-dasharray:none;stroke-dashoffset:0"
       d="m 362,159.3818 0,18"
       id="path3132"
       inkscape:connector-curvature="0" />
    <path
       style="fill:none;stroke:#4d4d4d;stroke-width:0.72000003;stroke-linecap:square;stroke-linejoin:miter;stroke-miterlimit:4;stroke-opacity:1;stroke-dasharray:none;stroke-dashoffset:0;marker-start:url(#DimensionTick);marker-end:url(#DimensionTick)"
       d="m 227,168.3818 135,0"
       id="path3134"
       inkscape:connector-curvature="0" />
    <path
       style="fill:none;stroke:#000000;stroke-width:1.5;stroke-linecap:square;stroke-linejoin:miter;stroke-miterlimit:4;stroke-opacity:1;stroke-dasharray:none;stroke-dashoffset:0;marker-end:url(#Arrow1Mend)"
       d="m 193.80044,195.3818 27,0"
       id="path4578"
       inkscape:connector-curvature="0" />
    <text
       xml:space="preserve"
       style="font-style:normal;font-variant:normal;font-weight:normal;font-stretch:normal;line-height:0%;font-family:Verdana;-inkscape-font-specification:Sans;text-align:start;letter-spacing:0px;word-spacing:0px;writing-mode:lr-tb;text-anchor:start;fill:#000000;fill-opacity:1;stroke:none"
       x="197.3295"
       y="189.25174"
       id="text4772"><tspan
         sodipodi:role="line"
         id="tspan4774"
         x="197.3295"
         y="189.25174"
         style="font-size:11px;line-height:1.25">P</tspan></text>
    <text
       xml:space="preserve"
       style="font-style:normal;font-variant:normal;font-weight:normal;font-stretch:normal;line-height:0%;font-family:Verdana;-inkscape-font-specification:Sans;text-align:start;letter-spacing:0px;word-spacing:0px;writing-mode:lr-tb;text-anchor:start;fill:#000000;fill-opacity:1;stroke:none"
       x="289.74344"
       y="165.03804"
       id="text4776"><tspan
         sodipodi:role="line"
         id="tspan4778"
         x="289.74344"
         y="165.03804"
         style="font-size:11px;line-height:1.25">3L</tspan></text>
    <text
       xml:space="preserve"
       style="font-style:normal;font-variant:normal;font-weight:normal;font-stretch:normal;line-height:0%;font-family:Verdana;-inkscape-font-specification:Sans;text-align:start;letter-spacing:0px;word-spacing:0px;writing-mode:lr-tb;text-anchor:start;fill:#000000;fill-opacity:1;stroke:none"
       x="-296.34436"
       y="377.53391"
       id="text4780"
       transform="rotate(-90)"><tspan
         sodipodi:role="line"
         id="tspan4782"
         x="-296.34436"
         y="377.53391"
         style="font-size:11px;line-height:1.25">4L</tspan></text>
    <path
       inkscape:connector-curvature="0"
       id="path4822"
       d="m 260.17544,374.84861 -27,0"
       style="fill:none;stroke:#000000;stroke-width:1.5;stroke-linecap:square;stroke-linejoin:miter;stroke-miterlimit:4;stroke-opacity:1;stroke-dasharray:none;stroke-dashoffset:0;marker-end:url(#Arrow1Mend)" />
    <path
       style="fill:none;stroke:#000000;stroke-width:1.5;stroke-linecap:square;stroke-linejoin:miter;stroke-miterlimit:4;stroke-opacity:1;stroke-dasharray:none;stroke-dashoffset:0;marker-end:url(#Arrow1Mend)"
       d="m 226.95011,406.44839 0,-27"
       id="path4824"
       inkscape:connector-curvature="0" />
    <text
       xml:space="preserve"
       style="font-style:normal;font-variant:normal;font-weight:normal;font-stretch:normal;line-height:0%;font-family:Verdana;-inkscape-font-specification:Sans;text-align:start;letter-spacing:0px;word-spacing:0px;writing-mode:lr-tb;text-anchor:start;fill:#000000;fill-opacity:1;stroke:none"
       x="263.16238"
       y="379.54657"
       id="text5153"><tspan
         sodipodi:role="line"
         id="tspan5155"
         x="263.16238"
         y="379.54657"
         style="font-size:11px;line-height:1.25">H<tspan
   style="font-size:65.00091553%;baseline-shift:sub"
   id="tspan5169">a0</tspan>=P</tspan></text>
    <text
       xml:space="preserve"
       style="font-style:normal;font-variant:normal;font-weight:normal;font-stretch:normal;line-height:0%;font-family:Verdana;-inkscape-font-specification:Sans;text-align:start;letter-spacing:0px;word-spacing:0px;writing-mode:lr-tb;text-anchor:start;fill:#000000;fill-opacity:1;stroke:none"
       x="229.65762"
       y="406.95099"
       id="text5157"><tspan
         sodipodi:role="line"
         id="tspan5159"
         x="229.65762"
         y="406.95099"
         style="font-size:11px;line-height:1.25">V<tspan
   style="font-size:65.00091553%;baseline-shift:sub"
   id="tspan5171">a0</tspan>=-4P/3</tspan></text>
    <text
       xml:space="preserve"
       style="font-style:italic;font-variant:normal;font-weight:normal;font-stretch:normal;line-height:0%;font-family:Verdana;-inkscape-font-specification:'Sans Italic';text-align:start;letter-spacing:0px;word-spacing:0px;writing-mode:lr-tb;text-anchor:start;fill:#000000;fill-opacity:1;stroke:none"
       x="218.35562"
       y="374.74615"
       id="text5173"><tspan
         sodipodi:role="line"
         id="tspan5175"
         x="218.35562"
         y="374.74615"
         style="font-size:9px;line-height:1.25">a</tspan></text>
    <text
       xml:space="preserve"
       style="font-style:italic;font-variant:normal;font-weight:normal;font-stretch:normal;line-height:0%;font-family:Verdana;-inkscape-font-specification:'Sans Italic';text-align:start;letter-spacing:0px;word-spacing:0px;writing-mode:lr-tb;text-anchor:start;fill:#000000;fill-opacity:1;stroke:none"
       x="231.15816"
       y="204.62045"
       id="text5177"><tspan
         sodipodi:role="line"
         id="tspan5179"
         x="231.15816"
         y="204.62045"
         style="font-size:9px;line-height:1.25">b</tspan></text>
    <text
       xml:space="preserve"
       style="font-style:italic;font-variant:normal;font-weight:normal;font-stretch:normal;line-height:0%;font-family:Verdana;-inkscape-font-specification:'Sans Italic';text-align:start;letter-spacing:0px;word-spacing:0px;writing-mode:lr-tb;text-anchor:start;fill:#000000;fill-opacity:1;stroke:none"
       x="353.3757"
       y="203.22025"
       id="text5181"><tspan
         sodipodi:role="line"
         id="tspan5183"
         x="353.3757"
         y="203.22025"
         style="font-size:9px;line-height:1.25">c</tspan></text>
    <text
       xml:space="preserve"
       style="font-style:normal;font-variant:normal;font-weight:normal;font-stretch:normal;line-height:0%;font-family:Verdana;-inkscape-font-specification:Sans;text-align:center;letter-spacing:0px;word-spacing:0px;writing-mode:lr-tb;text-anchor:middle;fill:#000000;fill-opacity:1;stroke:none"
       x="310.05045"
       y="274.25925"
       id="text5185"><tspan
         sodipodi:role="line"
         id="tspan5187"
         x="310.05045"
         y="274.25925"
         style="font-size:11px;line-height:1.25">Primary</tspan><tspan
         sodipodi:role="line"
         x="310.05045"
         y="288.00925"
         id="tspan5189"
         style="font-size:11px;line-height:1.25">Structure</tspan></text>
    <path
       inkscape:connector-curvature="0"
       id="path5231"
       d="m 389,179.4016 -18,0"
       style="fill:none;stroke:#4d4d4d;stroke-width:0.75;stroke-linecap:square;stroke-linejoin:miter;stroke-miterlimit:4;stroke-opacity:1;stroke-dasharray:none;stroke-dashoffset:0" />
    <path
       style="fill:none;stroke:#4d4d4d;stroke-width:0.75;stroke-linecap:square;stroke-linejoin:miter;stroke-miterlimit:4;stroke-opacity:1;stroke-dasharray:none;stroke-dashoffset:0;marker-start:url(#DimensionTick);marker-end:url(#DimensionTick)"
       d="m 380.07024,194.76421 0,-15.52476"
       id="path5233"
       inkscape:connector-curvature="0"
       sodipodi:nodetypes="cc" />
    <g
       style="font-style:normal;font-variant:normal;font-weight:normal;font-stretch:normal;letter-spacing:normal;word-spacing:normal;text-anchor:start;fill:none;stroke:#000000;stroke-linecap:butt;stroke-linejoin:miter;stroke-miterlimit:10.43299961;stroke-opacity:1;stroke-dasharray:none;stroke-dashoffset:0"
       id="content"
       transform="matrix(1.1,0,0,-1.1,213.88684,961.94856)"
       xml:space="preserve"
       stroke-miterlimit="10.433"
       font-style="normal"
       font-variant="normal"
       font-weight="normal"
       font-stretch="normal"
       font-size-adjust="none"
       letter-spacing="normal"
       word-spacing="normal"
       ns0:text="\\[\n\\Delta_{10}\n\\]\n"
       ns0:preamble="/home/nholtz/work/share/config/inkscape/extensions/amspreamble.tex">
<path
   style="fill:#000000;stroke-width:0"
   inkscape:connector-curvature="0"
   d="m 157.88,708.75 0,0.01 -0.01,0.01 -0.01,0.02 0,0.01 -0.01,0.01 0,0.01 -0.01,0.01 -0.01,0.01 0,0.01 -0.01,0.01 0,0 -0.01,0.01 -0.01,0.01 0,0.01 -0.01,0 -0.01,0.01 0,0 -0.01,0.01 -0.01,0 -0.01,0.01 -0.01,0 -0.01,0.01 -0.01,0 -0.01,0 -0.01,0.01 -0.01,0 -0.01,0 -0.02,0 -0.01,0 -0.02,0 -0.01,0 -0.02,0 c -0.19,0 -0.21,-0.05 -0.28,-0.19 l -0.07,-0.9 2.93,-5.87 h -5.87 l 2.94,5.87 0.07,0.9 -3.68,-7.38 c -0.06,-0.1 -0.06,-0.12 -0.06,-0.14 0,-0.08 0.07,-0.08 0.24,-0.08 h 7.56 c 0.17,0 0.24,0 0.24,0.08 0,0.02 0,0.04 -0.06,0.14 z"
   id="path5685" />
<path
   style="fill:#000000;stroke-width:0"
   inkscape:connector-curvature="0"
   d="m 164.66,704.57 0,0.01 0,0.01 0,0.01 0,0.01 0,0.01 0,0.01 0,0.01 0,0 0,0.01 0,0.01 0,0.01 0,0 0,0.01 0,0.01 0,0 0,0.01 -0.01,0 0,0.01 0,0 0,0.01 0,0.01 -0.01,0.01 0,0.01 0,0 -0.01,0.01 0,0.01 -0.01,0 -0.01,0 0,0.01 -0.01,0 -0.01,0.01 -0.01,0 -0.01,0 -0.01,0 -0.01,0 -0.01,0 0,0 -0.01,0 -0.01,0 0,0 -0.01,0 -0.01,0.01 -0.01,0 0,0 -0.01,0 -0.01,0 -0.01,0 -0.01,0 -0.01,0 -0.01,0 c -0.33,-0.32 -0.75,-0.51 -1.5,-0.51 v -0.26 c 0.21,0 0.64,0 1.1,0.21 v -4.08 c 0,-0.29 -0.02,-0.39 -0.78,-0.39 h -0.28 v -0.26 c 0.33,0.02 1.02,0.02 1.37,0.02 0.36,0 1.05,0 1.38,-0.02 v 0.26 h -0.28 c -0.76,0 -0.78,0.1 -0.78,0.39 z"
   id="path5687" />
<path
   style="fill:#000000;stroke-width:0"
   inkscape:connector-curvature="0"
   d="m 170.29,702.05 0,0.07 0,0.08 0,0.08 -0.01,0.07 0,0.07 0,0.07 0,0.07 -0.01,0.07 0,0.06 -0.01,0.07 -0.01,0.06 0,0.06 -0.02,0.12 -0.02,0.11 -0.02,0.11 -0.03,0.11 -0.02,0.1 -0.04,0.1 -0.03,0.1 -0.04,0.1 -0.04,0.1 -0.05,0.09 c -0.35,0.7 -1,0.88 -1.43,0.88 v -0.23 c 0.27,0 0.82,-0.13 0.98,-0.85 0.09,-0.44 0.09,-1.04 0.09,-1.58 0,-0.47 0,-1.18 -0.09,-1.63 -0.17,-0.83 -0.72,-0.94 -0.98,-0.94 h 0 c -0.27,0 -0.82,0.12 -0.99,0.96 -0.09,0.45 -0.09,1.2 -0.09,1.61 0,0.55 0,1.11 0.09,1.54 0.17,0.81 0.79,0.89 0.99,0.89 v 0.23 c -1.01,0 -1.37,-0.75 -1.49,-0.97 -0.28,-0.58 -0.3,-1.37 -0.3,-1.78 0,-0.53 0.03,-1.33 0.41,-1.97 0.36,-0.59 0.95,-0.74 1.38,-0.74 0.38,0 1.06,0.12 1.46,0.91 0.29,0.57 0.32,1.28 0.32,1.8 z"
   id="path5689" />
</g>    <path
       sodipodi:nodetypes="ccc"
       inkscape:connector-curvature="0"
       id="path5772"
       d="m 442.9406,375.3818 0,-180 135,0"
       style="fill:none;stroke:#000000;stroke-width:1;stroke-linecap:square;stroke-linejoin:miter;stroke-miterlimit:4;stroke-opacity:1;stroke-dasharray:none;stroke-dashoffset:0" />
    <path
       sodipodi:nodetypes="czc"
       inkscape:connector-curvature="0"
       id="path6003"
       d="m 434.05044,213.23946 c 0,0 3.37031,2.78622 3.46534,8.91089 0.095,6.12467 -3.96039,8.91089 -3.96039,8.91089"
       style="fill:none;stroke:#000000;stroke-width:1;stroke-linecap:square;stroke-linejoin:miter;stroke-miterlimit:4;stroke-opacity:1;stroke-dasharray:none;stroke-dashoffset:0" />
    <path
       inkscape:connector-curvature="0"
       id="path3599"
       d="m 362.55407,226.72562 0,-27"
       style="fill:none;stroke:#000000;stroke-width:1.5;stroke-linecap:square;stroke-linejoin:miter;stroke-miterlimit:4;stroke-opacity:1;stroke-dasharray:none;stroke-dashoffset:0;marker-end:url(#Arrow1Mend)" />
    <text
       id="text3601"
       y="229.15033"
       x="305.83261"
       style="font-style:normal;font-variant:normal;font-weight:normal;font-stretch:normal;line-height:0%;font-family:Verdana;-inkscape-font-specification:Sans;text-align:start;letter-spacing:0px;word-spacing:0px;writing-mode:lr-tb;text-anchor:start;fill:#000000;fill-opacity:1;stroke:none"
       xml:space="preserve"><tspan
         y="229.15033"
         x="305.83261"
         id="tspan3603"
         sodipodi:role="line"
         style="font-size:11px;line-height:1.25">V<tspan
   id="tspan3605"
   style="font-size:65.00091553%;baseline-shift:sub">c0</tspan>=4P/3</tspan></text>
    <text
       transform="translate(182.05044,148.86409)"
       id="text3611"
       y="133.7516"
       x="318.31683"
       style="font-style:normal;font-variant:normal;font-weight:normal;font-stretch:normal;line-height:0%;font-family:Verdana;-inkscape-font-specification:Sans;text-align:start;letter-spacing:0px;word-spacing:0px;writing-mode:lr-tb;text-anchor:start;fill:#000000;fill-opacity:1;stroke:none"
       xml:space="preserve"><tspan
         y="133.7516"
         x="318.31683"
         id="tspan3613"
         sodipodi:role="line"
         style="font-size:11px;line-height:1.25">M</tspan></text>
    <text
       id="text3615"
       y="165.28896"
       x="435.89203"
       style="font-style:normal;font-variant:normal;font-weight:normal;font-stretch:normal;line-height:0%;font-family:Verdana;-inkscape-font-specification:Sans;text-align:start;letter-spacing:0px;word-spacing:0px;writing-mode:lr-tb;text-anchor:start;fill:#000000;fill-opacity:1;stroke:none"
       xml:space="preserve"><tspan
         y="165.28896"
         x="435.89203"
         id="tspan3617"
         sodipodi:role="line"
         style="font-size:11px;line-height:1.25">4PL</tspan></text>
    <text
       xml:space="preserve"
       style="font-style:normal;font-variant:normal;font-weight:normal;font-stretch:normal;line-height:0%;font-family:Verdana;-inkscape-font-specification:Sans;text-align:start;letter-spacing:0px;word-spacing:0px;writing-mode:lr-tb;text-anchor:start;fill:#000000;fill-opacity:1;stroke:none"
       x="407.05045"
       y="193.23946"
       id="text3619"><tspan
         sodipodi:role="line"
         id="tspan3621"
         x="407.05045"
         y="193.23946"
         style="font-size:11px;line-height:1.25">4PL</tspan></text>
    <path
       sodipodi:nodetypes="ccc"
       inkscape:connector-curvature="0"
       id="path3950"
       d="m 227,375.3818 c -26.94956,-99.14234 8,-180 8,-180 54.05044,17.85766 135,0 135,0"
       style="fill:none;stroke:#800000;stroke-width:0.99000001;stroke-linecap:square;stroke-linejoin:miter;stroke-miterlimit:4;stroke-opacity:1;stroke-dasharray:0.99, 1.98;stroke-dashoffset:0" />
    <path
       transform="translate(182.05044,148.86409)"
       inkscape:connector-curvature="0"
       id="path4765"
       d="M 45,226.37537 9,91.375366"
       style="fill:#e6e6e6;fill-opacity:1;fill-rule:nonzero;stroke:#800000;stroke-width:0.5;stroke-linecap:square;stroke-linejoin:miter;stroke-miterlimit:4;stroke-opacity:1;stroke-dasharray:0.98999999999999999, 1.97999999999999998;stroke-dashoffset:0" />
    <path
       sodipodi:open="true"
       sodipodi:end="4.7055708"
       sodipodi:start="4.4540107"
       transform="translate(182.05044,148.86409)"
       d="m 27.531513,160.27841 c 5.549771,-1.46672 11.262173,-2.22865 17.002357,-2.26779"
       sodipodi:ry="68.366333"
       sodipodi:rx="68.366333"
       sodipodi:cy="226.37537"
       sodipodi:cx="45"
       id="path4769"
       style="fill:#e6e6e6;fill-opacity:1;fill-rule:nonzero;stroke:#4d4d4d;stroke-width:0.75000000000000000;stroke-linecap:square;stroke-linejoin:miter;stroke-miterlimit:4;stroke-opacity:1;stroke-dasharray:none;stroke-dashoffset:0;marker-start:url(#Arrow1Mstart)"
       sodipodi:type="arc" />
    <g
       ns0:preamble="/home/nholtz/work/share/config/inkscape/extensions/amspreamble.tex"
       ns0:text="\\[\n\\theta_{10}\n\\]\n"
       word-spacing="normal"
       letter-spacing="normal"
       font-size-adjust="none"
       font-stretch="normal"
       font-weight="normal"
       font-variant="normal"
       font-style="normal"
       stroke-miterlimit="10.433"
       xml:space="preserve"
       transform="matrix(1.2,0,0,-1.2,10.73044,1162.2875)"
       id="g5319"
       style="font-style:normal;font-variant:normal;font-weight:normal;font-stretch:normal;letter-spacing:normal;word-spacing:normal;text-anchor:start;fill:none;stroke:#000000;stroke-linecap:butt;stroke-linejoin:miter;stroke-miterlimit:10.43299961;stroke-opacity:1;stroke-dasharray:none;stroke-dashoffset:0">
<path
   id="path5321"
   d="m 158.02,706.59 0,0.07 0,0.08 0,0.07 -0.01,0.08 0,0.09 -0.01,0.08 -0.01,0.09 -0.01,0.09 -0.02,0.1 -0.01,0.09 -0.02,0.09 -0.03,0.09 -0.02,0.1 -0.03,0.09 -0.03,0.09 -0.03,0.09 -0.04,0.08 -0.04,0.09 -0.04,0.08 -0.05,0.08 -0.05,0.07 -0.06,0.07 -0.06,0.07 -0.06,0.06 -0.07,0.05 -0.03,0.03 -0.04,0.02 -0.04,0.02 -0.03,0.02 -0.04,0.02 -0.05,0.02 -0.04,0.01 -0.04,0.02 -0.05,0.01 -0.04,0.01 -0.05,0 -0.05,0.01 -0.05,0 -0.05,0 -0.01,-0.23 c 0.53,0 0.6,-0.7 0.6,-1.32 0,-0.54 -0.09,-1.09 -0.35,-2.17 h -2.28 c 0.19,0.7 0.41,1.57 0.84,2.34 0.3,0.53 0.7,1.15 1.19,1.15 l 0.01,0.23 c -1.51,0 -3.19,-3.07 -3.19,-5.56 0,-1.02 0.31,-2.23 1.31,-2.23 v 0.24 c -0.36,0 -0.59,0.31 -0.59,1.33 0,0.45 0.06,1.08 0.35,2.15 h 2.26 c -0.12,-0.5 -0.35,-1.42 -0.76,-2.21 -0.38,-0.74 -0.8,-1.27 -1.26,-1.27 v -0.24 c 1.53,0 3.18,3.12 3.18,5.56 z"
   inkscape:connector-curvature="0"
   style="fill:#000000;stroke-width:0" />
<path
   id="path5323"
   d="m 160.69,704.57 0,0.01 0,0.01 0,0.01 0,0.01 0,0.01 0,0.01 0,0.01 0,0 0,0.01 0,0.01 0,0.01 0,0 0,0.01 0,0.01 0,0 0,0.01 -0.01,0 0,0.01 0,0 0,0.01 0,0.01 -0.01,0.01 0,0.01 0,0 -0.01,0.01 0,0.01 -0.01,0 -0.01,0 0,0.01 -0.01,0 -0.01,0.01 -0.01,0 -0.01,0 -0.01,0 -0.01,0 -0.01,0 0,0 -0.01,0 -0.01,0 0,0 -0.01,0 -0.01,0.01 -0.01,0 0,0 -0.01,0 -0.01,0 -0.01,0 -0.01,0 -0.01,0 -0.01,0 c -0.33,-0.32 -0.75,-0.51 -1.5,-0.51 v -0.26 c 0.21,0 0.64,0 1.1,0.21 v -4.08 c 0,-0.29 -0.02,-0.39 -0.78,-0.39 H 159 v -0.26 c 0.33,0.02 1.01,0.02 1.37,0.02 0.36,0 1.05,0 1.38,-0.02 v 0.26 h -0.28 c -0.76,0 -0.78,0.1 -0.78,0.39 z"
   inkscape:connector-curvature="0"
   style="fill:#000000;stroke-width:0" />
<path
   id="path5325"
   d="m 166.32,702.05 0,0.07 0,0.08 0,0.08 -0.01,0.07 0,0.07 0,0.07 0,0.07 -0.01,0.07 0,0.06 -0.01,0.07 -0.01,0.06 0,0.06 -0.02,0.12 -0.02,0.11 -0.02,0.11 -0.03,0.11 -0.02,0.1 -0.04,0.1 -0.03,0.1 -0.04,0.1 -0.04,0.1 -0.05,0.09 c -0.35,0.7 -1,0.88 -1.43,0.88 v -0.23 c 0.27,0 0.82,-0.13 0.97,-0.85 0.1,-0.44 0.1,-1.04 0.1,-1.58 0,-0.47 0,-1.18 -0.1,-1.63 -0.16,-0.83 -0.71,-0.94 -0.97,-0.94 h 0 c -0.28,0 -0.82,0.12 -0.99,0.96 -0.09,0.45 -0.09,1.2 -0.09,1.61 0,0.55 0,1.11 0.09,1.54 0.17,0.81 0.79,0.89 0.99,0.89 v 0.23 c -1.01,0 -1.37,-0.75 -1.49,-0.97 -0.28,-0.58 -0.3,-1.37 -0.3,-1.78 0,-0.53 0.03,-1.33 0.41,-1.97 0.36,-0.59 0.95,-0.74 1.38,-0.74 0.38,0 1.06,0.12 1.46,0.91 0.29,0.57 0.32,1.28 0.32,1.8 z"
   inkscape:connector-curvature="0"
   style="fill:#000000;stroke-width:0" />
</g>  </g>
</svg>
