<?xml version="1.0" standalone="yes"?>
<!DOCTYPE svg PUBLIC "-//W3C//DTD SVG 1.1//EN" 
  "http://www.w3.org/Graphics/SVG/1.1/DTD/svg11.dtd">
<svg xmlns="http://www.w3.org/2000/svg"
     xmlns:xlink="http://www.w3.org/1999/xlink"
     version="1.1"
     width="8.5in" 
     height="11.0in" 
     viewBox="0 0 612 792">
  <defs>
    <style type="text/css"><![CDATA[
    .elem {
	stroke-width: 2.0;
	stroke: black;
	}
    path.dim {
       stroke-width: 0.5;
       stroke: black;
       }
    path.guides {
       stroke-width: 0.5;
       stroke: grey;
       }
    text.dwglabel {
       font-family: Verdana, Arial;
       font-size: 10px;
       font-weight: bold;
       fill: black;
       text-align: center;
       text-anchor: start;
       }
    text.dim {
       font-family: Verdana, Arial;
       font-size: 8px;
       font-weight: bold;
       fill: black;
       text-align: center;
       text-anchor: middle;
       }
    text.guides {
       font-family: Verdana, Arial;
       font-size: 8px;
       font-weight: normal;
       font-style: italic;
       fill: black;
       text-align: center;
       text-anchor: middle;
       }
    text.vmlabel {
       font-family: Verdana, Arial;
       font-size: 8px;
       font-style: italic;
       fill: black;
       }
    text.notes {
       font-family: Verdana, Arial;
       font-size: 9px;
       font-weight: normal;
       font-style: italic;
       fill: black;
       text-align: center;
       text-anchor: left;
       }
    text.ptlabel {
       font-family: Verdana, Arial;
       font-size: 7px;
       font-style: italic;
       fill: black;
       text-align: center;
       text-anchor: start;
       }
     path.cload {
       fill: none;
       stroke-width: 1;
       stroke: black; 
       marker-end: url(#CLArrowEnd);
     }
      path.mload {
       fill: none;
       stroke-width: 1;
       stroke: black; 
       marker-end: url(#MLArrowEnd);
     }
      path.mloadInkscape {
       fill: none;
       stroke-width: 1;
       stroke: black; 
       marker-end: url(#MLArrowStart);
     }
     polygon.dload {
       fill: rgb(240,240,240);
       opacity: 0.5; /* if < 1, REALLY slows down printing of the pdfs */
       stroke-width: 1;
       stroke: black; 
     }
     path.dload {
       fill: none;
       stroke-width: 1;
       stroke: black; 
       marker-end: url(#DLArrowEnd);
     }
     path.dloadna {
       fill: none;
       stroke-width: 1;
       stroke: black; 
     }
     path.vdiag {
       fill: url(#crosshatch45);
       stroke-width: 1;
       stroke: black; 
     }
     path.mdiag {
       fill: url(#crosshatch45);
       stroke-width: 1;
       stroke: black; 
     }

    ]]></style>
    <g id="PinnedSupport" transform="translate(0,1.0)">
      <path d="M 0 0 l 4 6 l -8 0 z" 
	    stroke="black" stroke-width="0" fill="black" opacity="1.0" />
      <path d="M -6 6 l 12 0" 
	    stroke="black" stroke-width="1" fill="none" />
      <path d="M 6 6 l -3 3 m 0 -3 l -3 3 m 0 -3 l -3 3 m 0 -3 l -3 3 m 0 -3 l -3 3"
	    stroke="black" stroke-width="1" fill="none" />
    </g>
    <g id="RollerSupport" transform="translate(0,1.0)">
      <circle cx="0" cy="3" r="3"
	    stroke="black" stroke-width="0" fill="black" opacity="1.0" />
      <path d="M -6 6 l 12 0" 
	    stroke="black" stroke-width="1" fill="none" />
      <path d="M 6 6 l -3 3 m 0 -3 l -3 3 m 0 -3 l -3 3 m 0 -3 l -3 3 m 0 -3 l -3 3"
	    stroke="black" stroke-width="1" fill="none" />
    </g>
    <g id="LFixedSupport" transform="translate(-0.5,0)">
      <path d="M 0 -6 l 0 12"
	    stroke="black" stroke-width="1" fill="none" />
      <path d="M 0 -6 l -3 3 m 3 0 l -3 3 m 3 0 l -3 3 m 3 0 l -3 3 m 3 0 l -3 3"
	    stroke="black" stroke-width="1" fill="none" />
    </g>
    <g id="RFixedSupport">
      <use xlink:href="#LFixedSupport" transform="scale(-1,1)"/>
    </g>
    <g id="Hinge">
      <circle cx="0" cy="0" r="2.5"
	      stroke="black" stroke-width="1" fill="white"/>
    </g>
    <g id="ShearRelease">
      <rect x="-3" y="-6" width="6" height="12"
	    stroke="none" fill="white"/>
      <circle cx="0" cy="-6" r="2" stroke="black" strokewidth="0.5" fill="white"/>
      <circle cx="0" cy="0" r="2" stroke="black" strokewidth="0.5" fill="white"/>
      <circle cx="0" cy="6" r="2" stroke="black" strokewidth="0.5" fill="white"/>
      <path d="M -3 -9 l 0 18 M 3 -9 l 0 18" stroke="black" stroke-width="1"/>
    </g>
    <marker id="DLArrowStart"
	    markerUnits="userSpaceOnUse"
	    markerWidth="8"
	    markerHeight="4"
	    orient="auto"
	    viewBox="0 0 8 4"
	    refX="0"
	    refY="2">
      <path d="M 0 2 l 8 -2 l 0 4 z"/>
    </marker>
    <marker id="DLArrowEnd"
	    markerUnits="userSpaceOnUse"
	    markerWidth="8"
	    markerHeight="4"
	    orient="auto"
	    viewBox="0 0 8 4"
	    refX="8"
	    refY="2">
      <path d="M 0 0 l 8 2 l -8 2 z"/>
    </marker>
    <marker id="CLArrowStart"
	    markerUnits="userSpaceOnUse"
	    markerWidth="10.0"
	    markerHeight="6"
	    orient="auto"
	    viewBox="0 0 10 6"
	    refX="3.0"
	    refY="3">
      <path d="M 0 3 l 10 -3 l -2 3 l 2 3 z"/>
    </marker>
    <marker id="CLArrowEnd"
	    markerUnits="userSpaceOnUse"
	    markerWidth="10.0"
	    markerHeight="6"
	    orient="auto"
	    viewBox="0 0 10 6"
	    refX="7.0"
	    refY="3">
      <path d="M 0 0 l 10 3 l -10 3 l 2 -3 z"/>
    </marker>
    <marker id="MLArrowStart"
	    markerUnits="userSpaceOnUse"
	    markerWidth="10.0"
	    markerHeight="6"
	    orient="auto"
	    viewBox="0 0 10 6"
	    refX="8"
	    refY="3">
      <path d="M 10 0 l -10 3 l 10 3 l -2 -3 z"/>
    </marker>
    <marker id="MLArrowEnd"
	    markerUnits="userSpaceOnUse"
	    markerWidth="10.0"
	    markerHeight="6"
	    orient="auto"
	    viewBox="0 0 10 6"
	    refX="2"
	    refY="3">
      <path d="M 0 0 l 10 3 l -10 3 l 2 -3 z"/>
    </marker>
    <pattern id="crosshatch45" patternUnits="userSpaceOnUse"
             x="0" y="0" width="10" height="10"
	     viewBox="0 0 10 10">
       <path d="M 0 0 L 10 10" fill="none" stroke="grey" stroke-width="0.2"/>
    </pattern>


  </defs>

<g transform="translate(72.0,122.0)">
  <title>Beam! Length = 24.5</title>
  <path class="elem" d="M 0 0 l 360.0 0"/>
  <g transform="translate(0.0,0.0)">
    <title>LD Load 22 - 18 kN/m</title>
    <polygon points="0,0 0,-24.0 130.8,-12.0 130.8,0" class="dload"/>
    <path class="dload" d="M 0.0 -24.0 L 0.0 -1.0"/>
    <path class="dload" d="M 26.2 -21.6 L 26.2 -1.0"/>
    <path class="dload" d="M 52.3 -19.2 L 52.3 -1.0"/>
    <path class="dload" d="M 78.5 -16.8 L 78.5 -1.0"/>
    <path class="dload" d="M 104.6 -14.4 L 104.6 -1.0"/>
    <path class="dload" d="M 130.8 -12.0 L 130.8 -1.0"/>
    <text style="text-anchor: end;" dx="0.0" dy="-2.0" y="-24.0" x="0.0" class="dim">22</text>
    <text style="text-anchor: start;" dx="0.0" dy="-2.0" y="-12.0" x="130.8" class="dim">18</text>
  </g>
  <g transform="translate(130.8,0.0)">
    <title>UD Load 19 kN/m</title>
    <polygon points="0,0 0,-15.0 208.7,-15.0 208.7,0" class="dload"/>
    <path class="dload" d="M 0.0 -15.0 L 0.0 -1.0"/>
    <path class="dload" d="M 26.1 -15.0 L 26.1 -1.0"/>
    <path class="dload" d="M 52.2 -15.0 L 52.2 -1.0"/>
    <path class="dload" d="M 78.2 -15.0 L 78.2 -1.0"/>
    <path class="dload" d="M 104.3 -15.0 L 104.3 -1.0"/>
    <path class="dload" d="M 130.4 -15.0 L 130.4 -1.0"/>
    <path class="dload" d="M 156.5 -15.0 L 156.5 -1.0"/>
    <path class="dload" d="M 182.6 -15.0 L 182.6 -1.0"/>
    <path class="dload" d="M 208.7 -15.0 L 208.7 -1.0"/>
    <text style="text-anchor: middle;" dx="0.0" dy="-2.0" y="-15.0" x="104.3" class="dim">19</text>
  </g>
  <g transform="translate(360.0,-1.0)">
    <title>Point Load = 75 kN</title>
    <path class="cload" d="M 0 -42.0 l 0 39.0"/>
    <text y="-42.0" x="0" class="dim" dy="-3.0">75</text>
  </g>
  <g transform="translate(95.5,-1.0)">
    <title>Point Load = 65 kN</title>
    <path class="cload" d="M 0 -26.0 l 0 23.0"/>
    <text y="-26.0" x="0" class="dim" dy="-3.0">65</text>
  </g>
  <g transform="translate(182.2,0.0)">
    <title>Moment load = -70 kN-m</title>
    <path class="dim" d="M -2.0 -2.0 l 4.0 4.0 M -2.0 2.0 l 4.0 -4.0"/>
    <path class="mloadInkscape" d="M 7.5,-13.0 A 15.0,15.0 0 0,1 7.5,13.0"/>
    <text y="-13.0" x="7.5" class="dim" dy="-4.0">70</text>
  </g>
  <g transform="translate(32.3,0.0)">
    <title>Moment load = -140 kN-m</title>
    <path class="dim" d="M -2.0 -2.0 l 4.0 4.0 M -2.0 2.0 l 4.0 -4.0"/>
    <path class="mloadInkscape" d="M 0.0,-15.0 A 15.0,15.0 0 0,1 0.0,15.0"/>
    <text y="-15.0" x="0.0" class="dim" dy="-4.0">140</text>
  </g>
  <use y="0" x="14.7" xlink:href="#RollerSupport"/>
  <use y="0" x="95.5" xlink:href="#Hinge"/>
  <use y="0" x="130.8" xlink:href="#RollerSupport"/>
  <use y="0" x="263.0" xlink:href="#Hinge"/>
  <use y="0" x="280.7" xlink:href="#RollerSupport"/>
  <use y="0" x="339.4" xlink:href="#PinnedSupport"/>
  <path class="dim" d="M 32.3 10.0 l 0 25.0"/>
  <path class="dim" d="M 14.7 30.0 l 17.6 0"/>
  <path class="dim" d="M 14.7 30.0 m -3.0 3.0 l 6.0 -6.0"/>
  <path class="dim" d="M 32.3 30.0 m -3.0 3.0 l 6.0 -6.0"/>
  <text y="30.0" x="23.5" class="dim" dy="-3.0">1.2</text>
  <path class="dim" d="M 182.2 10.0 l 0 25.0"/>
  <path class="dim" d="M 130.8 30.0 l 51.4 0"/>
  <path class="dim" d="M 130.8 30.0 m -3.0 3.0 l 6.0 -6.0"/>
  <path class="dim" d="M 182.2 30.0 m -3.0 3.0 l 6.0 -6.0"/>
  <text y="30.0" x="156.5" class="dim" dy="-3.0">3.5</text>
  <path class="dim" d="M 95.5 10.0 l 0 40.0"/>
  <path class="dim" d="M 14.7 45.0 l 80.8 0"/>
  <path class="dim" d="M 14.7 45.0 m -3.0 3.0 l 6.0 -6.0"/>
  <path class="dim" d="M 95.5 45.0 m -3.0 3.0 l 6.0 -6.0"/>
  <text y="45.0" x="55.1" class="dim" dy="-3.0">5.5</text>
  <path class="dim" d="M 263.0 10.0 l 0 40.0"/>
  <path class="dim" d="M 130.8 45.0 l 132.2 0"/>
  <path class="dim" d="M 130.8 45.0 m -3.0 3.0 l 6.0 -6.0"/>
  <path class="dim" d="M 263.0 45.0 m -3.0 3.0 l 6.0 -6.0"/>
  <text y="45.0" x="196.9" class="dim" dy="-3.0">9</text>
  <path class="dim" d="M 0.0 10.0 l 0 55.0"/>
  <path class="dim" d="M 14.7 10.0 l 0 55.0"/>
  <path class="dim" d="M 0.0 60.0 l 14.7 0"/>
  <path class="dim" d="M 0.0 60.0 m -3.0 3.0 l 6.0 -6.0"/>
  <path class="dim" d="M 14.7 60.0 m -3.0 3.0 l 6.0 -6.0"/>
  <text y="60.0" x="7.3" class="dim" dy="-3.0">1</text>
  <path class="dim" d="M 130.8 10.0 l 0 55.0"/>
  <path class="dim" d="M 14.7 60.0 l 116.1 0"/>
  <path class="dim" d="M 130.8 60.0 m -3.0 3.0 l 6.0 -6.0"/>
  <text y="60.0" x="72.7" class="dim" dy="-3.0">7.9</text>
  <path class="dim" d="M 280.7 10.0 l 0 55.0"/>
  <path class="dim" d="M 130.8 60.0 l 149.9 0"/>
  <path class="dim" d="M 280.7 60.0 m -3.0 3.0 l 6.0 -6.0"/>
  <text y="60.0" x="205.7" class="dim" dy="-3.0">10.2</text>
  <path class="dim" d="M 339.4 10.0 l 0 55.0"/>
  <path class="dim" d="M 280.7 60.0 l 58.8 0"/>
  <path class="dim" d="M 339.4 60.0 m -3.0 3.0 l 6.0 -6.0"/>
  <text y="60.0" x="310.0" class="dim" dy="-3.0">4</text>
  <path class="dim" d="M 360.0 10.0 l 0 55.0"/>
  <path class="dim" d="M 339.4 60.0 l 20.6 0"/>
  <path class="dim" d="M 360.0 60.0 m -3.0 3.0 l 6.0 -6.0"/>
  <text y="60.0" x="349.7" class="dim" dy="-3.0">1.4</text>
  <text y="17.0" x="0.0" class="ptlabel" dx="1.0">a</text>
  <text y="17.0" x="14.7" class="ptlabel" dx="1.0">b</text>
  <text y="17.0" x="32.3" class="ptlabel" dx="1.0">c</text>
  <text y="17.0" x="95.5" class="ptlabel" dx="1.0">d</text>
  <text y="17.0" x="130.8" class="ptlabel" dx="1.0">e</text>
  <text y="17.0" x="182.2" class="ptlabel" dx="1.0">f</text>
  <text y="17.0" x="263.0" class="ptlabel" dx="1.0">g</text>
  <text y="17.0" x="280.7" class="ptlabel" dx="1.0">h</text>
  <text y="17.0" x="339.4" class="ptlabel" dx="1.0">i</text>
  <text y="17.0" x="360.0" class="ptlabel" dx="1.0">j</text>
  <text y="-56.0" x="0" xml:space="preserve" class="notes">Units are m, kN;       Difficulty Level = 9</text>
  <g id="fbd-guides" visibility="visible" transform="translate(0.0,0.0)">
    <path class="guides" d="M 0.0 66.0 L 0.0 186.0 M 14.7 66.0 L 14.7 186.0 M 32.3 66.0 L 32.3 186.0 M 95.5 66.0 L 95.5 186.0 M 130.8 66.0 L 130.8 186.0 M 182.2 66.0 L 182.2 186.0 M 263.0 66.0 L 263.0 186.0 M 280.7 66.0 L 280.7 186.0 M 339.4 66.0 L 339.4 186.0 M 360.0 66.0 L 360.0 186.0"/>
  </g>
  <g id="beam-fb-diagram" visibility="visible" transform="translate(0.0,144.0)">
    <title>Free Body Diagram</title>
    <path class="elem" d="M 0 0 l 360.0 0"/>
    <g transform="translate(0.0,0.0)">
      <title>LD Load 22 - 18 kN/m</title>
      <polygon points="0,0 0,-24.0 130.8,-12.0 130.8,0" class="dload"/>
      <path class="dload" d="M 0.0 -24.0 L 0.0 -1.0"/>
      <path class="dload" d="M 26.2 -21.6 L 26.2 -1.0"/>
      <path class="dload" d="M 52.3 -19.2 L 52.3 -1.0"/>
      <path class="dload" d="M 78.5 -16.8 L 78.5 -1.0"/>
      <path class="dload" d="M 104.6 -14.4 L 104.6 -1.0"/>
      <path class="dload" d="M 130.8 -12.0 L 130.8 -1.0"/>
      <text style="text-anchor: end;" dx="0.0" dy="-2.0" y="-24.0" x="0.0" class="dim">22</text>
      <text style="text-anchor: start;" dx="0.0" dy="-2.0" y="-12.0" x="130.8" class="dim">18</text>
    </g>
    <g transform="translate(130.8,0.0)">
      <title>UD Load 19 kN/m</title>
      <polygon points="0,0 0,-15.0 208.7,-15.0 208.7,0" class="dload"/>
      <path class="dload" d="M 0.0 -15.0 L 0.0 -1.0"/>
      <path class="dload" d="M 26.1 -15.0 L 26.1 -1.0"/>
      <path class="dload" d="M 52.2 -15.0 L 52.2 -1.0"/>
      <path class="dload" d="M 78.2 -15.0 L 78.2 -1.0"/>
      <path class="dload" d="M 104.3 -15.0 L 104.3 -1.0"/>
      <path class="dload" d="M 130.4 -15.0 L 130.4 -1.0"/>
      <path class="dload" d="M 156.5 -15.0 L 156.5 -1.0"/>
      <path class="dload" d="M 182.6 -15.0 L 182.6 -1.0"/>
      <path class="dload" d="M 208.7 -15.0 L 208.7 -1.0"/>
      <text style="text-anchor: middle;" dx="0.0" dy="-2.0" y="-15.0" x="104.3" class="dim">19</text>
    </g>
    <g transform="translate(360.0,-1.0)">
      <title>Point Load = 75 kN</title>
      <path class="cload" d="M 0 -29.9 l 0 26.9"/>
      <text y="-29.9" x="0" class="dim" dy="-3.0">75</text>
    </g>
    <g transform="translate(95.5,-1.0)">
      <title>Point Load = 65 kN</title>
      <path class="cload" d="M 0 -29.4 l 0 26.4"/>
      <text y="-29.4" x="0" class="dim" dy="-3.0">65</text>
    </g>
    <g transform="translate(14.7,1.0)">
      <title>Point Load = -55.3052 kN</title>
      <path class="cload" d="M 0 28.9 l 0 -25.9"/>
      <text y="28.9" x="0" class="dim" dy="8.0">55.31</text>
    </g>
    <g transform="translate(130.8,1.0)">
      <title>Point Load = -309.594 kN</title>
      <path class="cload" d="M 0 42.0 l 0 -39.0"/>
      <text y="42.0" x="0" class="dim" dy="8.0">309.6</text>
    </g>
    <g transform="translate(280.7,1.0)">
      <title>Point Load = -101.801 kN</title>
      <path class="cload" d="M 0 31.3 l 0 -28.3"/>
      <text y="31.3" x="0" class="dim" dy="8.0">101.8</text>
    </g>
    <g transform="translate(339.4,1.0)">
      <title>Point Load = -121.1 kN</title>
      <path class="cload" d="M 0 32.3 l 0 -29.3"/>
      <text y="32.3" x="0" class="dim" dy="8.0">121.1</text>
    </g>
    <g transform="translate(182.2,0.0)">
      <title>Moment load = -70 kN-m</title>
      <path class="dim" d="M -2.0 -2.0 l 4.0 4.0 M -2.0 2.0 l 4.0 -4.0"/>
      <path class="mloadInkscape" d="M 7.5,-13.0 A 15.0,15.0 0 0,1 7.5,13.0"/>
      <text y="-13.0" x="7.5" class="dim" dy="-4.0">70</text>
    </g>
    <g transform="translate(32.3,0.0)">
      <title>Moment load = -140 kN-m</title>
      <path class="dim" d="M -2.0 -2.0 l 4.0 4.0 M -2.0 2.0 l 4.0 -4.0"/>
      <path class="mloadInkscape" d="M 0.0,-15.0 A 15.0,15.0 0 0,1 0.0,15.0"/>
      <text y="-15.0" x="0.0" class="dim" dy="-4.0">140</text>
    </g>
    <text x="360.0" y="0" class="dwglabel" dx="18.0">FBD [m,kN]</text>
  </g>
</g>

</svg>
