<?xml version="1.0" encoding="UTF-8" standalone="no"?>
<!-- Created with Inkscape (http://www.inkscape.org/) -->

<svg
   xmlns:ns0="http://www.iki.fi/pav/software/textext/"
   xmlns:dc="http://purl.org/dc/elements/1.1/"
   xmlns:cc="http://creativecommons.org/ns#"
   xmlns:rdf="http://www.w3.org/1999/02/22-rdf-syntax-ns#"
   xmlns:svg="http://www.w3.org/2000/svg"
   xmlns="http://www.w3.org/2000/svg"
   xmlns:xlink="http://www.w3.org/1999/xlink"
   xmlns:sodipodi="http://sodipodi.sourceforge.net/DTD/sodipodi-0.dtd"
   xmlns:inkscape="http://www.inkscape.org/namespaces/inkscape"
   width="423"
   height="173.99202"
   id="svg2"
   version="1.1"
   inkscape:version="0.92.4 (unknown)"
   sodipodi:docname="beam2-3.svg">
  <sodipodi:namedview
     id="base"
     pagecolor="#ffffff"
     bordercolor="#666666"
     borderopacity="1.0"
     inkscape:pageopacity="0.0"
     inkscape:pageshadow="2"
     inkscape:zoom="2.02"
     inkscape:cx="237.90694"
     inkscape:cy="64.380827"
     inkscape:document-units="in"
     inkscape:current-layer="layer1"
     showgrid="true"
     units="in"
     inkscape:window-width="1179"
     inkscape:window-height="883"
     inkscape:window-x="216"
     inkscape:window-y="35"
     inkscape:window-maximized="0"
     showguides="true"
     fit-margin-top="0.1"
     fit-margin-right="0.1"
     fit-margin-left="0.1"
     fit-margin-bottom="0.1"
     inkscape:snap-global="false">
    <inkscape:grid
       type="xygrid"
       id="grid2985"
       empspacing="5"
       visible="true"
       enabled="true"
       snapvisiblegridlinesonly="true"
       units="in"
       spacingx="9"
       spacingy="9"
       originx="0"
       originy="0" />
    <sodipodi:guide
       position="-139.69462,-586.125"
       orientation="0,765"
       id="guide3042"
       inkscape:locked="false" />
    <sodipodi:guide
       position="625.30538,-586.125"
       orientation="-990,0"
       id="guide3044"
       inkscape:locked="false" />
    <sodipodi:guide
       position="625.30538,403.875"
       orientation="0,-765"
       id="guide3046"
       inkscape:locked="false" />
    <sodipodi:guide
       position="-139.69462,403.875"
       orientation="990,0"
       id="guide3048"
       inkscape:locked="false" />
    <sodipodi:guide
       position="580.30538,-541.125"
       orientation="0,765"
       id="guide3050"
       inkscape:locked="false" />
    <sodipodi:guide
       position="580.30538,313.875"
       orientation="-990,0"
       id="guide3052"
       inkscape:locked="false" />
    <sodipodi:guide
       position="-76.694616,313.875"
       orientation="0,-765"
       id="guide3054"
       inkscape:locked="false" />
    <sodipodi:guide
       position="-49.694616,340.875"
       orientation="990,0"
       id="guide3056"
       inkscape:locked="false" />
  </sodipodi:namedview>
  <script
     xlink:href=""
     id="script3033" />
  <defs
     id="defs4">
    <marker
       style="overflow:visible"
       id="Arrow2Lstart"
       refX="0.0"
       refY="0.0"
       orient="auto"
       inkscape:stockid="Arrow2Lstart">
      <path
         transform="scale(1.1) translate(1,0)"
         d="M 8.7185878,4.0337352 L -2.2072895,0.016013256 L 8.7185884,-4.0017078 C 6.9730900,-1.6296469 6.9831476,1.6157441 8.7185878,4.0337352 z "
         style="font-size:12.0;fill-rule:evenodd;stroke-width:0.62500000;stroke-linejoin:round"
         id="path4891" />
    </marker>
    <marker
       style="overflow:visible;"
       id="Arrow2Lend"
       refX="0.0"
       refY="0.0"
       orient="auto"
       inkscape:stockid="Arrow2Lend">
      <path
         transform="scale(1.1) rotate(180) translate(1,0)"
         d="M 8.7185878,4.0337352 L -2.2072895,0.016013256 L 8.7185884,-4.0017078 C 6.9730900,-1.6296469 6.9831476,1.6157441 8.7185878,4.0337352 z "
         style="font-size:12.0;fill-rule:evenodd;stroke-width:0.62500000;stroke-linejoin:round;"
         id="path4894" />
    </marker>
    <marker
       style="overflow:visible;"
       id="Arrow2Mend"
       refX="0.0"
       refY="0.0"
       orient="auto"
       inkscape:stockid="Arrow2Mend">
      <path
         transform="scale(0.6) rotate(180) translate(0,0)"
         d="M 8.7185878,4.0337352 L -2.2072895,0.016013256 L 8.7185884,-4.0017078 C 6.9730900,-1.6296469 6.9831476,1.6157441 8.7185878,4.0337352 z "
         style="font-size:12.0;fill-rule:evenodd;stroke-width:0.62500000;stroke-linejoin:round;"
         id="path4900" />
    </marker>
    <marker
       style="overflow:visible"
       id="Arrow2Mstart"
       refX="0.0"
       refY="0.0"
       orient="auto"
       inkscape:stockid="Arrow2Mstart">
      <path
         transform="scale(0.6) translate(0,0)"
         d="M 8.7185878,4.0337352 L -2.2072895,0.016013256 L 8.7185884,-4.0017078 C 6.9730900,-1.6296469 6.9831476,1.6157441 8.7185878,4.0337352 z "
         style="font-size:12.0;fill-rule:evenodd;stroke-width:0.62500000;stroke-linejoin:round"
         id="path4897" />
    </marker>
    <pattern
       patternTransform="matrix(0.99796804,0,0,1.3640134,185.96132,334.29738)"
       id="pattern6293"
       xlink:href="#pattern3421"
       inkscape:collect="always" />
    <marker
       inkscape:stockid="Arrow1Mend"
       orient="auto"
       refY="0"
       refX="0"
       id="Arrow1Mend"
       style="overflow:visible">
      <path
         id="path4882"
         d="M 0,0 5,-5 -12.5,0 5,5 0,0 z"
         style="fill-rule:evenodd;stroke:#000000;stroke-width:1pt;marker-start:none"
         transform="matrix(-0.4,0,0,-0.4,-4,0)"
         inkscape:connector-curvature="0" />
    </marker>
    <!-- markers by NMH <nholtz@cee.carleton.ca> -->
    <marker
       inkscape:stockid="DimensionTick"
       orient="auto"
       refY="0"
       refX="0"
       id="DimensionTick"
       style="overflow:visible">
      <path
         d="M 0,0 8,8"
         style="stroke:#000000;stroke-width:1pt;marker-start:none"
         transform="translate(-4,-4)"
         id="path6"
         inkscape:connector-curvature="0" />
    </marker>
    <marker
       inkscape:stockid="TrussNodeS"
       orient="auto"
       refY="0"
       refX="0"
       id="TrussNodeS"
       markerUnits="userSpaceOnUse"
       style="overflow:visible">
      <circle
         cx="0"
         cy="0"
         r="3"
         style="fill:#ffffff;stroke:#000000;stroke-width:1"
         id="circle9"
         sodipodi:cx="0"
         sodipodi:cy="0"
         sodipodi:rx="3"
         sodipodi:ry="3" />
    </marker>
    <marker
       inkscape:stockid="TrussNodeM"
       orient="auto"
       refY="0"
       refX="0"
       id="TrussNodeM"
       markerUnits="userSpaceOnUse"
       style="overflow:visible">
      <circle
         cx="0"
         cy="0"
         r="4"
         style="fill:#ffffff;stroke:#000000;stroke-width:1"
         id="circle12"
         sodipodi:cx="0"
         sodipodi:cy="0"
         sodipodi:rx="4"
         sodipodi:ry="4" />
    </marker>
    <pattern
       patternTransform="matrix(0.99796804,0,0,1.3640134,182.45637,334.29738)"
       id="pattern3421"
       xlink:href="#pattern4949"
       inkscape:collect="always" />
    <pattern
       inkscape:collect="always"
       xlink:href="#pattern4380"
       id="pattern4949"
       patternTransform="matrix(0.99796804,0,0,1.3640134,316.09135,828.80233)" />
    <pattern
       patternUnits="userSpaceOnUse"
       width="36"
       height="83.375"
       patternTransform="translate(216,485.362)"
       id="pattern4380">
      <g
         id="g4376"
         transform="translate(-216,-485.362)">
        <polygon
           style="fill:#f0f0f0;stroke:none;visibility:visible"
           points="360,0 0,0 0,-12 360,-12 "
           class="dload"
           id="polygon3581-2"
           transform="matrix(0.1,0,0,6.75,216,566.362)" />
        <path
           style="fill:none;stroke:#000000;stroke-width:1.58746088;marker-end:url(#CLArrowEnd);visibility:visible"
           inkscape:connector-curvature="0"
           class="cload"
           d="m 234,485.362 0,78.625"
           id="path3627-7" />
      </g>
    </pattern>
    <marker
       refY="3"
       refX="7"
       viewBox="0 0 10 6"
       orient="auto"
       markerHeight="6"
       markerWidth="10"
       markerUnits="userSpaceOnUse"
       id="CLArrowEnd">
      <path
         inkscape:connector-curvature="0"
         id="path3451"
         d="M 0,0 10,3 0,6 2,3 z" />
    </marker>
  </defs>
  <metadata
     id="metadata7">
    <rdf:RDF>
      <cc:Work
         rdf:about="">
        <dc:format>image/svg+xml</dc:format>
        <dc:type
           rdf:resource="http://purl.org/dc/dcmitype/StillImage" />
        <dc:title />
        <cc:license
           rdf:resource="http://creativecommons.org/licenses/by-nc/3.0/" />
      </cc:Work>
      <cc:License
         rdf:about="http://creativecommons.org/licenses/by-nc/3.0/">
        <cc:permits
           rdf:resource="http://creativecommons.org/ns#Reproduction" />
        <cc:permits
           rdf:resource="http://creativecommons.org/ns#Distribution" />
        <cc:requires
           rdf:resource="http://creativecommons.org/ns#Notice" />
        <cc:requires
           rdf:resource="http://creativecommons.org/ns#Attribution" />
        <cc:prohibits
           rdf:resource="http://creativecommons.org/ns#CommercialUse" />
        <cc:permits
           rdf:resource="http://creativecommons.org/ns#DerivativeWorks" />
      </cc:License>
    </rdf:RDF>
  </metadata>
  <g
     inkscape:label="Layer 1"
     inkscape:groupmode="layer"
     id="layer1"
     transform="translate(-139.69462,-292.24496)">
    <rect
       style="fill:url(#pattern6293);fill-opacity:1;stroke:#000000;stroke-width:0.90483356"
       id="rect3421"
       width="360"
       height="18"
       x="184.87003"
       y="314.85706" />
    <path
       style="fill:#808080;fill-opacity:1;fill-rule:nonzero;stroke:#000000;stroke-width:3;stroke-linecap:square;stroke-linejoin:miter;stroke-miterlimit:4;stroke-opacity:1;stroke-dasharray:none;stroke-dashoffset:0"
       d="m 184.86997,332.85705 180,0 180,0"
       id="path3001"
       inkscape:connector-curvature="0" />
    <text
       xml:space="preserve"
       style="font-style:normal;font-variant:normal;font-weight:normal;font-stretch:normal;line-height:0%;font-family:Verdana;-inkscape-font-specification:Sans;text-align:start;letter-spacing:0px;word-spacing:0px;writing-mode:lr-tb;text-anchor:start;fill:#000000;fill-opacity:1;stroke:none"
       x="314.31674"
       y="307.24448"
       id="text3446"><tspan
         sodipodi:role="line"
         id="tspan3448"
         x="314.31674"
         y="307.24448"
         style="font-size:11px;line-height:1.25">w</tspan></text>
    <path
       style="fill:#808080;fill-opacity:1;fill-rule:nonzero;stroke:#4d4d4d;stroke-width:0.75;stroke-linecap:square;stroke-linejoin:miter;stroke-miterlimit:4;stroke-opacity:1;stroke-dasharray:none;stroke-dashoffset:0"
       d="m 184.86997,365.85705 0,18"
       id="path3458"
       inkscape:connector-curvature="0" />
    <path
       style="fill:#808080;fill-opacity:1;fill-rule:nonzero;stroke:#4d4d4d;stroke-width:0.75;stroke-linecap:square;stroke-linejoin:miter;stroke-miterlimit:4;stroke-opacity:1;stroke-dasharray:none;stroke-dashoffset:0"
       d="m 364.86997,365.85705 0,18"
       id="path3460"
       inkscape:connector-curvature="0" />
    <path
       style="fill:#808080;fill-opacity:1;fill-rule:nonzero;stroke:#4d4d4d;stroke-width:0.75;stroke-linecap:square;stroke-linejoin:miter;stroke-miterlimit:4;stroke-opacity:1;stroke-dasharray:none;stroke-dashoffset:0"
       d="m 544.86997,365.85705 0,18"
       id="path3462"
       inkscape:connector-curvature="0" />
    <path
       style="fill:#808080;fill-opacity:1;fill-rule:nonzero;stroke:#4d4d4d;stroke-width:0.72000003;stroke-linecap:square;stroke-linejoin:miter;stroke-miterlimit:4;stroke-opacity:1;stroke-dasharray:none;stroke-dashoffset:0;marker-start:url(#DimensionTick);marker-mid:url(#DimensionTick);marker-end:url(#DimensionTick)"
       d="m 184.86997,374.85705 180,0 180,0"
       id="path3464"
       inkscape:connector-curvature="0" />
    <text
       xml:space="preserve"
       style="font-style:normal;font-variant:normal;font-weight:normal;font-stretch:normal;line-height:0%;font-family:Verdana;-inkscape-font-specification:Sans;text-align:start;letter-spacing:0px;word-spacing:0px;writing-mode:lr-tb;text-anchor:start;fill:#000000;fill-opacity:1;stroke:none"
       x="272.76971"
       y="370.85706"
       id="text4822"><tspan
         sodipodi:role="line"
         id="tspan4824"
         x="272.76971"
         y="370.85706"
         style="font-size:11px;line-height:1.25">L</tspan></text>
    <text
       xml:space="preserve"
       style="font-style:normal;font-variant:normal;font-weight:normal;font-stretch:normal;line-height:0%;font-family:Verdana;-inkscape-font-specification:Sans;text-align:start;letter-spacing:0px;word-spacing:0px;writing-mode:lr-tb;text-anchor:start;fill:#000000;fill-opacity:1;stroke:none"
       x="453.63779"
       y="370.65314"
       id="text4826"><tspan
         sodipodi:role="line"
         id="tspan4828"
         x="453.63779"
         y="370.65314"
         style="font-size:11px;line-height:1.25">L</tspan></text>
    <path
       style="fill:#808080;fill-opacity:1;fill-rule:nonzero;stroke:#000000;stroke-width:1.5;stroke-linecap:square;stroke-linejoin:miter;stroke-miterlimit:4;stroke-opacity:1;stroke-dasharray:none;stroke-dashoffset:0;marker-end:url(#Arrow1Mend)"
       d="m 185.01207,363.7469 0,-27"
       id="path4868"
       inkscape:connector-curvature="0" />
    <path
       inkscape:connector-curvature="0"
       id="path5322"
       d="m 365.01207,365.23205 0,-27"
       style="fill:#808080;fill-opacity:1;fill-rule:nonzero;stroke:#000000;stroke-width:1.5;stroke-linecap:square;stroke-linejoin:miter;stroke-miterlimit:4;stroke-opacity:1;stroke-dasharray:none;stroke-dashoffset:0;marker-end:url(#Arrow1Mend)" />
    <path
       style="fill:#808080;fill-opacity:1;fill-rule:nonzero;stroke:#000000;stroke-width:1.5;stroke-linecap:square;stroke-linejoin:miter;stroke-miterlimit:4;stroke-opacity:1;stroke-dasharray:none;stroke-dashoffset:0;marker-end:url(#Arrow1Mend)"
       d="m 544.51702,363.7469 0,-27"
       id="path5324"
       inkscape:connector-curvature="0" />
    <path
       inkscape:connector-curvature="0"
       id="path5326"
       d="m 152.94957,333.18935 27,0"
       style="fill:#808080;fill-opacity:1;fill-rule:nonzero;stroke:#000000;stroke-width:1.5;stroke-linecap:square;stroke-linejoin:miter;stroke-miterlimit:4;stroke-opacity:1;stroke-dasharray:none;stroke-dashoffset:0;marker-end:url(#Arrow1Mend)" />
    <text
       xml:space="preserve"
       style="font-style:italic;font-variant:normal;font-weight:normal;font-stretch:normal;line-height:0%;font-family:Verdana;-inkscape-font-specification:'Sans Italic';text-align:start;letter-spacing:0px;word-spacing:0px;writing-mode:lr-tb;text-anchor:start;fill:#000000;fill-opacity:1;stroke:none"
       x="188.27943"
       y="340.18256"
       id="text5328"><tspan
         sodipodi:role="line"
         id="tspan5330"
         x="188.27943"
         y="340.18256"
         style="font-size:9px;line-height:1.25">a</tspan></text>
    <text
       xml:space="preserve"
       style="font-style:italic;font-variant:normal;font-weight:normal;font-stretch:normal;line-height:0%;font-family:Verdana;-inkscape-font-specification:'Sans Italic';text-align:start;letter-spacing:0px;word-spacing:0px;writing-mode:lr-tb;text-anchor:start;fill:#000000;fill-opacity:1;stroke:none"
       x="367.46756"
       y="341.66769"
       id="text5332"><tspan
         sodipodi:role="line"
         id="tspan5334"
         x="367.46756"
         y="341.66769"
         style="font-size:9px;line-height:1.25">b</tspan></text>
    <text
       xml:space="preserve"
       style="font-style:italic;font-variant:normal;font-weight:normal;font-stretch:normal;line-height:0%;font-family:Verdana;-inkscape-font-specification:'Sans Italic';text-align:start;letter-spacing:0px;word-spacing:0px;writing-mode:lr-tb;text-anchor:start;fill:#000000;fill-opacity:1;stroke:none"
       x="536.81409"
       y="340.20233"
       id="text5336"><tspan
         sodipodi:role="line"
         id="tspan5338"
         x="536.81409"
         y="340.20233"
         style="font-size:9px;line-height:1.25">c</tspan></text>
    <text
       xml:space="preserve"
       style="font-style:normal;font-variant:normal;font-weight:normal;font-stretch:normal;line-height:0%;font-family:Verdana;-inkscape-font-specification:Sans;text-align:start;letter-spacing:0px;word-spacing:0px;writing-mode:lr-tb;text-anchor:start;fill:#000000;fill-opacity:1;stroke:none"
       x="155.09131"
       y="327.82611"
       id="text5340"><tspan
         sodipodi:role="line"
         id="tspan5342"
         x="155.09131"
         y="327.82611"
         style="font-size:11px;line-height:1.25">H<tspan
   style="font-size:65.00091553%;baseline-shift:sub"
   id="tspan5362">a0</tspan></tspan></text>
    <text
       xml:space="preserve"
       style="font-style:normal;font-variant:normal;font-weight:normal;font-stretch:normal;line-height:0%;font-family:Verdana;-inkscape-font-specification:Sans;text-align:start;letter-spacing:0px;word-spacing:0px;writing-mode:lr-tb;text-anchor:start;fill:#000000;fill-opacity:1;stroke:none"
       x="188.79428"
       y="359.01422"
       id="text5344"><tspan
         sodipodi:role="line"
         id="tspan5346"
         x="188.79428"
         y="359.01422"
         style="font-size:11px;line-height:1.25">V<tspan
   style="font-size:65.00091553%;baseline-shift:sub"
   id="tspan5360">a0</tspan></tspan></text>
    <text
       xml:space="preserve"
       style="font-style:normal;font-variant:normal;font-weight:normal;font-stretch:normal;line-height:0%;font-family:Verdana;-inkscape-font-specification:Sans;text-align:start;letter-spacing:0px;word-spacing:0px;writing-mode:lr-tb;text-anchor:start;fill:#000000;fill-opacity:1;stroke:none"
       x="368.99228"
       y="358.51917"
       id="text5348"><tspan
         sodipodi:role="line"
         id="tspan5350"
         x="368.99228"
         y="358.51917"
         style="font-size:11px;line-height:1.25">V<tspan
   style="font-size:65.00091553%;baseline-shift:sub"
   id="tspan5358">b0</tspan></tspan></text>
    <text
       xml:space="preserve"
       style="font-style:normal;font-variant:normal;font-weight:normal;font-stretch:normal;line-height:0%;font-family:Verdana;-inkscape-font-specification:Sans;text-align:start;letter-spacing:0px;word-spacing:0px;writing-mode:lr-tb;text-anchor:start;fill:#000000;fill-opacity:1;stroke:none"
       x="527.40808"
       y="358.02411"
       id="text5352"><tspan
         sodipodi:role="line"
         id="tspan5354"
         x="527.40808"
         y="358.02411"
         style="font-size:11px;line-height:1.25">V<tspan
   style="font-size:65.00091553%;baseline-shift:sub"
   id="tspan5356">c0</tspan></tspan></text>
    <g
       id="use3513"
       transform="matrix(1.25,0,0,1.25,364.59167,333.21617)">
      <circle
         d="M 2.5,0 C 2.5,1.3807119 1.3807119,2.5 0,2.5 -1.3807119,2.5 -2.5,1.3807119 -2.5,0 c 0,-1.3807119 1.1192881,-2.5 2.5,-2.5 1.3807119,0 2.5,1.1192881 2.5,2.5 z"
         cx="0"
         cy="0"
         r="2.5"
         id="circle3573"
         sodipodi:cx="0"
         sodipodi:cy="0"
         sodipodi:rx="2.5"
         sodipodi:ry="2.5"
         style="fill:#ffffff;stroke:#000000;stroke-width:1" />
    </g>
    <path
       style="fill:#e6e6e6;fill-opacity:1;fill-rule:nonzero;stroke:#000000;stroke-width:1;stroke-linecap:square;stroke-linejoin:miter;stroke-miterlimit:4;stroke-opacity:1;stroke-dasharray:none;stroke-dashoffset:0"
       d="m 544.73422,456.73699 -180,0 -180,0 c 0,0 36,-45 90,-45 54,0 90,45 90,45 0,0 36,-45 90,-45 54,0 90,45 90,45 z"
       id="path6120"
       inkscape:connector-curvature="0"
       sodipodi:nodetypes="ccczczc" />
    <g
       style="font-style:normal;font-variant:normal;font-weight:normal;font-stretch:normal;letter-spacing:normal;word-spacing:normal;text-anchor:start;fill:none;stroke:#000000;stroke-linecap:butt;stroke-linejoin:miter;stroke-miterlimit:10.43299961;stroke-opacity:1;stroke-dasharray:none;stroke-dashoffset:0"
       id="content"
       transform="matrix(1.1,0,0,-1.1,73.037215,1168.223)"
       xml:space="preserve"
       stroke-miterlimit="10.433"
       font-style="normal"
       font-variant="normal"
       font-weight="normal"
       font-stretch="normal"
       font-size-adjust="none"
       letter-spacing="normal"
       word-spacing="normal"
       ns0:text="\\[\n\\frac{wL^2}{8}\n\\]\n"
       ns0:preamble="">
<path
   style="fill:#000000;stroke-width:0"
   inkscape:connector-curvature="0"
   d="m 159.3,706.7 0,0.02 0.01,0.03 0,0.02 0.01,0.03 0.01,0.02 0,0.03 0.02,0.05 0.01,0.06 0.01,0.05 0.02,0.06 0.01,0.05 0.01,0.03 0,0.02 0.01,0.03 0,0.02 0.01,0.02 0,0.03 0.01,0.02 0,0.02 0.01,0.01 0,0.02 0,0.02 0.01,0.01 0,0.01 0,0.01 0,0.01 0,0.01 c 0,0.2 -0.15,0.29 -0.31,0.29 -0.14,0 -0.33,-0.08 -0.41,-0.3 -0.03,-0.08 -0.54,-2.16 -0.62,-2.44 -0.08,-0.33 -0.1,-0.52 -0.1,-0.72 0,-0.12 0,-0.14 0.01,-0.2 -0.25,-0.57 -0.57,-0.91 -1,-0.91 -0.87,0 -0.87,0.81 -0.87,0.99 0,0.35 0.06,0.78 0.57,2.11 0.12,0.33 0.18,0.48 0.18,0.7 0,0.49 -0.36,0.89 -0.89,0.89 -1.03,0 -1.44,-1.58 -1.44,-1.67 0,-0.11 0.11,-0.11 0.13,-0.11 0.11,0 0.12,0.02 0.18,0.19 0.29,1.02 0.72,1.35 1.1,1.35 0.1,0 0.27,-0.01 0.27,-0.36 0,-0.27 -0.12,-0.57 -0.2,-0.76 -0.47,-1.28 -0.61,-1.78 -0.61,-2.2 0,-0.99 0.73,-1.37 1.55,-1.37 0.18,0 0.7,0 1.13,0.76 0.29,-0.69 1.04,-0.76 1.36,-0.76 0.82,0 1.3,0.69 1.58,1.34 0.37,0.85 0.72,2.31 0.72,2.83 0,0.6 -0.29,0.76 -0.48,0.76 -0.27,0 -0.54,-0.28 -0.54,-0.52 0,-0.14 0.06,-0.21 0.16,-0.29 0.12,-0.12 0.39,-0.41 0.39,-0.93 0,-0.37 -0.31,-1.44 -0.6,-1.99 -0.28,-0.58 -0.66,-0.96 -1.19,-0.96 -0.52,0 -0.81,0.33 -0.81,0.95 0,0.3 0.08,0.64 0.12,0.79 z"
   id="path6195" />
<path
   style="fill:#000000;stroke-width:0"
   inkscape:connector-curvature="0"
   d="m 166.44,709.6 0.01,0.03 0.01,0.04 0.01,0.03 0.01,0.03 0.01,0.03 0.01,0.03 0.01,0.03 0.01,0.02 0.01,0.03 0.02,0.02 0.01,0.02 0.02,0.02 0.02,0.02 0.02,0.02 0.03,0.02 0.02,0.01 0.03,0.02 0.04,0.01 0.03,0.01 0.04,0.01 0.02,0.01 0.02,0 0.02,0.01 0.03,0 0.02,0 0.03,0.01 0.02,0 0.03,0.01 0.03,0 0.03,0 0.03,0 0.03,0.01 0.03,0 0.04,0 0.03,0 0.04,0 0.04,0.01 0.04,0 0.04,0 0.04,0 0.04,0 0.04,0 0.05,0 0.05,0 c 0.33,0 0.41,0 0.41,0.21 0,0.13 -0.12,0.13 -0.17,0.13 -0.36,0 -1.25,-0.04 -1.61,-0.04 -0.33,0 -1.13,0.04 -1.45,0.04 -0.08,0 -0.21,0 -0.21,-0.22 0,-0.12 0.1,-0.12 0.31,-0.12 0.02,0 0.22,0 0.41,-0.02 0.2,-0.02 0.29,-0.03 0.29,-0.18 0,-0.04 -0.01,-0.07 -0.04,-0.2 l -1.46,-5.85 c -0.11,-0.42 -0.13,-0.51 -0.99,-0.51 -0.19,0 -0.29,0 -0.29,-0.22 0,-0.12 0.09,-0.12 0.29,-0.12 h 5.04 c 0.26,0 0.27,0 0.34,0.19 l 0.86,2.35 c 0.04,0.12 0.04,0.14 0.04,0.15 0,0.04 -0.03,0.12 -0.13,0.12 -0.1,0 -0.11,-0.05 -0.18,-0.23 -0.37,-1 -0.85,-2.24 -2.74,-2.24 h -1.02 c -0.15,0 -0.17,0 -0.24,0.01 -0.11,0.01 -0.14,0.02 -0.14,0.11 0,0.03 0,0.05 0.05,0.25 z"
   id="path6197" />
<path
   style="fill:#000000;stroke-width:0"
   inkscape:connector-curvature="0"
   d="m 172.04,708.59 0.01,0.01 0.01,0.01 0.02,0.02 0.01,0.01 0.02,0.02 0.02,0.01 0.02,0.02 0.02,0.01 0.02,0.02 0.02,0.02 0.04,0.03 0.04,0.04 0.04,0.03 0.05,0.04 0.04,0.03 0.04,0.03 0.02,0.02 0.02,0.02 0.02,0.01 0.02,0.02 0.01,0.01 0.02,0.02 0.02,0.01 0.01,0.01 0.01,0.01 0.02,0.01 c 0.49,0.46 0.96,0.89 0.96,1.62 0,0.94 -0.8,1.56 -1.79,1.56 -0.95,0 -1.58,-0.73 -1.58,-1.44 0,-0.39 0.31,-0.44 0.42,-0.44 0.16,0 0.41,0.12 0.41,0.42 0,0.41 -0.4,0.41 -0.49,0.41 0.23,0.58 0.76,0.78 1.15,0.78 0.74,0 1.12,-0.63 1.12,-1.29 0,-0.83 -0.58,-1.43 -1.52,-2.4 l -1,-1.03 c -0.09,-0.09 -0.09,-0.1 -0.09,-0.3 h 3.14 l 0.23,1.42 h -0.25 c -0.02,-0.16 -0.08,-0.55 -0.18,-0.71 -0.05,-0.06 -0.65,-0.06 -0.78,-0.06 h -1.42 z"
   id="path6199" />
<line
   style="stroke-width:0.398"
   x1="154.27"
   y1="698.35999"
   x2="174.53"
   y2="698.35999"
   id="line6201" />
<path
   style="fill:#000000;stroke-width:0"
   inkscape:connector-curvature="0"
   d="m 165.03,692.09 0.08,0.04 0.07,0.04 0.07,0.04 0.07,0.04 0.06,0.04 0.07,0.04 0.06,0.05 0.06,0.04 0.06,0.05 0.06,0.04 0.05,0.05 0.06,0.05 0.05,0.05 0.05,0.05 0.04,0.05 0.05,0.06 0.04,0.05 0.04,0.05 0.04,0.06 0.03,0.05 0.03,0.06 0.03,0.06 0.03,0.06 0.03,0.06 0.02,0.06 0.02,0.06 0.01,0.06 0.02,0.06 0.01,0.07 0,0.06 0.01,0.07 0,0.07 c 0,1 -0.97,1.62 -1.96,1.62 l -0.01,-0.27 c 0.8,0 1.49,-0.57 1.49,-1.35 0,-0.62 -0.42,-1.15 -1.08,-1.53 l -1.35,0.87 c -0.5,0.33 -0.54,0.7 -0.54,0.89 0,0.66 0.71,1.12 1.48,1.12 l 0.01,0.27 c -1.09,0 -1.97,-0.81 -1.97,-1.82 0,-0.19 0.02,-0.68 0.48,-1.2 0.12,-0.13 0.52,-0.4 0.79,-0.58 l 0.26,-0.17 1.33,-0.85 c 0.31,-0.2 0.82,-0.53 0.82,-1.19 0,-0.81 -0.82,-1.38 -1.71,-1.38 -0.93,0 -1.72,0.68 -1.72,1.58 0,0.63 0.35,1.33 1.28,1.84 h 0 l -0.26,0.17 c -0.63,-0.32 -1.56,-0.93 -1.56,-2.01 0,-1.15 1.11,-1.88 2.25,-1.88 1.23,0 2.27,0.9 2.27,2.07 0,0.39 -0.13,0.88 -0.54,1.34 -0.21,0.22 -0.38,0.33 -1.08,0.77 z"
   id="path6203" />
</g>    <g
       ns0:preamble=""
       ns0:text="\\[\n\\frac{wL^2}{8}\n\\]\n"
       word-spacing="normal"
       letter-spacing="normal"
       font-size-adjust="none"
       font-stretch="normal"
       font-weight="normal"
       font-variant="normal"
       font-style="normal"
       stroke-miterlimit="10.433"
       xml:space="preserve"
       transform="matrix(1.1,0,0,-1.1,293.75122,1168.223)"
       id="g6281"
       style="font-style:normal;font-variant:normal;font-weight:normal;font-stretch:normal;letter-spacing:normal;word-spacing:normal;text-anchor:start;fill:none;stroke:#000000;stroke-linecap:butt;stroke-linejoin:miter;stroke-miterlimit:10.43299961;stroke-opacity:1;stroke-dasharray:none;stroke-dashoffset:0">
<path
   id="path6283"
   d="m 159.3,706.7 0,0.02 0.01,0.03 0,0.02 0.01,0.03 0.01,0.02 0,0.03 0.02,0.05 0.01,0.06 0.01,0.05 0.02,0.06 0.01,0.05 0.01,0.03 0,0.02 0.01,0.03 0,0.02 0.01,0.02 0,0.03 0.01,0.02 0,0.02 0.01,0.01 0,0.02 0,0.02 0.01,0.01 0,0.01 0,0.01 0,0.01 0,0.01 c 0,0.2 -0.15,0.29 -0.31,0.29 -0.14,0 -0.33,-0.08 -0.41,-0.3 -0.03,-0.08 -0.54,-2.16 -0.62,-2.44 -0.08,-0.33 -0.1,-0.52 -0.1,-0.72 0,-0.12 0,-0.14 0.01,-0.2 -0.25,-0.57 -0.57,-0.91 -1,-0.91 -0.87,0 -0.87,0.81 -0.87,0.99 0,0.35 0.06,0.78 0.57,2.11 0.12,0.33 0.18,0.48 0.18,0.7 0,0.49 -0.36,0.89 -0.89,0.89 -1.03,0 -1.44,-1.58 -1.44,-1.67 0,-0.11 0.11,-0.11 0.13,-0.11 0.11,0 0.12,0.02 0.18,0.19 0.29,1.02 0.72,1.35 1.1,1.35 0.1,0 0.27,-0.01 0.27,-0.36 0,-0.27 -0.12,-0.57 -0.2,-0.76 -0.47,-1.28 -0.61,-1.78 -0.61,-2.2 0,-0.99 0.73,-1.37 1.55,-1.37 0.18,0 0.7,0 1.13,0.76 0.29,-0.69 1.04,-0.76 1.36,-0.76 0.82,0 1.3,0.69 1.58,1.34 0.37,0.85 0.72,2.31 0.72,2.83 0,0.6 -0.29,0.76 -0.48,0.76 -0.27,0 -0.54,-0.28 -0.54,-0.52 0,-0.14 0.06,-0.21 0.16,-0.29 0.12,-0.12 0.39,-0.41 0.39,-0.93 0,-0.37 -0.31,-1.44 -0.6,-1.99 -0.28,-0.58 -0.66,-0.96 -1.19,-0.96 -0.52,0 -0.81,0.33 -0.81,0.95 0,0.3 0.08,0.64 0.12,0.79 z"
   inkscape:connector-curvature="0"
   style="fill:#000000;stroke-width:0" />
<path
   id="path6285"
   d="m 166.44,709.6 0.01,0.03 0.01,0.04 0.01,0.03 0.01,0.03 0.01,0.03 0.01,0.03 0.01,0.03 0.01,0.02 0.01,0.03 0.02,0.02 0.01,0.02 0.02,0.02 0.02,0.02 0.02,0.02 0.03,0.02 0.02,0.01 0.03,0.02 0.04,0.01 0.03,0.01 0.04,0.01 0.02,0.01 0.02,0 0.02,0.01 0.03,0 0.02,0 0.03,0.01 0.02,0 0.03,0.01 0.03,0 0.03,0 0.03,0 0.03,0.01 0.03,0 0.04,0 0.03,0 0.04,0 0.04,0.01 0.04,0 0.04,0 0.04,0 0.04,0 0.04,0 0.05,0 0.05,0 c 0.33,0 0.41,0 0.41,0.21 0,0.13 -0.12,0.13 -0.17,0.13 -0.36,0 -1.25,-0.04 -1.61,-0.04 -0.33,0 -1.13,0.04 -1.45,0.04 -0.08,0 -0.21,0 -0.21,-0.22 0,-0.12 0.1,-0.12 0.31,-0.12 0.02,0 0.22,0 0.41,-0.02 0.2,-0.02 0.29,-0.03 0.29,-0.18 0,-0.04 -0.01,-0.07 -0.04,-0.2 l -1.46,-5.85 c -0.11,-0.42 -0.13,-0.51 -0.99,-0.51 -0.19,0 -0.29,0 -0.29,-0.22 0,-0.12 0.09,-0.12 0.29,-0.12 h 5.04 c 0.26,0 0.27,0 0.34,0.19 l 0.86,2.35 c 0.04,0.12 0.04,0.14 0.04,0.15 0,0.04 -0.03,0.12 -0.13,0.12 -0.1,0 -0.11,-0.05 -0.18,-0.23 -0.37,-1 -0.85,-2.24 -2.74,-2.24 h -1.02 c -0.15,0 -0.17,0 -0.24,0.01 -0.11,0.01 -0.14,0.02 -0.14,0.11 0,0.03 0,0.05 0.05,0.25 z"
   inkscape:connector-curvature="0"
   style="fill:#000000;stroke-width:0" />
<path
   id="path6287"
   d="m 172.04,708.59 0.01,0.01 0.01,0.01 0.02,0.02 0.01,0.01 0.02,0.02 0.02,0.01 0.02,0.02 0.02,0.01 0.02,0.02 0.02,0.02 0.04,0.03 0.04,0.04 0.04,0.03 0.05,0.04 0.04,0.03 0.04,0.03 0.02,0.02 0.02,0.02 0.02,0.01 0.02,0.02 0.01,0.01 0.02,0.02 0.02,0.01 0.01,0.01 0.01,0.01 0.02,0.01 c 0.49,0.46 0.96,0.89 0.96,1.62 0,0.94 -0.8,1.56 -1.79,1.56 -0.95,0 -1.58,-0.73 -1.58,-1.44 0,-0.39 0.31,-0.44 0.42,-0.44 0.16,0 0.41,0.12 0.41,0.42 0,0.41 -0.4,0.41 -0.49,0.41 0.23,0.58 0.76,0.78 1.15,0.78 0.74,0 1.12,-0.63 1.12,-1.29 0,-0.83 -0.58,-1.43 -1.52,-2.4 l -1,-1.03 c -0.09,-0.09 -0.09,-0.1 -0.09,-0.3 h 3.14 l 0.23,1.42 h -0.25 c -0.02,-0.16 -0.08,-0.55 -0.18,-0.71 -0.05,-0.06 -0.65,-0.06 -0.78,-0.06 h -1.42 z"
   inkscape:connector-curvature="0"
   style="fill:#000000;stroke-width:0" />
<line
   id="line6289"
   y2="698.35999"
   x2="174.53"
   y1="698.35999"
   x1="154.27"
   style="stroke-width:0.398" />
<path
   id="path6291"
   d="m 165.03,692.09 0.08,0.04 0.07,0.04 0.07,0.04 0.07,0.04 0.06,0.04 0.07,0.04 0.06,0.05 0.06,0.04 0.06,0.05 0.06,0.04 0.05,0.05 0.06,0.05 0.05,0.05 0.05,0.05 0.04,0.05 0.05,0.06 0.04,0.05 0.04,0.05 0.04,0.06 0.03,0.05 0.03,0.06 0.03,0.06 0.03,0.06 0.03,0.06 0.02,0.06 0.02,0.06 0.01,0.06 0.02,0.06 0.01,0.07 0,0.06 0.01,0.07 0,0.07 c 0,1 -0.97,1.62 -1.96,1.62 l -0.01,-0.27 c 0.8,0 1.49,-0.57 1.49,-1.35 0,-0.62 -0.42,-1.15 -1.08,-1.53 l -1.35,0.87 c -0.5,0.33 -0.54,0.7 -0.54,0.89 0,0.66 0.71,1.12 1.48,1.12 l 0.01,0.27 c -1.09,0 -1.97,-0.81 -1.97,-1.82 0,-0.19 0.02,-0.68 0.48,-1.2 0.12,-0.13 0.52,-0.4 0.79,-0.58 l 0.26,-0.17 1.33,-0.85 c 0.31,-0.2 0.82,-0.53 0.82,-1.19 0,-0.81 -0.82,-1.38 -1.71,-1.38 -0.93,0 -1.72,0.68 -1.72,1.58 0,0.63 0.35,1.33 1.28,1.84 h 0 l -0.26,0.17 c -0.63,-0.32 -1.56,-0.93 -1.56,-2.01 0,-1.15 1.11,-1.88 2.25,-1.88 1.23,0 2.27,0.9 2.27,2.07 0,0.39 -0.13,0.88 -0.54,1.34 -0.21,0.22 -0.38,0.33 -1.08,0.77 z"
   inkscape:connector-curvature="0"
   style="fill:#000000;stroke-width:0" />
</g>    <path
       sodipodi:nodetypes="ccc"
       inkscape:connector-curvature="0"
       id="path6297"
       d="m 184.86997,332.85705 c 0,0 89.82465,25.37993 180,0 89.82465,25.37993 180,0 180,0"
       style="fill:none;fill-opacity:1;fill-rule:nonzero;stroke:#800000;stroke-width:1;stroke-linecap:square;stroke-linejoin:miter;stroke-miterlimit:4;stroke-opacity:1;stroke-dasharray:1,2;stroke-dashoffset:0" />
    <path
       inkscape:connector-curvature="0"
       id="path6299"
       d="m 364.69462,332.22708 90,-27"
       style="fill:none;stroke:#4d4d4d;stroke-width:0.50000000000000000;stroke-linecap:square;stroke-linejoin:miter;stroke-miterlimit:4;stroke-opacity:1;stroke-dasharray:1, 2;stroke-dashoffset:0" />
    <path
       inkscape:connector-curvature="0"
       id="path6301"
       d="m 364.69462,333.21718 90,27"
       style="fill:none;stroke:#4d4d4d;stroke-width:0.50000000000000000;stroke-linecap:square;stroke-linejoin:miter;stroke-miterlimit:4;stroke-opacity:1;stroke-dasharray:1, 2;stroke-dashoffset:0" />
    <path
       sodipodi:open="true"
       sodipodi:end="6.5786699"
       sodipodi:start="5.9800036"
       transform="translate(121.69462,276.24496)"
       d="m 320.3057,32.808797 c 4.86226,15.543001 4.92633,32.190738 0.18385,47.770704"
       sodipodi:ry="81"
       sodipodi:rx="81"
       sodipodi:cy="56.99202"
       sodipodi:cx="243"
       id="path6303"
       style="fill:none;stroke:#4d4d4d;stroke-width:0.75000000000000000;stroke-linecap:square;stroke-linejoin:miter;stroke-miterlimit:4;stroke-opacity:1;stroke-dasharray:none;stroke-dashoffset:0;marker-start:url(#Arrow2Lstart);marker-end:url(#Arrow2Lend)"
       sodipodi:type="arc" />
    <g
       ns0:preamble=""
       ns0:text="\\[\n\\theta_{10}\n\\]\n"
       word-spacing="normal"
       letter-spacing="normal"
       font-size-adjust="none"
       font-stretch="normal"
       font-weight="normal"
       font-variant="normal"
       font-style="normal"
       stroke-miterlimit="10.433"
       xml:space="preserve"
       transform="matrix(1.1,0,0,-1.1,308.02662,1127.718)"
       id="g7190"
       style="font-style:normal;font-variant:normal;font-weight:normal;font-stretch:normal;letter-spacing:normal;word-spacing:normal;text-anchor:start;fill:none;stroke:#000000;stroke-linecap:butt;stroke-linejoin:miter;stroke-miterlimit:10.43299961;stroke-opacity:1;stroke-dasharray:none;stroke-dashoffset:0">
<path
   id="path7192"
   d="m 158.02,706.59 0,0.07 0,0.08 0,0.07 -0.01,0.08 0,0.09 -0.01,0.08 -0.01,0.09 -0.01,0.09 -0.02,0.1 -0.01,0.09 -0.02,0.09 -0.03,0.09 -0.02,0.1 -0.03,0.09 -0.03,0.09 -0.03,0.09 -0.04,0.08 -0.04,0.09 -0.04,0.08 -0.05,0.08 -0.05,0.07 -0.06,0.07 -0.06,0.07 -0.06,0.06 -0.07,0.05 -0.03,0.03 -0.04,0.02 -0.04,0.02 -0.03,0.02 -0.04,0.02 -0.05,0.02 -0.04,0.01 -0.04,0.02 -0.05,0.01 -0.04,0.01 -0.05,0 -0.05,0.01 -0.05,0 -0.05,0 -0.01,-0.23 c 0.53,0 0.6,-0.7 0.6,-1.32 0,-0.54 -0.09,-1.09 -0.35,-2.17 h -2.28 c 0.19,0.7 0.41,1.57 0.84,2.34 0.3,0.53 0.7,1.15 1.19,1.15 l 0.01,0.23 c -1.51,0 -3.19,-3.07 -3.19,-5.56 0,-1.02 0.31,-2.23 1.31,-2.23 v 0.24 c -0.36,0 -0.59,0.31 -0.59,1.33 0,0.45 0.06,1.08 0.35,2.15 h 2.26 c -0.12,-0.5 -0.35,-1.42 -0.76,-2.21 -0.38,-0.74 -0.8,-1.27 -1.26,-1.27 v -0.24 c 1.53,0 3.18,3.12 3.18,5.56 z"
   inkscape:connector-curvature="0"
   style="fill:#000000;stroke-width:0" />
<path
   id="path7194"
   d="m 160.69,704.57 0,0.01 0,0.01 0,0.01 0,0.01 0,0.01 0,0.01 0,0.01 0,0 0,0.01 0,0.01 0,0.01 0,0 0,0.01 0,0.01 0,0 0,0.01 -0.01,0 0,0.01 0,0 0,0.01 0,0.01 -0.01,0.01 0,0.01 0,0 -0.01,0.01 0,0.01 -0.01,0 -0.01,0 0,0.01 -0.01,0 -0.01,0.01 -0.01,0 -0.01,0 -0.01,0 -0.01,0 -0.01,0 0,0 -0.01,0 -0.01,0 0,0 -0.01,0 -0.01,0.01 -0.01,0 0,0 -0.01,0 -0.01,0 -0.01,0 -0.01,0 -0.01,0 -0.01,0 c -0.33,-0.32 -0.75,-0.51 -1.5,-0.51 v -0.26 c 0.21,0 0.64,0 1.1,0.21 v -4.08 c 0,-0.29 -0.02,-0.39 -0.78,-0.39 H 159 v -0.26 c 0.33,0.02 1.01,0.02 1.37,0.02 0.36,0 1.05,0 1.38,-0.02 v 0.26 h -0.28 c -0.76,0 -0.78,0.1 -0.78,0.39 z"
   inkscape:connector-curvature="0"
   style="fill:#000000;stroke-width:0" />
<path
   id="path7196"
   d="m 166.32,702.05 0,0.07 0,0.08 0,0.08 -0.01,0.07 0,0.07 0,0.07 0,0.07 -0.01,0.07 0,0.06 -0.01,0.07 -0.01,0.06 0,0.06 -0.02,0.12 -0.02,0.11 -0.02,0.11 -0.03,0.11 -0.02,0.1 -0.04,0.1 -0.03,0.1 -0.04,0.1 -0.04,0.1 -0.05,0.09 c -0.35,0.7 -1,0.88 -1.43,0.88 v -0.23 c 0.27,0 0.82,-0.13 0.97,-0.85 0.1,-0.44 0.1,-1.04 0.1,-1.58 0,-0.47 0,-1.18 -0.1,-1.63 -0.16,-0.83 -0.71,-0.94 -0.97,-0.94 h 0 c -0.28,0 -0.82,0.12 -0.99,0.96 -0.09,0.45 -0.09,1.2 -0.09,1.61 0,0.55 0,1.11 0.09,1.54 0.17,0.81 0.79,0.89 0.99,0.89 v 0.23 c -1.01,0 -1.37,-0.75 -1.49,-0.97 -0.28,-0.58 -0.3,-1.37 -0.3,-1.78 0,-0.53 0.03,-1.33 0.41,-1.97 0.36,-0.59 0.95,-0.74 1.38,-0.74 0.38,0 1.06,0.12 1.46,0.91 0.29,0.57 0.32,1.28 0.32,1.8 z"
   inkscape:connector-curvature="0"
   style="fill:#000000;stroke-width:0" />
</g>    <path
       style="fill:none;stroke:#4d4d4d;stroke-width:0.75000000000000000;stroke-linecap:butt;stroke-linejoin:miter;stroke-opacity:1"
       d="m 307.42574,45.279148 c 14.09652,-1.235655 16.86379,10.404066 26.73268,12.871287"
       id="path7297"
       inkscape:connector-curvature="0"
       transform="translate(139.69462,292.24496)" />
    <text
       xml:space="preserve"
       style="font-style:italic;font-variant:normal;font-weight:normal;font-stretch:normal;line-height:0%;font-family:Verdana;-inkscape-font-specification:'Sans Italic';text-align:start;letter-spacing:0px;word-spacing:0px;writing-mode:lr-tb;text-anchor:start;fill:#800000;fill-opacity:1;stroke:none"
       x="211.93225"
       y="353.86075"
       id="text7299"><tspan
         sodipodi:role="line"
         id="tspan7301"
         x="211.93225"
         y="353.86075"
         style="font-size:9px;line-height:1.25">deflected shape</tspan></text>
    <path
       style="fill:none;stroke:#4d4d4d;stroke-width:0.75000000000000000;stroke-linecap:butt;stroke-linejoin:miter;stroke-opacity:1"
       d="m 170.79208,52.209841 c -0.51719,10.2907 -16.69845,7.920792 -25.74257,7.920792"
       id="path7303"
       inkscape:connector-curvature="0"
       transform="translate(139.69462,292.24496)" />
    <path
       style="fill:none;stroke:#000000;stroke-width:1;stroke-linecap:square;stroke-linejoin:miter;stroke-miterlimit:4;stroke-opacity:1;stroke-dasharray:none;stroke-dashoffset:0"
       d="m 264.4471,437.77163 c 0,0 5.51299,3.46535 8.91089,3.46535 3.3979,0 8.91089,-3.46535 8.91089,-3.46535"
       id="path5608"
       inkscape:connector-curvature="0"
       sodipodi:nodetypes="czc" />
    <text
       xml:space="preserve"
       style="font-style:normal;font-variant:normal;font-weight:normal;font-stretch:normal;line-height:0%;font-family:Verdana;-inkscape-font-specification:Sans;text-align:start;letter-spacing:0px;word-spacing:0px;writing-mode:lr-tb;text-anchor:start;fill:#000000;fill-opacity:1;stroke:none"
       x="18.81188"
       y="132.90291"
       id="text5731"
       transform="translate(139.69462,292.24496)"><tspan
         sodipodi:role="line"
         id="tspan5733"
         x="18.81188"
         y="132.90291"
         style="font-size:10px;line-height:1.25">M</tspan></text>
  </g>
</svg>
