<?xml version="1.0" encoding="UTF-8" standalone="no"?>
<!-- Created with Inkscape (http://www.inkscape.org/) -->

<svg
   xmlns:ns0="http://www.iki.fi/pav/software/textext/"
   xmlns:dc="http://purl.org/dc/elements/1.1/"
   xmlns:cc="http://creativecommons.org/ns#"
   xmlns:rdf="http://www.w3.org/1999/02/22-rdf-syntax-ns#"
   xmlns:svg="http://www.w3.org/2000/svg"
   xmlns="http://www.w3.org/2000/svg"
   xmlns:xlink="http://www.w3.org/1999/xlink"
   xmlns:sodipodi="http://sodipodi.sourceforge.net/DTD/sodipodi-0.dtd"
   xmlns:inkscape="http://www.inkscape.org/namespaces/inkscape"
   width="468.95996"
   height="350.00906"
   id="svg2"
   version="1.1"
   inkscape:version="0.92.4 (unknown)"
   sodipodi:docname="P2-soln.svg"
   inkscape:export-filename="/home/nholtz/3203/drawings/moin/VirtualWork/VirtualDisplacement/Problems/P2-soln.png"
   inkscape:export-xdpi="90"
   inkscape:export-ydpi="90">
  <sodipodi:namedview
     id="base"
     pagecolor="#ffffff"
     bordercolor="#666666"
     borderopacity="1.0"
     inkscape:pageopacity="0.0"
     inkscape:pageshadow="2"
     inkscape:zoom="1.4283557"
     inkscape:cx="286.01742"
     inkscape:cy="203.62039"
     inkscape:document-units="in"
     inkscape:current-layer="layer1"
     showgrid="true"
     units="in"
     inkscape:window-width="1179"
     inkscape:window-height="979"
     inkscape:window-x="702"
     inkscape:window-y="53"
     inkscape:window-maximized="0"
     showguides="true"
     fit-margin-top="0.2"
     fit-margin-left="0.2"
     fit-margin-right="0.2"
     fit-margin-bottom="0.2">
    <inkscape:grid
       spacingy="9"
       spacingx="9"
       units="in"
       snapvisiblegridlinesonly="true"
       enabled="true"
       visible="true"
       empspacing="5"
       id="grid2985"
       type="xygrid"
       originx="0"
       originy="0" />
    <sodipodi:guide
       id="guide3042"
       orientation="0,765"
       position="-116.80505,-472.35799"
       inkscape:locked="false" />
    <sodipodi:guide
       id="guide3044"
       orientation="-990,0"
       position="648.19495,-472.35799"
       inkscape:locked="false" />
    <sodipodi:guide
       id="guide3046"
       orientation="0,-765"
       position="648.19495,517.64201"
       inkscape:locked="false" />
    <sodipodi:guide
       id="guide3048"
       orientation="990,0"
       position="-116.80505,517.64201"
       inkscape:locked="false" />
    <sodipodi:guide
       id="guide3050"
       orientation="0,765"
       position="603.19495,-427.35799"
       inkscape:locked="false" />
    <sodipodi:guide
       id="guide3052"
       orientation="-990,0"
       position="603.19495,427.64201"
       inkscape:locked="false" />
    <sodipodi:guide
       id="guide3054"
       orientation="0,-765"
       position="-53.805058,427.64201"
       inkscape:locked="false" />
    <sodipodi:guide
       id="guide3056"
       orientation="990,0"
       position="-26.805058,454.64201"
       inkscape:locked="false" />
  </sodipodi:namedview>
  <script
     id="script3033"
     xlink:href="" />
  <defs
     id="defs4">
    <marker
       inkscape:stockid="Arrow2Mstart"
       orient="auto"
       refY="0"
       refX="0"
       id="Arrow2Mstart"
       style="overflow:visible">
      <path
         id="path3829"
         style="font-size:12px;fill-rule:evenodd;stroke-width:0.625;stroke-linejoin:round"
         d="M 8.7185878,4.0337352 -2.2072895,0.01601326 8.7185884,-4.0017078 c -1.7454984,2.3720609 -1.7354408,5.6174519 -6e-7,8.035443 z"
         transform="scale(0.6,0.6)"
         inkscape:connector-curvature="0" />
    </marker>
    <marker
       inkscape:stockid="DimensionTick"
       orient="auto"
       refY="0"
       refX="0"
       id="DimensionTick"
       style="overflow:visible">
      <path
         d="M 0,0 8,8"
         style="stroke:#000000;stroke-width:1pt;marker-start:none"
         transform="translate(-4,-4)"
         id="path3796"
         inkscape:connector-curvature="0" />
    </marker>
    <marker
       inkscape:stockid="TrussNodeS"
       orient="auto"
       refY="0"
       refX="0"
       id="TrussNodeS"
       markerUnits="userSpaceOnUse"
       style="overflow:visible">
      <circle
         cx="0"
         cy="0"
         r="3"
         style="fill:#ffffff;stroke:#000000;stroke-width:1"
         id="circle3799"
         sodipodi:cx="0"
         sodipodi:cy="0"
         sodipodi:rx="3"
         sodipodi:ry="3" />
    </marker>
  </defs>
  <metadata
     id="metadata7">
    <rdf:RDF>
      <cc:Work
         rdf:about="">
        <dc:format>image/svg+xml</dc:format>
        <dc:type
           rdf:resource="http://purl.org/dc/dcmitype/StillImage" />
        <dc:title />
        <cc:license
           rdf:resource="http://creativecommons.org/licenses/by-nc/3.0/" />
      </cc:Work>
      <cc:License
         rdf:about="http://creativecommons.org/licenses/by-nc/3.0/">
        <cc:permits
           rdf:resource="http://creativecommons.org/ns#Reproduction" />
        <cc:permits
           rdf:resource="http://creativecommons.org/ns#Distribution" />
        <cc:requires
           rdf:resource="http://creativecommons.org/ns#Notice" />
        <cc:requires
           rdf:resource="http://creativecommons.org/ns#Attribution" />
        <cc:prohibits
           rdf:resource="http://creativecommons.org/ns#CommercialUse" />
        <cc:permits
           rdf:resource="http://creativecommons.org/ns#DerivativeWorks" />
      </cc:License>
    </rdf:RDF>
  </metadata>
  <g
     transform="translate(-116.80505,-229.99493)"
     id="layer1"
     inkscape:groupmode="layer"
     inkscape:label="Layer 1">
    <g
       transform="translate(-42,0)"
       id="g5616">
      <path
         style="fill:none;stroke:#4d4d4d;stroke-width:0.99000001;stroke-linecap:round;stroke-linejoin:miter;stroke-miterlimit:4;stroke-opacity:1;stroke-dasharray:none;stroke-dashoffset:0;marker-start:none;marker-mid:none;marker-end:none"
         d="m 180,315 90,-90 90,90 90,90 90,-90 -90,-90 -90,90 -90,90 z"
         id="path2994"
         inkscape:connector-curvature="0"
         transform="translate(0,62.362)" />
      <path
         style="fill:none;stroke:#000000;stroke-width:1.98000002;stroke-linecap:round;stroke-linejoin:miter;stroke-miterlimit:4;stroke-opacity:1;stroke-dasharray:none;stroke-dashoffset:0;marker-start:none;marker-mid:none;marker-end:none"
         d="m 279,243 -99,81 99,81 99,-81 99,-81 99,81 -99,81 -99,-81 z"
         id="path2996"
         inkscape:connector-curvature="0"
         transform="translate(0,62.362)"
         sodipodi:nodetypes="ccccccccc" />
      <path
         style="fill:none;stroke:#4d4d4d;stroke-width:0.75;stroke-linecap:round;stroke-linejoin:miter;stroke-miterlimit:4;stroke-opacity:1;stroke-dasharray:none;stroke-dashoffset:0"
         d="m 270,216 0,-18"
         id="path5192"
         inkscape:connector-curvature="0"
         transform="translate(0,62.362)" />
      <path
         style="fill:none;stroke:#4d4d4d;stroke-width:0.75;stroke-linecap:round;stroke-linejoin:miter;stroke-miterlimit:4;stroke-opacity:1;stroke-dasharray:none;stroke-dashoffset:0"
         d="m 279,225 0,-27"
         id="path5194"
         inkscape:connector-curvature="0"
         transform="translate(0,62.362)" />
      <path
         style="fill:none;stroke:#4d4d4d;stroke-width:0.75;stroke-linecap:round;stroke-linejoin:miter;stroke-miterlimit:4;stroke-opacity:1;stroke-dasharray:none;stroke-dashoffset:0"
         d="m 360,306 0,-108"
         id="path5196"
         inkscape:connector-curvature="0"
         transform="translate(0,62.362)" />
      <path
         style="fill:none;stroke:#4d4d4d;stroke-width:0.75;stroke-linecap:round;stroke-linejoin:miter;stroke-miterlimit:4;stroke-opacity:1;stroke-dasharray:none;stroke-dashoffset:0"
         d="m 378,288 0,-90"
         id="path5198"
         inkscape:connector-curvature="0"
         transform="translate(0,62.362)" />
      <path
         style="fill:none;stroke:#4d4d4d;stroke-width:0.75;stroke-linecap:round;stroke-linejoin:miter;stroke-miterlimit:4;stroke-opacity:1;stroke-dasharray:none;stroke-dashoffset:0"
         d="m 450,216 0,-18"
         id="path5200"
         inkscape:connector-curvature="0"
         transform="translate(0,62.362)" />
      <path
         style="fill:none;stroke:#4d4d4d;stroke-width:0.75;stroke-linecap:round;stroke-linejoin:miter;stroke-miterlimit:4;stroke-opacity:1;stroke-dasharray:none;stroke-dashoffset:0"
         d="m 477,234 0,-36"
         id="path5202"
         inkscape:connector-curvature="0"
         transform="translate(0,62.362)" />
      <path
         style="fill:none;stroke:#4d4d4d;stroke-width:0.75;stroke-linecap:round;stroke-linejoin:miter;stroke-miterlimit:4;stroke-opacity:1;stroke-dasharray:none;stroke-dashoffset:0"
         d="m 540,288 0,-90"
         id="path5204"
         inkscape:connector-curvature="0"
         transform="translate(0,62.362)" />
      <path
         style="fill:none;stroke:#4d4d4d;stroke-width:0.75;stroke-linecap:round;stroke-linejoin:miter;stroke-miterlimit:4;stroke-opacity:1;stroke-dasharray:none;stroke-dashoffset:0"
         d="m 576,315 0,-117"
         id="path5206"
         inkscape:connector-curvature="0"
         transform="translate(0,62.362)" />
      <path
         style="fill:none;stroke:#4d4d4d;stroke-width:0.72000003;stroke-linecap:round;stroke-linejoin:miter;stroke-miterlimit:4;stroke-opacity:1;stroke-dasharray:none;stroke-dashoffset:0;marker-start:url(#DimensionTick);marker-end:url(#DimensionTick)"
         d="m 270,207 9,0"
         id="path5208"
         inkscape:connector-curvature="0"
         transform="translate(0,62.362)" />
      <path
         style="fill:none;stroke:#4d4d4d;stroke-width:0.72000003;stroke-linecap:round;stroke-linejoin:miter;stroke-miterlimit:4;stroke-opacity:1;stroke-dasharray:none;stroke-dashoffset:0;marker-start:url(#DimensionTick);marker-end:url(#DimensionTick)"
         d="m 360,207 18,0"
         id="path5210"
         inkscape:connector-curvature="0"
         transform="translate(0,62.362)" />
      <path
         style="fill:none;stroke:#4d4d4d;stroke-width:0.72000003;stroke-linecap:round;stroke-linejoin:miter;stroke-miterlimit:4;stroke-opacity:1;stroke-dasharray:none;stroke-dashoffset:0;marker-start:url(#DimensionTick);marker-end:url(#DimensionTick)"
         d="m 450,207 27,0"
         id="path5212"
         inkscape:connector-curvature="0"
         transform="translate(0,62.362)" />
      <path
         style="fill:none;stroke:#4d4d4d;stroke-width:0.72000003;stroke-linecap:round;stroke-linejoin:miter;stroke-miterlimit:4;stroke-opacity:1;stroke-dasharray:none;stroke-dashoffset:0;marker-start:url(#DimensionTick);marker-end:url(#DimensionTick)"
         d="m 540,207 36,0"
         id="path5214"
         inkscape:connector-curvature="0"
         transform="translate(0,62.362)" />
      <text
         xml:space="preserve"
         style="font-style:normal;font-variant:normal;font-weight:normal;font-stretch:normal;line-height:0%;font-family:Verdana;-inkscape-font-specification:Sans;text-align:start;letter-spacing:0px;word-spacing:0px;writing-mode:lr-tb;text-anchor:start;fill:#000000;fill-opacity:1;stroke:none"
         x="269.76239"
         y="257.82733"
         id="text5598"><tspan
           sodipodi:role="line"
           id="tspan5600"
           x="269.76239"
           y="257.82733"
           style="font-size:11px;line-height:1.25">1<tspan
   style="font-size:65.00091553%;baseline-shift:super"
   id="tspan5602">*</tspan></tspan></text>
      <text
         xml:space="preserve"
         style="font-style:normal;font-variant:normal;font-weight:normal;font-stretch:normal;line-height:0%;font-family:Verdana;-inkscape-font-specification:Sans;text-align:start;letter-spacing:0px;word-spacing:0px;writing-mode:lr-tb;text-anchor:start;fill:#000000;fill-opacity:1;stroke:none"
         x="366.33664"
         y="196.43564"
         id="text5604"
         transform="translate(0,62.362)"><tspan
           sodipodi:role="line"
           id="tspan5606"
           x="366.33664"
           y="196.43564"
           style="font-size:11px;line-height:1.25">2</tspan></text>
      <text
         xml:space="preserve"
         style="font-style:normal;font-variant:normal;font-weight:normal;font-stretch:normal;line-height:0%;font-family:Verdana;-inkscape-font-specification:Sans;text-align:start;letter-spacing:0px;word-spacing:0px;writing-mode:lr-tb;text-anchor:start;fill:#000000;fill-opacity:1;stroke:none"
         x="459.901"
         y="258.79764"
         id="text5608"><tspan
           sodipodi:role="line"
           id="tspan5610"
           x="459.901"
           y="258.79764"
           style="font-size:11px;line-height:1.25">3</tspan></text>
      <text
         xml:space="preserve"
         style="font-style:normal;font-variant:normal;font-weight:normal;font-stretch:normal;line-height:0%;font-family:Verdana;-inkscape-font-specification:Sans;text-align:start;letter-spacing:0px;word-spacing:0px;writing-mode:lr-tb;text-anchor:start;fill:#000000;fill-opacity:1;stroke:none"
         x="555.44556"
         y="196.93069"
         id="text5612"
         transform="translate(0,62.362)"><tspan
           sodipodi:role="line"
           id="tspan5614"
           x="555.44556"
           y="196.93069"
           style="font-size:11px;line-height:1.25">4</tspan></text>
    </g>
    <g
       ns0:preamble="/home/nholtz/work/share/config/inkscape/extensions/amspreamble.tex"
       ns0:text="\\begin{equation*}\n\\begin{split}\n&amp;-P\\times4 + 100\\times1 + 100\\times3 = 0\\\\\n&amp;P = 100\n\\end{split}\n\\end{equation*}\n"
       word-spacing="normal"
       letter-spacing="normal"
       font-size-adjust="none"
       font-stretch="normal"
       font-weight="normal"
       font-variant="normal"
       font-style="normal"
       stroke-miterlimit="10.433"
       xml:space="preserve"
       transform="matrix(1.1,0,0,-1.1,80.148,1316.428)"
       id="content"
       style="font-style:normal;font-variant:normal;font-weight:normal;font-stretch:normal;letter-spacing:normal;word-spacing:normal;text-anchor:start;fill:none;stroke:#000000;stroke-linecap:butt;stroke-linejoin:miter;stroke-miterlimit:10.43299961;stroke-opacity:1;stroke-dasharray:none;stroke-dashoffset:0">
<path
   id="path6447"
   d="m 164.49,705.13 0.03,0 0.04,0 0.03,0 0.02,0 0.02,0 0.01,0 0.02,0 0.02,0 0.01,0.01 0.02,0 0.01,0 0.02,0.01 0.01,0 0.01,0.01 0.01,0 0.02,0.01 0.01,0.01 0.01,0.01 0.01,0.01 0.01,0.01 0.01,0.01 0,0 0,0.01 0.01,0.01 0,0 0,0.01 0.01,0.01 0,0 0,0.01 0,0.01 0,0.01 0.01,0.01 0,0.01 0,0 0,0.01 0,0.01 0,0.01 c 0,0.22 -0.2,0.22 -0.38,0.22 h -5.89 c -0.19,0 -0.38,0 -0.38,-0.22 0,-0.21 0.19,-0.21 0.38,-0.21 z"
   inkscape:connector-curvature="0"
   style="fill:#000000;stroke-width:0" />
<path
   id="path6449"
   d="m 171.52,706.06 0.05,0.29 0.73,2.96 c 0.1,0.38 0.13,0.41 0.59,0.41 h 1.05 c 0.9,0 1.48,-0.29 1.48,-1.04 0,-0.43 -0.22,-1.36 -0.64,-1.76 -0.55,-0.49 -1.2,-0.57 -1.68,-0.57 h -1.53 l -0.05,-0.29 h 1.85 c 1.55,0 3.06,1.14 3.06,2.35 0,0.84 -0.72,1.65 -2.14,1.65 h -3.53 c -0.21,0 -0.33,0 -0.33,-0.21 0,-0.13 0.1,-0.13 0.32,-0.13 0.14,0 0.34,-0.01 0.47,-0.02 0.17,-0.02 0.24,-0.05 0.24,-0.17 0,-0.05 -0.01,-0.08 -0.05,-0.21 l -1.46,-5.85 c -0.11,-0.42 -0.13,-0.51 -0.99,-0.51 -0.18,0 -0.3,0 -0.3,-0.21 0,-0.13 0.13,-0.13 0.16,-0.13 0.31,0 1.08,0.04 1.38,0.04 0.23,0 0.47,-0.02 0.7,-0.02 0.24,0 0.48,-0.02 0.71,-0.02 0.07,0 0.22,0 0.22,0.22 0,0.12 -0.1,0.12 -0.31,0.12 -0.4,0 -0.71,0 -0.71,0.2 0,0.06 0.03,0.12 0.04,0.18 z"
   inkscape:connector-curvature="0"
   style="fill:#000000;stroke-width:0" />
<path
   id="path6451"
   d="m 183.4,705.65 -2.18,2.17 c -0.13,0.13 -0.15,0.15 -0.24,0.15 -0.1,0 -0.21,-0.1 -0.21,-0.22 0,-0.08 0.02,-0.1 0.14,-0.22 l 2.18,-2.19 -2.18,-2.18 c -0.12,-0.12 -0.14,-0.15 -0.14,-0.22 0,-0.12 0.11,-0.22 0.21,-0.22 0.09,0 0.11,0.02 0.24,0.15 l 2.17,2.17 2.26,-2.26 c 0.02,-0.01 0.09,-0.06 0.16,-0.06 0.13,0 0.22,0.1 0.22,0.22 0,0.02 0,0.06 -0.04,0.12 -0.01,0.02 -1.74,1.73 -2.28,2.28 l 1.99,2 c 0.05,0.06 0.22,0.2 0.27,0.27 0.01,0.02 0.06,0.06 0.06,0.14 0,0.12 -0.09,0.22 -0.22,0.22 -0.09,0 -0.13,-0.05 -0.25,-0.17 z"
   inkscape:connector-curvature="0"
   style="fill:#000000;stroke-width:0" />
<path
   id="path6453"
   d="m 193.28,704.42 v -0.95 c 0,-0.39 -0.03,-0.51 -0.83,-0.51 h -0.23 v -0.34 c 0.45,0.04 1.01,0.04 1.47,0.04 0.46,0 1.03,0 1.48,-0.04 v 0.34 h -0.23 c -0.8,0 -0.82,0.12 -0.82,0.51 v 0.95 h 1.08 v 0.34 h -1.08 v 4.95 c 0,0.22 0,0.28 -0.18,0.28 -0.1,0 -0.13,0 -0.22,-0.13 l -3.34,-5.1 h 0.3 l 2.66,4.06 v -4.06 h -2.66 -0.3 v -0.34 z"
   inkscape:connector-curvature="0"
   style="fill:#000000;stroke-width:0" />
<path
   id="path6455"
   d="m 202.4,705.13 h 3.04 c 0.16,0 0.36,0 0.36,0.21 0,0.22 -0.2,0.22 -0.36,0.22 h -3.04 v 3.05 c 0,0.15 0,0.36 -0.21,0.36 -0.22,0 -0.22,-0.21 -0.22,-0.36 v -3.05 h -3.05 c -0.15,0 -0.36,0 -0.36,-0.22 0,-0.21 0.21,-0.21 0.36,-0.21 h 3.05 v -3.05 c 0,-0.16 0,-0.36 0.22,-0.36 0.21,0 0.21,0.2 0.21,0.36 z"
   inkscape:connector-curvature="0"
   style="fill:#000000;stroke-width:0" />
<path
   id="path6457"
   d="m 212.06,709.59 0,0.01 0,0.01 0,0.02 0,0.01 0,0.01 0,0.01 0,0.01 0,0.01 0,0.01 0,0.01 0,0.01 0,0 0,0.01 0,0.01 0,0.01 0,0.01 -0.01,0 0,0.01 0,0.01 0,0.01 0,0.02 -0.01,0.01 0,0 -0.01,0.01 0,0.01 -0.01,0.01 -0.01,0 0,0.01 -0.01,0 -0.01,0.01 -0.01,0 0,0 -0.01,0 0,0 -0.01,0.01 -0.01,0 0,0 -0.01,0 -0.01,0 -0.01,0 0,0 -0.01,0 -0.01,0 -0.01,0 -0.01,0 -0.01,0 -0.01,0 -0.01,0 -0.01,0 -0.01,0 -0.01,0 -0.01,0 c -0.68,-0.69 -1.63,-0.69 -1.98,-0.69 v -0.34 c 0.21,0 0.86,0 1.42,0.28 v -5.64 c 0,-0.39 -0.03,-0.52 -1.01,-0.52 h -0.35 v -0.34 c 0.38,0.04 1.33,0.04 1.77,0.04 0.43,0 1.38,0 1.76,-0.04 v 0.34 h -0.35 c -0.98,0 -1.01,0.12 -1.01,0.52 z"
   inkscape:connector-curvature="0"
   style="fill:#000000;stroke-width:0" />
<path
   id="path6459"
   d="m 219.32,706.11 0,0.16 0,0.16 -0.01,0.17 0,0.16 -0.01,0.16 -0.02,0.16 -0.01,0.16 -0.02,0.16 -0.03,0.16 -0.03,0.16 -0.03,0.16 -0.05,0.16 -0.04,0.15 -0.06,0.16 -0.06,0.15 -0.03,0.08 -0.03,0.07 c -0.51,1.05 -1.4,1.22 -1.85,1.22 -0.66,0 -1.45,-0.28 -1.9,-1.29 -0.35,-0.75 -0.4,-1.6 -0.4,-2.47 0,-0.82 0.04,-1.8 0.49,-2.63 0.47,-0.88 1.26,-1.1 1.79,-1.1 v 0.24 c -0.42,0 -1.06,0.27 -1.26,1.32 -0.12,0.65 -0.12,1.65 -0.12,2.3 0,0.69 0,1.41 0.09,2 0.2,1.3 1.02,1.39 1.29,1.39 0.36,0 1.08,-0.19 1.29,-1.27 0.11,-0.61 0.11,-1.44 0.11,-2.12 0,-0.82 0,-1.56 -0.12,-2.26 -0.17,-1.03 -0.79,-1.36 -1.28,-1.36 h 0 v -0.24 c 0.59,0 1.42,0.23 1.9,1.27 0.35,0.75 0.4,1.6 0.4,2.46 z"
   inkscape:connector-curvature="0"
   style="fill:#000000;stroke-width:0" />
<path
   id="path6461"
   d="m 224.78,706.11 0,0.16 -0.01,0.16 0,0.17 -0.01,0.16 -0.01,0.16 -0.01,0.16 -0.02,0.16 -0.02,0.16 -0.02,0.16 -0.03,0.16 -0.04,0.16 -0.04,0.16 -0.05,0.15 -0.05,0.16 -0.06,0.15 -0.03,0.08 -0.04,0.07 c -0.5,1.05 -1.39,1.22 -1.85,1.22 -0.65,0 -1.45,-0.28 -1.89,-1.29 -0.35,-0.75 -0.41,-1.6 -0.41,-2.47 0,-0.82 0.05,-1.8 0.49,-2.63 0.47,-0.88 1.27,-1.1 1.8,-1.1 v 0.24 c -0.43,0 -1.07,0.27 -1.27,1.32 -0.11,0.65 -0.11,1.65 -0.11,2.3 0,0.69 0,1.41 0.08,2 0.21,1.3 1.03,1.39 1.3,1.39 0.36,0 1.08,-0.19 1.28,-1.27 0.11,-0.61 0.11,-1.44 0.11,-2.12 0,-0.82 0,-1.56 -0.12,-2.26 -0.16,-1.03 -0.78,-1.36 -1.27,-1.36 h 0 v -0.24 c 0.59,0 1.41,0.23 1.89,1.27 0.35,0.75 0.41,1.6 0.41,2.46 z"
   inkscape:connector-curvature="0"
   style="fill:#000000;stroke-width:0" />
<path
   id="path6463"
   d="m 231.89,705.65 -2.18,2.17 c -0.13,0.13 -0.16,0.15 -0.24,0.15 -0.11,0 -0.22,-0.1 -0.22,-0.22 0,-0.08 0.02,-0.1 0.14,-0.22 l 2.18,-2.19 -2.18,-2.18 c -0.12,-0.12 -0.14,-0.15 -0.14,-0.22 0,-0.12 0.11,-0.22 0.22,-0.22 0.08,0 0.11,0.02 0.24,0.15 l 2.17,2.17 2.25,-2.26 c 0.02,-0.01 0.1,-0.06 0.16,-0.06 0.13,0 0.22,0.1 0.22,0.22 0,0.02 0,0.06 -0.03,0.12 -0.01,0.02 -1.74,1.73 -2.29,2.28 l 1.99,2 c 0.06,0.06 0.22,0.2 0.28,0.27 0.01,0.02 0.05,0.06 0.05,0.14 0,0.12 -0.09,0.22 -0.22,0.22 -0.08,0 -0.13,-0.05 -0.25,-0.17 z"
   inkscape:connector-curvature="0"
   style="fill:#000000;stroke-width:0" />
<path
   id="path6465"
   d="m 241.76,709.59 0,0.01 0,0.01 0,0.02 0,0.01 0,0.01 0,0.01 0,0.01 0,0.01 0,0.01 0,0.01 0,0.01 0,0 0,0.01 0,0.01 0,0.01 0,0.01 0,0 -0.01,0.01 0,0.01 0,0.01 0,0.02 -0.01,0.01 0,0 -0.01,0.01 0,0.01 -0.01,0.01 0,0 -0.01,0.01 -0.01,0 -0.01,0.01 -0.01,0 0,0 -0.01,0 0,0 -0.01,0.01 -0.01,0 0,0 -0.01,0 -0.01,0 0,0 -0.01,0 -0.01,0 -0.01,0 -0.01,0 -0.01,0 -0.01,0 -0.01,0 -0.01,0 -0.01,0 -0.01,0 -0.01,0 -0.01,0 c -0.67,-0.69 -1.63,-0.69 -1.98,-0.69 v -0.34 c 0.22,0 0.86,0 1.42,0.28 v -5.64 c 0,-0.39 -0.03,-0.52 -1.01,-0.52 h -0.35 v -0.34 c 0.38,0.04 1.33,0.04 1.77,0.04 0.43,0 1.38,0 1.76,-0.04 v 0.34 h -0.35 c -0.98,0 -1.01,0.12 -1.01,0.52 z"
   inkscape:connector-curvature="0"
   style="fill:#000000;stroke-width:0" />
<path
   id="path6467"
   d="m 250.89,705.13 h 3.04 c 0.15,0 0.36,0 0.36,0.21 0,0.22 -0.21,0.22 -0.36,0.22 h -3.04 v 3.05 c 0,0.15 0,0.36 -0.22,0.36 -0.22,0 -0.22,-0.21 -0.22,-0.36 v -3.05 h -3.05 c -0.15,0 -0.36,0 -0.36,-0.22 0,-0.21 0.21,-0.21 0.36,-0.21 h 3.05 v -3.05 c 0,-0.16 0,-0.36 0.22,-0.36 0.22,0 0.22,0.2 0.22,0.36 z"
   inkscape:connector-curvature="0"
   style="fill:#000000;stroke-width:0" />
<path
   id="path6469"
   d="m 260.54,709.59 0,0.01 0,0.01 0,0.02 0,0.01 0,0.01 0,0.01 0,0.01 0,0.01 0,0.01 0,0.01 0,0.01 0,0 0,0.01 0,0.01 0,0.01 0,0.01 0,0 0,0.01 0,0.01 -0.01,0.01 0,0.02 0,0.01 -0.01,0 0,0.01 -0.01,0.01 0,0.01 -0.01,0 -0.01,0.01 -0.01,0 -0.01,0.01 0,0 -0.01,0 0,0 -0.01,0 -0.01,0.01 0,0 -0.01,0 -0.01,0 0,0 -0.01,0 -0.01,0 -0.01,0 -0.01,0 0,0 -0.01,0 -0.01,0 -0.01,0 -0.01,0 -0.01,0 -0.01,0 -0.02,0 -0.01,0 c -0.67,-0.69 -1.63,-0.69 -1.98,-0.69 v -0.34 c 0.22,0 0.86,0 1.43,0.28 v -5.64 c 0,-0.39 -0.04,-0.52 -1.01,-0.52 h -0.35 v -0.34 c 0.38,0.04 1.32,0.04 1.76,0.04 0.44,0 1.38,0 1.76,-0.04 v 0.34 h -0.34 c -0.98,0 -1.02,0.12 -1.02,0.52 z"
   inkscape:connector-curvature="0"
   style="fill:#000000;stroke-width:0" />
<path
   id="path6471"
   d="m 267.8,706.11 0,0.16 0,0.16 0,0.17 -0.01,0.16 -0.01,0.16 -0.01,0.16 -0.02,0.16 -0.02,0.16 -0.02,0.16 -0.03,0.16 -0.04,0.16 -0.04,0.16 -0.05,0.15 -0.05,0.16 -0.06,0.15 -0.04,0.08 -0.03,0.07 c -0.5,1.05 -1.39,1.22 -1.85,1.22 -0.65,0 -1.45,-0.28 -1.9,-1.29 -0.34,-0.75 -0.4,-1.6 -0.4,-2.47 0,-0.82 0.05,-1.8 0.49,-2.63 0.47,-0.88 1.26,-1.1 1.8,-1.1 v 0.24 c -0.43,0 -1.07,0.27 -1.27,1.32 -0.12,0.65 -0.12,1.65 -0.12,2.3 0,0.69 0,1.41 0.09,2 0.21,1.3 1.03,1.39 1.3,1.39 0.36,0 1.08,-0.19 1.28,-1.27 0.11,-0.61 0.11,-1.44 0.11,-2.12 0,-0.82 0,-1.56 -0.12,-2.26 -0.16,-1.03 -0.78,-1.36 -1.27,-1.36 h 0 v -0.24 c 0.59,0 1.41,0.23 1.89,1.27 0.35,0.75 0.4,1.6 0.4,2.46 z"
   inkscape:connector-curvature="0"
   style="fill:#000000;stroke-width:0" />
<path
   id="path6473"
   d="m 273.26,706.11 0,0.16 0,0.16 -0.01,0.17 0,0.16 -0.01,0.16 -0.02,0.16 -0.01,0.16 -0.02,0.16 -0.03,0.16 -0.03,0.16 -0.04,0.16 -0.04,0.16 -0.04,0.15 -0.06,0.16 -0.06,0.15 -0.03,0.08 -0.03,0.07 c -0.51,1.05 -1.4,1.22 -1.86,1.22 -0.65,0 -1.45,-0.28 -1.89,-1.29 -0.35,-0.75 -0.4,-1.6 -0.4,-2.47 0,-0.82 0.04,-1.8 0.49,-2.63 0.46,-0.88 1.26,-1.1 1.79,-1.1 v 0.24 c -0.42,0 -1.07,0.27 -1.26,1.32 -0.12,0.65 -0.12,1.65 -0.12,2.3 0,0.69 0,1.41 0.09,2 0.2,1.3 1.02,1.39 1.29,1.39 0.36,0 1.08,-0.19 1.29,-1.27 0.11,-0.61 0.11,-1.44 0.11,-2.12 0,-0.82 0,-1.56 -0.12,-2.26 -0.17,-1.03 -0.79,-1.36 -1.28,-1.36 h 0 v -0.24 c 0.59,0 1.42,0.23 1.9,1.27 0.35,0.75 0.4,1.6 0.4,2.46 z"
   inkscape:connector-curvature="0"
   style="fill:#000000;stroke-width:0" />
<path
   id="path6475"
   d="m 280.37,705.65 -2.18,2.17 c -0.13,0.13 -0.15,0.15 -0.24,0.15 -0.1,0 -0.21,-0.1 -0.21,-0.22 0,-0.08 0.02,-0.1 0.14,-0.22 l 2.17,-2.19 -2.17,-2.18 c -0.12,-0.12 -0.14,-0.15 -0.14,-0.22 0,-0.12 0.11,-0.22 0.21,-0.22 0.09,0 0.11,0.02 0.24,0.15 l 2.17,2.17 2.25,-2.26 c 0.03,-0.01 0.1,-0.06 0.17,-0.06 0.13,0 0.21,0.1 0.21,0.22 0,0.02 0,0.06 -0.03,0.12 -0.01,0.02 -1.74,1.73 -2.28,2.28 l 1.99,2 c 0.05,0.06 0.22,0.2 0.27,0.27 0.01,0.02 0.05,0.06 0.05,0.14 0,0.12 -0.08,0.22 -0.21,0.22 -0.09,0 -0.13,-0.05 -0.25,-0.17 z"
   inkscape:connector-curvature="0"
   style="fill:#000000;stroke-width:0" />
<path
   id="path6477"
   d="m 290.2,706.46 0.08,0.02 0.09,0.04 0.08,0.03 0.07,0.04 0.08,0.04 0.07,0.04 0.08,0.04 0.07,0.05 0.07,0.05 0.06,0.05 0.07,0.05 0.06,0.05 0.06,0.06 0.05,0.06 0.06,0.06 0.05,0.06 0.05,0.06 0.04,0.07 0.05,0.07 0.04,0.06 0.04,0.07 0.03,0.07 0.03,0.08 0.03,0.07 0.03,0.07 0.02,0.08 0.02,0.08 0.02,0.07 0.01,0.08 0.01,0.08 0,0.08 0.01,0.08 c 0,0.89 -0.96,1.5 -2.01,1.5 -1.1,0 -1.92,-0.65 -1.92,-1.48 0,-0.36 0.24,-0.56 0.55,-0.56 0.34,0 0.56,0.24 0.56,0.55 0,0.55 -0.52,0.55 -0.68,0.55 0.34,0.53 1.06,0.67 1.45,0.67 0.44,0 1.04,-0.24 1.04,-1.22 0,-0.13 -0.02,-0.76 -0.3,-1.24 -0.33,-0.52 -0.7,-0.55 -0.97,-0.56 -0.09,-0.02 -0.35,-0.04 -0.42,-0.04 -0.09,-0.01 -0.17,-0.02 -0.17,-0.13 0,-0.12 0.08,-0.12 0.26,-0.12 h 0.48 c 0.9,0 1.3,-0.74 1.3,-1.81 0,-1.48 -0.75,-1.79 -1.23,-1.79 -0.47,0 -1.29,0.18 -1.67,0.83 0.38,-0.06 0.72,0.18 0.72,0.59 0,0.4 -0.29,0.61 -0.61,0.61 -0.26,0 -0.61,-0.15 -0.61,-0.63 0,-0.99 1.01,-1.71 2.2,-1.71 1.33,0 2.32,0.99 2.32,2.1 0,0.9 -0.69,1.75 -1.82,1.98 z"
   inkscape:connector-curvature="0"
   style="fill:#000000;stroke-width:0" />
<path
   id="path6479"
   d="m 303.01,706.18 0.03,0 0.03,0 0.04,0 0.01,0 0.02,0.01 0.01,0 0.02,0 0.02,0 0.01,0 0.02,0.01 0.01,0 0.01,0 0.02,0.01 0.01,0 0.01,0.01 0.02,0.01 0.01,0.01 0.01,0 0.01,0.01 0.01,0.01 0.01,0.01 0,0.01 0,0.01 0.01,0 0,0.01 0,0.01 0.01,0 0,0.01 0,0.01 0,0.01 0.01,0 0,0.01 0,0.01 0,0.01 0,0.01 0,0.01 0,0.01 c 0,0.22 -0.21,0.22 -0.36,0.22 h -6.52 c -0.15,0 -0.36,0 -0.36,-0.22 0,-0.22 0.21,-0.22 0.37,-0.22 z"
   inkscape:connector-curvature="0"
   style="fill:#000000;stroke-width:0" />
<path
   id="path6481"
   d="m 303.02,704.07 0.02,0 0.01,0 0.03,0 0.03,0 0.02,0 0.01,0 0.02,0 0.01,0.01 0.02,0 0.01,0 0.02,0 0.01,0.01 0.02,0 0.01,0.01 0.01,0 0.02,0.01 0.01,0.01 0.01,0 0.01,0.01 0.01,0.01 0.01,0.01 0,0.01 0.01,0 0,0.01 0.01,0 0,0.01 0,0.01 0,0 0.01,0.01 0,0.01 0,0.01 0,0 0.01,0.01 0,0.01 0,0.01 0,0.01 0,0.01 0,0.01 0,0.01 c 0,0.22 -0.21,0.22 -0.37,0.22 h -6.5 c -0.16,0 -0.37,0 -0.37,-0.22 0,-0.22 0.21,-0.22 0.36,-0.22 z"
   inkscape:connector-curvature="0"
   style="fill:#000000;stroke-width:0" />
<path
   id="path6483"
   d="m 312.06,706.11 0,0.16 -0.01,0.16 0,0.17 -0.01,0.16 -0.01,0.16 -0.01,0.16 -0.02,0.16 -0.02,0.16 -0.02,0.16 -0.03,0.16 -0.04,0.16 -0.04,0.16 -0.05,0.15 -0.05,0.16 -0.06,0.15 -0.03,0.08 -0.04,0.07 c -0.5,1.05 -1.39,1.22 -1.85,1.22 -0.65,0 -1.45,-0.28 -1.89,-1.29 -0.35,-0.75 -0.41,-1.6 -0.41,-2.47 0,-0.82 0.05,-1.8 0.49,-2.63 0.47,-0.88 1.27,-1.1 1.8,-1.1 v 0.24 c -0.42,0 -1.07,0.27 -1.26,1.32 -0.12,0.65 -0.12,1.65 -0.12,2.3 0,0.69 0,1.41 0.08,2 0.21,1.3 1.03,1.39 1.3,1.39 0.36,0 1.08,-0.19 1.29,-1.27 0.1,-0.61 0.1,-1.44 0.1,-2.12 0,-0.82 0,-1.56 -0.12,-2.26 -0.16,-1.03 -0.78,-1.36 -1.27,-1.36 h 0 v -0.24 c 0.59,0 1.42,0.23 1.89,1.27 0.35,0.75 0.41,1.6 0.41,2.46 z"
   inkscape:connector-curvature="0"
   style="fill:#000000;stroke-width:0" />
<path
   id="path6485"
   d="m 158.19,689.53 0.04,0.28 0.74,2.96 c 0.1,0.38 0.12,0.41 0.59,0.41 h 1.04 c 0.91,0 1.49,-0.29 1.49,-1.04 0,-0.43 -0.22,-1.36 -0.65,-1.75 -0.54,-0.49 -1.19,-0.58 -1.67,-0.58 h -1.54 l -0.04,-0.28 h 1.85 c 1.55,0 3.06,1.13 3.06,2.35 0,0.84 -0.72,1.64 -2.15,1.64 h -3.52 c -0.21,0 -0.33,0 -0.33,-0.21 0,-0.13 0.1,-0.13 0.31,-0.13 0.15,0 0.34,-0.01 0.47,-0.02 0.18,-0.02 0.24,-0.05 0.24,-0.17 0,-0.05 -0.01,-0.08 -0.04,-0.21 l -1.46,-5.85 c -0.11,-0.42 -0.13,-0.51 -0.99,-0.51 -0.19,0 -0.31,0 -0.31,-0.2 0,-0.14 0.14,-0.14 0.17,-0.14 0.3,0 1.08,0.04 1.38,0.04 0.23,0 0.47,-0.01 0.7,-0.01 0.24,0 0.48,-0.03 0.7,-0.03 0.08,0 0.22,0 0.22,0.22 0,0.12 -0.09,0.12 -0.3,0.12 -0.4,0 -0.71,0 -0.71,0.2 0,0.06 0.02,0.12 0.03,0.18 z"
   inkscape:connector-curvature="0"
   style="fill:#000000;stroke-width:0" />
<path
   id="path6487"
   d="m 173.92,689.64 0.03,0 0.03,0 0.03,0.01 0.02,0 0.02,0 0.01,0 0.02,0 0.01,0 0.02,0.01 0.01,0 0.02,0 0.01,0.01 0.02,0 0.01,0.01 0.01,0 0.01,0.01 0.01,0.01 0.02,0.01 0.01,0 0.01,0.01 0,0.02 0.01,0 0,0.01 0.01,0 0,0.01 0,0.01 0,0 0.01,0.01 0,0.01 0,0.01 0,0.01 0.01,0 0,0.01 0,0.01 0,0.01 0,0.01 0,0.01 c 0,0.22 -0.21,0.22 -0.36,0.22 h -6.52 c -0.15,0 -0.36,0 -0.36,-0.22 0,-0.22 0.21,-0.22 0.37,-0.22 z"
   inkscape:connector-curvature="0"
   style="fill:#000000;stroke-width:0" />
<path
   id="path6489"
   d="m 173.93,687.53 0.01,0 0.02,0 0.03,0 0.03,0 0.01,0 0.02,0.01 0.02,0 0.01,0 0.02,0 0.01,0 0.01,0.01 0.02,0 0.01,0 0.02,0.01 0.01,0 0.01,0.01 0.01,0.01 0.02,0.01 0.01,0 0.01,0.01 0.01,0.01 0,0.01 0,0 0.01,0.01 0,0.01 0.01,0 0,0.01 0,0.01 0,0 0.01,0.01 0,0.01 0,0.01 0,0 0.01,0.01 0,0.01 0,0.01 0,0.01 0,0.01 0,0.01 c 0,0.22 -0.21,0.22 -0.37,0.22 h -6.5 c -0.16,0 -0.37,0 -0.37,-0.22 0,-0.22 0.21,-0.22 0.36,-0.22 z"
   inkscape:connector-curvature="0"
   style="fill:#000000;stroke-width:0" />
<path
   id="path6491"
   d="m 181.16,693.05 0,0.02 0,0.01 0,0.01 0,0.01 0,0.01 0,0.01 0,0.01 0,0.01 0,0.01 0,0.01 0,0.01 0,0.01 -0.01,0 0,0.01 0,0.01 0,0.01 0,0 0,0.01 0,0.01 0,0.02 -0.01,0.01 0,0.01 0,0.01 -0.01,0 0,0.01 -0.01,0.01 -0.01,0.01 -0.01,0 0,0.01 -0.01,0 -0.01,0 0,0 -0.01,0 -0.01,0.01 0,0 -0.01,0 -0.01,0 0,0 -0.01,0 -0.01,0 0,0 -0.01,0 -0.01,0 -0.01,0 -0.01,0 -0.01,0.01 -0.01,0 -0.01,0 -0.01,0 -0.01,0 -0.01,0 -0.01,0 c -0.68,-0.7 -1.64,-0.7 -1.98,-0.7 v -0.34 c 0.21,0 0.86,0 1.42,0.28 v -5.64 c 0,-0.39 -0.03,-0.52 -1.01,-0.52 h -0.35 v -0.34 c 0.38,0.04 1.33,0.04 1.76,0.04 0.44,0 1.39,0 1.77,-0.04 v 0.34 h -0.35 c -0.98,0 -1.01,0.12 -1.01,0.52 z"
   inkscape:connector-curvature="0"
   style="fill:#000000;stroke-width:0" />
<path
   id="path6493"
   d="m 188.42,689.57 0,0.16 0,0.16 -0.01,0.17 -0.01,0.16 -0.01,0.16 -0.01,0.16 -0.01,0.17 -0.03,0.16 -0.02,0.16 -0.03,0.16 -0.04,0.15 -0.04,0.16 -0.04,0.16 -0.06,0.15 -0.06,0.15 -0.03,0.08 -0.04,0.08 c -0.5,1.04 -1.39,1.22 -1.85,1.22 -0.65,0 -1.45,-0.29 -1.89,-1.3 -0.35,-0.75 -0.4,-1.6 -0.4,-2.47 0,-0.82 0.04,-1.8 0.48,-2.63 0.47,-0.88 1.27,-1.1 1.8,-1.1 v 0.24 c -0.42,0 -1.07,0.28 -1.26,1.32 -0.12,0.65 -0.12,1.66 -0.12,2.3 0,0.7 0,1.41 0.09,2 0.2,1.3 1.02,1.4 1.29,1.4 0.36,0 1.08,-0.2 1.29,-1.28 0.1,-0.61 0.1,-1.43 0.1,-2.12 0,-0.82 0,-1.56 -0.11,-2.25 -0.17,-1.04 -0.79,-1.37 -1.28,-1.37 h 0 v -0.24 c 0.59,0 1.42,0.23 1.9,1.27 0.35,0.75 0.4,1.6 0.4,2.46 z"
   inkscape:connector-curvature="0"
   style="fill:#000000;stroke-width:0" />
<path
   id="path6495"
   d="m 193.87,689.57 0,0.16 0,0.16 0,0.17 -0.01,0.16 -0.01,0.16 -0.01,0.16 -0.02,0.17 -0.02,0.16 -0.03,0.16 -0.03,0.16 -0.03,0.15 -0.04,0.16 -0.05,0.16 -0.05,0.15 -0.06,0.15 -0.04,0.08 -0.03,0.08 c -0.5,1.04 -1.4,1.22 -1.85,1.22 -0.66,0 -1.45,-0.29 -1.9,-1.3 -0.35,-0.75 -0.4,-1.6 -0.4,-2.47 0,-0.82 0.04,-1.8 0.49,-2.63 0.47,-0.88 1.26,-1.1 1.8,-1.1 v 0.24 c -0.43,0 -1.07,0.28 -1.27,1.32 -0.12,0.65 -0.12,1.66 -0.12,2.3 0,0.7 0,1.41 0.09,2 0.21,1.3 1.02,1.4 1.3,1.4 0.35,0 1.07,-0.2 1.28,-1.28 0.11,-0.61 0.11,-1.43 0.11,-2.12 0,-0.82 0,-1.56 -0.12,-2.25 -0.16,-1.04 -0.78,-1.37 -1.27,-1.37 h 0 v -0.24 c 0.58,0 1.41,0.23 1.89,1.27 0.35,0.75 0.4,1.6 0.4,2.46 z"
   inkscape:connector-curvature="0"
   style="fill:#000000;stroke-width:0" />
</g>    <text
       xml:space="preserve"
       style="font-style:italic;font-variant:normal;font-weight:normal;font-stretch:normal;line-height:0%;font-family:Verdana;-inkscape-font-specification:Sans;text-align:start;letter-spacing:0px;word-spacing:0px;writing-mode:lr-tb;text-anchor:start;fill:#000000;fill-opacity:1;stroke:none"
       x="134.63367"
       y="394.44687"
       id="text6566"><tspan
         sodipodi:role="line"
         id="tspan6568"
         x="134.63367"
         y="394.44687"
         style="font-size:9px;line-height:1.25">a</tspan></text>
    <text
       xml:space="preserve"
       style="font-style:italic;font-variant:normal;font-weight:normal;font-stretch:normal;line-height:0%;font-family:Verdana;-inkscape-font-specification:Sans;text-align:start;letter-spacing:0px;word-spacing:0px;writing-mode:lr-tb;text-anchor:start;fill:#000000;fill-opacity:1;stroke:none"
       x="233.66338"
       y="315.56921"
       id="text6570"><tspan
         sodipodi:role="line"
         id="tspan6572"
         x="233.66338"
         y="315.56921"
         style="font-size:9px;line-height:1.25">b</tspan></text>
    <text
       xml:space="preserve"
       style="font-style:italic;font-variant:normal;font-weight:normal;font-stretch:normal;line-height:0%;font-family:Verdana;-inkscape-font-specification:Sans;text-align:start;letter-spacing:0px;word-spacing:0px;writing-mode:lr-tb;text-anchor:start;fill:#000000;fill-opacity:1;stroke:none"
       x="333"
       y="395.362"
       id="text6574"><tspan
         sodipodi:role="line"
         id="tspan6576"
         x="333"
         y="395.362"
         style="font-size:9px;line-height:1.25">c</tspan></text>
    <text
       xml:space="preserve"
       style="font-style:normal;font-variant:normal;font-weight:normal;font-stretch:normal;line-height:0%;font-family:Verdana;-inkscape-font-specification:Sans;text-align:start;letter-spacing:0px;word-spacing:0px;writing-mode:lr-tb;text-anchor:start;fill:#000000;fill-opacity:1;stroke:none"
       x="154.02325"
       y="432.01575"
       id="text6578"
       transform="translate(0,62.362)"><tspan
         sodipodi:role="line"
         id="tspan6580"
         x="154.02325"
         y="432.01575"
         style="font-size:11px;line-height:1.25">Virtual displacement imposed is a unit increase in the horizontal</tspan><tspan
         sodipodi:role="line"
         x="154.02325"
         y="445.76575"
         id="tspan6582"
         style="font-size:11px;line-height:1.25">distance between <tspan
   style="font-style:italic;-inkscape-font-specification:'Verdana Italic'"
   id="tspan6588">a</tspan> and <tspan
   style="font-style:italic;-inkscape-font-specification:'Verdana Italic'"
   id="tspan6590">b</tspan>.  Therefore, the distance <tspan
   style="font-style:italic;-inkscape-font-specification:'Verdana Italic'"
   id="tspan6586">b-c</tspan> increases </tspan><tspan
         sodipodi:role="line"
         x="154.02325"
         y="459.51575"
         id="tspan6584"
         style="font-size:11px;line-height:1.25">by 2, and the other diamond shape increases a similar amount.</tspan></text>
    <path
       style="fill:none;stroke:#000000;stroke-width:1.52999997;stroke-linecap:round;stroke-linejoin:miter;stroke-miterlimit:4;stroke-opacity:1;stroke-dasharray:none;stroke-dashoffset:0;marker-start:url(#Arrow2Mstart)"
       d="m 540,324 27,0"
       id="path6592"
       inkscape:connector-curvature="0"
       transform="translate(0,62.362)" />
    <text
       xml:space="preserve"
       style="font-style:normal;font-variant:normal;font-weight:normal;font-stretch:normal;line-height:0%;font-family:Verdana;-inkscape-font-specification:Sans;text-align:start;letter-spacing:0px;word-spacing:0px;writing-mode:lr-tb;text-anchor:start;fill:#000000;fill-opacity:1;stroke:none"
       x="560.78467"
       y="382.05988"
       id="text6788"><tspan
         sodipodi:role="line"
         id="tspan6790"
         x="560.78467"
         y="382.05988"
         style="font-size:11px;line-height:1.25">P</tspan></text>
    <path
       inkscape:connector-curvature="0"
       id="path6792"
       d="m 429.73871,305.66189 -27,0"
       style="fill:none;stroke:#000000;stroke-width:1.52999997;stroke-linecap:round;stroke-linejoin:miter;stroke-miterlimit:4;stroke-opacity:1;stroke-dasharray:none;stroke-dashoffset:0;marker-start:url(#Arrow2Mstart)" />
    <text
       xml:space="preserve"
       style="font-style:normal;font-variant:normal;font-weight:normal;font-stretch:normal;line-height:0%;font-family:Verdana;-inkscape-font-specification:Sans;text-align:start;letter-spacing:0px;word-spacing:0px;writing-mode:lr-tb;text-anchor:start;fill:#000000;fill-opacity:1;stroke:none"
       x="404.48163"
       y="302.34814"
       id="text6794"><tspan
         sodipodi:role="line"
         id="tspan6796"
         x="404.48163"
         y="302.34814"
         style="font-size:11px;line-height:1.25">100</tspan></text>
    <path
       style="fill:none;stroke:#000000;stroke-width:1.52999997;stroke-linecap:round;stroke-linejoin:miter;stroke-miterlimit:4;stroke-opacity:1;stroke-dasharray:none;stroke-dashoffset:0;marker-start:url(#Arrow2Mstart)"
       d="m 231.73871,305.66189 -27,0"
       id="path6798"
       inkscape:connector-curvature="0" />
    <text
       id="text6800"
       y="302.34814"
       x="206.48163"
       style="font-style:normal;font-variant:normal;font-weight:normal;font-stretch:normal;line-height:0%;font-family:Verdana;-inkscape-font-specification:Sans;text-align:start;letter-spacing:0px;word-spacing:0px;writing-mode:lr-tb;text-anchor:start;fill:#000000;fill-opacity:1;stroke:none"
       xml:space="preserve"><tspan
         y="302.34814"
         x="206.48163"
         id="tspan6802"
         sodipodi:role="line"
         style="font-size:11px;line-height:1.25">100</tspan></text>
  </g>
</svg>
