<?xml version="1.0" encoding="UTF-8" standalone="no"?>
<!-- Created with Inkscape (http://www.inkscape.org/) -->

<svg
   xmlns:ns0="http://www.iki.fi/pav/software/textext/"
   xmlns:dc="http://purl.org/dc/elements/1.1/"
   xmlns:cc="http://creativecommons.org/ns#"
   xmlns:rdf="http://www.w3.org/1999/02/22-rdf-syntax-ns#"
   xmlns:svg="http://www.w3.org/2000/svg"
   xmlns="http://www.w3.org/2000/svg"
   xmlns:xlink="http://www.w3.org/1999/xlink"
   xmlns:sodipodi="http://sodipodi.sourceforge.net/DTD/sodipodi-0.dtd"
   xmlns:inkscape="http://www.inkscape.org/namespaces/inkscape"
   width="405"
   height="122.4091"
   id="svg2"
   version="1.1"
   inkscape:version="0.92.4 (unknown)"
   sodipodi:docname="frame2-5.svg">
  <sodipodi:namedview
     id="base"
     pagecolor="#ffffff"
     bordercolor="#666666"
     borderopacity="1.0"
     inkscape:pageopacity="0.0"
     inkscape:pageshadow="2"
     inkscape:zoom="2.8567114"
     inkscape:cx="158.47094"
     inkscape:cy="70.203895"
     inkscape:document-units="in"
     inkscape:current-layer="layer1"
     showgrid="true"
     units="in"
     inkscape:window-width="1179"
     inkscape:window-height="979"
     inkscape:window-x="737"
     inkscape:window-y="94"
     inkscape:window-maximized="0"
     showguides="true"
     fit-margin-top="0.1"
     fit-margin-right="0.1"
     fit-margin-left="0.1"
     fit-margin-bottom="0.1"
     inkscape:snap-grids="false">
    <inkscape:grid
       spacingy="9"
       spacingx="9"
       units="in"
       snapvisiblegridlinesonly="true"
       enabled="true"
       visible="true"
       empspacing="5"
       id="grid2985"
       type="xygrid"
       originx="0"
       originy="0" />
    <sodipodi:guide
       id="guide3042"
       orientation="0,765"
       position="-200.73008,-759.07832"
       inkscape:locked="false" />
    <sodipodi:guide
       id="guide3044"
       orientation="-990,0"
       position="564.26992,-759.07832"
       inkscape:locked="false" />
    <sodipodi:guide
       id="guide3046"
       orientation="0,-765"
       position="564.26992,230.92168"
       inkscape:locked="false" />
    <sodipodi:guide
       id="guide3048"
       orientation="990,0"
       position="-200.73008,230.92168"
       inkscape:locked="false" />
    <sodipodi:guide
       id="guide3050"
       orientation="0,765"
       position="519.26992,-714.07832"
       inkscape:locked="false" />
    <sodipodi:guide
       id="guide3052"
       orientation="-990,0"
       position="519.26992,140.92168"
       inkscape:locked="false" />
    <sodipodi:guide
       id="guide3054"
       orientation="0,-765"
       position="-137.73008,140.92168"
       inkscape:locked="false" />
    <sodipodi:guide
       id="guide3056"
       orientation="990,0"
       position="-110.73008,167.92168"
       inkscape:locked="false" />
  </sodipodi:namedview>
  <script
     id="script3033"
     xlink:href="" />
  <defs
     id="defs4">
    <marker
       style="overflow:visible"
       id="Arrow1Mend"
       refX="0"
       refY="0"
       orient="auto"
       inkscape:stockid="Arrow1Mend">
      <path
         inkscape:connector-curvature="0"
         transform="matrix(-0.4,0,0,-0.4,-4,0)"
         style="fill-rule:evenodd;stroke:#000000;stroke-width:1pt;marker-start:none"
         d="M 0,0 5,-5 -12.5,0 5,5 0,0 z"
         id="path3952" />
    </marker>
    <marker
       inkscape:stockid="DimensionTick"
       orient="auto"
       refY="0"
       refX="0"
       id="DimensionTick"
       style="overflow:visible">
      <path
         inkscape:connector-curvature="0"
         d="M 0,0 8,8"
         style="stroke:#000000;stroke-width:1pt;marker-start:none"
         transform="translate(-4,-4)"
         id="path3934" />
    </marker>
    <marker
       id="MLArrowEnd"
       markerUnits="userSpaceOnUse"
       markerWidth="10"
       markerHeight="6"
       orient="auto"
       viewBox="0 0 10 6"
       refX="2"
       refY="3">
      <path
         d="M 0,0 10,3 0,6 2,3 z"
         id="path3454"
         inkscape:connector-curvature="0" />
    </marker>
  </defs>
  <metadata
     id="metadata7">
    <rdf:RDF>
      <cc:Work
         rdf:about="">
        <dc:format>image/svg+xml</dc:format>
        <dc:type
           rdf:resource="http://purl.org/dc/dcmitype/StillImage" />
        <dc:title />
        <cc:license
           rdf:resource="http://creativecommons.org/licenses/by-nc/3.0/" />
      </cc:Work>
      <cc:License
         rdf:about="http://creativecommons.org/licenses/by-nc/3.0/">
        <cc:permits
           rdf:resource="http://creativecommons.org/ns#Reproduction" />
        <cc:permits
           rdf:resource="http://creativecommons.org/ns#Distribution" />
        <cc:requires
           rdf:resource="http://creativecommons.org/ns#Notice" />
        <cc:requires
           rdf:resource="http://creativecommons.org/ns#Attribution" />
        <cc:prohibits
           rdf:resource="http://creativecommons.org/ns#CommercialUse" />
        <cc:permits
           rdf:resource="http://creativecommons.org/ns#DerivativeWorks" />
      </cc:License>
    </rdf:RDF>
  </metadata>
  <g
     transform="translate(-200.73008,-170.8746)"
     id="layer1"
     inkscape:groupmode="layer"
     inkscape:label="Layer 1">
    <g
       ns0:preamble="/home/nholtz/work/share/config/inkscape/extensions/amspreamble.tex"
       ns0:text="\\[\n\\int{}\n\\]\n"
       word-spacing="normal"
       letter-spacing="normal"
       font-size-adjust="none"
       font-stretch="normal"
       font-weight="normal"
       font-variant="normal"
       font-style="normal"
       stroke-miterlimit="10.433"
       xml:space="preserve"
       transform="matrix(1.5,0,0,-1.5,36.023644,1246.9896)"
       id="content"
       style="font-style:normal;font-variant:normal;font-weight:normal;font-stretch:normal;letter-spacing:normal;word-spacing:normal;text-anchor:start;fill:none;stroke:#000000;stroke-linecap:butt;stroke-linejoin:miter;stroke-miterlimit:10.43299961;stroke-opacity:1;stroke-dasharray:none;stroke-dashoffset:0">
<path
   id="path3419"
   d="m 154.2,688.4 0.04,0 0.03,0.01 0.03,0 0.03,0.01 0.02,0.01 0.03,0.01 0.03,0.01 0.02,0.01 0.03,0.01 0.02,0.01 0.02,0.01 0.03,0.02 0.02,0.01 0.02,0.02 0.01,0.02 0.02,0.01 0.02,0.02 0.01,0.02 0.02,0.02 0.01,0.02 0.01,0.02 0.01,0.03 0.01,0.02 0.01,0.02 0.01,0.02 0.01,0.03 0,0.02 0.01,0.02 0,0.03 0,0.02 0.01,0.03 0,0.02 c 0,0.36 -0.28,0.54 -0.53,0.54 -0.26,0 -0.53,-0.17 -0.53,-0.55 0,-0.55 0.55,-1.01 1.21,-1.01 1.65,0 2.27,2.55 3.05,5.71 0.84,3.44 1.54,6.91 2.13,10.41 0.41,2.32 0.81,4.49 1.18,5.9 0.13,0.53 0.5,1.94 0.92,1.94 0.34,0 0.61,-0.21 0.66,-0.25 -0.36,-0.03 -0.55,-0.27 -0.55,-0.54 0,-0.36 0.27,-0.53 0.52,-0.53 0.27,0 0.54,0.16 0.54,0.54 0,0.59 -0.59,1.02 -1.19,1.02 -0.83,0 -1.44,-1.19 -2.03,-3.41 -0.04,-0.12 -1.52,-5.59 -2.72,-12.71 -0.28,-1.66 -0.59,-3.48 -0.95,-5 -0.2,-0.79 -0.7,-2.84 -1.58,-2.84 -0.39,0 -0.66,0.25 -0.67,0.25 z"
   inkscape:connector-curvature="0"
   style="fill:#000000;stroke-width:0" />
</g>    <path
       sodipodi:nodetypes="cccc"
       inkscape:connector-curvature="0"
       id="path3691"
       d="m 343.32162,198.14969 -0.24753,-9.58416 -26.48515,9.08911 z"
       style="fill:#e6e6e6;fill-opacity:1;fill-rule:nonzero;stroke:#000000;stroke-width:1;stroke-linecap:square;stroke-linejoin:miter;stroke-miterlimit:4;stroke-opacity:1;stroke-dasharray:none;stroke-dashoffset:0" />
    <text
       id="text3697"
       y="187.01108"
       x="338.61862"
       style="font-style:normal;font-variant:normal;font-weight:normal;font-stretch:normal;line-height:0%;font-family:Verdana;-inkscape-font-specification:Sans;text-align:start;letter-spacing:0px;word-spacing:0px;writing-mode:lr-tb;text-anchor:start;fill:#000000;fill-opacity:1;stroke:none"
       xml:space="preserve"><tspan
         y="187.01108"
         x="338.61862"
         id="tspan3699"
         sodipodi:role="line"
         style="font-size:9px;line-height:1.25">4PL</tspan></text>
    <rect
       y="194.43683"
       x="281.93546"
       height="8.9108915"
       width="27.227722"
       id="rect3689"
       style="fill:#e6e6e6;stroke:#000000;stroke-width:1;stroke-linecap:square;stroke-linejoin:miter;stroke-miterlimit:4;stroke-opacity:1;stroke-dasharray:none;stroke-dashoffset:0" />
    <text
       id="text3693"
       y="192.75368"
       x="290.84634"
       style="font-style:normal;font-variant:normal;font-weight:normal;font-stretch:normal;line-height:0%;font-family:Verdana;-inkscape-font-specification:Sans;text-align:start;letter-spacing:0px;word-spacing:0px;writing-mode:lr-tb;text-anchor:start;fill:#000000;fill-opacity:1;stroke:none"
       xml:space="preserve"><tspan
         y="192.75368"
         x="290.84634"
         id="tspan3695"
         sodipodi:role="line"
         style="font-size:9px;line-height:1.25">4L</tspan></text>
    <text
       id="text3701"
       y="211.04077"
       x="277.19287"
       style="font-style:normal;font-variant:normal;font-weight:normal;font-stretch:normal;line-height:0%;font-family:Verdana;-inkscape-font-specification:Sans;text-align:start;letter-spacing:0px;word-spacing:0px;writing-mode:lr-tb;text-anchor:start;fill:#000000;fill-opacity:1;stroke:none"
       xml:space="preserve"><tspan
         y="211.04077"
         x="277.19287"
         id="tspan3703"
         sodipodi:role="line"
         style="font-size:9px;line-height:1.25">-1</tspan></text>
    <g
       id="g6133"
       transform="matrix(1.1,0,0,-1.1,41.667209,965.48451)"
       xml:space="preserve"
       stroke-miterlimit="10.433"
       font-style="normal"
       font-variant="normal"
       font-weight="normal"
       font-stretch="normal"
       font-size-adjust="none"
       letter-spacing="normal"
       word-spacing="normal"
       ns0:text="\\[\n\\theta_{10} = \\frac{1}{EI_0}\n\\]\n"
       ns0:preamble="/home/nholtz/work/share/config/inkscape/extensions/amspreamble.tex"
       style="font-style:normal;font-variant:normal;font-weight:normal;font-stretch:normal;letter-spacing:normal;word-spacing:normal;text-anchor:start;fill:none;stroke:#000000;stroke-linecap:butt;stroke-linejoin:miter;stroke-miterlimit:10.43299961;stroke-opacity:1;stroke-dasharray:none;stroke-dashoffset:0">
<path
   style="fill:#000000;stroke-width:0"
   inkscape:connector-curvature="0"
   d="m 158.02,703.14 0,0.07 0,0.07 0,0.08 -0.01,0.08 0,0.09 -0.01,0.08 -0.01,0.09 -0.01,0.09 -0.02,0.09 -0.01,0.1 -0.02,0.09 -0.03,0.09 -0.02,0.09 -0.03,0.1 -0.03,0.09 -0.03,0.09 -0.04,0.08 -0.04,0.09 -0.04,0.08 -0.05,0.08 -0.05,0.07 -0.06,0.07 -0.06,0.06 -0.06,0.06 -0.07,0.06 -0.03,0.02 -0.04,0.03 -0.04,0.02 -0.03,0.02 -0.04,0.02 -0.05,0.02 -0.04,0.01 -0.04,0.01 -0.05,0.02 -0.04,0 -0.05,0.01 -0.05,0.01 -0.05,0 -0.05,0 -0.01,-0.24 c 0.53,0 0.6,-0.69 0.6,-1.31 0,-0.54 -0.09,-1.09 -0.35,-2.17 h -2.28 c 0.19,0.69 0.41,1.57 0.84,2.34 0.3,0.53 0.7,1.14 1.19,1.14 l 0.01,0.24 c -1.51,0 -3.19,-3.07 -3.19,-5.56 0,-1.03 0.31,-2.23 1.31,-2.23 v 0.24 c -0.36,0 -0.59,0.31 -0.59,1.32 0,0.46 0.06,1.09 0.35,2.16 h 2.26 c -0.12,-0.5 -0.35,-1.43 -0.76,-2.21 -0.38,-0.74 -0.8,-1.27 -1.26,-1.27 v -0.24 c 1.53,0 3.18,3.12 3.18,5.56 z"
   id="path6135" />
<path
   style="fill:#000000;stroke-width:0"
   inkscape:connector-curvature="0"
   d="m 160.69,701.12 0,0.01 0,0.01 0,0.01 0,0.01 0,0.01 0,0.01 0,0.01 0,0 0,0.01 0,0.01 0,0.01 0,0 0,0.01 0,0.01 0,0 0,0.01 -0.01,0 0,0.01 0,0 0,0.01 0,0.01 -0.01,0.01 0,0 0,0.01 -0.01,0.01 0,0 -0.01,0.01 -0.01,0 0,0.01 -0.01,0 -0.01,0 -0.01,0.01 -0.01,0 -0.01,0 -0.01,0 -0.01,0 0,0 -0.01,0 -0.01,0 0,0 -0.01,0 -0.01,0 -0.01,0 0,0 -0.01,0 -0.01,0 -0.01,0 -0.01,0 -0.01,0 -0.01,0 c -0.33,-0.31 -0.75,-0.5 -1.5,-0.5 v -0.27 c 0.21,0 0.64,0 1.1,0.22 v -4.08 c 0,-0.29 -0.02,-0.39 -0.78,-0.39 H 159 v -0.26 c 0.33,0.02 1.01,0.02 1.37,0.02 0.36,0 1.05,0 1.38,-0.02 v 0.26 h -0.28 c -0.76,0 -0.78,0.1 -0.78,0.39 z"
   id="path6137" />
<path
   style="fill:#000000;stroke-width:0"
   inkscape:connector-curvature="0"
   d="m 166.32,698.59 0,0.08 0,0.08 0,0.08 -0.01,0.07 0,0.07 0,0.07 0,0.07 -0.01,0.07 0,0.06 -0.01,0.06 -0.01,0.07 0,0.06 -0.02,0.12 -0.02,0.11 -0.02,0.11 -0.03,0.11 -0.02,0.1 -0.04,0.1 -0.03,0.1 -0.04,0.1 -0.04,0.09 -0.05,0.1 c -0.35,0.7 -1,0.87 -1.43,0.87 v -0.22 c 0.27,0 0.82,-0.13 0.97,-0.86 0.1,-0.43 0.1,-1.03 0.1,-1.57 0,-0.47 0,-1.18 -0.1,-1.63 -0.16,-0.83 -0.71,-0.94 -0.97,-0.94 h 0 c -0.28,0 -0.82,0.12 -0.99,0.96 -0.09,0.45 -0.09,1.2 -0.09,1.61 0,0.55 0,1.1 0.09,1.54 0.17,0.81 0.79,0.89 0.99,0.89 v 0.22 c -1.01,0 -1.37,-0.74 -1.49,-0.96 -0.28,-0.59 -0.3,-1.37 -0.3,-1.79 0,-0.52 0.03,-1.32 0.41,-1.96 0.36,-0.59 0.95,-0.74 1.38,-0.74 0.38,0 1.06,0.12 1.46,0.91 0.29,0.57 0.32,1.28 0.32,1.79 z"
   id="path6139" />
<path
   style="fill:#000000;stroke-width:0"
   inkscape:connector-curvature="0"
   d="m 177.67,701.26 0.03,0 0.03,0 0.03,0 0.02,0 0.02,0 0.01,0 0.02,0 0.01,0 0.02,0.01 0.01,0 0.02,0 0.01,0.01 0.02,0 0.01,0.01 0.01,0 0.01,0.01 0.02,0.01 0.01,0.01 0.01,0.01 0.01,0.01 0.01,0.01 0,0 0,0.01 0.01,0.01 0,0 0,0.01 0.01,0.01 0,0 0,0.01 0,0.01 0,0.01 0.01,0.01 0,0.01 0,0 0,0.01 0,0.01 0,0.01 c 0,0.22 -0.21,0.22 -0.36,0.22 h -6.52 c -0.15,0 -0.36,0 -0.36,-0.22 0,-0.21 0.21,-0.21 0.37,-0.21 z"
   id="path6141" />
<path
   style="fill:#000000;stroke-width:0"
   inkscape:connector-curvature="0"
   d="m 177.68,699.14 0.01,0 0.02,0 0.03,0 0.03,0.01 0.02,0 0.01,0 0.02,0 0.01,0 0.02,0 0.01,0.01 0.02,0 0.01,0 0.01,0.01 0.02,0 0.01,0.01 0.01,0 0.02,0.01 0.01,0.01 0.01,0.01 0.01,0 0.01,0.01 0,0.01 0.01,0.01 0,0 0,0.01 0.01,0 0,0.01 0,0.01 0.01,0 0,0.01 0,0.01 0,0.01 0,0.01 0.01,0 0,0.01 0,0.01 0,0.01 0,0.01 0,0.01 c 0,0.22 -0.21,0.22 -0.37,0.22 h -6.5 c -0.16,0 -0.37,0 -0.37,-0.22 0,-0.22 0.21,-0.22 0.36,-0.22 z"
   id="path6143" />
<path
   style="fill:#000000;stroke-width:0"
   inkscape:connector-curvature="0"
   d="m 192.48,712.04 0,0.02 0,0.01 0,0.01 0,0.01 0,0.01 0,0.01 0,0.01 0,0.01 0,0.01 0,0.01 0,0.01 0,0.01 0,0.01 0,0 -0.01,0.01 0,0.01 0,0.01 0,0 0,0.02 0,0.01 -0.01,0.01 0,0.01 0,0.01 -0.01,0.01 0,0 -0.01,0.01 -0.01,0.01 0,0 -0.01,0.01 -0.01,0 -0.01,0 0,0 -0.01,0.01 0,0 -0.01,0 -0.01,0 0,0 -0.01,0 -0.01,0 -0.01,0 0,0 -0.01,0.01 -0.01,0 -0.01,0 -0.01,0 -0.01,0 -0.01,0 -0.01,0 -0.01,0 -0.01,0 -0.01,0 -0.01,0 c -0.68,-0.7 -1.63,-0.7 -1.98,-0.7 v -0.34 c 0.21,0 0.86,0 1.42,0.29 v -5.64 c 0,-0.4 -0.03,-0.53 -1.01,-0.53 h -0.35 v -0.33 c 0.38,0.03 1.33,0.03 1.76,0.03 0.44,0 1.39,0 1.77,-0.03 v 0.33 h -0.35 c -0.98,0 -1.01,0.12 -1.01,0.53 z"
   id="path6145" />
<line
   style="stroke-width:0.43599999"
   x1="182.89999"
   y1="700.41998"
   x2="201.11"
   y2="700.41998"
   id="line6147" />
<path
   style="fill:#000000;stroke-width:0"
   inkscape:connector-curvature="0"
   d="m 190.61,692.75 0,0.01 0,0 0.01,0.01 0,0.01 0.01,0.01 0,0.02 0.01,0.01 0,0.01 0,0.01 0.01,0 0,0.01 0,0 0,0.01 0,0 0.01,0.01 0,0 0,0.01 0,0 0,0 0,0.01 0,0 0,0 0,0.01 0,0 0,0 c 0,0.01 0,0.12 -0.13,0.12 -0.1,0 -0.12,-0.06 -0.14,-0.13 -0.71,-1.61 -1.11,-2.34 -2.97,-2.34 h -1.59 c -0.15,0 -0.18,0 -0.24,0.01 -0.11,0.01 -0.14,0.02 -0.14,0.11 0,0.03 0,0.05 0.05,0.25 l 0.74,2.97 h 1.08 c 0.93,0 0.93,-0.23 0.93,-0.5 0,-0.07 0,-0.2 -0.08,-0.53 -0.02,-0.06 -0.03,-0.09 -0.03,-0.12 0,-0.06 0.04,-0.12 0.14,-0.12 0.09,0 0.12,0.05 0.16,0.22 l 0.62,2.55 c 0,0.06 -0.05,0.12 -0.13,0.12 -0.1,0 -0.12,-0.07 -0.15,-0.2 -0.23,-0.83 -0.43,-1.08 -1.43,-1.08 h -1.02 l 0.65,2.62 c 0.1,0.39 0.11,0.43 0.59,0.43 h 1.54 c 1.32,0 1.65,-0.32 1.65,-1.21 0,-0.26 0,-0.28 -0.04,-0.58 0,-0.06 -0.01,-0.14 -0.01,-0.19 0,-0.06 0.03,-0.13 0.13,-0.13 0.12,0 0.13,0.06 0.15,0.27 l 0.22,1.88 c 0.03,0.3 -0.02,0.3 -0.3,0.3 h -5.5 c -0.21,0 -0.32,0 -0.32,-0.22 0,-0.12 0.1,-0.12 0.3,-0.12 0.41,0 0.71,0 0.71,-0.2 0,-0.04 0,-0.06 -0.05,-0.26 l -1.44,-5.76 c -0.11,-0.42 -0.13,-0.51 -0.99,-0.51 -0.19,0 -0.31,0 -0.31,-0.21 0,-0.13 0.1,-0.13 0.31,-0.13 h 5.65 c 0.25,0 0.26,0.01 0.34,0.19 z"
   id="path6149" />
<path
   style="fill:#000000;stroke-width:0"
   inkscape:connector-curvature="0"
   d="m 195.66,696.81 0.01,0.04 0.01,0.03 0,0.03 0.01,0.04 0.01,0.02 0.01,0.03 0.01,0.03 0.01,0.02 0.02,0.03 0.01,0.02 0.01,0.02 0.02,0.02 0.02,0.02 0.01,0.02 0.02,0.01 0.03,0.02 0.02,0.01 0.03,0.01 0.03,0.02 0.03,0.01 0.04,0.01 0.02,0 0.02,0 0.02,0.01 0.02,0 0.02,0.01 0.03,0 0.02,0 0.02,0 0.03,0.01 0.03,0 0.02,0 0.03,0 0.03,0.01 0.03,0 0.04,0 0.03,0 0.03,0 0.04,0 0.03,0 0.04,0 0.04,0 0.04,0 c 0.26,0 0.35,0 0.35,0.21 0,0.13 -0.12,0.13 -0.17,0.13 -0.31,0 -1.12,-0.03 -1.43,-0.03 -0.33,0 -1.13,0.03 -1.45,0.03 -0.08,0 -0.22,0 -0.22,-0.22 0,-0.12 0.1,-0.12 0.31,-0.12 0.45,0 0.75,0 0.75,-0.2 0,-0.06 0,-0.08 -0.03,-0.18 l -1.47,-5.87 c -0.09,-0.4 -0.13,-0.51 -0.99,-0.51 -0.25,0 -0.34,0 -0.34,-0.22 0,-0.12 0.13,-0.12 0.16,-0.12 0.31,0 1.11,0.04 1.43,0.04 0.32,0 1.13,-0.04 1.46,-0.04 0.08,0 0.21,0 0.21,0.21 0,0.13 -0.09,0.13 -0.32,0.13 -0.2,0 -0.25,0 -0.47,0.02 -0.23,0.02 -0.27,0.07 -0.27,0.19 0,0.08 0.02,0.17 0.04,0.25 z"
   id="path6151" />
<path
   style="fill:#000000;stroke-width:0"
   inkscape:connector-curvature="0"
   d="m 200.27,691.11 0,0.08 0,0.08 0,0.07 -0.01,0.08 0,0.07 0,0.07 0,0.07 -0.01,0.06 0,0.07 -0.01,0.06 -0.01,0.06 0,0.06 -0.02,0.12 -0.02,0.12 -0.02,0.11 -0.02,0.1 -0.03,0.11 -0.04,0.1 -0.03,0.1 -0.04,0.1 -0.04,0.09 -0.05,0.1 c -0.35,0.7 -1,0.87 -1.43,0.87 v -0.22 c 0.27,0 0.82,-0.14 0.97,-0.86 0.1,-0.44 0.1,-1.03 0.1,-1.57 0,-0.47 0,-1.19 -0.1,-1.63 -0.16,-0.84 -0.71,-0.95 -0.97,-0.95 h 0 c -0.27,0 -0.82,0.13 -0.99,0.96 -0.09,0.46 -0.09,1.2 -0.09,1.62 0,0.55 0,1.1 0.09,1.54 0.17,0.81 0.79,0.89 0.99,0.89 v 0.22 c -1.01,0 -1.37,-0.75 -1.48,-0.97 -0.29,-0.58 -0.31,-1.36 -0.31,-1.78 0,-0.52 0.03,-1.33 0.41,-1.96 0.37,-0.59 0.95,-0.74 1.38,-0.74 0.38,0 1.06,0.12 1.46,0.91 0.29,0.57 0.32,1.27 0.32,1.79 z"
   id="path6153" />
</g>    <g
       style="font-style:normal;font-variant:normal;font-weight:normal;font-stretch:normal;letter-spacing:normal;word-spacing:normal;text-anchor:start;fill:none;stroke:#000000;stroke-linecap:butt;stroke-linejoin:miter;stroke-miterlimit:10.43299961;stroke-opacity:1;stroke-dasharray:none;stroke-dashoffset:0"
       ns0:preamble="/home/nholtz/work/share/config/inkscape/extensions/amspreamble.tex"
       ns0:text="\\[\n{}+\\frac{1}{2 E I_0}\n\\]\n"
       text-anchor="start"
       word-spacing="normal"
       letter-spacing="normal"
       font-size-adjust="none"
       font-stretch="normal"
       font-weight="normal"
       font-variant="normal"
       font-style="normal"
       fill-opacity="1"
       fill-rule="evenodd"
       fill="none"
       stroke-opacity="1"
       stroke-dashoffset="0"
       stroke-dasharray="none"
       stroke-miterlimit="10.433"
       stroke-linejoin="miter"
       stroke-linecap="butt"
       stroke="black"
       xml:space="preserve"
       transform="matrix(1.1,0,0,-1.1,200.08305,965.48451)"
       id="g6341">
<path
   id="path6343"
   fill="black"
   stroke-width="0"
   d="M159.95,700.2 H162.99 C163.14,700.2,163.35,700.2,163.35,700.42 C163.35,700.64,163.14,700.64,162.99,700.64 H159.95 V703.68 C159.95,703.84,159.95,704.04,159.73,704.04 C159.51,704.04,159.51,703.84,159.51,703.68 V700.64 H156.46 C156.31,700.64,156.1,700.64,156.1,700.42 C156.1,700.2,156.31,700.2,156.46,700.2 H159.51 V697.15 C159.51,697,159.51,696.79,159.73,696.79 C159.95,696.79,159.95,697,159.95,697.15 Z " />
<path
   id="path6345"
   fill="black"
   stroke-width="0"
   d="M179.91,712.04 L179.91,712.06 L179.91,712.07 L179.91,712.08 L179.91,712.09 L179.91,712.1 L179.91,712.11 L179.91,712.12 L179.91,712.13 L179.91,712.14 L179.91,712.15 L179.9,712.16 L179.9,712.17 L179.9,712.18 L179.9,712.18 L179.9,712.19 L179.9,712.2 L179.9,712.21 L179.9,712.21 L179.9,712.23 L179.9,712.24 L179.89,712.25 L179.89,712.26 L179.89,712.27 L179.88,712.28 L179.87,712.28 L179.87,712.29 L179.86,712.3 L179.85,712.3 L179.84,712.31 L179.84,712.31 L179.83,712.31 L179.82,712.31 L179.82,712.32 L179.81,712.32 L179.81,712.32 L179.8,712.32 L179.79,712.32 L179.79,712.32 L179.78,712.32 L179.77,712.32 L179.76,712.32 L179.76,712.33 L179.75,712.33 L179.74,712.33 L179.73,712.33 L179.72,712.33 L179.71,712.33 L179.7,712.33 L179.69,712.33 L179.68,712.33 L179.67,712.33 L179.66,712.33 C178.98,711.63,178.02,711.63,177.67,711.63 V711.29 C177.89,711.29,178.53,711.29,179.1,711.58 V705.94 C179.1,705.54,179.07,705.41,178.09,705.41 H177.74 V705.08 C178.12,705.11,179.07,705.11,179.5,705.11 C179.94,705.11,180.89,705.11,181.27,705.08 V705.41 H180.92 C179.94,705.41,179.91,705.53,179.91,705.94 Z " />
<line
   id="line6347"
   stroke-width="0.436"
   y2="700.42"
   x2="191.26"
   y1="700.42"
   x1="167.6" />
<path
   id="path6349"
   fill="black"
   stroke-width="0"
   d="M168.98,691.05 L170.14,692.17 C171.84,693.68,172.49,694.26,172.49,695.35 C172.49,696.59,171.51,697.47,170.18,697.47 C168.95,697.47,168.14,696.46,168.14,695.49 C168.14,694.88,168.69,694.88,168.72,694.88 C168.91,694.88,169.29,695.02,169.29,695.46 C169.29,695.74,169.09,696.03,168.71,696.03 C168.62,696.03,168.6,696.03,168.57,696.02 C168.82,696.72,169.41,697.13,170.04,697.13 C171.03,697.13,171.5,696.24,171.5,695.35 C171.5,694.48,170.95,693.62,170.35,692.95 L168.26,690.62 C168.14,690.5,168.14,690.47,168.14,690.21 H172.18 L172.49,692.11 H172.22 C172.16,691.78,172.09,691.3,171.98,691.14 C171.9,691.05,171.18,691.05,170.94,691.05 Z " />
<path
   id="path6351"
   fill="black"
   stroke-width="0"
   d="M180.76,692.75 L180.77,692.76 L180.77,692.76 L180.77,692.77 L180.78,692.78 L180.78,692.79 L180.79,692.81 L180.79,692.82 L180.79,692.83 L180.8,692.84 L180.8,692.84 L180.8,692.85 L180.8,692.85 L180.81,692.86 L180.81,692.86 L180.81,692.87 L180.81,692.87 L180.81,692.88 L180.81,692.88 L180.81,692.88 L180.82,692.89 L180.82,692.89 L180.82,692.89 L180.82,692.9 L180.82,692.9 L180.82,692.9 C180.82,692.91,180.82,693.02,180.69,693.02 C180.59,693.02,180.57,692.96,180.54,692.89 C179.84,691.28,179.43,690.55,177.57,690.55 H175.98 C175.83,690.55,175.81,690.55,175.74,690.56 C175.63,690.57,175.6,690.58,175.6,690.67 C175.6,690.7,175.6,690.72,175.66,690.92 L176.4,693.89 H177.48 C178.4,693.89,178.4,693.66,178.4,693.39 C178.4,693.32,178.4,693.19,178.32,692.86 C178.3,692.8,178.29,692.77,178.29,692.74 C178.29,692.68,178.34,692.62,178.43,692.62 C178.52,692.62,178.55,692.67,178.6,692.84 L179.22,695.39 C179.22,695.45,179.16,695.51,179.09,695.51 C178.99,695.51,178.97,695.44,178.93,695.31 C178.71,694.48,178.51,694.23,177.51,694.23 H176.48 L177.14,696.85 C177.24,697.24,177.25,697.28,177.73,697.28 H179.26 C180.59,697.28,180.92,696.96,180.92,696.07 C180.92,695.81,180.92,695.79,180.87,695.49 C180.87,695.43,180.86,695.35,180.86,695.3 C180.86,695.24,180.89,695.17,180.99,695.17 C181.11,695.17,181.12,695.23,181.14,695.44 L181.36,697.32 C181.4,697.62,181.34,697.62,181.07,697.62 H175.57 C175.35,697.62,175.24,697.62,175.24,697.4 C175.24,697.28,175.34,697.28,175.55,697.28 C175.95,697.28,176.26,697.28,176.26,697.08 C176.26,697.04,176.26,697.02,176.2,696.82 L174.76,691.06 C174.65,690.64,174.63,690.55,173.77,690.55 C173.59,690.55,173.47,690.55,173.47,690.34 C173.47,690.21,173.57,690.21,173.77,690.21 H179.42 C179.67,690.21,179.68,690.22,179.76,690.4 Z " />
<path
   id="path6353"
   fill="black"
   stroke-width="0"
   d="M185.81,696.81 L185.82,696.85 L185.83,696.88 L185.84,696.91 L185.85,696.95 L185.86,696.97 L185.87,697 L185.88,697.03 L185.89,697.05 L185.9,697.08 L185.91,697.1 L185.93,697.12 L185.94,697.14 L185.96,697.16 L185.98,697.18 L186,697.19 L186.02,697.21 L186.05,697.22 L186.07,697.23 L186.1,697.25 L186.14,697.26 L186.17,697.27 L186.19,697.27 L186.21,697.27 L186.23,697.28 L186.25,697.28 L186.28,697.29 L186.3,697.29 L186.32,697.29 L186.35,697.29 L186.37,697.3 L186.4,697.3 L186.43,697.3 L186.46,697.3 L186.49,697.31 L186.52,697.31 L186.55,697.31 L186.58,697.31 L186.62,697.31 L186.65,697.31 L186.69,697.31 L186.72,697.31 L186.76,697.31 L186.8,697.31 C187.06,697.31,187.15,697.31,187.15,697.52 C187.15,697.65,187.03,697.65,186.99,697.65 C186.67,697.65,185.87,697.62,185.55,697.62 C185.22,697.62,184.43,697.65,184.1,697.65 C184.03,697.65,183.88,697.65,183.88,697.43 C183.88,697.31,183.98,697.31,184.19,697.31 C184.65,697.31,184.94,697.31,184.94,697.11 C184.94,697.05,184.94,697.03,184.92,696.93 L183.45,691.06 C183.35,690.66,183.32,690.55,182.46,690.55 C182.21,690.55,182.11,690.55,182.11,690.33 C182.11,690.21,182.24,690.21,182.27,690.21 C182.59,690.21,183.38,690.25,183.7,690.25 C184.03,690.25,184.83,690.21,185.16,690.21 C185.25,690.21,185.38,690.21,185.38,690.42 C185.38,690.55,185.29,690.55,185.05,690.55 C184.85,690.55,184.8,690.55,184.58,690.57 C184.35,690.59,184.31,690.64,184.31,690.76 C184.31,690.84,184.33,690.93,184.35,691.01 Z " />
<path
   id="path6355"
   fill="black"
   stroke-width="0"
   d="M190.42,691.11 L190.42,691.19 L190.42,691.27 L190.42,691.34 L190.42,691.42 L190.42,691.49 L190.41,691.56 L190.41,691.63 L190.41,691.69 L190.4,691.76 L190.4,691.82 L190.39,691.88 L190.38,691.94 L190.37,692.06 L190.35,692.18 L190.33,692.29 L190.3,692.39 L190.27,692.5 L190.24,692.6 L190.2,692.7 L190.16,692.8 L190.12,692.89 L190.07,692.99 C189.72,693.69,189.08,693.86,188.64,693.86 V693.64 C188.91,693.64,189.46,693.5,189.62,692.78 C189.72,692.34,189.72,691.75,189.72,691.21 C189.72,690.74,189.72,690.02,189.62,689.58 C189.45,688.74,188.9,688.63,188.64,688.63 H188.64 C188.37,688.63,187.82,688.76,187.65,689.59 C187.57,690.05,187.57,690.79,187.57,691.21 C187.57,691.76,187.57,692.31,187.65,692.75 C187.82,693.56,188.44,693.64,188.64,693.64 V693.86 C187.64,693.86,187.27,693.11,187.16,692.89 C186.87,692.31,186.86,691.53,186.86,691.11 C186.86,690.59,186.88,689.78,187.26,689.15 C187.63,688.56,188.22,688.41,188.64,688.41 C189.02,688.41,189.71,688.53,190.11,689.32 C190.4,689.89,190.42,690.59,190.42,691.11 Z " />
</g>    <g
       style="font-style:normal;font-variant:normal;font-weight:normal;font-stretch:normal;letter-spacing:normal;word-spacing:normal;text-anchor:start;fill:none;stroke:#000000;stroke-linecap:butt;stroke-linejoin:miter;stroke-miterlimit:10.43299961;stroke-opacity:1;stroke-dasharray:none;stroke-dashoffset:0"
       id="g6441"
       transform="matrix(1.5,0,0,-1.5,179.83553,1244.7619)"
       xml:space="preserve"
       stroke-miterlimit="10.433"
       font-style="normal"
       font-variant="normal"
       font-weight="normal"
       font-stretch="normal"
       font-size-adjust="none"
       letter-spacing="normal"
       word-spacing="normal"
       ns0:text="\\[\n\\int{}\n\\]\n"
       ns0:preamble="/home/nholtz/work/share/config/inkscape/extensions/amspreamble.tex">
<path
   style="fill:#000000;stroke-width:0"
   inkscape:connector-curvature="0"
   d="m 154.2,688.4 0.04,0 0.03,0.01 0.03,0 0.03,0.01 0.02,0.01 0.03,0.01 0.03,0.01 0.02,0.01 0.03,0.01 0.02,0.01 0.02,0.01 0.03,0.02 0.02,0.01 0.02,0.02 0.01,0.02 0.02,0.01 0.02,0.02 0.01,0.02 0.02,0.02 0.01,0.02 0.01,0.02 0.01,0.03 0.01,0.02 0.01,0.02 0.01,0.02 0.01,0.03 0,0.02 0.01,0.02 0,0.03 0,0.02 0.01,0.03 0,0.02 c 0,0.36 -0.28,0.54 -0.53,0.54 -0.26,0 -0.53,-0.17 -0.53,-0.55 0,-0.55 0.55,-1.01 1.21,-1.01 1.65,0 2.27,2.55 3.05,5.71 0.84,3.44 1.54,6.91 2.13,10.41 0.41,2.32 0.81,4.49 1.18,5.9 0.13,0.53 0.5,1.94 0.92,1.94 0.34,0 0.61,-0.21 0.66,-0.25 -0.36,-0.03 -0.55,-0.27 -0.55,-0.54 0,-0.36 0.27,-0.53 0.52,-0.53 0.27,0 0.54,0.16 0.54,0.54 0,0.59 -0.59,1.02 -1.19,1.02 -0.83,0 -1.44,-1.19 -2.03,-3.41 -0.04,-0.12 -1.52,-5.59 -2.72,-12.71 -0.28,-1.66 -0.59,-3.48 -0.95,-5 -0.2,-0.79 -0.7,-2.84 -1.58,-2.84 -0.39,0 -0.66,0.25 -0.67,0.25 z"
   id="path6443" />
</g>    <path
       style="fill:#e6e6e6;fill-opacity:1;fill-rule:nonzero;stroke:#000000;stroke-width:1;stroke-linecap:square;stroke-linejoin:miter;stroke-miterlimit:4;stroke-opacity:1;stroke-dasharray:none;stroke-dashoffset:0"
       d="m 234.15842,32.557618 -0.24753,-9.40594 26.73267,0.495049 z"
       id="path6445"
       inkscape:connector-curvature="0"
       transform="translate(200.73008,170.8746)" />
    <path
       style="fill:#e6e6e6;fill-opacity:1;fill-rule:nonzero;stroke:#000000;stroke-width:1;stroke-linecap:square;stroke-linejoin:miter;stroke-miterlimit:4;stroke-opacity:1;stroke-dasharray:none;stroke-dashoffset:0"
       d="m 269.80198,15.47841 0.24753,7.673268 27.22772,0.247524 z"
       id="path6447"
       inkscape:connector-curvature="0"
       transform="translate(200.73008,170.8746)" />
    <text
       xml:space="preserve"
       style="font-style:normal;font-variant:normal;font-weight:normal;font-stretch:normal;line-height:0%;font-family:Verdana;-inkscape-font-specification:Sans;text-align:start;letter-spacing:0px;word-spacing:0px;writing-mode:lr-tb;text-anchor:start;fill:#000000;fill-opacity:1;stroke:none"
       x="441.55185"
       y="192.54112"
       id="text6449"><tspan
         sodipodi:role="line"
         id="tspan6451"
         x="441.55185"
         y="192.54112"
         style="font-size:9px;line-height:1.25">3L</tspan></text>
    <text
       xml:space="preserve"
       style="font-style:normal;font-variant:normal;font-weight:normal;font-stretch:normal;line-height:0%;font-family:Verdana;-inkscape-font-specification:Sans;text-align:start;letter-spacing:0px;word-spacing:0px;writing-mode:lr-tb;text-anchor:start;fill:#000000;fill-opacity:1;stroke:none"
       x="431.42316"
       y="209.88766"
       id="text6453"><tspan
         sodipodi:role="line"
         id="tspan6455"
         x="431.42316"
         y="209.88766"
         style="font-size:9px;line-height:1.25">-1</tspan></text>
    <text
       xml:space="preserve"
       style="font-style:normal;font-variant:normal;font-weight:normal;font-stretch:normal;line-height:0%;font-family:Verdana;-inkscape-font-specification:Sans;text-align:start;letter-spacing:0px;word-spacing:0px;writing-mode:lr-tb;text-anchor:start;fill:#000000;fill-opacity:1;stroke:none"
       x="466.32413"
       y="184.88766"
       id="text6457"><tspan
         sodipodi:role="line"
         id="tspan6459"
         x="466.32413"
         y="184.88766"
         style="font-size:9px;line-height:1.25">4PL</tspan></text>
    <g
       style="font-style:normal;font-variant:normal;font-weight:normal;font-stretch:normal;letter-spacing:normal;word-spacing:normal;text-anchor:start;fill:none;stroke:#000000;stroke-linecap:butt;stroke-linejoin:miter;stroke-miterlimit:10.43299961;stroke-opacity:1;stroke-dasharray:none;stroke-dashoffset:0"
       ns0:preamble="/home/nholtz/work/share/config/inkscape/extensions/amspreamble.tex"
       ns0:text="\\[\n\\begin{split}\n\\theta_{10} &amp;= \\frac{1}{EI_0} \\times \\frac{4L}{2} \\times -1 \\times 4PL\n+ \\frac{1}{2 E I_0} \\times \\frac{3L}{3}\\times -1 \\times 4PL\\\\\n &amp;= -\\frac{10 P L^2}{E I_0}\n\\end{split}\n\\]\n"
       text-anchor="start"
       word-spacing="normal"
       letter-spacing="normal"
       font-size-adjust="none"
       font-stretch="normal"
       font-weight="normal"
       font-variant="normal"
       font-style="normal"
       fill-opacity="1"
       fill-rule="evenodd"
       fill="none"
       stroke-opacity="1"
       stroke-dashoffset="0"
       stroke-dasharray="none"
       stroke-miterlimit="10.433"
       stroke-linejoin="miter"
       stroke-linecap="butt"
       stroke="black"
       xml:space="preserve"
       transform="matrix(1.1,0,0,-1.1,41.667209,1007.4847)"
       id="g6801">
<path
   id="path6803"
   fill="black"
   stroke-width="0"
   d="M159.84,702.72 L159.84,702.79 L159.84,702.86 L159.84,702.94 L159.83,703.02 L159.83,703.1 L159.82,703.19 L159.81,703.28 L159.8,703.37 L159.78,703.46 L159.76,703.55 L159.74,703.65 L159.72,703.74 L159.7,703.83 L159.67,703.92 L159.64,704.01 L159.61,704.1 L159.57,704.19 L159.53,704.27 L159.49,704.35 L159.44,704.43 L159.39,704.51 L159.33,704.58 L159.27,704.64 L159.21,704.7 L159.14,704.75 L159.11,704.78 L159.07,704.8 L159.03,704.83 L158.99,704.85 L158.95,704.86 L158.91,704.88 L158.87,704.9 L158.83,704.91 L158.78,704.92 L158.73,704.93 L158.69,704.94 L158.64,704.94 L158.59,704.95 L158.54,704.95 L158.53,704.71 C159.06,704.71,159.12,704.01,159.12,703.39 C159.12,702.86,159.04,702.3,158.78,701.22 H156.5 C156.69,701.92,156.9,702.79,157.34,703.57 C157.63,704.1,158.04,704.71,158.53,704.71 L158.54,704.95 C157.02,704.95,155.35,701.88,155.35,699.38 C155.35,698.36,155.66,697.15,156.65,697.15 V697.39 C156.29,697.39,156.07,697.71,156.07,698.72 C156.07,699.18,156.13,699.81,156.41,700.88 H158.68 C158.56,700.38,158.33,699.45,157.92,698.67 C157.54,697.92,157.12,697.39,156.65,697.39 V697.15 C158.19,697.15,159.84,700.28,159.84,702.72 Z " />
<path
   id="path6805"
   fill="black"
   stroke-width="0"
   d="M162.51,700.7 L162.51,700.71 L162.51,700.72 L162.51,700.73 L162.51,700.74 L162.51,700.74 L162.51,700.75 L162.51,700.76 L162.51,700.77 L162.51,700.78 L162.51,700.78 L162.51,700.79 L162.51,700.8 L162.51,700.81 L162.5,700.81 L162.5,700.82 L162.5,700.82 L162.5,700.83 L162.5,700.83 L162.5,700.84 L162.5,700.85 L162.5,700.85 L162.49,700.86 L162.49,700.87 L162.48,700.88 L162.48,700.88 L162.47,700.89 L162.47,700.9 L162.46,700.9 L162.45,700.9 L162.45,700.91 L162.44,700.91 L162.43,700.91 L162.42,700.91 L162.4,700.92 L162.4,700.92 L162.39,700.92 L162.39,700.92 L162.38,700.92 L162.37,700.92 L162.36,700.92 L162.36,700.92 L162.35,700.92 L162.34,700.92 L162.33,700.92 L162.32,700.92 L162.32,700.92 L162.31,700.92 L162.3,700.92 L162.29,700.92 L162.28,700.92 C161.95,700.6,161.53,700.41,160.77,700.41 V700.15 C160.99,700.15,161.42,700.15,161.88,700.36 V696.29 C161.88,695.99,161.86,695.9,161.1,695.9 H160.82 V695.64 C161.15,695.66,161.83,695.66,162.19,695.66 C162.55,695.66,163.24,695.66,163.57,695.64 V695.9 H163.29 C162.53,695.9,162.51,695.99,162.51,696.29 Z " />
<path
   id="path6807"
   fill="black"
   stroke-width="0"
   d="M168.14,698.17 L168.14,698.25 L168.14,698.33 L168.13,698.4 L168.13,698.47 L168.13,698.55 L168.13,698.62 L168.12,698.68 L168.12,698.75 L168.11,698.82 L168.11,698.88 L168.1,698.94 L168.1,699 L168.08,699.12 L168.06,699.24 L168.04,699.35 L168.01,699.45 L167.98,699.56 L167.95,699.66 L167.92,699.76 L167.88,699.85 L167.83,699.95 L167.79,700.05 C167.44,700.75,166.79,700.92,166.35,700.92 V700.7 C166.62,700.7,167.17,700.56,167.33,699.84 C167.43,699.4,167.43,698.81,167.43,698.27 C167.43,697.8,167.43,697.08,167.33,696.64 C167.17,695.8,166.62,695.69,166.35,695.69 H166.35 C166.08,695.69,165.53,695.82,165.37,696.65 C165.28,697.11,165.28,697.85,165.28,698.27 C165.28,698.82,165.28,699.37,165.37,699.81 C165.53,700.62,166.15,700.7,166.35,700.7 V700.92 C165.35,700.92,164.99,700.17,164.87,699.95 C164.59,699.37,164.57,698.58,164.57,698.17 C164.57,697.65,164.6,696.84,164.98,696.21 C165.34,695.62,165.93,695.47,166.35,695.47 C166.74,695.47,167.42,695.59,167.82,696.38 C168.11,696.95,168.14,697.65,168.14,698.17 Z " />
<path
   id="path6809"
   fill="black"
   stroke-width="0"
   d="M179.49,700.83 L179.52,700.83 L179.55,700.83 L179.58,700.83 L179.6,700.83 L179.61,700.84 L179.63,700.84 L179.65,700.84 L179.66,700.84 L179.68,700.84 L179.69,700.85 L179.71,700.85 L179.72,700.85 L179.73,700.86 L179.75,700.86 L179.76,700.87 L179.77,700.88 L179.78,700.89 L179.79,700.89 L179.8,700.9 L179.81,700.91 L179.82,700.92 L179.83,700.93 L179.83,700.94 L179.83,700.94 L179.84,700.95 L179.84,700.96 L179.84,700.96 L179.85,700.97 L179.85,700.98 L179.85,700.99 L179.85,700.99 L179.85,701 L179.86,701.01 L179.86,701.02 L179.86,701.03 L179.86,701.04 L179.86,701.05 C179.86,701.27,179.65,701.27,179.5,701.27 H172.98 C172.82,701.27,172.62,701.27,172.62,701.05 C172.62,700.83,172.82,700.83,172.99,700.83 Z " />
<path
   id="path6811"
   fill="black"
   stroke-width="0"
   d="M179.5,698.72 L179.51,698.72 L179.53,698.72 L179.56,698.72 L179.59,698.72 L179.6,698.72 L179.62,698.72 L179.63,698.72 L179.65,698.73 L179.66,698.73 L179.68,698.73 L179.69,698.73 L179.71,698.74 L179.72,698.74 L179.74,698.75 L179.75,698.75 L179.76,698.76 L179.77,698.77 L179.78,698.77 L179.8,698.78 L179.81,698.79 L179.81,698.8 L179.82,698.81 L179.82,698.81 L179.83,698.82 L179.83,698.82 L179.83,698.83 L179.84,698.84 L179.84,698.84 L179.84,698.85 L179.85,698.86 L179.85,698.87 L179.85,698.87 L179.85,698.88 L179.85,698.89 L179.86,698.9 L179.86,698.91 L179.86,698.92 L179.86,698.93 L179.86,698.94 C179.86,699.16,179.65,699.16,179.49,699.16 H172.99 C172.82,699.16,172.62,699.16,172.62,698.94 C172.62,698.72,172.82,698.72,172.98,698.72 Z " />
<path
   id="path6813"
   fill="black"
   stroke-width="0"
   d="M194.3,711.62 L194.3,711.63 L194.3,711.64 L194.3,711.66 L194.3,711.67 L194.3,711.68 L194.3,711.69 L194.3,711.7 L194.3,711.71 L194.3,711.72 L194.3,711.73 L194.29,711.74 L194.29,711.74 L194.29,711.75 L194.29,711.76 L194.29,711.77 L194.29,711.78 L194.29,711.78 L194.29,711.79 L194.29,711.8 L194.29,711.81 L194.28,711.83 L194.28,711.84 L194.28,711.84 L194.27,711.85 L194.26,711.86 L194.26,711.87 L194.25,711.87 L194.24,711.88 L194.23,711.88 L194.23,711.89 L194.22,711.89 L194.21,711.89 L194.21,711.89 L194.2,711.89 L194.2,711.9 L194.19,711.9 L194.18,711.9 L194.18,711.9 L194.17,711.9 L194.16,711.9 L194.15,711.9 L194.15,711.9 L194.14,711.9 L194.13,711.9 L194.12,711.9 L194.11,711.9 L194.1,711.9 L194.09,711.9 L194.08,711.9 L194.07,711.9 L194.06,711.9 L194.05,711.9 C193.37,711.21,192.41,711.21,192.06,711.21 V710.87 C192.28,710.87,192.92,710.87,193.49,711.15 V705.51 C193.49,705.12,193.46,704.99,192.48,704.99 H192.13 V704.65 C192.51,704.68,193.46,704.68,193.89,704.68 C194.33,704.68,195.28,704.68,195.66,704.65 V704.99 H195.31 C194.33,704.99,194.3,705.11,194.3,705.51 Z " />
<line
   id="line6815"
   stroke-width="0.436"
   y2="700"
   x2="202.93"
   y1="700"
   x1="184.72" />
<path
   id="path6817"
   fill="black"
   stroke-width="0"
   d="M192.43,692.33 L192.43,692.33 L192.43,692.34 L192.44,692.35 L192.44,692.36 L192.44,692.37 L192.45,692.38 L192.45,692.39 L192.46,692.4 L192.46,692.41 L192.46,692.42 L192.47,692.42 L192.47,692.43 L192.47,692.43 L192.47,692.44 L192.47,692.44 L192.48,692.45 L192.48,692.45 L192.48,692.46 L192.48,692.46 L192.48,692.46 L192.48,692.47 L192.48,692.47 L192.48,692.47 L192.48,692.48 L192.48,692.48 C192.48,692.49,192.48,692.6,192.35,692.6 C192.25,692.6,192.23,692.53,192.21,692.47 C191.5,690.86,191.1,690.13,189.24,690.13 H187.65 C187.49,690.13,187.47,690.13,187.41,690.14 C187.3,690.15,187.27,690.16,187.27,690.25 C187.27,690.28,187.27,690.3,187.32,690.5 L188.06,693.47 H189.14 C190.06,693.47,190.06,693.24,190.06,692.97 C190.06,692.89,190.06,692.76,189.99,692.43 C189.97,692.38,189.96,692.35,189.96,692.32 C189.96,692.26,190,692.2,190.1,692.2 C190.18,692.2,190.22,692.25,190.26,692.41 L190.88,694.96 C190.88,695.03,190.83,695.08,190.75,695.08 C190.65,695.08,190.63,695.02,190.6,694.89 C190.37,694.06,190.17,693.81,189.17,693.81 H188.15 L188.8,696.43 C188.9,696.81,188.91,696.86,189.39,696.86 H190.92 C192.25,696.86,192.58,696.54,192.58,695.65 C192.58,695.39,192.58,695.36,192.54,695.07 C192.54,695.01,192.52,694.93,192.52,694.87 C192.52,694.82,192.56,694.74,192.66,694.74 C192.77,694.74,192.79,694.81,192.81,695.02 L193.03,696.9 C193.06,697.19,193,697.19,192.73,697.19 H187.23 C187.01,697.19,186.91,697.19,186.91,696.97 C186.91,696.86,187.01,696.86,187.21,696.86 C187.61,696.86,187.92,696.86,187.92,696.66 C187.92,696.62,187.92,696.59,187.87,696.4 L186.43,690.64 C186.32,690.21,186.3,690.13,185.44,690.13 C185.25,690.13,185.13,690.13,185.13,689.92 C185.13,689.79,185.23,689.79,185.44,689.79 H191.09 C191.34,689.79,191.35,689.8,191.43,689.97 Z " />
<path
   id="path6819"
   fill="black"
   stroke-width="0"
   d="M197.48,696.39 L197.49,696.42 L197.49,696.46 L197.5,696.49 L197.51,696.52 L197.52,696.55 L197.53,696.58 L197.54,696.61 L197.55,696.63 L197.56,696.65 L197.58,696.68 L197.59,696.7 L197.61,696.72 L197.62,696.74 L197.64,696.75 L197.66,696.77 L197.69,696.78 L197.71,696.8 L197.74,696.81 L197.77,696.82 L197.8,696.83 L197.84,696.84 L197.86,696.85 L197.88,696.85 L197.9,696.85 L197.92,696.86 L197.94,696.86 L197.96,696.86 L197.99,696.87 L198.01,696.87 L198.04,696.87 L198.06,696.88 L198.09,696.88 L198.12,696.88 L198.15,696.88 L198.18,696.88 L198.21,696.88 L198.25,696.88 L198.28,696.89 L198.32,696.89 L198.35,696.89 L198.39,696.89 L198.43,696.89 L198.47,696.89 C198.73,696.89,198.82,696.89,198.82,697.09 C198.82,697.23,198.7,697.23,198.65,697.23 C198.34,697.23,197.53,697.19,197.21,697.19 C196.89,697.19,196.09,697.23,195.77,697.23 C195.69,697.23,195.55,697.23,195.55,697.01 C195.55,696.89,195.65,696.89,195.85,696.89 C196.31,696.89,196.6,696.89,196.6,696.68 C196.6,696.63,196.6,696.6,196.58,696.51 L195.11,690.64 C195.01,690.23,194.98,690.13,194.12,690.13 C193.87,690.13,193.77,690.13,193.77,689.91 C193.77,689.79,193.9,689.79,193.94,689.79 C194.25,689.79,195.05,689.82,195.36,689.82 C195.69,689.82,196.5,689.79,196.82,689.79 C196.91,689.79,197.04,689.79,197.04,690 C197.04,690.13,196.95,690.13,196.71,690.13 C196.52,690.13,196.46,690.13,196.25,690.15 C196.02,690.17,195.97,690.21,195.97,690.33 C195.97,690.42,195.99,690.51,196.02,690.58 Z " />
<path
   id="path6821"
   fill="black"
   stroke-width="0"
   d="M202.09,690.69 L202.09,690.77 L202.09,690.84 L202.08,690.92 L202.08,690.99 L202.08,691.06 L202.08,691.13 L202.07,691.2 L202.07,691.27 L202.06,691.33 L202.06,691.4 L202.05,691.46 L202.05,691.52 L202.03,691.64 L202.01,691.75 L201.99,691.86 L201.96,691.97 L201.93,692.07 L201.9,692.17 L201.87,692.27 L201.83,692.37 L201.78,692.47 L201.74,692.56 C201.39,693.26,200.74,693.44,200.3,693.44 V693.21 C200.57,693.21,201.12,693.08,201.28,692.36 C201.38,691.92,201.38,691.32,201.38,690.78 C201.38,690.31,201.38,689.6,201.28,689.15 C201.12,688.32,200.57,688.21,200.3,688.21 H200.3 C200.03,688.21,199.48,688.34,199.32,689.17 C199.23,689.62,199.23,690.37,199.23,690.78 C199.23,691.33,199.23,691.89,199.32,692.32 C199.48,693.14,200.1,693.21,200.3,693.21 V693.44 C199.3,693.44,198.93,692.69,198.82,692.47 C198.54,691.89,198.52,691.1,198.52,690.69 C198.52,690.16,198.54,689.36,198.93,688.72 C199.29,688.14,199.88,687.98,200.3,687.98 C200.69,687.98,201.37,688.1,201.77,688.89 C202.06,689.46,202.09,690.17,202.09,690.69 Z " />
<path
   id="path6823"
   fill="black"
   stroke-width="0"
   d="M210.78,700.3 L208.6,702.47 C208.47,702.6,208.45,702.62,208.37,702.62 C208.26,702.62,208.15,702.52,208.15,702.4 C208.15,702.32,208.17,702.3,208.29,702.18 L210.47,699.99 L208.29,697.81 C208.17,697.69,208.15,697.66,208.15,697.59 C208.15,697.47,208.26,697.37,208.37,697.37 C208.45,697.37,208.47,697.39,208.6,697.52 L210.77,699.69 L213.03,697.43 C213.05,697.42,213.12,697.37,213.19,697.37 C213.32,697.37,213.41,697.47,213.41,697.59 C213.41,697.61,213.41,697.65,213.37,697.71 C213.36,697.73,211.63,699.44,211.09,699.99 L213.08,701.99 C213.13,702.05,213.3,702.19,213.35,702.26 C213.36,702.28,213.41,702.32,213.41,702.4 C213.41,702.52,213.32,702.62,213.19,702.62 C213.1,702.62,213.06,702.58,212.94,702.46 Z " />
<path
   id="path6825"
   fill="black"
   stroke-width="0"
   d="M221.85,706.45 V705.5 C221.85,705.11,221.83,704.99,221.03,704.99 H220.8 V704.65 C221.24,704.68,221.81,704.68,222.27,704.68 C222.72,704.68,223.3,704.68,223.75,704.65 V704.99 H223.52 C222.71,704.99,222.69,705.11,222.69,705.5 V706.45 H223.78 V706.79 H222.69 V711.74 C222.69,711.96,222.69,712.02,222.52,712.02 C222.42,712.02,222.39,712.02,222.3,711.89 L218.96,706.79 H219.26 L221.92,710.85 V706.79 H219.26 H218.96 V706.45 Z " />
<path
   id="path6827"
   fill="black"
   stroke-width="0"
   d="M228.18,711.24 L228.19,711.28 L228.2,711.31 L228.2,711.34 L228.21,711.37 L228.22,711.4 L228.23,711.43 L228.24,711.46 L228.26,711.49 L228.27,711.51 L228.28,711.53 L228.3,711.55 L228.32,711.57 L228.34,711.59 L228.36,711.61 L228.38,711.63 L228.41,711.64 L228.44,711.66 L228.47,711.67 L228.5,711.68 L228.54,711.69 L228.56,711.7 L228.59,711.7 L228.61,711.71 L228.63,711.71 L228.66,711.72 L228.68,711.72 L228.71,711.72 L228.73,711.73 L228.76,711.73 L228.79,711.73 L228.82,711.73 L228.85,711.74 L228.89,711.74 L228.92,711.74 L228.96,711.74 L228.99,711.75 L229.03,711.75 L229.07,711.75 L229.11,711.75 L229.15,711.75 L229.19,711.75 L229.24,711.75 L229.28,711.75 L229.33,711.75 C229.66,711.75,229.75,711.75,229.75,711.96 C229.75,712.09,229.63,712.09,229.57,712.09 C229.21,712.09,228.32,712.06,227.96,712.06 C227.63,712.06,226.84,712.09,226.51,712.09 C226.44,712.09,226.31,712.09,226.31,711.87 C226.31,711.75,226.4,711.75,226.61,711.75 C226.63,711.75,226.84,711.75,227.02,711.73 C227.22,711.71,227.32,711.7,227.32,711.55 C227.32,711.51,227.31,711.48,227.27,711.35 L225.82,705.5 C225.71,705.08,225.68,704.99,224.82,704.99 C224.64,704.99,224.53,704.99,224.53,704.77 C224.53,704.65,224.63,704.65,224.82,704.65 H229.87 C230.13,704.65,230.14,704.65,230.2,704.84 L231.06,707.19 C231.11,707.31,231.11,707.33,231.11,707.34 C231.11,707.39,231.07,707.46,230.98,707.46 C230.88,707.46,230.87,707.41,230.79,707.23 C230.42,706.23,229.94,704.99,228.06,704.99 H227.04 C226.88,704.99,226.86,704.99,226.79,705 C226.69,705.01,226.65,705.02,226.65,705.11 C226.65,705.14,226.65,705.16,226.71,705.36 Z " />
<line
   id="line6829"
   stroke-width="0.436"
   y2="700"
   x2="231.53"
   y1="700"
   x1="218.65" />
<path
   id="path6831"
   fill="black"
   stroke-width="0"
   d="M223.75,690.63 L224.9,691.75 C226.6,693.25,227.25,693.84,227.25,694.93 C227.25,696.17,226.27,697.04,224.95,697.04 C223.71,697.04,222.91,696.04,222.91,695.07 C222.91,694.46,223.45,694.46,223.49,694.46 C223.67,694.46,224.05,694.59,224.05,695.04 C224.05,695.32,223.86,695.6,223.48,695.6 C223.39,695.6,223.37,695.6,223.33,695.59 C223.58,696.3,224.17,696.7,224.8,696.7 C225.79,696.7,226.26,695.82,226.26,694.93 C226.26,694.06,225.72,693.2,225.12,692.52 L223.03,690.19 C222.91,690.07,222.91,690.05,222.91,689.79 H226.95 L227.25,691.68 H226.98 C226.93,691.36,226.85,690.88,226.74,690.72 C226.66,690.63,225.95,690.63,225.71,690.63 Z " />
<path
   id="path6833"
   fill="black"
   stroke-width="0"
   d="M239.39,700.3 L237.21,702.47 C237.08,702.6,237.05,702.62,236.97,702.62 C236.86,702.62,236.75,702.52,236.75,702.4 C236.75,702.32,236.77,702.3,236.89,702.18 L239.07,699.99 L236.89,697.81 C236.77,697.69,236.75,697.66,236.75,697.59 C236.75,697.47,236.86,697.37,236.97,697.37 C237.05,697.37,237.08,697.39,237.21,697.52 L239.38,699.69 L241.63,697.43 C241.65,697.42,241.73,697.37,241.79,697.37 C241.92,697.37,242.01,697.47,242.01,697.59 C242.01,697.61,242.01,697.65,241.98,697.71 C241.97,697.73,240.24,699.44,239.69,699.99 L241.68,701.99 C241.74,702.05,241.9,702.19,241.96,702.26 C241.97,702.28,242.01,702.32,242.01,702.4 C242.01,702.52,241.92,702.62,241.79,702.62 C241.71,702.62,241.66,702.58,241.54,702.46 Z " />
<path
   id="path6835"
   fill="black"
   stroke-width="0"
   d="M253.23,699.78 L253.27,699.78 L253.3,699.78 L253.34,699.78 L253.35,699.78 L253.37,699.78 L253.39,699.78 L253.4,699.78 L253.42,699.78 L253.43,699.79 L253.45,699.79 L253.46,699.79 L253.48,699.8 L253.49,699.8 L253.51,699.81 L253.52,699.81 L253.53,699.82 L253.54,699.83 L253.55,699.84 L253.56,699.85 L253.57,699.86 L253.58,699.87 L253.58,699.87 L253.59,699.88 L253.59,699.89 L253.59,699.89 L253.6,699.9 L253.6,699.91 L253.6,699.91 L253.61,699.92 L253.61,699.93 L253.61,699.94 L253.61,699.95 L253.61,699.96 L253.61,699.96 L253.61,699.97 L253.61,699.98 L253.61,699.99 C253.61,700.21,253.42,700.21,253.23,700.21 H247.34 C247.16,700.21,246.96,700.21,246.96,699.99 C246.96,699.78,247.16,699.78,247.34,699.78 Z " />
<path
   id="path6837"
   fill="black"
   stroke-width="0"
   d="M257.74,704.24 L257.74,704.25 L257.74,704.26 L257.74,704.28 L257.74,704.29 L257.74,704.3 L257.74,704.31 L257.74,704.32 L257.74,704.33 L257.74,704.34 L257.74,704.35 L257.74,704.36 L257.74,704.36 L257.74,704.37 L257.74,704.38 L257.74,704.39 L257.74,704.4 L257.74,704.4 L257.74,704.41 L257.74,704.42 L257.73,704.43 L257.73,704.45 L257.73,704.46 L257.72,704.46 L257.72,704.47 L257.71,704.48 L257.71,704.49 L257.7,704.49 L257.69,704.5 L257.68,704.5 L257.67,704.51 L257.67,704.51 L257.66,704.51 L257.66,704.51 L257.65,704.51 L257.65,704.52 L257.64,704.52 L257.63,704.52 L257.63,704.52 L257.62,704.52 L257.61,704.52 L257.6,704.52 L257.59,704.52 L257.59,704.52 L257.58,704.52 L257.57,704.52 L257.56,704.52 L257.55,704.52 L257.54,704.52 L257.53,704.52 L257.52,704.52 L257.51,704.52 L257.49,704.52 C256.82,703.83,255.86,703.83,255.51,703.83 V703.49 C255.73,703.49,256.37,703.49,256.94,703.77 V698.13 C256.94,697.74,256.91,697.61,255.93,697.61 H255.58 V697.27 C255.96,697.3,256.91,697.3,257.34,697.3 C257.78,697.3,258.73,697.3,259.11,697.27 V697.61 H258.76 C257.78,697.61,257.74,697.73,257.74,698.13 Z " />
<path
   id="path6839"
   fill="black"
   stroke-width="0"
   d="M266.66,700.3 L264.48,702.47 C264.35,702.6,264.33,702.62,264.24,702.62 C264.13,702.62,264.02,702.52,264.02,702.4 C264.02,702.32,264.05,702.3,264.17,702.18 L266.34,699.99 L264.17,697.81 C264.05,697.69,264.02,697.66,264.02,697.59 C264.02,697.47,264.13,697.37,264.24,697.37 C264.33,697.37,264.35,697.39,264.48,697.52 L266.65,699.69 L268.9,697.43 C268.92,697.42,269,697.37,269.07,697.37 C269.2,697.37,269.28,697.47,269.28,697.59 C269.28,697.61,269.28,697.65,269.25,697.71 C269.24,697.73,267.51,699.44,266.96,699.99 L268.96,701.99 C269.01,702.05,269.17,702.19,269.23,702.26 C269.24,702.28,269.28,702.32,269.28,702.4 C269.28,702.52,269.2,702.62,269.07,702.62 C268.98,702.62,268.93,702.58,268.82,702.46 Z " />
<path
   id="path6841"
   fill="black"
   stroke-width="0"
   d="M276.53,699.07 V698.12 C276.53,697.73,276.51,697.61,275.71,697.61 H275.48 V697.27 C275.92,697.3,276.49,697.3,276.95,697.3 C277.4,697.3,277.98,697.3,278.43,697.27 V697.61 H278.2 C277.39,697.61,277.37,697.73,277.37,698.12 V699.07 H278.46 V699.41 H277.37 V704.36 C277.37,704.58,277.37,704.64,277.2,704.64 C277.1,704.64,277.07,704.64,276.98,704.51 L273.64,699.41 H273.94 L276.6,703.47 V699.41 H273.94 H273.64 V699.07 Z " />
<path
   id="path6843"
   fill="black"
   stroke-width="0"
   d="M282.08,700.71 L282.13,701 L282.87,703.96 C282.97,704.34,282.99,704.37,283.46,704.37 H284.5 C285.41,704.37,285.98,704.08,285.98,703.33 C285.98,702.9,285.77,701.97,285.34,701.57 C284.8,701.08,284.14,701,283.66,701 H282.13 L282.08,700.71 H283.94 C285.48,700.71,287,701.84,287,703.07 C287,703.9,286.28,704.71,284.85,704.71 H281.32 C281.12,704.71,281,704.71,281,704.5 C281,704.37,281.09,704.37,281.31,704.37 C281.45,704.37,281.65,704.36,281.78,704.35 C281.95,704.33,282.02,704.29,282.02,704.17 C282.02,704.13,282.01,704.1,281.98,703.97 L280.52,698.12 C280.41,697.7,280.39,697.61,279.53,697.61 C279.34,697.61,279.22,697.61,279.22,697.4 C279.22,697.27,279.35,697.27,279.39,697.27 C279.69,697.27,280.46,697.3,280.77,697.3 C281,697.3,281.24,697.29,281.46,697.29 C281.7,697.29,281.94,697.27,282.17,697.27 C282.25,697.27,282.39,697.27,282.39,697.49 C282.39,697.61,282.29,697.61,282.08,697.61 C281.68,697.61,281.38,697.61,281.38,697.81 C281.38,697.87,281.4,697.92,281.41,697.99 Z " />
<path
   id="path6845"
   fill="black"
   stroke-width="0"
   d="M291.38,703.86 L291.39,703.9 L291.4,703.93 L291.4,703.96 L291.41,703.99 L291.42,704.02 L291.43,704.05 L291.44,704.08 L291.46,704.11 L291.47,704.13 L291.48,704.15 L291.5,704.17 L291.52,704.19 L291.54,704.21 L291.56,704.23 L291.58,704.25 L291.61,704.26 L291.64,704.28 L291.67,704.29 L291.7,704.3 L291.74,704.31 L291.76,704.32 L291.79,704.32 L291.81,704.33 L291.83,704.33 L291.86,704.34 L291.88,704.34 L291.91,704.34 L291.93,704.35 L291.96,704.35 L291.99,704.35 L292.02,704.35 L292.05,704.36 L292.09,704.36 L292.12,704.36 L292.16,704.36 L292.19,704.37 L292.23,704.37 L292.27,704.37 L292.31,704.37 L292.35,704.37 L292.39,704.37 L292.44,704.37 L292.48,704.37 L292.53,704.37 C292.86,704.37,292.95,704.37,292.95,704.58 C292.95,704.71,292.83,704.71,292.77,704.71 C292.41,704.71,291.52,704.68,291.16,704.68 C290.83,704.68,290.04,704.71,289.71,704.71 C289.64,704.71,289.51,704.71,289.51,704.49 C289.51,704.37,289.6,704.37,289.81,704.37 C289.83,704.37,290.04,704.37,290.22,704.35 C290.42,704.33,290.52,704.32,290.52,704.17 C290.52,704.13,290.51,704.1,290.48,703.97 L289.02,698.12 C288.91,697.7,288.89,697.61,288.02,697.61 C287.84,697.61,287.73,697.61,287.73,697.39 C287.73,697.27,287.83,697.27,288.02,697.27 H293.07 C293.33,697.27,293.34,697.27,293.4,697.46 L294.26,699.81 C294.31,699.93,294.31,699.95,294.31,699.96 C294.31,700.01,294.27,700.08,294.18,700.08 C294.08,700.08,294.07,700.03,293.99,699.85 C293.62,698.85,293.14,697.61,291.26,697.61 H290.23 C290.08,697.61,290.06,697.61,289.99,697.62 C289.89,697.63,289.85,697.64,289.85,697.73 C289.85,697.76,289.85,697.78,289.91,697.98 Z " />
<path
   id="path6847"
   fill="black"
   stroke-width="0"
   d="M301.61,699.78 H304.64 C304.8,699.78,305.01,699.78,305.01,699.99 C305.01,700.21,304.8,700.21,304.64,700.21 H301.61 V703.26 C301.61,703.41,301.61,703.62,301.39,703.62 C301.17,703.62,301.17,703.41,301.17,703.26 V700.21 H298.12 C297.97,700.21,297.76,700.21,297.76,699.99 C297.76,699.78,297.97,699.78,298.12,699.78 H301.17 V696.73 C301.17,696.58,301.17,696.37,301.39,696.37 C301.61,696.37,301.61,696.58,301.61,696.73 Z " />
<path
   id="path6849"
   fill="black"
   stroke-width="0"
   d="M321.56,711.62 L321.56,711.63 L321.56,711.64 L321.56,711.66 L321.56,711.67 L321.56,711.68 L321.56,711.69 L321.56,711.7 L321.56,711.71 L321.56,711.72 L321.56,711.73 L321.56,711.74 L321.56,711.74 L321.56,711.75 L321.56,711.76 L321.56,711.77 L321.56,711.78 L321.56,711.78 L321.56,711.79 L321.56,711.8 L321.55,711.81 L321.55,711.83 L321.55,711.84 L321.54,711.84 L321.54,711.85 L321.53,711.86 L321.53,711.87 L321.52,711.87 L321.51,711.88 L321.5,711.88 L321.49,711.89 L321.49,711.89 L321.48,711.89 L321.48,711.89 L321.47,711.89 L321.46,711.9 L321.46,711.9 L321.45,711.9 L321.44,711.9 L321.44,711.9 L321.43,711.9 L321.42,711.9 L321.41,711.9 L321.41,711.9 L321.4,711.9 L321.39,711.9 L321.38,711.9 L321.37,711.9 L321.36,711.9 L321.35,711.9 L321.34,711.9 L321.33,711.9 L321.31,711.9 C320.64,711.21,319.68,711.21,319.33,711.21 V710.87 C319.55,710.87,320.19,710.87,320.76,711.15 V705.51 C320.76,705.12,320.73,704.99,319.75,704.99 H319.4 V704.65 C319.78,704.68,320.73,704.68,321.16,704.68 C321.6,704.68,322.54,704.68,322.92,704.65 V704.99 H322.58 C321.6,704.99,321.56,705.11,321.56,705.51 Z " />
<line
   id="line6851"
   stroke-width="0.436"
   y2="700"
   x2="332.92"
   y1="700"
   x1="309.26" />
<path
   id="path6853"
   fill="black"
   stroke-width="0"
   d="M310.64,690.63 L311.8,691.75 C313.49,693.25,314.15,693.84,314.15,694.93 C314.15,696.17,313.17,697.04,311.84,697.04 C310.61,697.04,309.8,696.04,309.8,695.07 C309.8,694.46,310.35,694.46,310.38,694.46 C310.57,694.46,310.95,694.59,310.95,695.04 C310.95,695.32,310.75,695.6,310.37,695.6 C310.28,695.6,310.26,695.6,310.23,695.59 C310.48,696.3,311.07,696.7,311.7,696.7 C312.69,696.7,313.16,695.82,313.16,694.93 C313.16,694.06,312.61,693.2,312.01,692.52 L309.92,690.19 C309.8,690.07,309.8,690.05,309.8,689.79 H313.84 L314.15,691.68 H313.88 C313.82,691.36,313.74,690.88,313.64,690.72 C313.56,690.63,312.84,690.63,312.6,690.63 Z " />
<path
   id="path6855"
   fill="black"
   stroke-width="0"
   d="M322.42,692.33 L322.42,692.33 L322.43,692.34 L322.43,692.35 L322.44,692.36 L322.44,692.37 L322.44,692.38 L322.45,692.39 L322.45,692.4 L322.46,692.41 L322.46,692.42 L322.46,692.42 L322.46,692.43 L322.47,692.43 L322.47,692.44 L322.47,692.44 L322.47,692.45 L322.47,692.45 L322.47,692.46 L322.47,692.46 L322.47,692.46 L322.48,692.47 L322.48,692.47 L322.48,692.47 L322.48,692.48 L322.48,692.48 C322.48,692.49,322.48,692.6,322.35,692.6 C322.25,692.6,322.23,692.53,322.2,692.47 C321.5,690.86,321.09,690.13,319.23,690.13 H317.64 C317.49,690.13,317.47,690.13,317.4,690.14 C317.29,690.15,317.26,690.16,317.26,690.25 C317.26,690.28,317.26,690.3,317.32,690.5 L318.06,693.47 H319.13 C320.06,693.47,320.06,693.24,320.06,692.97 C320.06,692.89,320.06,692.76,319.98,692.43 C319.96,692.38,319.95,692.35,319.95,692.32 C319.95,692.26,319.99,692.2,320.09,692.2 C320.18,692.2,320.21,692.25,320.26,692.41 L320.88,694.96 C320.88,695.03,320.82,695.08,320.74,695.08 C320.65,695.08,320.62,695.02,320.59,694.89 C320.36,694.06,320.17,693.81,319.17,693.81 H318.14 L318.8,696.43 C318.89,696.81,318.9,696.86,319.38,696.86 H320.92 C322.25,696.86,322.58,696.54,322.58,695.65 C322.58,695.39,322.58,695.36,322.53,695.07 C322.53,695.01,322.52,694.93,322.52,694.87 C322.52,694.82,322.55,694.74,322.65,694.74 C322.77,694.74,322.78,694.81,322.8,695.02 L323.02,696.9 C323.05,697.19,323,697.19,322.73,697.19 H317.23 C317.01,697.19,316.9,697.19,316.9,696.97 C316.9,696.86,317,696.86,317.21,696.86 C317.61,696.86,317.91,696.86,317.91,696.66 C317.91,696.62,317.91,696.59,317.86,696.4 L316.42,690.64 C316.31,690.21,316.29,690.13,315.43,690.13 C315.25,690.13,315.13,690.13,315.13,689.92 C315.13,689.79,315.23,689.79,315.43,689.79 H321.08 C321.33,689.79,321.34,689.8,321.42,689.97 Z " />
<path
   id="path6857"
   fill="black"
   stroke-width="0"
   d="M327.47,696.39 L327.48,696.42 L327.49,696.46 L327.5,696.49 L327.51,696.52 L327.52,696.55 L327.53,696.58 L327.54,696.61 L327.55,696.63 L327.56,696.65 L327.57,696.68 L327.59,696.7 L327.6,696.72 L327.62,696.74 L327.64,696.75 L327.66,696.77 L327.68,696.78 L327.71,696.8 L327.73,696.81 L327.76,696.82 L327.8,696.83 L327.83,696.84 L327.85,696.85 L327.87,696.85 L327.89,696.85 L327.91,696.86 L327.94,696.86 L327.96,696.86 L327.98,696.87 L328.01,696.87 L328.03,696.87 L328.06,696.88 L328.09,696.88 L328.12,696.88 L328.15,696.88 L328.18,696.88 L328.21,696.88 L328.24,696.88 L328.28,696.89 L328.31,696.89 L328.35,696.89 L328.38,696.89 L328.42,696.89 L328.46,696.89 C328.72,696.89,328.81,696.89,328.81,697.09 C328.81,697.23,328.69,697.23,328.65,697.23 C328.33,697.23,327.53,697.19,327.21,697.19 C326.88,697.19,326.09,697.23,325.76,697.23 C325.68,697.23,325.54,697.23,325.54,697.01 C325.54,696.89,325.64,696.89,325.85,696.89 C326.31,696.89,326.6,696.89,326.6,696.68 C326.6,696.63,326.6,696.6,326.58,696.51 L325.11,690.64 C325.01,690.23,324.98,690.13,324.12,690.13 C323.87,690.13,323.77,690.13,323.77,689.91 C323.77,689.79,323.9,689.79,323.93,689.79 C324.25,689.79,325.04,689.82,325.36,689.82 C325.68,689.82,326.49,689.79,326.82,689.79 C326.9,689.79,327.04,689.79,327.04,690 C327.04,690.13,326.95,690.13,326.71,690.13 C326.51,690.13,326.46,690.13,326.24,690.15 C326.01,690.17,325.97,690.21,325.97,690.33 C325.97,690.42,325.99,690.51,326.01,690.58 Z " />
<path
   id="path6859"
   fill="black"
   stroke-width="0"
   d="M332.08,690.69 L332.08,690.77 L332.08,690.84 L332.08,690.92 L332.08,690.99 L332.08,691.06 L332.07,691.13 L332.07,691.2 L332.06,691.27 L332.06,691.33 L332.05,691.4 L332.05,691.46 L332.04,691.52 L332.02,691.64 L332.01,691.75 L331.98,691.86 L331.96,691.97 L331.93,692.07 L331.9,692.17 L331.86,692.27 L331.82,692.37 L331.78,692.47 L331.73,692.56 C331.38,693.26,330.74,693.44,330.3,693.44 V693.21 C330.57,693.21,331.12,693.08,331.28,692.36 C331.37,691.92,331.37,691.32,331.37,690.78 C331.37,690.31,331.37,689.6,331.28,689.15 C331.11,688.32,330.56,688.21,330.3,688.21 H330.3 C330.03,688.21,329.48,688.34,329.31,689.17 C329.23,689.62,329.23,690.37,329.23,690.78 C329.23,691.33,329.23,691.89,329.31,692.32 C329.48,693.14,330.1,693.21,330.3,693.21 V693.44 C329.3,693.44,328.93,692.69,328.82,692.47 C328.53,691.89,328.52,691.1,328.52,690.69 C328.52,690.16,328.54,689.36,328.92,688.72 C329.29,688.14,329.88,687.98,330.3,687.98 C330.68,687.98,331.37,688.1,331.76,688.89 C332.06,689.46,332.08,690.17,332.08,690.69 Z " />
<path
   id="path6861"
   fill="black"
   stroke-width="0"
   d="M340.78,700.3 L338.6,702.47 C338.47,702.6,338.45,702.62,338.36,702.62 C338.25,702.62,338.14,702.52,338.14,702.4 C338.14,702.32,338.16,702.3,338.28,702.18 L340.46,699.99 L338.28,697.81 C338.16,697.69,338.14,697.66,338.14,697.59 C338.14,697.47,338.25,697.37,338.36,697.37 C338.45,697.37,338.47,697.39,338.6,697.52 L340.77,699.69 L343.02,697.43 C343.04,697.42,343.12,697.37,343.18,697.37 C343.32,697.37,343.4,697.47,343.4,697.59 C343.4,697.61,343.4,697.65,343.37,697.71 C343.36,697.73,341.63,699.44,341.08,699.99 L343.08,701.99 C343.13,702.05,343.29,702.19,343.35,702.26 C343.36,702.28,343.4,702.32,343.4,702.4 C343.4,702.52,343.32,702.62,343.18,702.62 C343.1,702.62,343.05,702.58,342.93,702.46 Z " />
<path
   id="path6863"
   fill="black"
   stroke-width="0"
   d="M351.8,708.48 L351.89,708.51 L351.97,708.55 L352.05,708.58 L352.13,708.62 L352.2,708.66 L352.28,708.7 L352.35,708.74 L352.42,708.79 L352.49,708.84 L352.55,708.89 L352.62,708.94 L352.68,708.99 L352.74,709.05 L352.8,709.11 L352.85,709.17 L352.9,709.23 L352.95,709.29 L353,709.36 L353.04,709.43 L353.08,709.49 L353.12,709.56 L353.16,709.63 L353.19,709.71 L353.22,709.78 L353.24,709.85 L353.26,709.93 L353.28,710.01 L353.3,710.08 L353.31,710.16 L353.32,710.24 L353.33,710.32 L353.33,710.4 C353.33,711.29,352.37,711.9,351.33,711.9 C350.23,711.9,349.4,711.25,349.4,710.42 C349.4,710.06,349.64,709.86,349.95,709.86 C350.29,709.86,350.51,710.1,350.51,710.41 C350.51,710.96,350,710.96,349.83,710.96 C350.17,711.49,350.89,711.63,351.28,711.63 C351.73,711.63,352.33,711.39,352.33,710.41 C352.33,710.28,352.31,709.65,352.02,709.17 C351.7,708.65,351.33,708.61,351.05,708.6 C350.97,708.59,350.7,708.57,350.63,708.57 C350.54,708.56,350.46,708.55,350.46,708.44 C350.46,708.32,350.54,708.32,350.73,708.32 H351.21 C352.1,708.32,352.5,707.58,352.5,706.51 C352.5,705.03,351.75,704.72,351.27,704.72 C350.8,704.72,349.99,704.9,349.61,705.54 C349.99,705.49,350.32,705.73,350.32,706.14 C350.32,706.54,350.03,706.75,349.71,706.75 C349.45,706.75,349.1,706.6,349.1,706.12 C349.1,705.13,350.12,704.41,351.3,704.41 C352.63,704.41,353.62,705.4,353.62,706.51 C353.62,707.41,352.94,708.26,351.8,708.48 Z " />
<path
   id="path6865"
   fill="black"
   stroke-width="0"
   d="M358.17,711.24 L358.18,711.28 L358.19,711.31 L358.2,711.34 L358.21,711.37 L358.22,711.4 L358.23,711.43 L358.24,711.46 L358.25,711.49 L358.26,711.51 L358.28,711.53 L358.29,711.55 L358.31,711.57 L358.33,711.59 L358.35,711.61 L358.38,711.63 L358.4,711.64 L358.43,711.66 L358.46,711.67 L358.5,711.68 L358.54,711.69 L358.56,711.7 L358.58,711.7 L358.6,711.71 L358.63,711.71 L358.65,711.72 L358.68,711.72 L358.7,711.72 L358.73,711.73 L358.76,711.73 L358.79,711.73 L358.82,711.73 L358.85,711.74 L358.88,711.74 L358.92,711.74 L358.95,711.74 L358.99,711.75 L359.03,711.75 L359.06,711.75 L359.1,711.75 L359.15,711.75 L359.19,711.75 L359.23,711.75 L359.28,711.75 L359.33,711.75 C359.65,711.75,359.74,711.75,359.74,711.96 C359.74,712.09,359.62,712.09,359.57,712.09 C359.21,712.09,358.32,712.06,357.96,712.06 C357.63,712.06,356.83,712.09,356.51,712.09 C356.43,712.09,356.3,712.09,356.3,711.87 C356.3,711.75,356.4,711.75,356.61,711.75 C356.63,711.75,356.83,711.75,357.02,711.73 C357.21,711.71,357.31,711.7,357.31,711.55 C357.31,711.51,357.3,711.48,357.27,711.35 L355.81,705.5 C355.7,705.08,355.68,704.99,354.82,704.99 C354.64,704.99,354.53,704.99,354.53,704.77 C354.53,704.65,354.62,704.65,354.82,704.65 H359.86 C360.12,704.65,360.13,704.65,360.2,704.84 L361.06,707.19 C361.1,707.31,361.1,707.33,361.1,707.34 C361.1,707.39,361.07,707.46,360.97,707.46 C360.87,707.46,360.86,707.41,360.79,707.23 C360.42,706.23,359.94,704.99,358.05,704.99 H357.03 C356.88,704.99,356.86,704.99,356.79,705 C356.68,705.01,356.65,705.02,356.65,705.11 C356.65,705.14,356.65,705.16,356.7,705.36 Z " />
<line
   id="line6867"
   stroke-width="0.436"
   y2="700"
   x2="361.53"
   y1="700"
   x1="348.65" />
<path
   id="path6869"
   fill="black"
   stroke-width="0"
   d="M355.52,693.62 L355.6,693.65 L355.68,693.68 L355.76,693.72 L355.84,693.75 L355.91,693.79 L355.99,693.83 L356.06,693.88 L356.13,693.92 L356.2,693.97 L356.27,694.02 L356.33,694.08 L356.39,694.13 L356.45,694.19 L356.51,694.25 L356.56,694.31 L356.61,694.37 L356.66,694.43 L356.71,694.5 L356.75,694.56 L356.79,694.63 L356.83,694.7 L356.87,694.77 L356.9,694.84 L356.93,694.92 L356.95,694.99 L356.98,695.07 L357,695.14 L357.01,695.22 L357.02,695.3 L357.03,695.38 L357.04,695.46 L357.04,695.54 C357.04,696.43,356.08,697.04,355.04,697.04 C353.94,697.04,353.11,696.39,353.11,695.56 C353.11,695.2,353.35,694.99,353.67,694.99 C354,694.99,354.22,695.23,354.22,695.55 C354.22,696.09,353.71,696.09,353.55,696.09 C353.88,696.63,354.6,696.77,354.99,696.77 C355.44,696.77,356.04,696.53,356.04,695.55 C356.04,695.42,356.02,694.79,355.73,694.31 C355.41,693.78,355.04,693.75,354.77,693.74 C354.68,693.73,354.42,693.71,354.34,693.71 C354.25,693.7,354.18,693.69,354.18,693.58 C354.18,693.46,354.25,693.46,354.44,693.46 H354.92 C355.81,693.46,356.21,692.72,356.21,691.65 C356.21,690.17,355.46,689.85,354.98,689.85 C354.52,689.85,353.7,690.04,353.32,690.68 C353.7,690.63,354.04,690.87,354.04,691.28 C354.04,691.67,353.74,691.89,353.43,691.89 C353.17,691.89,352.82,691.74,352.82,691.26 C352.82,690.27,353.83,689.55,355.02,689.55 C356.34,689.55,357.33,690.54,357.33,691.65 C357.33,692.54,356.65,693.39,355.52,693.62 Z " />
<path
   id="path6871"
   fill="black"
   stroke-width="0"
   d="M369.38,700.3 L367.2,702.47 C367.07,702.6,367.05,702.62,366.96,702.62 C366.86,702.62,366.75,702.52,366.75,702.4 C366.75,702.32,366.77,702.3,366.89,702.18 L369.07,699.99 L366.89,697.81 C366.77,697.69,366.75,697.66,366.75,697.59 C366.75,697.47,366.86,697.37,366.96,697.37 C367.05,697.37,367.07,697.39,367.2,697.52 L369.37,699.69 L371.62,697.43 C371.65,697.42,371.72,697.37,371.79,697.37 C371.92,697.37,372.01,697.47,372.01,697.59 C372.01,697.61,372.01,697.65,371.97,697.71 C371.96,697.73,370.23,699.44,369.69,699.99 L371.68,701.99 C371.73,702.05,371.9,702.19,371.95,702.26 C371.96,702.28,372.01,702.32,372.01,702.4 C372.01,702.52,371.92,702.62,371.79,702.62 C371.7,702.62,371.66,702.58,371.54,702.46 Z " />
<path
   id="path6873"
   fill="black"
   stroke-width="0"
   d="M383.23,699.78 L383.26,699.78 L383.3,699.78 L383.33,699.78 L383.35,699.78 L383.37,699.78 L383.38,699.78 L383.4,699.78 L383.41,699.78 L383.43,699.79 L383.44,699.79 L383.46,699.79 L383.47,699.8 L383.49,699.8 L383.5,699.81 L383.51,699.81 L383.53,699.82 L383.54,699.83 L383.55,699.84 L383.56,699.85 L383.57,699.86 L383.58,699.87 L383.58,699.87 L383.58,699.88 L383.59,699.89 L383.59,699.89 L383.59,699.9 L383.6,699.91 L383.6,699.91 L383.6,699.92 L383.6,699.93 L383.6,699.94 L383.61,699.95 L383.61,699.96 L383.61,699.96 L383.61,699.97 L383.61,699.98 L383.61,699.99 C383.61,700.21,383.41,700.21,383.23,700.21 H377.34 C377.15,700.21,376.96,700.21,376.96,699.99 C376.96,699.78,377.15,699.78,377.34,699.78 Z " />
<path
   id="path6875"
   fill="black"
   stroke-width="0"
   d="M387.74,704.24 L387.74,704.25 L387.74,704.26 L387.74,704.28 L387.74,704.29 L387.74,704.3 L387.74,704.31 L387.74,704.32 L387.74,704.33 L387.74,704.34 L387.74,704.35 L387.74,704.36 L387.74,704.36 L387.74,704.37 L387.74,704.38 L387.74,704.39 L387.74,704.4 L387.74,704.4 L387.73,704.41 L387.73,704.42 L387.73,704.43 L387.73,704.45 L387.72,704.46 L387.72,704.46 L387.71,704.47 L387.71,704.48 L387.7,704.49 L387.7,704.49 L387.69,704.5 L387.68,704.5 L387.67,704.51 L387.66,704.51 L387.66,704.51 L387.65,704.51 L387.65,704.51 L387.64,704.52 L387.63,704.52 L387.63,704.52 L387.62,704.52 L387.61,704.52 L387.61,704.52 L387.6,704.52 L387.59,704.52 L387.58,704.52 L387.57,704.52 L387.56,704.52 L387.55,704.52 L387.54,704.52 L387.53,704.52 L387.52,704.52 L387.51,704.52 L387.5,704.52 L387.49,704.52 C386.82,703.83,385.86,703.83,385.51,703.83 V703.49 C385.73,703.49,386.37,703.49,386.93,703.77 V698.13 C386.93,697.74,386.9,697.61,385.92,697.61 H385.57 V697.27 C385.95,697.3,386.9,697.3,387.34,697.3 C387.77,697.3,388.72,697.3,389.1,697.27 V697.61 H388.75 C387.77,697.61,387.74,697.73,387.74,698.13 Z " />
<path
   id="path6877"
   fill="black"
   stroke-width="0"
   d="M396.65,700.3 L394.48,702.47 C394.35,702.6,394.32,702.62,394.24,702.62 C394.13,702.62,394.02,702.52,394.02,702.4 C394.02,702.32,394.04,702.3,394.16,702.18 L396.34,699.99 L394.16,697.81 C394.04,697.69,394.02,697.66,394.02,697.59 C394.02,697.47,394.13,697.37,394.24,697.37 C394.32,697.37,394.35,697.39,394.48,697.52 L396.64,699.69 L398.9,697.43 C398.92,697.42,398.99,697.37,399.06,697.37 C399.19,697.37,399.28,697.47,399.28,697.59 C399.28,697.61,399.28,697.65,399.24,697.71 C399.23,697.73,397.5,699.44,396.96,699.99 L398.95,701.99 C399.01,702.05,399.17,702.19,399.22,702.26 C399.23,702.28,399.28,702.32,399.28,702.4 C399.28,702.52,399.19,702.62,399.06,702.62 C398.97,702.62,398.93,702.58,398.81,702.46 Z " />
<path
   id="path6879"
   fill="black"
   stroke-width="0"
   d="M406.53,699.07 V698.12 C406.53,697.73,406.51,697.61,405.7,697.61 H405.47 V697.27 C405.92,697.3,406.48,697.3,406.94,697.3 C407.4,697.3,407.98,697.3,408.42,697.27 V697.61 H408.19 C407.39,697.61,407.37,697.73,407.37,698.12 V699.07 H408.46 V699.41 H407.37 V704.36 C407.37,704.58,407.37,704.64,407.19,704.64 C407.09,704.64,407.06,704.64,406.98,704.51 L403.63,699.41 H403.94 L406.59,703.47 V699.41 H403.94 H403.63 V699.07 Z " />
<path
   id="path6881"
   fill="black"
   stroke-width="0"
   d="M412.08,700.71 L412.12,701 L412.86,703.96 C412.96,704.34,412.98,704.37,413.45,704.37 H414.5 C415.4,704.37,415.98,704.08,415.98,703.33 C415.98,702.9,415.76,701.97,415.34,701.57 C414.79,701.08,414.14,701,413.66,701 H412.12 L412.08,700.71 H413.93 C415.48,700.71,416.99,701.84,416.99,703.07 C416.99,703.9,416.27,704.71,414.85,704.71 H411.32 C411.11,704.71,410.99,704.71,410.99,704.5 C410.99,704.37,411.09,704.37,411.31,704.37 C411.45,704.37,411.65,704.36,411.78,704.35 C411.95,704.33,412.02,704.29,412.02,704.17 C412.02,704.13,412.01,704.1,411.97,703.97 L410.51,698.12 C410.4,697.7,410.38,697.61,409.52,697.61 C409.34,697.61,409.22,697.61,409.22,697.4 C409.22,697.27,409.35,697.27,409.38,697.27 C409.69,697.27,410.46,697.3,410.76,697.3 C410.99,697.3,411.23,697.29,411.46,697.29 C411.7,697.29,411.94,697.27,412.17,697.27 C412.24,697.27,412.39,697.27,412.39,697.49 C412.39,697.61,412.29,697.61,412.08,697.61 C411.68,697.61,411.37,697.61,411.37,697.81 C411.37,697.87,411.39,697.92,411.41,697.99 Z " />
<path
   id="path6883"
   fill="black"
   stroke-width="0"
   d="M421.37,703.86 L421.38,703.9 L421.39,703.93 L421.4,703.96 L421.41,703.99 L421.42,704.02 L421.43,704.05 L421.44,704.08 L421.45,704.11 L421.46,704.13 L421.48,704.15 L421.49,704.17 L421.51,704.19 L421.53,704.21 L421.55,704.23 L421.58,704.25 L421.6,704.26 L421.63,704.28 L421.67,704.29 L421.7,704.3 L421.74,704.31 L421.76,704.32 L421.78,704.32 L421.8,704.33 L421.83,704.33 L421.85,704.34 L421.88,704.34 L421.9,704.34 L421.93,704.35 L421.96,704.35 L421.99,704.35 L422.02,704.35 L422.05,704.36 L422.08,704.36 L422.12,704.36 L422.15,704.36 L422.19,704.37 L422.23,704.37 L422.27,704.37 L422.31,704.37 L422.35,704.37 L422.39,704.37 L422.43,704.37 L422.48,704.37 L422.53,704.37 C422.86,704.37,422.94,704.37,422.94,704.58 C422.94,704.71,422.82,704.71,422.77,704.71 C422.41,704.71,421.52,704.68,421.16,704.68 C420.83,704.68,420.04,704.71,419.71,704.71 C419.63,704.71,419.5,704.71,419.5,704.49 C419.5,704.37,419.6,704.37,419.81,704.37 C419.83,704.37,420.04,704.37,420.22,704.35 C420.42,704.33,420.51,704.32,420.51,704.17 C420.51,704.13,420.5,704.1,420.47,703.97 L419.01,698.12 C418.9,697.7,418.88,697.61,418.02,697.61 C417.84,697.61,417.73,697.61,417.73,697.39 C417.73,697.27,417.83,697.27,418.02,697.27 H423.06 C423.32,697.27,423.33,697.27,423.4,697.46 L424.26,699.81 C424.3,699.93,424.3,699.95,424.3,699.96 C424.3,700.01,424.27,700.08,424.17,700.08 C424.08,700.08,424.06,700.03,423.99,699.85 C423.62,698.85,423.14,697.61,421.26,697.61 H420.23 C420.08,697.61,420.06,697.61,419.99,697.62 C419.88,697.63,419.85,697.64,419.85,697.73 C419.85,697.76,419.85,697.78,419.9,697.98 Z " />
<path
   id="path6885"
   fill="black"
   stroke-width="0"
   d="M179.49,671.25 L179.52,671.25 L179.55,671.25 L179.58,671.25 L179.6,671.25 L179.61,671.26 L179.63,671.26 L179.65,671.26 L179.66,671.26 L179.68,671.26 L179.69,671.27 L179.71,671.27 L179.72,671.27 L179.73,671.28 L179.75,671.28 L179.76,671.29 L179.77,671.3 L179.78,671.31 L179.79,671.31 L179.8,671.32 L179.81,671.33 L179.82,671.34 L179.83,671.35 L179.83,671.36 L179.83,671.36 L179.84,671.37 L179.84,671.38 L179.84,671.38 L179.85,671.39 L179.85,671.4 L179.85,671.41 L179.85,671.41 L179.85,671.42 L179.86,671.43 L179.86,671.44 L179.86,671.45 L179.86,671.46 L179.86,671.47 C179.86,671.69,179.65,671.69,179.5,671.69 H172.98 C172.82,671.69,172.62,671.69,172.62,671.47 C172.62,671.25,172.82,671.25,172.99,671.25 Z " />
<path
   id="path6887"
   fill="black"
   stroke-width="0"
   d="M179.5,669.14 L179.51,669.14 L179.53,669.14 L179.56,669.14 L179.59,669.14 L179.6,669.14 L179.62,669.14 L179.63,669.14 L179.65,669.15 L179.66,669.15 L179.68,669.15 L179.69,669.15 L179.71,669.16 L179.72,669.16 L179.74,669.17 L179.75,669.17 L179.76,669.18 L179.77,669.19 L179.78,669.19 L179.8,669.2 L179.81,669.21 L179.81,669.22 L179.82,669.23 L179.82,669.23 L179.83,669.24 L179.83,669.24 L179.83,669.25 L179.84,669.26 L179.84,669.26 L179.84,669.27 L179.85,669.28 L179.85,669.29 L179.85,669.29 L179.85,669.3 L179.85,669.31 L179.86,669.32 L179.86,669.33 L179.86,669.34 L179.86,669.35 L179.86,669.36 C179.86,669.58,179.65,669.58,179.49,669.58 H172.99 C172.82,669.58,172.62,669.58,172.62,669.36 C172.62,669.14,172.82,669.14,172.98,669.14 Z " />
<path
   id="path6889"
   fill="black"
   stroke-width="0"
   d="M190.7,670.2 L190.73,670.2 L190.77,670.2 L190.8,670.2 L190.82,670.2 L190.84,670.2 L190.85,670.2 L190.87,670.2 L190.88,670.2 L190.9,670.21 L190.92,670.21 L190.93,670.21 L190.94,670.22 L190.96,670.22 L190.97,670.23 L190.98,670.23 L191,670.24 L191.01,670.25 L191.02,670.26 L191.03,670.27 L191.04,670.28 L191.05,670.29 L191.05,670.29 L191.05,670.3 L191.06,670.31 L191.06,670.31 L191.06,670.32 L191.07,670.33 L191.07,670.33 L191.07,670.34 L191.07,670.35 L191.07,670.36 L191.08,670.37 L191.08,670.38 L191.08,670.38 L191.08,670.39 L191.08,670.4 L191.08,670.41 C191.08,670.63,190.88,670.63,190.7,670.63 H184.81 C184.62,670.63,184.43,670.63,184.43,670.41 C184.43,670.2,184.62,670.2,184.81,670.2 Z " />
<path
   id="path6891"
   fill="black"
   stroke-width="0"
   d="M196.4,682.04 L196.4,682.05 L196.4,682.06 L196.4,682.08 L196.4,682.09 L196.4,682.1 L196.4,682.11 L196.4,682.12 L196.4,682.13 L196.4,682.14 L196.4,682.15 L196.4,682.16 L196.4,682.16 L196.4,682.17 L196.4,682.18 L196.4,682.19 L196.4,682.2 L196.4,682.2 L196.4,682.21 L196.4,682.22 L196.39,682.23 L196.39,682.25 L196.39,682.26 L196.38,682.26 L196.38,682.27 L196.37,682.28 L196.37,682.29 L196.36,682.29 L196.35,682.3 L196.34,682.3 L196.33,682.31 L196.33,682.31 L196.32,682.31 L196.32,682.31 L196.31,682.31 L196.3,682.32 L196.3,682.32 L196.29,682.32 L196.28,682.32 L196.28,682.32 L196.27,682.32 L196.26,682.32 L196.25,682.32 L196.25,682.32 L196.24,682.32 L196.23,682.32 L196.22,682.32 L196.21,682.32 L196.2,682.32 L196.19,682.32 L196.18,682.32 L196.17,682.32 L196.15,682.32 C195.48,681.63,194.52,681.63,194.17,681.63 V681.29 C194.39,681.29,195.03,681.29,195.6,681.57 V675.93 C195.6,675.54,195.57,675.41,194.59,675.41 H194.24 V675.07 C194.62,675.1,195.57,675.1,196,675.1 C196.44,675.1,197.38,675.1,197.76,675.07 V675.41 H197.42 C196.44,675.41,196.4,675.53,196.4,675.93 Z " />
<path
   id="path6893"
   fill="black"
   stroke-width="0"
   d="M203.67,678.56 L203.67,678.72 L203.66,678.88 L203.66,679.05 L203.65,679.21 L203.64,679.37 L203.63,679.53 L203.61,679.69 L203.59,679.85 L203.57,680.01 L203.54,680.17 L203.5,680.33 L203.46,680.49 L203.41,680.64 L203.36,680.8 L203.3,680.95 L203.27,681.03 L203.23,681.1 C202.73,682.15,201.84,682.32,201.38,682.32 C200.73,682.32,199.93,682.04,199.49,681.03 C199.14,680.28,199.08,679.43,199.08,678.56 C199.08,677.74,199.13,676.76,199.57,675.93 C200.04,675.05,200.84,674.83,201.37,674.83 V675.07 C200.94,675.07,200.3,675.34,200.11,676.39 C199.99,677.04,199.99,678.04,199.99,678.69 C199.99,679.38,199.99,680.1,200.07,680.69 C200.28,681.99,201.1,682.08,201.37,682.08 C201.73,682.08,202.45,681.89,202.65,680.81 C202.76,680.2,202.76,679.37,202.76,678.69 C202.76,677.87,202.76,677.13,202.64,676.43 C202.48,675.4,201.86,675.07,201.37,675.07 H201.37 V674.83 C201.96,674.83,202.78,675.06,203.26,676.09 C203.61,676.85,203.67,677.7,203.67,678.56 Z " />
<path
   id="path6895"
   fill="black"
   stroke-width="0"
   d="M207.41,678.51 L207.46,678.8 L208.2,681.76 C208.29,682.14,208.32,682.17,208.78,682.17 H209.83 C210.73,682.17,211.31,681.88,211.31,681.13 C211.31,680.7,211.09,679.77,210.67,679.37 C210.12,678.88,209.47,678.8,208.99,678.8 H207.46 L207.41,678.51 H209.26 C210.81,678.51,212.32,679.65,212.32,680.86 C212.32,681.7,211.6,682.51,210.18,682.51 H206.65 C206.44,682.51,206.32,682.51,206.32,682.3 C206.32,682.17,206.42,682.17,206.64,682.17 C206.78,682.17,206.98,682.16,207.11,682.15 C207.28,682.13,207.35,682.09,207.35,681.97 C207.35,681.93,207.34,681.9,207.3,681.77 L205.84,675.92 C205.73,675.5,205.71,675.41,204.85,675.41 C204.67,675.41,204.55,675.41,204.55,675.2 C204.55,675.07,204.68,675.07,204.71,675.07 C205.02,675.07,205.79,675.1,206.09,675.1 C206.32,675.1,206.56,675.09,206.79,675.09 C207.03,675.09,207.27,675.07,207.5,675.07 C207.57,675.07,207.72,675.07,207.72,675.29 C207.72,675.41,207.62,675.41,207.41,675.41 C207.01,675.41,206.7,675.41,206.7,675.61 C206.7,675.67,206.73,675.72,206.74,675.79 Z " />
<path
   id="path6897"
   fill="black"
   stroke-width="0"
   d="M216.7,681.66 L216.71,681.7 L216.72,681.73 L216.73,681.76 L216.74,681.79 L216.75,681.82 L216.76,681.85 L216.77,681.88 L216.78,681.91 L216.79,681.93 L216.81,681.95 L216.82,681.97 L216.84,681.99 L216.86,682.01 L216.88,682.03 L216.91,682.05 L216.93,682.06 L216.96,682.08 L217,682.09 L217.03,682.1 L217.07,682.11 L217.09,682.12 L217.11,682.12 L217.13,682.13 L217.16,682.13 L217.18,682.14 L217.21,682.14 L217.23,682.14 L217.26,682.15 L217.29,682.15 L217.32,682.15 L217.35,682.15 L217.38,682.16 L217.41,682.16 L217.45,682.16 L217.48,682.16 L217.52,682.17 L217.56,682.17 L217.6,682.17 L217.64,682.17 L217.68,682.17 L217.72,682.17 L217.76,682.17 L217.81,682.17 L217.86,682.17 C218.18,682.17,218.27,682.17,218.27,682.38 C218.27,682.51,218.15,682.51,218.1,682.51 C217.74,682.51,216.85,682.48,216.49,682.48 C216.16,682.48,215.37,682.51,215.04,682.51 C214.96,682.51,214.83,682.51,214.83,682.29 C214.83,682.17,214.93,682.17,215.14,682.17 C215.16,682.17,215.37,682.17,215.55,682.15 C215.75,682.13,215.84,682.12,215.84,681.97 C215.84,681.93,215.83,681.9,215.8,681.77 L214.34,675.92 C214.23,675.5,214.21,675.41,213.35,675.41 C213.17,675.41,213.06,675.41,213.06,675.19 C213.06,675.07,213.15,675.07,213.35,675.07 H218.39 C218.65,675.07,218.66,675.07,218.73,675.26 L219.59,677.61 C219.63,677.73,219.63,677.75,219.63,677.76 C219.63,677.8,219.6,677.88,219.5,677.88 C219.4,677.88,219.39,677.83,219.32,677.65 C218.95,676.65,218.47,675.41,216.59,675.41 H215.56 C215.41,675.41,215.39,675.41,215.32,675.42 C215.21,675.43,215.18,675.44,215.18,675.53 C215.18,675.56,215.18,675.58,215.23,675.78 Z " />
<path
   id="path6899"
   fill="black"
   stroke-width="0"
   d="M222.3,680.65 L222.31,680.66 L222.33,680.68 L222.34,680.69 L222.36,680.7 L222.37,680.72 L222.39,680.73 L222.41,680.75 L222.43,680.76 L222.45,680.78 L222.47,680.8 L222.51,680.83 L222.55,680.87 L222.59,680.9 L222.64,680.94 L222.68,680.97 L222.72,681.01 L222.74,681.02 L222.76,681.04 L222.78,681.05 L222.8,681.07 L222.81,681.08 L222.83,681.1 L222.85,681.11 L222.86,681.12 L222.88,681.13 L222.89,681.15 C223.38,681.6,223.85,682.03,223.85,682.76 C223.85,683.7,223.06,684.32,222.06,684.32 C221.11,684.32,220.48,683.59,220.48,682.89 C220.48,682.5,220.79,682.44,220.9,682.44 C221.07,682.44,221.31,682.56,221.31,682.86 C221.31,683.28,220.91,683.28,220.82,683.28 C221.05,683.85,221.58,684.05,221.97,684.05 C222.71,684.05,223.1,683.42,223.1,682.76 C223.1,681.93,222.51,681.33,221.57,680.37 L220.57,679.33 C220.48,679.24,220.48,679.23,220.48,679.03 H223.62 L223.85,680.45 H223.6 C223.58,680.29,223.52,679.9,223.42,679.75 C223.37,679.68,222.77,679.68,222.64,679.68 H221.23 Z " />
<line
   id="line6901"
   stroke-width="0.436"
   y2="670.42"
   x2="224.79"
   y1="670.42"
   x1="193.2" />
<path
   id="path6903"
   fill="black"
   stroke-width="0"
   d="M207.6,662.75 L207.6,662.75 L207.6,662.76 L207.61,662.77 L207.61,662.78 L207.62,662.79 L207.62,662.8 L207.63,662.81 L207.63,662.82 L207.63,662.83 L207.64,662.84 L207.64,662.84 L207.64,662.85 L207.64,662.85 L207.64,662.86 L207.65,662.86 L207.65,662.87 L207.65,662.87 L207.65,662.88 L207.65,662.88 L207.65,662.88 L207.65,662.89 L207.65,662.89 L207.65,662.89 L207.65,662.9 L207.65,662.9 C207.65,662.91,207.65,663.02,207.52,663.02 C207.43,663.02,207.4,662.95,207.38,662.89 C206.67,661.28,206.27,660.55,204.41,660.55 H202.82 C202.67,660.55,202.65,660.55,202.58,660.56 C202.47,660.57,202.44,660.58,202.44,660.67 C202.44,660.7,202.44,660.72,202.49,660.92 L203.23,663.89 H204.31 C205.24,663.89,205.24,663.66,205.24,663.39 C205.24,663.31,205.24,663.18,205.16,662.85 C205.14,662.8,205.13,662.77,205.13,662.73 C205.13,662.68,205.17,662.61,205.27,662.61 C205.36,662.61,205.39,662.67,205.43,662.83 L206.05,665.38 C206.05,665.45,206,665.5,205.92,665.5 C205.82,665.5,205.8,665.43,205.77,665.3 C205.54,664.48,205.35,664.23,204.34,664.23 H203.32 L203.97,666.85 C204.07,667.23,204.08,667.28,204.56,667.28 H206.1 C207.43,667.28,207.75,666.96,207.75,666.07 C207.75,665.81,207.75,665.78,207.71,665.49 C207.71,665.42,207.7,665.35,207.7,665.29 C207.7,665.24,207.73,665.16,207.83,665.16 C207.95,665.16,207.96,665.23,207.98,665.43 L208.2,667.32 C208.23,667.61,208.18,667.61,207.9,667.61 H202.4 C202.19,667.61,202.08,667.61,202.08,667.4 C202.08,667.28,202.18,667.28,202.38,667.28 C202.79,667.28,203.09,667.28,203.09,667.08 C203.09,667.04,203.09,667.01,203.04,666.82 L201.6,661.06 C201.49,660.63,201.47,660.55,200.61,660.55 C200.42,660.55,200.3,660.55,200.3,660.34 C200.3,660.21,200.4,660.21,200.61,660.21 H206.26 C206.51,660.21,206.52,660.22,206.6,660.39 Z " />
<path
   id="path6905"
   fill="black"
   stroke-width="0"
   d="M212.65,666.81 L212.66,666.84 L212.67,666.88 L212.67,666.91 L212.68,666.94 L212.69,666.97 L212.7,667 L212.71,667.03 L212.72,667.05 L212.74,667.07 L212.75,667.1 L212.76,667.12 L212.78,667.14 L212.8,667.16 L212.81,667.17 L212.83,667.19 L212.86,667.2 L212.88,667.22 L212.91,667.23 L212.94,667.24 L212.97,667.25 L213.01,667.26 L213.03,667.27 L213.05,667.27 L213.07,667.27 L213.09,667.28 L213.11,667.28 L213.14,667.28 L213.16,667.29 L213.18,667.29 L213.21,667.29 L213.24,667.3 L213.26,667.3 L213.29,667.3 L213.32,667.3 L213.35,667.3 L213.39,667.3 L213.42,667.3 L213.45,667.31 L213.49,667.31 L213.52,667.31 L213.56,667.31 L213.6,667.31 L213.64,667.31 C213.9,667.31,213.99,667.31,213.99,667.52 C213.99,667.65,213.87,667.65,213.82,667.65 C213.51,667.65,212.7,667.61,212.39,667.61 C212.06,667.61,211.26,667.65,210.94,667.65 C210.86,667.65,210.72,667.65,210.72,667.43 C210.72,667.31,210.82,667.31,211.03,667.31 C211.48,667.31,211.78,667.31,211.78,667.1 C211.78,667.05,211.78,667.03,211.76,666.93 L210.29,661.06 C210.19,660.66,210.15,660.55,209.29,660.55 C209.04,660.55,208.95,660.55,208.95,660.33 C208.95,660.21,209.08,660.21,209.11,660.21 C209.43,660.21,210.22,660.24,210.54,660.24 C210.86,660.24,211.67,660.21,211.99,660.21 C212.08,660.21,212.21,660.21,212.21,660.42 C212.21,660.55,212.12,660.55,211.89,660.55 C211.69,660.55,211.63,660.55,211.42,660.57 C211.19,660.59,211.15,660.63,211.15,660.75 C211.15,660.84,211.17,660.93,211.19,661 Z " />
<path
   id="path6907"
   fill="black"
   stroke-width="0"
   d="M217.26,661.11 L217.26,661.19 L217.26,661.26 L217.26,661.34 L217.25,661.41 L217.25,661.48 L217.25,661.55 L217.25,661.62 L217.24,661.69 L217.24,661.75 L217.23,661.82 L217.22,661.88 L217.22,661.94 L217.2,662.06 L217.18,662.17 L217.16,662.28 L217.14,662.39 L217.11,662.49 L217.07,662.6 L217.04,662.69 L217,662.79 L216.96,662.89 L216.91,662.98 C216.56,663.68,215.91,663.86,215.48,663.86 V663.64 C215.75,663.64,216.3,663.5,216.46,662.78 C216.55,662.34,216.55,661.74,216.55,661.2 C216.55,660.73,216.55,660.02,216.46,659.57 C216.29,658.74,215.74,658.63,215.48,658.63 H215.48 C215.21,658.63,214.66,658.76,214.49,659.59 C214.4,660.04,214.4,660.79,214.4,661.2 C214.4,661.75,214.4,662.31,214.49,662.74 C214.66,663.56,215.28,663.64,215.48,663.64 V663.86 C214.47,663.86,214.11,663.11,214,662.89 C213.71,662.31,213.69,661.52,213.69,661.11 C213.69,660.58,213.72,659.78,214.1,659.15 C214.46,658.56,215.05,658.41,215.48,658.41 C215.86,658.41,216.54,658.53,216.94,659.31 C217.24,659.88,217.26,660.59,217.26,661.11 Z " />
</g>  </g>
</svg>
