<?xml version="1.0" encoding="UTF-8" standalone="no"?>
<!-- Created with Inkscape (http://www.inkscape.org/) -->

<svg
   xmlns:dc="http://purl.org/dc/elements/1.1/"
   xmlns:cc="http://creativecommons.org/ns#"
   xmlns:rdf="http://www.w3.org/1999/02/22-rdf-syntax-ns#"
   xmlns:svg="http://www.w3.org/2000/svg"
   xmlns="http://www.w3.org/2000/svg"
   xmlns:xlink="http://www.w3.org/1999/xlink"
   xmlns:sodipodi="http://sodipodi.sourceforge.net/DTD/sodipodi-0.dtd"
   xmlns:inkscape="http://www.inkscape.org/namespaces/inkscape"
   width="765"
   height="990"
   id="svg2"
   version="1.1"
   inkscape:version="0.48.1 r9760"
   sodipodi:docname="2c.svg">
  <script
     xlink:href=""
     id="script3033" />
  <defs
     id="defs4" />
  <sodipodi:namedview
     id="base"
     pagecolor="#ffffff"
     bordercolor="#666666"
     borderopacity="1.0"
     inkscape:pageopacity="0.0"
     inkscape:pageshadow="2"
     inkscape:zoom="2.02"
     inkscape:cx="500.19084"
     inkscape:cy="663.19391"
     inkscape:document-units="in"
     inkscape:current-layer="layer1"
     showgrid="true"
     units="in"
     inkscape:window-width="1037"
     inkscape:window-height="857"
     inkscape:window-x="573"
     inkscape:window-y="51"
     inkscape:window-maximized="0"
     showguides="true">
    <inkscape:grid
       type="xygrid"
       id="grid2985"
       empspacing="5"
       visible="true"
       enabled="true"
       snapvisiblegridlinesonly="true"
       units="in"
       spacingx="0.1in"
       spacingy="0.1in" />
    <sodipodi:guide
       position="0,0"
       orientation="0,765"
       id="guide3042" />
    <sodipodi:guide
       position="765,0"
       orientation="-990,0"
       id="guide3044" />
    <sodipodi:guide
       position="765,990"
       orientation="0,-765"
       id="guide3046" />
    <sodipodi:guide
       position="0,990"
       orientation="990,0"
       id="guide3048" />
    <sodipodi:guide
       position="720,45"
       orientation="0,765"
       id="guide3050" />
    <sodipodi:guide
       position="720,900"
       orientation="-990,0"
       id="guide3052" />
    <sodipodi:guide
       position="63,900"
       orientation="0,-765"
       id="guide3054" />
    <sodipodi:guide
       position="90,927"
       orientation="990,0"
       id="guide3056" />
  </sodipodi:namedview>
  <metadata
     id="metadata7">
    <rdf:RDF>
      <cc:Work
         rdf:about="">
        <dc:format>image/svg+xml</dc:format>
        <dc:type
           rdf:resource="http://purl.org/dc/dcmitype/StillImage" />
        <dc:title></dc:title>
        <cc:license
           rdf:resource="http://creativecommons.org/licenses/by-nc/3.0/" />
      </cc:Work>
      <cc:License
         rdf:about="http://creativecommons.org/licenses/by-nc/3.0/">
        <cc:permits
           rdf:resource="http://creativecommons.org/ns#Reproduction" />
        <cc:permits
           rdf:resource="http://creativecommons.org/ns#Distribution" />
        <cc:requires
           rdf:resource="http://creativecommons.org/ns#Notice" />
        <cc:requires
           rdf:resource="http://creativecommons.org/ns#Attribution" />
        <cc:prohibits
           rdf:resource="http://creativecommons.org/ns#CommercialUse" />
        <cc:permits
           rdf:resource="http://creativecommons.org/ns#DerivativeWorks" />
      </cc:License>
    </rdf:RDF>
  </metadata>
  <g
     inkscape:groupmode="layer"
     id="layer2"
     inkscape:label="Border"
     sodipodi:insensitive="true">
    <rect
       style="fill:none;stroke:#000000;stroke-width:1px;stroke-linecap:butt;stroke-linejoin:miter;stroke-opacity:1"
       id="rect3040"
       width="630"
       height="855"
       x="90"
       y="90" />
  </g>
  <g
     inkscape:label="Layer 1"
     inkscape:groupmode="layer"
     id="layer1"
     transform="translate(0,-62.362)">
    <g
       id="g4189"
       inkscape:export-filename="/home/nholtz/3203/drawings/SDBeamsFrames/Stability/Problems/2c-soln.png"
       inkscape:export-xdpi="90"
       inkscape:export-ydpi="90">
      <path
         inkscape:connector-curvature="0"
         id="path5829"
         d="m 309.82191,286.99459 0,101.39499"
         style="fill:none;stroke:#000000;stroke-width:2.01390171;stroke-linecap:butt;stroke-linejoin:miter;stroke-opacity:1" />
      <path
         inkscape:connector-curvature="0"
         id="path5831"
         d="m 308.8393,286.99459 175.64527,0"
         style="fill:none;stroke:#000000;stroke-width:2.41967821;stroke-linecap:butt;stroke-linejoin:miter;stroke-opacity:1" />
      <path
         inkscape:connector-curvature="0"
         id="path5829-8"
         d="m 396,287.362 0,101.39499"
         style="fill:none;stroke:#000000;stroke-width:2.01390171;stroke-linecap:butt;stroke-linejoin:miter;stroke-opacity:1" />
      <path
         inkscape:connector-curvature="0"
         id="path5829-2"
         d="m 483.47267,286.99459 0,101.39499"
         style="fill:none;stroke:#000000;stroke-width:2.01390171;stroke-linecap:butt;stroke-linejoin:miter;stroke-opacity:1" />
      <path
         d="m 483.30977,388.0493 5,7.5 -10,0 z"
         id="path5224-5"
         inkscape:connector-curvature="0"
         style="fill:#000000;stroke:#000000;stroke-width:0" />
      <path
         d="m 475.80977,402.63684 15,0"
         id="path5226-4"
         inkscape:connector-curvature="0"
         style="fill:none;stroke:#000000;stroke-width:1.25" />
      <path
         d="m 490.80977,402.63684 -3.75,3.75 m 0,-3.75 -3.75,3.75 m 0,-3.75 -3.75,3.75 m 0,-3.75 -3.75,3.75 m 0,-3.75 -3.75,3.75"
         id="path5228-7"
         inkscape:connector-curvature="0"
         style="fill:none;stroke:#000000;stroke-width:1.25" />
      <path
         inkscape:connector-curvature="0"
         id="path3342"
         d="m 474.97004,396.02842 16.4794,0"
         style="fill:none;stroke:#000000;stroke-width:1px;stroke-linecap:butt;stroke-linejoin:miter;stroke-opacity:1" />
      <g
         transform="matrix(0.93789014,0,0,0.93789014,489.50605,399.29573)"
         id="use3513-4">
        <circle
           style="fill:#ffffff;stroke:#000000;stroke-width:1"
           sodipodi:ry="2.5"
           sodipodi:rx="2.5"
           sodipodi:cy="0"
           sodipodi:cx="0"
           id="circle3573-4"
           r="2.5"
           cy="0"
           cx="0"
           d="M 2.5,0 C 2.5,1.3807119 1.3807119,2.5 0,2.5 -1.3807119,2.5 -2.5,1.3807119 -2.5,0 c 0,-1.3807119 1.1192881,-2.5 2.5,-2.5 1.3807119,0 2.5,1.1192881 2.5,2.5 z" />
      </g>
      <g
         transform="matrix(0.93789014,0,0,0.93789014,483.64559,399.35565)"
         id="use3513-4-3">
        <circle
           style="fill:#ffffff;stroke:#000000;stroke-width:1"
           sodipodi:ry="2.5"
           sodipodi:rx="2.5"
           sodipodi:cy="0"
           sodipodi:cx="0"
           id="circle3573-4-0"
           r="2.5"
           cy="0"
           cx="0"
           d="M 2.5,0 C 2.5,1.3807119 1.3807119,2.5 0,2.5 -1.3807119,2.5 -2.5,1.3807119 -2.5,0 c 0,-1.3807119 1.1192881,-2.5 2.5,-2.5 1.3807119,0 2.5,1.1192881 2.5,2.5 z" />
      </g>
      <g
         transform="matrix(0.93789014,0,0,0.93789014,477.80899,399.35565)"
         id="use3513-4-7">
        <circle
           style="fill:#ffffff;stroke:#000000;stroke-width:1"
           sodipodi:ry="2.5"
           sodipodi:rx="2.5"
           sodipodi:cy="0"
           sodipodi:cx="0"
           id="circle3573-4-8"
           r="2.5"
           cy="0"
           cx="0"
           d="M 2.5,0 C 2.5,1.3807119 1.3807119,2.5 0,2.5 -1.3807119,2.5 -2.5,1.3807119 -2.5,0 c 0,-1.3807119 1.1192881,-2.5 2.5,-2.5 1.3807119,0 2.5,1.1192881 2.5,2.5 z" />
      </g>
      <path
         d="m 395.95971,389.01883 5,7.5 -10,0 z"
         id="path5224"
         inkscape:connector-curvature="0"
         style="fill:#000000;stroke:#000000;stroke-width:0" />
      <path
         d="m 388.45971,396.51883 15,0"
         id="path5226"
         inkscape:connector-curvature="0"
         style="fill:none;stroke:#000000;stroke-width:1.25" />
      <path
         d="m 403.45971,396.51883 -3.75,3.75 m 0,-3.75 -3.75,3.75 m 0,-3.75 -3.75,3.75 m 0,-3.75 -3.75,3.75 m 0,-3.75 -3.75,3.75"
         id="path5228"
         inkscape:connector-curvature="0"
         style="fill:none;stroke:#000000;stroke-width:1.25" />
      <path
         d="m 309.75,388.35705 5,7.5 -10,0 z"
         id="path5224-4"
         inkscape:connector-curvature="0"
         style="fill:#000000;stroke:#000000;stroke-width:0" />
      <path
         d="m 302.25,395.85705 15,0"
         id="path5226-5"
         inkscape:connector-curvature="0"
         style="fill:none;stroke:#000000;stroke-width:1.25" />
      <path
         d="m 317.25,395.85705 -3.75,3.75 m 0,-3.75 -3.75,3.75 m 0,-3.75 -3.75,3.75 m 0,-3.75 -3.75,3.75 m 0,-3.75 -3.75,3.75"
         id="path5228-6"
         inkscape:connector-curvature="0"
         style="fill:none;stroke:#000000;stroke-width:1.25" />
      <g
         transform="matrix(1.25,0,0,1.25,414.10903,286.84063)"
         id="use3513">
        <circle
           style="fill:#ffffff;stroke:#000000;stroke-width:1"
           sodipodi:ry="2.5"
           sodipodi:rx="2.5"
           sodipodi:cy="0"
           sodipodi:cx="0"
           id="circle3573"
           r="2.5"
           cy="0"
           cx="0"
           d="M 2.5,0 C 2.5,1.3807119 1.3807119,2.5 0,2.5 -1.3807119,2.5 -2.5,1.3807119 -2.5,0 c 0,-1.3807119 1.1192881,-2.5 2.5,-2.5 1.3807119,0 2.5,1.1192881 2.5,2.5 z" />
      </g>
    </g>
    <text
       xml:space="preserve"
       style="font-size:11px;font-style:normal;font-variant:normal;font-weight:normal;font-stretch:normal;line-height:125%;letter-spacing:0px;word-spacing:0px;fill:#000000;fill-opacity:1;stroke:none;font-family:Verdana;-inkscape-font-specification:Sans"
       x="513"
       y="323.362"
       id="text3504"
       sodipodi:linespacing="125%"
       inkscape:export-filename="/home/nholtz/3203/drawings/SDBeamsFrames/Stability/Problems/2c-soln.png"
       inkscape:export-xdpi="90"
       inkscape:export-ydpi="90"><tspan
         sodipodi:role="line"
         id="tspan3514"
         x="513"
         y="323.362">stable:</tspan><tspan
         sodipodi:role="line"
         id="tspan3516"
         x="513"
         y="337.112">3m+r=3x5+5=20</tspan><tspan
         sodipodi:role="line"
         id="tspan3518"
         x="513"
         y="350.862">3j+c=3x6+1=19</tspan><tspan
         sodipodi:role="line"
         id="tspan3520"
         x="513"
         y="364.612">1˚ S.I.</tspan></text>
  </g>
</svg>
