<?xml version="1.0" encoding="UTF-8" standalone="no"?>
<!-- Created with Inkscape (http://www.inkscape.org/) -->

<svg
   xmlns:dc="http://purl.org/dc/elements/1.1/"
   xmlns:cc="http://creativecommons.org/ns#"
   xmlns:rdf="http://www.w3.org/1999/02/22-rdf-syntax-ns#"
   xmlns:svg="http://www.w3.org/2000/svg"
   xmlns="http://www.w3.org/2000/svg"
   xmlns:xlink="http://www.w3.org/1999/xlink"
   xmlns:sodipodi="http://sodipodi.sourceforge.net/DTD/sodipodi-0.dtd"
   xmlns:inkscape="http://www.inkscape.org/namespaces/inkscape"
   width="765"
   height="990"
   id="svg2"
   version="1.1"
   inkscape:version="0.48.1 r9760"
   sodipodi:docname="4.svg">
  <script
     xlink:href=""
     id="script3033" />
  <defs
     id="defs4" />
  <sodipodi:namedview
     id="base"
     pagecolor="#ffffff"
     bordercolor="#666666"
     borderopacity="1.0"
     inkscape:pageopacity="0.0"
     inkscape:pageshadow="2"
     inkscape:zoom="1.4283557"
     inkscape:cx="363.59521"
     inkscape:cy="612.21024"
     inkscape:document-units="in"
     inkscape:current-layer="layer11"
     showgrid="true"
     units="in"
     inkscape:window-width="938"
     inkscape:window-height="789"
     inkscape:window-x="644"
     inkscape:window-y="133"
     inkscape:window-maximized="0"
     showguides="true">
    <inkscape:grid
       type="xygrid"
       id="grid2985"
       empspacing="5"
       visible="true"
       enabled="true"
       snapvisiblegridlinesonly="true"
       units="in"
       spacingx="0.1in"
       spacingy="0.1in" />
    <sodipodi:guide
       position="0,0"
       orientation="0,765"
       id="guide3042" />
    <sodipodi:guide
       position="765,0"
       orientation="-990,0"
       id="guide3044" />
    <sodipodi:guide
       position="765,990"
       orientation="0,-765"
       id="guide3046" />
    <sodipodi:guide
       position="0,990"
       orientation="990,0"
       id="guide3048" />
    <sodipodi:guide
       position="720,45"
       orientation="0,765"
       id="guide3050" />
    <sodipodi:guide
       position="720,900"
       orientation="-990,0"
       id="guide3052" />
    <sodipodi:guide
       position="63,900"
       orientation="0,-765"
       id="guide3054" />
    <sodipodi:guide
       position="90,927"
       orientation="990,0"
       id="guide3056" />
  </sodipodi:namedview>
  <metadata
     id="metadata7">
    <rdf:RDF>
      <cc:Work
         rdf:about="">
        <dc:format>image/svg+xml</dc:format>
        <dc:type
           rdf:resource="http://purl.org/dc/dcmitype/StillImage" />
        <dc:title></dc:title>
        <cc:license
           rdf:resource="http://creativecommons.org/licenses/by-nc/3.0/" />
      </cc:Work>
      <cc:License
         rdf:about="http://creativecommons.org/licenses/by-nc/3.0/">
        <cc:permits
           rdf:resource="http://creativecommons.org/ns#Reproduction" />
        <cc:permits
           rdf:resource="http://creativecommons.org/ns#Distribution" />
        <cc:requires
           rdf:resource="http://creativecommons.org/ns#Notice" />
        <cc:requires
           rdf:resource="http://creativecommons.org/ns#Attribution" />
        <cc:prohibits
           rdf:resource="http://creativecommons.org/ns#CommercialUse" />
        <cc:permits
           rdf:resource="http://creativecommons.org/ns#DerivativeWorks" />
      </cc:License>
    </rdf:RDF>
  </metadata>
  <g
     inkscape:groupmode="layer"
     id="layer2"
     inkscape:label="Border"
     sodipodi:insensitive="true">
    <rect
       style="fill:none;stroke:#000000;stroke-width:1px;stroke-linecap:butt;stroke-linejoin:miter;stroke-opacity:1"
       id="rect3040"
       width="630"
       height="855"
       x="90"
       y="90" />
  </g>
  <g
     inkscape:label="Layer 1"
     inkscape:groupmode="layer"
     id="layer1"
     transform="translate(0,-62.362)">
    <g
       id="g4621"
       inkscape:export-filename="/home/nholtz/3203/drawings/SDBeamsFrames/Stability/Problems/4-soln.png"
       inkscape:export-xdpi="90"
       inkscape:export-ydpi="90">
      <g
         transform="matrix(1.365252,0,0,1.8804217,513.20948,541.99347)"
         id="use90">
        <path
           style="fill:#000000;stroke:#000000;stroke-width:0"
           inkscape:connector-curvature="0"
           id="path5224-8"
           d="M 0,0 4,6 -4,6 z" />
        <path
           style="fill:none;stroke:#000000;stroke-width:1"
           inkscape:connector-curvature="0"
           id="path5226-6"
           d="M -6,6 6,6" />
        <path
           style="fill:none;stroke:#000000;stroke-width:1"
           inkscape:connector-curvature="0"
           id="path5228-5"
           d="M 6,6 3,9 M 3,6 0,9 M 0,6 -3,9 m 0,-3 -3,3 m 0,-3 -3,3" />
      </g>
      <path
         inkscape:connector-curvature="0"
         id="path6349"
         d="m 189,431.362 108,18"
         style="fill:none;stroke:#000000;stroke-width:3;stroke-linecap:butt;stroke-linejoin:miter;stroke-opacity:1" />
      <path
         inkscape:connector-curvature="0"
         id="path6351"
         d="m 303.03202,450.06212 105.61792,0"
         style="fill:none;stroke:#000000;stroke-width:3;stroke-linecap:butt;stroke-linejoin:miter;stroke-opacity:1" />
      <path
         inkscape:connector-curvature="0"
         id="path6353"
         d="m 414.52509,452.13679 99,90"
         style="fill:none;stroke:#000000;stroke-width:3;stroke-linecap:butt;stroke-linejoin:miter;stroke-opacity:1" />
      <g
         transform="matrix(1.25,0,0,1.25,299.74724,449.72917)"
         id="use3513-0">
        <circle
           style="fill:#ffffff;stroke:#000000;stroke-width:1"
           sodipodi:ry="2.5"
           sodipodi:rx="2.5"
           sodipodi:cy="0"
           sodipodi:cx="0"
           id="circle3573-2"
           r="2.5"
           cy="0"
           cx="0"
           d="M 2.5,0 C 2.5,1.3807119 1.3807119,2.5 0,2.5 -1.3807119,2.5 -2.5,1.3807119 -2.5,0 c 0,-1.3807119 1.1192881,-2.5 2.5,-2.5 1.3807119,0 2.5,1.1192881 2.5,2.5 z" />
      </g>
      <g
         transform="matrix(1.25,0,0,1.25,411.74724,450.42929)"
         id="use3513-0-8">
        <circle
           style="fill:#ffffff;stroke:#000000;stroke-width:1"
           sodipodi:ry="2.5"
           sodipodi:rx="2.5"
           sodipodi:cy="0"
           sodipodi:cx="0"
           id="circle3573-2-6"
           r="2.5"
           cy="0"
           cx="0"
           d="M 2.5,0 C 2.5,1.3807119 1.3807119,2.5 0,2.5 -1.3807119,2.5 -2.5,1.3807119 -2.5,0 c 0,-1.3807119 1.1192881,-2.5 2.5,-2.5 1.3807119,0 2.5,1.1192881 2.5,2.5 z" />
      </g>
      <path
         d="m 353.66418,450.97828 5,7.5 -10,0 z"
         id="path5224-5-1-0"
         inkscape:connector-curvature="0"
         style="fill:#000000;stroke:#000000;stroke-width:0" />
      <path
         d="m 346.16418,465.56582 15,0"
         id="path5226-4-1-2"
         inkscape:connector-curvature="0"
         style="fill:none;stroke:#000000;stroke-width:1.25" />
      <path
         d="m 361.16418,465.56582 -3.75,3.75 m 0,-3.75 -3.75,3.75 m 0,-3.75 -3.75,3.75 m 0,-3.75 -3.75,3.75 m 0,-3.75 -3.75,3.75"
         id="path5228-7-38-4"
         inkscape:connector-curvature="0"
         style="fill:none;stroke:#000000;stroke-width:1.25" />
      <path
         inkscape:connector-curvature="0"
         id="path3342-7-8"
         d="m 345.32445,458.9574 16.4794,0"
         style="fill:none;stroke:#000000;stroke-width:1px;stroke-linecap:butt;stroke-linejoin:miter;stroke-opacity:1" />
      <g
         transform="matrix(0.93789014,0,0,0.93789014,359.86046,462.22471)"
         id="use3513-4-42-6">
        <circle
           style="fill:#ffffff;stroke:#000000;stroke-width:1"
           sodipodi:ry="2.5"
           sodipodi:rx="2.5"
           sodipodi:cy="0"
           sodipodi:cx="0"
           id="circle3573-4-7-5"
           r="2.5"
           cy="0"
           cx="0"
           d="M 2.5,0 C 2.5,1.3807119 1.3807119,2.5 0,2.5 -1.3807119,2.5 -2.5,1.3807119 -2.5,0 c 0,-1.3807119 1.1192881,-2.5 2.5,-2.5 1.3807119,0 2.5,1.1192881 2.5,2.5 z" />
      </g>
      <g
         transform="matrix(0.93789014,0,0,0.93789014,354,462.28463)"
         id="use3513-4-3-7-0">
        <circle
           style="fill:#ffffff;stroke:#000000;stroke-width:1"
           sodipodi:ry="2.5"
           sodipodi:rx="2.5"
           sodipodi:cy="0"
           sodipodi:cx="0"
           id="circle3573-4-0-9-9"
           r="2.5"
           cy="0"
           cx="0"
           d="M 2.5,0 C 2.5,1.3807119 1.3807119,2.5 0,2.5 -1.3807119,2.5 -2.5,1.3807119 -2.5,0 c 0,-1.3807119 1.1192881,-2.5 2.5,-2.5 1.3807119,0 2.5,1.1192881 2.5,2.5 z" />
      </g>
      <g
         transform="matrix(0.93789014,0,0,0.93789014,348.1634,462.28463)"
         id="use3513-4-7-31-0">
        <circle
           style="fill:#ffffff;stroke:#000000;stroke-width:1"
           sodipodi:ry="2.5"
           sodipodi:rx="2.5"
           sodipodi:cy="0"
           sodipodi:cx="0"
           id="circle3573-4-8-9-0"
           r="2.5"
           cy="0"
           cx="0"
           d="M 2.5,0 C 2.5,1.3807119 1.3807119,2.5 0,2.5 -1.3807119,2.5 -2.5,1.3807119 -2.5,0 c 0,-1.3807119 1.1192881,-2.5 2.5,-2.5 1.3807119,0 2.5,1.1192881 2.5,2.5 z" />
      </g>
      <g
         transform="matrix(1.25,0,0,1.25,188.6782,430.86944)"
         id="use3511-6">
        <path
           style="fill:none;stroke:#000000;stroke-width:1"
           inkscape:connector-curvature="0"
           id="path3409-1"
           d="M 0,-6 0,6" />
        <path
           style="fill:none;stroke:#000000;stroke-width:1"
           inkscape:connector-curvature="0"
           id="path3411-3"
           d="m 0,-6 -3,3 m 3,0 -3,3 m 3,0 -3,3 m 3,0 -3,3 m 3,0 -3,3" />
      </g>
    </g>
  </g>
  <g
     inkscape:groupmode="layer"
     id="layer11"
     inkscape:label="solution">
    <text
       xml:space="preserve"
       style="font-size:11px;font-style:normal;font-variant:normal;font-weight:normal;font-stretch:normal;line-height:125%;letter-spacing:0px;word-spacing:0px;fill:#000000;fill-opacity:1;stroke:none;font-family:Verdana;-inkscape-font-specification:Sans"
       x="247.13731"
       y="445.31775"
       id="text3840"
       sodipodi:linespacing="125%"
       inkscape:export-filename="/home/nholtz/3203/drawings/SDBeamsFrames/Stability/Problems/4-soln.png"
       inkscape:export-xdpi="90"
       inkscape:export-ydpi="90"><tspan
         sodipodi:role="line"
         id="tspan3850"
         x="247.13731"
         y="445.31775">stable</tspan><tspan
         sodipodi:role="line"
         id="tspan3852"
         x="247.13731"
         y="459.06775">3m+r=3x3+6=15</tspan><tspan
         sodipodi:role="line"
         id="tspan3854"
         x="247.13731"
         y="472.81775">3j+c=3x4+2=14</tspan><tspan
         sodipodi:role="line"
         id="tspan3856"
         x="247.13731"
         y="486.56775">1˚ S.I.</tspan></text>
  </g>
</svg>
