<?xml version="1.0" standalone="yes"?>
<!DOCTYPE svg PUBLIC "-//W3C//DTD SVG 1.1//EN" 
  "http://www.w3.org/Graphics/SVG/1.1/DTD/svg11.dtd">
<svg xmlns="http://www.w3.org/2000/svg"
     xmlns:xlink="http://www.w3.org/1999/xlink"
     version="1.1"
     width="8.5in" 
     height="11.0in" 
     viewBox="0 0 612 792">
  <defs>
    <style type="text/css"><![CDATA[
    .elem {
	stroke-width: 2.0;
	stroke: black;
	}
    path.dim {
       stroke-width: 0.5;
       stroke: black;
       }
    path.guides {
       stroke-width: 0.5;
       stroke: grey;
       }
    text.dwglabel {
       font-family: Verdana, Arial;
       font-size: 10px;
       font-weight: bold;
       fill: black;
       text-align: center;
       text-anchor: start;
       }
    text.dim {
       font-family: Verdana, Arial;
       font-size: 8px;
       font-weight: bold;
       fill: black;
       text-align: center;
       text-anchor: middle;
       }
    text.guides {
       font-family: Verdana, Arial;
       font-size: 8px;
       font-weight: normal;
       font-style: italic;
       fill: black;
       text-align: center;
       text-anchor: middle;
       }
    text.vmlabel {
       font-family: Verdana, Arial;
       font-size: 8px;
       font-style: italic;
       fill: black;
       }
    text.notes {
       font-family: Verdana, Arial;
       font-size: 9px;
       font-weight: normal;
       font-style: italic;
       fill: black;
       text-align: center;
       text-anchor: left;
       }
    text.ptlabel {
       font-family: Verdana, Arial;
       font-size: 7px;
       font-style: italic;
       fill: black;
       text-align: center;
       text-anchor: start;
       }
     path.cload {
       fill: none;
       stroke-width: 1;
       stroke: black; 
       marker-end: url(#CLArrowEnd);
     }
      path.mload {
       fill: none;
       stroke-width: 1;
       stroke: black; 
       marker-end: url(#MLArrowEnd);
     }
      path.mloadInkscape {
       fill: none;
       stroke-width: 1;
       stroke: black; 
       marker-end: url(#MLArrowStart);
     }
     polygon.dload {
       fill: rgb(240,240,240);
       opacity: 0.5; /* if < 1, REALLY slows down printing of the pdfs */
       stroke-width: 1;
       stroke: black; 
     }
     path.dload {
       fill: none;
       stroke-width: 1;
       stroke: black; 
       marker-end: url(#DLArrowEnd);
     }
     path.dloadna {
       fill: none;
       stroke-width: 1;
       stroke: black; 
     }
     path.vdiag {
       fill: url(#crosshatch45);
       stroke-width: 1;
       stroke: black; 
     }
     path.mdiag {
       fill: url(#crosshatch45);
       stroke-width: 1;
       stroke: black; 
     }

    ]]></style>
    <g id="PinnedSupport" transform="translate(0,1.0)">
      <path d="M 0 0 l 4 6 l -8 0 z" 
	    stroke="black" stroke-width="0" fill="black" opacity="1.0" />
      <path d="M -6 6 l 12 0" 
	    stroke="black" stroke-width="1" fill="none" />
      <path d="M 6 6 l -3 3 m 0 -3 l -3 3 m 0 -3 l -3 3 m 0 -3 l -3 3 m 0 -3 l -3 3"
	    stroke="black" stroke-width="1" fill="none" />
    </g>
    <g id="RollerSupport" transform="translate(0,1.0)">
      <circle cx="0" cy="3" r="3"
	    stroke="black" stroke-width="0" fill="black" opacity="1.0" />
      <path d="M -6 6 l 12 0" 
	    stroke="black" stroke-width="1" fill="none" />
      <path d="M 6 6 l -3 3 m 0 -3 l -3 3 m 0 -3 l -3 3 m 0 -3 l -3 3 m 0 -3 l -3 3"
	    stroke="black" stroke-width="1" fill="none" />
    </g>
    <g id="LFixedSupport" transform="translate(-0.5,0)">
      <path d="M 0 -6 l 0 12"
	    stroke="black" stroke-width="1" fill="none" />
      <path d="M 0 -6 l -3 3 m 3 0 l -3 3 m 3 0 l -3 3 m 3 0 l -3 3 m 3 0 l -3 3"
	    stroke="black" stroke-width="1" fill="none" />
    </g>
    <g id="RFixedSupport">
      <use xlink:href="#LFixedSupport" transform="scale(-1,1)"/>
    </g>
    <g id="Hinge">
      <circle cx="0" cy="0" r="2.5"
	      stroke="black" stroke-width="1" fill="white"/>
    </g>
    <g id="ShearRelease">
      <rect x="-3" y="-6" width="6" height="12"
	    stroke="none" fill="white"/>
      <circle cx="0" cy="-6" r="2" stroke="black" strokewidth="0.5" fill="white"/>
      <circle cx="0" cy="0" r="2" stroke="black" strokewidth="0.5" fill="white"/>
      <circle cx="0" cy="6" r="2" stroke="black" strokewidth="0.5" fill="white"/>
      <path d="M -3 -9 l 0 18 M 3 -9 l 0 18" stroke="black" stroke-width="1"/>
    </g>
    <marker id="DLArrowStart"
	    markerUnits="userSpaceOnUse"
	    markerWidth="8"
	    markerHeight="4"
	    orient="auto"
	    viewBox="0 0 8 4"
	    refX="0"
	    refY="2">
      <path d="M 0 2 l 8 -2 l 0 4 z"/>
    </marker>
    <marker id="DLArrowEnd"
	    markerUnits="userSpaceOnUse"
	    markerWidth="8"
	    markerHeight="4"
	    orient="auto"
	    viewBox="0 0 8 4"
	    refX="8"
	    refY="2">
      <path d="M 0 0 l 8 2 l -8 2 z"/>
    </marker>
    <marker id="CLArrowStart"
	    markerUnits="userSpaceOnUse"
	    markerWidth="10.0"
	    markerHeight="6"
	    orient="auto"
	    viewBox="0 0 10 6"
	    refX="3.0"
	    refY="3">
      <path d="M 0 3 l 10 -3 l -2 3 l 2 3 z"/>
    </marker>
    <marker id="CLArrowEnd"
	    markerUnits="userSpaceOnUse"
	    markerWidth="10.0"
	    markerHeight="6"
	    orient="auto"
	    viewBox="0 0 10 6"
	    refX="7.0"
	    refY="3">
      <path d="M 0 0 l 10 3 l -10 3 l 2 -3 z"/>
    </marker>
    <marker id="MLArrowStart"
	    markerUnits="userSpaceOnUse"
	    markerWidth="10.0"
	    markerHeight="6"
	    orient="auto"
	    viewBox="0 0 10 6"
	    refX="8"
	    refY="3">
      <path d="M 10 0 l -10 3 l 10 3 l -2 -3 z"/>
    </marker>
    <marker id="MLArrowEnd"
	    markerUnits="userSpaceOnUse"
	    markerWidth="10.0"
	    markerHeight="6"
	    orient="auto"
	    viewBox="0 0 10 6"
	    refX="2"
	    refY="3">
      <path d="M 0 0 l 10 3 l -10 3 l 2 -3 z"/>
    </marker>
    <pattern id="crosshatch45" patternUnits="userSpaceOnUse"
             x="0" y="0" width="10" height="10"
	     viewBox="0 0 10 10">
       <path d="M 0 0 L 10 10" fill="none" stroke="grey" stroke-width="0.2"/>
    </pattern>


  </defs>

<g transform="translate(72.0,122.0)">
  <title>Beam! Length = 24.4</title>
  <path class="elem" d="M 0 0 l 360.0 0"/>
  <g transform="translate(0.0,0.0)">
    <title>UD Load 20 kN/m</title>
    <polygon points="0,0 0,-24.0 188.9,-24.0 188.9,0" class="dload"/>
    <path class="dload" d="M 0.0 -24.0 L 0.0 -1.0"/>
    <path class="dload" d="M 23.6 -24.0 L 23.6 -1.0"/>
    <path class="dload" d="M 47.2 -24.0 L 47.2 -1.0"/>
    <path class="dload" d="M 70.8 -24.0 L 70.8 -1.0"/>
    <path class="dload" d="M 94.4 -24.0 L 94.4 -1.0"/>
    <path class="dload" d="M 118.0 -24.0 L 118.0 -1.0"/>
    <path class="dload" d="M 141.6 -24.0 L 141.6 -1.0"/>
    <path class="dload" d="M 165.2 -24.0 L 165.2 -1.0"/>
    <path class="dload" d="M 188.9 -24.0 L 188.9 -1.0"/>
    <text style="text-anchor: middle;" dx="0.0" dy="-2.0" y="-24.0" x="94.4" class="dim">20</text>
  </g>
  <g transform="translate(247.9,0.0)">
    <title>LD Load 20 - 18 kN/m</title>
    <polygon points="0,0 0,-24.0 94.4,-12.0 94.4,0" class="dload"/>
    <path class="dload" d="M 0.0 -24.0 L 0.0 -1.0"/>
    <path class="dload" d="M 23.6 -21.0 L 23.6 -1.0"/>
    <path class="dload" d="M 47.2 -18.0 L 47.2 -1.0"/>
    <path class="dload" d="M 70.8 -15.0 L 70.8 -1.0"/>
    <path class="dload" d="M 94.4 -12.0 L 94.4 -1.0"/>
    <text style="text-anchor: end;" dx="0.0" dy="-2.0" y="-24.0" x="0.0" class="dim">20</text>
    <text style="text-anchor: start;" dx="0.0" dy="-2.0" y="-12.0" x="94.4" class="dim">18</text>
  </g>
  <g transform="translate(360.0,-1.0)">
    <title>Point Load = 65 kN</title>
    <path class="cload" d="M 0 -26.0 l 0 23.0"/>
    <text y="-26.0" x="0" class="dim" dy="-3.0">65</text>
  </g>
  <use y="0" x="26.6" xlink:href="#PinnedSupport"/>
  <use y="0" x="159.3" xlink:href="#RollerSupport"/>
  <use y="0" x="188.9" xlink:href="#Hinge"/>
  <use y="0" x="247.9" xlink:href="#RollerSupport"/>
  <use y="0" x="283.3" xlink:href="#Hinge"/>
  <use y="0" x="342.3" xlink:href="#RollerSupport"/>
  <path class="dim" d="M 188.9 10.0 l 0 25.0"/>
  <path class="dim" d="M 159.3 30.0 l 29.5 0"/>
  <path class="dim" d="M 159.3 30.0 m -3.0 3.0 l 6.0 -6.0"/>
  <path class="dim" d="M 188.9 30.0 m -3.0 3.0 l 6.0 -6.0"/>
  <text y="30.0" x="174.1" class="dim" dy="-3.0">2</text>
  <path class="dim" d="M 283.3 10.0 l 0 25.0"/>
  <path class="dim" d="M 247.9 30.0 l 35.4 0"/>
  <path class="dim" d="M 247.9 30.0 m -3.0 3.0 l 6.0 -6.0"/>
  <path class="dim" d="M 283.3 30.0 m -3.0 3.0 l 6.0 -6.0"/>
  <text y="30.0" x="265.6" class="dim" dy="-3.0">2.4</text>
  <path class="dim" d="M 0.0 10.0 l 0 40.0"/>
  <path class="dim" d="M 26.6 10.0 l 0 40.0"/>
  <path class="dim" d="M 0.0 45.0 l 26.6 0"/>
  <path class="dim" d="M 0.0 45.0 m -3.0 3.0 l 6.0 -6.0"/>
  <path class="dim" d="M 26.6 45.0 m -3.0 3.0 l 6.0 -6.0"/>
  <text y="45.0" x="13.3" class="dim" dy="-3.0">1.8</text>
  <path class="dim" d="M 159.3 10.0 l 0 40.0"/>
  <path class="dim" d="M 26.6 45.0 l 132.8 0"/>
  <path class="dim" d="M 159.3 45.0 m -3.0 3.0 l 6.0 -6.0"/>
  <text y="45.0" x="93.0" class="dim" dy="-3.0">9</text>
  <path class="dim" d="M 247.9 10.0 l 0 40.0"/>
  <path class="dim" d="M 159.3 45.0 l 88.5 0"/>
  <path class="dim" d="M 247.9 45.0 m -3.0 3.0 l 6.0 -6.0"/>
  <text y="45.0" x="203.6" class="dim" dy="-3.0">6</text>
  <path class="dim" d="M 342.3 10.0 l 0 40.0"/>
  <path class="dim" d="M 247.9 45.0 l 94.4 0"/>
  <path class="dim" d="M 342.3 45.0 m -3.0 3.0 l 6.0 -6.0"/>
  <text y="45.0" x="295.1" class="dim" dy="-3.0">6.4</text>
  <path class="dim" d="M 360.0 10.0 l 0 40.0"/>
  <path class="dim" d="M 342.3 45.0 l 17.7 0"/>
  <path class="dim" d="M 360.0 45.0 m -3.0 3.0 l 6.0 -6.0"/>
  <text y="45.0" x="351.1" class="dim" dy="-3.0">1.2</text>
  <text y="17.0" x="0.0" class="ptlabel" dx="1.0">a</text>
  <text y="17.0" x="26.6" class="ptlabel" dx="1.0">b</text>
  <text y="17.0" x="159.3" class="ptlabel" dx="1.0">c</text>
  <text y="17.0" x="188.9" class="ptlabel" dx="1.0">d</text>
  <text y="17.0" x="247.9" class="ptlabel" dx="1.0">e</text>
  <text y="17.0" x="283.3" class="ptlabel" dx="1.0">f</text>
  <text y="17.0" x="342.3" class="ptlabel" dx="1.0">g</text>
  <text y="17.0" x="360.0" class="ptlabel" dx="1.0">h</text>
  <text y="-56.0" x="0" xml:space="preserve" class="notes">Units are m, kN;       Difficulty Level = 9</text>
  <g id="fbd-guides" visibility="visible" transform="translate(0.0,0.0)">
    <path class="guides" d="M 0.0 51.0 L 0.0 186.0 M 26.6 51.0 L 26.6 186.0 M 159.3 51.0 L 159.3 186.0 M 188.9 51.0 L 188.9 186.0 M 247.9 51.0 L 247.9 186.0 M 283.3 51.0 L 283.3 186.0 M 342.3 51.0 L 342.3 186.0 M 360.0 51.0 L 360.0 186.0"/>
  </g>
  <g id="beam-fb-diagram" visibility="visible" transform="translate(0.0,144.0)">
    <title>Free Body Diagram</title>
    <path class="elem" d="M 0 0 l 360.0 0"/>
    <g transform="translate(0.0,0.0)">
      <title>UD Load 20 kN/m</title>
      <polygon points="0,0 0,-24.0 188.9,-24.0 188.9,0" class="dload"/>
      <path class="dload" d="M 0.0 -24.0 L 0.0 -1.0"/>
      <path class="dload" d="M 23.6 -24.0 L 23.6 -1.0"/>
      <path class="dload" d="M 47.2 -24.0 L 47.2 -1.0"/>
      <path class="dload" d="M 70.8 -24.0 L 70.8 -1.0"/>
      <path class="dload" d="M 94.4 -24.0 L 94.4 -1.0"/>
      <path class="dload" d="M 118.0 -24.0 L 118.0 -1.0"/>
      <path class="dload" d="M 141.6 -24.0 L 141.6 -1.0"/>
      <path class="dload" d="M 165.2 -24.0 L 165.2 -1.0"/>
      <path class="dload" d="M 188.9 -24.0 L 188.9 -1.0"/>
      <text style="text-anchor: middle;" dx="0.0" dy="-2.0" y="-24.0" x="94.4" class="dim">20</text>
    </g>
    <g transform="translate(247.9,0.0)">
      <title>LD Load 20 - 18 kN/m</title>
      <polygon points="0,0 0,-24.0 94.4,-12.0 94.4,0" class="dload"/>
      <path class="dload" d="M 0.0 -24.0 L 0.0 -1.0"/>
      <path class="dload" d="M 23.6 -21.0 L 23.6 -1.0"/>
      <path class="dload" d="M 47.2 -18.0 L 47.2 -1.0"/>
      <path class="dload" d="M 70.8 -15.0 L 70.8 -1.0"/>
      <path class="dload" d="M 94.4 -12.0 L 94.4 -1.0"/>
      <text style="text-anchor: end;" dx="0.0" dy="-2.0" y="-24.0" x="0.0" class="dim">20</text>
      <text style="text-anchor: start;" dx="0.0" dy="-2.0" y="-12.0" x="94.4" class="dim">18</text>
    </g>
    <g transform="translate(360.0,-1.0)">
      <title>Point Load = 65 kN</title>
      <path class="cload" d="M 0 -34.0 l 0 31.0"/>
      <text y="-34.0" x="0" class="dim" dy="-3.0">65</text>
    </g>
    <g transform="translate(26.6,1.0)">
      <title>Point Load = -130.698 kN</title>
      <path class="cload" d="M 0 42.0 l 0 -39.0"/>
      <text y="42.0" x="0" class="dim" dy="8.0">130.7</text>
    </g>
    <g transform="translate(159.3,1.0)">
      <title>Point Load = -100.362 kN</title>
      <path class="cload" d="M 0 38.3 l 0 -35.3"/>
      <text y="38.3" x="0" class="dim" dy="8.0">100.4</text>
    </g>
    <g transform="translate(247.9,1.0)">
      <title>Point Load = -90.2067 kN</title>
      <path class="cload" d="M 0 37.0 l 0 -34.0"/>
      <text y="37.0" x="0" class="dim" dy="8.0">90.21</text>
    </g>
    <g transform="translate(342.3,1.0)">
      <title>Point Load = -121.333 kN</title>
      <path class="cload" d="M 0 40.9 l 0 -37.9"/>
      <text y="40.9" x="0" class="dim" dy="8.0">121.3</text>
    </g>
    <text x="360.0" y="0" class="dwglabel" dx="18.0">FBD [m,kN]</text>
  </g>
</g>

</svg>
