<?xml version="1.0" encoding="UTF-8" standalone="no"?>
<!-- Created with Inkscape (http://www.inkscape.org/) -->

<svg
   xmlns:ns0="http://www.iki.fi/pav/software/textext/"
   xmlns:dc="http://purl.org/dc/elements/1.1/"
   xmlns:cc="http://creativecommons.org/ns#"
   xmlns:rdf="http://www.w3.org/1999/02/22-rdf-syntax-ns#"
   xmlns:svg="http://www.w3.org/2000/svg"
   xmlns="http://www.w3.org/2000/svg"
   xmlns:xlink="http://www.w3.org/1999/xlink"
   xmlns:sodipodi="http://sodipodi.sourceforge.net/DTD/sodipodi-0.dtd"
   xmlns:inkscape="http://www.inkscape.org/namespaces/inkscape"
   width="450"
   height="153"
   id="svg2"
   version="1.1"
   inkscape:version="0.92.4 (unknown)"
   sodipodi:docname="frame3-6.svg">
  <sodipodi:namedview
     id="base"
     pagecolor="#ffffff"
     bordercolor="#666666"
     borderopacity="1.0"
     inkscape:pageopacity="0.0"
     inkscape:pageshadow="2"
     inkscape:zoom="2.02"
     inkscape:cx="170.87864"
     inkscape:cy="138.74188"
     inkscape:document-units="in"
     inkscape:current-layer="layer1"
     showgrid="true"
     units="in"
     inkscape:window-width="1179"
     inkscape:window-height="979"
     inkscape:window-x="711"
     inkscape:window-y="26"
     inkscape:window-maximized="0"
     showguides="true"
     fit-margin-top="0.1"
     fit-margin-left="0.1"
     fit-margin-right="0.1"
     fit-margin-bottom="0.1">
    <inkscape:grid
       spacingy="9"
       spacingx="9"
       units="in"
       snapvisiblegridlinesonly="true"
       enabled="true"
       visible="true"
       empspacing="5"
       id="grid2985"
       type="xygrid"
       originx="0"
       originy="0" />
    <sodipodi:guide
       id="guide3042"
       orientation="0,765"
       position="-177.60223,-584.625"
       inkscape:locked="false" />
    <sodipodi:guide
       id="guide3044"
       orientation="-990,0"
       position="587.39777,-584.625"
       inkscape:locked="false" />
    <sodipodi:guide
       id="guide3046"
       orientation="0,-765"
       position="587.39777,405.375"
       inkscape:locked="false" />
    <sodipodi:guide
       id="guide3048"
       orientation="990,0"
       position="-177.60223,405.375"
       inkscape:locked="false" />
    <sodipodi:guide
       id="guide3050"
       orientation="0,765"
       position="542.39777,-539.625"
       inkscape:locked="false" />
    <sodipodi:guide
       id="guide3052"
       orientation="-990,0"
       position="542.39777,315.375"
       inkscape:locked="false" />
    <sodipodi:guide
       id="guide3054"
       orientation="0,-765"
       position="-114.60223,315.375"
       inkscape:locked="false" />
    <sodipodi:guide
       id="guide3056"
       orientation="990,0"
       position="-87.602234,342.375"
       inkscape:locked="false" />
  </sodipodi:namedview>
  <script
     id="script3033"
     xlink:href="" />
  <defs
     id="defs4">
    <marker
       style="overflow:visible"
       id="Arrow2Mstart"
       refX="0"
       refY="0"
       orient="auto"
       inkscape:stockid="Arrow2Mstart">
      <path
         inkscape:connector-curvature="0"
         transform="scale(0.6,0.6)"
         d="M 8.7185878,4.0337352 -2.2072895,0.01601326 8.7185884,-4.0017078 c -1.7454984,2.3720609 -1.7354408,5.6174519 -6e-7,8.035443 z"
         style="font-size:12px;fill-rule:evenodd;stroke-width:0.625;stroke-linejoin:round"
         id="path3941" />
    </marker>
    <marker
       style="overflow:visible"
       id="Arrow1Mstart"
       refX="0"
       refY="0"
       orient="auto"
       inkscape:stockid="Arrow1Mstart">
      <path
         inkscape:connector-curvature="0"
         transform="matrix(0.4,0,0,0.4,4,0)"
         style="fill-rule:evenodd;stroke:#000000;stroke-width:1pt;marker-start:none"
         d="M 0,0 5,-5 -12.5,0 5,5 0,0 z"
         id="path3923" />
    </marker>
    <marker
       inkscape:stockid="DimensionTick"
       orient="auto"
       refY="0"
       refX="0"
       id="DimensionTick"
       style="overflow:visible">
      <path
         inkscape:connector-curvature="0"
         d="M 0,0 8,8"
         style="stroke:#000000;stroke-width:1pt;marker-start:none"
         transform="translate(-4,-4)"
         id="path4296" />
    </marker>
    <marker
       style="overflow:visible"
       id="Arrow1Mend"
       refX="0"
       refY="0"
       orient="auto"
       inkscape:stockid="Arrow1Mend">
      <path
         inkscape:connector-curvature="0"
         transform="matrix(-0.4,0,0,-0.4,-4,0)"
         style="fill-rule:evenodd;stroke:#000000;stroke-width:1pt;marker-start:none"
         d="M 0,0 5,-5 -12.5,0 5,5 0,0 z"
         id="path3952" />
    </marker>
    <marker
       id="CLArrowEnd"
       markerUnits="userSpaceOnUse"
       markerWidth="10"
       markerHeight="6"
       orient="auto"
       viewBox="0 0 10 6"
       refX="7"
       refY="3">
      <path
         d="M 0,0 10,3 0,6 2,3 z"
         id="path3451"
         inkscape:connector-curvature="0" />
    </marker>
    <pattern
       id="pattern4380"
       patternTransform="translate(216,485.362)"
       height="83.375"
       width="36"
       patternUnits="userSpaceOnUse">
      <g
         transform="translate(-216,-485.362)"
         id="g4376">
        <polygon
           transform="matrix(0.1,0,0,6.75,216,566.362)"
           id="polygon3581-2"
           class="dload"
           points="360,0 0,0 0,-12 360,-12 "
           style="fill:#f0f0f0;stroke:none;visibility:visible" />
        <path
           id="path3627-7"
           d="m 234,485.362 0,78.625"
           class="cload"
           inkscape:connector-curvature="0"
           style="fill:none;stroke:#000000;stroke-width:1.58746088;marker-end:url(#CLArrowEnd);visibility:visible" />
      </g>
    </pattern>
    <marker
       id="CLArrowEnd-2"
       markerUnits="userSpaceOnUse"
       markerWidth="10"
       markerHeight="6"
       orient="auto"
       viewBox="0 0 10 6"
       refX="7"
       refY="3">
      <path
         d="M 0,0 10,3 0,6 2,3 z"
         id="path3451-5"
         inkscape:connector-curvature="0" />
    </marker>
    <marker
       refY="3"
       refX="3"
       viewBox="0 0 10 6"
       orient="auto"
       markerHeight="6"
       markerWidth="10"
       markerUnits="userSpaceOnUse"
       id="CLArrowStart">
      <path
         inkscape:connector-curvature="0"
         id="path3448"
         d="M 0,3 10,0 8,3 10,6 z" />
    </marker>
  </defs>
  <metadata
     id="metadata7">
    <rdf:RDF>
      <cc:Work
         rdf:about="">
        <dc:format>image/svg+xml</dc:format>
        <dc:type
           rdf:resource="http://purl.org/dc/dcmitype/StillImage" />
        <dc:title />
        <cc:license
           rdf:resource="http://creativecommons.org/licenses/by-nc/3.0/" />
      </cc:Work>
      <cc:License
         rdf:about="http://creativecommons.org/licenses/by-nc/3.0/">
        <cc:permits
           rdf:resource="http://creativecommons.org/ns#Reproduction" />
        <cc:permits
           rdf:resource="http://creativecommons.org/ns#Distribution" />
        <cc:requires
           rdf:resource="http://creativecommons.org/ns#Notice" />
        <cc:requires
           rdf:resource="http://creativecommons.org/ns#Attribution" />
        <cc:prohibits
           rdf:resource="http://creativecommons.org/ns#CommercialUse" />
        <cc:permits
           rdf:resource="http://creativecommons.org/ns#DerivativeWorks" />
      </cc:License>
    </rdf:RDF>
  </metadata>
  <g
     transform="translate(-177.60223,-314.73701)"
     id="layer1"
     inkscape:groupmode="layer"
     inkscape:label="Layer 1">
    <g
       ns0:preamble="/home/nholtz/work/share/config/inkscape/extensions/amspreamble.tex"
       ns0:text="\\[\n\\int{}\n\\]\n"
       word-spacing="normal"
       letter-spacing="normal"
       font-size-adjust="none"
       font-stretch="normal"
       font-weight="normal"
       font-variant="normal"
       font-style="normal"
       stroke-miterlimit="10.433"
       xml:space="preserve"
       transform="matrix(1.5,0,0,-1.5,38.50223,1393.722)"
       id="content"
       style="font-style:normal;font-variant:normal;font-weight:normal;font-stretch:normal;letter-spacing:normal;word-spacing:normal;text-anchor:start;fill:none;stroke:#000000;stroke-linecap:butt;stroke-linejoin:miter;stroke-miterlimit:10.43299961;stroke-opacity:1;stroke-dasharray:none;stroke-dashoffset:0">
<path
   id="path8961"
   d="m 154.2,688.4 0.04,0 0.03,0.01 0.03,0 0.03,0.01 0.02,0.01 0.03,0.01 0.03,0.01 0.02,0.01 0.03,0.01 0.02,0.01 0.02,0.01 0.03,0.02 0.02,0.01 0.02,0.02 0.01,0.02 0.02,0.01 0.02,0.02 0.01,0.02 0.02,0.02 0.01,0.02 0.01,0.02 0.01,0.03 0.01,0.02 0.01,0.02 0.01,0.02 0.01,0.03 0,0.02 0.01,0.02 0,0.03 0,0.02 0.01,0.03 0,0.02 c 0,0.36 -0.28,0.54 -0.53,0.54 -0.26,0 -0.53,-0.17 -0.53,-0.55 0,-0.55 0.55,-1.01 1.21,-1.01 1.65,0 2.27,2.55 3.05,5.71 0.84,3.44 1.54,6.91 2.13,10.41 0.41,2.32 0.81,4.49 1.18,5.9 0.13,0.53 0.5,1.94 0.92,1.94 0.34,0 0.61,-0.21 0.66,-0.25 -0.36,-0.03 -0.55,-0.27 -0.55,-0.54 0,-0.36 0.27,-0.53 0.52,-0.53 0.27,0 0.54,0.16 0.54,0.54 0,0.59 -0.59,1.02 -1.19,1.02 -0.83,0 -1.44,-1.19 -2.03,-3.41 -0.04,-0.12 -1.52,-5.59 -2.72,-12.71 -0.28,-1.66 -0.59,-3.48 -0.95,-5 -0.2,-0.79 -0.7,-2.84 -1.58,-2.84 -0.39,0 -0.66,0.25 -0.67,0.25 z"
   inkscape:connector-curvature="0"
   style="fill:#000000;stroke-width:0" />
</g>    <g
       id="g11039">
      <path
         style="fill:#e6e6e6;stroke:#000000;stroke-width:1;stroke-linecap:square;stroke-linejoin:miter;stroke-miterlimit:4;stroke-opacity:1;stroke-dasharray:none;stroke-dashoffset:0"
         d="m 279.60223,349.73701 27,0 0,-9 z"
         id="path9589"
         inkscape:connector-curvature="0" />
      <text
         xml:space="preserve"
         style="font-style:normal;font-variant:normal;font-weight:normal;font-stretch:normal;line-height:0%;font-family:Verdana;-inkscape-font-specification:Sans;text-align:start;letter-spacing:0px;word-spacing:0px;writing-mode:lr-tb;text-anchor:start;fill:#000000;fill-opacity:1;stroke:none"
         x="294.88937"
         y="358.17261"
         id="text9597"><tspan
           sodipodi:role="line"
           id="tspan9599"
           x="294.88937"
           y="358.17261"
           style="font-size:9px;line-height:1.25">L</tspan></text>
      <text
         xml:space="preserve"
         style="font-style:normal;font-variant:normal;font-weight:normal;font-stretch:normal;line-height:0%;font-family:Verdana;-inkscape-font-specification:Sans;text-align:start;letter-spacing:0px;word-spacing:0px;writing-mode:lr-tb;text-anchor:start;fill:#000000;fill-opacity:1;stroke:none"
         x="301.2854"
         y="338.88556"
         id="text9601"><tspan
           sodipodi:role="line"
           id="tspan9603"
           x="301.2854"
           y="338.88556"
           style="font-size:9px;line-height:1.25">+1</tspan></text>
    </g>
    <g
       id="g11069">
      <path
         style="fill:#e6e6e6;fill-opacity:1;fill-rule:nonzero;stroke:#000000;stroke-width:1;stroke-linecap:square;stroke-linejoin:miter;stroke-miterlimit:4;stroke-opacity:1;stroke-dasharray:none;stroke-dashoffset:0"
         d="m 439.60223,349.73701 0,-9 27,0 0,9 z"
         id="path9593"
         inkscape:connector-curvature="0" />
      <text
         xml:space="preserve"
         style="font-style:normal;font-variant:normal;font-weight:normal;font-stretch:normal;line-height:0%;font-family:Verdana;-inkscape-font-specification:Sans;text-align:start;letter-spacing:0px;word-spacing:0px;writing-mode:lr-tb;text-anchor:start;fill:#000000;fill-opacity:1;stroke:none"
         x="450.47351"
         y="357.67761"
         id="text9615"><tspan
           sodipodi:role="line"
           id="tspan9617"
           x="450.47351"
           y="357.67761"
           style="font-size:9px;line-height:1.25">L</tspan></text>
      <text
         xml:space="preserve"
         style="font-style:normal;font-variant:normal;font-weight:normal;font-stretch:normal;line-height:0%;font-family:Verdana;-inkscape-font-specification:Sans;text-align:start;letter-spacing:0px;word-spacing:0px;writing-mode:lr-tb;text-anchor:start;fill:#000000;fill-opacity:1;stroke:none"
         x="436.47351"
         y="338.8855"
         id="text9619"><tspan
           sodipodi:role="line"
           id="tspan9621"
           x="436.47351"
           y="338.8855"
           style="font-size:9px;line-height:1.25">+1</tspan></text>
    </g>
    <g
       style="font-style:normal;font-variant:normal;font-weight:normal;font-stretch:normal;letter-spacing:normal;word-spacing:normal;text-anchor:start;fill:none;stroke:#000000;stroke-width:1;stroke-linecap:butt;stroke-linejoin:miter;stroke-miterlimit:10.43299961;stroke-opacity:1;stroke-dasharray:none;stroke-dashoffset:0"
       ns0:preamble="/home/nholtz/work/share/config/inkscape/extensions/amspreamble.tex"
       ns0:text="\\[\n{}+ 2\\times\\frac{1}{c E I_0}\n\\]\n"
       word-spacing="normal"
       letter-spacing="normal"
       font-size-adjust="none"
       font-stretch="normal"
       font-weight="normal"
       font-variant="normal"
       font-style="normal"
       stroke-miterlimit="10.433"
       xml:space="preserve"
       transform="matrix(1.2,0,0,-1.2,170.41822,1184.819)"
       id="g9743">
<path
   id="path9745"
   d="m 159.95,700.2 h 3.04 c 0.15,0 0.36,0 0.36,0.22 0,0.22 -0.21,0.22 -0.36,0.22 h -3.04 v 3.04 c 0,0.16 0,0.36 -0.22,0.36 -0.22,0 -0.22,-0.2 -0.22,-0.36 v -3.04 h -3.05 c -0.15,0 -0.36,0 -0.36,-0.22 0,-0.22 0.21,-0.22 0.36,-0.22 h 3.05 v -3.05 c 0,-0.15 0,-0.36 0.22,-0.36 0.22,0 0.22,0.21 0.22,0.36 z"
   inkscape:connector-curvature="0"
   style="fill:#000000;stroke-width:0" />
<path
   id="path9747"
   d="m 167.79,698.53 1.15,1.13 c 1.7,1.5 2.35,2.09 2.35,3.18 0,1.24 -0.98,2.11 -2.31,2.11 -1.23,0 -2.03,-1 -2.03,-1.97 0,-0.61 0.54,-0.61 0.57,-0.61 0.19,0 0.57,0.13 0.57,0.57 0,0.29 -0.2,0.57 -0.58,0.57 -0.08,0 -0.11,0 -0.14,-0.01 0.25,0.71 0.84,1.11 1.47,1.11 0.99,0 1.46,-0.88 1.46,-1.77 0,-0.88 -0.54,-1.74 -1.14,-2.41 l -2.09,-2.33 c -0.12,-0.12 -0.12,-0.14 -0.12,-0.4 h 4.04 l 0.3,1.89 h -0.27 c -0.06,-0.33 -0.13,-0.81 -0.24,-0.97 -0.08,-0.09 -0.8,-0.09 -1.04,-0.09 z"
   inkscape:connector-curvature="0"
   style="fill:#000000;stroke-width:0" />
<path
   id="path9749"
   d="m 178.52,700.72 -2.18,2.17 c -0.13,0.13 -0.15,0.15 -0.24,0.15 -0.11,0 -0.22,-0.1 -0.22,-0.22 0,-0.07 0.02,-0.09 0.14,-0.21 l 2.18,-2.19 -2.18,-2.19 c -0.12,-0.12 -0.14,-0.14 -0.14,-0.22 0,-0.12 0.11,-0.22 0.22,-0.22 0.09,0 0.11,0.03 0.24,0.16 l 2.17,2.16 2.25,-2.25 c 0.02,-0.01 0.1,-0.07 0.17,-0.07 0.13,0 0.21,0.1 0.21,0.22 0,0.02 0,0.07 -0.03,0.12 -0.01,0.02 -1.74,1.73 -2.29,2.29 l 2,1.99 c 0.05,0.07 0.21,0.21 0.27,0.27 0.01,0.03 0.05,0.07 0.05,0.14 0,0.12 -0.08,0.22 -0.21,0.22 -0.09,0 -0.14,-0.04 -0.25,-0.16 z"
   inkscape:connector-curvature="0"
   style="fill:#000000;stroke-width:0" />
<path
   id="path9751"
   d="m 198.33,712.04 0,0.02 0,0.01 0,0.01 0,0.01 0,0.01 0,0.01 0,0.01 0,0.01 0,0.01 0,0.01 0,0.01 0,0.01 -0.01,0.01 0,0 0,0.01 0,0.01 0,0.01 0,0 0,0.02 0,0.01 -0.01,0.01 0,0.01 0,0.01 -0.01,0.01 0,0 -0.01,0.01 -0.01,0.01 -0.01,0 0,0.01 -0.01,0 -0.01,0 0,0 -0.01,0.01 -0.01,0 0,0 -0.01,0 -0.01,0 0,0 -0.01,0 -0.01,0 0,0 -0.01,0.01 -0.01,0 -0.01,0 -0.01,0 -0.01,0 -0.01,0 -0.01,0 -0.01,0 -0.01,0 -0.01,0 -0.01,0 c -0.68,-0.7 -1.64,-0.7 -1.98,-0.7 v -0.34 c 0.21,0 0.86,0 1.42,0.29 v -5.64 c 0,-0.4 -0.03,-0.53 -1.01,-0.53 h -0.35 v -0.33 c 0.38,0.03 1.33,0.03 1.76,0.03 0.44,0 1.39,0 1.77,-0.03 v 0.33 h -0.35 c -0.98,0 -1.01,0.12 -1.01,0.53 z"
   inkscape:connector-curvature="0"
   style="fill:#000000;stroke-width:0" />
<line
   id="line9753"
   y2="700.41998"
   x2="209.32001"
   y1="700.41998"
   x1="186.39"
   style="stroke-width:0.43599999" />
<path
   id="path9755"
   d="m 190.7,694.35 -0.03,0 -0.03,0 -0.04,0 -0.03,0 -0.03,0 -0.03,-0.01 -0.01,0 -0.02,0 -0.01,0 -0.02,-0.01 -0.01,0 -0.02,-0.01 -0.01,0 -0.02,-0.01 -0.01,0 -0.02,-0.01 -0.01,-0.01 -0.01,0 -0.02,-0.01 -0.01,-0.01 -0.02,-0.01 -0.01,-0.01 -0.02,-0.01 -0.01,-0.02 -0.01,-0.01 -0.02,-0.01 c -0.17,-0.17 -0.2,-0.35 -0.2,-0.43 0,-0.26 0.2,-0.38 0.41,-0.38 0.31,0 0.61,0.26 0.61,0.7 0,0.53 -0.51,0.94 -1.29,0.94 -1.47,0 -2.91,-1.56 -2.91,-3.1 0,-0.98 0.63,-1.84 1.76,-1.84 1.55,0 2.47,1.16 2.47,1.29 0,0.06 -0.06,0.14 -0.13,0.14 -0.06,0 -0.08,-0.02 -0.14,-0.11 -0.86,-1.08 -2.05,-1.08 -2.18,-1.08 -0.69,0 -0.98,0.54 -0.98,1.19 0,0.45 0.22,1.5 0.59,2.18 0.34,0.62 0.93,1.09 1.53,1.09 0.37,0 0.79,-0.14 0.94,-0.44 z"
   inkscape:connector-curvature="0"
   style="fill:#000000;stroke-width:0" />
<path
   id="path9757"
   d="m 198.82,692.75 0,0.01 0,0 0.01,0.01 0,0.01 0.01,0.01 0,0.02 0.01,0.01 0,0.01 0,0.01 0.01,0 0,0.01 0,0 0,0.01 0,0 0,0.01 0.01,0 0,0.01 0,0 0,0 0,0.01 0,0 0,0 0,0.01 0,0 0,0 c 0,0.01 0,0.12 -0.13,0.12 -0.1,0 -0.12,-0.06 -0.14,-0.13 -0.71,-1.61 -1.11,-2.34 -2.97,-2.34 h -1.59 c -0.15,0 -0.18,0 -0.24,0.01 -0.11,0.01 -0.14,0.02 -0.14,0.11 0,0.03 0,0.05 0.05,0.25 l 0.74,2.97 h 1.08 c 0.93,0 0.93,-0.23 0.93,-0.5 0,-0.07 0,-0.2 -0.08,-0.53 -0.02,-0.06 -0.03,-0.09 -0.03,-0.12 0,-0.06 0.04,-0.12 0.14,-0.12 0.09,0 0.12,0.05 0.16,0.22 l 0.62,2.55 c 0,0.06 -0.05,0.12 -0.13,0.12 -0.1,0 -0.12,-0.07 -0.15,-0.2 -0.23,-0.83 -0.42,-1.08 -1.43,-1.08 h -1.02 l 0.65,2.62 c 0.1,0.39 0.11,0.43 0.59,0.43 h 1.54 c 1.32,0 1.65,-0.32 1.65,-1.21 0,-0.26 0,-0.28 -0.04,-0.58 0,-0.06 -0.01,-0.14 -0.01,-0.19 0,-0.06 0.03,-0.13 0.13,-0.13 0.12,0 0.13,0.06 0.15,0.27 l 0.22,1.88 c 0.03,0.3 -0.02,0.3 -0.3,0.3 h -5.5 c -0.21,0 -0.32,0 -0.32,-0.22 0,-0.12 0.1,-0.12 0.3,-0.12 0.41,0 0.71,0 0.71,-0.2 0,-0.04 0,-0.06 -0.05,-0.26 l -1.44,-5.76 c -0.11,-0.42 -0.13,-0.51 -0.99,-0.51 -0.19,0 -0.31,0 -0.31,-0.21 0,-0.13 0.1,-0.13 0.31,-0.13 h 5.65 c 0.25,0 0.26,0.01 0.34,0.19 z"
   inkscape:connector-curvature="0"
   style="fill:#000000;stroke-width:0" />
<path
   id="path9759"
   d="m 203.87,696.81 0.01,0.04 0.01,0.03 0,0.03 0.01,0.04 0.01,0.02 0.01,0.03 0.01,0.03 0.01,0.02 0.01,0.03 0.02,0.02 0.01,0.02 0.02,0.02 0.01,0.02 0.02,0.02 0.02,0.01 0.03,0.02 0.02,0.01 0.03,0.01 0.03,0.02 0.03,0.01 0.04,0.01 0.02,0 0.02,0 0.02,0.01 0.02,0 0.02,0.01 0.02,0 0.03,0 0.02,0 0.03,0.01 0.03,0 0.02,0 0.03,0 0.03,0.01 0.03,0 0.03,0 0.04,0 0.03,0 0.04,0 0.03,0 0.04,0 0.04,0 0.04,0 c 0.26,0 0.35,0 0.35,0.21 0,0.13 -0.12,0.13 -0.17,0.13 -0.31,0 -1.12,-0.03 -1.43,-0.03 -0.33,0 -1.12,0.03 -1.45,0.03 -0.08,0 -0.22,0 -0.22,-0.22 0,-0.12 0.1,-0.12 0.3,-0.12 0.46,0 0.76,0 0.76,-0.2 0,-0.06 0,-0.08 -0.02,-0.18 l -1.47,-5.87 c -0.1,-0.4 -0.14,-0.51 -1,-0.51 -0.25,0 -0.35,0 -0.35,-0.22 0,-0.12 0.14,-0.12 0.17,-0.12 0.32,0 1.11,0.04 1.43,0.04 0.32,0 1.13,-0.04 1.45,-0.04 0.09,0 0.22,0 0.22,0.21 0,0.13 -0.08,0.13 -0.33,0.13 -0.19,0 -0.25,0 -0.46,0.02 -0.23,0.02 -0.27,0.07 -0.27,0.19 0,0.08 0.02,0.17 0.04,0.25 z"
   inkscape:connector-curvature="0"
   style="fill:#000000;stroke-width:0" />
<path
   id="path9761"
   d="m 208.48,691.11 0,0.08 0,0.08 0,0.07 -0.01,0.08 0,0.07 0,0.07 -0.01,0.07 0,0.06 0,0.07 -0.01,0.06 -0.01,0.06 0,0.06 -0.02,0.12 -0.02,0.12 -0.02,0.11 -0.03,0.1 -0.02,0.11 -0.04,0.1 -0.03,0.1 -0.04,0.1 -0.04,0.09 -0.05,0.1 c -0.35,0.7 -1,0.87 -1.43,0.87 v -0.22 c 0.27,0 0.81,-0.14 0.97,-0.86 0.1,-0.44 0.1,-1.03 0.1,-1.57 0,-0.47 0,-1.19 -0.1,-1.63 -0.16,-0.84 -0.71,-0.95 -0.97,-0.95 h 0 c -0.27,0 -0.82,0.13 -0.99,0.96 -0.09,0.46 -0.09,1.2 -0.09,1.62 0,0.55 0,1.1 0.09,1.54 0.17,0.81 0.79,0.89 0.99,0.89 v 0.22 c -1.01,0 -1.37,-0.75 -1.49,-0.97 -0.28,-0.58 -0.3,-1.36 -0.3,-1.78 0,-0.52 0.03,-1.33 0.41,-1.96 0.36,-0.59 0.95,-0.74 1.38,-0.74 0.38,0 1.06,0.12 1.46,0.91 0.29,0.57 0.32,1.27 0.32,1.79 z"
   inkscape:connector-curvature="0"
   style="fill:#000000;stroke-width:0" />
</g>    <g
       style="font-style:normal;font-variant:normal;font-weight:normal;font-stretch:normal;letter-spacing:normal;word-spacing:normal;text-anchor:start;fill:none;stroke:#000000;stroke-linecap:butt;stroke-linejoin:miter;stroke-miterlimit:10.43299961;stroke-opacity:1;stroke-dasharray:none;stroke-dashoffset:0"
       id="g9842"
       transform="matrix(1.5,0,0,-1.5,192.50223,1393.722)"
       xml:space="preserve"
       stroke-miterlimit="10.433"
       font-style="normal"
       font-variant="normal"
       font-weight="normal"
       font-stretch="normal"
       font-size-adjust="none"
       letter-spacing="normal"
       word-spacing="normal"
       ns0:text="\\[\n\\int{}\n\\]\n"
       ns0:preamble="/home/nholtz/work/share/config/inkscape/extensions/amspreamble.tex">
<path
   style="fill:#000000;stroke-width:0"
   inkscape:connector-curvature="0"
   d="m 154.2,688.4 0.04,0 0.03,0.01 0.03,0 0.03,0.01 0.02,0.01 0.03,0.01 0.03,0.01 0.02,0.01 0.03,0.01 0.02,0.01 0.02,0.01 0.03,0.02 0.02,0.01 0.02,0.02 0.01,0.02 0.02,0.01 0.02,0.02 0.01,0.02 0.02,0.02 0.01,0.02 0.01,0.02 0.01,0.03 0.01,0.02 0.01,0.02 0.01,0.02 0.01,0.03 0,0.02 0.01,0.02 0,0.03 0,0.02 0.01,0.03 0,0.02 c 0,0.36 -0.28,0.54 -0.53,0.54 -0.26,0 -0.53,-0.17 -0.53,-0.55 0,-0.55 0.55,-1.01 1.21,-1.01 1.65,0 2.27,2.55 3.05,5.71 0.84,3.44 1.54,6.91 2.13,10.41 0.41,2.32 0.81,4.49 1.18,5.9 0.13,0.53 0.5,1.94 0.92,1.94 0.34,0 0.61,-0.21 0.66,-0.25 -0.36,-0.03 -0.55,-0.27 -0.55,-0.54 0,-0.36 0.27,-0.53 0.52,-0.53 0.27,0 0.54,0.16 0.54,0.54 0,0.59 -0.59,1.02 -1.19,1.02 -0.83,0 -1.44,-1.19 -2.03,-3.41 -0.04,-0.12 -1.52,-5.59 -2.72,-12.71 -0.28,-1.66 -0.59,-3.48 -0.95,-5 -0.2,-0.79 -0.7,-2.84 -1.58,-2.84 -0.39,0 -0.66,0.25 -0.67,0.25 z"
   id="path9844" />
</g>    <g
       style="font-style:normal;font-variant:normal;font-weight:normal;font-stretch:normal;letter-spacing:normal;word-spacing:normal;text-anchor:start;fill:none;stroke:#000000;stroke-width:1;stroke-linecap:butt;stroke-linejoin:miter;stroke-miterlimit:10.43299961;stroke-opacity:1;stroke-dasharray:none;stroke-dashoffset:0"
       ns0:preamble="/home/nholtz/work/share/config/inkscape/extensions/amspreamble.tex"
       ns0:text="\\[\nf_{11} = 2\\times\\frac{1}{E I_0}\n\\]\n"
       text-anchor="start"
       word-spacing="normal"
       letter-spacing="normal"
       font-size-adjust="none"
       font-stretch="normal"
       font-weight="normal"
       font-variant="normal"
       font-style="normal"
       fill-opacity="1"
       fill-rule="evenodd"
       fill="none"
       stroke-opacity="1"
       stroke-dashoffset="0"
       stroke-dasharray="none"
       stroke-miterlimit="10.433"
       stroke-linejoin="miter"
       stroke-linecap="butt"
       stroke="black"
       xml:space="preserve"
       transform="matrix(1.2,0,0,-1.2,2.270229,1184.829)"
       id="g10920">
<path
   id="path10922"
   fill="black"
   stroke-width="0"
   d="M157.07,702.05 H158 C158.22,702.05,158.33,702.05,158.33,702.27 C158.33,702.39,158.22,702.39,158.04,702.39 H157.13 L157.36,703.63 C157.4,703.86,157.56,704.63,157.62,704.76 C157.72,704.97,157.9,705.13,158.13,705.13 C158.18,705.13,158.46,705.13,158.67,704.94 C158.19,704.89,158.08,704.51,158.08,704.35 C158.08,704.1,158.28,703.97,158.48,703.97 C158.77,703.97,159.08,704.21,159.08,704.62 C159.08,705.12,158.58,705.37,158.13,705.37 C157.76,705.37,157.08,705.18,156.75,704.1 C156.69,703.87,156.65,703.76,156.39,702.39 H155.64 C155.43,702.39,155.31,702.39,155.31,702.18 C155.31,702.05,155.41,702.05,155.62,702.05 H156.34 L155.52,697.75 C155.32,696.69,155.14,695.7,154.57,695.7 C154.53,695.7,154.26,695.7,154.05,695.9 C154.55,695.93,154.65,696.32,154.65,696.49 C154.65,696.74,154.45,696.87,154.25,696.87 C153.96,696.87,153.65,696.63,153.65,696.22 C153.65,695.72,154.13,695.46,154.57,695.46 C155.17,695.46,155.61,696.11,155.8,696.52 C156.15,697.21,156.4,698.52,156.41,698.6 Z " />
<path
   id="path10924"
   fill="black"
   stroke-width="0"
   d="M160.91,701.12 L160.91,701.13 L160.91,701.14 L160.91,701.15 L160.91,701.16 L160.91,701.17 L160.91,701.18 L160.91,701.19 L160.91,701.19 L160.91,701.2 L160.91,701.21 L160.91,701.22 L160.91,701.22 L160.91,701.23 L160.91,701.24 L160.91,701.24 L160.91,701.25 L160.9,701.25 L160.9,701.26 L160.9,701.26 L160.9,701.27 L160.9,701.28 L160.89,701.29 L160.89,701.29 L160.89,701.3 L160.88,701.31 L160.88,701.31 L160.87,701.32 L160.86,701.32 L160.86,701.33 L160.85,701.33 L160.84,701.33 L160.83,701.34 L160.82,701.34 L160.81,701.34 L160.8,701.34 L160.79,701.34 L160.79,701.34 L160.78,701.34 L160.77,701.34 L160.77,701.34 L160.76,701.34 L160.75,701.34 L160.74,701.34 L160.74,701.34 L160.73,701.34 L160.72,701.34 L160.71,701.34 L160.7,701.34 L160.69,701.34 L160.68,701.34 C160.35,701.03,159.93,700.84,159.18,700.84 V700.57 C159.39,700.57,159.82,700.57,160.28,700.79 V696.71 C160.28,696.42,160.26,696.32,159.5,696.32 H159.22 V696.06 C159.55,696.08,160.24,696.08,160.59,696.08 C160.95,696.08,161.64,696.08,161.97,696.06 V696.32 H161.69 C160.93,696.32,160.91,696.42,160.91,696.71 Z " />
<path
   id="path10926"
   fill="black"
   stroke-width="0"
   d="M165.15,701.12 L165.15,701.13 L165.15,701.14 L165.15,701.15 L165.15,701.16 L165.15,701.17 L165.15,701.18 L165.15,701.19 L165.14,701.19 L165.14,701.2 L165.14,701.21 L165.14,701.22 L165.14,701.22 L165.14,701.23 L165.14,701.24 L165.14,701.24 L165.14,701.25 L165.14,701.25 L165.14,701.26 L165.14,701.26 L165.14,701.27 L165.13,701.28 L165.13,701.29 L165.13,701.29 L165.12,701.3 L165.12,701.31 L165.11,701.31 L165.11,701.32 L165.1,701.32 L165.09,701.33 L165.08,701.33 L165.07,701.33 L165.06,701.34 L165.05,701.34 L165.04,701.34 L165.04,701.34 L165.03,701.34 L165.02,701.34 L165.02,701.34 L165.01,701.34 L165,701.34 L164.99,701.34 L164.99,701.34 L164.98,701.34 L164.97,701.34 L164.96,701.34 L164.95,701.34 L164.94,701.34 L164.93,701.34 L164.92,701.34 L164.91,701.34 C164.59,701.03,164.17,700.84,163.41,700.84 V700.57 C163.63,700.57,164.05,700.57,164.52,700.79 V696.71 C164.52,696.42,164.49,696.32,163.74,696.32 H163.46 V696.06 C163.79,696.08,164.47,696.08,164.83,696.08 C165.19,696.08,165.88,696.08,166.2,696.06 V696.32 H165.93 C165.17,696.32,165.15,696.42,165.15,696.71 Z " />
<path
   id="path10928"
   fill="black"
   stroke-width="0"
   d="M177.89,701.26 L177.92,701.26 L177.95,701.26 L177.98,701.26 L178,701.26 L178.02,701.26 L178.03,701.26 L178.05,701.26 L178.06,701.26 L178.08,701.27 L178.09,701.27 L178.11,701.27 L178.12,701.28 L178.14,701.28 L178.15,701.29 L178.16,701.29 L178.17,701.3 L178.19,701.31 L178.2,701.32 L178.21,701.33 L178.22,701.34 L178.23,701.35 L178.23,701.35 L178.23,701.36 L178.24,701.37 L178.24,701.37 L178.24,701.38 L178.25,701.39 L178.25,701.39 L178.25,701.4 L178.25,701.41 L178.25,701.42 L178.26,701.43 L178.26,701.44 L178.26,701.44 L178.26,701.45 L178.26,701.46 L178.26,701.47 C178.26,701.69,178.05,701.69,177.9,701.69 H171.38 C171.23,701.69,171.02,701.69,171.02,701.47 C171.02,701.26,171.23,701.26,171.39,701.26 Z " />
<path
   id="path10930"
   fill="black"
   stroke-width="0"
   d="M177.9,699.14 L177.91,699.14 L177.93,699.14 L177.96,699.14 L177.99,699.15 L178.01,699.15 L178.02,699.15 L178.04,699.15 L178.05,699.15 L178.07,699.15 L178.08,699.16 L178.1,699.16 L178.11,699.16 L178.12,699.17 L178.14,699.17 L178.15,699.18 L178.16,699.18 L178.18,699.19 L178.19,699.2 L178.2,699.21 L178.21,699.21 L178.22,699.22 L178.22,699.23 L178.23,699.24 L178.23,699.24 L178.23,699.25 L178.24,699.25 L178.24,699.26 L178.24,699.27 L178.25,699.27 L178.25,699.28 L178.25,699.29 L178.25,699.3 L178.25,699.31 L178.26,699.31 L178.26,699.32 L178.26,699.33 L178.26,699.34 L178.26,699.35 L178.26,699.36 C178.26,699.58,178.05,699.58,177.89,699.58 H171.39 C171.23,699.58,171.02,699.58,171.02,699.36 C171.02,699.14,171.23,699.14,171.38,699.14 Z " />
<path
   id="path10932"
   fill="black"
   stroke-width="0"
   d="M183.31,698.53 L184.46,699.66 C186.16,701.16,186.82,701.75,186.82,702.84 C186.82,704.08,185.84,704.95,184.51,704.95 C183.28,704.95,182.47,703.95,182.47,702.98 C182.47,702.37,183.02,702.37,183.05,702.37 C183.23,702.37,183.62,702.5,183.62,702.94 C183.62,703.23,183.42,703.51,183.04,703.51 C182.95,703.51,182.93,703.51,182.9,703.5 C183.15,704.21,183.73,704.61,184.37,704.61 C185.36,704.61,185.82,703.73,185.82,702.84 C185.82,701.96,185.28,701.1,184.68,700.43 L182.59,698.1 C182.47,697.98,182.47,697.96,182.47,697.7 H186.51 L186.82,699.59 H186.54 C186.49,699.26,186.41,698.78,186.3,698.62 C186.23,698.53,185.51,698.53,185.27,698.53 Z " />
<path
   id="path10934"
   fill="black"
   stroke-width="0"
   d="M194.04,700.72 L191.86,702.89 C191.73,703.02,191.71,703.04,191.62,703.04 C191.51,703.04,191.4,702.94,191.4,702.82 C191.4,702.75,191.43,702.73,191.54,702.61 L193.72,700.42 L191.54,698.23 C191.43,698.11,191.4,698.09,191.4,698.01 C191.4,697.89,191.51,697.79,191.62,697.79 C191.71,697.79,191.73,697.82,191.86,697.95 L194.03,700.11 L196.28,697.86 C196.3,697.85,196.38,697.79,196.45,697.79 C196.58,697.79,196.66,697.89,196.66,698.01 C196.66,698.03,196.66,698.08,196.63,698.13 C196.62,698.15,194.89,699.86,194.34,700.42 L196.34,702.41 C196.39,702.48,196.55,702.62,196.61,702.68 C196.62,702.71,196.66,702.75,196.66,702.82 C196.66,702.94,196.58,703.04,196.45,703.04 C196.36,703.04,196.31,703,196.2,702.88 Z " />
<path
   id="path10936"
   fill="black"
   stroke-width="0"
   d="M211.49,712.04 L211.49,712.06 L211.49,712.07 L211.49,712.08 L211.49,712.09 L211.49,712.1 L211.49,712.11 L211.49,712.12 L211.49,712.13 L211.49,712.14 L211.49,712.15 L211.48,712.16 L211.48,712.17 L211.48,712.18 L211.48,712.18 L211.48,712.19 L211.48,712.2 L211.48,712.21 L211.48,712.21 L211.48,712.23 L211.48,712.24 L211.47,712.25 L211.47,712.26 L211.47,712.27 L211.46,712.28 L211.45,712.28 L211.45,712.29 L211.44,712.3 L211.43,712.3 L211.42,712.31 L211.42,712.31 L211.41,712.31 L211.4,712.31 L211.4,712.32 L211.39,712.32 L211.39,712.32 L211.38,712.32 L211.37,712.32 L211.37,712.32 L211.36,712.32 L211.35,712.32 L211.34,712.32 L211.34,712.33 L211.33,712.33 L211.32,712.33 L211.31,712.33 L211.3,712.33 L211.29,712.33 L211.28,712.33 L211.27,712.33 L211.26,712.33 L211.25,712.33 L211.24,712.33 C210.56,711.63,209.6,711.63,209.25,711.63 V711.29 C209.47,711.29,210.11,711.29,210.68,711.58 V705.94 C210.68,705.54,210.65,705.41,209.67,705.41 H209.32 V705.08 C209.7,705.11,210.65,705.11,211.08,705.11 C211.52,705.11,212.47,705.11,212.85,705.08 V705.41 H212.5 C211.52,705.41,211.49,705.53,211.49,705.94 Z " />
<line
   id="line10938"
   stroke-width="0.436"
   y2="700.42"
   x2="220.12"
   y1="700.42"
   x1="201.91" />
<path
   id="path10940"
   fill="black"
   stroke-width="0"
   d="M209.62,692.75 L209.62,692.76 L209.62,692.76 L209.62,692.77 L209.63,692.78 L209.63,692.79 L209.64,692.81 L209.64,692.82 L209.65,692.83 L209.65,692.84 L209.65,692.84 L209.66,692.85 L209.66,692.85 L209.66,692.86 L209.66,692.86 L209.66,692.87 L209.66,692.87 L209.67,692.88 L209.67,692.88 L209.67,692.88 L209.67,692.89 L209.67,692.89 L209.67,692.89 L209.67,692.9 L209.67,692.9 L209.67,692.9 C209.67,692.91,209.67,693.02,209.54,693.02 C209.44,693.02,209.42,692.96,209.4,692.89 C208.69,691.28,208.29,690.55,206.43,690.55 H204.84 C204.68,690.55,204.66,690.55,204.6,690.56 C204.49,690.57,204.46,690.58,204.46,690.67 C204.46,690.7,204.46,690.72,204.51,690.92 L205.25,693.89 H206.33 C207.25,693.89,207.25,693.66,207.25,693.39 C207.25,693.32,207.25,693.19,207.18,692.86 C207.15,692.8,207.14,692.77,207.14,692.74 C207.14,692.68,207.19,692.62,207.29,692.62 C207.37,692.62,207.41,692.67,207.45,692.84 L208.07,695.39 C208.07,695.45,208.02,695.51,207.94,695.51 C207.84,695.51,207.82,695.44,207.79,695.31 C207.56,694.48,207.36,694.23,206.36,694.23 H205.34 L205.99,696.85 C206.09,697.24,206.1,697.28,206.58,697.28 H208.11 C209.44,697.28,209.77,696.96,209.77,696.07 C209.77,695.81,209.77,695.79,209.73,695.49 C209.73,695.43,209.71,695.35,209.71,695.3 C209.71,695.24,209.75,695.17,209.85,695.17 C209.96,695.17,209.98,695.23,210,695.44 L210.21,697.32 C210.25,697.62,210.19,697.62,209.92,697.62 H204.42 C204.2,697.62,204.1,697.62,204.1,697.4 C204.1,697.28,204.19,697.28,204.4,697.28 C204.8,697.28,205.11,697.28,205.11,697.08 C205.11,697.04,205.11,697.02,205.05,696.82 L203.62,691.06 C203.51,690.64,203.49,690.55,202.63,690.55 C202.44,690.55,202.32,690.55,202.32,690.34 C202.32,690.21,202.42,690.21,202.63,690.21 H208.28 C208.53,690.21,208.54,690.22,208.61,690.4 Z " />
<path
   id="path10942"
   fill="black"
   stroke-width="0"
   d="M214.66,696.81 L214.67,696.85 L214.68,696.88 L214.69,696.91 L214.7,696.95 L214.71,696.97 L214.72,697 L214.73,697.03 L214.74,697.05 L214.75,697.08 L214.77,697.1 L214.78,697.12 L214.79,697.14 L214.81,697.16 L214.83,697.18 L214.85,697.19 L214.87,697.21 L214.9,697.22 L214.93,697.23 L214.96,697.25 L214.99,697.26 L215.03,697.27 L215.05,697.27 L215.06,697.27 L215.09,697.28 L215.11,697.28 L215.13,697.29 L215.15,697.29 L215.18,697.29 L215.2,697.29 L215.23,697.3 L215.25,697.3 L215.28,697.3 L215.31,697.3 L215.34,697.31 L215.37,697.31 L215.4,697.31 L215.44,697.31 L215.47,697.31 L215.5,697.31 L215.54,697.31 L215.58,697.31 L215.62,697.31 L215.66,697.31 C215.92,697.31,216,697.31,216,697.52 C216,697.65,215.88,697.65,215.84,697.65 C215.52,697.65,214.72,697.62,214.4,697.62 C214.08,697.62,213.28,697.65,212.96,697.65 C212.88,697.65,212.74,697.65,212.74,697.43 C212.74,697.31,212.84,697.31,213.04,697.31 C213.5,697.31,213.79,697.31,213.79,697.11 C213.79,697.05,213.79,697.03,213.77,696.93 L212.3,691.06 C212.2,690.66,212.17,690.55,211.31,690.55 C211.06,690.55,210.96,690.55,210.96,690.33 C210.96,690.21,211.09,690.21,211.13,690.21 C211.44,690.21,212.24,690.25,212.55,690.25 C212.88,690.25,213.68,690.21,214.01,690.21 C214.1,690.21,214.23,690.21,214.23,690.42 C214.23,690.55,214.14,690.55,213.9,690.55 C213.71,690.55,213.65,690.55,213.43,690.57 C213.21,690.59,213.16,690.64,213.16,690.76 C213.16,690.84,213.18,690.93,213.21,691.01 Z " />
<path
   id="path10944"
   fill="black"
   stroke-width="0"
   d="M219.28,691.11 L219.28,691.19 L219.27,691.27 L219.27,691.34 L219.27,691.42 L219.27,691.49 L219.27,691.56 L219.26,691.63 L219.26,691.69 L219.25,691.76 L219.25,691.82 L219.24,691.88 L219.23,691.94 L219.22,692.06 L219.2,692.18 L219.18,692.29 L219.15,692.39 L219.12,692.5 L219.09,692.6 L219.06,692.7 L219.02,692.8 L218.97,692.89 L218.93,692.99 C218.58,693.69,217.93,693.86,217.49,693.86 V693.64 C217.76,693.64,218.31,693.5,218.47,692.78 C218.57,692.34,218.57,691.75,218.57,691.21 C218.57,690.74,218.57,690.02,218.47,689.58 C218.3,688.74,217.76,688.63,217.49,688.63 H217.49 C217.22,688.63,216.67,688.76,216.51,689.59 C216.42,690.05,216.42,690.79,216.42,691.21 C216.42,691.76,216.42,692.31,216.51,692.75 C216.67,693.56,217.29,693.64,217.49,693.64 V693.86 C216.49,693.86,216.12,693.11,216.01,692.89 C215.73,692.31,215.71,691.53,215.71,691.11 C215.71,690.59,215.73,689.78,216.12,689.15 C216.48,688.56,217.07,688.41,217.49,688.41 C217.88,688.41,218.56,688.53,218.96,689.32 C219.25,689.89,219.28,690.59,219.28,691.11 Z " />
</g>    <g
       id="g11046"
       transform="translate(34,0)">
      <path
         inkscape:connector-curvature="0"
         id="path11048"
         d="m 279.60223,349.73701 27,0 0,-9 z"
         style="fill:#e6e6e6;stroke:#000000;stroke-width:1;stroke-linecap:square;stroke-linejoin:miter;stroke-miterlimit:4;stroke-opacity:1;stroke-dasharray:none;stroke-dashoffset:0" />
      <text
         id="text11050"
         y="358.17261"
         x="294.88937"
         style="font-style:normal;font-variant:normal;font-weight:normal;font-stretch:normal;line-height:0%;font-family:Verdana;-inkscape-font-specification:Sans;text-align:start;letter-spacing:0px;word-spacing:0px;writing-mode:lr-tb;text-anchor:start;fill:#000000;fill-opacity:1;stroke:none"
         xml:space="preserve"><tspan
           y="358.17261"
           x="294.88937"
           id="tspan11052"
           sodipodi:role="line"
           style="font-size:9px;line-height:1.25">L</tspan></text>
      <text
         id="text11054"
         y="338.88556"
         x="301.2854"
         style="font-style:normal;font-variant:normal;font-weight:normal;font-stretch:normal;line-height:0%;font-family:Verdana;-inkscape-font-specification:Sans;text-align:start;letter-spacing:0px;word-spacing:0px;writing-mode:lr-tb;text-anchor:start;fill:#000000;fill-opacity:1;stroke:none"
         xml:space="preserve"><tspan
           y="338.88556"
           x="301.2854"
           id="tspan11056"
           sodipodi:role="line"
           style="font-size:9px;line-height:1.25">+1</tspan></text>
    </g>
    <g
       id="g11076"
       transform="translate(34,0)">
      <path
         inkscape:connector-curvature="0"
         id="path11078"
         d="m 439.60223,349.73701 0,-9 27,0 0,9 z"
         style="fill:#e6e6e6;fill-opacity:1;fill-rule:nonzero;stroke:#000000;stroke-width:1;stroke-linecap:square;stroke-linejoin:miter;stroke-miterlimit:4;stroke-opacity:1;stroke-dasharray:none;stroke-dashoffset:0" />
      <text
         id="text11080"
         y="357.67761"
         x="450.47351"
         style="font-style:normal;font-variant:normal;font-weight:normal;font-stretch:normal;line-height:0%;font-family:Verdana;-inkscape-font-specification:Sans;text-align:start;letter-spacing:0px;word-spacing:0px;writing-mode:lr-tb;text-anchor:start;fill:#000000;fill-opacity:1;stroke:none"
         xml:space="preserve"><tspan
           y="357.67761"
           x="450.47351"
           id="tspan11082"
           sodipodi:role="line"
           style="font-size:9px;line-height:1.25">L</tspan></text>
      <text
         id="text11084"
         y="338.8855"
         x="436.47351"
         style="font-style:normal;font-variant:normal;font-weight:normal;font-stretch:normal;line-height:0%;font-family:Verdana;-inkscape-font-specification:Sans;text-align:start;letter-spacing:0px;word-spacing:0px;writing-mode:lr-tb;text-anchor:start;fill:#000000;fill-opacity:1;stroke:none"
         xml:space="preserve"><tspan
           y="338.8855"
           x="436.47351"
           id="tspan11086"
           sodipodi:role="line"
           style="font-size:9px;line-height:1.25">+1</tspan></text>
    </g>
    <g
       id="g11217"
       transform="matrix(1.2,0,0,-1.2,2.270229,1228.829)"
       xml:space="preserve"
       stroke-miterlimit="10.433"
       font-style="normal"
       font-variant="normal"
       font-weight="normal"
       font-stretch="normal"
       font-size-adjust="none"
       letter-spacing="normal"
       word-spacing="normal"
       ns0:text="\\[\nf_{11} = \\frac{2}{E I_0}\n\\frac{L}{3}\\times1\\times1\n+\n\\frac{2}{c E I_0}\nL \\times 1 \\times 1\n\\]\n"
       ns0:preamble="/home/nholtz/work/share/config/inkscape/extensions/amspreamble.tex"
       style="font-style:normal;font-variant:normal;font-weight:normal;font-stretch:normal;letter-spacing:normal;word-spacing:normal;text-anchor:start;fill:none;stroke:#000000;stroke-width:1;stroke-linecap:butt;stroke-linejoin:miter;stroke-miterlimit:10.43299961;stroke-opacity:1;stroke-dasharray:none;stroke-dashoffset:0">
<path
   style="fill:#000000;stroke-width:0"
   inkscape:connector-curvature="0"
   d="M 157.07,701.63 H 158 c 0.22,0 0.33,0 0.33,0.21 0,0.13 -0.11,0.13 -0.29,0.13 h -0.91 l 0.23,1.24 c 0.04,0.22 0.2,1 0.26,1.13 0.1,0.21 0.28,0.37 0.51,0.37 0.05,0 0.33,0 0.54,-0.2 -0.48,-0.04 -0.59,-0.42 -0.59,-0.59 0,-0.25 0.2,-0.38 0.4,-0.38 0.29,0 0.6,0.24 0.6,0.66 0,0.5 -0.5,0.75 -0.95,0.75 -0.37,0 -1.05,-0.2 -1.38,-1.28 -0.06,-0.22 -0.1,-0.33 -0.36,-1.7 h -0.75 c -0.21,0 -0.33,0 -0.33,-0.21 0,-0.13 0.1,-0.13 0.31,-0.13 h 0.72 l -0.82,-4.3 c -0.2,-1.06 -0.38,-2.05 -0.95,-2.05 -0.04,0 -0.31,0 -0.52,0.19 0.5,0.04 0.6,0.43 0.6,0.59 0,0.25 -0.2,0.38 -0.4,0.38 -0.29,0 -0.6,-0.23 -0.6,-0.65 0,-0.49 0.48,-0.75 0.92,-0.75 0.6,0 1.04,0.64 1.23,1.06 0.35,0.68 0.6,2 0.61,2.08 z"
   id="path11219" />
<path
   style="fill:#000000;stroke-width:0"
   inkscape:connector-curvature="0"
   d="m 160.91,700.7 0,0.01 0,0.01 0,0.01 0,0.01 0,0 0,0.01 0,0.01 0,0.01 0,0.01 0,0 0,0.01 0,0.01 0,0.01 0,0 0,0.01 0,0 -0.01,0.01 0,0 0,0.01 0,0.01 0,0 -0.01,0.01 0,0.01 0,0.01 -0.01,0 0,0.01 -0.01,0.01 -0.01,0 0,0 -0.01,0.01 -0.01,0 -0.01,0 -0.01,0 -0.01,0.01 -0.01,0 -0.01,0 0,0 -0.01,0 -0.01,0 0,0 -0.01,0 -0.01,0 -0.01,0 0,0 -0.01,0 -0.01,0 -0.01,0 -0.01,0 -0.01,0 -0.01,0 c -0.33,-0.32 -0.75,-0.51 -1.5,-0.51 v -0.26 c 0.21,0 0.64,0 1.1,0.21 v -4.07 c 0,-0.3 -0.02,-0.39 -0.78,-0.39 h -0.28 v -0.26 c 0.33,0.02 1.02,0.02 1.37,0.02 0.36,0 1.05,0 1.38,-0.02 v 0.26 h -0.28 c -0.76,0 -0.78,0.09 -0.78,0.39 z"
   id="path11221" />
<path
   style="fill:#000000;stroke-width:0"
   inkscape:connector-curvature="0"
   d="m 165.15,700.7 0,0.01 0,0.01 0,0.01 0,0.01 0,0 0,0.01 0,0.01 -0.01,0.01 0,0.01 0,0 0,0.01 0,0.01 0,0.01 0,0 0,0.01 0,0 0,0.01 0,0 0,0.01 0,0.01 -0.01,0 0,0.01 0,0.01 -0.01,0.01 0,0 -0.01,0.01 0,0.01 -0.01,0 -0.01,0 -0.01,0.01 -0.01,0 -0.01,0 -0.01,0 -0.01,0.01 0,0 -0.01,0 -0.01,0 0,0 -0.01,0 -0.01,0 -0.01,0 0,0 -0.01,0 -0.01,0 -0.01,0 -0.01,0 -0.01,0 -0.01,0 -0.01,0 -0.01,0 c -0.32,-0.32 -0.74,-0.51 -1.5,-0.51 v -0.26 c 0.22,0 0.64,0 1.11,0.21 v -4.07 c 0,-0.3 -0.03,-0.39 -0.78,-0.39 h -0.28 v -0.26 c 0.33,0.02 1.01,0.02 1.37,0.02 0.36,0 1.05,0 1.37,-0.02 v 0.26 h -0.27 c -0.76,0 -0.78,0.09 -0.78,0.39 z"
   id="path11223" />
<path
   style="fill:#000000;stroke-width:0"
   inkscape:connector-curvature="0"
   d="m 177.89,700.83 0.03,0 0.03,0 0.03,0 0.02,0 0.02,0.01 0.01,0 0.02,0 0.01,0 0.02,0 0.01,0.01 0.02,0 0.01,0 0.02,0.01 0.01,0 0.01,0.01 0.01,0.01 0.02,0.01 0.01,0 0.01,0.01 0.01,0.01 0.01,0.01 0,0.01 0,0.01 0.01,0 0,0.01 0,0.01 0.01,0 0,0.01 0,0.01 0,0.01 0,0 0.01,0.01 0,0.01 0,0.01 0,0.01 0,0.01 0,0.01 c 0,0.22 -0.21,0.22 -0.36,0.22 h -6.52 c -0.15,0 -0.36,0 -0.36,-0.22 0,-0.22 0.21,-0.22 0.37,-0.22 z"
   id="path11225" />
<path
   style="fill:#000000;stroke-width:0"
   inkscape:connector-curvature="0"
   d="m 177.9,698.72 0.01,0 0.02,0 0.03,0 0.03,0 0.02,0 0.01,0 0.02,0 0.01,0.01 0.02,0 0.01,0 0.02,0 0.01,0.01 0.01,0 0.02,0.01 0.01,0 0.01,0.01 0.02,0.01 0.01,0 0.01,0.01 0.01,0.01 0.01,0.01 0,0.01 0.01,0 0,0.01 0,0 0.01,0.01 0,0.01 0,0 0.01,0.01 0,0.01 0,0.01 0,0 0,0.01 0.01,0.01 0,0.01 0,0.01 0,0.01 0,0.01 0,0.01 c 0,0.22 -0.21,0.22 -0.37,0.22 h -6.5 c -0.16,0 -0.37,0 -0.37,-0.22 0,-0.22 0.21,-0.22 0.36,-0.22 z"
   id="path11227" />
<path
   style="fill:#000000;stroke-width:0"
   inkscape:connector-curvature="0"
   d="m 190.88,705.49 1.15,1.12 c 1.7,1.5 2.36,2.09 2.36,3.18 0,1.24 -0.98,2.11 -2.31,2.11 -1.23,0 -2.04,-1 -2.04,-1.97 0,-0.61 0.55,-0.61 0.58,-0.61 0.18,0 0.56,0.13 0.56,0.58 0,0.28 -0.19,0.57 -0.57,0.57 -0.09,0 -0.11,0 -0.14,-0.01 0.25,0.7 0.83,1.11 1.47,1.11 0.99,0 1.46,-0.89 1.46,-1.78 0,-0.87 -0.55,-1.73 -1.15,-2.4 l -2.09,-2.34 c -0.12,-0.12 -0.12,-0.14 -0.12,-0.4 h 4.04 l 0.31,1.9 h -0.28 c -0.05,-0.33 -0.13,-0.81 -0.24,-0.97 -0.07,-0.09 -0.79,-0.09 -1.03,-0.09 z"
   id="path11229" />
<line
   style="stroke-width:0.43599999"
   x1="183.12"
   y1="700"
   x2="201.33"
   y2="700"
   id="line11231" />
<path
   style="fill:#000000;stroke-width:0"
   inkscape:connector-curvature="0"
   d="m 190.83,692.33 0,0 0,0.01 0.01,0.01 0,0.01 0.01,0.01 0,0.01 0.01,0.01 0,0.01 0,0.01 0.01,0.01 0,0 0,0.01 0,0 0,0.01 0,0 0.01,0.01 0,0 0,0.01 0,0 0,0 0,0.01 0,0 0,0 0,0.01 0,0 c 0,0.01 0,0.12 -0.13,0.12 -0.1,0 -0.12,-0.07 -0.14,-0.13 -0.71,-1.61 -1.11,-2.34 -2.97,-2.34 h -1.59 c -0.15,0 -0.18,0 -0.24,0.01 -0.11,0.01 -0.14,0.02 -0.14,0.11 0,0.03 0,0.05 0.05,0.25 l 0.74,2.97 h 1.08 c 0.92,0 0.92,-0.23 0.92,-0.5 0,-0.08 0,-0.21 -0.07,-0.54 -0.02,-0.05 -0.03,-0.08 -0.03,-0.11 0,-0.06 0.04,-0.12 0.14,-0.12 0.09,0 0.12,0.05 0.16,0.21 l 0.62,2.55 c 0,0.07 -0.05,0.12 -0.13,0.12 -0.1,0 -0.12,-0.06 -0.15,-0.19 -0.23,-0.83 -0.43,-1.08 -1.43,-1.08 h -1.02 l 0.65,2.62 c 0.1,0.38 0.11,0.43 0.59,0.43 h 1.54 c 1.32,0 1.65,-0.32 1.65,-1.21 0,-0.26 0,-0.29 -0.04,-0.58 0,-0.06 -0.01,-0.14 -0.01,-0.2 0,-0.05 0.03,-0.13 0.13,-0.13 0.12,0 0.13,0.07 0.15,0.28 l 0.22,1.88 c 0.03,0.29 -0.03,0.29 -0.3,0.29 h -5.5 c -0.21,0 -0.32,0 -0.32,-0.22 0,-0.11 0.1,-0.11 0.3,-0.11 0.4,0 0.71,0 0.71,-0.2 0,-0.04 0,-0.07 -0.05,-0.26 l -1.44,-5.76 c -0.11,-0.43 -0.13,-0.51 -0.99,-0.51 -0.19,0 -0.31,0 -0.31,-0.21 0,-0.13 0.1,-0.13 0.31,-0.13 h 5.65 c 0.25,0 0.26,0.01 0.34,0.18 z"
   id="path11233" />
<path
   style="fill:#000000;stroke-width:0"
   inkscape:connector-curvature="0"
   d="m 195.88,696.39 0.01,0.03 0,0.04 0.01,0.03 0.01,0.03 0.01,0.03 0.01,0.03 0.01,0.03 0.01,0.02 0.01,0.02 0.02,0.03 0.01,0.02 0.02,0.02 0.01,0.02 0.02,0.01 0.02,0.02 0.03,0.01 0.02,0.02 0.03,0.01 0.03,0.01 0.03,0.01 0.04,0.01 0.02,0.01 0.02,0 0.02,0 0.02,0.01 0.02,0 0.02,0 0.03,0.01 0.02,0 0.03,0 0.03,0.01 0.02,0 0.03,0 0.03,0 0.03,0 0.03,0 0.04,0 0.03,0.01 0.04,0 0.03,0 0.04,0 0.04,0 0.04,0 c 0.26,0 0.35,0 0.35,0.2 0,0.14 -0.12,0.14 -0.17,0.14 -0.31,0 -1.12,-0.04 -1.43,-0.04 -0.33,0 -1.13,0.04 -1.45,0.04 -0.08,0 -0.22,0 -0.22,-0.22 0,-0.12 0.1,-0.12 0.31,-0.12 0.45,0 0.75,0 0.75,-0.21 0,-0.05 0,-0.08 -0.03,-0.17 l -1.47,-5.87 c -0.09,-0.41 -0.13,-0.51 -0.99,-0.51 -0.25,0 -0.34,0 -0.34,-0.22 0,-0.12 0.13,-0.12 0.16,-0.12 0.31,0 1.11,0.03 1.42,0.03 0.33,0 1.14,-0.03 1.46,-0.03 0.09,0 0.22,0 0.22,0.21 0,0.13 -0.09,0.13 -0.32,0.13 -0.2,0 -0.26,0 -0.47,0.02 -0.23,0.02 -0.27,0.06 -0.27,0.18 0,0.09 0.02,0.18 0.04,0.25 z"
   id="path11235" />
<path
   style="fill:#000000;stroke-width:0"
   inkscape:connector-curvature="0"
   d="m 200.49,690.69 0,0.08 0,0.07 0,0.08 -0.01,0.07 0,0.07 0,0.07 0,0.07 -0.01,0.07 0,0.06 -0.01,0.07 -0.01,0.06 0,0.06 -0.02,0.12 -0.02,0.11 -0.02,0.11 -0.02,0.11 -0.03,0.1 -0.04,0.1 -0.03,0.1 -0.04,0.1 -0.04,0.1 -0.05,0.09 c -0.35,0.7 -1,0.88 -1.43,0.88 v -0.23 c 0.27,0 0.82,-0.13 0.97,-0.85 0.1,-0.44 0.1,-1.04 0.1,-1.58 0,-0.47 0,-1.18 -0.1,-1.63 -0.16,-0.83 -0.71,-0.94 -0.97,-0.94 h 0 c -0.27,0 -0.82,0.13 -0.99,0.96 -0.09,0.45 -0.09,1.2 -0.09,1.61 0,0.55 0,1.11 0.09,1.54 0.17,0.82 0.79,0.89 0.99,0.89 v 0.23 c -1.01,0 -1.37,-0.75 -1.48,-0.97 -0.29,-0.58 -0.31,-1.37 -0.31,-1.78 0,-0.53 0.03,-1.33 0.41,-1.97 0.37,-0.58 0.95,-0.74 1.38,-0.74 0.38,0 1.06,0.12 1.46,0.91 0.29,0.57 0.32,1.28 0.32,1.8 z"
   id="path11237" />
<path
   style="fill:#000000;stroke-width:0"
   inkscape:connector-curvature="0"
   d="m 207.79,711.24 0.01,0.04 0.01,0.03 0.01,0.03 0.01,0.03 0.01,0.03 0.01,0.03 0.01,0.03 0.01,0.03 0.01,0.02 0.02,0.02 0.01,0.02 0.02,0.02 0.02,0.02 0.02,0.02 0.03,0.02 0.02,0.01 0.03,0.02 0.03,0.01 0.04,0.01 0.04,0.01 0.02,0.01 0.02,0 0.02,0.01 0.02,0 0.03,0.01 0.02,0 0.03,0 0.03,0.01 0.03,0 0.03,0 0.03,0 0.03,0.01 0.03,0 0.03,0 0.04,0 0.04,0.01 0.03,0 0.04,0 0.04,0 0.05,0 0.04,0 0.04,0 0.05,0 0.05,0 c 0.32,0 0.41,0 0.41,0.21 0,0.13 -0.12,0.13 -0.17,0.13 -0.36,0 -1.26,-0.03 -1.62,-0.03 -0.32,0 -1.12,0.03 -1.44,0.03 -0.08,0 -0.21,0 -0.21,-0.22 0,-0.12 0.1,-0.12 0.3,-0.12 0.03,0 0.23,0 0.42,-0.02 0.19,-0.02 0.29,-0.03 0.29,-0.18 0,-0.04 -0.01,-0.07 -0.04,-0.2 l -1.46,-5.85 c -0.11,-0.42 -0.13,-0.51 -0.99,-0.51 -0.19,0 -0.29,0 -0.29,-0.22 0,-0.12 0.09,-0.12 0.29,-0.12 h 5.04 c 0.26,0 0.27,0 0.34,0.19 l 0.86,2.35 c 0.04,0.12 0.04,0.14 0.04,0.15 0,0.05 -0.03,0.12 -0.13,0.12 -0.1,0 -0.11,-0.05 -0.18,-0.23 -0.37,-1 -0.85,-2.24 -2.74,-2.24 h -1.02 c -0.15,0 -0.17,0 -0.24,0.01 -0.11,0.01 -0.14,0.02 -0.14,0.11 0,0.03 0,0.05 0.05,0.25 z"
   id="path11239" />
<line
   style="stroke-width:0.43599999"
   x1="203.72"
   y1="700"
   x2="211.14"
   y2="700"
   id="line11241" />
<path
   style="fill:#000000;stroke-width:0"
   inkscape:connector-curvature="0"
   d="m 207.86,693.62 0.09,0.03 0.08,0.03 0.08,0.04 0.07,0.03 0.08,0.04 0.08,0.04 0.07,0.05 0.07,0.04 0.07,0.05 0.06,0.05 0.07,0.06 0.06,0.05 0.06,0.06 0.05,0.06 0.06,0.06 0.05,0.06 0.05,0.06 0.05,0.07 0.04,0.06 0.04,0.07 0.04,0.07 0.03,0.07 0.04,0.07 0.02,0.08 0.03,0.07 0.02,0.08 0.02,0.07 0.02,0.08 0.01,0.08 0.01,0.08 0.01,0.08 0,0.08 c 0,0.89 -0.96,1.5 -2.01,1.5 -1.1,0 -1.92,-0.65 -1.92,-1.48 0,-0.36 0.24,-0.57 0.55,-0.57 0.34,0 0.56,0.24 0.56,0.56 0,0.54 -0.52,0.54 -0.68,0.54 0.34,0.54 1.06,0.68 1.45,0.68 0.45,0 1.04,-0.24 1.04,-1.22 0,-0.13 -0.02,-0.76 -0.3,-1.24 -0.33,-0.53 -0.7,-0.56 -0.97,-0.57 -0.09,-0.01 -0.35,-0.03 -0.42,-0.03 -0.09,-0.01 -0.17,-0.02 -0.17,-0.13 0,-0.12 0.08,-0.12 0.27,-0.12 h 0.47 c 0.9,0 1.3,-0.74 1.3,-1.81 0,-1.48 -0.75,-1.8 -1.23,-1.8 -0.47,0 -1.29,0.19 -1.67,0.83 0.38,-0.05 0.72,0.19 0.72,0.6 0,0.39 -0.29,0.61 -0.61,0.61 -0.26,0 -0.61,-0.15 -0.61,-0.63 0,-0.99 1.02,-1.71 2.2,-1.71 1.33,0 2.32,0.99 2.32,2.1 0,0.89 -0.69,1.74 -1.82,1.97 z"
   id="path11243" />
<path
   style="fill:#000000;stroke-width:0"
   inkscape:connector-curvature="0"
   d="m 219,700.3 -2.18,2.17 c -0.13,0.13 -0.15,0.15 -0.24,0.15 -0.11,0 -0.21,-0.1 -0.21,-0.22 0,-0.08 0.02,-0.1 0.14,-0.22 l 2.17,-2.19 -2.17,-2.18 c -0.12,-0.12 -0.14,-0.15 -0.14,-0.22 0,-0.12 0.1,-0.22 0.21,-0.22 0.09,0 0.11,0.02 0.24,0.15 l 2.17,2.17 2.25,-2.26 c 0.02,-0.01 0.1,-0.06 0.17,-0.06 0.13,0 0.21,0.1 0.21,0.22 0,0.02 0,0.06 -0.03,0.12 -0.01,0.02 -1.74,1.73 -2.29,2.28 l 2,2 c 0.05,0.06 0.21,0.2 0.27,0.27 0.01,0.02 0.05,0.06 0.05,0.14 0,0.12 -0.08,0.22 -0.21,0.22 -0.09,0 -0.14,-0.04 -0.25,-0.16 z"
   id="path11245" />
<path
   style="fill:#000000;stroke-width:0"
   inkscape:connector-curvature="0"
   d="m 228.87,704.24 0,0.01 0,0.01 0,0.02 0,0.01 0,0.01 0,0.01 0,0.01 0,0.01 0,0.01 0,0.01 0,0.01 0,0 0,0.01 0,0.01 0,0.01 0,0.01 0,0 0,0.01 0,0.01 -0.01,0.01 0,0.02 0,0.01 -0.01,0 0,0.01 -0.01,0.01 0,0.01 -0.01,0 -0.01,0.01 -0.01,0 -0.01,0.01 0,0 -0.01,0 0,0 -0.01,0 -0.01,0.01 0,0 -0.01,0 -0.01,0 0,0 -0.01,0 -0.01,0 -0.01,0 0,0 -0.01,0 -0.01,0 -0.01,0 -0.01,0 -0.01,0 -0.01,0 -0.01,0 -0.01,0 -0.02,0 c -0.67,-0.69 -1.63,-0.69 -1.98,-0.69 v -0.34 c 0.22,0 0.86,0 1.43,0.28 v -5.64 c 0,-0.39 -0.03,-0.52 -1.01,-0.52 h -0.35 v -0.34 c 0.38,0.03 1.33,0.03 1.76,0.03 0.44,0 1.38,0 1.77,-0.03 v 0.34 h -0.35 c -0.98,0 -1.02,0.12 -1.02,0.52 z"
   id="path11247" />
<path
   style="fill:#000000;stroke-width:0"
   inkscape:connector-curvature="0"
   d="m 237.79,700.3 -2.18,2.17 c -0.13,0.13 -0.15,0.15 -0.24,0.15 -0.11,0 -0.22,-0.1 -0.22,-0.22 0,-0.08 0.02,-0.1 0.14,-0.22 l 2.18,-2.19 -2.18,-2.18 c -0.12,-0.12 -0.14,-0.15 -0.14,-0.22 0,-0.12 0.11,-0.22 0.22,-0.22 0.09,0 0.11,0.02 0.24,0.15 l 2.17,2.17 2.25,-2.26 c 0.02,-0.01 0.1,-0.06 0.16,-0.06 0.13,0 0.22,0.1 0.22,0.22 0,0.02 0,0.06 -0.03,0.12 -0.01,0.02 -1.74,1.73 -2.29,2.28 l 2,2 c 0.05,0.06 0.21,0.2 0.27,0.27 0.01,0.02 0.05,0.06 0.05,0.14 0,0.12 -0.09,0.22 -0.22,0.22 -0.08,0 -0.13,-0.04 -0.25,-0.16 z"
   id="path11249" />
<path
   style="fill:#000000;stroke-width:0"
   inkscape:connector-curvature="0"
   d="m 247.66,704.24 0,0.01 0,0.01 0,0.02 0,0.01 0,0.01 0,0.01 0,0.01 0,0.01 0,0.01 0,0.01 0,0.01 0,0 0,0.01 0,0.01 0,0.01 0,0.01 0,0 0,0.01 -0.01,0.01 0,0.01 0,0.02 0,0.01 -0.01,0 0,0.01 -0.01,0.01 -0.01,0.01 0,0 -0.01,0.01 -0.01,0 -0.01,0.01 0,0 -0.01,0 0,0 -0.01,0 -0.01,0.01 0,0 -0.01,0 -0.01,0 0,0 -0.01,0 -0.01,0 -0.01,0 -0.01,0 -0.01,0 0,0 -0.01,0 -0.01,0 -0.01,0 -0.01,0 -0.02,0 -0.01,0 -0.01,0 c -0.67,-0.69 -1.63,-0.69 -1.98,-0.69 v -0.34 c 0.22,0 0.86,0 1.43,0.28 v -5.64 c 0,-0.39 -0.04,-0.52 -1.02,-0.52 h -0.35 v -0.34 c 0.39,0.03 1.33,0.03 1.77,0.03 0.44,0 1.38,0 1.76,-0.03 v 0.34 h -0.34 c -0.98,0 -1.02,0.12 -1.02,0.52 z"
   id="path11251" />
<path
   style="fill:#000000;stroke-width:0"
   inkscape:connector-curvature="0"
   d="m 256.79,699.78 h 3.04 c 0.15,0 0.36,0 0.36,0.21 0,0.22 -0.21,0.22 -0.36,0.22 h -3.04 v 3.05 c 0,0.15 0,0.36 -0.22,0.36 -0.21,0 -0.21,-0.21 -0.21,-0.36 v -3.05 h -3.05 c -0.16,0 -0.36,0 -0.36,-0.22 0,-0.21 0.2,-0.21 0.36,-0.21 h 3.05 v -3.05 c 0,-0.15 0,-0.36 0.21,-0.36 0.22,0 0.22,0.21 0.22,0.36 z"
   id="path11253" />
<path
   style="fill:#000000;stroke-width:0"
   inkscape:connector-curvature="0"
   d="m 274.57,705.49 1.15,1.12 c 1.7,1.5 2.35,2.09 2.35,3.18 0,1.24 -0.98,2.11 -2.31,2.11 -1.23,0 -2.03,-1 -2.03,-1.97 0,-0.61 0.54,-0.61 0.57,-0.61 0.19,0 0.57,0.13 0.57,0.58 0,0.28 -0.2,0.57 -0.58,0.57 -0.08,0 -0.11,0 -0.14,-0.01 0.25,0.7 0.84,1.11 1.47,1.11 0.99,0 1.46,-0.89 1.46,-1.78 0,-0.87 -0.54,-1.73 -1.14,-2.4 l -2.09,-2.34 c -0.12,-0.12 -0.12,-0.14 -0.12,-0.4 h 4.04 l 0.3,1.9 h -0.27 c -0.06,-0.33 -0.13,-0.81 -0.24,-0.97 -0.08,-0.09 -0.8,-0.09 -1.04,-0.09 z"
   id="path11255" />
<line
   style="stroke-width:0.43599999"
   x1="264.44"
   y1="700"
   x2="287.38"
   y2="700"
   id="line11257" />
<path
   style="fill:#000000;stroke-width:0"
   inkscape:connector-curvature="0"
   d="m 268.76,693.93 -0.04,0 -0.03,0 -0.03,0 -0.03,-0.01 -0.03,0 -0.03,0 -0.02,0 -0.01,-0.01 -0.02,0 -0.01,0 -0.02,-0.01 -0.01,0 -0.02,-0.01 -0.01,0 -0.02,-0.01 -0.01,0 -0.01,-0.01 -0.02,-0.01 -0.01,-0.01 -0.02,-0.01 -0.01,0 -0.02,-0.02 -0.01,-0.01 -0.01,-0.01 -0.02,-0.01 -0.01,-0.02 c -0.18,-0.16 -0.2,-0.34 -0.2,-0.42 0,-0.26 0.2,-0.38 0.4,-0.38 0.32,0 0.61,0.26 0.61,0.69 0,0.54 -0.51,0.94 -1.28,0.94 -1.47,0 -2.92,-1.56 -2.92,-3.09 0,-0.98 0.63,-1.84 1.76,-1.84 1.56,0 2.48,1.15 2.48,1.28 0,0.07 -0.07,0.15 -0.14,0.15 -0.05,0 -0.07,-0.03 -0.14,-0.11 -0.86,-1.08 -2.04,-1.08 -2.17,-1.08 -0.69,0 -0.98,0.53 -0.98,1.19 0,0.44 0.21,1.5 0.58,2.17 0.34,0.62 0.94,1.09 1.54,1.09 0.37,0 0.78,-0.14 0.94,-0.43 z"
   id="path11259" />
<path
   style="fill:#000000;stroke-width:0"
   inkscape:connector-curvature="0"
   d="m 276.88,692.33 0,0 0,0.01 0,0.01 0.01,0.01 0,0.01 0.01,0.01 0,0.01 0.01,0.01 0,0.01 0,0.01 0,0 0.01,0.01 0,0 0,0.01 0,0 0,0.01 0,0 0,0.01 0.01,0 0,0 0,0.01 0,0 0,0 0,0.01 0,0 c 0,0.01 0,0.12 -0.13,0.12 -0.1,0 -0.12,-0.07 -0.14,-0.13 -0.71,-1.61 -1.11,-2.34 -2.98,-2.34 h -1.59 c -0.15,0 -0.17,0 -0.23,0.01 -0.11,0.01 -0.15,0.02 -0.15,0.11 0,0.03 0,0.05 0.06,0.25 l 0.74,2.97 h 1.08 c 0.92,0 0.92,-0.23 0.92,-0.5 0,-0.08 0,-0.21 -0.08,-0.54 -0.02,-0.05 -0.03,-0.08 -0.03,-0.11 0,-0.06 0.05,-0.12 0.14,-0.12 0.09,0 0.12,0.05 0.17,0.21 l 0.62,2.55 c 0,0.07 -0.06,0.12 -0.13,0.12 -0.1,0 -0.12,-0.06 -0.15,-0.19 -0.23,-0.83 -0.43,-1.08 -1.43,-1.08 h -1.02 l 0.65,2.62 c 0.1,0.38 0.11,0.43 0.59,0.43 h 1.53 c 1.33,0 1.66,-0.32 1.66,-1.21 0,-0.26 0,-0.29 -0.05,-0.58 0,-0.06 -0.01,-0.14 -0.01,-0.2 0,-0.05 0.04,-0.13 0.13,-0.13 0.12,0 0.13,0.07 0.16,0.28 l 0.21,1.88 c 0.04,0.29 -0.02,0.29 -0.29,0.29 h -5.5 c -0.22,0 -0.33,0 -0.33,-0.22 0,-0.11 0.1,-0.11 0.31,-0.11 0.4,0 0.71,0 0.71,-0.2 0,-0.04 0,-0.07 -0.06,-0.26 l -1.43,-5.76 c -0.11,-0.43 -0.14,-0.51 -1,-0.51 -0.18,0 -0.3,0 -0.3,-0.21 0,-0.13 0.1,-0.13 0.3,-0.13 h 5.66 c 0.25,0 0.26,0.01 0.33,0.18 z"
   id="path11261" />
<path
   style="fill:#000000;stroke-width:0"
   inkscape:connector-curvature="0"
   d="m 281.92,696.39 0.01,0.03 0.01,0.04 0.01,0.03 0.01,0.03 0.01,0.03 0.01,0.03 0.01,0.03 0.01,0.02 0.01,0.02 0.01,0.03 0.02,0.02 0.01,0.02 0.02,0.02 0.02,0.01 0.02,0.02 0.02,0.01 0.03,0.02 0.03,0.01 0.03,0.01 0.03,0.01 0.03,0.01 0.02,0.01 0.02,0 0.02,0 0.02,0.01 0.03,0 0.02,0 0.02,0.01 0.03,0 0.02,0 0.03,0.01 0.03,0 0.03,0 0.03,0 0.03,0 0.03,0 0.03,0 0.04,0.01 0.03,0 0.04,0 0.04,0 0.03,0 0.04,0 c 0.27,0 0.35,0 0.35,0.2 0,0.14 -0.12,0.14 -0.16,0.14 -0.32,0 -1.12,-0.04 -1.44,-0.04 -0.32,0 -1.12,0.04 -1.45,0.04 -0.07,0 -0.21,0 -0.21,-0.22 0,-0.12 0.09,-0.12 0.3,-0.12 0.46,0 0.75,0 0.75,-0.21 0,-0.05 0,-0.08 -0.02,-0.17 l -1.47,-5.87 c -0.1,-0.41 -0.13,-0.51 -0.99,-0.51 -0.25,0 -0.35,0 -0.35,-0.22 0,-0.12 0.13,-0.12 0.17,-0.12 0.31,0 1.1,0.03 1.42,0.03 0.33,0 1.13,-0.03 1.46,-0.03 0.09,0 0.22,0 0.22,0.21 0,0.13 -0.09,0.13 -0.33,0.13 -0.2,0 -0.25,0 -0.47,0.02 -0.23,0.02 -0.27,0.06 -0.27,0.18 0,0.09 0.02,0.18 0.04,0.25 z"
   id="path11263" />
<path
   style="fill:#000000;stroke-width:0"
   inkscape:connector-curvature="0"
   d="m 286.53,690.69 0,0.08 0,0.07 0,0.08 0,0.07 0,0.07 -0.01,0.07 0,0.07 0,0.07 -0.01,0.06 0,0.07 -0.01,0.06 -0.01,0.06 -0.01,0.12 -0.02,0.11 -0.02,0.11 -0.03,0.11 -0.03,0.1 -0.03,0.1 -0.04,0.1 -0.04,0.1 -0.04,0.1 -0.05,0.09 c -0.35,0.7 -0.99,0.88 -1.43,0.88 v -0.23 c 0.27,0 0.82,-0.13 0.98,-0.85 0.1,-0.44 0.1,-1.04 0.1,-1.58 0,-0.47 0,-1.18 -0.1,-1.63 -0.17,-0.83 -0.72,-0.94 -0.98,-0.94 h 0 c -0.27,0 -0.82,0.13 -0.99,0.96 -0.08,0.45 -0.08,1.2 -0.08,1.61 0,0.55 0,1.11 0.08,1.54 0.17,0.82 0.79,0.89 0.99,0.89 v 0.23 c -1,0 -1.37,-0.75 -1.48,-0.97 -0.29,-0.58 -0.3,-1.37 -0.3,-1.78 0,-0.53 0.02,-1.33 0.4,-1.97 0.37,-0.58 0.96,-0.74 1.38,-0.74 0.38,0 1.07,0.12 1.47,0.91 0.29,0.57 0.31,1.28 0.31,1.8 z"
   id="path11265" />
<path
   style="fill:#000000;stroke-width:0"
   inkscape:connector-curvature="0"
   d="m 292.64,703.86 0.01,0.04 0.01,0.03 0.01,0.03 0.01,0.03 0.01,0.03 0.01,0.03 0.01,0.03 0.01,0.03 0.01,0.02 0.02,0.02 0.01,0.02 0.02,0.02 0.02,0.02 0.02,0.02 0.03,0.02 0.02,0.01 0.03,0.02 0.03,0.01 0.04,0.01 0.04,0.01 0.02,0.01 0.02,0 0.02,0.01 0.02,0 0.03,0.01 0.02,0 0.03,0 0.03,0.01 0.03,0 0.03,0 0.03,0 0.03,0.01 0.03,0 0.03,0 0.04,0 0.04,0.01 0.03,0 0.04,0 0.04,0 0.05,0 0.04,0 0.04,0 0.05,0 0.05,0 c 0.32,0 0.41,0 0.41,0.21 0,0.13 -0.12,0.13 -0.17,0.13 -0.36,0 -1.26,-0.03 -1.62,-0.03 -0.32,0 -1.12,0.03 -1.44,0.03 -0.08,0 -0.21,0 -0.21,-0.22 0,-0.12 0.1,-0.12 0.3,-0.12 0.03,0 0.23,0 0.42,-0.02 0.19,-0.02 0.29,-0.03 0.29,-0.18 0,-0.04 -0.01,-0.07 -0.04,-0.2 l -1.46,-5.85 c -0.11,-0.42 -0.13,-0.51 -0.99,-0.51 -0.19,0 -0.3,0 -0.3,-0.22 0,-0.12 0.1,-0.12 0.3,-0.12 h 5.04 c 0.26,0 0.27,0 0.34,0.19 l 0.86,2.35 c 0.04,0.12 0.04,0.14 0.04,0.15 0,0.05 -0.03,0.12 -0.13,0.12 -0.1,0 -0.11,-0.05 -0.18,-0.23 -0.37,-1 -0.85,-2.24 -2.74,-2.24 h -1.02 c -0.15,0 -0.17,0 -0.24,0.01 -0.11,0.01 -0.14,0.02 -0.14,0.11 0,0.03 0,0.05 0.05,0.25 z"
   id="path11267" />
<path
   style="fill:#000000;stroke-width:0"
   inkscape:connector-curvature="0"
   d="m 302.65,700.3 -2.17,2.17 c -0.13,0.13 -0.16,0.15 -0.24,0.15 -0.11,0 -0.22,-0.1 -0.22,-0.22 0,-0.08 0.02,-0.1 0.14,-0.22 l 2.18,-2.19 -2.18,-2.18 c -0.12,-0.12 -0.14,-0.15 -0.14,-0.22 0,-0.12 0.11,-0.22 0.22,-0.22 0.08,0 0.11,0.02 0.24,0.15 l 2.16,2.17 2.26,-2.26 c 0.02,-0.01 0.1,-0.06 0.16,-0.06 0.13,0 0.22,0.1 0.22,0.22 0,0.02 0,0.06 -0.03,0.12 -0.02,0.02 -1.75,1.73 -2.29,2.28 l 1.99,2 c 0.06,0.06 0.22,0.2 0.27,0.27 0.01,0.02 0.06,0.06 0.06,0.14 0,0.12 -0.09,0.22 -0.22,0.22 -0.09,0 -0.13,-0.04 -0.25,-0.16 z"
   id="path11269" />
<path
   style="fill:#000000;stroke-width:0"
   inkscape:connector-curvature="0"
   d="m 312.53,704.24 0,0.01 0,0.01 0,0.02 0,0.01 0,0.01 0,0.01 0,0.01 0,0.01 0,0.01 0,0.01 0,0.01 0,0 0,0.01 0,0.01 0,0.01 0,0.01 -0.01,0 0,0.01 0,0.01 0,0.01 0,0.02 -0.01,0.01 0,0 -0.01,0.01 0,0.01 -0.01,0.01 -0.01,0 0,0.01 -0.01,0 -0.01,0.01 -0.01,0 0,0 -0.01,0 0,0 -0.01,0.01 -0.01,0 0,0 -0.01,0 -0.01,0 -0.01,0 0,0 -0.01,0 -0.01,0 -0.01,0 -0.01,0 -0.01,0 -0.01,0 -0.01,0 -0.01,0 -0.01,0 -0.01,0 -0.01,0 c -0.68,-0.69 -1.63,-0.69 -1.98,-0.69 v -0.34 c 0.22,0 0.86,0 1.42,0.28 v -5.64 c 0,-0.39 -0.03,-0.52 -1.01,-0.52 h -0.35 v -0.34 c 0.38,0.03 1.33,0.03 1.77,0.03 0.43,0 1.38,0 1.76,-0.03 v 0.34 h -0.35 c -0.98,0 -1.01,0.12 -1.01,0.52 z"
   id="path11271" />
<path
   style="fill:#000000;stroke-width:0"
   inkscape:connector-curvature="0"
   d="m 321.44,700.3 -2.18,2.17 c -0.13,0.13 -0.15,0.15 -0.24,0.15 -0.1,0 -0.21,-0.1 -0.21,-0.22 0,-0.08 0.02,-0.1 0.14,-0.22 l 2.18,-2.19 -2.18,-2.18 c -0.12,-0.12 -0.14,-0.15 -0.14,-0.22 0,-0.12 0.11,-0.22 0.21,-0.22 0.09,0 0.11,0.02 0.24,0.15 l 2.17,2.17 2.25,-2.26 c 0.03,-0.01 0.1,-0.06 0.17,-0.06 0.13,0 0.22,0.1 0.22,0.22 0,0.02 0,0.06 -0.04,0.12 -0.01,0.02 -1.74,1.73 -2.28,2.28 l 1.99,2 c 0.05,0.06 0.22,0.2 0.27,0.27 0.01,0.02 0.06,0.06 0.06,0.14 0,0.12 -0.09,0.22 -0.22,0.22 -0.09,0 -0.13,-0.04 -0.25,-0.16 z"
   id="path11273" />
<path
   style="fill:#000000;stroke-width:0"
   inkscape:connector-curvature="0"
   d="m 331.32,704.24 0,0.01 0,0.01 0,0.02 0,0.01 0,0.01 0,0.01 0,0.01 0,0.01 0,0.01 0,0.01 0,0.01 0,0 -0.01,0.01 0,0.01 0,0.01 0,0.01 0,0 0,0.01 0,0.01 0,0.01 -0.01,0.02 0,0.01 0,0 -0.01,0.01 0,0.01 -0.01,0.01 -0.01,0 -0.01,0.01 0,0 -0.01,0.01 -0.01,0 0,0 -0.01,0 -0.01,0 0,0.01 -0.01,0 -0.01,0 0,0 -0.01,0 -0.01,0 0,0 -0.01,0 -0.01,0 -0.01,0 -0.01,0 -0.01,0 -0.01,0 -0.01,0 -0.01,0 -0.01,0 -0.01,0 -0.01,0 c -0.68,-0.69 -1.64,-0.69 -1.99,-0.69 v -0.34 c 0.22,0 0.87,0 1.43,0.28 v -5.64 c 0,-0.39 -0.03,-0.52 -1.01,-0.52 h -0.35 v -0.34 c 0.38,0.03 1.33,0.03 1.76,0.03 0.44,0 1.39,0 1.77,-0.03 v 0.34 h -0.35 c -0.98,0 -1.01,0.12 -1.01,0.52 z"
   id="path11275" />
</g>    <g
       style="font-style:normal;font-variant:normal;font-weight:normal;font-stretch:normal;letter-spacing:normal;word-spacing:normal;text-anchor:start;fill:none;stroke:#000000;stroke-width:1;stroke-linecap:butt;stroke-linejoin:miter;stroke-miterlimit:10.43299961;stroke-opacity:1;stroke-dasharray:none;stroke-dashoffset:0"
       ns0:preamble="/home/nholtz/work/share/config/inkscape/extensions/amspreamble.tex"
       ns0:text="\\[\nf_{11} = \\frac{2 c + 6}{3 c}\\frac{L}{E I_0}\n\\]\n"
       text-anchor="start"
       word-spacing="normal"
       letter-spacing="normal"
       font-size-adjust="none"
       font-stretch="normal"
       font-weight="normal"
       font-variant="normal"
       font-style="normal"
       fill-opacity="1"
       fill-rule="evenodd"
       fill="none"
       stroke-opacity="1"
       stroke-dashoffset="0"
       stroke-dasharray="none"
       stroke-miterlimit="10.433"
       stroke-linejoin="miter"
       stroke-linecap="butt"
       stroke="black"
       xml:space="preserve"
       transform="matrix(1.2,0,0,-1.2,2.270229,1270.829)"
       id="g11529">
<path
   id="path11531"
   fill="black"
   stroke-width="0"
   d="M157.07,701.63 H158 C158.22,701.63,158.33,701.63,158.33,701.84 C158.33,701.97,158.22,701.97,158.04,701.97 H157.13 L157.36,703.21 C157.4,703.43,157.56,704.21,157.62,704.34 C157.72,704.55,157.9,704.71,158.13,704.71 C158.18,704.71,158.46,704.71,158.67,704.51 C158.19,704.47,158.08,704.09,158.08,703.92 C158.08,703.67,158.28,703.54,158.48,703.54 C158.77,703.54,159.08,703.78,159.08,704.2 C159.08,704.7,158.58,704.95,158.13,704.95 C157.76,704.95,157.08,704.75,156.75,703.67 C156.69,703.45,156.65,703.34,156.39,701.97 H155.64 C155.43,701.97,155.31,701.97,155.31,701.76 C155.31,701.63,155.41,701.63,155.62,701.63 H156.34 L155.52,697.33 C155.32,696.27,155.14,695.28,154.57,695.28 C154.53,695.28,154.26,695.28,154.05,695.47 C154.55,695.51,154.65,695.9,154.65,696.06 C154.65,696.31,154.45,696.44,154.25,696.44 C153.96,696.44,153.65,696.21,153.65,695.79 C153.65,695.3,154.13,695.04,154.57,695.04 C155.17,695.04,155.61,695.68,155.8,696.1 C156.15,696.78,156.4,698.1,156.41,698.18 Z " />
<path
   id="path11533"
   fill="black"
   stroke-width="0"
   d="M160.91,700.7 L160.91,700.71 L160.91,700.72 L160.91,700.73 L160.91,700.74 L160.91,700.74 L160.91,700.75 L160.91,700.76 L160.91,700.77 L160.91,700.78 L160.91,700.78 L160.91,700.79 L160.91,700.8 L160.91,700.81 L160.91,700.81 L160.91,700.82 L160.91,700.82 L160.9,700.83 L160.9,700.83 L160.9,700.84 L160.9,700.85 L160.9,700.85 L160.89,700.86 L160.89,700.87 L160.89,700.88 L160.88,700.88 L160.88,700.89 L160.87,700.9 L160.86,700.9 L160.86,700.9 L160.85,700.91 L160.84,700.91 L160.83,700.91 L160.82,700.91 L160.81,700.92 L160.8,700.92 L160.79,700.92 L160.79,700.92 L160.78,700.92 L160.77,700.92 L160.77,700.92 L160.76,700.92 L160.75,700.92 L160.74,700.92 L160.74,700.92 L160.73,700.92 L160.72,700.92 L160.71,700.92 L160.7,700.92 L160.69,700.92 L160.68,700.92 C160.35,700.6,159.93,700.41,159.18,700.41 V700.15 C159.39,700.15,159.82,700.15,160.28,700.36 V696.29 C160.28,695.99,160.26,695.9,159.5,695.9 H159.22 V695.64 C159.55,695.66,160.24,695.66,160.59,695.66 C160.95,695.66,161.64,695.66,161.97,695.64 V695.9 H161.69 C160.93,695.9,160.91,695.99,160.91,696.29 Z " />
<path
   id="path11535"
   fill="black"
   stroke-width="0"
   d="M165.15,700.7 L165.15,700.71 L165.15,700.72 L165.15,700.73 L165.15,700.74 L165.15,700.74 L165.15,700.75 L165.15,700.76 L165.14,700.77 L165.14,700.78 L165.14,700.78 L165.14,700.79 L165.14,700.8 L165.14,700.81 L165.14,700.81 L165.14,700.82 L165.14,700.82 L165.14,700.83 L165.14,700.83 L165.14,700.84 L165.14,700.85 L165.13,700.85 L165.13,700.86 L165.13,700.87 L165.12,700.88 L165.12,700.88 L165.11,700.89 L165.11,700.9 L165.1,700.9 L165.09,700.9 L165.08,700.91 L165.07,700.91 L165.06,700.91 L165.05,700.91 L165.04,700.92 L165.04,700.92 L165.03,700.92 L165.02,700.92 L165.02,700.92 L165.01,700.92 L165,700.92 L164.99,700.92 L164.99,700.92 L164.98,700.92 L164.97,700.92 L164.96,700.92 L164.95,700.92 L164.94,700.92 L164.93,700.92 L164.92,700.92 L164.91,700.92 C164.59,700.6,164.17,700.41,163.41,700.41 V700.15 C163.63,700.15,164.05,700.15,164.52,700.36 V696.29 C164.52,695.99,164.49,695.9,163.74,695.9 H163.46 V695.64 C163.79,695.66,164.47,695.66,164.83,695.66 C165.19,695.66,165.88,695.66,166.2,695.64 V695.9 H165.93 C165.17,695.9,165.15,695.99,165.15,696.29 Z " />
<path
   id="path11537"
   fill="black"
   stroke-width="0"
   d="M177.89,700.83 L177.92,700.83 L177.95,700.83 L177.98,700.83 L178,700.83 L178.02,700.84 L178.03,700.84 L178.05,700.84 L178.06,700.84 L178.08,700.84 L178.09,700.85 L178.11,700.85 L178.12,700.85 L178.14,700.86 L178.15,700.86 L178.16,700.87 L178.17,700.88 L178.19,700.89 L178.2,700.89 L178.21,700.9 L178.22,700.91 L178.23,700.92 L178.23,700.93 L178.23,700.94 L178.24,700.94 L178.24,700.95 L178.24,700.96 L178.25,700.96 L178.25,700.97 L178.25,700.98 L178.25,700.99 L178.25,700.99 L178.26,701 L178.26,701.01 L178.26,701.02 L178.26,701.03 L178.26,701.04 L178.26,701.05 C178.26,701.27,178.05,701.27,177.9,701.27 H171.38 C171.23,701.27,171.02,701.27,171.02,701.05 C171.02,700.83,171.23,700.83,171.39,700.83 Z " />
<path
   id="path11539"
   fill="black"
   stroke-width="0"
   d="M177.9,698.72 L177.91,698.72 L177.93,698.72 L177.96,698.72 L177.99,698.72 L178.01,698.72 L178.02,698.72 L178.04,698.72 L178.05,698.73 L178.07,698.73 L178.08,698.73 L178.1,698.73 L178.11,698.74 L178.12,698.74 L178.14,698.75 L178.15,698.75 L178.16,698.76 L178.18,698.77 L178.19,698.77 L178.2,698.78 L178.21,698.79 L178.22,698.8 L178.22,698.81 L178.23,698.81 L178.23,698.82 L178.23,698.82 L178.24,698.83 L178.24,698.84 L178.24,698.84 L178.25,698.85 L178.25,698.86 L178.25,698.87 L178.25,698.87 L178.25,698.88 L178.26,698.89 L178.26,698.9 L178.26,698.91 L178.26,698.92 L178.26,698.93 L178.26,698.94 C178.26,699.16,178.05,699.16,177.89,699.16 H171.39 C171.23,699.16,171.02,699.16,171.02,698.94 C171.02,698.72,171.23,698.72,171.38,698.72 Z " />
<path
   id="path11541"
   fill="black"
   stroke-width="0"
   d="M184.5,705.49 L185.66,706.61 C187.35,708.11,188.01,708.7,188.01,709.79 C188.01,711.03,187.03,711.9,185.7,711.9 C184.47,711.9,183.66,710.9,183.66,709.93 C183.66,709.32,184.21,709.32,184.24,709.32 C184.43,709.32,184.81,709.45,184.81,709.9 C184.81,710.18,184.61,710.47,184.23,710.47 C184.14,710.47,184.12,710.47,184.09,710.46 C184.34,711.16,184.93,711.57,185.56,711.57 C186.55,711.57,187.02,710.68,187.02,709.79 C187.02,708.92,186.47,708.06,185.87,707.39 L183.78,705.05 C183.66,704.93,183.66,704.91,183.66,704.65 H187.7 L188.01,706.55 H187.74 C187.68,706.22,187.6,705.74,187.5,705.58 C187.42,705.49,186.7,705.49,186.46,705.49 Z " />
<path
   id="path11543"
   fill="black"
   stroke-width="0"
   d="M192.89,708.79 L192.85,708.79 L192.82,708.79 L192.79,708.79 L192.76,708.79 L192.73,708.79 L192.7,708.78 L192.68,708.78 L192.67,708.78 L192.65,708.77 L192.64,708.77 L192.62,708.77 L192.61,708.76 L192.59,708.76 L192.58,708.75 L192.56,708.75 L192.55,708.74 L192.54,708.73 L192.52,708.73 L192.51,708.72 L192.49,708.71 L192.48,708.7 L192.46,708.69 L192.45,708.68 L192.44,708.66 L192.42,708.65 L192.41,708.64 C192.23,708.47,192.21,708.29,192.21,708.21 C192.21,707.95,192.41,707.83,192.61,707.83 C192.93,707.83,193.22,708.09,193.22,708.53 C193.22,709.06,192.71,709.47,191.94,709.47 C190.47,709.47,189.02,707.91,189.02,706.37 C189.02,705.39,189.65,704.53,190.78,704.53 C192.34,704.53,193.26,705.69,193.26,705.82 C193.26,705.88,193.19,705.96,193.12,705.96 C193.07,705.96,193.05,705.94,192.98,705.85 C192.12,704.77,190.94,704.77,190.81,704.77 C190.12,704.77,189.83,705.3,189.83,705.96 C189.83,706.41,190.04,707.46,190.41,708.14 C190.75,708.76,191.35,709.22,191.95,709.22 C192.32,709.22,192.73,709.08,192.89,708.79 Z " />
<path
   id="path11545"
   fill="black"
   stroke-width="0"
   d="M200.17,707.16 H203.21 C203.36,707.16,203.57,707.16,203.57,707.37 C203.57,707.59,203.36,707.59,203.21,707.59 H200.17 V710.64 C200.17,710.79,200.17,711,199.96,711 C199.74,711,199.74,710.79,199.74,710.64 V707.59 H196.69 C196.54,707.59,196.33,707.59,196.33,707.37 C196.33,707.16,196.54,707.16,196.69,707.16 H199.74 V704.11 C199.74,703.96,199.74,703.75,199.96,703.75 C200.17,703.75,200.17,703.96,200.17,704.11 Z " />
<path
   id="path11547"
   fill="black"
   stroke-width="0"
   d="M208.06,708.22 V708.48 C208.06,711.24,209.41,711.63,209.97,711.63 C210.23,711.63,210.69,711.57,210.93,711.2 C210.76,711.2,210.33,711.2,210.33,710.71 C210.33,710.37,210.59,710.21,210.83,710.21 C211,710.21,211.33,710.3,211.33,710.73 C211.33,711.38,210.85,711.9,209.95,711.9 C208.55,711.9,207.08,710.5,207.08,708.09 C207.08,705.19,208.35,704.41,209.36,704.41 C210.57,704.41,211.6,705.44,211.6,706.87 C211.6,708.26,210.63,709.3,209.42,709.3 L209.41,709.05 C209.59,709.05,210.09,709.05,210.43,708.38 C210.62,707.97,210.62,707.42,210.62,706.88 C210.62,706.36,210.62,705.82,210.44,705.42 C210.11,704.77,209.61,704.72,209.36,704.72 H209.36 C208.67,704.72,208.35,705.37,208.28,705.53 C208.09,706.05,208.09,706.92,208.09,707.11 C208.09,707.96,208.43,709.05,209.41,709.05 L209.42,709.3 C208.68,709.3,208.28,708.75,208.06,708.22 Z " />
<line
   id="line11549"
   stroke-width="0.436"
   y2="700"
   x2="212.08"
   y1="700"
   x1="183.12" />
<path
   id="path11551"
   fill="black"
   stroke-width="0"
   d="M195.67,693.62 L195.75,693.65 L195.84,693.68 L195.91,693.72 L195.99,693.75 L196.07,693.79 L196.14,693.83 L196.22,693.88 L196.29,693.92 L196.35,693.97 L196.42,694.02 L196.48,694.08 L196.55,694.13 L196.6,694.19 L196.66,694.25 L196.72,694.31 L196.77,694.37 L196.82,694.43 L196.86,694.5 L196.91,694.56 L196.95,694.63 L196.99,694.7 L197.02,694.77 L197.05,694.84 L197.08,694.92 L197.11,694.99 L197.13,695.07 L197.15,695.14 L197.17,695.22 L197.18,695.3 L197.19,695.38 L197.19,695.46 L197.2,695.54 C197.2,696.43,196.24,697.04,195.19,697.04 C194.09,697.04,193.26,696.39,193.26,695.56 C193.26,695.2,193.5,694.99,193.82,694.99 C194.16,694.99,194.38,695.23,194.38,695.55 C194.38,696.09,193.86,696.09,193.7,696.09 C194.04,696.63,194.76,696.77,195.15,696.77 C195.59,696.77,196.19,696.53,196.19,695.55 C196.19,695.42,196.17,694.79,195.89,694.31 C195.56,693.78,195.19,693.75,194.92,693.74 C194.83,693.73,194.57,693.71,194.49,693.71 C194.41,693.7,194.33,693.69,194.33,693.58 C194.33,693.46,194.41,693.46,194.59,693.46 H195.07 C195.96,693.46,196.37,692.72,196.37,691.65 C196.37,690.17,195.62,689.85,195.14,689.85 C194.67,689.85,193.85,690.04,193.47,690.68 C193.85,690.63,194.19,690.87,194.19,691.28 C194.19,691.67,193.9,691.89,193.58,691.89 C193.32,691.89,192.97,691.74,192.97,691.26 C192.97,690.27,193.98,689.55,195.17,689.55 C196.5,689.55,197.49,690.54,197.49,691.65 C197.49,692.54,196.8,693.39,195.67,693.62 Z " />
<path
   id="path11553"
   fill="black"
   stroke-width="0"
   d="M202.28,693.93 L202.25,693.93 L202.22,693.93 L202.18,693.93 L202.15,693.92 L202.12,693.92 L202.09,693.92 L202.08,693.92 L202.06,693.91 L202.05,693.91 L202.03,693.91 L202.02,693.9 L202,693.9 L201.99,693.89 L201.97,693.89 L201.96,693.88 L201.94,693.88 L201.93,693.87 L201.92,693.86 L201.9,693.85 L201.89,693.84 L201.87,693.84 L201.86,693.82 L201.84,693.81 L201.83,693.8 L201.82,693.79 L201.8,693.77 C201.63,693.61,201.6,693.43,201.6,693.35 C201.6,693.09,201.8,692.97,202.01,692.97 C202.32,692.97,202.62,693.23,202.62,693.66 C202.62,694.2,202.11,694.6,201.33,694.6 C199.86,694.6,198.41,693.04,198.41,691.51 C198.41,690.53,199.05,689.67,200.18,689.67 C201.74,689.67,202.65,690.82,202.65,690.95 C202.65,691.02,202.59,691.1,202.52,691.1 C202.46,691.1,202.44,691.07,202.38,690.99 C201.52,689.91,200.33,689.91,200.2,689.91 C199.51,689.91,199.22,690.44,199.22,691.1 C199.22,691.54,199.44,692.6,199.81,693.27 C200.15,693.89,200.74,694.36,201.34,694.36 C201.71,694.36,202.13,694.22,202.28,693.93 Z " />
<path
   id="path11555"
   fill="black"
   stroke-width="0"
   d="M223.94,711.24 L223.95,711.28 L223.96,711.31 L223.96,711.34 L223.97,711.37 L223.98,711.4 L223.99,711.43 L224,711.46 L224.02,711.49 L224.03,711.51 L224.04,711.53 L224.06,711.55 L224.08,711.57 L224.1,711.59 L224.12,711.61 L224.14,711.63 L224.17,711.64 L224.2,711.66 L224.23,711.67 L224.26,711.68 L224.3,711.69 L224.32,711.7 L224.35,711.7 L224.37,711.71 L224.39,711.71 L224.42,711.72 L224.44,711.72 L224.47,711.72 L224.49,711.73 L224.52,711.73 L224.55,711.73 L224.58,711.73 L224.61,711.74 L224.65,711.74 L224.68,711.74 L224.72,711.74 L224.75,711.75 L224.79,711.75 L224.83,711.75 L224.87,711.75 L224.91,711.75 L224.95,711.75 L225,711.75 L225.04,711.75 L225.09,711.75 C225.42,711.75,225.51,711.75,225.51,711.96 C225.51,712.09,225.39,712.09,225.33,712.09 C224.97,712.09,224.08,712.06,223.72,712.06 C223.39,712.06,222.6,712.09,222.27,712.09 C222.2,712.09,222.07,712.09,222.07,711.87 C222.07,711.75,222.16,711.75,222.37,711.75 C222.39,711.75,222.6,711.75,222.78,711.73 C222.98,711.71,223.08,711.7,223.08,711.55 C223.08,711.51,223.07,711.48,223.04,711.35 L221.58,705.5 C221.47,705.08,221.45,704.99,220.59,704.99 C220.4,704.99,220.29,704.99,220.29,704.77 C220.29,704.65,220.39,704.65,220.59,704.65 H225.63 C225.89,704.65,225.9,704.65,225.96,704.84 L226.82,707.19 C226.87,707.31,226.87,707.33,226.87,707.34 C226.87,707.39,226.84,707.46,226.74,707.46 C226.64,707.46,226.63,707.41,226.55,707.23 C226.18,706.23,225.7,704.99,223.82,704.99 H222.79 C222.64,704.99,222.62,704.99,222.55,705 C222.45,705.01,222.41,705.02,222.41,705.11 C222.41,705.14,222.41,705.16,222.47,705.36 Z " />
<line
   id="line11557"
   stroke-width="0.436"
   y2="700"
   x2="232.68"
   y1="700"
   x1="214.47" />
<path
   id="path11559"
   fill="black"
   stroke-width="0"
   d="M222.18,692.33 L222.19,692.33 L222.19,692.34 L222.19,692.35 L222.2,692.36 L222.2,692.37 L222.21,692.38 L222.21,692.39 L222.21,692.4 L222.22,692.41 L222.22,692.42 L222.22,692.42 L222.22,692.43 L222.23,692.43 L222.23,692.44 L222.23,692.44 L222.23,692.45 L222.23,692.45 L222.23,692.46 L222.23,692.46 L222.24,692.46 L222.24,692.47 L222.24,692.47 L222.24,692.47 L222.24,692.48 L222.24,692.48 C222.24,692.49,222.24,692.6,222.11,692.6 C222.01,692.6,221.99,692.53,221.96,692.47 C221.26,690.86,220.85,690.13,218.99,690.13 H217.4 C217.25,690.13,217.23,690.13,217.16,690.14 C217.05,690.15,217.02,690.16,217.02,690.25 C217.02,690.28,217.02,690.3,217.08,690.5 L217.82,693.47 H218.9 C219.82,693.47,219.82,693.24,219.82,692.97 C219.82,692.89,219.82,692.76,219.74,692.43 C219.72,692.38,219.71,692.35,219.71,692.32 C219.71,692.26,219.76,692.2,219.85,692.2 C219.94,692.2,219.97,692.25,220.02,692.41 L220.64,694.96 C220.64,695.03,220.58,695.08,220.51,695.08 C220.41,695.08,220.39,695.02,220.35,694.89 C220.12,694.06,219.93,693.81,218.93,693.81 H217.9 L218.56,696.43 C218.65,696.81,218.67,696.86,219.15,696.86 H220.68 C222.01,696.86,222.34,696.54,222.34,695.65 C222.34,695.39,222.34,695.36,222.29,695.07 C222.29,695.01,222.28,694.93,222.28,694.87 C222.28,694.82,222.31,694.74,222.41,694.74 C222.53,694.74,222.54,694.81,222.56,695.02 L222.78,696.9 C222.82,697.19,222.76,697.19,222.49,697.19 H216.99 C216.77,697.19,216.66,697.19,216.66,696.97 C216.66,696.86,216.76,696.86,216.97,696.86 C217.37,696.86,217.68,696.86,217.68,696.66 C217.68,696.62,217.68,696.59,217.62,696.4 L216.18,690.64 C216.07,690.21,216.05,690.13,215.19,690.13 C215.01,690.13,214.89,690.13,214.89,689.92 C214.89,689.79,214.99,689.79,215.19,689.79 H220.84 C221.09,689.79,221.1,689.8,221.18,689.97 Z " />
<path
   id="path11561"
   fill="black"
   stroke-width="0"
   d="M227.23,696.39 L227.24,696.42 L227.25,696.46 L227.26,696.49 L227.27,696.52 L227.28,696.55 L227.29,696.58 L227.3,696.61 L227.31,696.63 L227.32,696.65 L227.33,696.68 L227.35,696.7 L227.36,696.72 L227.38,696.74 L227.4,696.75 L227.42,696.77 L227.44,696.78 L227.47,696.8 L227.49,696.81 L227.52,696.82 L227.56,696.83 L227.59,696.84 L227.61,696.85 L227.63,696.85 L227.65,696.85 L227.67,696.86 L227.7,696.86 L227.72,696.86 L227.74,696.87 L227.77,696.87 L227.79,696.87 L227.82,696.88 L227.85,696.88 L227.88,696.88 L227.91,696.88 L227.94,696.88 L227.97,696.88 L228,696.88 L228.04,696.89 L228.07,696.89 L228.11,696.89 L228.14,696.89 L228.18,696.89 L228.22,696.89 C228.48,696.89,228.57,696.89,228.57,697.09 C228.57,697.23,228.45,697.23,228.41,697.23 C228.09,697.23,227.29,697.19,226.97,697.19 C226.64,697.19,225.85,697.23,225.52,697.23 C225.45,697.23,225.3,697.23,225.3,697.01 C225.3,696.89,225.4,696.89,225.61,696.89 C226.07,696.89,226.36,696.89,226.36,696.68 C226.36,696.63,226.36,696.6,226.34,696.51 L224.87,690.64 C224.77,690.23,224.74,690.13,223.88,690.13 C223.63,690.13,223.53,690.13,223.53,689.91 C223.53,689.79,223.66,689.79,223.69,689.79 C224.01,689.79,224.8,689.82,225.12,689.82 C225.45,689.82,226.25,689.79,226.58,689.79 C226.67,689.79,226.8,689.79,226.8,690 C226.8,690.13,226.71,690.13,226.47,690.13 C226.27,690.13,226.22,690.13,226,690.15 C225.77,690.17,225.73,690.21,225.73,690.33 C225.73,690.42,225.75,690.51,225.77,690.58 Z " />
<path
   id="path11563"
   fill="black"
   stroke-width="0"
   d="M231.84,690.69 L231.84,690.77 L231.84,690.84 L231.84,690.92 L231.84,690.99 L231.84,691.06 L231.83,691.13 L231.83,691.2 L231.83,691.27 L231.82,691.33 L231.81,691.4 L231.81,691.46 L231.8,691.52 L231.79,691.64 L231.77,691.75 L231.74,691.86 L231.72,691.97 L231.69,692.07 L231.66,692.17 L231.62,692.27 L231.58,692.37 L231.54,692.47 L231.49,692.56 C231.14,693.26,230.5,693.44,230.06,693.44 V693.21 C230.33,693.21,230.88,693.08,231.04,692.36 C231.13,691.92,231.13,691.32,231.13,690.78 C231.13,690.31,231.13,689.6,231.04,689.15 C230.87,688.32,230.32,688.21,230.06,688.21 H230.06 C229.79,688.21,229.24,688.34,229.07,689.17 C228.99,689.62,228.99,690.37,228.99,690.78 C228.99,691.33,228.99,691.89,229.07,692.32 C229.24,693.14,229.86,693.21,230.06,693.21 V693.44 C229.06,693.44,228.69,692.69,228.58,692.47 C228.29,691.89,228.28,691.1,228.28,690.69 C228.28,690.16,228.3,689.36,228.68,688.72 C229.05,688.14,229.64,687.98,230.06,687.98 C230.44,687.98,231.13,688.1,231.52,688.89 C231.82,689.46,231.84,690.17,231.84,690.69 Z " />
</g>  </g>
</svg>
